*
G04 SZJLC*
%FSLAX26Y26*%
%MOIN*%
%IPPOS*%
%ADD12C,0.0315*%
%ADD11C,0.0315*%
%ADD10C,0.0315*%
%ADD13C,0.0315*%
%LNTopText*%
%LPD*%
G75*
G54D10*
G01X-134710Y-377320D02*
X-134710Y-95740D01*
X-66930Y-236530D01*
X850Y-95740D01*
X850Y-377320D01*
G01X70010Y-330390D02*
X70010Y-142670D01*
X103900Y-95740D01*
X171680Y-95740D01*
X205570Y-142670D01*
X205570Y-330390D01*
X171680Y-377320D01*
X103900Y-377320D01*
X70010Y-330390D01*
G01X274730Y-95740D02*
X376400Y-95740D01*
X410290Y-142670D01*
X410290Y-330390D01*
X376400Y-377320D01*
X274730Y-377320D01*
G01X308620Y-377320D02*
X308620Y-95740D01*
G01X479450Y-95740D02*
X615010Y-95740D01*
G01X479450Y-377320D02*
X615010Y-377320D01*
G01X479450Y-236530D02*
X581120Y-236530D01*
G01X479450Y-95740D02*
X479450Y-377320D01*
G01X684170Y-95740D02*
X684170Y-377320D01*
X819730Y-377320D01*
G01X956670Y-330390D02*
X956670Y-330390D01*
G01X956670Y-142670D02*
X956670Y-142670D01*
G01X1093610Y-142670D02*
X1127500Y-95740D01*
X1195280Y-95740D01*
X1229170Y-142670D01*
X1229170Y-189600D01*
X1195280Y-236530D01*
X1161390Y-236530D01*
X1093610Y-377320D01*
X1229170Y-377320D01*
G01X1332220Y-95740D02*
X1400000Y-95740D01*
G01X1332220Y-236530D02*
X1400000Y-236530D01*
G01X1332220Y-377320D02*
X1400000Y-377320D01*
G01X1298330Y-142670D02*
X1298330Y-189600D01*
G01X1433890Y-142670D02*
X1433890Y-189600D01*
G01X1298330Y-283460D02*
X1298330Y-330390D01*
G01X1433890Y-283460D02*
X1433890Y-330390D01*
G01X1400000Y-95740D02*
X1433890Y-142670D01*
G01X1332220Y-95740D02*
X1298330Y-142670D01*
G01X1400000Y-236530D02*
X1433890Y-189600D01*
G01X1332220Y-236530D02*
X1298330Y-189600D01*
G01X1400000Y-236530D02*
X1433890Y-283460D01*
G01X1332220Y-236530D02*
X1298330Y-283460D01*
G01X1400000Y-377320D02*
X1433890Y-330390D01*
G01X1332220Y-377320D02*
X1298330Y-330390D01*
G01X1536940Y-95740D02*
X1604720Y-95740D01*
G01X1536940Y-236530D02*
X1604720Y-236530D01*
G01X1536940Y-377320D02*
X1604720Y-377320D01*
G01X1503050Y-142670D02*
X1503050Y-189600D01*
G01X1638610Y-142670D02*
X1638610Y-189600D01*
G01X1503050Y-283460D02*
X1503050Y-330390D01*
G01X1638610Y-283460D02*
X1638610Y-330390D01*
G01X1604720Y-95740D02*
X1638610Y-142670D01*
G01X1536940Y-95740D02*
X1503050Y-142670D01*
G01X1604720Y-236530D02*
X1638610Y-189600D01*
G01X1536940Y-236530D02*
X1503050Y-189600D01*
G01X1604720Y-236530D02*
X1638610Y-283460D01*
G01X1536940Y-236530D02*
X1503050Y-283460D01*
G01X1604720Y-377320D02*
X1638610Y-330390D01*
G01X1536940Y-377320D02*
X1503050Y-330390D01*
G01X1707770Y-142670D02*
X1741660Y-95740D01*
X1809440Y-95740D01*
X1843330Y-142670D01*
X1843330Y-189600D01*
X1809440Y-236530D01*
X1775550Y-236530D01*
X1707770Y-377320D01*
X1843330Y-377320D01*
G01X1912490Y-95740D02*
X2048050Y-95740D01*
X2048050Y-189600D01*
X2014160Y-236530D01*
X1980270Y-236530D01*
G01X2014160Y-236530D02*
X2048050Y-283460D01*
X2048050Y-330390D01*
X2014160Y-377320D01*
X1946380Y-377320D01*
X1912490Y-283460D01*
G01X2252770Y-95740D02*
X2184990Y-95740D01*
X2117210Y-189600D01*
X2117210Y-330390D01*
X2151100Y-377320D01*
X2218880Y-377320D01*
X2252770Y-330390D01*
X2252770Y-283460D01*
X2218880Y-236530D01*
X2117210Y-236530D01*
G01X2423600Y-377320D02*
X2423600Y-95740D01*
X2321930Y-283460D01*
X2457490Y-283460D01*
G01X2526650Y-95740D02*
X2526650Y-377320D01*
X2594430Y-236530D01*
X2662210Y-377320D01*
X2662210Y-95740D01*
G01X2731370Y-95740D02*
X2731370Y-377320D01*
G01X2866930Y-95740D02*
X2866930Y-377320D01*
G01X2731370Y-236530D02*
X2866930Y-236530D01*
G01X3037760Y-377320D02*
X3037760Y-95740D01*
X2936090Y-283460D01*
X3071650Y-283460D01*
G54D11*
G01X-134710Y-684720D02*
X-100820Y-731650D01*
X-33040Y-731650D01*
X850Y-684720D01*
X850Y-637790D01*
X-33040Y-590860D01*
X-100820Y-590860D01*
X-134710Y-543930D01*
X-134710Y-497000D01*
X-100820Y-450070D01*
X-33040Y-450070D01*
X850Y-497000D01*
G01X103900Y-450070D02*
X171680Y-450070D01*
G01X103900Y-731650D02*
X171680Y-731650D01*
G01X137790Y-450070D02*
X137790Y-731650D01*
G01X274730Y-450070D02*
X410290Y-450070D01*
X274730Y-731650D01*
X410290Y-731650D01*
G01X479450Y-450070D02*
X615010Y-450070D01*
G01X479450Y-731650D02*
X615010Y-731650D01*
G01X479450Y-590860D02*
X581120Y-590860D01*
G01X479450Y-450070D02*
X479450Y-731650D01*
G01X751950Y-684720D02*
X751950Y-684720D01*
G01X751950Y-497000D02*
X751950Y-497000D01*
G01X1127500Y-450070D02*
X1195280Y-450070D01*
G01X1127500Y-590860D02*
X1195280Y-590860D01*
G01X1127500Y-731650D02*
X1195280Y-731650D01*
G01X1093610Y-497000D02*
X1093610Y-543930D01*
G01X1229170Y-497000D02*
X1229170Y-543930D01*
G01X1093610Y-637790D02*
X1093610Y-684720D01*
G01X1229170Y-637790D02*
X1229170Y-684720D01*
G01X1195280Y-450070D02*
X1229170Y-497000D01*
G01X1127500Y-450070D02*
X1093610Y-497000D01*
G01X1195280Y-590860D02*
X1229170Y-543930D01*
G01X1127500Y-590860D02*
X1093610Y-543930D01*
G01X1195280Y-590860D02*
X1229170Y-637790D01*
G01X1127500Y-590860D02*
X1093610Y-637790D01*
G01X1195280Y-731650D02*
X1229170Y-684720D01*
G01X1127500Y-731650D02*
X1093610Y-684720D01*
G01X1298330Y-684720D02*
X1332220Y-731650D01*
X1400000Y-731650D01*
X1433890Y-684720D01*
X1433890Y-497000D01*
X1400000Y-450070D01*
X1332220Y-450070D01*
X1298330Y-497000D01*
X1298330Y-684720D01*
X1433890Y-497000D01*
G01X1587770Y-708180D02*
X1587770Y-708180D01*
G01X1707770Y-684720D02*
X1741660Y-731650D01*
X1809440Y-731650D01*
X1843330Y-684720D01*
X1843330Y-497000D01*
X1809440Y-450070D01*
X1741660Y-450070D01*
X1707770Y-497000D01*
X1707770Y-684720D01*
X1843330Y-497000D01*
G01X1912490Y-684720D02*
X1946380Y-731650D01*
X2014160Y-731650D01*
X2048050Y-684720D01*
X2048050Y-497000D01*
X2014160Y-450070D01*
X1946380Y-450070D01*
X1912490Y-497000D01*
X1912490Y-684720D01*
X2048050Y-497000D01*
G01X2117210Y-684720D02*
X2252770Y-497000D01*
G01X2117210Y-497000D02*
X2252770Y-684720D01*
G01X2184990Y-731650D02*
X2184990Y-450070D01*
G01X2321930Y-731650D02*
X2389710Y-731650D01*
X2457490Y-637790D01*
X2457490Y-497000D01*
X2423600Y-450070D01*
X2355820Y-450070D01*
X2321930Y-497000D01*
X2321930Y-543930D01*
X2355820Y-590860D01*
X2457490Y-590860D01*
G01X2526650Y-684720D02*
X2560540Y-731650D01*
X2628320Y-731650D01*
X2662210Y-684720D01*
X2662210Y-497000D01*
X2628320Y-450070D01*
X2560540Y-450070D01*
X2526650Y-497000D01*
X2526650Y-684720D01*
X2662210Y-497000D01*
G01X2816090Y-708180D02*
X2816090Y-708180D01*
G01X2936090Y-684720D02*
X2969980Y-731650D01*
X3037760Y-731650D01*
X3071650Y-684720D01*
X3071650Y-497000D01*
X3037760Y-450070D01*
X2969980Y-450070D01*
X2936090Y-497000D01*
X2936090Y-684720D01*
X3071650Y-497000D01*
G01X3140810Y-684720D02*
X3174700Y-731650D01*
X3242480Y-731650D01*
X3276370Y-684720D01*
X3276370Y-497000D01*
X3242480Y-450070D01*
X3174700Y-450070D01*
X3140810Y-497000D01*
X3140810Y-684720D01*
X3276370Y-497000D01*
G01X3481090Y-684720D02*
X3447200Y-731650D01*
X3379420Y-731650D01*
X3345530Y-684720D01*
X3345530Y-497000D01*
X3379420Y-450070D01*
X3447200Y-450070D01*
X3481090Y-497000D01*
G01X3550250Y-731650D02*
X3550250Y-450070D01*
X3618030Y-590860D01*
X3685810Y-450070D01*
X3685810Y-731650D01*
G01X4164410Y-450070D02*
X4299970Y-450070D01*
G01X4232190Y-450070D02*
X4232190Y-731650D01*
G01X4436910Y-684720D02*
X4436910Y-684720D01*
G01X4436910Y-497000D02*
X4436910Y-497000D01*
G01X4573850Y-684720D02*
X4607740Y-731650D01*
X4675520Y-731650D01*
X4709410Y-684720D01*
X4709410Y-497000D01*
X4675520Y-450070D01*
X4607740Y-450070D01*
X4573850Y-497000D01*
X4573850Y-684720D01*
X4709410Y-497000D01*
G01X4863290Y-708180D02*
X4863290Y-708180D01*
G01X5017180Y-497000D02*
X5051070Y-450070D01*
X5051070Y-731650D01*
G01X5017180Y-731650D02*
X5084960Y-731650D01*
G01X5188010Y-497000D02*
X5221900Y-450070D01*
X5289680Y-450070D01*
X5323570Y-497000D01*
X5323570Y-543930D01*
X5289680Y-590860D01*
X5255790Y-590860D01*
X5188010Y-731650D01*
X5323570Y-731650D01*
G01X5392730Y-731650D02*
X5392730Y-450070D01*
X5460510Y-590860D01*
X5528290Y-450070D01*
X5528290Y-731650D01*
G01X5597450Y-731650D02*
X5597450Y-450070D01*
X5665230Y-590860D01*
X5733010Y-450070D01*
X5733010Y-731650D01*
G54D12*
G01X-134710Y-804400D02*
X-33040Y-804400D01*
X850Y-851330D01*
X850Y-1039050D01*
X-33040Y-1085980D01*
X-134710Y-1085980D01*
G01X-100820Y-1085980D02*
X-100820Y-804400D01*
G01X70010Y-1085980D02*
X70010Y-851330D01*
X103900Y-804400D01*
X171680Y-804400D01*
X205570Y-851330D01*
X205570Y-1085980D01*
G01X70010Y-945190D02*
X205570Y-945190D01*
G01X274730Y-804400D02*
X410290Y-804400D01*
G01X342510Y-804400D02*
X342510Y-1085980D01*
G01X479450Y-804400D02*
X615010Y-804400D01*
G01X479450Y-1085980D02*
X615010Y-1085980D01*
G01X479450Y-945190D02*
X581120Y-945190D01*
G01X479450Y-804400D02*
X479450Y-1085980D01*
G01X751950Y-1039050D02*
X751950Y-1039050D01*
G01X751950Y-851330D02*
X751950Y-851330D01*
G01X1093610Y-851330D02*
X1127500Y-804400D01*
X1195280Y-804400D01*
X1229170Y-851330D01*
X1229170Y-898260D01*
X1195280Y-945190D01*
X1161390Y-945190D01*
X1093610Y-1085980D01*
X1229170Y-1085980D01*
G01X1298330Y-1039050D02*
X1332220Y-1085980D01*
X1400000Y-1085980D01*
X1433890Y-1039050D01*
X1433890Y-851330D01*
X1400000Y-804400D01*
X1332220Y-804400D01*
X1298330Y-851330D01*
X1298330Y-1039050D01*
X1433890Y-851330D01*
G01X1503050Y-851330D02*
X1536940Y-804400D01*
X1604720Y-804400D01*
X1638610Y-851330D01*
X1638610Y-898260D01*
X1604720Y-945190D01*
X1570830Y-945190D01*
X1503050Y-1085980D01*
X1638610Y-1085980D01*
G01X1843330Y-804400D02*
X1707770Y-804400D01*
X1707770Y-898260D01*
X1809440Y-898260D01*
X1843330Y-945190D01*
X1843330Y-1039050D01*
X1809440Y-1085980D01*
X1741660Y-1085980D01*
X1707770Y-992120D01*
G01X1912490Y-945190D02*
X2048050Y-945190D01*
G01X2117210Y-1039050D02*
X2151100Y-1085980D01*
X2218880Y-1085980D01*
X2252770Y-1039050D01*
X2252770Y-851330D01*
X2218880Y-804400D01*
X2151100Y-804400D01*
X2117210Y-851330D01*
X2117210Y-1039050D01*
X2252770Y-851330D01*
G01X2423600Y-1085980D02*
X2423600Y-804400D01*
X2321930Y-992120D01*
X2457490Y-992120D01*
G01X2526650Y-945190D02*
X2662210Y-945190D01*
G01X2731370Y-851330D02*
X2765260Y-804400D01*
X2833040Y-804400D01*
X2866930Y-851330D01*
X2866930Y-898260D01*
X2833040Y-945190D01*
X2799150Y-945190D01*
X2731370Y-1085980D01*
X2866930Y-1085980D01*
G01X2936090Y-804400D02*
X3071650Y-804400D01*
X3071650Y-898260D01*
X3037760Y-945190D01*
X3003870Y-945190D01*
G01X3037760Y-945190D02*
X3071650Y-992120D01*
X3071650Y-1039050D01*
X3037760Y-1085980D01*
X2969980Y-1085980D01*
X2936090Y-992120D01*
G01X3379420Y-851330D02*
X3413310Y-804400D01*
X3413310Y-1085980D01*
G01X3379420Y-1085980D02*
X3447200Y-1085980D01*
G01X3685810Y-804400D02*
X3618030Y-804400D01*
X3550250Y-898260D01*
X3550250Y-1039050D01*
X3584140Y-1085980D01*
X3651920Y-1085980D01*
X3685810Y-1039050D01*
X3685810Y-992120D01*
X3651920Y-945190D01*
X3550250Y-945190D01*
G01X3822750Y-1039050D02*
X3822750Y-1039050D01*
G01X3822750Y-851330D02*
X3822750Y-851330D01*
G01X3959690Y-804400D02*
X4095250Y-804400D01*
X4095250Y-898260D01*
X4061360Y-945190D01*
X4027470Y-945190D01*
G01X4061360Y-945190D02*
X4095250Y-992120D01*
X4095250Y-1039050D01*
X4061360Y-1085980D01*
X3993580Y-1085980D01*
X3959690Y-992120D01*
G01X4164410Y-1039050D02*
X4198300Y-1085980D01*
X4266080Y-1085980D01*
X4299970Y-1039050D01*
X4299970Y-851330D01*
X4266080Y-804400D01*
X4198300Y-804400D01*
X4164410Y-851330D01*
X4164410Y-1039050D01*
X4299970Y-851330D01*
G01X4436910Y-1039050D02*
X4436910Y-1039050D01*
G01X4436910Y-851330D02*
X4436910Y-851330D01*
G01X4573850Y-1039050D02*
X4607740Y-1085980D01*
X4675520Y-1085980D01*
X4709410Y-1039050D01*
X4709410Y-851330D01*
X4675520Y-804400D01*
X4607740Y-804400D01*
X4573850Y-851330D01*
X4573850Y-1039050D01*
X4709410Y-851330D01*
G01X4778570Y-1039050D02*
X4812460Y-1085980D01*
X4880240Y-1085980D01*
X4914130Y-1039050D01*
X4914130Y-851330D01*
X4880240Y-804400D01*
X4812460Y-804400D01*
X4778570Y-851330D01*
X4778570Y-1039050D01*
X4914130Y-851330D01*
G54D13*
G01X-134710Y-1440310D02*
X-134710Y-1158730D01*
X850Y-1440310D01*
X850Y-1158730D01*
G01X70010Y-1393380D02*
X70010Y-1205660D01*
X103900Y-1158730D01*
X171680Y-1158730D01*
X205570Y-1205660D01*
X205570Y-1393380D01*
X171680Y-1440310D01*
X103900Y-1440310D01*
X70010Y-1393380D01*
G01X342510Y-1393380D02*
X342510Y-1393380D01*
G01X342510Y-1205660D02*
X342510Y-1205660D01*
G01X479450Y-1393380D02*
X513340Y-1440310D01*
X581120Y-1440310D01*
X615010Y-1393380D01*
X615010Y-1346450D01*
X581120Y-1299520D01*
X513340Y-1299520D01*
X479450Y-1252590D01*
X479450Y-1205660D01*
X513340Y-1158730D01*
X581120Y-1158730D01*
X615010Y-1205660D01*
G01X684170Y-1393380D02*
X684170Y-1205660D01*
X718060Y-1158730D01*
X785840Y-1158730D01*
X819730Y-1205660D01*
X819730Y-1393380D01*
X785840Y-1440310D01*
X718060Y-1440310D01*
X684170Y-1393380D01*
G01X888890Y-1205660D02*
X922780Y-1158730D01*
X990560Y-1158730D01*
X1024450Y-1205660D01*
X1024450Y-1252590D01*
X990560Y-1299520D01*
X956670Y-1299520D01*
X888890Y-1440310D01*
X1024450Y-1440310D01*
G01X1229170Y-1158730D02*
X1093610Y-1158730D01*
X1093610Y-1252590D01*
X1195280Y-1252590D01*
X1229170Y-1299520D01*
X1229170Y-1393380D01*
X1195280Y-1440310D01*
X1127500Y-1440310D01*
X1093610Y-1346450D01*
G01X1298330Y-1393380D02*
X1332220Y-1440310D01*
X1400000Y-1440310D01*
X1433890Y-1393380D01*
X1433890Y-1205660D01*
X1400000Y-1158730D01*
X1332220Y-1158730D01*
X1298330Y-1205660D01*
X1298330Y-1393380D01*
X1433890Y-1205660D01*
G01X1604720Y-1440310D02*
X1604720Y-1158730D01*
X1503050Y-1346450D01*
X1638610Y-1346450D01*
G01X1707770Y-1205660D02*
X1741660Y-1158730D01*
X1809440Y-1158730D01*
X1843330Y-1205660D01*
X1843330Y-1252590D01*
X1809440Y-1299520D01*
X1775550Y-1299520D01*
X1707770Y-1440310D01*
X1843330Y-1440310D01*
G01X1912490Y-1158730D02*
X2048050Y-1158730D01*
X2048050Y-1252590D01*
X2014160Y-1299520D01*
X1980270Y-1299520D01*
G01X2014160Y-1299520D02*
X2048050Y-1346450D01*
X2048050Y-1393380D01*
X2014160Y-1440310D01*
X1946380Y-1440310D01*
X1912490Y-1346450D01*
G01X2117210Y-1393380D02*
X2151100Y-1440310D01*
X2218880Y-1440310D01*
X2252770Y-1393380D01*
X2252770Y-1205660D01*
X2218880Y-1158730D01*
X2151100Y-1158730D01*
X2117210Y-1205660D01*
X2117210Y-1393380D01*
X2252770Y-1205660D01*
G01X2423600Y-1440310D02*
X2423600Y-1158730D01*
X2321930Y-1346450D01*
X2457490Y-1346450D01*
G01X2560540Y-1158730D02*
X2628320Y-1158730D01*
G01X2560540Y-1299520D02*
X2628320Y-1299520D01*
G01X2560540Y-1440310D02*
X2628320Y-1440310D01*
G01X2526650Y-1205660D02*
X2526650Y-1252590D01*
G01X2662210Y-1205660D02*
X2662210Y-1252590D01*
G01X2526650Y-1346450D02*
X2526650Y-1393380D01*
G01X2662210Y-1346450D02*
X2662210Y-1393380D01*
G01X2628320Y-1158730D02*
X2662210Y-1205660D01*
G01X2560540Y-1158730D02*
X2526650Y-1205660D01*
G01X2628320Y-1299520D02*
X2662210Y-1252590D01*
G01X2560540Y-1299520D02*
X2526650Y-1252590D01*
G01X2628320Y-1299520D02*
X2662210Y-1346450D01*
G01X2560540Y-1299520D02*
X2526650Y-1346450D01*
G01X2628320Y-1440310D02*
X2662210Y-1393380D01*
G01X2560540Y-1440310D02*
X2526650Y-1393380D01*
G01X2731370Y-1205660D02*
X2765260Y-1158730D01*
X2833040Y-1158730D01*
X2866930Y-1205660D01*
X2866930Y-1252590D01*
X2833040Y-1299520D01*
X2799150Y-1299520D01*
X2731370Y-1440310D01*
X2866930Y-1440310D01*
G01X3550250Y-1205660D02*
X3584140Y-1158730D01*
X3651920Y-1158730D01*
X3685810Y-1205660D01*
X3685810Y-1252590D01*
X3651920Y-1299520D01*
X3618030Y-1299520D01*
X3550250Y-1440310D01*
X3685810Y-1440310D01*
G01X3788860Y-1205660D02*
X3822750Y-1158730D01*
X3822750Y-1440310D01*
G01X3788860Y-1440310D02*
X3856640Y-1440310D01*
G01X4061360Y-1440310D02*
X4061360Y-1158730D01*
X3959690Y-1346450D01*
X4095250Y-1346450D01*
G01X4164410Y-1393380D02*
X4198300Y-1440310D01*
X4266080Y-1440310D01*
X4299970Y-1393380D01*
X4299970Y-1205660D01*
X4266080Y-1158730D01*
X4198300Y-1158730D01*
X4164410Y-1205660D01*
X4164410Y-1393380D01*
X4299970Y-1205660D01*
G01X4369130Y-1158730D02*
X4504690Y-1158730D01*
X4403020Y-1440310D01*
G01X4573850Y-1158730D02*
X4709410Y-1158730D01*
X4607740Y-1440310D01*
G01X4778570Y-1440310D02*
X4778570Y-1205660D01*
X4812460Y-1158730D01*
X4880240Y-1158730D01*
X4914130Y-1205660D01*
X4914130Y-1440310D01*
G01X4778570Y-1299520D02*
X4914130Y-1299520D01*
M02*
