G04 Gerber PCB Fabrication Data in Gerber – Example 2, created by Karel Tavernier, Filip Vermeire and Thomas Weyn*
G04 Ucamco copyright*
%TF.GenerationSoftware,Ucamco,UcamX,1.1.0-1400509*%
%TF.CreationDate,2014-07-14T00:00:00+01:00*%
%FSLAX26Y26*%
%MOMM*%
%TF.FileFunction,Plated,1,2,Blind,Drill*%
%TF.FilePolarity,Positive*%
%TF.Part,Single*%
%TF.SameCoordinates*%
%TA.AperFunction,ViaDrill*%
%ADD10C,0.10000*%
G01*
%LPD*%
D10*
X42297000Y27929000D03*
X37047000Y68679000D03*
X37897000D03*
X44932000Y45747000D03*
X23997000Y68829000D03*
X24612000Y67337000D03*
X14310000Y7066000D03*
X28917000Y33499000D03*
X24704000Y33853000D03*
X28967000Y28949000D03*
X29017000Y27649000D03*
X46202000Y45747000D03*
X20660000Y70416000D03*
X25882000Y63527000D03*
X25897000Y69379000D03*
X28997000Y69389000D03*
X27262000Y69379000D03*
X29692000Y66067000D03*
X30962000Y68607000D03*
X32097000Y64879000D03*
X31197000Y66079000D03*
X19797000Y40229000D03*
X38297000Y32929000D03*
X38347000Y33879000D03*
X50144000Y16182000D03*
X38297000Y34929000D03*
X34297000Y16229000D03*
X39260000Y21632000D03*
X53747000Y19979000D03*
X44714000Y18932000D03*
X46544000Y16182000D03*
X31047000Y26479000D03*
X33197000Y26379000D03*
X38297000Y26929000D03*
X64147000Y31129000D03*
X29247000Y40779000D03*
X23342000Y48287000D03*
X37297000Y32929000D03*
X43710000Y64787000D03*
Y66057000D03*
Y67327000D03*
X44958000Y66040000D03*
Y64770000D03*
X29947000Y67329000D03*
X34772000Y68607000D03*
X67550000Y11276000D03*
X67050000Y8832000D03*
X26047000Y7679000D03*
X50050000Y8532000D03*
X26897000Y8629000D03*
X28397000Y8579000D03*
X29597000Y7526000D03*
X29947000Y8579000D03*
X31297000D03*
X32000000Y7732000D03*
X40447000Y11927000D03*
X12847000Y48979000D03*
X12897000Y45079000D03*
X28967000Y34799000D03*
X21197000Y43179000D03*
X57297000Y20779000D03*
X54300000Y22200000D03*
X20747000Y79079000D03*
X48297000Y20929000D03*
X46247000Y22929000D03*
X10297000Y32879000D03*
X21797000Y81229000D03*
X21250000Y76032000D03*
X49597000Y34529000D03*
X20047000Y79079000D03*
X49497000Y21429000D03*
X26417000Y31549000D03*
X44297000Y23929000D03*
X33502000Y67337000D03*
X45297000Y30929000D03*
X5547000Y21679000D03*
X45297000Y24929000D03*
Y25929000D03*
X4897000Y21429000D03*
X46497000Y24929000D03*
X6297000Y19669000D03*
X6247000Y23479000D03*
X46297000Y25929000D03*
X43295000Y21881000D03*
X5102000Y13424000D03*
Y17279000D03*
X44297000Y22929000D03*
X6247000Y21579000D03*
X48297000Y29929000D03*
X46297000D03*
X7007000Y16719000D03*
X4997000Y19529000D03*
X46297000Y30929000D03*
X5102000Y15334000D03*
X48297000Y30929000D03*
X45297000Y22929000D03*
X7007000Y14869000D03*
X36997000Y66079000D03*
X33502000Y66067000D03*
X31047000Y28257000D03*
X46297000Y33929000D03*
X48742000Y43207000D03*
X29047000Y68679000D03*
X29647000Y44736000D03*
X47797000Y36950000D03*
X47316000Y31916000D03*
X30897000Y46829000D03*
X44797000Y36129000D03*
X32197000Y46079000D03*
X45917000Y37012000D03*
X29697000Y43429000D03*
X47297000Y34929000D03*
X29547000Y45879000D03*
X49597000Y29429000D03*
X41897000Y42979000D03*
X32197000Y44529000D03*
X69397000Y20079000D03*
X51147000Y23484000D03*
X44297000Y31929000D03*
Y32929000D03*
X30947000Y44529000D03*
X44297000Y33929000D03*
X33353000Y44379000D03*
X35927000Y45779000D03*
X46797000Y36129000D03*
X25078000Y32840000D03*
X46297000Y34929000D03*
X46170000Y67289000D03*
X50245000Y63019000D03*
X51042000Y64615000D03*
X46370000Y68489000D03*
X51198000Y58268000D03*
X47420000Y57739000D03*
X51110000Y49780000D03*
X47420000Y50689000D03*
X46177000Y47041000D03*
Y48311000D03*
Y49581000D03*
X44907000D03*
X46177000Y50851000D03*
Y52121000D03*
X44907000D03*
X46177000Y53391000D03*
Y55931000D03*
X44958000Y57150000D03*
X46228000D03*
Y58420000D03*
X51218000Y47240000D03*
X47468000D03*
X46228000Y59690000D03*
X44958000D03*
X46228000Y60960000D03*
Y62230000D03*
X48797000Y54002000D03*
X51120000Y51639000D03*
X51181000Y55178000D03*
X47420000Y54839000D03*
X42440000Y64787000D03*
X50400000Y64068000D03*
X46228000Y66040000D03*
X47469000Y61289000D03*
X47252000Y66012000D03*
X49997000Y63568000D03*
X44958000Y67310000D03*
X46228000Y64770000D03*
X34922000Y12199000D03*
X13847000Y54729000D03*
X22247000Y17679000D03*
X16147000Y54729000D03*
X72700000Y19676000D03*
X73100000Y20029000D03*
X30947000Y12579000D03*
X25697000Y34979000D03*
X13847000Y52779000D03*
X37297000Y28929000D03*
X23917000Y14029000D03*
X73500000Y19676000D03*
X23278000Y28040000D03*
X10847000Y52779000D03*
X10347000Y57279000D03*
X38297000Y28929000D03*
X23267000Y14029000D03*
X73900000Y20029000D03*
X22928000Y27540000D03*
X31097000Y28979000D03*
X23078000Y30079000D03*
X74300000Y19676000D03*
X22667000Y14079000D03*
X11947000Y51679000D03*
X11347000Y57279000D03*
X36297000Y28929000D03*
X22017000Y13764000D03*
X74700000Y20029000D03*
X22228000Y28540000D03*
X12347000Y55979000D03*
X17427000Y28690000D03*
X75100000Y19676000D03*
X17417000Y13914000D03*
X35297000Y28929000D03*
X11847000Y52829000D03*
X35297000Y26929000D03*
X16767000Y13864000D03*
X75500000Y20029000D03*
X17031000Y25879000D03*
X36547000Y26979000D03*
X16117000Y13764000D03*
X75900000Y19676000D03*
X16628000Y26238000D03*
X13347000Y56079000D03*
X45097000Y14579000D03*
X14847000Y18529000D03*
X14832000Y38144000D03*
X35297000Y29929000D03*
X70700000Y20029000D03*
X30297000Y14929000D03*
X30097000Y31479000D03*
X15497000D03*
X34978000Y25954000D03*
X16132000Y38164000D03*
X6897000Y52379000D03*
X9897000Y55579000D03*
X31047000Y14579000D03*
X71100000Y19676000D03*
X30947000Y25329000D03*
X15347000Y27429000D03*
X10847000Y53779000D03*
X7797000Y52929000D03*
X16782000Y38214000D03*
X71500000Y20029000D03*
X31747000Y14279000D03*
X15697000Y22879000D03*
X34447000Y21929000D03*
X22347000Y18379000D03*
X36047000Y20879000D03*
X34647000Y13179000D03*
X36047000Y19979000D03*
X71900000Y19676000D03*
X72300000Y20029000D03*
X34597000Y12579000D03*
X21922000Y18059000D03*
X16147000Y54129000D03*
X12847000Y53779000D03*
X37247000Y27729000D03*
X13847000Y51779000D03*
X16177000Y26654000D03*
X15482000Y13929000D03*
X76300000Y20029000D03*
X55550000Y8432000D03*
X56747000Y6779000D03*
X56697000Y8929000D03*
X58297000Y6729000D03*
Y8379000D03*
X53497000Y6429000D03*
X59897000Y6779000D03*
X60050000Y8429000D03*
X61447000Y6879000D03*
X61550000Y8482000D03*
X63047000Y6829000D03*
X62969000Y8479000D03*
X55097000Y6779000D03*
X51550000Y6832000D03*
X64547000Y6829000D03*
Y11429000D03*
X66100000Y7200000D03*
X65550000Y11276000D03*
X66050000Y8882000D03*
X41147000Y16929000D03*
X21478000Y20690000D03*
X60597000Y15579000D03*
X59806000Y18333000D03*
X22632000Y38214000D03*
X41247000Y21979000D03*
X60297000Y20379000D03*
X26267000Y25049000D03*
X40347000Y21179000D03*
X61376000Y21400000D03*
X13847000Y49779000D03*
X13797000Y50829000D03*
X42597000Y16929000D03*
X57797000Y16329000D03*
X61297000Y18629000D03*
X25128000Y21290000D03*
X26367000Y23749000D03*
X61418000Y20600000D03*
X41297000Y22929000D03*
X15347000Y46979000D03*
X15497000Y46379000D03*
X61068000Y20200000D03*
X42297000Y23929000D03*
X26111000Y23319000D03*
X26297000Y22829000D03*
X20897000Y45429000D03*
X42297000Y24929000D03*
X64197000Y20429000D03*
X14834000Y50769000D03*
X43497000Y17679000D03*
X25678000Y21790000D03*
X7197000Y53479000D03*
X36297000Y31929000D03*
X7847000Y49779000D03*
X48297000Y33929000D03*
X33547000Y24929000D03*
X13947000Y42829000D03*
X11895000Y49781000D03*
X35297000Y24929000D03*
X35047000Y22979000D03*
X12847000Y51779000D03*
X41952000Y18478000D03*
X36297000Y23629000D03*
X64076000Y26600000D03*
X10847000Y51779000D03*
X14847000Y51879000D03*
X26117000Y20940000D03*
X43097000Y17329000D03*
X61326000Y26200000D03*
X12947000Y49729000D03*
X31697000Y23429000D03*
X16467000Y44779000D03*
X30797000Y22379000D03*
X60897000Y25800000D03*
X61318000Y25400000D03*
X35247000Y21679000D03*
X8997000Y52729000D03*
X65047000Y19779000D03*
X34297000Y16779000D03*
X11947000Y43329000D03*
X32947000Y15729000D03*
X60447000Y18029000D03*
X18082000Y35494000D03*
X35497000Y17179000D03*
X57598000Y18679000D03*
X18732000Y35444000D03*
X19382000Y35464000D03*
X34797000Y17029000D03*
X58347000Y18429000D03*
X20047000Y35229000D03*
X39247000Y23079000D03*
X64247000Y22729000D03*
X10847000Y50829000D03*
X60597000Y23379000D03*
X39274000Y24952000D03*
X11591000Y46976000D03*
X10278000Y46990000D03*
X17779000Y24629000D03*
X40147000Y16629000D03*
X19709000Y20360000D03*
X60097000Y15079000D03*
X59307000Y18298000D03*
X51797000Y16029000D03*
X43297000Y22929000D03*
X35297000Y32929000D03*
X23342000Y49557000D03*
X68497000Y24429000D03*
X51847000Y23809000D03*
X52247000Y21879000D03*
X67597000Y22379000D03*
X67297000Y24979000D03*
X51347000Y24927000D03*
X68300000Y19676000D03*
X8147000Y64876000D03*
X71328000Y29140000D03*
X51647000Y26429000D03*
X47297000Y25279000D03*
X73100000Y29240000D03*
X51147000Y25929000D03*
X73500000Y35226000D03*
X37297000Y22929000D03*
X36297000Y29929000D03*
X72300000Y28640000D03*
X46297000Y24229000D03*
X51447000Y22429000D03*
X66697000Y27267000D03*
X66897000Y23229000D03*
X74300000Y32429000D03*
X50947000Y24529000D03*
X58797000Y25329000D03*
Y30317000D03*
X46177000Y54661000D03*
X46228000Y63500000D03*
X44907000Y54661000D03*
X47469000Y67489000D03*
X49719000Y53188000D03*
X47320000Y52389000D03*
X35297000Y31929000D03*
X31597000Y19929000D03*
X14147000Y21429000D03*
X9997000Y32199000D03*
X31400000Y70100000D03*
X46300000Y31900000D03*
X35297000Y33929000D03*
X32047000Y20479000D03*
X47247000Y21906000D03*
X9847000Y52779000D03*
X38347000Y67329000D03*
X34947000Y46779000D03*
X42247000Y33879000D03*
X37197000Y47029000D03*
X43297000Y34779000D03*
X37297000Y25929000D03*
X24647000Y46429000D03*
X40297000Y31879000D03*
X27170000Y49917000D03*
X37347000Y45779000D03*
X43297000Y31929000D03*
X26857000Y48161000D03*
X41297000Y30929000D03*
X39297000Y31879000D03*
X25847000Y49479000D03*
X25647000Y46979000D03*
X36297000Y30929000D03*
X25947000Y45829000D03*
X35285000Y30962000D03*
X37297000Y30929000D03*
X24697000Y45779000D03*
X28528000Y45729000D03*
X41297000Y31929000D03*
Y32929000D03*
X29057000Y43179000D03*
X32247000Y46829000D03*
X42297000Y32929000D03*
X41227000Y33929000D03*
X33547000Y45679000D03*
X42297000Y31929000D03*
X34397000Y45729000D03*
X38597000Y45779000D03*
X43297000Y32929000D03*
X45197000Y24029000D03*
X37288000Y23917000D03*
X37297000Y31929000D03*
X45297000D03*
X39547000Y12029000D03*
X40297000Y23929000D03*
X70820000Y47239000D03*
X85100000Y64072000D03*
X85419000Y47089000D03*
X70870000Y64080000D03*
X28750000Y79479000D03*
X25882000Y54637000D03*
X27397000Y73879000D03*
X23342000Y57177000D03*
X23735000Y78597000D03*
X27152000Y54637000D03*
X31250000Y78726000D03*
X24612000Y58447000D03*
X30750000Y78929000D03*
X23342000Y58447000D03*
X29847000Y79979000D03*
X25882000Y57177000D03*
X30250000Y78679000D03*
X29750000Y79229000D03*
X19347000Y55979000D03*
X11547000Y65379000D03*
X25597000Y67329000D03*
X27797000Y68679000D03*
X25882000Y66067000D03*
X23342000Y67337000D03*
X25247000Y68729000D03*
X26517000Y68679000D03*
X27152000Y67337000D03*
X41122000Y66067000D03*
X40097000Y72229000D03*
X39697000Y70129000D03*
X47297000Y29929000D03*
X10597000Y33499000D03*
X47297000Y30929000D03*
X13097000Y34149000D03*
X46300000Y27900000D03*
X25847000Y29079000D03*
X18100000Y10100000D03*
X16850000Y10082000D03*
X20047000Y55329000D03*
X28250000Y76182000D03*
X25882000Y53367000D03*
X28597000Y75279000D03*
X22750000Y75979000D03*
X20268000Y56079000D03*
X25750000Y75729000D03*
X25882000Y52097000D03*
X26447000Y80129000D03*
X27152000Y52097000D03*
X22047000Y53479000D03*
X26750000Y78829000D03*
X21747000Y52779000D03*
X27250000Y79429000D03*
X24612000Y66067000D03*
X38897000Y68729000D03*
X18897000Y40779000D03*
X10797000Y49729000D03*
X18250000Y78779000D03*
X44274000Y29906000D03*
X25578000Y30860000D03*
X33547000Y44979000D03*
X49547000Y31479000D03*
X43323000Y42858000D03*
X24612000Y49557000D03*
X36297000Y33929000D03*
X23247000Y47652000D03*
X45297000Y32929000D03*
X49547000Y32429000D03*
X32297000Y43579000D03*
X40347000Y42879000D03*
X22697000Y40229000D03*
X24597000Y47029000D03*
X45297000Y33929000D03*
X28297000Y49682000D03*
X48297000Y34929000D03*
X31264000Y40712000D03*
X47524000Y23022000D03*
X26267000Y17249000D03*
X53870000Y63018000D03*
X80219000Y48339000D03*
X64919000Y47739000D03*
X65120000Y64614000D03*
X80070000Y64389000D03*
X79919000Y49089000D03*
X79070000Y66489000D03*
X66219000Y66080000D03*
X65669000Y49689000D03*
X53574000Y64389000D03*
X68570000Y45739000D03*
X53769000Y56668000D03*
X81919000Y45252000D03*
X71032000Y46252000D03*
X84750000D03*
X53469000Y58268000D03*
Y50330000D03*
X63319000Y45839000D03*
X77419000Y46252000D03*
X64969000Y44739000D03*
X53469000Y49280000D03*
X80320000Y45389000D03*
X53769000Y49780000D03*
X62953000Y44981000D03*
X76750000Y45300000D03*
X53769000Y48730000D03*
X79650000Y44750000D03*
X66071000Y43787000D03*
X63419000Y43739000D03*
X53470000Y47790000D03*
X77400000Y43850000D03*
X83512000Y58589000D03*
X69219000Y57689000D03*
X71169000Y60045000D03*
X85036000Y60071000D03*
X80000000Y43000000D03*
X65120000Y42639000D03*
X53468000Y46740000D03*
X68027000Y59947000D03*
X81798000Y60071000D03*
X85100000Y61087000D03*
X71070000Y61080000D03*
X81798000Y61024000D03*
X67870000Y61080000D03*
X83219000Y61589000D03*
X70870000Y62080000D03*
X81798000Y62040000D03*
X68169000Y62066000D03*
X85100000Y63055000D03*
X71269000Y63093000D03*
X77070000Y63439000D03*
X63120000Y62939000D03*
X80120000Y62080000D03*
X66519000D03*
X63069000Y62079000D03*
X76870000Y61839000D03*
X66019000Y60639000D03*
X80147000Y61087000D03*
X77450000Y42700000D03*
X63269000Y42739000D03*
X53769000Y47240000D03*
X77026000Y61085000D03*
X63419000Y61112000D03*
X66120000Y59889000D03*
X80350000Y60071000D03*
X76620000Y59239000D03*
X63069000Y59639000D03*
X78686000Y58639000D03*
X64419000Y58589000D03*
X53769000Y51588000D03*
X83100000Y41850000D03*
X69950000D03*
X85000000Y43243000D03*
X53769000Y52638000D03*
X70733000Y42723000D03*
X68070000Y43689000D03*
X53769000Y54128000D03*
X82052000Y43252000D03*
X70938000Y44189000D03*
X84750000Y44260000D03*
X53769000Y55178000D03*
X69169000Y43839000D03*
X53469000Y54678000D03*
X82252000Y44252000D03*
X85000000Y45252000D03*
X71519000Y45190000D03*
X53469000Y55728000D03*
X64550000Y41550000D03*
X78700000Y41250000D03*
X53769000Y46190000D03*
X21697000Y52097000D03*
X25659000Y80079000D03*
X24097000Y80829000D03*
X24612000Y52097000D03*
X78115000Y49657000D03*
X78052000Y66358000D03*
X54069000Y63789000D03*
X64169000Y49680000D03*
X63919000Y66080000D03*
X83250000Y47759000D03*
X87652000Y45709000D03*
X68299000Y48820000D03*
X52650000Y60689000D03*
X68229000Y65080000D03*
X87652000Y63806000D03*
X82070000Y64789000D03*
X81870000Y66289000D03*
X68219000Y49739000D03*
X82269000Y49252000D03*
X68169000Y66080000D03*
X83068000Y65517000D03*
X87704000Y66929000D03*
X87712000Y49776000D03*
X83057000Y48792000D03*
X69969000Y47639000D03*
X69990000Y65389000D03*
X52647000Y61229000D03*
X63769000Y64759000D03*
X78219000Y64657000D03*
X63869000Y48389000D03*
X78219000Y48089000D03*
X53520000Y63568000D03*
X65169000Y49589000D03*
X66368000Y67056000D03*
X80274000Y67120000D03*
X80120000Y49839000D03*
X64070000Y50252000D03*
X77988000D03*
X64070000Y67239000D03*
X77861000Y67120000D03*
X81957000Y50252000D03*
X68219000Y50789000D03*
X53688000Y66608000D03*
X81798000Y67056000D03*
X67870000Y66939000D03*
X70169000Y68189000D03*
X84160000Y68080000D03*
X71019000Y51245000D03*
X84338000D03*
X53451000Y67158000D03*
X81798000Y68072000D03*
X81806000Y51252000D03*
X68870000Y51789000D03*
X53870000Y67789000D03*
X67955000Y68024000D03*
X84260000Y69080000D03*
X70719000Y69249000D03*
X53478000Y68647000D03*
X69824000Y52627000D03*
X84338000Y52260000D03*
X68370000Y52539000D03*
X81870000Y52260000D03*
X53919000Y69139000D03*
X82052000Y69088000D03*
X68070000Y69139000D03*
X84338000Y53213000D03*
X70620000Y70539000D03*
X84269000Y70089000D03*
X53569000Y69698000D03*
X69219000Y53939000D03*
X78686000Y70802000D03*
X77734000Y53340000D03*
X64320000Y53539000D03*
X63819000Y70189000D03*
X66019000Y52039000D03*
X66109000Y69789000D03*
X78870000Y69589000D03*
X80274000Y52260000D03*
X64019000Y52252000D03*
X77861000Y52260000D03*
X77734000Y69088000D03*
X63891000D03*
X70620000Y65989000D03*
X84084000Y66040000D03*
X53738000Y65558000D03*
X84148000Y49212000D03*
X70028000Y48747000D03*
X53401000Y66108000D03*
X70360000Y67080000D03*
X84338000Y50228000D03*
X70519000Y50252000D03*
X84360000Y67080000D03*
X78052000Y51245000D03*
X63819000Y51252000D03*
X63955000Y68072000D03*
X77798000D03*
X66169000Y51245000D03*
X80269000Y50389000D03*
X66304000Y68199000D03*
X80274000Y68136000D03*
X38947000Y44479000D03*
X34297000Y33929000D03*
X38247000Y16029000D03*
X32862000Y14279000D03*
X43662000Y44477000D03*
X33297000Y34929000D03*
X44194000Y16182000D03*
X33347000Y63679000D03*
X31897000Y31379000D03*
X46997000Y41629000D03*
X34847000Y13979000D03*
X33297000Y33929000D03*
X45047000Y42979000D03*
X34297000Y32929000D03*
X25797000Y50879000D03*
X32500000Y40650000D03*
X46297000Y26929000D03*
X23342000Y50827000D03*
X46297000Y28929000D03*
X45320000Y27906000D03*
X27097000Y50929000D03*
X47472000Y44477000D03*
Y45747000D03*
X44297000Y20929000D03*
X6400000Y69129000D03*
X38547000Y74679000D03*
X39852000Y67337000D03*
X50950000Y33429000D03*
X71247000Y31329000D03*
X70347000Y21579000D03*
X67100000Y35576000D03*
X46450000Y33050000D03*
X54600000Y33300000D03*
X67500000Y35226000D03*
X68300000Y35276000D03*
X67547000Y26598000D03*
X68178000Y27590000D03*
X68397000Y25529000D03*
X69900000Y32382000D03*
X70097000Y29279000D03*
X70697000Y31479000D03*
X65497000Y20129000D03*
X60747000Y15029000D03*
X65747000Y20679000D03*
X38497000Y21879000D03*
X66547000Y22429000D03*
X39247000Y23879000D03*
X38147000Y20979000D03*
X65900000Y35126000D03*
X60547000Y33129000D03*
X56947000Y18729000D03*
X66300000Y35576000D03*
X36350000Y34850000D03*
X36247000Y6829000D03*
X66700000Y35132000D03*
X71100000Y35226000D03*
X28997000Y19179000D03*
X48197000Y23879000D03*
X24728000Y19790000D03*
X47297000Y25929000D03*
X24728000Y19129000D03*
X47297000Y26929000D03*
X25478000Y28040000D03*
X44297000Y27929000D03*
X43247000Y28979000D03*
X26347000Y29599000D03*
X76676000Y27800000D03*
X79847000Y27400000D03*
Y28200000D03*
X76668000Y27000000D03*
X79847000Y25000000D03*
Y25800000D03*
X76676000Y26200000D03*
Y25400000D03*
X76668000Y24600000D03*
Y23800000D03*
X79847000Y21000000D03*
Y21800000D03*
Y22600000D03*
Y23400000D03*
Y29000000D03*
Y29800000D03*
Y30600000D03*
Y31400000D03*
Y32200000D03*
X76726000Y31800000D03*
Y31000000D03*
X82070000Y63080000D03*
X68120000Y62889000D03*
X65122000Y62339000D03*
X79070000Y62639000D03*
X69120000Y46589000D03*
X53769000Y57718000D03*
X82252000Y46252000D03*
X80019000Y46589000D03*
X53469000Y52138000D03*
X65620000Y45739000D03*
X68045000Y64108000D03*
X81798000Y64072000D03*
X66074000Y63989000D03*
X79120000Y63589000D03*
X81919000Y47252000D03*
X68219000Y46539000D03*
X53469000Y57218000D03*
X79870000Y47672000D03*
X64969000Y46742000D03*
X53469000Y53188000D03*
X13297000Y24429000D03*
X13347000Y25049000D03*
X53100000Y34500000D03*
X42392000Y44477000D03*
X37297000Y24929000D03*
X52047000Y25629000D03*
X36297000Y24929000D03*
X42392000Y45747000D03*
X41122000Y43207000D03*
X34297000Y29629000D03*
X44697000Y16229000D03*
X32447000Y21529000D03*
X41122000Y44477000D03*
X27152000Y58447000D03*
X32250000Y76132000D03*
X32232000Y66067000D03*
X30797000Y73329000D03*
X14947000D03*
X37750000Y75832000D03*
X25882000Y58447000D03*
X31750000Y78679000D03*
X50447000Y27429000D03*
X75100000Y35229000D03*
X10397000Y28949000D03*
X53047000Y27779000D03*
X48500000Y16182000D03*
X11347000Y47679000D03*
X67900000Y16879000D03*
X62297000Y17329000D03*
X48453000Y18662000D03*
X53847000Y18229000D03*
X21197000Y46079000D03*
X46347000Y21829000D03*
X14897000Y52779000D03*
X51347000Y41379000D03*
X48647000Y41679000D03*
X50297000Y41629000D03*
X12397000Y9779000D03*
X28347000Y53329000D03*
X28297000Y52129000D03*
X32247000Y48179000D03*
X41147000Y47929000D03*
X38397000Y48129000D03*
X27147000Y55929000D03*
X29697000Y63672000D03*
X32297000Y63679000D03*
X34897000Y64929000D03*
X36997000Y64829000D03*
X78389000Y63601000D03*
X64269000Y63589000D03*
X44958000Y62230000D03*
Y63500000D03*
X69820000Y59689000D03*
X65120000Y63389000D03*
X44958000Y60960000D03*
Y58420000D03*
X44907000Y55931000D03*
Y53391000D03*
X32447000Y31229000D03*
X44907000Y50851000D03*
X30997000Y24479000D03*
X44907000Y48311000D03*
X84096000Y44864000D03*
X79100000Y44750000D03*
X64348000Y44002000D03*
X80400000Y42100000D03*
X63469000Y41839000D03*
X78370000Y46889000D03*
X44097000Y36229000D03*
X37971000Y36531000D03*
X66120000Y42039000D03*
X71219000Y43389000D03*
X77550000Y41750000D03*
X69769000Y44839000D03*
X64472000Y46823000D03*
X49697000Y25729000D03*
Y30529000D03*
X80338000Y53213000D03*
X63069000Y58989000D03*
X65074000Y58439000D03*
X77179000Y59080000D03*
X80310000D03*
X64320000Y61339000D03*
X78300000Y60639000D03*
X84570000Y59539000D03*
X38347000Y64779000D03*
X39847000Y63829000D03*
X41997000Y63529000D03*
X69919000Y61889000D03*
X83719000Y62589000D03*
X66669000Y70539000D03*
X79969000Y69639000D03*
X38747000Y19279000D03*
X43347000Y19129000D03*
X19750000Y75829000D03*
X82919000Y43689000D03*
X65182000Y54039000D03*
X84120000Y46689000D03*
X84070000Y43739000D03*
X82252000Y42252000D03*
X9997000Y10657000D03*
X25897000Y13929000D03*
X10417000Y22449000D03*
Y19849000D03*
Y21129000D03*
X28977000Y32199000D03*
X31397000Y29829000D03*
X33147000Y20229000D03*
X40997000Y19329000D03*
X40297000Y28929000D03*
X40247000Y27829000D03*
X40297000Y29929000D03*
X42297000Y28929000D03*
Y29929000D03*
X42347000Y27029000D03*
X40247000Y26929000D03*
X48297000D03*
X61176000Y28600000D03*
X10477000Y31549000D03*
X61047000Y31329000D03*
X14182000Y35364000D03*
X7198000Y35180000D03*
X10467000Y34799000D03*
X19997000Y34529000D03*
X42297000Y37629000D03*
X33797000Y37379000D03*
X64400000Y42639000D03*
X68320000Y41889000D03*
X78950000Y42750000D03*
X84750000Y42252000D03*
X64269000Y44889000D03*
X78320000Y44989000D03*
X27747000Y47000000D03*
X69820000Y46739000D03*
X7647000Y52279000D03*
X82169000Y53252000D03*
X14347000Y56029000D03*
X68219000Y58939000D03*
X70519000Y58139000D03*
X64320000Y59740000D03*
X79050000Y60450000D03*
X84570000Y60589000D03*
X84299000Y58559000D03*
X27197000Y64779000D03*
X43547000Y63629000D03*
X69169000Y63489000D03*
X69870000Y63689000D03*
X83269000Y64489000D03*
X32232000Y67337000D03*
X34772000D03*
X81798000Y70040000D03*
X69505000Y16830000D03*
X49847000Y20929000D03*
X49297000Y35929000D03*
X70800000Y42228000D03*
X72070000Y44689000D03*
X43847000Y47079000D03*
X68469000Y53689000D03*
X81798000Y59055000D03*
X69719000Y60590000D03*
X64370000Y62439000D03*
X78320000Y61789000D03*
X83120000Y63389000D03*
X68019000Y70389000D03*
X40497000Y76679000D03*
X33647000Y64729000D03*
X26247000Y33579000D03*
X49597000Y23929000D03*
X29250000Y24326000D03*
X46058000Y18966000D03*
X29647000Y48029000D03*
X45005000Y7038000D03*
X11452000Y13074000D03*
X14832000Y13944000D03*
X24597000Y13879000D03*
X18082000Y13914000D03*
X33347000Y23979000D03*
X38347000Y25879000D03*
X40297000Y25929000D03*
X38297000Y29929000D03*
X39297000Y30929000D03*
X44297000Y28929000D03*
X42297000Y25929000D03*
X44297000D03*
X43297000Y30929000D03*
X13217000Y25699000D03*
X23197000Y38879000D03*
X35947000Y48179000D03*
X34647000Y48129000D03*
X39947000Y47929000D03*
X42447000Y51329000D03*
X36797000Y18929000D03*
X61218000Y27400000D03*
X34297000Y31929000D03*
X50347000Y31679000D03*
X61268000Y32200000D03*
X45297000Y34929000D03*
X36950000Y36279000D03*
X27147000Y49329000D03*
X30947000Y48029000D03*
X15847000Y52779000D03*
X10847000Y54779000D03*
X27152000Y59717000D03*
Y62257000D03*
Y63527000D03*
X29692000Y64797000D03*
X9847000Y50729000D03*
X14197000Y18329000D03*
M02*