G04 Gerber PCB Fabrication Data in Gerber – Example 2, created by Karel Tavernier, Filip Vermeire and Thomas Weyn*
G04 Ucamco copyright*
%TF.GenerationSoftware,Ucamco,UcamX,1.1.0-1400509*%
%TF.CreationDate,2014-07-14T00:00:00+01:00*%
%FSLAX26Y26*%
%MOMM*%
%TF.FileFunction,Legend,Top*%
%TF.FilePolarity,Positive*%
%TF.Part,Single*%
%TF.SameCoordinates*%
%TA.AperFunction,Material*%
%ADD10C,0.20000*%
G01*
%LPD*%
D10*
X7352400Y60600200D02*
X7849800Y59000000D01*
X8347200Y60600200D01*
X9072000Y60333500D02*
X9191300Y60493500D01*
X9330600Y60573500D01*
X9489800Y60600200D01*
X9688800Y60546900D01*
X9828000Y60413500D01*
X9867800Y60253500D01*
X9847900Y60093400D01*
X9768300Y59960100D01*
X9370400Y59693400D01*
X9191300Y59506700D01*
X9072000Y59240000D01*
X9032200Y59000000D01*
X9867800D01*
X10672200Y59666700D02*
X10811400Y59853500D01*
X10930800Y59960100D01*
X11090000Y60013400D01*
X11229300Y59960100D01*
X11328700Y59853500D01*
X11408400Y59693400D01*
X11428200Y59506700D01*
X11408400Y59346700D01*
X11328700Y59186700D01*
X11209400Y59053300D01*
X11070100Y59000000D01*
X10910900Y59053300D01*
X10771700Y59213300D01*
X10692000Y59453400D01*
X10672200Y59720100D01*
X10711900Y60066800D01*
X10771700Y60253500D01*
X10871100Y60440200D01*
X11010400Y60573500D01*
X11149700Y60600200D01*
X11289000Y60546900D01*
X11388500Y60413500D01*
X10347000Y1150000D02*
Y2750000D01*
X10108200Y2430000D01*
X10108200Y1150000D02*
X10585800D01*
X13168900Y1816600D02*
X13308200Y2003300D01*
X13427600Y2110000D01*
X13586800Y2163300D01*
X13726100Y2110000D01*
X13825600Y2003300D01*
X13905200Y1843300D01*
X13925100Y1656700D01*
X13905200Y1496600D01*
X13825600Y1336600D01*
X13706200Y1203300D01*
X13566900Y1150000D01*
X13407700Y1203300D01*
X13268400Y1363300D01*
X13188800Y1603300D01*
X13168900Y1870000D01*
X13208700Y2216600D01*
X13268400Y2403400D01*
X13367900Y2590000D01*
X13507200Y2723300D01*
X13646500Y2750000D01*
X13785800Y2696700D01*
X13885300Y2563300D01*
X15147000Y1150000D02*
X15286300Y1176700D01*
X15445500Y1256600D01*
X15545000Y1389900D01*
X15584800Y1576700D01*
X15545000Y1763300D01*
X15425600Y1923300D01*
X15246500Y2003300D01*
X15047500D01*
X14928100Y2056700D01*
X14828600Y2190000D01*
X14788800Y2376600D01*
X14848500Y2563300D01*
X14987800Y2696700D01*
X15147000Y2750000D01*
X15306200Y2696700D01*
X15445500Y2563300D01*
X15505200Y2376600D01*
X15465400Y2190000D01*
X15365900Y2056700D01*
X15246500Y2003300D01*
X15047500Y2003300D02*
X14868400Y1923300D01*
X14749000Y1763300D01*
X14709200Y1576700D01*
X14749000Y1389900D01*
X14848500Y1256600D01*
X15007700Y1176700D01*
X15147000Y1150000D01*
X16747000Y1150000D02*
X16886300Y1176700D01*
X17045500Y1256600D01*
X17145000Y1389900D01*
X17184800Y1576700D01*
X17145000Y1763300D01*
X17025600Y1923300D01*
X16846500Y2003300D01*
X16647500D01*
X16528100Y2056700D01*
X16428600Y2190000D01*
X16388800Y2376600D01*
X16448500Y2563300D01*
X16587800Y2696700D01*
X16747000Y2750000D01*
X16906200Y2696700D01*
X17045500Y2563300D01*
X17105200Y2376600D01*
X17065400Y2190000D01*
X16965900Y2056700D01*
X16846500Y2003300D01*
X16647500Y2003300D02*
X16468400Y1923300D01*
X16349000Y1763300D01*
X16309200Y1576700D01*
X16349000Y1389900D01*
X16448500Y1256600D01*
X16607700Y1176700D01*
X16747000Y1150000D01*
X20185800Y1150000D02*
Y2750000D01*
X19449500Y1603300D01*
X20444500D01*
X21547000Y1150000D02*
Y2750000D01*
X21308200Y2430000D01*
X21308200Y1150000D02*
X21785800D01*
X23147000Y2750000D02*
X22987800Y2696700D01*
X22868400Y2563300D01*
X22788800Y2403400D01*
X22729100Y2190000D01*
X22709200Y1950000D01*
X22729100Y1710000D01*
X22788800Y1496600D01*
X22868400Y1336600D01*
X22987800Y1203300D01*
X23147000Y1150000D01*
X23306200Y1203300D01*
X23425600Y1336600D01*
X23505200Y1496600D01*
X23564900Y1710000D01*
X23584800Y1950000D01*
X23564900Y2190000D01*
X23505200Y2403400D01*
X23425600Y2563300D01*
X23306200Y2696700D01*
X23147000Y2750000D01*
X25909200Y1470000D02*
X26028600Y1283300D01*
X26187800Y1176700D01*
X26366900Y1150000D01*
X26526100Y1176700D01*
X26685300Y1310000D01*
X26784800Y1470000D01*
X26804700Y1630000D01*
X26764900Y1816600D01*
X26625600Y1950000D01*
X26486300Y2003300D01*
X26307200D01*
X26486300Y2003300D02*
X26605700Y2083300D01*
X26705200Y2216600D01*
X26745000Y2376600D01*
X26705200Y2536700D01*
X26605700Y2670000D01*
X26426600Y2750000D01*
X26247500Y2723300D01*
X26068400Y2616600D01*
X27947000Y1150000D02*
X28086300Y1176700D01*
X28245500Y1256600D01*
X28345000Y1389900D01*
X28384800Y1576700D01*
X28345000Y1763300D01*
X28225600Y1923300D01*
X28046500Y2003300D01*
X27847500D01*
X27728100Y2056700D01*
X27628600Y2190000D01*
X27588800Y2376600D01*
X27648500Y2563300D01*
X27787800Y2696700D01*
X27947000Y2750000D01*
X28106200Y2696700D01*
X28245500Y2563300D01*
X28305200Y2376600D01*
X28265400Y2190000D01*
X28165900Y2056700D01*
X28046500Y2003300D01*
X27847500Y2003300D02*
X27668400Y1923300D01*
X27549000Y1763300D01*
X27509200Y1576700D01*
X27549000Y1389900D01*
X27648500Y1256600D01*
X27807700Y1176700D01*
X27947000Y1150000D01*
X29109200Y1470000D02*
X29228600Y1283300D01*
X29387800Y1176700D01*
X29566900Y1150000D01*
X29726100Y1176700D01*
X29885300Y1310000D01*
X29984800Y1470000D01*
X30004700Y1630000D01*
X29964900Y1816600D01*
X29825600Y1950000D01*
X29686300Y2003300D01*
X29507200D01*
X29686300Y2003300D02*
X29805700Y2083300D01*
X29905200Y2216600D01*
X29945000Y2376600D01*
X29905200Y2536700D01*
X29805700Y2670000D01*
X29626600Y2750000D01*
X29447500Y2723300D01*
X29268400Y2616600D01*
X27564500Y11950000D02*
X28240100Y13220000D01*
X27564500Y13220000D02*
X28240100Y11950000D01*
X29390700Y11950000D02*
Y13220000D01*
X28795500Y12309800D01*
X29599900D01*
X26364500Y73450000D02*
X27040100Y74720000D01*
X26364500Y74720000D02*
X27040100Y73450000D01*
X27997700Y73450000D02*
Y74720000D01*
X27804700Y74466000D01*
X27804700Y73450000D02*
X28190700D01*
X33302500Y71600200D02*
X33799900Y70000000D01*
X34297300Y71600200D01*
X35022100Y71333500D02*
X35141400Y71493500D01*
X35280700Y71573500D01*
X35439900Y71600200D01*
X35638900Y71546900D01*
X35778100Y71413500D01*
X35817900Y71253500D01*
X35798000Y71093400D01*
X35718400Y70960100D01*
X35320500Y70693400D01*
X35141400Y70506700D01*
X35022100Y70240000D01*
X34982300Y70000000D01*
X35817900D01*
X46147000Y1150000D02*
Y2750000D01*
X45908200Y2430000D01*
X45908200Y1150000D02*
X46385800D01*
X48968900Y1816600D02*
X49108200Y2003300D01*
X49227600Y2110000D01*
X49386800Y2163300D01*
X49526100Y2110000D01*
X49625600Y2003300D01*
X49705200Y1843300D01*
X49725100Y1656700D01*
X49705200Y1496600D01*
X49625600Y1336600D01*
X49506200Y1203300D01*
X49366900Y1150000D01*
X49207700Y1203300D01*
X49068400Y1363300D01*
X48988800Y1603300D01*
X48968900Y1870000D01*
X49008700Y2216600D01*
X49068400Y2403400D01*
X49167900Y2590000D01*
X49307200Y2723300D01*
X49446500Y2750000D01*
X49585800Y2696700D01*
X49685300Y2563300D01*
X50947000Y1150000D02*
X51086300Y1176700D01*
X51245500Y1256600D01*
X51345000Y1389900D01*
X51384800Y1576700D01*
X51345000Y1763300D01*
X51225600Y1923300D01*
X51046500Y2003300D01*
X50847500D01*
X50728100Y2056700D01*
X50628600Y2190000D01*
X50588800Y2376600D01*
X50648500Y2563300D01*
X50787800Y2696700D01*
X50947000Y2750000D01*
X51106200Y2696700D01*
X51245500Y2563300D01*
X51305200Y2376600D01*
X51265400Y2190000D01*
X51165900Y2056700D01*
X51046500Y2003300D01*
X50847500Y2003300D02*
X50668400Y1923300D01*
X50549000Y1763300D01*
X50509200Y1576700D01*
X50549000Y1389900D01*
X50648500Y1256600D01*
X50807700Y1176700D01*
X50947000Y1150000D01*
X52547000Y1150000D02*
X52686300Y1176700D01*
X52845500Y1256600D01*
X52945000Y1389900D01*
X52984800Y1576700D01*
X52945000Y1763300D01*
X52825600Y1923300D01*
X52646500Y2003300D01*
X52447500D01*
X52328100Y2056700D01*
X52228600Y2190000D01*
X52188800Y2376600D01*
X52248500Y2563300D01*
X52387800Y2696700D01*
X52547000Y2750000D01*
X52706200Y2696700D01*
X52845500Y2563300D01*
X52905200Y2376600D01*
X52865400Y2190000D01*
X52765900Y2056700D01*
X52646500Y2003300D01*
X52447500Y2003300D02*
X52268400Y1923300D01*
X52149000Y1763300D01*
X52109200Y1576700D01*
X52149000Y1389900D01*
X52248500Y1256600D01*
X52407700Y1176700D01*
X52547000Y1150000D01*
X55985800Y1150000D02*
Y2750000D01*
X55249500Y1603300D01*
X56244500D01*
X57347000Y2750000D02*
X57187800Y2696700D01*
X57068400Y2563300D01*
X56988800Y2403400D01*
X56929100Y2190000D01*
X56909200Y1950000D01*
X56929100Y1710000D01*
X56988800Y1496600D01*
X57068400Y1336600D01*
X57187800Y1203300D01*
X57347000Y1150000D01*
X57506200Y1203300D01*
X57625600Y1336600D01*
X57705200Y1496600D01*
X57764900Y1710000D01*
X57784800Y1950000D01*
X57764900Y2190000D01*
X57705200Y2403400D01*
X57625600Y2563300D01*
X57506200Y2696700D01*
X57347000Y2750000D01*
X58947000Y2750000D02*
X58787800Y2696700D01*
X58668400Y2563300D01*
X58588800Y2403400D01*
X58529100Y2190000D01*
X58509200Y1950000D01*
X58529100Y1710000D01*
X58588800Y1496600D01*
X58668400Y1336600D01*
X58787800Y1203300D01*
X58947000Y1150000D01*
X59106200Y1203300D01*
X59225600Y1336600D01*
X59305200Y1496600D01*
X59364900Y1710000D01*
X59384800Y1950000D01*
X59364900Y2190000D01*
X59305200Y2403400D01*
X59225600Y2563300D01*
X59106200Y2696700D01*
X58947000Y2750000D01*
X61709200Y1470000D02*
X61828600Y1283300D01*
X61987800Y1176700D01*
X62166900Y1150000D01*
X62326100Y1176700D01*
X62485300Y1310000D01*
X62584800Y1470000D01*
X62604700Y1630000D01*
X62564900Y1816600D01*
X62425600Y1950000D01*
X62286300Y2003300D01*
X62107200D01*
X62286300Y2003300D02*
X62405700Y2083300D01*
X62505200Y2216600D01*
X62545000Y2376600D01*
X62505200Y2536700D01*
X62405700Y2670000D01*
X62226600Y2750000D01*
X62047500Y2723300D01*
X61868400Y2616600D01*
X63747000Y1150000D02*
X63886300Y1176700D01*
X64045500Y1256600D01*
X64145000Y1389900D01*
X64184800Y1576700D01*
X64145000Y1763300D01*
X64025600Y1923300D01*
X63846500Y2003300D01*
X63647500D01*
X63528100Y2056700D01*
X63428600Y2190000D01*
X63388800Y2376600D01*
X63448500Y2563300D01*
X63587800Y2696700D01*
X63747000Y2750000D01*
X63906200Y2696700D01*
X64045500Y2563300D01*
X64105200Y2376600D01*
X64065400Y2190000D01*
X63965900Y2056700D01*
X63846500Y2003300D01*
X63647500Y2003300D02*
X63468400Y1923300D01*
X63349000Y1763300D01*
X63309200Y1576700D01*
X63349000Y1389900D01*
X63448500Y1256600D01*
X63607700Y1176700D01*
X63747000Y1150000D01*
X64909200Y1470000D02*
X65028600Y1283300D01*
X65187800Y1176700D01*
X65366900Y1150000D01*
X65526100Y1176700D01*
X65685300Y1310000D01*
X65784800Y1470000D01*
X65804700Y1630000D01*
X65764900Y1816600D01*
X65625600Y1950000D01*
X65486300Y2003300D01*
X65307200D01*
X65486300Y2003300D02*
X65605700Y2083300D01*
X65705200Y2216600D01*
X65745000Y2376600D01*
X65705200Y2536700D01*
X65605700Y2670000D01*
X65426600Y2750000D01*
X65247500Y2723300D01*
X65068400Y2616600D01*
X60550000Y38400000D02*
X55216000D01*
Y63419000D01*
X60550000D01*
Y38400000D01*
X56994000Y40178000D02*
Y39162000D01*
X55216000Y42718000D02*
X60550000D01*
X55216000Y48687000D02*
X60550000D01*
X55216000Y58720000D02*
X60550000D01*
X58764500Y11850000D02*
X59440100Y13120000D01*
X58764500Y13120000D02*
X59440100Y11850000D01*
X60043800Y12104000D02*
X60140300Y11955800D01*
X60269000Y11871200D01*
X60413800Y11850000D01*
X60542500Y11871200D01*
X60671200Y11977000D01*
X60751600Y12104000D01*
X60767700Y12231000D01*
X60735500Y12379100D01*
X60622900Y12485000D01*
X60510300Y12527300D01*
X60365500D01*
X60510300Y12527300D02*
X60606800Y12590800D01*
X60687300Y12696600D01*
X60719400Y12823700D01*
X60687300Y12950700D01*
X60606800Y13056500D01*
X60462000Y13120000D01*
X60317300Y13098800D01*
X60172500Y13014200D01*
X58772000Y38908000D02*
X59788000D01*
X58518000Y39162000D02*
Y40178000D01*
X57248000Y38908000D02*
X58264000D01*
X58264000Y40432000D02*
X57248000D01*
X59788000Y40432000D02*
X58772000D01*
X60042000Y39162000D02*
Y40178000D01*
X65802500Y41050200D02*
X66299900Y39450000D01*
X66797300Y41050200D01*
X68138900Y39450000D02*
Y41050200D01*
X67402700Y39903400D01*
X68397500D01*
X65802500Y57950200D02*
X66299900Y56350000D01*
X66797300Y57950200D01*
X67462400Y56590000D02*
X67581700Y56456700D01*
X67721000Y56376700D01*
X67900100Y56350000D01*
X68079200Y56403300D01*
X68218400Y56510000D01*
X68317900Y56696700D01*
X68337800Y56910000D01*
X68298000Y57123400D01*
X68198500Y57256800D01*
X68059300Y57363400D01*
X67920000Y57390100D01*
X67780700Y57363400D01*
X67601700Y57256800D01*
X67661300Y57950200D01*
X68198500D01*
X70385200Y1944000D02*
X70449500Y2007500D01*
X70497700Y2113300D01*
X70529900Y2261600D01*
X70497700Y2388500D01*
X70433400Y2473200D01*
X70320800Y2536700D01*
X69886600D01*
Y1266700D01*
X70417300D01*
X70529900Y1351300D01*
X70594300Y1478400D01*
X70626400Y1626500D01*
X70594300Y1774700D01*
X70497700Y1901700D01*
X70385200Y1944000D01*
X69886600D01*
X71551500Y1266700D02*
X71422800Y1287900D01*
X71310300Y1372500D01*
X71213700Y1499500D01*
X71149400Y1647700D01*
X71117200Y1817000D01*
Y1986400D01*
X71149400Y2155700D01*
X71213700Y2303900D01*
X71310300Y2430900D01*
X71422800Y2515500D01*
X71551500Y2536700D01*
X71680200Y2515500D01*
X71792700Y2430900D01*
X71889300Y2303900D01*
X71953600Y2155700D01*
X71985800Y1986400D01*
Y1817000D01*
X71953600Y1647700D01*
X71889300Y1499500D01*
X71792700Y1372500D01*
X71680200Y1287900D01*
X71551500Y1266700D01*
X72637400Y1690000D02*
X73055600D01*
X73835900Y2325000D02*
X73932400Y2452000D01*
X74045000Y2515500D01*
X74173700Y2536700D01*
X74334500Y2494400D01*
X74447100Y2388500D01*
X74479300Y2261600D01*
X74463200Y2134500D01*
X74398800Y2028700D01*
X74077200Y1817000D01*
X73932400Y1668900D01*
X73835900Y1457200D01*
X73803700Y1266700D01*
X74479300D01*
X68202400Y16300200D02*
X68699800Y14700000D01*
X69197200Y16300200D01*
X70300000Y14700000D02*
Y16300200D01*
X70061200Y15980200D01*
X70061200Y14700000D02*
X70538700D01*
X71462500Y15020000D02*
X71581800Y14833300D01*
X71741000Y14726700D01*
X71920100Y14700000D01*
X72079300Y14726700D01*
X72238500Y14860000D01*
X72337900Y15020000D01*
X72357800Y15180100D01*
X72318000Y15366700D01*
X72178700Y15500100D01*
X72039500Y15553500D01*
X71860400D01*
X72039500Y15553500D02*
X72158900Y15633400D01*
X72258400Y15766800D01*
X72298100Y15926800D01*
X72258400Y16086800D01*
X72158900Y16220200D01*
X71979800Y16300200D01*
X71800700Y16273500D01*
X71621700Y16166800D01*
X79802500Y41100200D02*
X80299900Y39500000D01*
X80797300Y41100200D01*
X81522100Y40166700D02*
X81661300Y40353500D01*
X81780700Y40460100D01*
X81939900Y40513400D01*
X82079200Y40460100D01*
X82178600Y40353500D01*
X82258300Y40193400D01*
X82278100Y40006700D01*
X82258300Y39846700D01*
X82178600Y39686700D01*
X82059300Y39553300D01*
X81920000Y39500000D01*
X81760800Y39553300D01*
X81621600Y39713300D01*
X81541900Y39953400D01*
X81522100Y40220100D01*
X81561800Y40566800D01*
X81621600Y40753500D01*
X81721000Y40940200D01*
X81860300Y41073500D01*
X81999600Y41100200D01*
X82138900Y41046900D01*
X82238400Y40913500D01*
X79802500Y57900200D02*
X80299900Y56300000D01*
X80797300Y57900200D01*
X81860300Y56300000D02*
X81900100Y56646700D01*
X81959800Y56940000D01*
X82039400Y57206800D01*
X82138900Y57500100D01*
X82298000Y57900200D01*
X81502200D01*
X00Y00D02*
X95000000D01*
Y87500000D01*
X00D01*
Y00D01*
X1968300Y12350000D02*
Y13137000D01*
X2201900D01*
X2279800Y13097600D01*
X2338200Y13005800D01*
X2357700Y12900900D01*
X2338200Y12796000D01*
X2289500Y12717300D01*
X2201900Y12677900D01*
X1968300D01*
X2950000Y12350000D02*
X3018100Y12363100D01*
X3096000Y12402500D01*
X3144700Y12468000D01*
X3164100Y12559900D01*
X3144700Y12651700D01*
X3086300Y12730400D01*
X2998700Y12769700D01*
X2901300D01*
X2842900Y12796000D01*
X2794300Y12861500D01*
X2774800Y12953400D01*
X2804000Y13045200D01*
X2872100Y13110800D01*
X2950000Y13137000D01*
X3027900Y13110800D01*
X3096000Y13045200D01*
X3125200Y12953400D01*
X3105700Y12861500D01*
X3057100Y12796000D01*
X2998700Y12769700D01*
X2901300Y12769700D02*
X2813700Y12730400D01*
X2755300Y12651700D01*
X2735900Y12559900D01*
X2755300Y12468000D01*
X2804000Y12402500D01*
X2881900Y12363100D01*
X2950000Y12350000D01*
X3552100Y12677900D02*
X3620200Y12769700D01*
X3678600Y12822200D01*
X3756500Y12848400D01*
X3824600Y12822200D01*
X3873300Y12769700D01*
X3912200Y12691000D01*
X3921900Y12599200D01*
X3912200Y12520500D01*
X3873300Y12441800D01*
X3814900Y12376200D01*
X3746700Y12350000D01*
X3668900Y12376200D01*
X3600700Y12454900D01*
X3561800Y12573000D01*
X3552100Y12704100D01*
X3571500Y12874700D01*
X3600700Y12966500D01*
X3649400Y13058300D01*
X3717500Y13123900D01*
X3785700Y13137000D01*
X3853800Y13110800D01*
X3902500Y13045200D01*
X1918300Y14150000D02*
Y14937000D01*
X2151900D01*
X2229800Y14897600D01*
X2288200Y14805800D01*
X2307700Y14700900D01*
X2288200Y14596000D01*
X2239500Y14517300D01*
X2151900Y14477900D01*
X1918300D01*
X2900000Y14150000D02*
X2968100Y14163100D01*
X3046000Y14202500D01*
X3094700Y14268000D01*
X3114100Y14359900D01*
X3094700Y14451700D01*
X3036300Y14530400D01*
X2948700Y14569700D01*
X2851300D01*
X2792900Y14596000D01*
X2744300Y14661500D01*
X2724800Y14753400D01*
X2754000Y14845200D01*
X2822100Y14910800D01*
X2900000Y14937000D01*
X2977900Y14910800D01*
X3046000Y14845200D01*
X3075200Y14753400D01*
X3055700Y14661500D01*
X3007100Y14596000D01*
X2948700Y14569700D01*
X2851300Y14569700D02*
X2763700Y14530400D01*
X2705300Y14451700D01*
X2685900Y14359900D01*
X2705300Y14268000D01*
X2754000Y14202500D01*
X2831900Y14163100D01*
X2900000Y14150000D01*
X3803800Y14150000D02*
Y14937000D01*
X3443700Y14373000D01*
X3930300D01*
X1918300Y16050000D02*
Y16837000D01*
X2151900D01*
X2229800Y16797600D01*
X2288200Y16705800D01*
X2307700Y16600900D01*
X2288200Y16496000D01*
X2239500Y16417300D01*
X2151900Y16377900D01*
X1918300D01*
X2900000Y16050000D02*
X2968100Y16063100D01*
X3046000Y16102500D01*
X3094700Y16168000D01*
X3114100Y16259900D01*
X3094700Y16351700D01*
X3036300Y16430400D01*
X2948700Y16469700D01*
X2851300D01*
X2792900Y16496000D01*
X2744300Y16561500D01*
X2724800Y16653400D01*
X2754000Y16745200D01*
X2822100Y16810800D01*
X2900000Y16837000D01*
X2977900Y16810800D01*
X3046000Y16745200D01*
X3075200Y16653400D01*
X3055700Y16561500D01*
X3007100Y16496000D01*
X2948700Y16469700D01*
X2851300Y16469700D02*
X2763700Y16430400D01*
X2705300Y16351700D01*
X2685900Y16259900D01*
X2705300Y16168000D01*
X2754000Y16102500D01*
X2831900Y16063100D01*
X2900000Y16050000D01*
X3687000Y16050000D02*
Y16837000D01*
X3570200Y16679600D01*
X3570200Y16050000D02*
X3803800D01*
X1918300Y18400000D02*
Y19187000D01*
X2151900D01*
X2229800Y19147600D01*
X2288200Y19055800D01*
X2307700Y18950900D01*
X2288200Y18846000D01*
X2239500Y18767300D01*
X2151900Y18727900D01*
X1918300D01*
X2900000Y18400000D02*
X2968100Y18413100D01*
X3046000Y18452500D01*
X3094700Y18518000D01*
X3114100Y18609900D01*
X3094700Y18701700D01*
X3036300Y18780400D01*
X2948700Y18819700D01*
X2851300D01*
X2792900Y18846000D01*
X2744300Y18911500D01*
X2724800Y19003400D01*
X2754000Y19095200D01*
X2822100Y19160800D01*
X2900000Y19187000D01*
X2977900Y19160800D01*
X3046000Y19095200D01*
X3075200Y19003400D01*
X3055700Y18911500D01*
X3007100Y18846000D01*
X2948700Y18819700D01*
X2851300Y18819700D02*
X2763700Y18780400D01*
X2705300Y18701700D01*
X2685900Y18609900D01*
X2705300Y18518000D01*
X2754000Y18452500D01*
X2831900Y18413100D01*
X2900000Y18400000D01*
X3472900Y18518000D02*
X3531300Y18452500D01*
X3599400Y18413100D01*
X3687000Y18400000D01*
X3774600Y18426200D01*
X3842700Y18478700D01*
X3891400Y18570500D01*
X3901100Y18675400D01*
X3881700Y18780400D01*
X3833000Y18846000D01*
X3764900Y18898400D01*
X3696700Y18911500D01*
X3628600Y18898400D01*
X3541000Y18846000D01*
X3570200Y19187000D01*
X3833000D01*
X2268300Y17150000D02*
Y17937000D01*
X2501900D01*
X2579800Y17897600D01*
X2638200Y17805800D01*
X2657700Y17700900D01*
X2638200Y17596000D01*
X2589500Y17517300D01*
X2501900Y17477900D01*
X2268300D01*
X3250000Y17150000D02*
X3318100Y17163100D01*
X3396000Y17202500D01*
X3444700Y17268000D01*
X3464100Y17359900D01*
X3444700Y17451700D01*
X3386300Y17530400D01*
X3298700Y17569700D01*
X3201300D01*
X3142900Y17596000D01*
X3094300Y17661500D01*
X3074800Y17753400D01*
X3104000Y17845200D01*
X3172100Y17910800D01*
X3250000Y17937000D01*
X3327900Y17910800D01*
X3396000Y17845200D01*
X3425200Y17753400D01*
X3405700Y17661500D01*
X3357100Y17596000D01*
X3298700Y17569700D01*
X3201300Y17569700D02*
X3113700Y17530400D01*
X3055300Y17451700D01*
X3035900Y17359900D01*
X3055300Y17268000D01*
X3104000Y17202500D01*
X3181900Y17163100D01*
X3250000Y17150000D01*
X3822900Y17307400D02*
X3881300Y17215600D01*
X3959100Y17163100D01*
X4046700Y17150000D01*
X4124600Y17163100D01*
X4202500Y17228700D01*
X4251100Y17307400D01*
X4260900Y17386100D01*
X4241400Y17477900D01*
X4173300Y17543500D01*
X4105100Y17569700D01*
X4017500D01*
X4105100Y17569700D02*
X4163500Y17609100D01*
X4212200Y17674700D01*
X4231700Y17753400D01*
X4212200Y17832100D01*
X4163500Y17897600D01*
X4075900Y17937000D01*
X3988300Y17923900D01*
X3900700Y17871400D01*
X2118300Y21200000D02*
Y21987000D01*
X2351900D01*
X2429800Y21947600D01*
X2488200Y21855800D01*
X2507700Y21750900D01*
X2488200Y21646000D01*
X2439500Y21567300D01*
X2351900Y21527900D01*
X2118300D01*
X3100000Y21200000D02*
X3168100Y21213100D01*
X3246000Y21252500D01*
X3294700Y21318000D01*
X3314100Y21409900D01*
X3294700Y21501700D01*
X3236300Y21580400D01*
X3148700Y21619700D01*
X3051300D01*
X2992900Y21646000D01*
X2944300Y21711500D01*
X2924800Y21803400D01*
X2954000Y21895200D01*
X3022100Y21960800D01*
X3100000Y21987000D01*
X3177900Y21960800D01*
X3246000Y21895200D01*
X3275200Y21803400D01*
X3255700Y21711500D01*
X3207100Y21646000D01*
X3148700Y21619700D01*
X3051300Y21619700D02*
X2963700Y21580400D01*
X2905300Y21501700D01*
X2885900Y21409900D01*
X2905300Y21318000D01*
X2954000Y21252500D01*
X3031900Y21213100D01*
X3100000Y21200000D01*
X3702100Y21855800D02*
X3760500Y21934500D01*
X3828600Y21973900D01*
X3906500Y21987000D01*
X4003800Y21960800D01*
X4071900Y21895200D01*
X4091400Y21816500D01*
X4081700Y21737800D01*
X4042700Y21672200D01*
X3848100Y21541000D01*
X3760500Y21449200D01*
X3702100Y21318000D01*
X3682600Y21200000D01*
X4091400D01*
X1918300Y20100000D02*
Y20887000D01*
X2151900D01*
X2229800Y20847600D01*
X2288200Y20755800D01*
X2307700Y20650900D01*
X2288200Y20546000D01*
X2239500Y20467300D01*
X2151900Y20427900D01*
X1918300D01*
X2880500Y20100000D02*
X2900000Y20270500D01*
X2929200Y20414800D01*
X2968100Y20546000D01*
X3016800Y20690200D01*
X3094700Y20887000D01*
X2705300D01*
X3687000Y20100000D02*
X3755100Y20113100D01*
X3833000Y20152500D01*
X3881700Y20218000D01*
X3901100Y20309900D01*
X3881700Y20401700D01*
X3823300Y20480400D01*
X3735700Y20519700D01*
X3638300D01*
X3579900Y20546000D01*
X3531300Y20611500D01*
X3511800Y20703400D01*
X3541000Y20795200D01*
X3609100Y20860800D01*
X3687000Y20887000D01*
X3764900Y20860800D01*
X3833000Y20795200D01*
X3862200Y20703400D01*
X3842700Y20611500D01*
X3794100Y20546000D01*
X3735700Y20519700D01*
X3638300Y20519700D02*
X3550700Y20480400D01*
X3492300Y20401700D01*
X3472900Y20309900D01*
X3492300Y20218000D01*
X3541000Y20152500D01*
X3618900Y20113100D01*
X3687000Y20100000D01*
X1918300Y22350000D02*
Y23137000D01*
X2151900D01*
X2229800Y23097600D01*
X2288200Y23005800D01*
X2307700Y22900900D01*
X2288200Y22796000D01*
X2239500Y22717300D01*
X2151900Y22677900D01*
X1918300D01*
X2880500Y22350000D02*
X2900000Y22520500D01*
X2929200Y22664800D01*
X2968100Y22796000D01*
X3016800Y22940200D01*
X3094700Y23137000D01*
X2705300D01*
X3667500Y22350000D02*
X3687000Y22520500D01*
X3716200Y22664800D01*
X3755100Y22796000D01*
X3803800Y22940200D01*
X3881700Y23137000D01*
X3492300D01*
X1918300Y24100000D02*
Y24887000D01*
X2151900D01*
X2229800Y24847600D01*
X2288200Y24755800D01*
X2307700Y24650900D01*
X2288200Y24546000D01*
X2239500Y24467300D01*
X2151900Y24427900D01*
X1918300D01*
X2880500Y24100000D02*
X2900000Y24270500D01*
X2929200Y24414800D01*
X2968100Y24546000D01*
X3016800Y24690200D01*
X3094700Y24887000D01*
X2705300D01*
X3502100Y24427900D02*
X3570200Y24519700D01*
X3628600Y24572200D01*
X3706500Y24598400D01*
X3774600Y24572200D01*
X3823300Y24519700D01*
X3862200Y24441000D01*
X3871900Y24349200D01*
X3862200Y24270500D01*
X3823300Y24191800D01*
X3764900Y24126200D01*
X3696700Y24100000D01*
X3618900Y24126200D01*
X3550700Y24204900D01*
X3511800Y24323000D01*
X3502100Y24454100D01*
X3521500Y24624700D01*
X3550700Y24716500D01*
X3599400Y24808300D01*
X3667500Y24873900D01*
X3735700Y24887000D01*
X3803800Y24860800D01*
X3852500Y24795200D01*
X1968300Y25900000D02*
Y26687000D01*
X2201900D01*
X2279800Y26647600D01*
X2338200Y26555800D01*
X2357700Y26450900D01*
X2338200Y26346000D01*
X2289500Y26267300D01*
X2201900Y26227900D01*
X1968300D01*
X2930500Y25900000D02*
X2950000Y26070500D01*
X2979200Y26214800D01*
X3018100Y26346000D01*
X3066800Y26490200D01*
X3144700Y26687000D01*
X2755300D01*
X3522900Y26018000D02*
X3581300Y25952500D01*
X3649400Y25913100D01*
X3737000Y25900000D01*
X3824600Y25926200D01*
X3892700Y25978700D01*
X3941400Y26070500D01*
X3951100Y26175400D01*
X3931700Y26280400D01*
X3883000Y26346000D01*
X3814900Y26398400D01*
X3746700Y26411500D01*
X3678600Y26398400D01*
X3591000Y26346000D01*
X3620200Y26687000D01*
X3883000D01*
X1968300Y27700000D02*
Y28487000D01*
X2201900D01*
X2279800Y28447600D01*
X2338200Y28355800D01*
X2357700Y28250900D01*
X2338200Y28146000D01*
X2289500Y28067300D01*
X2201900Y28027900D01*
X1968300D01*
X2930500Y27700000D02*
X2950000Y27870500D01*
X2979200Y28014800D01*
X3018100Y28146000D01*
X3066800Y28290200D01*
X3144700Y28487000D01*
X2755300D01*
X3853800Y27700000D02*
Y28487000D01*
X3493700Y27923000D01*
X3980300D01*
X1968300Y29750000D02*
Y30537000D01*
X2201900D01*
X2279800Y30497600D01*
X2338200Y30405800D01*
X2357700Y30300900D01*
X2338200Y30196000D01*
X2289500Y30117300D01*
X2201900Y30077900D01*
X1968300D01*
X2930500Y29750000D02*
X2950000Y29920500D01*
X2979200Y30064800D01*
X3018100Y30196000D01*
X3066800Y30340200D01*
X3144700Y30537000D01*
X2755300D01*
X3522900Y29907400D02*
X3581300Y29815600D01*
X3659100Y29763100D01*
X3746700Y29750000D01*
X3824600Y29763100D01*
X3902500Y29828700D01*
X3951100Y29907400D01*
X3960900Y29986100D01*
X3941400Y30077900D01*
X3873300Y30143500D01*
X3805100Y30169700D01*
X3717500D01*
X3805100Y30169700D02*
X3863500Y30209100D01*
X3912200Y30274700D01*
X3931700Y30353400D01*
X3912200Y30432100D01*
X3863500Y30497600D01*
X3775900Y30537000D01*
X3688300Y30523900D01*
X3600700Y30471400D01*
X1968300Y31650000D02*
Y32437000D01*
X2201900D01*
X2279800Y32397600D01*
X2338200Y32305800D01*
X2357700Y32200900D01*
X2338200Y32096000D01*
X2289500Y32017300D01*
X2201900Y31977900D01*
X1968300D01*
X2765100Y31977900D02*
X2833200Y32069700D01*
X2891600Y32122200D01*
X2969500Y32148400D01*
X3037600Y32122200D01*
X3086300Y32069700D01*
X3125200Y31991000D01*
X3134900Y31899200D01*
X3125200Y31820500D01*
X3086300Y31741800D01*
X3027900Y31676200D01*
X2959700Y31650000D01*
X2881900Y31676200D01*
X2813700Y31754900D01*
X2774800Y31873000D01*
X2765100Y32004100D01*
X2784500Y32174700D01*
X2813700Y32266500D01*
X2862400Y32358300D01*
X2930500Y32423900D01*
X2998700Y32437000D01*
X3066800Y32410800D01*
X3115500Y32345200D01*
X3737000Y31650000D02*
X3805100Y31663100D01*
X3883000Y31702500D01*
X3931700Y31768000D01*
X3951100Y31859900D01*
X3931700Y31951700D01*
X3873300Y32030400D01*
X3785700Y32069700D01*
X3688300D01*
X3629900Y32096000D01*
X3581300Y32161500D01*
X3561800Y32253400D01*
X3591000Y32345200D01*
X3659100Y32410800D01*
X3737000Y32437000D01*
X3814900Y32410800D01*
X3883000Y32345200D01*
X3912200Y32253400D01*
X3892700Y32161500D01*
X3844100Y32096000D01*
X3785700Y32069700D01*
X3688300Y32069700D02*
X3600700Y32030400D01*
X3542300Y31951700D01*
X3522900Y31859900D01*
X3542300Y31768000D01*
X3591000Y31702500D01*
X3668900Y31663100D01*
X3737000Y31650000D01*
X1918300Y33500000D02*
Y34287000D01*
X2151900D01*
X2229800Y34247600D01*
X2288200Y34155800D01*
X2307700Y34050900D01*
X2288200Y33946000D01*
X2239500Y33867300D01*
X2151900Y33827900D01*
X1918300D01*
X2880500Y33500000D02*
X2900000Y33670500D01*
X2929200Y33814800D01*
X2968100Y33946000D01*
X3016800Y34090200D01*
X3094700Y34287000D01*
X2705300D01*
X3502100Y34155800D02*
X3560500Y34234500D01*
X3628600Y34273900D01*
X3706500Y34287000D01*
X3803800Y34260800D01*
X3871900Y34195200D01*
X3891400Y34116500D01*
X3881700Y34037800D01*
X3842700Y33972200D01*
X3648100Y33841000D01*
X3560500Y33749200D01*
X3502100Y33618000D01*
X3482600Y33500000D01*
X3891400D01*
X2068300Y35400000D02*
Y36187000D01*
X2301900D01*
X2379800Y36147600D01*
X2438200Y36055800D01*
X2457700Y35950900D01*
X2438200Y35846000D01*
X2389500Y35767300D01*
X2301900Y35727900D01*
X2068300D01*
X3030500Y35400000D02*
X3050000Y35570500D01*
X3079200Y35714800D01*
X3118100Y35846000D01*
X3166800Y35990200D01*
X3244700Y36187000D01*
X2855300D01*
X3837000Y35400000D02*
Y36187000D01*
X3720200Y36029600D01*
X3720200Y35400000D02*
X3953800D01*
X2068300Y37250000D02*
Y38037000D01*
X2301900D01*
X2379800Y37997600D01*
X2438200Y37905800D01*
X2457700Y37800900D01*
X2438200Y37696000D01*
X2389500Y37617300D01*
X2301900Y37577900D01*
X2068300D01*
X3030500Y37250000D02*
X3050000Y37420500D01*
X3079200Y37564800D01*
X3118100Y37696000D01*
X3166800Y37840200D01*
X3244700Y38037000D01*
X2855300D01*
X3837000Y38037000D02*
X3759100Y38010800D01*
X3700700Y37945200D01*
X3661800Y37866500D01*
X3632600Y37761500D01*
X3622900Y37643500D01*
X3632600Y37525400D01*
X3661800Y37420500D01*
X3700700Y37341800D01*
X3759100Y37276200D01*
X3837000Y37250000D01*
X3914900Y37276200D01*
X3973300Y37341800D01*
X4012200Y37420500D01*
X4041400Y37525400D01*
X4051100Y37643500D01*
X4041400Y37761500D01*
X4012200Y37866500D01*
X3973300Y37945200D01*
X3914900Y38010800D01*
X3837000Y38037000D01*
X2018300Y39250000D02*
Y40037000D01*
X2251900D01*
X2329800Y39997600D01*
X2388200Y39905800D01*
X2407700Y39800900D01*
X2388200Y39696000D01*
X2339500Y39617300D01*
X2251900Y39577900D01*
X2018300D01*
X2815100Y39577900D02*
X2883200Y39669700D01*
X2941600Y39722200D01*
X3019500Y39748400D01*
X3087600Y39722200D01*
X3136300Y39669700D01*
X3175200Y39591000D01*
X3184900Y39499200D01*
X3175200Y39420500D01*
X3136300Y39341800D01*
X3077900Y39276200D01*
X3009700Y39250000D01*
X2931900Y39276200D01*
X2863700Y39354900D01*
X2824800Y39473000D01*
X2815100Y39604100D01*
X2834500Y39774700D01*
X2863700Y39866500D01*
X2912400Y39958300D01*
X2980500Y40023900D01*
X3048700Y40037000D01*
X3116800Y40010800D01*
X3165500Y39945200D01*
X3621500Y39341800D02*
X3689700Y39276200D01*
X3767500Y39250000D01*
X3845400Y39276200D01*
X3913500Y39354900D01*
X3962200Y39473000D01*
X3981700Y39591000D01*
Y39735300D01*
X3962200Y39853400D01*
X3913500Y39958300D01*
X3855100Y40010800D01*
X3787000Y40037000D01*
X3709100Y40010800D01*
X3650700Y39958300D01*
X3611800Y39879600D01*
X3592300Y39774700D01*
X3611800Y39682900D01*
X3660500Y39591000D01*
X3718900Y39538600D01*
X3787000Y39525400D01*
X3864900Y39551700D01*
X3923300Y39617300D01*
X3981700Y39735300D01*
X6168300Y24600000D02*
Y25387000D01*
X6401900D01*
X6479800Y25347600D01*
X6538200Y25255800D01*
X6557700Y25150900D01*
X6538200Y25046000D01*
X6489500Y24967300D01*
X6401900Y24927900D01*
X6168300D01*
X7150000Y24600000D02*
X7218100Y24613100D01*
X7296000Y24652500D01*
X7344700Y24718000D01*
X7364100Y24809900D01*
X7344700Y24901700D01*
X7286300Y24980400D01*
X7198700Y25019700D01*
X7101300D01*
X7042900Y25046000D01*
X6994300Y25111500D01*
X6974800Y25203400D01*
X7004000Y25295200D01*
X7072100Y25360800D01*
X7150000Y25387000D01*
X7227900Y25360800D01*
X7296000Y25295200D01*
X7325200Y25203400D01*
X7305700Y25111500D01*
X7257100Y25046000D01*
X7198700Y25019700D01*
X7101300Y25019700D02*
X7013700Y24980400D01*
X6955300Y24901700D01*
X6935900Y24809900D01*
X6955300Y24718000D01*
X7004000Y24652500D01*
X7081900Y24613100D01*
X7150000Y24600000D01*
X7937000Y25387000D02*
X7859100Y25360800D01*
X7800700Y25295200D01*
X7761800Y25216500D01*
X7732600Y25111500D01*
X7722900Y24993500D01*
X7732600Y24875400D01*
X7761800Y24770500D01*
X7800700Y24691800D01*
X7859100Y24626200D01*
X7937000Y24600000D01*
X8014900Y24626200D01*
X8073300Y24691800D01*
X8112200Y24770500D01*
X8141400Y24875400D01*
X8151100Y24993500D01*
X8141400Y25111500D01*
X8112200Y25216500D01*
X8073300Y25295200D01*
X8014900Y25360800D01*
X7937000Y25387000D01*
X5369200Y63987400D02*
X5612600Y63200000D01*
X5856000Y63987400D01*
X6185800Y63357500D02*
X6244200Y63265600D01*
X6322100Y63213100D01*
X6409700Y63200000D01*
X6487600Y63213100D01*
X6565500Y63278700D01*
X6614200Y63357500D01*
X6623900Y63436200D01*
X6604500Y63528100D01*
X6536300Y63593700D01*
X6468200Y63620000D01*
X6380500D01*
X6468200Y63620000D02*
X6526600Y63659300D01*
X6575300Y63724900D01*
X6594700Y63803700D01*
X6575300Y63882400D01*
X6526600Y63948000D01*
X6438900Y63987400D01*
X6351300Y63974300D01*
X6263700Y63921800D01*
X7021900Y63291800D02*
X7090000Y63226200D01*
X7167900Y63200000D01*
X7245800Y63226200D01*
X7314000Y63305000D01*
X7362700Y63423100D01*
X7382100Y63541200D01*
Y63685600D01*
X7362700Y63803700D01*
X7314000Y63908700D01*
X7255600Y63961200D01*
X7187400Y63987400D01*
X7109500Y63961200D01*
X7051100Y63908700D01*
X7012100Y63829900D01*
X6992700Y63724900D01*
X7012100Y63633100D01*
X7060800Y63541200D01*
X7119200Y63488700D01*
X7187400Y63475600D01*
X7265300Y63501800D01*
X7323700Y63567400D01*
X7382100Y63685600D01*
X5369200Y75100400D02*
X5612600Y74313000D01*
X5856000Y75100400D01*
X6185800Y74470500D02*
X6244200Y74378600D01*
X6322100Y74326100D01*
X6409700Y74313000D01*
X6487600Y74326100D01*
X6565500Y74391700D01*
X6614200Y74470500D01*
X6623900Y74549200D01*
X6604500Y74641100D01*
X6536300Y74706700D01*
X6468200Y74733000D01*
X6380500D01*
X6468200Y74733000D02*
X6526600Y74772300D01*
X6575300Y74837900D01*
X6594700Y74916700D01*
X6575300Y74995400D01*
X6526600Y75061000D01*
X6438900Y75100400D01*
X6351300Y75087300D01*
X6263700Y75034800D01*
X6973200Y74431100D02*
X7031600Y74365500D01*
X7099800Y74326100D01*
X7187400Y74313000D01*
X7275000Y74339200D01*
X7343200Y74391700D01*
X7391900Y74483600D01*
X7401600Y74588600D01*
X7382100Y74693600D01*
X7333400Y74759200D01*
X7265300Y74811700D01*
X7197100Y74824800D01*
X7129000Y74811700D01*
X7041400Y74759200D01*
X7070600Y75100400D01*
X7333400D01*
X8118300Y12900000D02*
Y13687000D01*
X8351900D01*
X8429800Y13647600D01*
X8488200Y13555800D01*
X8507700Y13450900D01*
X8488200Y13346000D01*
X8439500Y13267300D01*
X8351900Y13227900D01*
X8118300D01*
X8885900Y13018000D02*
X8944300Y12952500D01*
X9012400Y12913100D01*
X9100000Y12900000D01*
X9187600Y12926200D01*
X9255700Y12978700D01*
X9304400Y13070500D01*
X9314100Y13175400D01*
X9294700Y13280400D01*
X9246000Y13346000D01*
X9177900Y13398400D01*
X9109700Y13411500D01*
X9041600Y13398400D01*
X8954000Y13346000D01*
X8983200Y13687000D01*
X9246000D01*
X9887000Y13687000D02*
X9809100Y13660800D01*
X9750700Y13595200D01*
X9711800Y13516500D01*
X9682600Y13411500D01*
X9672900Y13293500D01*
X9682600Y13175400D01*
X9711800Y13070500D01*
X9750700Y12991800D01*
X9809100Y12926200D01*
X9887000Y12900000D01*
X9964900Y12926200D01*
X10023300Y12991800D01*
X10062200Y13070500D01*
X10091400Y13175400D01*
X10101100Y13293500D01*
X10091400Y13411500D01*
X10062200Y13516500D01*
X10023300Y13595200D01*
X9964900Y13660800D01*
X9887000Y13687000D01*
X8283100Y11921800D02*
X8224700Y11961200D01*
X8156500Y11987400D01*
X8078600D01*
X7991000Y11948000D01*
X7922900Y11882400D01*
X7874200Y11803700D01*
X7835200Y11672400D01*
X7825500Y11554300D01*
X7845000Y11436200D01*
X7874200Y11357500D01*
X7932600Y11278700D01*
X8000700Y11226200D01*
X8068900Y11200000D01*
X8137100D01*
X8205200Y11226200D01*
X8263600Y11265600D01*
X8312300Y11318100D01*
X8856300Y11200000D02*
Y11987400D01*
X8739500Y11829900D01*
X8739500Y11200000D02*
X8973100D01*
X9760500Y11200000D02*
Y11987400D01*
X9400300Y11423100D01*
X9887100D01*
X10431100Y11200000D02*
X10499300Y11213100D01*
X10577100Y11252500D01*
X10625800Y11318100D01*
X10645300Y11410000D01*
X10625800Y11501800D01*
X10567400Y11580600D01*
X10479800Y11620000D01*
X10382400D01*
X10324000Y11646200D01*
X10275300Y11711800D01*
X10255800Y11803700D01*
X10285100Y11895500D01*
X10353200Y11961200D01*
X10431100Y11987400D01*
X10509000Y11961200D01*
X10577100Y11895500D01*
X10606400Y11803700D01*
X10586900Y11711800D01*
X10538200Y11646200D01*
X10479800Y11620000D01*
X10382400Y11620000D02*
X10294800Y11580600D01*
X10236400Y11501800D01*
X10216900Y11410000D01*
X10236400Y11318100D01*
X10285100Y11252500D01*
X10362900Y11213100D01*
X10431100Y11200000D01*
X8518300Y15700000D02*
Y16487000D01*
X8751900D01*
X8829800Y16447600D01*
X8888200Y16355800D01*
X8907700Y16250900D01*
X8888200Y16146000D01*
X8839500Y16067300D01*
X8751900Y16027900D01*
X8518300D01*
X9500000Y15700000D02*
X9568100Y15713100D01*
X9646000Y15752500D01*
X9694700Y15818000D01*
X9714100Y15909900D01*
X9694700Y16001700D01*
X9636300Y16080400D01*
X9548700Y16119700D01*
X9451300D01*
X9392900Y16146000D01*
X9344300Y16211500D01*
X9324800Y16303400D01*
X9354000Y16395200D01*
X9422100Y16460800D01*
X9500000Y16487000D01*
X9577900Y16460800D01*
X9646000Y16395200D01*
X9675200Y16303400D01*
X9655700Y16211500D01*
X9607100Y16146000D01*
X9548700Y16119700D01*
X9451300Y16119700D02*
X9363700Y16080400D01*
X9305300Y16001700D01*
X9285900Y15909900D01*
X9305300Y15818000D01*
X9354000Y15752500D01*
X9431900Y15713100D01*
X9500000Y15700000D01*
X10267500Y15700000D02*
X10287000Y15870500D01*
X10316200Y16014800D01*
X10355100Y16146000D01*
X10403800Y16290200D01*
X10481700Y16487000D01*
X10092300D01*
X8118300Y18850000D02*
Y19637000D01*
X8351900D01*
X8429800Y19597600D01*
X8488200Y19505800D01*
X8507700Y19400900D01*
X8488200Y19296000D01*
X8439500Y19217300D01*
X8351900Y19177900D01*
X8118300D01*
X9080500Y18850000D02*
X9100000Y19020500D01*
X9129200Y19164800D01*
X9168100Y19296000D01*
X9216800Y19440200D01*
X9294700Y19637000D01*
X8905300D01*
X9721500Y18941800D02*
X9789700Y18876200D01*
X9867500Y18850000D01*
X9945400Y18876200D01*
X10013500Y18954900D01*
X10062200Y19073000D01*
X10081700Y19191000D01*
Y19335300D01*
X10062200Y19453400D01*
X10013500Y19558300D01*
X9955100Y19610800D01*
X9887000Y19637000D01*
X9809100Y19610800D01*
X9750700Y19558300D01*
X9711800Y19479600D01*
X9692300Y19374700D01*
X9711800Y19282900D01*
X9760500Y19191000D01*
X9818900Y19138600D01*
X9887000Y19125400D01*
X9964900Y19151700D01*
X10023300Y19217300D01*
X10081700Y19335300D01*
X7850000Y25924800D02*
X7063000D01*
Y26168200D01*
X7102400Y26246000D01*
X7154800Y26294700D01*
X7259800Y26314200D01*
X7364700Y26294700D01*
X7430300Y26236300D01*
X7469600Y26168200D01*
Y25924800D01*
X7469600Y26168200D02*
X7850000Y26314200D01*
X7850000Y26906500D02*
X7063000D01*
X7220400Y26789700D01*
X7850000Y26789700D02*
Y27023300D01*
X7850000Y27674000D02*
X7679500Y27693500D01*
X7535200Y27722700D01*
X7404000Y27761600D01*
X7259800Y27810300D01*
X7063000Y27888200D01*
Y27498800D01*
X7063000Y28480500D02*
X7089200Y28402600D01*
X7154800Y28344200D01*
X7233500Y28305300D01*
X7338500Y28276100D01*
X7456500Y28266400D01*
X7574600Y28276100D01*
X7679500Y28305300D01*
X7758200Y28344200D01*
X7823800Y28402600D01*
X7850000Y28480500D01*
X7823800Y28558400D01*
X7758200Y28616800D01*
X7679500Y28655700D01*
X7574600Y28684900D01*
X7456500Y28694600D01*
X7338500Y28684900D01*
X7233500Y28655700D01*
X7154800Y28616800D01*
X7089200Y28558400D01*
X7063000Y28480500D01*
X7533100Y38121800D02*
X7474700Y38161200D01*
X7406500Y38187400D01*
X7328600D01*
X7241000Y38148000D01*
X7172900Y38082400D01*
X7124200Y38003700D01*
X7085200Y37872400D01*
X7075500Y37754300D01*
X7095000Y37636200D01*
X7124200Y37557500D01*
X7182600Y37478700D01*
X7250700Y37426200D01*
X7318900Y37400000D01*
X7387100D01*
X7455200Y37426200D01*
X7513600Y37465600D01*
X7562300Y37518100D01*
X8106300Y37400000D02*
Y38187400D01*
X7989500Y38029900D01*
X7989500Y37400000D02*
X8223100D01*
X9010500Y37400000D02*
Y38187400D01*
X8650300Y37623100D01*
X9137100D01*
X9496100Y37728100D02*
X9564300Y37820000D01*
X9622700Y37872400D01*
X9700600Y37898700D01*
X9768700Y37872400D01*
X9817400Y37820000D01*
X9856400Y37741200D01*
X9866100Y37649300D01*
X9856400Y37570600D01*
X9817400Y37491800D01*
X9759000Y37426200D01*
X9690800Y37400000D01*
X9612900Y37426200D01*
X9544800Y37505000D01*
X9505800Y37623100D01*
X9496100Y37754300D01*
X9515600Y37924900D01*
X9544800Y38016800D01*
X9593500Y38108700D01*
X9661600Y38174300D01*
X9729800Y38187400D01*
X9797900Y38161200D01*
X9846600Y38095500D01*
X8869200Y63987400D02*
X9112600Y63200000D01*
X9356000Y63987400D01*
X9685800Y63357500D02*
X9744200Y63265600D01*
X9822100Y63213100D01*
X9909700Y63200000D01*
X9987600Y63213100D01*
X10065500Y63278700D01*
X10114200Y63357500D01*
X10123900Y63436200D01*
X10104500Y63528100D01*
X10036300Y63593700D01*
X9968200Y63620000D01*
X9880500D01*
X9968200Y63620000D02*
X10026600Y63659300D01*
X10075300Y63724900D01*
X10094700Y63803700D01*
X10075300Y63882400D01*
X10026600Y63948000D01*
X9938900Y63987400D01*
X9851300Y63974300D01*
X9763700Y63921800D01*
X10687400Y63200000D02*
X10755600Y63213100D01*
X10833400Y63252500D01*
X10882100Y63318100D01*
X10901600Y63410000D01*
X10882100Y63501800D01*
X10823700Y63580600D01*
X10736100Y63620000D01*
X10638700D01*
X10580300Y63646200D01*
X10531600Y63711800D01*
X10512100Y63803700D01*
X10541400Y63895500D01*
X10609500Y63961200D01*
X10687400Y63987400D01*
X10765300Y63961200D01*
X10833400Y63895500D01*
X10862700Y63803700D01*
X10843200Y63711800D01*
X10794500Y63646200D01*
X10736100Y63620000D01*
X10638700Y63620000D02*
X10551100Y63580600D01*
X10492700Y63501800D01*
X10473200Y63410000D01*
X10492700Y63318100D01*
X10541400Y63252500D01*
X10619200Y63213100D01*
X10687400Y63200000D01*
X8869200Y75100400D02*
X9112600Y74313000D01*
X9356000Y75100400D01*
X9685800Y74470500D02*
X9744200Y74378600D01*
X9822100Y74326100D01*
X9909700Y74313000D01*
X9987600Y74326100D01*
X10065500Y74391700D01*
X10114200Y74470500D01*
X10123900Y74549200D01*
X10104500Y74641100D01*
X10036300Y74706700D01*
X9968200Y74733000D01*
X9880500D01*
X9968200Y74733000D02*
X10026600Y74772300D01*
X10075300Y74837900D01*
X10094700Y74916700D01*
X10075300Y74995400D01*
X10026600Y75061000D01*
X9938900Y75100400D01*
X9851300Y75087300D01*
X9763700Y75034800D01*
X10502400Y74641100D02*
X10570600Y74733000D01*
X10629000Y74785400D01*
X10706900Y74811700D01*
X10775000Y74785400D01*
X10823700Y74733000D01*
X10862700Y74654200D01*
X10872400Y74562300D01*
X10862700Y74483600D01*
X10823700Y74404800D01*
X10765300Y74339200D01*
X10697100Y74313000D01*
X10619200Y74339200D01*
X10551100Y74418000D01*
X10512100Y74536100D01*
X10502400Y74667300D01*
X10521900Y74837900D01*
X10551100Y74929800D01*
X10599800Y75021700D01*
X10667900Y75087300D01*
X10736100Y75100400D01*
X10804200Y75074200D01*
X10852900Y75008500D01*
X9628200Y23333100D02*
X9588800Y23274700D01*
X9562600Y23206500D01*
Y23128600D01*
X9602000Y23041000D01*
X9667600Y22972900D01*
X9746300Y22924200D01*
X9877600Y22885200D01*
X9995700Y22875500D01*
X10113800Y22895000D01*
X10192500Y22924200D01*
X10271300Y22982600D01*
X10323800Y23050700D01*
X10350000Y23118900D01*
Y23187100D01*
X10323800Y23255200D01*
X10284400Y23313600D01*
X10231900Y23362300D01*
X10350000Y23906300D02*
X9562600D01*
X9720100Y23789500D01*
X10350000Y23789500D02*
Y24023100D01*
X10350000Y24810500D02*
X9562600D01*
X10126900Y24450300D01*
Y24937100D01*
X10350000Y25461600D02*
X10179400Y25481100D01*
X10035100Y25510300D01*
X9903800Y25549300D01*
X9759500Y25597900D01*
X9562600Y25675800D01*
Y25286400D01*
X9228200Y29383100D02*
X9188800Y29324700D01*
X9162600Y29256500D01*
Y29178600D01*
X9202000Y29091000D01*
X9267600Y29022900D01*
X9346300Y28974200D01*
X9477600Y28935200D01*
X9595700Y28925500D01*
X9713800Y28945000D01*
X9792500Y28974200D01*
X9871300Y29032600D01*
X9923800Y29100700D01*
X9950000Y29168900D01*
Y29237100D01*
X9923800Y29305200D01*
X9884400Y29363600D01*
X9831900Y29412300D01*
X9950000Y29956300D02*
X9162600D01*
X9320100Y29839500D01*
X9950000Y29839500D02*
Y30073100D01*
X9950000Y30860500D02*
X9162600D01*
X9726900Y30500300D01*
Y30987100D01*
X9293800Y31346100D02*
X9215100Y31404500D01*
X9175700Y31472700D01*
X9162600Y31550600D01*
X9188800Y31647900D01*
X9254500Y31716100D01*
X9333200Y31735600D01*
X9412000Y31725800D01*
X9477600Y31686900D01*
X9608800Y31492200D01*
X9700700Y31404500D01*
X9831900Y31346100D01*
X9950000Y31326600D01*
Y31735600D01*
X12412600Y7269200D02*
X13200000Y7512600D01*
X12412600Y7756000D01*
X12543800Y8115000D02*
X12465100Y8173400D01*
X12425700Y8241600D01*
X12412600Y8319500D01*
X12438800Y8416800D01*
X12504500Y8485000D01*
X12583200Y8504500D01*
X12662000Y8494700D01*
X12727600Y8455800D01*
X12858800Y8261100D01*
X12950700Y8173400D01*
X13081900Y8115000D01*
X13200000Y8095500D01*
Y8504500D01*
X13200000Y9067900D02*
X13029400Y9087400D01*
X12885100Y9116600D01*
X12753800Y9155600D01*
X12609500Y9204200D01*
X12412600Y9282100D01*
Y8892700D01*
X12219200Y63987400D02*
X12462600Y63200000D01*
X12706000Y63987400D01*
X13035800Y63357500D02*
X13094200Y63265600D01*
X13172100Y63213100D01*
X13259700Y63200000D01*
X13337600Y63213100D01*
X13415500Y63278700D01*
X13464200Y63357500D01*
X13473900Y63436200D01*
X13454500Y63528100D01*
X13386300Y63593700D01*
X13318200Y63620000D01*
X13230500D01*
X13318200Y63620000D02*
X13376600Y63659300D01*
X13425300Y63724900D01*
X13444700Y63803700D01*
X13425300Y63882400D01*
X13376600Y63948000D01*
X13288900Y63987400D01*
X13201300Y63974300D01*
X13113700Y63921800D01*
X14017900Y63200000D02*
X14037400Y63370600D01*
X14066600Y63514900D01*
X14105600Y63646200D01*
X14154200Y63790500D01*
X14232100Y63987400D01*
X13842700D01*
X12212600Y74369200D02*
X13000000Y74612600D01*
X12212600Y74856000D01*
X13000000Y75400000D02*
X12212600D01*
X12370100Y75283200D01*
X13000000Y75283200D02*
Y75516800D01*
X12908200Y76021900D02*
X12973800Y76090000D01*
X13000000Y76167900D01*
X12973800Y76245800D01*
X12895000Y76314000D01*
X12776900Y76362700D01*
X12658800Y76382100D01*
X12514400D01*
X12396300Y76362700D01*
X12291300Y76314000D01*
X12238800Y76255600D01*
X12212600Y76187400D01*
X12238800Y76109500D01*
X12291300Y76051100D01*
X12370100Y76012100D01*
X12475100Y75992700D01*
X12566900Y76012100D01*
X12658800Y76060800D01*
X12711300Y76119200D01*
X12724400Y76187400D01*
X12698200Y76265300D01*
X12632600Y76323700D01*
X12514400Y76382100D01*
X14818300Y39900000D02*
Y40687000D01*
X15051900D01*
X15129800Y40647600D01*
X15188200Y40555800D01*
X15207700Y40450900D01*
X15188200Y40346000D01*
X15139500Y40267300D01*
X15051900Y40227900D01*
X14818300D01*
X15916800Y39900000D02*
Y40687000D01*
X15556700Y40123000D01*
X16043300D01*
X16587000Y39900000D02*
X16655100Y39913100D01*
X16733000Y39952500D01*
X16781700Y40018000D01*
X16801100Y40109900D01*
X16781700Y40201700D01*
X16723300Y40280400D01*
X16635700Y40319700D01*
X16538300D01*
X16479900Y40346000D01*
X16431300Y40411500D01*
X16411800Y40503400D01*
X16441000Y40595200D01*
X16509100Y40660800D01*
X16587000Y40687000D01*
X16664900Y40660800D01*
X16733000Y40595200D01*
X16762200Y40503400D01*
X16742700Y40411500D01*
X16694100Y40346000D01*
X16635700Y40319700D01*
X16538300Y40319700D02*
X16450700Y40280400D01*
X16392300Y40201700D01*
X16372900Y40109900D01*
X16392300Y40018000D01*
X16441000Y39952500D01*
X16518900Y39913100D01*
X16587000Y39900000D01*
X16418300Y42750000D02*
Y43537000D01*
X16651900D01*
X16729800Y43497600D01*
X16788200Y43405800D01*
X16807700Y43300900D01*
X16788200Y43196000D01*
X16739500Y43117300D01*
X16651900Y43077900D01*
X16418300D01*
X17400000Y42750000D02*
Y43537000D01*
X17283200Y43379600D01*
X17283200Y42750000D02*
X17516800D01*
X18303800Y42750000D02*
Y43537000D01*
X17943700Y42973000D01*
X18430300D01*
X16718300Y64800000D02*
Y65587000D01*
X16951900D01*
X17029800Y65547600D01*
X17088200Y65455800D01*
X17107700Y65350900D01*
X17088200Y65246000D01*
X17039500Y65167300D01*
X16951900Y65127900D01*
X16718300D01*
X17700000Y64800000D02*
Y65587000D01*
X17583200Y65429600D01*
X17583200Y64800000D02*
X17816800D01*
X18487000Y64800000D02*
Y65587000D01*
X18370200Y65429600D01*
X18370200Y64800000D02*
X18603800D01*
X16718300Y66200000D02*
Y66987000D01*
X16951900D01*
X17029800Y66947600D01*
X17088200Y66855800D01*
X17107700Y66750900D01*
X17088200Y66646000D01*
X17039500Y66567300D01*
X16951900Y66527900D01*
X16718300D01*
X17700000Y66200000D02*
Y66987000D01*
X17583200Y66829600D01*
X17583200Y66200000D02*
X17816800D01*
X18487000Y66987000D02*
X18409100Y66960800D01*
X18350700Y66895200D01*
X18311800Y66816500D01*
X18282600Y66711500D01*
X18272900Y66593500D01*
X18282600Y66475400D01*
X18311800Y66370500D01*
X18350700Y66291800D01*
X18409100Y66226200D01*
X18487000Y66200000D01*
X18564900Y66226200D01*
X18623300Y66291800D01*
X18662200Y66370500D01*
X18691400Y66475400D01*
X18701100Y66593500D01*
X18691400Y66711500D01*
X18662200Y66816500D01*
X18623300Y66895200D01*
X18564900Y66960800D01*
X18487000Y66987000D01*
X16718300Y70200000D02*
Y70987000D01*
X16951900D01*
X17029800Y70947600D01*
X17088200Y70855800D01*
X17107700Y70750900D01*
X17088200Y70646000D01*
X17039500Y70567300D01*
X16951900Y70527900D01*
X16718300D01*
X17700000Y70200000D02*
Y70987000D01*
X17583200Y70829600D01*
X17583200Y70200000D02*
X17816800D01*
X18302100Y70855800D02*
X18360500Y70934500D01*
X18428600Y70973900D01*
X18506500Y70987000D01*
X18603800Y70960800D01*
X18671900Y70895200D01*
X18691400Y70816500D01*
X18681700Y70737800D01*
X18642700Y70672200D01*
X18448100Y70541000D01*
X18360500Y70449200D01*
X18302100Y70318000D01*
X18282600Y70200000D01*
X18691400D01*
X14592400Y75018000D02*
X14650800Y74952500D01*
X14718900Y74913100D01*
X14806500Y74900000D01*
X14894100Y74926200D01*
X14962200Y74978700D01*
X15010900Y75070500D01*
X15020600Y75175400D01*
X15001200Y75280400D01*
X14952500Y75346000D01*
X14884400Y75398400D01*
X14816200Y75411500D01*
X14748100Y75398400D01*
X14660500Y75346000D01*
X14689700Y75687000D01*
X14952500D01*
X15593500Y75687000D02*
X15515600Y75660800D01*
X15457200Y75595200D01*
X15418300Y75516500D01*
X15389100Y75411500D01*
X15379400Y75293500D01*
X15389100Y75175400D01*
X15418300Y75070500D01*
X15457200Y74991800D01*
X15515600Y74926200D01*
X15593500Y74900000D01*
X15671400Y74926200D01*
X15729800Y74991800D01*
X15768700Y75070500D01*
X15797900Y75175400D01*
X15807600Y75293500D01*
X15797900Y75411500D01*
X15768700Y75516500D01*
X15729800Y75595200D01*
X15671400Y75660800D01*
X15593500Y75687000D01*
X17468300Y39050000D02*
Y39837000D01*
X17701900D01*
X17779800Y39797600D01*
X17838200Y39705800D01*
X17857700Y39600900D01*
X17838200Y39496000D01*
X17789500Y39417300D01*
X17701900Y39377900D01*
X17468300D01*
X18235900Y39207400D02*
X18294300Y39115600D01*
X18372100Y39063100D01*
X18459700Y39050000D01*
X18537600Y39063100D01*
X18615500Y39128700D01*
X18664100Y39207400D01*
X18673900Y39286100D01*
X18654400Y39377900D01*
X18586300Y39443500D01*
X18518100Y39469700D01*
X18430500D01*
X18518100Y39469700D02*
X18576500Y39509100D01*
X18625200Y39574700D01*
X18644700Y39653400D01*
X18625200Y39732100D01*
X18576500Y39797600D01*
X18488900Y39837000D01*
X18401300Y39823900D01*
X18313700Y39771400D01*
X19237000Y39050000D02*
Y39837000D01*
X19120200Y39679600D01*
X19120200Y39050000D02*
X19353800D01*
X18765300Y42745000D02*
Y43532000D01*
X18998900D01*
X19076800Y43492600D01*
X19135200Y43400800D01*
X19154700Y43295900D01*
X19135200Y43191000D01*
X19086500Y43112300D01*
X18998900Y43072900D01*
X18765300D01*
X19747000Y42745000D02*
Y43532000D01*
X19630200Y43374600D01*
X19630200Y42745000D02*
X19863800D01*
X20319900Y42863000D02*
X20378300Y42797500D01*
X20446400Y42758100D01*
X20534000Y42745000D01*
X20621600Y42771200D01*
X20689700Y42823700D01*
X20738400Y42915500D01*
X20748100Y43020400D01*
X20728700Y43125400D01*
X20680000Y43191000D01*
X20611900Y43243400D01*
X20543700Y43256500D01*
X20475600Y43243400D01*
X20388000Y43191000D01*
X20417200Y43532000D01*
X20680000D01*
X17361800Y68200000D02*
Y68987000D01*
X17595400D01*
X17673300Y68947600D01*
X17731700Y68855800D01*
X17751200Y68750900D01*
X17731700Y68646000D01*
X17683000Y68567300D01*
X17595400Y68527900D01*
X17361800D01*
X18178000Y68291800D02*
X18246200Y68226200D01*
X18324000Y68200000D01*
X18401900Y68226200D01*
X18470000Y68304900D01*
X18518700Y68423000D01*
X18538200Y68541000D01*
Y68685300D01*
X18518700Y68803400D01*
X18470000Y68908300D01*
X18411600Y68960800D01*
X18343500Y68987000D01*
X18265600Y68960800D01*
X18207200Y68908300D01*
X18168300Y68829600D01*
X18148800Y68724700D01*
X18168300Y68632900D01*
X18217000Y68541000D01*
X18275400Y68488600D01*
X18343500Y68475400D01*
X18421400Y68501700D01*
X18479800Y68567300D01*
X18538200Y68685300D01*
X20469200Y12787400D02*
X20712600Y12000000D01*
X20956000Y12787400D01*
X21500000Y12000000D02*
Y12787400D01*
X21383200Y12629900D01*
X21383200Y12000000D02*
X21616800D01*
X22073200Y12118100D02*
X22131600Y12052500D01*
X22199800Y12013100D01*
X22287400Y12000000D01*
X22375000Y12026200D01*
X22443200Y12078700D01*
X22491900Y12170600D01*
X22501600Y12275600D01*
X22482100Y12380600D01*
X22433400Y12446200D01*
X22365300Y12498700D01*
X22297100Y12511800D01*
X22229000Y12498700D01*
X22141400Y12446200D01*
X22170600Y12787400D01*
X22433400D01*
X21268300Y40750000D02*
Y41537000D01*
X21501900D01*
X21579800Y41497600D01*
X21638200Y41405800D01*
X21657700Y41300900D01*
X21638200Y41196000D01*
X21589500Y41117300D01*
X21501900Y41077900D01*
X21268300D01*
X22065100Y41405800D02*
X22123500Y41484500D01*
X22191600Y41523900D01*
X22269500Y41537000D01*
X22366800Y41510800D01*
X22434900Y41445200D01*
X22454400Y41366500D01*
X22444700Y41287800D01*
X22405700Y41222200D01*
X22211100Y41091000D01*
X22123500Y40999200D01*
X22065100Y40868000D01*
X22045600Y40750000D01*
X22454400D01*
X22871500Y40841800D02*
X22939700Y40776200D01*
X23017500Y40750000D01*
X23095400Y40776200D01*
X23163500Y40854900D01*
X23212200Y40973000D01*
X23231700Y41091000D01*
Y41235300D01*
X23212200Y41353400D01*
X23163500Y41458300D01*
X23105100Y41510800D01*
X23037000Y41537000D01*
X22959100Y41510800D01*
X22900700Y41458300D01*
X22861800Y41379600D01*
X22842300Y41274700D01*
X22861800Y41182900D01*
X22910500Y41091000D01*
X22968900Y41038600D01*
X23037000Y41025400D01*
X23114900Y41051700D01*
X23173300Y41117300D01*
X23231700Y41235300D01*
X25000000Y11750000D02*
Y12537000D01*
X24883200Y12379600D01*
X24883200Y11750000D02*
X25116800D01*
X23618300Y37950000D02*
Y38737000D01*
X23851900D01*
X23929800Y38697600D01*
X23988200Y38605800D01*
X24007700Y38500900D01*
X23988200Y38396000D01*
X23939500Y38317300D01*
X23851900Y38277900D01*
X23618300D01*
X24415100Y38605800D02*
X24473500Y38684500D01*
X24541600Y38723900D01*
X24619500Y38737000D01*
X24716800Y38710800D01*
X24784900Y38645200D01*
X24804400Y38566500D01*
X24794700Y38487800D01*
X24755700Y38422200D01*
X24561100Y38291000D01*
X24473500Y38199200D01*
X24415100Y38068000D01*
X24395600Y37950000D01*
X24804400D01*
X25387000Y37950000D02*
Y38737000D01*
X25270200Y38579600D01*
X25270200Y37950000D02*
X25503800D01*
X25075300Y40692500D02*
Y41479500D01*
X25308900D01*
X25386800Y41440100D01*
X25445200Y41348300D01*
X25464700Y41243400D01*
X25445200Y41138500D01*
X25396500Y41059800D01*
X25308900Y41020400D01*
X25075300D01*
X25872100Y41348300D02*
X25930500Y41427000D01*
X25998600Y41466400D01*
X26076500Y41479500D01*
X26173800Y41453300D01*
X26241900Y41387700D01*
X26261400Y41309000D01*
X26251700Y41230300D01*
X26212700Y41164700D01*
X26018100Y41033500D01*
X25930500Y40941700D01*
X25872100Y40810500D01*
X25852600Y40692500D01*
X26261400D01*
X26659100Y41020400D02*
X26727200Y41112200D01*
X26785600Y41164700D01*
X26863500Y41190900D01*
X26931600Y41164700D01*
X26980300Y41112200D01*
X27019200Y41033500D01*
X27028900Y40941700D01*
X27019200Y40863000D01*
X26980300Y40784300D01*
X26921900Y40718700D01*
X26853700Y40692500D01*
X26775900Y40718700D01*
X26707700Y40797400D01*
X26668800Y40915500D01*
X26659100Y41046600D01*
X26678500Y41217200D01*
X26707700Y41309000D01*
X26756400Y41400800D01*
X26824500Y41466400D01*
X26892700Y41479500D01*
X26960800Y41453300D01*
X27009500Y41387700D01*
X27418300Y41150000D02*
Y41937000D01*
X27651900D01*
X27729800Y41897600D01*
X27788200Y41805800D01*
X27807700Y41700900D01*
X27788200Y41596000D01*
X27739500Y41517300D01*
X27651900Y41477900D01*
X27418300D01*
X28215100Y41805800D02*
X28273500Y41884500D01*
X28341600Y41923900D01*
X28419500Y41937000D01*
X28516800Y41910800D01*
X28584900Y41845200D01*
X28604400Y41766500D01*
X28594700Y41687800D01*
X28555700Y41622200D01*
X28361100Y41491000D01*
X28273500Y41399200D01*
X28215100Y41268000D01*
X28195600Y41150000D01*
X28604400D01*
X29187000Y41150000D02*
X29255100Y41163100D01*
X29333000Y41202500D01*
X29381700Y41268000D01*
X29401100Y41359900D01*
X29381700Y41451700D01*
X29323300Y41530400D01*
X29235700Y41569700D01*
X29138300D01*
X29079900Y41596000D01*
X29031300Y41661500D01*
X29011800Y41753400D01*
X29041000Y41845200D01*
X29109100Y41910800D01*
X29187000Y41937000D01*
X29264900Y41910800D01*
X29333000Y41845200D01*
X29362200Y41753400D01*
X29342700Y41661500D01*
X29294100Y41596000D01*
X29235700Y41569700D01*
X29138300Y41569700D02*
X29050700Y41530400D01*
X28992300Y41451700D01*
X28972900Y41359900D01*
X28992300Y41268000D01*
X29041000Y41202500D01*
X29118900Y41163100D01*
X29187000Y41150000D01*
X29011800Y15600000D02*
Y16387000D01*
X29245400D01*
X29323300Y16347600D01*
X29381700Y16255800D01*
X29401200Y16150900D01*
X29381700Y16046000D01*
X29333000Y15967300D01*
X29245400Y15927900D01*
X29011800D01*
X30110300Y15600000D02*
Y16387000D01*
X29750200Y15823000D01*
X30236800D01*
X29618300Y38100000D02*
Y38887000D01*
X29861700D01*
X29939500Y38847600D01*
X29988200Y38795200D01*
X30007700Y38690200D01*
X29988200Y38585300D01*
X29929800Y38519700D01*
X29861700Y38480400D01*
X29618300D01*
X29861700Y38480400D02*
X30007700Y38100000D01*
X30716800Y38100000D02*
Y38887000D01*
X30356700Y38323000D01*
X30843300D01*
X31387000Y38100000D02*
Y38887000D01*
X31270200Y38729600D01*
X31270200Y38100000D02*
X31503800D01*
X31950000Y11700000D02*
X32018100Y11713100D01*
X32096000Y11752500D01*
X32144700Y11818000D01*
X32164100Y11909900D01*
X32144700Y12001700D01*
X32086300Y12080400D01*
X31998700Y12119700D01*
X31901300D01*
X31842900Y12146000D01*
X31794300Y12211500D01*
X31774800Y12303400D01*
X31804000Y12395200D01*
X31872100Y12460800D01*
X31950000Y12487000D01*
X32027900Y12460800D01*
X32096000Y12395200D01*
X32125200Y12303400D01*
X32105700Y12211500D01*
X32057100Y12146000D01*
X31998700Y12119700D01*
X31901300Y12119700D02*
X31813700Y12080400D01*
X31755300Y12001700D01*
X31735900Y11909900D01*
X31755300Y11818000D01*
X31804000Y11752500D01*
X31881900Y11713100D01*
X31950000Y11700000D01*
X32118300Y12550000D02*
Y13337000D01*
X32351900D01*
X32429800Y13297600D01*
X32488200Y13205800D01*
X32507700Y13100900D01*
X32488200Y12996000D01*
X32439500Y12917300D01*
X32351900Y12877900D01*
X32118300D01*
X32885900Y12707400D02*
X32944300Y12615600D01*
X33022100Y12563100D01*
X33109700Y12550000D01*
X33187600Y12563100D01*
X33265500Y12628700D01*
X33314100Y12707400D01*
X33323900Y12786100D01*
X33304400Y12877900D01*
X33236300Y12943500D01*
X33168100Y12969700D01*
X33080500D01*
X33168100Y12969700D02*
X33226500Y13009100D01*
X33275200Y13074700D01*
X33294700Y13153400D01*
X33275200Y13232100D01*
X33226500Y13297600D01*
X33138900Y13337000D01*
X33051300Y13323900D01*
X32963700Y13271400D01*
X33672900Y12707400D02*
X33731300Y12615600D01*
X33809100Y12563100D01*
X33896700Y12550000D01*
X33974600Y12563100D01*
X34052500Y12628700D01*
X34101100Y12707400D01*
X34110900Y12786100D01*
X34091400Y12877900D01*
X34023300Y12943500D01*
X33955100Y12969700D01*
X33867500D01*
X33955100Y12969700D02*
X34013500Y13009100D01*
X34062200Y13074700D01*
X34081700Y13153400D01*
X34062200Y13232100D01*
X34013500Y13297600D01*
X33925900Y13337000D01*
X33838300Y13323900D01*
X33750700Y13271400D01*
X32861800Y40700000D02*
Y41487000D01*
X33095400D01*
X33173300Y41447600D01*
X33231700Y41355800D01*
X33251200Y41250900D01*
X33231700Y41146000D01*
X33183000Y41067300D01*
X33095400Y41027900D01*
X32861800D01*
X33629400Y40857400D02*
X33687800Y40765600D01*
X33765600Y40713100D01*
X33853200Y40700000D01*
X33931100Y40713100D01*
X34009000Y40778700D01*
X34057600Y40857400D01*
X34067400Y40936100D01*
X34047900Y41027900D01*
X33979800Y41093500D01*
X33911600Y41119700D01*
X33824000D01*
X33911600Y41119700D02*
X33970000Y41159100D01*
X34018700Y41224700D01*
X34038200Y41303400D01*
X34018700Y41382100D01*
X33970000Y41447600D01*
X33882400Y41487000D01*
X33794800Y41473900D01*
X33707200Y41421400D01*
X33220500Y75171800D02*
X33162100Y75211200D01*
X33093900Y75237400D01*
X33016000D01*
X32928400Y75198000D01*
X32860300Y75132400D01*
X32811600Y75053700D01*
X32772600Y74922400D01*
X32762900Y74804300D01*
X32782400Y74686200D01*
X32811600Y74607500D01*
X32870000Y74528700D01*
X32938100Y74476200D01*
X33006300Y74450000D01*
X33074500D01*
X33142600Y74476200D01*
X33201000Y74515600D01*
X33249700Y74568100D01*
X33910500Y74450000D02*
Y75237400D01*
X33550300Y74673100D01*
X34037100D01*
X35118300Y12600000D02*
Y13387000D01*
X35351900D01*
X35429800Y13347600D01*
X35488200Y13255800D01*
X35507700Y13150900D01*
X35488200Y13046000D01*
X35439500Y12967300D01*
X35351900Y12927900D01*
X35118300D01*
X35885900Y12757400D02*
X35944300Y12665600D01*
X36022100Y12613100D01*
X36109700Y12600000D01*
X36187600Y12613100D01*
X36265500Y12678700D01*
X36314100Y12757400D01*
X36323900Y12836100D01*
X36304400Y12927900D01*
X36236300Y12993500D01*
X36168100Y13019700D01*
X36080500D01*
X36168100Y13019700D02*
X36226500Y13059100D01*
X36275200Y13124700D01*
X36294700Y13203400D01*
X36275200Y13282100D01*
X36226500Y13347600D01*
X36138900Y13387000D01*
X36051300Y13373900D01*
X35963700Y13321400D01*
X37003800Y12600000D02*
Y13387000D01*
X36643700Y12823000D01*
X37130300D01*
X34618300Y17550000D02*
Y18337000D01*
X34851900D01*
X34929800Y18297600D01*
X34988200Y18205800D01*
X35007700Y18100900D01*
X34988200Y17996000D01*
X34939500Y17917300D01*
X34851900Y17877900D01*
X34618300D01*
X35385900Y17707400D02*
X35444300Y17615600D01*
X35522100Y17563100D01*
X35609700Y17550000D01*
X35687600Y17563100D01*
X35765500Y17628700D01*
X35814100Y17707400D01*
X35823900Y17786100D01*
X35804400Y17877900D01*
X35736300Y17943500D01*
X35668100Y17969700D01*
X35580500D01*
X35668100Y17969700D02*
X35726500Y18009100D01*
X35775200Y18074700D01*
X35794700Y18153400D01*
X35775200Y18232100D01*
X35726500Y18297600D01*
X35638900Y18337000D01*
X35551300Y18323900D01*
X35463700Y18271400D01*
X36202100Y18205800D02*
X36260500Y18284500D01*
X36328600Y18323900D01*
X36406500Y18337000D01*
X36503800Y18310800D01*
X36571900Y18245200D01*
X36591400Y18166500D01*
X36581700Y18087800D01*
X36542700Y18022200D01*
X36348100Y17891000D01*
X36260500Y17799200D01*
X36202100Y17668000D01*
X36182600Y17550000D01*
X36591400D01*
X34000000Y17168300D02*
X33213000D01*
Y17401900D01*
X33252400Y17479800D01*
X33344200Y17538200D01*
X33449100Y17557700D01*
X33554000Y17538200D01*
X33632700Y17489500D01*
X33672100Y17401900D01*
Y17168300D01*
X33842600Y17935900D02*
X33934400Y17994300D01*
X33986900Y18072100D01*
X34000000Y18159700D01*
X33986900Y18237600D01*
X33921300Y18315500D01*
X33842600Y18364100D01*
X33763900Y18373900D01*
X33672100Y18354400D01*
X33606500Y18286300D01*
X33580300Y18218100D01*
Y18130500D01*
X33580300Y18218100D02*
X33540900Y18276500D01*
X33475300Y18325200D01*
X33396600Y18344700D01*
X33317900Y18325200D01*
X33252400Y18276500D01*
X33213000Y18188900D01*
X33226100Y18101300D01*
X33278600Y18013700D01*
X33908200Y18771500D02*
X33973800Y18839700D01*
X34000000Y18917500D01*
X33973800Y18995400D01*
X33895100Y19063500D01*
X33777000Y19112200D01*
X33659000Y19131700D01*
X33514700D01*
X33396600Y19112200D01*
X33291700Y19063500D01*
X33239200Y19005100D01*
X33213000Y18937000D01*
X33239200Y18859100D01*
X33291700Y18800700D01*
X33370400Y18761800D01*
X33475300Y18742300D01*
X33567100Y18761800D01*
X33659000Y18810500D01*
X33711400Y18868900D01*
X33724600Y18937000D01*
X33698300Y19014900D01*
X33632700Y19073300D01*
X33514700Y19131700D01*
X34361800Y37950000D02*
Y38737000D01*
X34595400D01*
X34673300Y38697600D01*
X34731700Y38605800D01*
X34751200Y38500900D01*
X34731700Y38396000D01*
X34683000Y38317300D01*
X34595400Y38277900D01*
X34361800D01*
X35343500Y37950000D02*
Y38737000D01*
X35226700Y38579600D01*
X35226700Y37950000D02*
X35460300D01*
X37883100Y4371800D02*
X37824700Y4411200D01*
X37756500Y4437400D01*
X37678600D01*
X37591000Y4398000D01*
X37522900Y4332400D01*
X37474200Y4253700D01*
X37435200Y4122400D01*
X37425500Y4004300D01*
X37445000Y3886200D01*
X37474200Y3807500D01*
X37532600Y3728700D01*
X37600700Y3676200D01*
X37668900Y3650000D01*
X37737100D01*
X37805200Y3676200D01*
X37863600Y3715600D01*
X37912300Y3768100D01*
X38456300Y3650000D02*
Y4437400D01*
X38339500Y4279900D01*
X38339500Y3650000D02*
X38573100D01*
X39029500Y3768100D02*
X39087900Y3702500D01*
X39156100Y3663100D01*
X39243700Y3650000D01*
X39331300Y3676200D01*
X39399500Y3728700D01*
X39448200Y3820600D01*
X39457900Y3925600D01*
X39438400Y4030600D01*
X39389700Y4096200D01*
X39321600Y4148700D01*
X39253400Y4161800D01*
X39185300Y4148700D01*
X39097700Y4096200D01*
X39126900Y4437400D01*
X39389700D01*
X39816900Y3768100D02*
X39875300Y3702500D01*
X39943500Y3663100D01*
X40031100Y3650000D01*
X40118700Y3676200D01*
X40186900Y3728700D01*
X40235600Y3820600D01*
X40245300Y3925600D01*
X40225800Y4030600D01*
X40177100Y4096200D01*
X40109000Y4148700D01*
X40040800Y4161800D01*
X39972700Y4148700D01*
X39885100Y4096200D01*
X39914300Y4437400D01*
X40177100D01*
X37999600Y15188800D02*
X37941200Y15228200D01*
X37873000Y15254400D01*
X37795100D01*
X37707500Y15215000D01*
X37639400Y15149400D01*
X37590700Y15070700D01*
X37551700Y14939400D01*
X37542000Y14821300D01*
X37561500Y14703200D01*
X37590700Y14624500D01*
X37649100Y14545700D01*
X37717200Y14493200D01*
X37785400Y14467000D01*
X37853600D01*
X37921700Y14493200D01*
X37980100Y14532600D01*
X38028800Y14585100D01*
X38572800Y14467000D02*
Y15254400D01*
X38456000Y15096900D01*
X38456000Y14467000D02*
X38689600D01*
X39146000Y14585100D02*
X39204400Y14519500D01*
X39272600Y14480100D01*
X39360200Y14467000D01*
X39447800Y14493200D01*
X39516000Y14545700D01*
X39564700Y14637600D01*
X39574400Y14742600D01*
X39554900Y14847600D01*
X39506200Y14913200D01*
X39438100Y14965700D01*
X39369900Y14978800D01*
X39301800Y14965700D01*
X39214200Y14913200D01*
X39243400Y15254400D01*
X39506200D01*
X40128100Y14467000D02*
X40147600Y14637600D01*
X40176800Y14781900D01*
X40215800Y14913200D01*
X40264400Y15057500D01*
X40342300Y15254400D01*
X39952900D01*
X37950000Y17168300D02*
X37163000D01*
Y17401900D01*
X37202400Y17479800D01*
X37294200Y17538200D01*
X37399100Y17557700D01*
X37504000Y17538200D01*
X37582700Y17489500D01*
X37622100Y17401900D01*
Y17168300D01*
X37950000Y18266800D02*
X37163000D01*
X37727000Y17906700D01*
Y18393300D01*
X37950000Y18937000D02*
X37163000D01*
X37320400Y18820200D01*
X37950000Y18820200D02*
Y19053800D01*
X37818300Y37800000D02*
Y38587000D01*
X38051900D01*
X38129800Y38547600D01*
X38188200Y38455800D01*
X38207700Y38350900D01*
X38188200Y38246000D01*
X38139500Y38167300D01*
X38051900Y38127900D01*
X37818300D01*
X38615100Y38455800D02*
X38673500Y38534500D01*
X38741600Y38573900D01*
X38819500Y38587000D01*
X38916800Y38560800D01*
X38984900Y38495200D01*
X39004400Y38416500D01*
X38994700Y38337800D01*
X38955700Y38272200D01*
X38761100Y38141000D01*
X38673500Y38049200D01*
X38615100Y37918000D01*
X38595600Y37800000D01*
X39004400D01*
X39372900Y37918000D02*
X39431300Y37852500D01*
X39499400Y37813100D01*
X39587000Y37800000D01*
X39674600Y37826200D01*
X39742700Y37878700D01*
X39791400Y37970500D01*
X39801100Y38075400D01*
X39781700Y38180400D01*
X39733000Y38246000D01*
X39664900Y38298400D01*
X39596700Y38311500D01*
X39528600Y38298400D01*
X39441000Y38246000D01*
X39470200Y38587000D01*
X39733000D01*
X35870300Y40692500D02*
Y41479500D01*
X36103900D01*
X36181800Y41440100D01*
X36240200Y41348300D01*
X36259700Y41243400D01*
X36240200Y41138500D01*
X36191500Y41059800D01*
X36103900Y41020400D01*
X35870300D01*
X36667100Y41348300D02*
X36725500Y41427000D01*
X36793600Y41466400D01*
X36871500Y41479500D01*
X36968800Y41453300D01*
X37036900Y41387700D01*
X37056400Y41309000D01*
X37046700Y41230300D01*
X37007700Y41164700D01*
X36813100Y41033500D01*
X36725500Y40941700D01*
X36667100Y40810500D01*
X36647600Y40692500D01*
X37056400D01*
X37619500Y40692500D02*
X37639000Y40863000D01*
X37668200Y41007300D01*
X37707100Y41138500D01*
X37755800Y41282700D01*
X37833700Y41479500D01*
X37444300D01*
X39900000Y17118300D02*
X39113000D01*
Y17351900D01*
X39152400Y17429800D01*
X39244200Y17488200D01*
X39349100Y17507700D01*
X39454000Y17488200D01*
X39532700Y17439500D01*
X39572100Y17351900D01*
Y17118300D01*
X39900000Y18216800D02*
X39113000D01*
X39677000Y17856700D01*
Y18343300D01*
X39742600Y18672900D02*
X39834400Y18731300D01*
X39886900Y18809100D01*
X39900000Y18896700D01*
X39886900Y18974600D01*
X39821300Y19052500D01*
X39742600Y19101100D01*
X39663900Y19110900D01*
X39572100Y19091400D01*
X39506500Y19023300D01*
X39480300Y18955100D01*
Y18867500D01*
X39480300Y18955100D02*
X39440900Y19013500D01*
X39375300Y19062200D01*
X39296600Y19081700D01*
X39217900Y19062200D01*
X39152400Y19013500D01*
X39113000Y18925900D01*
X39126100Y18838300D01*
X39178600Y18750700D01*
X39919700Y37637000D02*
X40163000Y36850000D01*
X40406300Y37637000D01*
X40950000Y36850000D02*
Y37637000D01*
X40833200Y37479600D01*
X40833200Y36850000D02*
X41066800D01*
X41737000Y36850000D02*
Y37637000D01*
X41620200Y37479600D01*
X41620200Y36850000D02*
X41853800D01*
X39680300Y40692500D02*
Y41479500D01*
X39913900D01*
X39991800Y41440100D01*
X40050200Y41348300D01*
X40069700Y41243400D01*
X40050200Y41138500D01*
X40001500Y41059800D01*
X39913900Y41020400D01*
X39680300D01*
X40477100Y41348300D02*
X40535500Y41427000D01*
X40603600Y41466400D01*
X40681500Y41479500D01*
X40778800Y41453300D01*
X40846900Y41387700D01*
X40866400Y41309000D01*
X40856700Y41230300D01*
X40817700Y41164700D01*
X40623100Y41033500D01*
X40535500Y40941700D01*
X40477100Y40810500D01*
X40457600Y40692500D01*
X40866400D01*
X41264100Y41348300D02*
X41322500Y41427000D01*
X41390600Y41466400D01*
X41468500Y41479500D01*
X41565800Y41453300D01*
X41633900Y41387700D01*
X41653400Y41309000D01*
X41643700Y41230300D01*
X41604700Y41164700D01*
X41410100Y41033500D01*
X41322500Y40941700D01*
X41264100Y40810500D01*
X41244600Y40692500D01*
X41653400D01*
X39720500Y71921800D02*
X39662100Y71961200D01*
X39593900Y71987400D01*
X39516000D01*
X39428400Y71948000D01*
X39360300Y71882400D01*
X39311600Y71803700D01*
X39272600Y71672400D01*
X39262900Y71554300D01*
X39282400Y71436200D01*
X39311600Y71357500D01*
X39370000Y71278700D01*
X39438100Y71226200D01*
X39506300Y71200000D01*
X39574500D01*
X39642600Y71226200D01*
X39701000Y71265600D01*
X39749700Y71318100D01*
X40128200Y71291800D02*
X40196300Y71226200D01*
X40274200Y71200000D01*
X40352100Y71226200D01*
X40420300Y71305000D01*
X40469000Y71423100D01*
X40488400Y71541200D01*
Y71685600D01*
X40469000Y71803700D01*
X40420300Y71908700D01*
X40361900Y71961200D01*
X40293700Y71987400D01*
X40215800Y71961200D01*
X40157400Y71908700D01*
X40118400Y71829900D01*
X40099000Y71724900D01*
X40118400Y71633100D01*
X40167100Y71541200D01*
X40225500Y71488700D01*
X40293700Y71475600D01*
X40371600Y71501800D01*
X40430000Y71567400D01*
X40488400Y71685600D01*
X39750000Y74950000D02*
Y75737000D01*
X39633200Y75579600D01*
X39633200Y74950000D02*
X39866800D01*
X41683100Y5921800D02*
X41624700Y5961200D01*
X41556500Y5987400D01*
X41478600D01*
X41391000Y5948000D01*
X41322900Y5882400D01*
X41274200Y5803700D01*
X41235200Y5672400D01*
X41225500Y5554300D01*
X41245000Y5436200D01*
X41274200Y5357500D01*
X41332600Y5278700D01*
X41400700Y5226200D01*
X41468900Y5200000D01*
X41537100D01*
X41605200Y5226200D01*
X41663600Y5265600D01*
X41712300Y5318100D01*
X42256300Y5200000D02*
Y5987400D01*
X42139500Y5829900D01*
X42139500Y5200000D02*
X42373100D01*
X42829500Y5318100D02*
X42887900Y5252500D01*
X42956100Y5213100D01*
X43043700Y5200000D01*
X43131300Y5226200D01*
X43199500Y5278700D01*
X43248200Y5370600D01*
X43257900Y5475600D01*
X43238400Y5580600D01*
X43189700Y5646200D01*
X43121600Y5698700D01*
X43053400Y5711800D01*
X42985300Y5698700D01*
X42897700Y5646200D01*
X42926900Y5987400D01*
X43189700D01*
X43646100Y5528100D02*
X43714300Y5620000D01*
X43772700Y5672400D01*
X43850600Y5698700D01*
X43918700Y5672400D01*
X43967400Y5620000D01*
X44006400Y5541200D01*
X44016100Y5449300D01*
X44006400Y5370600D01*
X43967400Y5291800D01*
X43909000Y5226200D01*
X43840800Y5200000D01*
X43762900Y5226200D01*
X43694800Y5305000D01*
X43655800Y5423100D01*
X43646100Y5554300D01*
X43665600Y5724900D01*
X43694800Y5816800D01*
X43743500Y5908700D01*
X43811600Y5974300D01*
X43879800Y5987400D01*
X43947900Y5961200D01*
X43996600Y5895500D01*
X42618300Y14350000D02*
Y15137000D01*
X42851900D01*
X42929800Y15097600D01*
X42988200Y15005800D01*
X43007700Y14900900D01*
X42988200Y14796000D01*
X42939500Y14717300D01*
X42851900Y14677900D01*
X42618300D01*
X43385900Y14507400D02*
X43444300Y14415600D01*
X43522100Y14363100D01*
X43609700Y14350000D01*
X43687600Y14363100D01*
X43765500Y14428700D01*
X43814100Y14507400D01*
X43823900Y14586100D01*
X43804400Y14677900D01*
X43736300Y14743500D01*
X43668100Y14769700D01*
X43580500D01*
X43668100Y14769700D02*
X43726500Y14809100D01*
X43775200Y14874700D01*
X43794700Y14953400D01*
X43775200Y15032100D01*
X43726500Y15097600D01*
X43638900Y15137000D01*
X43551300Y15123900D01*
X43463700Y15071400D01*
X44387000Y15137000D02*
X44309100Y15110800D01*
X44250700Y15045200D01*
X44211800Y14966500D01*
X44182600Y14861500D01*
X44172900Y14743500D01*
X44182600Y14625400D01*
X44211800Y14520500D01*
X44250700Y14441800D01*
X44309100Y14376200D01*
X44387000Y14350000D01*
X44464900Y14376200D01*
X44523300Y14441800D01*
X44562200Y14520500D01*
X44591400Y14625400D01*
X44601100Y14743500D01*
X44591400Y14861500D01*
X44562200Y14966500D01*
X44523300Y15045200D01*
X44464900Y15110800D01*
X44387000Y15137000D01*
X42150000Y14174800D02*
X41363000D01*
Y14418200D01*
X41402400Y14496000D01*
X41454800Y14544700D01*
X41559800Y14564200D01*
X41664700Y14544700D01*
X41730300Y14486300D01*
X41769600Y14418200D01*
Y14174800D01*
X41769600Y14418200D02*
X42150000Y14564200D01*
X42150000Y15156500D02*
X41363000D01*
X41520400Y15039700D01*
X42150000Y15039700D02*
Y15273300D01*
X42150000Y15943500D02*
X42136900Y16011600D01*
X42097500Y16089500D01*
X42032000Y16138200D01*
X41940100Y16157600D01*
X41848300Y16138200D01*
X41769600Y16079800D01*
X41730300Y15992200D01*
Y15894800D01*
X41704000Y15836400D01*
X41638500Y15787800D01*
X41546600Y15768300D01*
X41454800Y15797500D01*
X41389200Y15865600D01*
X41363000Y15943500D01*
X41389200Y16021400D01*
X41454800Y16089500D01*
X41546600Y16118700D01*
X41638500Y16099200D01*
X41704000Y16050600D01*
X41730300Y15992200D01*
X41730300Y15894800D02*
X41769600Y15807200D01*
X41848300Y15748800D01*
X41940100Y15729400D01*
X42032000Y15748800D01*
X42097500Y15797500D01*
X42136900Y15875400D01*
X42150000Y15943500D01*
X42032000Y16516400D02*
X42097500Y16574800D01*
X42136900Y16642900D01*
X42150000Y16730500D01*
X42123800Y16818100D01*
X42071300Y16886200D01*
X41979500Y16934900D01*
X41874600Y16944600D01*
X41769600Y16925200D01*
X41704000Y16876500D01*
X41651600Y16808400D01*
X41638500Y16740200D01*
X41651600Y16672100D01*
X41704000Y16584500D01*
X41363000Y16613700D01*
Y16876500D01*
X41818300Y37900000D02*
Y38687000D01*
X42051900D01*
X42129800Y38647600D01*
X42188200Y38555800D01*
X42207700Y38450900D01*
X42188200Y38346000D01*
X42139500Y38267300D01*
X42051900Y38227900D01*
X41818300D01*
X42615100Y38555800D02*
X42673500Y38634500D01*
X42741600Y38673900D01*
X42819500Y38687000D01*
X42916800Y38660800D01*
X42984900Y38595200D01*
X43004400Y38516500D01*
X42994700Y38437800D01*
X42955700Y38372200D01*
X42761100Y38241000D01*
X42673500Y38149200D01*
X42615100Y38018000D01*
X42595600Y37900000D01*
X43004400D01*
X43703800Y37900000D02*
Y38687000D01*
X43343700Y38123000D01*
X43830300D01*
X43415300Y40695000D02*
Y41482000D01*
X43648900D01*
X43726800Y41442600D01*
X43785200Y41350800D01*
X43804700Y41245900D01*
X43785200Y41141000D01*
X43736500Y41062300D01*
X43648900Y41022900D01*
X43415300D01*
X44397000Y40695000D02*
Y41482000D01*
X44280200Y41324600D01*
X44280200Y40695000D02*
X44513800D01*
X44999100Y41022900D02*
X45067200Y41114700D01*
X45125600Y41167200D01*
X45203500Y41193400D01*
X45271600Y41167200D01*
X45320300Y41114700D01*
X45359200Y41036000D01*
X45368900Y40944200D01*
X45359200Y40865500D01*
X45320300Y40786800D01*
X45261900Y40721200D01*
X45193700Y40695000D01*
X45115900Y40721200D01*
X45047700Y40799900D01*
X45008800Y40918000D01*
X44999100Y41049100D01*
X45018500Y41219700D01*
X45047700Y41311500D01*
X45096400Y41403300D01*
X45164500Y41468900D01*
X45232700Y41482000D01*
X45300800Y41455800D01*
X45349500Y41390200D01*
X42561800Y70550000D02*
Y71337000D01*
X42795400D01*
X42873300Y71297600D01*
X42931700Y71205800D01*
X42951200Y71100900D01*
X42931700Y70996000D01*
X42883000Y70917300D01*
X42795400Y70877900D01*
X42561800D01*
X43543500Y70550000D02*
X43611600Y70563100D01*
X43689500Y70602500D01*
X43738200Y70668000D01*
X43757600Y70759900D01*
X43738200Y70851700D01*
X43679800Y70930400D01*
X43592200Y70969700D01*
X43494800D01*
X43436400Y70996000D01*
X43387800Y71061500D01*
X43368300Y71153400D01*
X43397500Y71245200D01*
X43465600Y71310800D01*
X43543500Y71337000D01*
X43621400Y71310800D01*
X43689500Y71245200D01*
X43718700Y71153400D01*
X43699200Y71061500D01*
X43650600Y70996000D01*
X43592200Y70969700D01*
X43494800Y70969700D02*
X43407200Y70930400D01*
X43348800Y70851700D01*
X43329400Y70759900D01*
X43348800Y70668000D01*
X43397500Y70602500D01*
X43475400Y70563100D01*
X43543500Y70550000D01*
X44950000Y11124200D02*
X44162600D01*
Y11367600D01*
X44202000Y11445500D01*
X44254500Y11494200D01*
X44359500Y11513600D01*
X44464400Y11494200D01*
X44530000Y11435700D01*
X44569400Y11367600D01*
Y11124200D01*
X44569400Y11367600D02*
X44950000Y11513600D01*
X44950000Y12106300D02*
X44162600D01*
X44320100Y11989500D01*
X44950000Y11989500D02*
Y12223100D01*
X44950000Y12893700D02*
X44936900Y12961900D01*
X44897500Y13039700D01*
X44831900Y13088400D01*
X44740000Y13107900D01*
X44648200Y13088400D01*
X44569400Y13030000D01*
X44530000Y12942400D01*
Y12845000D01*
X44503800Y12786600D01*
X44438200Y12737900D01*
X44346300Y12718400D01*
X44254500Y12747700D01*
X44188800Y12815800D01*
X44162600Y12893700D01*
X44188800Y12971600D01*
X44254500Y13039700D01*
X44346300Y13069000D01*
X44438200Y13049500D01*
X44503800Y13000800D01*
X44530000Y12942400D01*
X44530000Y12845000D02*
X44569400Y12757400D01*
X44648200Y12699000D01*
X44740000Y12679500D01*
X44831900Y12699000D01*
X44897500Y12747700D01*
X44936900Y12825500D01*
X44950000Y12893700D01*
X44950000Y13797900D02*
X44162600D01*
X44726900Y13437700D01*
Y13924500D01*
X46368300Y14350000D02*
Y15137000D01*
X46601900D01*
X46679800Y15097600D01*
X46738200Y15005800D01*
X46757700Y14900900D01*
X46738200Y14796000D01*
X46689500Y14717300D01*
X46601900Y14677900D01*
X46368300D01*
X47466800Y14350000D02*
Y15137000D01*
X47106700Y14573000D01*
X47593300D01*
X47952100Y15005800D02*
X48010500Y15084500D01*
X48078600Y15123900D01*
X48156500Y15137000D01*
X48253800Y15110800D01*
X48321900Y15045200D01*
X48341400Y14966500D01*
X48331700Y14887800D01*
X48292700Y14822200D01*
X48098100Y14691000D01*
X48010500Y14599200D01*
X47952100Y14468000D01*
X47932600Y14350000D01*
X48341400D01*
X44311800Y17200000D02*
Y17987000D01*
X44545400D01*
X44623300Y17947600D01*
X44681700Y17855800D01*
X44701200Y17750900D01*
X44681700Y17646000D01*
X44633000Y17567300D01*
X44545400Y17527900D01*
X44311800D01*
X45079400Y17318000D02*
X45137800Y17252500D01*
X45205900Y17213100D01*
X45293500Y17200000D01*
X45381100Y17226200D01*
X45449200Y17278700D01*
X45497900Y17370500D01*
X45507600Y17475400D01*
X45488200Y17580400D01*
X45439500Y17646000D01*
X45371400Y17698400D01*
X45303200Y17711500D01*
X45235100Y17698400D01*
X45147500Y17646000D01*
X45176700Y17987000D01*
X45439500D01*
X45868300Y37900000D02*
Y38687000D01*
X46101900D01*
X46179800Y38647600D01*
X46238200Y38555800D01*
X46257700Y38450900D01*
X46238200Y38346000D01*
X46189500Y38267300D01*
X46101900Y38227900D01*
X45868300D01*
X46665100Y38555800D02*
X46723500Y38634500D01*
X46791600Y38673900D01*
X46869500Y38687000D01*
X46966800Y38660800D01*
X47034900Y38595200D01*
X47054400Y38516500D01*
X47044700Y38437800D01*
X47005700Y38372200D01*
X46811100Y38241000D01*
X46723500Y38149200D01*
X46665100Y38018000D01*
X46645600Y37900000D01*
X47054400D01*
X47637000Y38687000D02*
X47559100Y38660800D01*
X47500700Y38595200D01*
X47461800Y38516500D01*
X47432600Y38411500D01*
X47422900Y38293500D01*
X47432600Y38175400D01*
X47461800Y38070500D01*
X47500700Y37991800D01*
X47559100Y37926200D01*
X47637000Y37900000D01*
X47714900Y37926200D01*
X47773300Y37991800D01*
X47812200Y38070500D01*
X47841400Y38175400D01*
X47851100Y38293500D01*
X47841400Y38411500D01*
X47812200Y38516500D01*
X47773300Y38595200D01*
X47714900Y38660800D01*
X47637000Y38687000D01*
X44667900Y70750000D02*
Y71537400D01*
X44911300D01*
X44989200Y71498000D01*
X45037900Y71445500D01*
X45057300Y71340500D01*
X45037900Y71235600D01*
X44979400Y71170000D01*
X44911300Y71130600D01*
X44667900D01*
X44911300Y71130600D02*
X45057300Y70750000D01*
X45465000Y71406200D02*
X45523400Y71484900D01*
X45591600Y71524300D01*
X45669500Y71537400D01*
X45766800Y71511200D01*
X45835000Y71445500D01*
X45854500Y71366800D01*
X45844700Y71288000D01*
X45805800Y71222400D01*
X45611100Y71091200D01*
X45523400Y70999300D01*
X45465000Y70868100D01*
X45445500Y70750000D01*
X45854500D01*
X46223200Y70907500D02*
X46281600Y70815600D01*
X46359500Y70763100D01*
X46447100Y70750000D01*
X46525000Y70763100D01*
X46602900Y70828700D01*
X46651600Y70907500D01*
X46661300Y70986200D01*
X46641900Y71078100D01*
X46573700Y71143700D01*
X46505600Y71170000D01*
X46417900D01*
X46505600Y71170000D02*
X46564000Y71209300D01*
X46612700Y71274900D01*
X46632100Y71353700D01*
X46612700Y71432400D01*
X46564000Y71498000D01*
X46476300Y71537400D01*
X46388700Y71524300D01*
X46301100Y71471800D01*
X45513200Y74087000D02*
X45756500Y73300000D01*
X45999800Y74087000D01*
X46543500Y73300000D02*
Y74087000D01*
X46426700Y73929600D01*
X46426700Y73300000D02*
X46660300D01*
X44867900Y81950000D02*
Y82737400D01*
X45111300D01*
X45189200Y82698000D01*
X45237900Y82645500D01*
X45257300Y82540500D01*
X45237900Y82435600D01*
X45179400Y82370000D01*
X45111300Y82330600D01*
X44867900D01*
X45111300Y82330600D02*
X45257300Y81950000D01*
X45850000Y81950000D02*
Y82737400D01*
X45733200Y82579900D01*
X45733200Y81950000D02*
X45966800D01*
X46617900Y81950000D02*
X46637400Y82120600D01*
X46666600Y82264900D01*
X46705600Y82396200D01*
X46754200Y82540500D01*
X46832100Y82737400D01*
X46442700D01*
X48252800Y17197500D02*
Y17984500D01*
X48486400D01*
X48564300Y17945100D01*
X48622700Y17853300D01*
X48642200Y17748400D01*
X48622700Y17643500D01*
X48574000Y17564800D01*
X48486400Y17525400D01*
X48252800D01*
X49351300Y17197500D02*
Y17984500D01*
X48991200Y17420500D01*
X49477800D01*
X50002000Y17197500D02*
X50021500Y17368000D01*
X50050700Y17512300D01*
X50089600Y17643500D01*
X50138300Y17787700D01*
X50216200Y17984500D01*
X49826800D01*
X47300300Y40692500D02*
Y41479500D01*
X47533900D01*
X47611800Y41440100D01*
X47670200Y41348300D01*
X47689700Y41243400D01*
X47670200Y41138500D01*
X47621500Y41059800D01*
X47533900Y41020400D01*
X47300300D01*
X48282000Y40692500D02*
Y41479500D01*
X48165200Y41322100D01*
X48165200Y40692500D02*
X48398800D01*
X49049500Y40692500D02*
X49069000Y40863000D01*
X49098200Y41007300D01*
X49137100Y41138500D01*
X49185800Y41282700D01*
X49263700Y41479500D01*
X48874300D01*
X50050000Y11850000D02*
Y12637000D01*
X49933200Y12479600D01*
X49933200Y11850000D02*
X50166800D01*
X49918300Y14300000D02*
Y15087000D01*
X50151900D01*
X50229800Y15047600D01*
X50288200Y14955800D01*
X50307700Y14850900D01*
X50288200Y14746000D01*
X50239500Y14667300D01*
X50151900Y14627900D01*
X49918300D01*
X51016800Y14300000D02*
Y15087000D01*
X50656700Y14523000D01*
X51143300D01*
X51687000Y15087000D02*
X51609100Y15060800D01*
X51550700Y14995200D01*
X51511800Y14916500D01*
X51482600Y14811500D01*
X51472900Y14693500D01*
X51482600Y14575400D01*
X51511800Y14470500D01*
X51550700Y14391800D01*
X51609100Y14326200D01*
X51687000Y14300000D01*
X51764900Y14326200D01*
X51823300Y14391800D01*
X51862200Y14470500D01*
X51891400Y14575400D01*
X51901100Y14693500D01*
X51891400Y14811500D01*
X51862200Y14916500D01*
X51823300Y14995200D01*
X51764900Y15060800D01*
X51687000Y15087000D01*
X50118300Y19750000D02*
Y20537000D01*
X50351900D01*
X50429800Y20497600D01*
X50488200Y20405800D01*
X50507700Y20300900D01*
X50488200Y20196000D01*
X50439500Y20117300D01*
X50351900Y20077900D01*
X50118300D01*
X51216800Y19750000D02*
Y20537000D01*
X50856700Y19973000D01*
X51343300D01*
X51672900Y19868000D02*
X51731300Y19802500D01*
X51799400Y19763100D01*
X51887000Y19750000D01*
X51974600Y19776200D01*
X52042700Y19828700D01*
X52091400Y19920500D01*
X52101100Y20025400D01*
X52081700Y20130400D01*
X52033000Y20196000D01*
X51964900Y20248400D01*
X51896700Y20261500D01*
X51828600Y20248400D01*
X51741000Y20196000D01*
X51770200Y20537000D01*
X52033000D01*
X50068300Y21200000D02*
Y21987000D01*
X50301900D01*
X50379800Y21947600D01*
X50438200Y21855800D01*
X50457700Y21750900D01*
X50438200Y21646000D01*
X50389500Y21567300D01*
X50301900Y21527900D01*
X50068300D01*
X51166800Y21200000D02*
Y21987000D01*
X50806700Y21423000D01*
X51293300D01*
X51953800Y21200000D02*
Y21987000D01*
X51593700Y21423000D01*
X52080300D01*
X50561800Y22750000D02*
Y23537000D01*
X50795400D01*
X50873300Y23497600D01*
X50931700Y23405800D01*
X50951200Y23300900D01*
X50931700Y23196000D01*
X50883000Y23117300D01*
X50795400Y23077900D01*
X50561800D01*
X51358600Y23077900D02*
X51426700Y23169700D01*
X51485100Y23222200D01*
X51563000Y23248400D01*
X51631100Y23222200D01*
X51679800Y23169700D01*
X51718700Y23091000D01*
X51728400Y22999200D01*
X51718700Y22920500D01*
X51679800Y22841800D01*
X51621400Y22776200D01*
X51553200Y22750000D01*
X51475400Y22776200D01*
X51407200Y22854900D01*
X51368300Y22973000D01*
X51358600Y23104100D01*
X51378000Y23274700D01*
X51407200Y23366500D01*
X51455900Y23458300D01*
X51524000Y23523900D01*
X51592200Y23537000D01*
X51660300Y23510800D01*
X51709000Y23445200D01*
X51318300Y39700000D02*
Y40487000D01*
X51551900D01*
X51629800Y40447600D01*
X51688200Y40355800D01*
X51707700Y40250900D01*
X51688200Y40146000D01*
X51639500Y40067300D01*
X51551900Y40027900D01*
X51318300D01*
X52300000Y39700000D02*
Y40487000D01*
X52183200Y40329600D01*
X52183200Y39700000D02*
X52416800D01*
X52921500Y39791800D02*
X52989700Y39726200D01*
X53067500Y39700000D01*
X53145400Y39726200D01*
X53213500Y39804900D01*
X53262200Y39923000D01*
X53281700Y40041000D01*
Y40185300D01*
X53262200Y40303400D01*
X53213500Y40408300D01*
X53155100Y40460800D01*
X53087000Y40487000D01*
X53009100Y40460800D01*
X52950700Y40408300D01*
X52911800Y40329600D01*
X52892300Y40224700D01*
X52911800Y40132900D01*
X52960500Y40041000D01*
X53018900Y39988600D01*
X53087000Y39975400D01*
X53164900Y40001700D01*
X53223300Y40067300D01*
X53281700Y40185300D01*
X50950000Y46561800D02*
X50163000D01*
Y46805200D01*
X50202400Y46883000D01*
X50254800Y46931700D01*
X50359800Y46951200D01*
X50464700Y46931700D01*
X50530300Y46873300D01*
X50569600Y46805200D01*
Y46561800D01*
X50569600Y46805200D02*
X50950000Y46951200D01*
X50950000Y47543500D02*
X50163000D01*
X50320400Y47426700D01*
X50950000Y47426700D02*
Y47660300D01*
X50850000Y49161800D02*
X50063000D01*
Y49405200D01*
X50102400Y49483000D01*
X50154800Y49531700D01*
X50259800Y49551200D01*
X50364700Y49531700D01*
X50430300Y49473300D01*
X50469600Y49405200D01*
Y49161800D01*
X50469600Y49405200D02*
X50850000Y49551200D01*
X50194200Y49958600D02*
X50115500Y50017000D01*
X50076100Y50085100D01*
X50063000Y50163000D01*
X50089200Y50260300D01*
X50154800Y50328400D01*
X50233500Y50347900D01*
X50312200Y50338200D01*
X50377800Y50299200D01*
X50509000Y50104600D01*
X50600800Y50017000D01*
X50732000Y49958600D01*
X50850000Y49939100D01*
Y50347900D01*
X50950000Y52111800D02*
X50163000D01*
Y52355200D01*
X50202400Y52433000D01*
X50254800Y52481700D01*
X50359800Y52501200D01*
X50464700Y52481700D01*
X50530300Y52423300D01*
X50569600Y52355200D01*
Y52111800D01*
X50569600Y52355200D02*
X50950000Y52501200D01*
X50950000Y53210300D02*
X50163000D01*
X50727000Y52850200D01*
Y53336800D01*
X50850000Y54561800D02*
X50063000D01*
Y54805200D01*
X50102400Y54883000D01*
X50154800Y54931700D01*
X50259800Y54951200D01*
X50364700Y54931700D01*
X50430300Y54873300D01*
X50469600Y54805200D01*
Y54561800D01*
X50469600Y54805200D02*
X50850000Y54951200D01*
X50692600Y55329400D02*
X50784400Y55387800D01*
X50836900Y55465600D01*
X50850000Y55553200D01*
X50836900Y55631100D01*
X50771300Y55709000D01*
X50692600Y55757600D01*
X50613900Y55767400D01*
X50522100Y55747900D01*
X50456500Y55679800D01*
X50430300Y55611600D01*
Y55524000D01*
X50430300Y55611600D02*
X50390900Y55670000D01*
X50325300Y55718700D01*
X50246600Y55738200D01*
X50167900Y55718700D01*
X50102400Y55670000D01*
X50063000Y55582400D01*
X50076100Y55494800D01*
X50128600Y55407200D01*
X50850000Y56418300D02*
X50063000D01*
Y56661700D01*
X50102400Y56739500D01*
X50154800Y56788200D01*
X50259800Y56807700D01*
X50364700Y56788200D01*
X50430300Y56729800D01*
X50469600Y56661700D01*
Y56418300D01*
X50469600Y56661700D02*
X50850000Y56807700D01*
X50850000Y57400000D02*
X50063000D01*
X50220400Y57283200D01*
X50850000Y57283200D02*
Y57516800D01*
X50850000Y58303800D02*
X50063000D01*
X50627000Y57943700D01*
Y58430300D01*
X51300000Y59067900D02*
X50512600D01*
Y59311300D01*
X50552000Y59389200D01*
X50604500Y59437900D01*
X50709500Y59457300D01*
X50814400Y59437900D01*
X50880000Y59379400D01*
X50919400Y59311300D01*
Y59067900D01*
X50919400Y59311300D02*
X51300000Y59457300D01*
X51208200Y59884500D02*
X51273800Y59952600D01*
X51300000Y60030500D01*
X51273800Y60108400D01*
X51195000Y60176600D01*
X51076900Y60225300D01*
X50958800Y60244700D01*
X50814400D01*
X50696300Y60225300D01*
X50591300Y60176600D01*
X50538800Y60118200D01*
X50512600Y60050000D01*
X50538800Y59972100D01*
X50591300Y59913700D01*
X50670100Y59874700D01*
X50775100Y59855300D01*
X50866900Y59874700D01*
X50958800Y59923400D01*
X51011300Y59981800D01*
X51024400Y60050000D01*
X50998200Y60127900D01*
X50932600Y60186300D01*
X50814400Y60244700D01*
X50643800Y60652400D02*
X50565100Y60710800D01*
X50525700Y60779000D01*
X50512600Y60856900D01*
X50538800Y60954200D01*
X50604500Y61022400D01*
X50683200Y61041900D01*
X50762000Y61032100D01*
X50827600Y60993200D01*
X50958800Y60798500D01*
X51050700Y60710800D01*
X51181900Y60652400D01*
X51300000Y60632900D01*
Y61041900D01*
X51200000Y65761800D02*
X50413000D01*
Y66005200D01*
X50452400Y66083000D01*
X50504800Y66131700D01*
X50609800Y66151200D01*
X50714700Y66131700D01*
X50780300Y66073300D01*
X50819600Y66005200D01*
Y65761800D01*
X50819600Y66005200D02*
X51200000Y66151200D01*
X51108200Y66578000D02*
X51173800Y66646200D01*
X51200000Y66724000D01*
X51173800Y66801900D01*
X51095100Y66870000D01*
X50977000Y66918700D01*
X50859000Y66938200D01*
X50714700D01*
X50596600Y66918700D01*
X50491700Y66870000D01*
X50439200Y66811600D01*
X50413000Y66743500D01*
X50439200Y66665600D01*
X50491700Y66607200D01*
X50570400Y66568300D01*
X50675300Y66548800D01*
X50767100Y66568300D01*
X50859000Y66617000D01*
X50911400Y66675400D01*
X50924600Y66743500D01*
X50898300Y66821400D01*
X50832700Y66879800D01*
X50714700Y66938200D01*
X51200000Y67918300D02*
X50413000D01*
Y68161700D01*
X50452400Y68239500D01*
X50504800Y68288200D01*
X50609800Y68307700D01*
X50714700Y68288200D01*
X50780300Y68229800D01*
X50819600Y68161700D01*
Y67918300D01*
X50819600Y68161700D02*
X51200000Y68307700D01*
X51200000Y68900000D02*
X50413000D01*
X50570400Y68783200D01*
X51200000Y68783200D02*
Y69016800D01*
X50413000Y69687000D02*
X50439200Y69609100D01*
X50504800Y69550700D01*
X50583500Y69511800D01*
X50688500Y69482600D01*
X50806500Y69472900D01*
X50924600Y69482600D01*
X51029500Y69511800D01*
X51108200Y69550700D01*
X51173800Y69609100D01*
X51200000Y69687000D01*
X51173800Y69764900D01*
X51108200Y69823300D01*
X51029500Y69862200D01*
X50924600Y69891400D01*
X50806500Y69901100D01*
X50688500Y69891400D01*
X50583500Y69862200D01*
X50504800Y69823300D01*
X50439200Y69764900D01*
X50413000Y69687000D01*
X49418300Y72000000D02*
Y72787000D01*
X49651900D01*
X49729800Y72747600D01*
X49788200Y72655800D01*
X49807700Y72550900D01*
X49788200Y72446000D01*
X49739500Y72367300D01*
X49651900Y72327900D01*
X49418300D01*
X50400000Y72000000D02*
Y72787000D01*
X50283200Y72629600D01*
X50283200Y72000000D02*
X50516800D01*
X50972900Y72157400D02*
X51031300Y72065600D01*
X51109100Y72013100D01*
X51196700Y72000000D01*
X51274600Y72013100D01*
X51352500Y72078700D01*
X51401100Y72157400D01*
X51410900Y72236100D01*
X51391400Y72327900D01*
X51323300Y72393500D01*
X51255100Y72419700D01*
X51167500D01*
X51255100Y72419700D02*
X51313500Y72459100D01*
X51362200Y72524700D01*
X51381700Y72603400D01*
X51362200Y72682100D01*
X51313500Y72747600D01*
X51225900Y72787000D01*
X51138300Y72773900D01*
X51050700Y72721400D01*
X50311600Y77787400D02*
Y77000000D01*
X50701000D01*
X51108700Y77656200D02*
X51167100Y77734900D01*
X51235300Y77774300D01*
X51313200Y77787400D01*
X51410500Y77761200D01*
X51478700Y77695500D01*
X51498200Y77616800D01*
X51488400Y77538000D01*
X51449500Y77472400D01*
X51254800Y77341200D01*
X51167100Y77249300D01*
X51108700Y77118100D01*
X51089200Y77000000D01*
X51498200D01*
X50620500Y81221800D02*
X50562100Y81261200D01*
X50493900Y81287400D01*
X50416000D01*
X50328400Y81248000D01*
X50260300Y81182400D01*
X50211600Y81103700D01*
X50172600Y80972400D01*
X50162900Y80854300D01*
X50182400Y80736200D01*
X50211600Y80657500D01*
X50270000Y80578700D01*
X50338100Y80526200D01*
X50406300Y80500000D01*
X50474500D01*
X50542600Y80526200D01*
X50601000Y80565600D01*
X50649700Y80618100D01*
X50979500Y80618100D02*
X51037900Y80552500D01*
X51106100Y80513100D01*
X51193700Y80500000D01*
X51281300Y80526200D01*
X51349500Y80578700D01*
X51398200Y80670600D01*
X51407900Y80775600D01*
X51388400Y80880600D01*
X51339700Y80946200D01*
X51271600Y80998700D01*
X51203400Y81011800D01*
X51135300Y80998700D01*
X51047700Y80946200D01*
X51076900Y81287400D01*
X51339700D01*
X54318300Y17700000D02*
Y18487000D01*
X54551900D01*
X54629800Y18447600D01*
X54688200Y18355800D01*
X54707700Y18250900D01*
X54688200Y18146000D01*
X54639500Y18067300D01*
X54551900Y18027900D01*
X54318300D01*
X55416800Y17700000D02*
Y18487000D01*
X55056700Y17923000D01*
X55543300D01*
X55902100Y18027900D02*
X55970200Y18119700D01*
X56028600Y18172200D01*
X56106500Y18198400D01*
X56174600Y18172200D01*
X56223300Y18119700D01*
X56262200Y18041000D01*
X56271900Y17949200D01*
X56262200Y17870500D01*
X56223300Y17791800D01*
X56164900Y17726200D01*
X56096700Y17700000D01*
X56018900Y17726200D01*
X55950700Y17804900D01*
X55911800Y17923000D01*
X55902100Y18054100D01*
X55921500Y18224700D01*
X55950700Y18316500D01*
X55999400Y18408300D01*
X56067500Y18473900D01*
X56135700Y18487000D01*
X56203800Y18460800D01*
X56252500Y18395200D01*
X53924800Y26650000D02*
Y27437000D01*
X54168200D01*
X54246000Y27397600D01*
X54294700Y27345200D01*
X54314200Y27240200D01*
X54294700Y27135300D01*
X54236300Y27069700D01*
X54168200Y27030400D01*
X53924800D01*
X54168200Y27030400D02*
X54314200Y26650000D01*
X54906500Y26650000D02*
Y27437000D01*
X54789700Y27279600D01*
X54789700Y26650000D02*
X55023300D01*
X55693500Y26650000D02*
Y27437000D01*
X55576700Y27279600D01*
X55576700Y26650000D02*
X55810300D01*
X56315000Y26741800D02*
X56383200Y26676200D01*
X56461000Y26650000D01*
X56538900Y26676200D01*
X56607000Y26754900D01*
X56655700Y26873000D01*
X56675200Y26991000D01*
Y27135300D01*
X56655700Y27253400D01*
X56607000Y27358300D01*
X56548600Y27410800D01*
X56480500Y27437000D01*
X56402600Y27410800D01*
X56344200Y27358300D01*
X56305300Y27279600D01*
X56285800Y27174700D01*
X56305300Y27082900D01*
X56354000Y26991000D01*
X56412400Y26938600D01*
X56480500Y26925400D01*
X56558400Y26951700D01*
X56616800Y27017300D01*
X56675200Y27135300D01*
X54111800Y28250000D02*
Y29037000D01*
X54345400D01*
X54423300Y28997600D01*
X54481700Y28905800D01*
X54501200Y28800900D01*
X54481700Y28696000D01*
X54433000Y28617300D01*
X54345400Y28577900D01*
X54111800D01*
X54908600Y28905800D02*
X54967000Y28984500D01*
X55035100Y29023900D01*
X55113000Y29037000D01*
X55210300Y29010800D01*
X55278400Y28945200D01*
X55297900Y28866500D01*
X55288200Y28787800D01*
X55249200Y28722200D01*
X55054600Y28591000D01*
X54967000Y28499200D01*
X54908600Y28368000D01*
X54889100Y28250000D01*
X55297900D01*
X54268300Y34750000D02*
Y35537000D01*
X54501900D01*
X54579800Y35497600D01*
X54638200Y35405800D01*
X54657700Y35300900D01*
X54638200Y35196000D01*
X54589500Y35117300D01*
X54501900Y35077900D01*
X54268300D01*
X55065100Y35405800D02*
X55123500Y35484500D01*
X55191600Y35523900D01*
X55269500Y35537000D01*
X55366800Y35510800D01*
X55434900Y35445200D01*
X55454400Y35366500D01*
X55444700Y35287800D01*
X55405700Y35222200D01*
X55211100Y35091000D01*
X55123500Y34999200D01*
X55065100Y34868000D01*
X55045600Y34750000D01*
X55454400D01*
X55822900Y34907400D02*
X55881300Y34815600D01*
X55959100Y34763100D01*
X56046700Y34750000D01*
X56124600Y34763100D01*
X56202500Y34828700D01*
X56251100Y34907400D01*
X56260900Y34986100D01*
X56241400Y35077900D01*
X56173300Y35143500D01*
X56105100Y35169700D01*
X56017500D01*
X56105100Y35169700D02*
X56163500Y35209100D01*
X56212200Y35274700D01*
X56231700Y35353400D01*
X56212200Y35432100D01*
X56163500Y35497600D01*
X56075900Y35537000D01*
X55988300Y35523900D01*
X55900700Y35471400D01*
X52115300Y38145000D02*
Y38932000D01*
X52348900D01*
X52426800Y38892600D01*
X52485200Y38800800D01*
X52504700Y38695900D01*
X52485200Y38591000D01*
X52436500Y38512300D01*
X52348900Y38472900D01*
X52115300D01*
X53097000Y38145000D02*
Y38932000D01*
X52980200Y38774600D01*
X52980200Y38145000D02*
X53213800D01*
X53884000Y38145000D02*
X53952100Y38158100D01*
X54030000Y38197500D01*
X54078700Y38263000D01*
X54098100Y38354900D01*
X54078700Y38446700D01*
X54020300Y38525400D01*
X53932700Y38564700D01*
X53835300D01*
X53776900Y38591000D01*
X53728300Y38656500D01*
X53708800Y38748400D01*
X53738000Y38840200D01*
X53806100Y38905800D01*
X53884000Y38932000D01*
X53961900Y38905800D01*
X54030000Y38840200D01*
X54059200Y38748400D01*
X54039700Y38656500D01*
X53991100Y38591000D01*
X53932700Y38564700D01*
X53835300Y38564700D02*
X53747700Y38525400D01*
X53689300Y38446700D01*
X53669900Y38354900D01*
X53689300Y38263000D01*
X53738000Y38197500D01*
X53815900Y38158100D01*
X53884000Y38145000D01*
X54850000Y60717900D02*
X54062600D01*
Y60961300D01*
X54102000Y61039200D01*
X54154500Y61087900D01*
X54259500Y61107300D01*
X54364400Y61087900D01*
X54430000Y61029400D01*
X54469400Y60961300D01*
Y60717900D01*
X54469400Y60961300D02*
X54850000Y61107300D01*
X54758200Y61534500D02*
X54823800Y61602600D01*
X54850000Y61680500D01*
X54823800Y61758400D01*
X54745000Y61826600D01*
X54626900Y61875300D01*
X54508800Y61894700D01*
X54364400D01*
X54246300Y61875300D01*
X54141300Y61826600D01*
X54088800Y61768200D01*
X54062600Y61700000D01*
X54088800Y61622100D01*
X54141300Y61563700D01*
X54220100Y61524700D01*
X54325100Y61505300D01*
X54416900Y61524700D01*
X54508800Y61573400D01*
X54561300Y61631800D01*
X54574400Y61700000D01*
X54548200Y61777900D01*
X54482600Y61836300D01*
X54364400Y61894700D01*
X54850000Y62487400D02*
X54062600D01*
X54220100Y62370600D01*
X54850000Y62370600D02*
Y62604200D01*
X55813200Y20537000D02*
X56056500Y19750000D01*
X56299800Y20537000D01*
X56843500Y19750000D02*
X56911600Y19763100D01*
X56989500Y19802500D01*
X57038200Y19868000D01*
X57057600Y19959900D01*
X57038200Y20051700D01*
X56979800Y20130400D01*
X56892200Y20169700D01*
X56794800D01*
X56736400Y20196000D01*
X56687800Y20261500D01*
X56668300Y20353400D01*
X56697500Y20445200D01*
X56765600Y20510800D01*
X56843500Y20537000D01*
X56921400Y20510800D01*
X56989500Y20445200D01*
X57018700Y20353400D01*
X56999200Y20261500D01*
X56950600Y20196000D01*
X56892200Y20169700D01*
X56794800Y20169700D02*
X56707200Y20130400D01*
X56648800Y20051700D01*
X56629400Y19959900D01*
X56648800Y19868000D01*
X56697500Y19802500D01*
X56775400Y19763100D01*
X56843500Y19750000D01*
X54961800Y33000000D02*
Y33787000D01*
X55195400D01*
X55273300Y33747600D01*
X55331700Y33655800D01*
X55351200Y33550900D01*
X55331700Y33446000D01*
X55283000Y33367300D01*
X55195400Y33327900D01*
X54961800D01*
X55924000Y33000000D02*
X55943500Y33170500D01*
X55972700Y33314800D01*
X56011600Y33446000D01*
X56060300Y33590200D01*
X56138200Y33787000D01*
X55748800D01*
X55300000Y63768300D02*
X54513000D01*
Y64011700D01*
X54552400Y64089500D01*
X54604800Y64138200D01*
X54709800Y64157700D01*
X54814700Y64138200D01*
X54880300Y64079800D01*
X54919600Y64011700D01*
Y63768300D01*
X54919600Y64011700D02*
X55300000Y64157700D01*
X55300000Y64750000D02*
X54513000D01*
X54670400Y64633200D01*
X55300000Y64633200D02*
Y64866800D01*
X55142600Y65322900D02*
X55234400Y65381300D01*
X55286900Y65459100D01*
X55300000Y65546700D01*
X55286900Y65624600D01*
X55221300Y65702500D01*
X55142600Y65751100D01*
X55063900Y65760900D01*
X54972100Y65741400D01*
X54906500Y65673300D01*
X54880300Y65605100D01*
Y65517500D01*
X54880300Y65605100D02*
X54840900Y65663500D01*
X54775300Y65712200D01*
X54696600Y65731700D01*
X54617900Y65712200D01*
X54552400Y65663500D01*
X54513000Y65575900D01*
X54526100Y65488300D01*
X54578600Y65400700D01*
X55961600Y83987400D02*
Y83200000D01*
X56351000D01*
X56778200Y83291800D02*
X56846300Y83226200D01*
X56924200Y83200000D01*
X57002100Y83226200D01*
X57070300Y83305000D01*
X57119000Y83423100D01*
X57138400Y83541200D01*
Y83685600D01*
X57119000Y83803700D01*
X57070300Y83908700D01*
X57011900Y83961200D01*
X56943700Y83987400D01*
X56865800Y83961200D01*
X56807400Y83908700D01*
X56768400Y83829900D01*
X56749000Y83724900D01*
X56768400Y83633100D01*
X56817100Y83541200D01*
X56875500Y83488700D01*
X56943700Y83475600D01*
X57021600Y83501800D01*
X57080000Y83567400D01*
X57138400Y83685600D01*
X63233100Y74321800D02*
X63174700Y74361200D01*
X63106500Y74387400D01*
X63028600D01*
X62941000Y74348000D01*
X62872900Y74282400D01*
X62824200Y74203700D01*
X62785200Y74072400D01*
X62775500Y73954300D01*
X62795000Y73836200D01*
X62824200Y73757500D01*
X62882600Y73678700D01*
X62950700Y73626200D01*
X63018900Y73600000D01*
X63087100D01*
X63155200Y73626200D01*
X63213600Y73665600D01*
X63262300Y73718100D01*
X63806300Y73600000D02*
Y74387400D01*
X63689500Y74229900D01*
X63689500Y73600000D02*
X63923100D01*
X64408700Y73928100D02*
X64476900Y74020000D01*
X64535300Y74072400D01*
X64613200Y74098700D01*
X64681300Y74072400D01*
X64730000Y74020000D01*
X64769000Y73941200D01*
X64778700Y73849300D01*
X64769000Y73770600D01*
X64730000Y73691800D01*
X64671600Y73626200D01*
X64603400Y73600000D01*
X64525500Y73626200D01*
X64457400Y73705000D01*
X64418400Y73823100D01*
X64408700Y73954300D01*
X64428200Y74124900D01*
X64457400Y74216800D01*
X64506100Y74308700D01*
X64574200Y74374300D01*
X64642400Y74387400D01*
X64710500Y74361200D01*
X64759200Y74295500D01*
X65361600Y73600000D02*
X65381100Y73770600D01*
X65410300Y73914900D01*
X65449300Y74046200D01*
X65497900Y74190500D01*
X65575800Y74387400D01*
X65186400D01*
X63424200Y82150000D02*
Y82937400D01*
X63667600D01*
X63745500Y82898000D01*
X63794200Y82845500D01*
X63813600Y82740500D01*
X63794200Y82635600D01*
X63735700Y82570000D01*
X63667600Y82530600D01*
X63424200D01*
X63667600Y82530600D02*
X63813600Y82150000D01*
X64406300Y82150000D02*
Y82937400D01*
X64289500Y82779900D01*
X64289500Y82150000D02*
X64523100D01*
X65028200Y82241800D02*
X65096300Y82176200D01*
X65174200Y82150000D01*
X65252100Y82176200D01*
X65320300Y82255000D01*
X65369000Y82373100D01*
X65388400Y82491200D01*
Y82635600D01*
X65369000Y82753700D01*
X65320300Y82858700D01*
X65261900Y82911200D01*
X65193700Y82937400D01*
X65115800Y82911200D01*
X65057400Y82858700D01*
X65018400Y82779900D01*
X64999000Y82674900D01*
X65018400Y82583100D01*
X65067100Y82491200D01*
X65125500Y82438700D01*
X65193700Y82425600D01*
X65271600Y82451800D01*
X65330000Y82517400D01*
X65388400Y82635600D01*
X65766900Y82268100D02*
X65825300Y82202500D01*
X65893500Y82163100D01*
X65981100Y82150000D01*
X66068700Y82176200D01*
X66136900Y82228700D01*
X66185600Y82320600D01*
X66195300Y82425600D01*
X66175800Y82530600D01*
X66127100Y82596200D01*
X66059000Y82648700D01*
X65990800Y82661800D01*
X65922700Y82648700D01*
X65835100Y82596200D01*
X65864300Y82937400D01*
X66127100D01*
X67307100Y74313800D02*
X67248700Y74353200D01*
X67180500Y74379400D01*
X67102600D01*
X67015000Y74340000D01*
X66946900Y74274400D01*
X66898200Y74195700D01*
X66859200Y74064400D01*
X66849500Y73946300D01*
X66869000Y73828200D01*
X66898200Y73749500D01*
X66956600Y73670700D01*
X67024700Y73618200D01*
X67092900Y73592000D01*
X67161100D01*
X67229200Y73618200D01*
X67287600Y73657600D01*
X67336300Y73710100D01*
X67880300Y73592000D02*
Y74379400D01*
X67763500Y74221900D01*
X67763500Y73592000D02*
X67997100D01*
X68482700Y73920100D02*
X68550900Y74012000D01*
X68609300Y74064400D01*
X68687200Y74090700D01*
X68755300Y74064400D01*
X68804000Y74012000D01*
X68843000Y73933200D01*
X68852700Y73841300D01*
X68843000Y73762600D01*
X68804000Y73683800D01*
X68745600Y73618200D01*
X68677400Y73592000D01*
X68599500Y73618200D01*
X68531400Y73697000D01*
X68492400Y73815100D01*
X68482700Y73946300D01*
X68502200Y74116900D01*
X68531400Y74208800D01*
X68580100Y74300700D01*
X68648200Y74366300D01*
X68716400Y74379400D01*
X68784500Y74353200D01*
X68833200Y74287500D01*
X69240900Y73710100D02*
X69299300Y73644500D01*
X69367500Y73605100D01*
X69455100Y73592000D01*
X69542700Y73618200D01*
X69610900Y73670700D01*
X69659600Y73762600D01*
X69669300Y73867600D01*
X69649800Y73972600D01*
X69601100Y74038200D01*
X69533000Y74090700D01*
X69464800Y74103800D01*
X69396700Y74090700D01*
X69309100Y74038200D01*
X69338300Y74379400D01*
X69601100D01*
X69173300Y11800000D02*
Y12587000D01*
X68813200Y12023000D01*
X69299800D01*
X69843500Y12587000D02*
X69765600Y12560800D01*
X69707200Y12495200D01*
X69668300Y12416500D01*
X69639100Y12311500D01*
X69629400Y12193500D01*
X69639100Y12075400D01*
X69668300Y11970500D01*
X69707200Y11891800D01*
X69765600Y11826200D01*
X69843500Y11800000D01*
X69921400Y11826200D01*
X69979800Y11891800D01*
X70018700Y11970500D01*
X70047900Y12075400D01*
X70057600Y12193500D01*
X70047900Y12311500D01*
X70018700Y12416500D01*
X69979800Y12495200D01*
X69921400Y12560800D01*
X69843500Y12587000D01*
X71974200Y39200000D02*
Y39987400D01*
X72217600D01*
X72295500Y39948000D01*
X72344200Y39895500D01*
X72363600Y39790500D01*
X72344200Y39685600D01*
X72285700Y39620000D01*
X72217600Y39580600D01*
X71974200D01*
X72217600Y39580600D02*
X72363600Y39200000D01*
X72956300Y39200000D02*
Y39987400D01*
X72839500Y39829900D01*
X72839500Y39200000D02*
X73073100D01*
X73529500Y39318100D02*
X73587900Y39252500D01*
X73656100Y39213100D01*
X73743700Y39200000D01*
X73831300Y39226200D01*
X73899500Y39278700D01*
X73948200Y39370600D01*
X73957900Y39475600D01*
X73938400Y39580600D01*
X73889700Y39646200D01*
X73821600Y39698700D01*
X73753400Y39711800D01*
X73685300Y39698700D01*
X73597700Y39646200D01*
X73626900Y39987400D01*
X73889700D01*
X74647900Y39200000D02*
Y39987400D01*
X74287700Y39423100D01*
X74774500D01*
X75683100Y39971800D02*
X75624700Y40011200D01*
X75556500Y40037400D01*
X75478600D01*
X75391000Y39998000D01*
X75322900Y39932400D01*
X75274200Y39853700D01*
X75235200Y39722400D01*
X75225500Y39604300D01*
X75245000Y39486200D01*
X75274200Y39407500D01*
X75332600Y39328700D01*
X75400700Y39276200D01*
X75468900Y39250000D01*
X75537100D01*
X75605200Y39276200D01*
X75663600Y39315600D01*
X75712300Y39368100D01*
X76256300Y39250000D02*
Y40037400D01*
X76139500Y39879900D01*
X76139500Y39250000D02*
X76373100D01*
X76858700Y39906200D02*
X76917100Y39984900D01*
X76985300Y40024300D01*
X77063200Y40037400D01*
X77160500Y40011200D01*
X77228700Y39945500D01*
X77248200Y39866800D01*
X77238400Y39788000D01*
X77199500Y39722400D01*
X77004800Y39591200D01*
X76917100Y39499300D01*
X76858700Y39368100D01*
X76839200Y39250000D01*
X77248200D01*
X77665600Y39341800D02*
X77733700Y39276200D01*
X77811600Y39250000D01*
X77889500Y39276200D01*
X77957700Y39355000D01*
X78006400Y39473100D01*
X78025800Y39591200D01*
Y39735600D01*
X78006400Y39853700D01*
X77957700Y39958700D01*
X77899300Y40011200D01*
X77831100Y40037400D01*
X77753200Y40011200D01*
X77694800Y39958700D01*
X77655800Y39879900D01*
X77636400Y39774900D01*
X77655800Y39683100D01*
X77704500Y39591200D01*
X77762900Y39538700D01*
X77831100Y39525600D01*
X77909000Y39551800D01*
X77967400Y39617400D01*
X78025800Y39735600D01*
X75311600Y84037400D02*
Y83250000D01*
X75701000D01*
X76293700Y83250000D02*
X76361900Y83263100D01*
X76439700Y83302500D01*
X76488400Y83368100D01*
X76507900Y83460000D01*
X76488400Y83551800D01*
X76430000Y83630600D01*
X76342400Y83670000D01*
X76245000D01*
X76186600Y83696200D01*
X76137900Y83761800D01*
X76118400Y83853700D01*
X76147700Y83945500D01*
X76215800Y84011200D01*
X76293700Y84037400D01*
X76371600Y84011200D01*
X76439700Y83945500D01*
X76469000Y83853700D01*
X76449500Y83761800D01*
X76400800Y83696200D01*
X76342400Y83670000D01*
X76245000Y83670000D02*
X76157400Y83630600D01*
X76099000Y83551800D01*
X76079500Y83460000D01*
X76099000Y83368100D01*
X76147700Y83302500D01*
X76225500Y83263100D01*
X76293700Y83250000D01*
X81383100Y25771800D02*
X81324700Y25811200D01*
X81256500Y25837400D01*
X81178600D01*
X81091000Y25798000D01*
X81022900Y25732400D01*
X80974200Y25653700D01*
X80935200Y25522400D01*
X80925500Y25404300D01*
X80945000Y25286200D01*
X80974200Y25207500D01*
X81032600Y25128700D01*
X81100700Y25076200D01*
X81168900Y25050000D01*
X81237100D01*
X81305200Y25076200D01*
X81363600Y25115600D01*
X81412300Y25168100D01*
X81956300Y25050000D02*
Y25837400D01*
X81839500Y25679900D01*
X81839500Y25050000D02*
X82073100D01*
X82529500Y25207500D02*
X82587900Y25115600D01*
X82665800Y25063100D01*
X82753400Y25050000D01*
X82831300Y25063100D01*
X82909200Y25128700D01*
X82957900Y25207500D01*
X82967600Y25286200D01*
X82948200Y25378100D01*
X82880000Y25443700D01*
X82811900Y25470000D01*
X82724200D01*
X82811900Y25470000D02*
X82870300Y25509300D01*
X82919000Y25574900D01*
X82938400Y25653700D01*
X82919000Y25732400D01*
X82870300Y25798000D01*
X82782600Y25837400D01*
X82695000Y25824300D01*
X82607400Y25771800D01*
X83531100Y25837400D02*
X83453200Y25811200D01*
X83394800Y25745500D01*
X83355800Y25666800D01*
X83326600Y25561800D01*
X83316900Y25443700D01*
X83326600Y25325600D01*
X83355800Y25220600D01*
X83394800Y25141800D01*
X83453200Y25076200D01*
X83531100Y25050000D01*
X83609000Y25076200D01*
X83667400Y25141800D01*
X83706400Y25220600D01*
X83735600Y25325600D01*
X83745300Y25443700D01*
X83735600Y25561800D01*
X83706400Y25666800D01*
X83667400Y25745500D01*
X83609000Y25811200D01*
X83531100Y25837400D01*
X81883100Y16471800D02*
X81824700Y16511200D01*
X81756500Y16537400D01*
X81678600D01*
X81591000Y16498000D01*
X81522900Y16432400D01*
X81474200Y16353700D01*
X81435200Y16222400D01*
X81425500Y16104300D01*
X81445000Y15986200D01*
X81474200Y15907500D01*
X81532600Y15828700D01*
X81600700Y15776200D01*
X81668900Y15750000D01*
X81737100D01*
X81805200Y15776200D01*
X81863600Y15815600D01*
X81912300Y15868100D01*
X82456300Y15750000D02*
Y16537400D01*
X82339500Y16379900D01*
X82339500Y15750000D02*
X82573100D01*
X83029500Y15907500D02*
X83087900Y15815600D01*
X83165800Y15763100D01*
X83253400Y15750000D01*
X83331300Y15763100D01*
X83409200Y15828700D01*
X83457900Y15907500D01*
X83467600Y15986200D01*
X83448200Y16078100D01*
X83380000Y16143700D01*
X83311900Y16170000D01*
X83224200D01*
X83311900Y16170000D02*
X83370300Y16209300D01*
X83419000Y16274900D01*
X83438400Y16353700D01*
X83419000Y16432400D01*
X83370300Y16498000D01*
X83282600Y16537400D01*
X83195000Y16524300D01*
X83107400Y16471800D01*
X84031100Y15750000D02*
Y16537400D01*
X83914300Y16379900D01*
X83914300Y15750000D02*
X84147900D01*
X82224200Y36850000D02*
Y37637400D01*
X82467600D01*
X82545500Y37598000D01*
X82594200Y37545500D01*
X82613600Y37440500D01*
X82594200Y37335600D01*
X82535700Y37270000D01*
X82467600Y37230600D01*
X82224200D01*
X82467600Y37230600D02*
X82613600Y36850000D01*
X83206300Y36850000D02*
Y37637400D01*
X83089500Y37479900D01*
X83089500Y36850000D02*
X83323100D01*
X84110500Y36850000D02*
Y37637400D01*
X83750300Y37073100D01*
X84237100D01*
X84781100Y36850000D02*
X84849300Y36863100D01*
X84927100Y36902500D01*
X84975800Y36968100D01*
X84995300Y37060000D01*
X84975800Y37151800D01*
X84917400Y37230600D01*
X84829800Y37270000D01*
X84732400D01*
X84674000Y37296200D01*
X84625300Y37361800D01*
X84605800Y37453700D01*
X84635100Y37545500D01*
X84703200Y37611200D01*
X84781100Y37637400D01*
X84859000Y37611200D01*
X84927100Y37545500D01*
X84956400Y37453700D01*
X84936900Y37361800D01*
X84888200Y37296200D01*
X84829800Y37270000D01*
X84732400Y37270000D02*
X84644800Y37230600D01*
X84586400Y37151800D01*
X84566900Y37060000D01*
X84586400Y36968100D01*
X84635100Y36902500D01*
X84712900Y36863100D01*
X84781100Y36850000D01*
X82833100Y73121800D02*
X82774700Y73161200D01*
X82706500Y73187400D01*
X82628600D01*
X82541000Y73148000D01*
X82472900Y73082400D01*
X82424200Y73003700D01*
X82385200Y72872400D01*
X82375500Y72754300D01*
X82395000Y72636200D01*
X82424200Y72557500D01*
X82482600Y72478700D01*
X82550700Y72426200D01*
X82618900Y72400000D01*
X82687100D01*
X82755200Y72426200D01*
X82813600Y72465600D01*
X82862300Y72518100D01*
X83406300Y72400000D02*
Y73187400D01*
X83289500Y73029900D01*
X83289500Y72400000D02*
X83523100D01*
X84008700Y72728100D02*
X84076900Y72820000D01*
X84135300Y72872400D01*
X84213200Y72898700D01*
X84281300Y72872400D01*
X84330000Y72820000D01*
X84369000Y72741200D01*
X84378700Y72649300D01*
X84369000Y72570600D01*
X84330000Y72491800D01*
X84271600Y72426200D01*
X84203400Y72400000D01*
X84125500Y72426200D01*
X84057400Y72505000D01*
X84018400Y72623100D01*
X84008700Y72754300D01*
X84028200Y72924900D01*
X84057400Y73016800D01*
X84106100Y73108700D01*
X84174200Y73174300D01*
X84242400Y73187400D01*
X84310500Y73161200D01*
X84359200Y73095500D01*
X85097900Y72400000D02*
Y73187400D01*
X84737700Y72623100D01*
X85224500D01*
X82224200Y80600000D02*
Y81387400D01*
X82467600D01*
X82545500Y81348000D01*
X82594200Y81295500D01*
X82613600Y81190500D01*
X82594200Y81085600D01*
X82535700Y81020000D01*
X82467600Y80980600D01*
X82224200D01*
X82467600Y80980600D02*
X82613600Y80600000D01*
X83206300Y80600000D02*
Y81387400D01*
X83089500Y81229900D01*
X83089500Y80600000D02*
X83323100D01*
X83828200Y80691800D02*
X83896300Y80626200D01*
X83974200Y80600000D01*
X84052100Y80626200D01*
X84120300Y80705000D01*
X84169000Y80823100D01*
X84188400Y80941200D01*
Y81085600D01*
X84169000Y81203700D01*
X84120300Y81308700D01*
X84061900Y81361200D01*
X83993700Y81387400D01*
X83915800Y81361200D01*
X83857400Y81308700D01*
X83818400Y81229900D01*
X83799000Y81124900D01*
X83818400Y81033100D01*
X83867100Y80941200D01*
X83925500Y80888700D01*
X83993700Y80875600D01*
X84071600Y80901800D01*
X84130000Y80967400D01*
X84188400Y81085600D01*
X84897900Y80600000D02*
Y81387400D01*
X84537700Y80823100D01*
X85024500D01*
X88274200Y43200000D02*
Y43987400D01*
X88517600D01*
X88595500Y43948000D01*
X88644200Y43895500D01*
X88663600Y43790500D01*
X88644200Y43685600D01*
X88585700Y43620000D01*
X88517600Y43580600D01*
X88274200D01*
X88517600Y43580600D02*
X88663600Y43200000D01*
X89256300Y43200000D02*
Y43987400D01*
X89139500Y43829900D01*
X89139500Y43200000D02*
X89373100D01*
X90043700Y43987400D02*
X89965800Y43961200D01*
X89907400Y43895500D01*
X89868400Y43816800D01*
X89839200Y43711800D01*
X89829500Y43593700D01*
X89839200Y43475600D01*
X89868400Y43370600D01*
X89907400Y43291800D01*
X89965800Y43226200D01*
X90043700Y43200000D01*
X90121600Y43226200D01*
X90180000Y43291800D01*
X90219000Y43370600D01*
X90248200Y43475600D01*
X90257900Y43593700D01*
X90248200Y43711800D01*
X90219000Y43816800D01*
X90180000Y43895500D01*
X90121600Y43961200D01*
X90043700Y43987400D01*
X90831100Y43200000D02*
Y43987400D01*
X90714300Y43829900D01*
X90714300Y43200000D02*
X90947900D01*
X88683100Y78671800D02*
X88624700Y78711200D01*
X88556500Y78737400D01*
X88478600D01*
X88391000Y78698000D01*
X88322900Y78632400D01*
X88274200Y78553700D01*
X88235200Y78422400D01*
X88225500Y78304300D01*
X88245000Y78186200D01*
X88274200Y78107500D01*
X88332600Y78028700D01*
X88400700Y77976200D01*
X88468900Y77950000D01*
X88537100D01*
X88605200Y77976200D01*
X88663600Y78015600D01*
X88712300Y78068100D01*
X89256300Y77950000D02*
Y78737400D01*
X89139500Y78579900D01*
X89139500Y77950000D02*
X89373100D01*
X89858700Y78278100D02*
X89926900Y78370000D01*
X89985300Y78422400D01*
X90063200Y78448700D01*
X90131300Y78422400D01*
X90180000Y78370000D01*
X90219000Y78291200D01*
X90228700Y78199300D01*
X90219000Y78120600D01*
X90180000Y78041800D01*
X90121600Y77976200D01*
X90053400Y77950000D01*
X89975500Y77976200D01*
X89907400Y78055000D01*
X89868400Y78173100D01*
X89858700Y78304300D01*
X89878200Y78474900D01*
X89907400Y78566800D01*
X89956100Y78658700D01*
X90024200Y78724300D01*
X90092400Y78737400D01*
X90160500Y78711200D01*
X90209200Y78645500D01*
X90646100Y78278100D02*
X90714300Y78370000D01*
X90772700Y78422400D01*
X90850600Y78448700D01*
X90918700Y78422400D01*
X90967400Y78370000D01*
X91006400Y78291200D01*
X91016100Y78199300D01*
X91006400Y78120600D01*
X90967400Y78041800D01*
X90909000Y77976200D01*
X90840800Y77950000D01*
X90762900Y77976200D01*
X90694800Y78055000D01*
X90655800Y78173100D01*
X90646100Y78304300D01*
X90665600Y78474900D01*
X90694800Y78566800D01*
X90743500Y78658700D01*
X90811600Y78724300D01*
X90879800Y78737400D01*
X90947900Y78711200D01*
X90996600Y78645500D01*
X91024200Y46050000D02*
Y46837400D01*
X91267600D01*
X91345500Y46798000D01*
X91394200Y46745500D01*
X91413600Y46640500D01*
X91394200Y46535600D01*
X91335700Y46470000D01*
X91267600Y46430600D01*
X91024200D01*
X91267600Y46430600D02*
X91413600Y46050000D01*
X92006300Y46050000D02*
Y46837400D01*
X91889500Y46679900D01*
X91889500Y46050000D02*
X92123100D01*
X92793700Y46837400D02*
X92715800Y46811200D01*
X92657400Y46745500D01*
X92618400Y46666800D01*
X92589200Y46561800D01*
X92579500Y46443700D01*
X92589200Y46325600D01*
X92618400Y46220600D01*
X92657400Y46141800D01*
X92715800Y46076200D01*
X92793700Y46050000D01*
X92871600Y46076200D01*
X92930000Y46141800D01*
X92969000Y46220600D01*
X92998200Y46325600D01*
X93007900Y46443700D01*
X92998200Y46561800D01*
X92969000Y46666800D01*
X92930000Y46745500D01*
X92871600Y46811200D01*
X92793700Y46837400D01*
X93561600Y46050000D02*
X93581100Y46220600D01*
X93610300Y46364900D01*
X93649300Y46496200D01*
X93697900Y46640500D01*
X93775800Y46837400D01*
X93386400D01*
X90924200Y49400000D02*
Y50187400D01*
X91167600D01*
X91245500Y50148000D01*
X91294200Y50095500D01*
X91313600Y49990500D01*
X91294200Y49885600D01*
X91235700Y49820000D01*
X91167600Y49780600D01*
X90924200D01*
X91167600Y49780600D02*
X91313600Y49400000D01*
X91906300Y49400000D02*
Y50187400D01*
X91789500Y50029900D01*
X91789500Y49400000D02*
X92023100D01*
X92693700Y50187400D02*
X92615800Y50161200D01*
X92557400Y50095500D01*
X92518400Y50016800D01*
X92489200Y49911800D01*
X92479500Y49793700D01*
X92489200Y49675600D01*
X92518400Y49570600D01*
X92557400Y49491800D01*
X92615800Y49426200D01*
X92693700Y49400000D01*
X92771600Y49426200D01*
X92830000Y49491800D01*
X92869000Y49570600D01*
X92898200Y49675600D01*
X92907900Y49793700D01*
X92898200Y49911800D01*
X92869000Y50016800D01*
X92830000Y50095500D01*
X92771600Y50161200D01*
X92693700Y50187400D01*
X93296100Y49728100D02*
X93364300Y49820000D01*
X93422700Y49872400D01*
X93500600Y49898700D01*
X93568700Y49872400D01*
X93617400Y49820000D01*
X93656400Y49741200D01*
X93666100Y49649300D01*
X93656400Y49570600D01*
X93617400Y49491800D01*
X93559000Y49426200D01*
X93490800Y49400000D01*
X93412900Y49426200D01*
X93344800Y49505000D01*
X93305800Y49623100D01*
X93296100Y49754300D01*
X93315600Y49924900D01*
X93344800Y50016800D01*
X93393500Y50108700D01*
X93461600Y50174300D01*
X93529800Y50187400D01*
X93597900Y50161200D01*
X93646600Y50095500D01*
X90974200Y51050000D02*
Y51837400D01*
X91217600D01*
X91295500Y51798000D01*
X91344200Y51745500D01*
X91363600Y51640500D01*
X91344200Y51535600D01*
X91285700Y51470000D01*
X91217600Y51430600D01*
X90974200D01*
X91217600Y51430600D02*
X91363600Y51050000D01*
X91956300Y51050000D02*
Y51837400D01*
X91839500Y51679900D01*
X91839500Y51050000D02*
X92073100D01*
X92743700Y51837400D02*
X92665800Y51811200D01*
X92607400Y51745500D01*
X92568400Y51666800D01*
X92539200Y51561800D01*
X92529500Y51443700D01*
X92539200Y51325600D01*
X92568400Y51220600D01*
X92607400Y51141800D01*
X92665800Y51076200D01*
X92743700Y51050000D01*
X92821600Y51076200D01*
X92880000Y51141800D01*
X92919000Y51220600D01*
X92948200Y51325600D01*
X92957900Y51443700D01*
X92948200Y51561800D01*
X92919000Y51666800D01*
X92880000Y51745500D01*
X92821600Y51811200D01*
X92743700Y51837400D01*
X93316900Y51207500D02*
X93375300Y51115600D01*
X93453200Y51063100D01*
X93540800Y51050000D01*
X93618700Y51063100D01*
X93696600Y51128700D01*
X93745300Y51207500D01*
X93755000Y51286200D01*
X93735600Y51378100D01*
X93667400Y51443700D01*
X93599300Y51470000D01*
X93511600D01*
X93599300Y51470000D02*
X93657700Y51509300D01*
X93706400Y51574900D01*
X93725800Y51653700D01*
X93706400Y51732400D01*
X93657700Y51798000D01*
X93570000Y51837400D01*
X93482400Y51824300D01*
X93394800Y51771800D01*
X90974200Y61550000D02*
Y62337400D01*
X91217600D01*
X91295500Y62298000D01*
X91344200Y62245500D01*
X91363600Y62140500D01*
X91344200Y62035600D01*
X91285700Y61970000D01*
X91217600Y61930600D01*
X90974200D01*
X91217600Y61930600D02*
X91363600Y61550000D01*
X91956300Y61550000D02*
Y62337400D01*
X91839500Y62179900D01*
X91839500Y61550000D02*
X92073100D01*
X92743700Y62337400D02*
X92665800Y62311200D01*
X92607400Y62245500D01*
X92568400Y62166800D01*
X92539200Y62061800D01*
X92529500Y61943700D01*
X92539200Y61825600D01*
X92568400Y61720600D01*
X92607400Y61641800D01*
X92665800Y61576200D01*
X92743700Y61550000D01*
X92821600Y61576200D01*
X92880000Y61641800D01*
X92919000Y61720600D01*
X92948200Y61825600D01*
X92957900Y61943700D01*
X92948200Y62061800D01*
X92919000Y62166800D01*
X92880000Y62245500D01*
X92821600Y62311200D01*
X92743700Y62337400D01*
X93531100Y62337400D02*
X93453200Y62311200D01*
X93394800Y62245500D01*
X93355800Y62166800D01*
X93326600Y62061800D01*
X93316900Y61943700D01*
X93326600Y61825600D01*
X93355800Y61720600D01*
X93394800Y61641800D01*
X93453200Y61576200D01*
X93531100Y61550000D01*
X93609000Y61576200D01*
X93667400Y61641800D01*
X93706400Y61720600D01*
X93735600Y61825600D01*
X93745300Y61943700D01*
X93735600Y62061800D01*
X93706400Y62166800D01*
X93667400Y62245500D01*
X93609000Y62311200D01*
X93531100Y62337400D01*
X90974200Y63250000D02*
Y64037400D01*
X91217600D01*
X91295500Y63998000D01*
X91344200Y63945500D01*
X91363600Y63840500D01*
X91344200Y63735600D01*
X91285700Y63670000D01*
X91217600Y63630600D01*
X90974200D01*
X91217600Y63630600D02*
X91363600Y63250000D01*
X91956300Y63250000D02*
Y64037400D01*
X91839500Y63879900D01*
X91839500Y63250000D02*
X92073100D01*
X92743700Y64037400D02*
X92665800Y64011200D01*
X92607400Y63945500D01*
X92568400Y63866800D01*
X92539200Y63761800D01*
X92529500Y63643700D01*
X92539200Y63525600D01*
X92568400Y63420600D01*
X92607400Y63341800D01*
X92665800Y63276200D01*
X92743700Y63250000D01*
X92821600Y63276200D01*
X92880000Y63341800D01*
X92919000Y63420600D01*
X92948200Y63525600D01*
X92957900Y63643700D01*
X92948200Y63761800D01*
X92919000Y63866800D01*
X92880000Y63945500D01*
X92821600Y64011200D01*
X92743700Y64037400D01*
X93316900Y63368100D02*
X93375300Y63302500D01*
X93443500Y63263100D01*
X93531100Y63250000D01*
X93618700Y63276200D01*
X93686900Y63328700D01*
X93735600Y63420600D01*
X93745300Y63525600D01*
X93725800Y63630600D01*
X93677100Y63696200D01*
X93609000Y63748700D01*
X93540800Y63761800D01*
X93472700Y63748700D01*
X93385100Y63696200D01*
X93414300Y64037400D01*
X93677100D01*
X90924200Y66550000D02*
Y67337400D01*
X91167600D01*
X91245500Y67298000D01*
X91294200Y67245500D01*
X91313600Y67140500D01*
X91294200Y67035600D01*
X91235700Y66970000D01*
X91167600Y66930600D01*
X90924200D01*
X91167600Y66930600D02*
X91313600Y66550000D01*
X91906300Y66550000D02*
Y67337400D01*
X91789500Y67179900D01*
X91789500Y66550000D02*
X92023100D01*
X92693700Y67337400D02*
X92615800Y67311200D01*
X92557400Y67245500D01*
X92518400Y67166800D01*
X92489200Y67061800D01*
X92479500Y66943700D01*
X92489200Y66825600D01*
X92518400Y66720600D01*
X92557400Y66641800D01*
X92615800Y66576200D01*
X92693700Y66550000D01*
X92771600Y66576200D01*
X92830000Y66641800D01*
X92869000Y66720600D01*
X92898200Y66825600D01*
X92907900Y66943700D01*
X92898200Y67061800D01*
X92869000Y67166800D01*
X92830000Y67245500D01*
X92771600Y67311200D01*
X92693700Y67337400D01*
X93597900Y66550000D02*
Y67337400D01*
X93237700Y66773100D01*
X93724500D01*
X90924200Y68200000D02*
Y68987400D01*
X91167600D01*
X91245500Y68948000D01*
X91294200Y68895500D01*
X91313600Y68790500D01*
X91294200Y68685600D01*
X91235700Y68620000D01*
X91167600Y68580600D01*
X90924200D01*
X91167600Y68580600D02*
X91313600Y68200000D01*
X91906300Y68200000D02*
Y68987400D01*
X91789500Y68829900D01*
X91789500Y68200000D02*
X92023100D01*
X92693700Y68987400D02*
X92615800Y68961200D01*
X92557400Y68895500D01*
X92518400Y68816800D01*
X92489200Y68711800D01*
X92479500Y68593700D01*
X92489200Y68475600D01*
X92518400Y68370600D01*
X92557400Y68291800D01*
X92615800Y68226200D01*
X92693700Y68200000D01*
X92771600Y68226200D01*
X92830000Y68291800D01*
X92869000Y68370600D01*
X92898200Y68475600D01*
X92907900Y68593700D01*
X92898200Y68711800D01*
X92869000Y68816800D01*
X92830000Y68895500D01*
X92771600Y68961200D01*
X92693700Y68987400D01*
X93296100Y68856200D02*
X93354500Y68934900D01*
X93422700Y68974300D01*
X93500600Y68987400D01*
X93597900Y68961200D01*
X93666100Y68895500D01*
X93685600Y68816800D01*
X93675800Y68738000D01*
X93636900Y68672400D01*
X93442200Y68541200D01*
X93354500Y68449300D01*
X93296100Y68318100D01*
X93276600Y68200000D01*
X93685600D01*
X6347000Y56640800D02*
Y45879000D01*
X7162000Y66908000D02*
X5638000D01*
X7162000Y72408000D02*
X5638000D01*
X6947000Y45279000D02*
X12466300D01*
X12145500Y58279000D02*
X6947000D01*
X10662000Y66908000D02*
X9138000D01*
X10662000Y72408000D02*
X9138000D01*
X16374600Y10085500D02*
X13674500D01*
Y7037500D01*
X13835500D01*
X13357000Y23957900D02*
Y16499000D01*
X18122500D01*
X13357000Y27649800D02*
Y26152800D01*
X13357000Y29582300D02*
Y28948200D01*
X13357000Y33751600D02*
Y30875700D01*
X13327700Y45279000D02*
X16247000D01*
X13754100Y58279000D02*
X13298500D01*
X14059000Y66937000D02*
X12535000D01*
X14059000Y72437000D02*
X12535000D01*
X13450000Y78803900D02*
Y79200000D01*
X15638800Y76150000D02*
X14700000D01*
Y78100000D01*
X13784000D01*
X13450000Y82200000D02*
Y83300000D01*
X14783500Y7037500D02*
X18754500D01*
Y7752800D01*
X17610300Y35549000D02*
X14627000D01*
X16747000Y58279000D02*
X14864900D01*
X19400000Y76150000D02*
X16861200D01*
X17625300Y10085500D02*
X17324400D01*
X18754500Y8325200D02*
Y10085500D01*
X18574700D01*
X19371500Y16499000D02*
X26057000D01*
Y16823100D01*
X17347000Y46429000D02*
Y49857500D01*
X17347000Y51085300D02*
Y54331400D01*
X17347000Y55426600D02*
Y57679000D01*
X21881300Y35549000D02*
X20397900D01*
X20790000Y76150000D02*
X20100000D01*
X22307000Y76150000D02*
X21710000D01*
X22700000Y4200000D02*
Y5300000D01*
X24400000Y9546400D02*
Y11400000D01*
X32600000D01*
Y9400000D01*
X34300000D01*
Y8300000D01*
X22700000Y8300000D02*
Y9400000D01*
X23749200D01*
X26057000Y35288700D02*
Y35549000D01*
X23012700D01*
X23192000Y42407000D02*
X40294600D01*
X22542000Y52320700D02*
Y43007000D01*
X22542000Y56807900D02*
Y53337300D01*
X22542000Y68257000D02*
Y57650100D01*
X25422900Y69407000D02*
X23692000D01*
X25530300Y76150000D02*
X23193000D01*
X26057000Y18631800D02*
Y20468900D01*
X26057000Y17674900D02*
Y17826200D01*
X26057000Y24108800D02*
Y24623100D01*
X26057000Y22075500D02*
Y22419200D01*
X26057000Y26430400D02*
Y28653100D01*
X26057000Y31858700D02*
Y33143800D01*
X26057000Y29975100D02*
Y31239300D01*
X26057000Y34014200D02*
Y34669300D01*
X26787900Y69407000D02*
X26371100D01*
X26713400Y76150000D02*
X25969700D01*
X28522400Y69407000D02*
X27736100D01*
X48942000Y69407000D02*
X29471600D01*
X30913400Y76150000D02*
X28723800D01*
X32797000Y21208000D02*
Y20550000D01*
X32797000Y26123000D02*
Y21850000D01*
X32797000Y30908000D02*
Y26635000D01*
X32797000Y35829000D02*
Y31550000D01*
X32851500Y73063300D02*
Y72569500D01*
X37397300Y76150000D02*
X32724600D01*
X34300000Y5300000D02*
Y4200000D01*
X33397000Y19429000D02*
X38296400D01*
X36499400Y36429000D02*
X33397000D01*
X37506800Y36429000D02*
X37400600D01*
X40300000Y76150000D02*
X38102700D01*
X39197600Y19429000D02*
X40532700D01*
X43666300Y36429000D02*
X38434600D01*
X40399400Y42407000D02*
X43173200D01*
X39201500Y73000200D02*
Y72569500D01*
X41550000Y78504100D02*
Y78100000D01*
X40300000D01*
Y77111100D01*
X43715100Y19429000D02*
X45952800D01*
X41461300Y19429000D02*
X42978900D01*
X43472600Y42407000D02*
X48942000D01*
X46163200Y19429000D02*
X49197000D01*
X46428900Y36429000D02*
X45165100D01*
X44694500Y74624000D02*
Y74474000D01*
X47494500D01*
Y74624000D01*
X44694500Y77169100D02*
Y76878900D01*
X47494500Y79424000D02*
Y79624000D01*
X44694500D01*
Y79424000D01*
X48250000Y4200000D02*
Y5300000D01*
X48250000Y8300000D02*
Y9400000D01*
X49550000D01*
Y11350000D01*
X64078700D01*
X48647000Y36429000D02*
X47165100D01*
X47494500Y77169100D02*
Y76878900D01*
X49797000Y20029000D02*
Y20456700D01*
X49797000Y21797100D02*
Y23498300D01*
X49797000Y26193300D02*
Y27716900D01*
X49797000Y24359700D02*
Y25264700D01*
X49797000Y31882800D02*
Y32025200D01*
X49797000Y29859700D02*
Y30064700D01*
X49797000Y32832800D02*
Y34098300D01*
X49797000Y34959700D02*
Y35279000D01*
X49542000Y43007000D02*
Y52747000D01*
X49542000Y53628000D02*
Y63431500D01*
X49542000Y63703500D02*
Y68807000D01*
X56900800Y75109500D02*
X52981000D01*
Y76252500D01*
X52981000Y80570500D02*
Y81713500D01*
X59818500D01*
X55037000Y21084000D02*
Y20884000D01*
X56833900D01*
X55037000Y23338900D02*
Y23629100D01*
X56851000Y26034000D02*
X55037000D01*
Y25884000D01*
X57837000Y20884000D02*
Y21084000D01*
X57837000Y23338900D02*
Y23629100D01*
X60093000Y76252500D02*
Y75109500D01*
X58193200D01*
X62079500Y53152000D02*
Y42352000D01*
X62079500Y69979500D02*
Y59179500D01*
X64671000Y20399000D02*
X64856100Y20213900D01*
X64150000Y22264100D02*
Y20920000D01*
X64150000Y26130900D02*
Y23193900D01*
X64150000Y30654100D02*
Y27069100D01*
X69426200Y32350000D02*
X64150000D01*
Y31603900D01*
X64999900Y41702000D02*
X65784900D01*
X62729500Y41702000D02*
X63014800D01*
X63924100Y53802000D02*
X62729500D01*
X63189500Y58529500D02*
X63948300D01*
X62729500Y58529500D02*
X62949500D01*
X63642000Y70629500D02*
X62729500D01*
X66203300Y70629500D02*
X63997000D01*
X66019100Y11350000D02*
X67080900D01*
X65504000Y19650000D02*
X67825800D01*
X66454100Y41702000D02*
X67883000D01*
X68008200Y53802000D02*
X65593300D01*
X65540200Y58529500D02*
X67979000D01*
X67610000Y70629500D02*
X67135700D01*
X68019100Y11350000D02*
X70050000D01*
Y9400000D01*
X71350000D01*
Y8300000D01*
X69600700Y19650000D02*
X70413800D01*
X68774200Y19650000D02*
X69193300D01*
X73831700Y32350000D02*
X70373800D01*
X70401200Y41702000D02*
X71079500D01*
X68756000Y41702000D02*
X69498800D01*
X71529500Y53802000D02*
X69674200D01*
X68460000Y58529500D02*
X70249200D01*
X70153300Y70629500D02*
X68429000D01*
X71350000Y5300000D02*
Y4200000D01*
X72179500Y42802000D02*
Y44227000D01*
X72179500Y45151000D02*
Y53152000D01*
X70789800Y58529500D02*
X71079500D01*
X72179500Y59629500D02*
Y69979500D01*
X71529500Y70629500D02*
X71085700D01*
X79460500Y76570000D02*
Y75427000D01*
X72348500D01*
Y76570000D01*
X72348500Y80888000D02*
Y81915500D01*
X76850000Y32350000D02*
X75662100D01*
X76586200Y19650000D02*
X76850000D01*
Y20278100D01*
X76850000Y22342500D02*
Y22454300D01*
X76850000Y28241900D02*
Y30541600D01*
X76049500Y53152000D02*
Y42352000D01*
X78022500Y41702000D02*
X78554300D01*
X76699500Y41702000D02*
X77077500D01*
X77624100Y53802000D02*
X76699500D01*
X81690100Y53802000D02*
X77843900D01*
X76699500Y58529500D02*
X78224400D01*
X76049500Y69979500D02*
Y59179500D01*
X77084300Y70629500D02*
X76699500D01*
X80659100Y41702000D02*
X82648800D01*
X78845700Y41702000D02*
X80140900D01*
X79148600Y58529500D02*
X83041300D01*
X85499500Y70629500D02*
X79128800D01*
X79076600Y82031000D02*
X79460500D01*
Y80888000D01*
X83551200Y41702000D02*
X85049500D01*
X85499500Y53802000D02*
X82748900D01*
X84235000Y26979200D02*
Y17650000D01*
X89950000D01*
X89950000Y31880100D02*
Y35430000D01*
X84235000D01*
Y28278800D01*
X86149500Y42802000D02*
Y53152000D01*
X84773500Y58529500D02*
X85049500D01*
X86149500Y59629500D02*
Y69979500D01*
X89950000Y17650000D02*
Y21703200D01*
X89950000Y22089800D02*
Y26287100D01*
X89950000Y27030900D02*
Y30962900D01*
X5102000Y11989000D02*
X5369880Y12042280D01*
X5596970Y12194020D01*
X5748710Y12421120D01*
X5802000Y12689000D01*
X4402000Y12689000D02*
X4455280Y12421120D01*
X4607020Y12194020D01*
X4834120Y12042280D01*
X5102000Y11989000D01*
X4686200Y13252100D02*
X4533580Y13097520D01*
X4435710Y12903590D01*
X4402000Y12689000D01*
X5802000Y12689000D02*
X5768290Y12903590D01*
X5670410Y13097520D01*
X5517800Y13252100D01*
X6307000Y13324000D02*
X6360280Y13056120D01*
X6512020Y12829020D01*
X6739120Y12677280D01*
X7007000Y12624000D01*
X7007000Y14024000D02*
X6739120Y13970710D01*
X6512020Y13818970D01*
X6360280Y13591880D01*
X6307000Y13324000D01*
X6307000Y15546500D02*
X6338690Y15338250D01*
X6430910Y15148870D01*
X6575300Y14995500D01*
X7007000Y16246500D02*
X6739120Y16193210D01*
X6512020Y16041470D01*
X6360280Y15814380D01*
X6307000Y15546500D01*
X5102000Y13894000D02*
X5369880Y13947280D01*
X5596970Y14099020D01*
X5748710Y14326120D01*
X5802000Y14594000D01*
X4402000Y14594000D02*
X4455280Y14326120D01*
X4607020Y14099020D01*
X4834120Y13947280D01*
X5102000Y13894000D01*
X4687800Y15158300D02*
X4534350Y15003610D01*
X4435910Y14809230D01*
X4402000Y14594000D01*
X5802000Y14594000D02*
X5768090Y14809230D01*
X5669640Y15003610D01*
X5516200Y15158300D01*
X5102000Y15799000D02*
X5369880Y15852280D01*
X5596970Y16004020D01*
X5748710Y16231120D01*
X5802000Y16499000D01*
X4402000Y16499000D02*
X4455280Y16231120D01*
X4607020Y16004020D01*
X4834120Y15852280D01*
X5102000Y15799000D01*
X5102000Y18021500D02*
X5369880Y18074780D01*
X5596970Y18226520D01*
X5748710Y18453620D01*
X5802000Y18721500D01*
X4402000Y18721500D02*
X4455280Y18453620D01*
X4607020Y18226520D01*
X4834120Y18074780D01*
X5102000Y18021500D01*
X4643600Y19250500D02*
X4513120Y19099930D01*
X4430350Y18918700D01*
X4402000Y18721500D01*
X5802000Y18721500D02*
X5754160Y18975830D01*
X5617190Y19195400D01*
X5409800Y19350200D01*
X6307000Y17451500D02*
X6340600Y17237190D01*
X6438190Y17043460D01*
X6590400Y16888900D01*
X7007000Y18151500D02*
X6739120Y18098210D01*
X6512020Y17946470D01*
X6360280Y17719380D01*
X6307000Y17451500D01*
X4701900Y17073400D02*
X4541190Y16917930D01*
X4437710Y16719720D01*
X4402000Y16499000D01*
X5802000Y16499000D02*
X5766290Y16719720D01*
X5662800Y16917930D01*
X5502100Y17073400D01*
X5195500Y19932800D02*
X5504670Y20053930D01*
X5723230Y20303920D01*
X5802000Y20626500D01*
X4402000Y20626500D02*
X4461520Y20344030D01*
X4629970Y20109610D01*
X4878700Y19963100D01*
X4588200Y21101900D02*
X4486930Y20960700D01*
X4423560Y20798910D01*
X4402000Y20626500D01*
X5802000Y20626500D02*
X5757030Y20873360D01*
X5627900Y21088510D01*
X5431200Y21244300D01*
X5663500Y22113500D02*
X5739260Y22241840D01*
X5786130Y22383310D01*
X5802000Y22531500D01*
X4402000Y22531500D02*
X4458060Y22257020D01*
X4617260Y22026520D01*
X4854100Y21876900D01*
X5102000Y23231500D02*
X4834120Y23178210D01*
X4607020Y23026470D01*
X4455280Y22799380D01*
X4402000Y22531500D01*
X5802000Y22531500D02*
X5748710Y22799380D01*
X5596970Y23026470D01*
X5369880Y23178210D01*
X5102000Y23231500D01*
X5102000Y23736500D02*
X5369880Y23789780D01*
X5596970Y23941520D01*
X5748710Y24168620D01*
X5802000Y24436500D01*
X4402000Y24436500D02*
X4455280Y24168620D01*
X4607020Y23941520D01*
X4834120Y23789780D01*
X5102000Y23736500D01*
X5102000Y25136500D02*
X4834120Y25083210D01*
X4607020Y24931470D01*
X4455280Y24704380D01*
X4402000Y24436500D01*
X5802000Y24436500D02*
X5748710Y24704380D01*
X5596970Y24931470D01*
X5369880Y25083210D01*
X5102000Y25136500D01*
X5097000Y25529000D02*
X5364880Y25582280D01*
X5591970Y25734020D01*
X5743710Y25961120D01*
X5797000Y26229000D01*
X4397000Y26229000D02*
X4450280Y25961120D01*
X4602020Y25734020D01*
X4829120Y25582280D01*
X5097000Y25529000D01*
X5097000Y26929000D02*
X4829120Y26875710D01*
X4602020Y26723970D01*
X4450280Y26496880D01*
X4397000Y26229000D01*
X5797000Y26229000D02*
X5743710Y26496880D01*
X5591970Y26723970D01*
X5364880Y26875710D01*
X5097000Y26929000D01*
X5097000Y27329000D02*
X5364880Y27382280D01*
X5591970Y27534020D01*
X5743710Y27761120D01*
X5797000Y28029000D01*
X4397000Y28029000D02*
X4450280Y27761120D01*
X4602020Y27534020D01*
X4829120Y27382280D01*
X5097000Y27329000D01*
X4768700Y28647300D02*
X4571540Y28491530D01*
X4442090Y28276180D01*
X4397000Y28029000D01*
X5797000Y28029000D02*
X5751910Y28276180D01*
X5622450Y28491530D01*
X5425300Y28647300D01*
X5465400Y29683800D02*
X5642300Y29840100D01*
X5757190Y30046320D01*
X5797000Y30279000D01*
X4397000Y30279000D02*
X4436800Y30046320D01*
X4551690Y29840100D01*
X4728600Y29683800D01*
X5097000Y30979000D02*
X4829120Y30925710D01*
X4602020Y30773970D01*
X4450280Y30546880D01*
X4397000Y30279000D01*
X5797000Y30279000D02*
X5743710Y30546880D01*
X5591970Y30773970D01*
X5364880Y30925710D01*
X5097000Y30979000D01*
X5097000Y31429000D02*
X5364880Y31482280D01*
X5591970Y31634020D01*
X5743710Y31861120D01*
X5797000Y32129000D01*
X4397000Y32129000D02*
X4450280Y31861120D01*
X4602020Y31634020D01*
X4829120Y31482280D01*
X5097000Y31429000D01*
X5102000Y33261500D02*
X5369880Y33314780D01*
X5596970Y33466520D01*
X5748710Y33693620D01*
X5802000Y33961500D01*
X4402000Y33961500D02*
X4455280Y33693620D01*
X4607020Y33466520D01*
X4834120Y33314780D01*
X5102000Y33261500D01*
X5102000Y34661500D02*
X4834120Y34608210D01*
X4607020Y34456470D01*
X4455280Y34229380D01*
X4402000Y33961500D01*
X5802000Y33961500D02*
X5748710Y34229380D01*
X5596970Y34456470D01*
X5369880Y34608210D01*
X5102000Y34661500D01*
X5097000Y32829000D02*
X4829120Y32775710D01*
X4602020Y32623970D01*
X4450280Y32396880D01*
X4397000Y32129000D01*
X5797000Y32129000D02*
X5743710Y32396880D01*
X5591970Y32623970D01*
X5364880Y32775710D01*
X5097000Y32829000D01*
X5102000Y35166500D02*
X5369880Y35219780D01*
X5596970Y35371520D01*
X5748710Y35598620D01*
X5802000Y35866500D01*
X4402000Y35866500D02*
X4455280Y35598620D01*
X4607020Y35371520D01*
X4834120Y35219780D01*
X5102000Y35166500D01*
X5102000Y36566500D02*
X4834120Y36513210D01*
X4607020Y36361470D01*
X4455280Y36134380D01*
X4402000Y35866500D01*
X5802000Y35866500D02*
X5748710Y36134380D01*
X5596970Y36361470D01*
X5369880Y36513210D01*
X5102000Y36566500D01*
X5102000Y37071500D02*
X5369880Y37124780D01*
X5596970Y37276520D01*
X5748710Y37503620D01*
X5802000Y37771500D01*
X4402000Y37771500D02*
X4455280Y37503620D01*
X4607020Y37276520D01*
X4834120Y37124780D01*
X5102000Y37071500D01*
X5102000Y38471500D02*
X4834120Y38418210D01*
X4607020Y38266470D01*
X4455280Y38039380D01*
X4402000Y37771500D01*
X5802000Y37771500D02*
X5748710Y38039380D01*
X5596970Y38266470D01*
X5369880Y38418210D01*
X5102000Y38471500D01*
X5102000Y38976500D02*
X5369880Y39029780D01*
X5596970Y39181520D01*
X5748710Y39408620D01*
X5802000Y39676500D01*
X4402000Y39676500D02*
X4455280Y39408620D01*
X4607020Y39181520D01*
X4834120Y39029780D01*
X5102000Y38976500D01*
X5102000Y40376500D02*
X4834120Y40323210D01*
X4607020Y40171470D01*
X4455280Y39944380D01*
X4402000Y39676500D01*
X5802000Y39676500D02*
X5748710Y39944380D01*
X5596970Y40171470D01*
X5369880Y40323210D01*
X5102000Y40376500D01*
X7007000Y12624000D02*
X7274880Y12677280D01*
X7501970Y12829020D01*
X7653710Y13056120D01*
X7707000Y13324000D01*
X7653710Y13591880D01*
X7501970Y13818970D01*
X7274880Y13970710D01*
X7007000Y14024000D01*
X7438700Y14995500D02*
X7583080Y15148870D01*
X7675300Y15338250D01*
X7707000Y15546500D01*
X7653710Y15814380D01*
X7501970Y16041470D01*
X7274880Y16193210D01*
X7007000Y16246500D01*
X7423600Y16888900D02*
X7575800Y17043460D01*
X7673390Y17237190D01*
X7707000Y17451500D01*
X7653710Y17719380D01*
X7501970Y17946470D01*
X7274880Y18098210D01*
X7007000Y18151500D01*
X7007000Y20879000D02*
X7274880Y20932280D01*
X7501970Y21084020D01*
X7653710Y21311120D01*
X7707000Y21579000D01*
X6437800Y21171600D02*
X6592880Y21014650D01*
X6789110Y20913780D01*
X7007000Y20879000D01*
X7007000Y18974000D02*
X7274880Y19027280D01*
X7501970Y19179020D01*
X7653710Y19406120D01*
X7707000Y19674000D01*
X6452500Y19246800D02*
X6606250Y19100080D01*
X6796940Y19006260D01*
X7007000Y18974000D01*
X7007000Y20374000D02*
X6793790Y20340730D01*
X6600840Y20244110D01*
X6446500Y20093300D01*
X7707000Y19674000D02*
X7653710Y19941880D01*
X7501970Y20168970D01*
X7274880Y20320710D01*
X7007000Y20374000D01*
X7007000Y22279000D02*
X6789110Y22244220D01*
X6592880Y22143350D01*
X6437800Y21986400D01*
X7707000Y21579000D02*
X7653710Y21846880D01*
X7501970Y22073970D01*
X7274880Y22225710D01*
X7007000Y22279000D01*
X7007000Y22784000D02*
X7274880Y22837280D01*
X7501970Y22989020D01*
X7653710Y23216120D01*
X7707000Y23484000D01*
X6440500Y23072800D02*
X6595380Y22917810D01*
X6790590Y22818290D01*
X7007000Y22784000D01*
X7007000Y24184000D02*
X6787660Y24148750D01*
X6590400Y24046550D01*
X6435100Y23887700D01*
X7707000Y23484000D02*
X7653710Y23751880D01*
X7501970Y23978970D01*
X7274880Y24130710D01*
X7007000Y24184000D01*
X15847000Y41029000D02*
X16114880Y41082280D01*
X16341970Y41234020D01*
X16493710Y41461120D01*
X16547000Y41729000D01*
X15147000Y41729000D02*
X15200280Y41461120D01*
X15352020Y41234020D01*
X15579120Y41082280D01*
X15847000Y41029000D01*
X15847000Y42429000D02*
X15579120Y42375710D01*
X15352020Y42223970D01*
X15200280Y41996880D01*
X15147000Y41729000D01*
X16547000Y41729000D02*
X16493710Y41996880D01*
X16341970Y42223970D01*
X16114880Y42375710D01*
X15847000Y42429000D01*
X19642000Y39676500D02*
X19695280Y39408620D01*
X19847020Y39181520D01*
X20074120Y39029780D01*
X20342000Y38976500D01*
X19653500Y39802600D02*
X19647130Y39760820D01*
X19643290Y39718740D01*
X19642000Y39676500D01*
X19047000Y41729000D02*
X19100280Y41461120D01*
X19252020Y41234020D01*
X19479120Y41082280D01*
X19747000Y41029000D01*
X19747000Y42429000D02*
X19479120Y42375710D01*
X19252020Y42223970D01*
X19100280Y41996880D01*
X19047000Y41729000D01*
X17847000Y41029000D02*
X18114880Y41082280D01*
X18341970Y41234020D01*
X18493710Y41461120D01*
X18547000Y41729000D01*
X17147000Y41729000D02*
X17200280Y41461120D01*
X17352020Y41234020D01*
X17579120Y41082280D01*
X17847000Y41029000D01*
X17847000Y42429000D02*
X17579120Y42375710D01*
X17352020Y42223970D01*
X17200280Y41996880D01*
X17147000Y41729000D01*
X18547000Y41729000D02*
X18493710Y41996880D01*
X18341970Y42223970D01*
X18114880Y42375710D01*
X17847000Y42429000D01*
X19107000Y64701500D02*
X19160280Y64433620D01*
X19312020Y64206520D01*
X19539120Y64054780D01*
X19807000Y64001500D01*
X19807000Y65401500D02*
X19539120Y65348210D01*
X19312020Y65196470D01*
X19160280Y64969380D01*
X19107000Y64701500D01*
X19107000Y66606500D02*
X19160280Y66338620D01*
X19312020Y66111520D01*
X19539120Y65959780D01*
X19807000Y65906500D01*
X19807000Y67306500D02*
X19539120Y67253210D01*
X19312020Y67101470D01*
X19160280Y66874380D01*
X19107000Y66606500D01*
X19107000Y68511500D02*
X19160280Y68243620D01*
X19312020Y68016520D01*
X19539120Y67864780D01*
X19807000Y67811500D01*
X19807000Y69211500D02*
X19539120Y69158210D01*
X19312020Y69006470D01*
X19160280Y68779380D01*
X19107000Y68511500D01*
X19107000Y70416500D02*
X19160280Y70148620D01*
X19312020Y69921520D01*
X19539120Y69769780D01*
X19807000Y69716500D01*
X19807000Y71116500D02*
X19539120Y71063210D01*
X19312020Y70911470D01*
X19160280Y70684380D01*
X19107000Y70416500D01*
X20342000Y38976500D02*
X20609880Y39029780D01*
X20836970Y39181520D01*
X20988710Y39408620D01*
X21042000Y39676500D01*
X20988710Y39944380D01*
X20836970Y40171470D01*
X20609880Y40323210D01*
X20342000Y40376500D01*
X22247000Y38976500D02*
X22514880Y39029780D01*
X22741970Y39181520D01*
X22893710Y39408620D01*
X22947000Y39676500D01*
X21547000Y39676500D02*
X21600280Y39408620D01*
X21752020Y39181520D01*
X21979120Y39029780D01*
X22247000Y38976500D01*
X22247000Y40376500D02*
X21979120Y40323210D01*
X21752020Y40171470D01*
X21600280Y39944380D01*
X21547000Y39676500D01*
X20342000Y40376500D02*
X20302940Y40375410D01*
X20263990Y40372140D01*
X20225300Y40366700D01*
X19747000Y41029000D02*
X20014880Y41082280D01*
X20241970Y41234020D01*
X20393710Y41461120D01*
X20447000Y41729000D01*
X20393710Y41996880D01*
X20241970Y42223970D01*
X20014880Y42375710D01*
X19747000Y42429000D01*
X19807000Y64001500D02*
X20074880Y64054780D01*
X20301970Y64206520D01*
X20453710Y64433620D01*
X20507000Y64701500D01*
X20453710Y64969380D01*
X20301970Y65196470D01*
X20074880Y65348210D01*
X19807000Y65401500D01*
X19807000Y65906500D02*
X20074880Y65959780D01*
X20301970Y66111520D01*
X20453710Y66338620D01*
X20507000Y66606500D01*
X20453710Y66874380D01*
X20301970Y67101470D01*
X20074880Y67253210D01*
X19807000Y67306500D01*
X19807000Y67811500D02*
X20074880Y67864780D01*
X20301970Y68016520D01*
X20453710Y68243620D01*
X20507000Y68511500D01*
X20453710Y68779380D01*
X20301970Y69006470D01*
X20074880Y69158210D01*
X19807000Y69211500D01*
X19807000Y69716500D02*
X20039500Y69756240D01*
X20245600Y69870950D01*
X20401900Y70047600D01*
X20401900Y70785400D02*
X20245600Y70962050D01*
X20039500Y71076760D01*
X19807000Y71116500D01*
X22947000Y39676500D02*
X22944780Y39732230D01*
X22938130Y39787620D01*
X22927100Y39842300D01*
X24152000Y38976500D02*
X24419880Y39029780D01*
X24646970Y39181520D01*
X24798710Y39408620D01*
X24852000Y39676500D01*
X23452000Y39676500D02*
X23505280Y39408620D01*
X23657020Y39181520D01*
X23884120Y39029780D01*
X24152000Y38976500D01*
X24152000Y40376500D02*
X23884120Y40323210D01*
X23657020Y40171470D01*
X23505280Y39944380D01*
X23452000Y39676500D01*
X24852000Y39676500D02*
X24798710Y39944380D01*
X24646970Y40171470D01*
X24419880Y40323210D01*
X24152000Y40376500D01*
X27262000Y39676500D02*
X27315280Y39408620D01*
X27467020Y39181520D01*
X27694120Y39029780D01*
X27962000Y38976500D01*
X27424600Y40125100D02*
X27335910Y39989600D01*
X27280730Y39837350D01*
X27262000Y39676500D01*
X26057000Y38976500D02*
X26324880Y39029780D01*
X26551970Y39181520D01*
X26703710Y39408620D01*
X26757000Y39676500D01*
X25357000Y39676500D02*
X25410280Y39408620D01*
X25562020Y39181520D01*
X25789120Y39029780D01*
X26057000Y38976500D01*
X26057000Y40376500D02*
X25789120Y40323210D01*
X25562020Y40171470D01*
X25410280Y39944380D01*
X25357000Y39676500D01*
X26757000Y39676500D02*
X26703710Y39944380D01*
X26551970Y40171470D01*
X26324880Y40323210D01*
X26057000Y40376500D01*
X28625400Y39453300D02*
X28645640Y39526230D01*
X28657890Y39600920D01*
X28662000Y39676500D01*
X28595230Y39974860D01*
X28407670Y40216310D01*
X28135100Y40354800D01*
X33558500Y15044000D02*
X33327410Y15004750D01*
X33122250Y14891410D01*
X32966000Y14716700D01*
X31527500Y15549000D02*
X31795380Y15602280D01*
X32022470Y15754020D01*
X32174210Y15981120D01*
X32227500Y16249000D01*
X30827500Y16249000D02*
X30880780Y15981120D01*
X31032520Y15754020D01*
X31259620Y15602280D01*
X31527500Y15549000D01*
X31527500Y16949000D02*
X31259620Y16895710D01*
X31032520Y16743970D01*
X30880780Y16516880D01*
X30827500Y16249000D01*
X32227500Y16249000D02*
X32174210Y16516880D01*
X32022470Y16743970D01*
X31795380Y16895710D01*
X31527500Y16949000D01*
X33555500Y16949000D02*
X33287620Y16895710D01*
X33060520Y16743970D01*
X32908780Y16516880D01*
X32855500Y16249000D01*
X32342000Y39676500D02*
X32395280Y39408620D01*
X32547020Y39181520D01*
X32774120Y39029780D01*
X33042000Y38976500D01*
X32587200Y40208600D02*
X32454840Y40057590D01*
X32370800Y39875220D01*
X32342000Y39676500D01*
X33042000Y40376500D02*
X32970050Y40372800D01*
X32898870Y40361730D01*
X32829200Y40343400D01*
X35586500Y13644000D02*
X35854380Y13697280D01*
X36081470Y13849020D01*
X36233210Y14076120D01*
X36286500Y14344000D01*
X35229400Y13741900D02*
X35341940Y13688090D01*
X35462250Y13655100D01*
X35586500Y13644000D01*
X35586500Y15044000D02*
X35260690Y14963560D01*
X35009770Y14740720D01*
X34891400Y14426700D01*
X36286500Y14344000D02*
X36233210Y14611880D01*
X36081470Y14838970D01*
X35854380Y14990710D01*
X35586500Y15044000D01*
X33558500Y13644000D02*
X33826380Y13697280D01*
X34053470Y13849020D01*
X34205210Y14076120D01*
X34258500Y14344000D01*
X33045200Y13868100D02*
X33193350Y13746800D01*
X33368830Y13670190D01*
X33558500Y13644000D01*
X34258500Y14344000D02*
X34205210Y14611880D01*
X34053470Y14838970D01*
X33826380Y14990710D01*
X33558500Y15044000D01*
X35583500Y15549000D02*
X35851380Y15602280D01*
X36078470Y15754020D01*
X36230210Y15981120D01*
X36283500Y16249000D01*
X34883500Y16249000D02*
X34936780Y15981120D01*
X35088520Y15754020D01*
X35315620Y15602280D01*
X35583500Y15549000D01*
X33555500Y15549000D02*
X33764970Y15581070D01*
X33955250Y15674350D01*
X34108900Y15820300D01*
X33369400Y15574200D02*
X33430590Y15560240D01*
X33492790Y15551810D01*
X33555500Y15549000D01*
X34992200Y16623700D02*
X34932520Y16506400D01*
X34895860Y16380020D01*
X34883500Y16249000D01*
X33858600Y16880000D02*
X33761390Y16918050D01*
X33659600Y16941220D01*
X33555500Y16949000D01*
X33042000Y38976500D02*
X33309880Y39029780D01*
X33536970Y39181520D01*
X33688710Y39408620D01*
X33742000Y39676500D01*
X33688710Y39944380D01*
X33536970Y40171470D01*
X33309880Y40323210D01*
X33042000Y40376500D01*
X34947000Y38976500D02*
X35214880Y39029780D01*
X35441970Y39181520D01*
X35593710Y39408620D01*
X35647000Y39676500D01*
X34247000Y39676500D02*
X34300280Y39408620D01*
X34452020Y39181520D01*
X34679120Y39029780D01*
X34947000Y38976500D01*
X34947000Y40376500D02*
X34679120Y40323210D01*
X34452020Y40171470D01*
X34300280Y39944380D01*
X34247000Y39676500D01*
X35647000Y39676500D02*
X35593710Y39944380D01*
X35441970Y40171470D01*
X35214880Y40323210D01*
X34947000Y40376500D01*
X37487000Y15481500D02*
X37662680Y15503900D01*
X37827120Y15569670D01*
X37969800Y15674600D01*
X36787000Y16181500D02*
X36840280Y15913620D01*
X36992020Y15686520D01*
X37219120Y15534780D01*
X37487000Y15481500D01*
X36283500Y16249000D02*
X36229700Y16518090D01*
X36076590Y16745830D01*
X35847700Y16897200D01*
X37487000Y16881500D02*
X37219120Y16828210D01*
X36992020Y16676470D01*
X36840280Y16449380D01*
X36787000Y16181500D01*
X38128000Y16462900D02*
X37975020Y16683360D01*
X37750360Y16830070D01*
X37487000Y16881500D01*
X36852000Y38976500D02*
X37119880Y39029780D01*
X37346970Y39181520D01*
X37498710Y39408620D01*
X37552000Y39676500D01*
X36152000Y39676500D02*
X36205280Y39408620D01*
X36357020Y39181520D01*
X36584120Y39029780D01*
X36852000Y38976500D01*
X36852000Y40376500D02*
X36584120Y40323210D01*
X36357020Y40171470D01*
X36205280Y39944380D01*
X36152000Y39676500D01*
X37552000Y39676500D02*
X37498710Y39944380D01*
X37346970Y40171470D01*
X37119880Y40323210D01*
X36852000Y40376500D01*
X38057000Y39676500D02*
X38110280Y39408620D01*
X38262020Y39181520D01*
X38489120Y39029780D01*
X38757000Y38976500D01*
X38757000Y40376500D02*
X38489120Y40323210D01*
X38262020Y40171470D01*
X38110280Y39944380D01*
X38057000Y39676500D01*
X39392000Y15481500D02*
X39659880Y15534780D01*
X39886970Y15686520D01*
X40038710Y15913620D01*
X40092000Y16181500D01*
X38692000Y16181500D02*
X38745280Y15913620D01*
X38897020Y15686520D01*
X39124120Y15534780D01*
X39392000Y15481500D01*
X39392000Y16881500D02*
X39124120Y16828210D01*
X38897020Y16676470D01*
X38745280Y16449380D01*
X38692000Y16181500D01*
X39728900Y16795100D02*
X39621970Y16842650D01*
X39508610Y16871720D01*
X39392000Y16881500D01*
X38757000Y38976500D02*
X39024880Y39029780D01*
X39251970Y39181520D01*
X39403710Y39408620D01*
X39457000Y39676500D01*
X39403710Y39944380D01*
X39251970Y40171470D01*
X39024880Y40323210D01*
X38757000Y40376500D01*
X40662000Y38976500D02*
X40929880Y39029780D01*
X41156970Y39181520D01*
X41308710Y39408620D01*
X41362000Y39676500D01*
X39962000Y39676500D02*
X40015280Y39408620D01*
X40167020Y39181520D01*
X40394120Y39029780D01*
X40662000Y38976500D01*
X40662000Y40376500D02*
X40394120Y40323210D01*
X40167020Y40171470D01*
X40015280Y39944380D01*
X39962000Y39676500D01*
X41362000Y39676500D02*
X41308710Y39944380D01*
X41156970Y40171470D01*
X40929880Y40323210D01*
X40662000Y40376500D01*
X43519500Y15481500D02*
X43727490Y15513120D01*
X43916690Y15605120D01*
X44070000Y15749200D01*
X42819500Y16181500D02*
X42872780Y15913620D01*
X43024520Y15686520D01*
X43251620Y15534780D01*
X43519500Y15481500D01*
X43519500Y16881500D02*
X43251620Y16828210D01*
X43024520Y16676470D01*
X42872780Y16449380D01*
X42819500Y16181500D01*
X44070000Y16613800D02*
X43916690Y16757870D01*
X43727490Y16849880D01*
X43519500Y16881500D01*
X42567000Y38976500D02*
X42834880Y39029780D01*
X43061970Y39181520D01*
X43213710Y39408620D01*
X43267000Y39676500D01*
X41867000Y39676500D02*
X41920280Y39408620D01*
X42072020Y39181520D01*
X42299120Y39029780D01*
X42567000Y38976500D01*
X42567000Y40376500D02*
X42299120Y40323210D01*
X42072020Y40171470D01*
X41920280Y39944380D01*
X41867000Y39676500D01*
X43267000Y39676500D02*
X43213710Y39944380D01*
X43061970Y40171470D01*
X42834880Y40323210D01*
X42567000Y40376500D01*
X43697000Y39679000D02*
X43750280Y39411120D01*
X43902020Y39184020D01*
X44129120Y39032280D01*
X44397000Y38979000D01*
X44397000Y40379000D02*
X44129120Y40325710D01*
X43902020Y40173970D01*
X43750280Y39946880D01*
X43697000Y39679000D01*
X43202000Y71679000D02*
X43469880Y71732280D01*
X43696970Y71884020D01*
X43848710Y72111120D01*
X43902000Y72379000D01*
X42502000Y72379000D02*
X42555280Y72111120D01*
X42707020Y71884020D01*
X42934120Y71732280D01*
X43202000Y71679000D01*
X42611100Y72754300D02*
X42551210Y72636850D01*
X42514410Y72510250D01*
X42502000Y72379000D01*
X43902000Y72379000D02*
X43848710Y72646880D01*
X43696970Y72873970D01*
X43469880Y73025710D01*
X43202000Y73079000D01*
X45424500Y15481500D02*
X45737010Y15555130D01*
X45983780Y15760530D01*
X46112900Y16054500D01*
X44836700Y15801300D02*
X44992850Y15630400D01*
X45196190Y15519770D01*
X45424500Y15481500D01*
X45424500Y16881500D02*
X45225150Y16852530D01*
X45042300Y16768000D01*
X44891100Y16634900D01*
X46112900Y16308500D02*
X45983780Y16602460D01*
X45737010Y16807870D01*
X45424500Y16881500D01*
X45848200Y39416200D02*
X45999440Y39186620D01*
X46227430Y39032990D01*
X46497000Y38979000D01*
X44397000Y38979000D02*
X44657060Y39029100D01*
X44879890Y39172230D01*
X45033600Y39387900D01*
X46497000Y40379000D02*
X46307250Y40352810D01*
X46131700Y40276160D01*
X45983500Y40154800D01*
X44881300Y40184400D02*
X44738340Y40290120D01*
X44573360Y40356410D01*
X44397000Y40379000D01*
X48671400Y15765700D02*
X48825980Y15613080D01*
X49019900Y15515210D01*
X49234500Y15481500D01*
X47329500Y15481500D02*
X47597380Y15534780D01*
X47824470Y15686520D01*
X47976210Y15913620D01*
X48029500Y16181500D01*
X46753800Y15783300D02*
X46909340Y15621620D01*
X47108040Y15517450D01*
X47329500Y15481500D01*
X49234500Y16881500D02*
X49019900Y16847790D01*
X48825980Y16749910D01*
X48671400Y16597300D01*
X47329500Y16881500D02*
X47108040Y16845540D01*
X46909340Y16741380D01*
X46753800Y16579700D01*
X48029500Y16181500D02*
X47976210Y16449380D01*
X47824470Y16676470D01*
X47597380Y16828210D01*
X47329500Y16881500D01*
X46497000Y38979000D02*
X46764880Y39032280D01*
X46991970Y39184020D01*
X47143710Y39411120D01*
X47197000Y39679000D01*
X47143710Y39946880D01*
X46991970Y40173970D01*
X46764880Y40325710D01*
X46497000Y40379000D01*
X48282000Y38976500D02*
X48549880Y39029780D01*
X48776970Y39181520D01*
X48928710Y39408620D01*
X48982000Y39676500D01*
X47582000Y39676500D02*
X47635280Y39408620D01*
X47787020Y39181520D01*
X48014120Y39029780D01*
X48282000Y38976500D01*
X48282000Y40376500D02*
X48014120Y40323210D01*
X47787020Y40171470D01*
X47635280Y39944380D01*
X47582000Y39676500D01*
X48982000Y39676500D02*
X48928710Y39944380D01*
X48776970Y40171470D01*
X48549880Y40323210D01*
X48282000Y40376500D01*
X48282000Y71679000D02*
X48549880Y71732280D01*
X48776970Y71884020D01*
X48928710Y72111120D01*
X48982000Y72379000D01*
X47582000Y72379000D02*
X47635280Y72111120D01*
X47787020Y71884020D01*
X48014120Y71732280D01*
X48282000Y71679000D01*
X48282000Y73079000D02*
X48014120Y73025710D01*
X47787020Y72873970D01*
X47635280Y72646880D01*
X47582000Y72379000D01*
X48982000Y72379000D02*
X48928710Y72646880D01*
X48776970Y72873970D01*
X48549880Y73025710D01*
X48282000Y73079000D01*
X49234500Y15481500D02*
X49478230Y15525300D01*
X49691450Y15651220D01*
X49847500Y15843500D01*
X50822000Y15481500D02*
X51050050Y15519690D01*
X51253200Y15630110D01*
X51409300Y15800700D01*
X50271000Y15749800D02*
X50424370Y15605410D01*
X50613750Y15513190D01*
X50822000Y15481500D01*
X49847500Y16519500D02*
X49691450Y16711780D01*
X49478230Y16837700D01*
X49234500Y16881500D01*
X50822000Y16881500D02*
X50613750Y16849800D01*
X50424370Y16757580D01*
X50271000Y16613200D01*
X51039400Y16846900D02*
X50968280Y16866050D01*
X50895550Y16877630D01*
X50822000Y16881500D01*
X51497600Y16364800D02*
X51479960Y16420490D01*
X51457740Y16474510D01*
X51431100Y16526500D01*
X50187000Y38976500D02*
X50454880Y39029780D01*
X50681970Y39181520D01*
X50833710Y39408620D01*
X50887000Y39676500D01*
X49487000Y39676500D02*
X49540280Y39408620D01*
X49692020Y39181520D01*
X49919120Y39029780D01*
X50187000Y38976500D01*
X50187000Y40376500D02*
X49919120Y40323210D01*
X49692020Y40171470D01*
X49540280Y39944380D01*
X49487000Y39676500D01*
X50887000Y39676500D02*
X50833710Y39944380D01*
X50681970Y40171470D01*
X50454880Y40323210D01*
X50187000Y40376500D01*
X53047000Y17529000D02*
X53270700Y17565710D01*
X53470930Y17671990D01*
X53626700Y17836700D01*
X52347000Y18229000D02*
X52400280Y17961120D01*
X52552020Y17734020D01*
X52779120Y17582280D01*
X53047000Y17529000D01*
X53047000Y18929000D02*
X52779120Y18875710D01*
X52552020Y18723970D01*
X52400280Y18496880D01*
X52347000Y18229000D01*
X53626700Y18621300D02*
X53470930Y18786000D01*
X53270700Y18892290D01*
X53047000Y18929000D01*
X53047000Y19329000D02*
X53241810Y19356630D01*
X53421240Y19437390D01*
X53571100Y19564900D01*
X52347000Y20029000D02*
X52400280Y19761120D01*
X52552020Y19534020D01*
X52779120Y19382280D01*
X53047000Y19329000D01*
X53047000Y20729000D02*
X52779120Y20675710D01*
X52552020Y20523970D01*
X52400280Y20296880D01*
X52347000Y20029000D01*
X53631700Y20413900D02*
X53475680Y20582390D01*
X53273520Y20691330D01*
X53047000Y20729000D01*
X53044500Y21196500D02*
X53312380Y21249780D01*
X53539470Y21401520D01*
X53691210Y21628620D01*
X53744500Y21896500D01*
X52474200Y21490700D02*
X52629360Y21332940D01*
X52826010Y21231490D01*
X53044500Y21196500D01*
X53044500Y23101500D02*
X53312380Y23154780D01*
X53539470Y23306520D01*
X53691210Y23533620D01*
X53744500Y23801500D01*
X52344500Y23801500D02*
X52397780Y23533620D01*
X52549520Y23306520D01*
X52776620Y23154780D01*
X53044500Y23101500D01*
X53044500Y24501500D02*
X52776620Y24448210D01*
X52549520Y24296470D01*
X52397780Y24069380D01*
X52344500Y23801500D01*
X53744500Y23801500D02*
X53691210Y24069380D01*
X53539470Y24296470D01*
X53312380Y24448210D01*
X53044500Y24501500D01*
X53044500Y22596500D02*
X52816290Y22558250D01*
X52613010Y22447690D01*
X52456900Y22276900D01*
X53744500Y21896500D02*
X53691210Y22164380D01*
X53539470Y22391470D01*
X53312380Y22543210D01*
X53044500Y22596500D01*
X53400700Y28057100D02*
X53559550Y28212400D01*
X53661750Y28409650D01*
X53697000Y28629000D01*
X52297000Y28629000D02*
X52341350Y28383770D01*
X52468810Y28169630D01*
X52663200Y28013700D01*
X52997000Y29329000D02*
X52729120Y29275710D01*
X52502020Y29123970D01*
X52350280Y28896880D01*
X52297000Y28629000D01*
X53697000Y28629000D02*
X53643710Y28896880D01*
X53491970Y29123970D01*
X53264880Y29275710D01*
X52997000Y29329000D01*
X53499700Y34706500D02*
X53659060Y34861810D01*
X53761620Y35059300D01*
X53797000Y35279000D01*
X52397000Y35279000D02*
X52432940Y35057590D01*
X52537070Y34858920D01*
X52698700Y34703400D01*
X53097000Y32729000D02*
X53364880Y32782280D01*
X53591970Y32934020D01*
X53743710Y33161120D01*
X53797000Y33429000D01*
X52397000Y33429000D02*
X52450280Y33161120D01*
X52602020Y32934020D01*
X52829120Y32782280D01*
X53097000Y32729000D01*
X52895400Y34099300D02*
X52636290Y33956000D01*
X52459620Y33718390D01*
X52397000Y33429000D01*
X53797000Y33429000D02*
X53734920Y33717200D01*
X53559690Y33954280D01*
X53302400Y34098200D01*
X53097000Y35979000D02*
X52829120Y35925710D01*
X52602020Y35773970D01*
X52450280Y35546880D01*
X52397000Y35279000D01*
X53797000Y35279000D02*
X53743710Y35546880D01*
X53591970Y35773970D01*
X53364880Y35925710D01*
X53097000Y35979000D01*
X53097000Y36429000D02*
X53364880Y36482280D01*
X53591970Y36634020D01*
X53743710Y36861120D01*
X53797000Y37129000D01*
X52397000Y37129000D02*
X52450280Y36861120D01*
X52602020Y36634020D01*
X52829120Y36482280D01*
X53097000Y36429000D01*
X53097000Y37829000D02*
X52829120Y37775710D01*
X52602020Y37623970D01*
X52450280Y37396880D01*
X52397000Y37129000D01*
X53797000Y37129000D02*
X53743710Y37396880D01*
X53591970Y37623970D01*
X53364880Y37775710D01*
X53097000Y37829000D01*
X11071000Y37454000D02*
X11122040Y37263500D01*
X11261500Y37124040D01*
X11452000Y37073000D01*
X11452000Y37835000D02*
X11261500Y37783950D01*
X11122040Y37644500D01*
X11071000Y37454000D01*
X11833000Y37454000D02*
X11781950Y37644500D01*
X11642500Y37783950D01*
X11452000Y37835000D01*
X18144000Y44145000D02*
X18334500Y44196040D01*
X18473950Y44335500D01*
X18525000Y44526000D01*
X17763000Y44526000D02*
X17814040Y44335500D01*
X17953500Y44196040D01*
X18144000Y44145000D01*
X18144000Y44907000D02*
X17953500Y44855950D01*
X17814040Y44716500D01*
X17763000Y44526000D01*
X18525000Y44526000D02*
X18473950Y44716500D01*
X18334500Y44855950D01*
X18144000Y44907000D01*
X21795000Y69779000D02*
X21985500Y69830040D01*
X22124950Y69969500D01*
X22176000Y70160000D01*
X21414000Y70160000D02*
X21465040Y69969500D01*
X21604500Y69830040D01*
X21795000Y69779000D01*
X21795000Y70541000D02*
X21604500Y70489950D01*
X21465040Y70350500D01*
X21414000Y70160000D01*
X22176000Y70160000D02*
X22124950Y70350500D01*
X21985500Y70489950D01*
X21795000Y70541000D01*
X43647500Y79912000D02*
X43660170Y79862700D01*
X43695050Y79825630D01*
X43743490Y79809980D01*
X43793460Y79819630D01*
X43832590Y79852190D01*
X43851160Y79899580D01*
X43844570Y79950050D01*
X43814450Y79991090D01*
X43768280Y80012510D01*
X43717500Y80009000D01*
X50550000Y36845000D02*
X50740500Y36896040D01*
X50879950Y37035500D01*
X50931000Y37226000D01*
X50169000Y37226000D02*
X50220040Y37035500D01*
X50359500Y36896040D01*
X50550000Y36845000D01*
X50550000Y37607000D02*
X50359500Y37555950D01*
X50220040Y37416500D01*
X50169000Y37226000D01*
X50931000Y37226000D02*
X50879950Y37416500D01*
X50740500Y37555950D01*
X50550000Y37607000D01*
X58884000Y20596000D02*
X58871320Y20645300D01*
X58836440Y20682370D01*
X58788010Y20698020D01*
X58738030Y20688370D01*
X58698900Y20655810D01*
X58680330Y20608420D01*
X58686930Y20557940D01*
X58717040Y20516910D01*
X58763220Y20495490D01*
X58814000Y20499000D01*
X62372000Y18253000D02*
X62410560Y18085970D01*
X62518440Y17952750D01*
X62673800Y17880300D01*
X62753000Y18634000D02*
X62562500Y18582950D01*
X62423040Y18443500D01*
X62372000Y18253000D01*
X63048500Y18493600D02*
X62965520Y18569270D01*
X62864080Y18617460D01*
X62753000Y18634000D01*
X72926500Y41380000D02*
X72736000Y41328950D01*
X72596540Y41189500D01*
X72545500Y40999000D01*
X72596540Y40808500D01*
X72736000Y40669040D01*
X72926500Y40618000D01*
X73117000Y40669040D01*
X73256450Y40808500D01*
X73307500Y40999000D01*
X73256450Y41189500D01*
X73117000Y41328950D01*
X72926500Y41380000D01*
X72926500Y57445500D02*
X73117000Y57496540D01*
X73256450Y57636000D01*
X73307500Y57826500D01*
X72545500Y57826500D02*
X72596540Y57636000D01*
X72736000Y57496540D01*
X72926500Y57445500D01*
X72926500Y58207500D02*
X72736000Y58156450D01*
X72596540Y58017000D01*
X72545500Y57826500D01*
X73307500Y57826500D02*
X73256450Y58017000D01*
X73117000Y58156450D01*
X72926500Y58207500D01*
X86896500Y41380000D02*
X86706000Y41328950D01*
X86566540Y41189500D01*
X86515500Y40999000D01*
X86566540Y40808500D01*
X86706000Y40669040D01*
X86896500Y40618000D01*
X87087000Y40669040D01*
X87226450Y40808500D01*
X87277500Y40999000D01*
X87226450Y41189500D01*
X87087000Y41328950D01*
X86896500Y41380000D01*
X86896500Y58207500D02*
X86706000Y58156450D01*
X86566540Y58017000D01*
X86515500Y57826500D01*
X86566540Y57636000D01*
X86706000Y57496540D01*
X86896500Y57445500D01*
X87087000Y57496540D01*
X87226450Y57636000D01*
X87277500Y57826500D01*
X87226450Y58017000D01*
X87087000Y58156450D01*
X86896500Y58207500D01*
X13674500Y7926500D02*
X13992000Y8011570D01*
X14224420Y8244000D01*
X14309500Y8561500D01*
X14224420Y8879000D01*
X13992000Y9111420D01*
X13674500Y9196500D01*
X60169000Y40940000D02*
X60151980Y41003500D01*
X60105500Y41049980D01*
X60042000Y41067000D01*
X59978500Y41049980D01*
X59932010Y41003500D01*
X59915000Y40940000D01*
X59932010Y40876500D01*
X59978500Y40830010D01*
X60042000Y40813000D01*
X60105500Y40830010D01*
X60151980Y40876500D01*
X60169000Y40940000D01*
X60151980Y40876500D01*
X60105500Y40830010D01*
X60042000Y40813000D01*
X59978500Y40830010D01*
X59932010Y40876500D01*
X59915000Y40940000D01*
X59932010Y41003500D01*
X59978500Y41049980D01*
X60042000Y41067000D01*
X60105500Y41049980D01*
X60151980Y41003500D01*
X60169000Y40940000D01*
M02*