G04 Gerber PCB Fabrication Data in Gerber – Example 2, created by Karel Tavernier, Filip Vermeire and Thomas Weyn*
G04 Ucamco copyright*
%TF.GenerationSoftware,Ucamco,UcamX,1.1.0-1400509*%
%TF.CreationDate,2014-07-14T00:00:00+01:00*%
%FSLAX26Y26*%
%MOMM*%
%TF.FileFunction,Plated,9,10,Blind,Drill*%
%TF.FilePolarity,Positive*%
%TF.Part,Single*%
%TF.SameCoordinates*%
%TA.AperFunction,ViaDrill*%
%ADD10C,0.10000*%
G01*
%LPD*%
D10*
X18450000Y26000000D03*
X36347000Y68629000D03*
X38158000Y68613000D03*
X34647000Y68579000D03*
X22697000Y70129000D03*
X20747000Y68479000D03*
X16297000Y47329000D03*
X22697000Y80079000D03*
X12397000Y8529000D03*
X17297000Y32829000D03*
X25297000Y36779000D03*
X29547000Y32079000D03*
X31147000Y27779000D03*
X74497000Y12371000D03*
X24397000Y70129000D03*
X25747000Y21516000D03*
X27497000Y70129000D03*
X25422000Y12104000D03*
X24797000Y26379000D03*
X25897000Y70129000D03*
X27010000Y12116000D03*
X22247000Y29368000D03*
X21897000Y25418000D03*
X29047000Y70129000D03*
X33042000Y68634000D03*
X21697000Y21479000D03*
X25997000Y12529000D03*
X28597000Y12079000D03*
X21647000Y17388000D03*
X30297000Y12079000D03*
X31454000Y68632000D03*
X23647000Y29318000D03*
X29867000Y68629000D03*
X9397000Y30179000D03*
X31500000Y41450000D03*
X30750000D03*
X34347000Y11729000D03*
X34647000Y26429000D03*
X32897000Y13151000D03*
X63097000Y34729000D03*
X48620000Y70589000D03*
X48170000Y70039000D03*
X48570000Y69539000D03*
X48636000Y67856000D03*
X48170000Y68989000D03*
X18697000Y65229000D03*
X74507000Y6679000D03*
X70190000Y9186000D03*
X26047000Y7329000D03*
X50822000Y9279000D03*
X25422000Y8904000D03*
X26797000Y8929000D03*
X29847000Y7129000D03*
X28397000Y8879000D03*
X31197000Y9629000D03*
X31797000Y7732000D03*
X7548000Y74630000D03*
X11447000Y74229000D03*
X37497000Y14779000D03*
X12347000Y47429000D03*
X22497000Y51479000D03*
X27947000Y35079000D03*
X21597000Y43179000D03*
X57807000Y22119000D03*
X54647000Y21829000D03*
X29597000Y33504000D03*
X30247000Y73229000D03*
X26247000Y32379000D03*
X10499000Y38032000D03*
X21294000Y80026000D03*
X11647000Y41229000D03*
X33397000Y19429000D03*
X11647000Y42079000D03*
X26097000Y80817000D03*
X31897000Y34129000D03*
X7072000Y44454000D03*
X19307000Y80078000D03*
X8897000Y44529000D03*
X15889000Y41236000D03*
X8276000Y26200000D03*
X9668000Y24600000D03*
X9697000Y23729000D03*
X5153000Y23638000D03*
X9718000Y23000000D03*
X8547000Y22729000D03*
X9647000Y18879000D03*
X7897000Y16479000D03*
X8268000Y22200000D03*
X12968000Y21400000D03*
X5247000Y19579000D03*
X13076000Y20600000D03*
X4647000Y25129000D03*
X13018000Y19800000D03*
X15838000Y24800000D03*
X8297000Y27779000D03*
X15558000Y29368000D03*
X9718000Y26200000D03*
X32747000Y27629000D03*
X20697000Y35029000D03*
X5997000Y44479000D03*
X71965000Y9311000D03*
X9668000Y27000000D03*
X36097000Y43129000D03*
X39947000Y43039000D03*
X33550000Y41650000D03*
X33547000Y43079000D03*
X29397000Y45779000D03*
X42250000Y43126000D03*
X70297000Y22891000D03*
X48670000Y49280000D03*
X48320000Y48730000D03*
X48018000Y50330000D03*
X48370000Y49780000D03*
X47870000Y51289000D03*
X48552000Y51270000D03*
X47870000Y52589000D03*
X48517000Y52320000D03*
X48019000Y55460000D03*
X48518000Y54910000D03*
X48044000Y58000000D03*
X48060000Y56950000D03*
X48518000Y57450000D03*
X48501000Y56400000D03*
X48620000Y61662000D03*
X48219000Y61112000D03*
X48202000Y66256000D03*
X48570000Y59739000D03*
X48636000Y66806000D03*
X48219000Y67239000D03*
X16697000Y43329000D03*
X56147000Y12629000D03*
X57490000Y5886000D03*
Y12672000D03*
X59077000Y5899000D03*
Y12779000D03*
X54314000Y5896000D03*
X53497000Y11029000D03*
X60664000Y5896000D03*
X60947000Y9329000D03*
X62252000Y5934000D03*
X62747000Y9479000D03*
X63840000Y5886000D03*
Y12736000D03*
X55902000Y5934000D03*
X52727000Y6009000D03*
X65427000D03*
X66047000Y9379000D03*
X67014000Y5896000D03*
X67650000Y9482000D03*
X68602000Y9424000D03*
X5737000Y55919000D03*
X6290000Y50856000D03*
X23547000Y35479000D03*
X14597000Y38479000D03*
X9397000Y46479000D03*
X8318000Y27000000D03*
X68447000Y23679000D03*
X67547000Y23279000D03*
X65797000D03*
X9797000Y65929000D03*
X52497000Y9279000D03*
X53097000Y9379000D03*
X54314000Y9212000D03*
X53547000Y12629000D03*
X56147000Y9229000D03*
X66385000Y27267000D03*
X68297000Y30317000D03*
X48002000Y54410000D03*
X48170000Y62162000D03*
X48475000Y53860000D03*
X48620000Y62712000D03*
X66947000Y15129000D03*
X11847000Y40329000D03*
X55902000Y15874000D03*
X17840000Y38529000D03*
X16197000Y18379000D03*
X9726000Y25400000D03*
X28647000Y41529000D03*
X45800000Y31429000D03*
X38535000Y30967000D03*
X37247000Y23929000D03*
X45274000Y22906000D03*
X83820000Y63639000D03*
X72669000Y47289000D03*
X73169000Y64080000D03*
X84719000Y47989000D03*
X15579000Y65329000D03*
X20647000Y53879000D03*
X18466000Y56059000D03*
X17167000Y68529000D03*
X12647000Y67079000D03*
X21294000Y76882000D03*
X18755000Y68622000D03*
X22882000Y76894000D03*
X19707000Y76839000D03*
X38597000Y70179000D03*
X15797000Y8629000D03*
X16497000Y10129000D03*
X20297000Y55679000D03*
X16464000Y62879000D03*
X16397000Y36829000D03*
X7547000Y71779000D03*
X43837000Y43119000D03*
X24547000Y45729000D03*
X23547000D03*
X23997000Y41529000D03*
X40747000Y43129000D03*
X29537000D03*
X25281000Y45783000D03*
X37487000Y43119000D03*
X51104000Y49280000D03*
X51257000Y48730000D03*
X51042000Y50330000D03*
X51304000Y49780000D03*
X51058000Y51820000D03*
X51295000Y51270000D03*
X51042000Y52870000D03*
X51304000Y52320000D03*
X51041000Y55460000D03*
X51304000Y54910000D03*
X51054000Y58000000D03*
X51070000Y56950000D03*
X51303000Y57450000D03*
X51270000Y56400000D03*
X51043000Y61662000D03*
X51343000Y61112000D03*
X22747000Y81629000D03*
X51170000Y66256000D03*
X51719000Y59690000D03*
X51070000Y66806000D03*
X51370000Y67306000D03*
X51319000Y70589000D03*
X51070000Y70039000D03*
X51419000Y69589000D03*
X51070000Y67856000D03*
Y68989000D03*
X53900000Y33314000D03*
X43697000Y45029000D03*
X46497000Y41579000D03*
X45424000Y43102000D03*
X19297000Y62429000D03*
X18747000Y63179000D03*
X25947000Y75379000D03*
X40395000Y68641000D03*
X70371000Y18949000D03*
X59147000Y9229000D03*
X67014000Y9262000D03*
X65744000Y12729000D03*
X65427000Y9149000D03*
X66697000Y26529000D03*
X62097000Y9229000D03*
X69297000Y25079000D03*
X64597000Y25279000D03*
X65797000Y27029000D03*
X60664000Y12729000D03*
X60347000Y9229000D03*
X67497000Y29629000D03*
X57897000Y9429000D03*
X68347000Y29426000D03*
X68297000Y31379000D03*
X57197000Y9279000D03*
X68602000Y5874000D03*
X67650000Y12676000D03*
X64447000Y9500000D03*
X63747000Y9179000D03*
X62252000Y12774000D03*
X58647000Y9500000D03*
X56882000Y13514000D03*
X76418000Y27800000D03*
X79647000Y27400000D03*
Y28200000D03*
X80126000Y27000000D03*
X79647000Y25000000D03*
Y25800000D03*
X76368000Y26200000D03*
X76426000Y25400000D03*
Y24600000D03*
X76468000Y23800000D03*
X79647000Y21000000D03*
Y21800000D03*
Y22600000D03*
Y23400000D03*
Y29000000D03*
Y29800000D03*
Y30600000D03*
X80168000Y31400000D03*
X79647000Y32200000D03*
X76697000Y32129000D03*
Y31229000D03*
X51050000Y54410000D03*
X51393000Y62162000D03*
X51891000Y57718000D03*
X51770000Y52139000D03*
X51296000Y53860000D03*
X50370000Y63389000D03*
X9647000Y17429000D03*
X9626000Y18200000D03*
X51347000Y39879000D03*
X48197000Y41579000D03*
X49747000D03*
X10468000Y7800000D03*
X28347000Y53379000D03*
X32297000Y48229000D03*
X41047000Y47779000D03*
X28334000Y52092000D03*
X27197000Y55979000D03*
X29697000Y63729000D03*
X31597000Y64179000D03*
X34847000Y64879000D03*
X37247000Y64679000D03*
X38497000Y48079000D03*
X66320000Y70889000D03*
X63370000Y64489000D03*
X42297000Y63779000D03*
X84669000Y60091000D03*
X78469000Y60889000D03*
X44897000Y48279000D03*
X75870000Y41639000D03*
X49597000Y30579000D03*
X43597000Y36279000D03*
X37797000Y36179000D03*
X33097000Y30479000D03*
X65169000Y62389000D03*
X65620000Y60689000D03*
X79911000Y62630000D03*
X82019000Y62589000D03*
X19947000Y75779000D03*
X66169000Y41589000D03*
X73419000Y43039000D03*
X80219000Y41589000D03*
X72419000Y45539000D03*
X82269000Y45839000D03*
X84519000Y45739000D03*
X84320000Y43239000D03*
X63219000Y47789000D03*
X63169000Y47089000D03*
X66019000Y46439000D03*
X75570000Y47489000D03*
X79928000Y47439000D03*
X51147000Y26024000D03*
X43797000Y54679000D03*
X44897000Y55929000D03*
X44947000Y58429000D03*
X63219000Y58389000D03*
X65519000Y58189000D03*
X69820000Y60339000D03*
X39797000Y63829000D03*
X44947000Y63529000D03*
Y62229000D03*
X69870000Y62439000D03*
X77169000Y63439000D03*
X84370000Y62589000D03*
X80019000Y70639000D03*
X44282000Y20064000D03*
X38847000Y18479000D03*
X63469000Y41789000D03*
X77669000Y47989000D03*
X32789000Y25171000D03*
X44897000Y50829000D03*
X65370000Y53289000D03*
X77169000Y58289000D03*
X80219000Y58489000D03*
X44947000Y60929000D03*
X38597000Y63829000D03*
X63120000Y64039000D03*
X81960000Y63648000D03*
X9547000Y10179000D03*
X23095000Y11927000D03*
X29947000Y30479000D03*
X49197000Y19779000D03*
X69097000Y20579000D03*
X32700000Y19929000D03*
X49482000Y20944000D03*
X39997000Y27929000D03*
X41647000Y27129000D03*
X40847000Y29429000D03*
X40947000Y31379000D03*
X41406000Y27837000D03*
X41747000Y31329000D03*
X41647000Y26329000D03*
Y29279000D03*
X60997000Y28679000D03*
X41947000Y38979000D03*
X33997000Y37829000D03*
X64419000Y42639000D03*
X81919000Y43139000D03*
X72370000Y46289000D03*
X84070000Y46089000D03*
X82870000Y46389000D03*
X61120000Y49939000D03*
X8647000Y52979000D03*
X54482000Y59377000D03*
X54770000Y60739000D03*
X55220000Y60289000D03*
X55069000Y55839000D03*
X55270000Y53439000D03*
X68570000Y53389000D03*
X81820000Y51239000D03*
X69320000Y59389000D03*
X72019000Y58089000D03*
X63269000Y60739000D03*
X79068000Y60441000D03*
X79922000Y60791000D03*
X85419000Y58389000D03*
X63269000Y61589000D03*
X69969000Y64389000D03*
X68019000Y63589000D03*
X76932000Y62539000D03*
X85430000Y64499000D03*
X61020000Y65789000D03*
X67870000Y70889000D03*
X81870000Y69539000D03*
X23200000Y43082000D03*
X63219000Y43339000D03*
X84620000Y41639000D03*
X64370000Y44889000D03*
X72419000Y44289000D03*
X75620000Y44639000D03*
X76540000Y51019000D03*
X76219000Y67039000D03*
X39947000Y48079000D03*
X50822000Y11104000D03*
X23075000Y13451000D03*
X13947000D03*
X18447000Y14179000D03*
X38009000Y17941000D03*
X45797000Y19979000D03*
X52747000Y19229000D03*
X50887000Y19039000D03*
X33647000Y24479000D03*
X39297000Y28829000D03*
X39047000Y30429000D03*
Y25029000D03*
X38750000Y25729000D03*
X43597000Y25629000D03*
X43497000Y30279000D03*
X51147000Y29316000D03*
X50378000Y33450000D03*
X51147000Y36479000D03*
X20509000Y40817000D03*
Y41391000D03*
X24859000Y40050000D03*
X11447000Y45629000D03*
X49837000Y44451000D03*
X36147000Y48029000D03*
X29847000Y48079000D03*
X9847000Y50679000D03*
X16097000Y53329000D03*
X40597000Y51329000D03*
X8632000Y55044000D03*
X10747000Y54829000D03*
X27147000Y57229000D03*
Y59729000D03*
Y62279000D03*
X29697000Y64779000D03*
X27150000Y63579000D03*
X33547000Y64629000D03*
X59047000Y27129000D03*
X39297000Y36279000D03*
X40347000D03*
X34747000Y48029000D03*
X27097000Y49129000D03*
X30997000Y47929000D03*
M02*