G04 Gerber PCB Fabrication Data in Gerber – Example 2, created by Karel Tavernier, Filip Vermeire and Thomas Weyn*
G04 Ucamco copyright*
%TF.GenerationSoftware,Ucamco,UcamX,1.1.0-1400509*%
%TF.CreationDate,2014-07-14T00:00:00+01:00*%
%FSLAX26Y26*%
%MOMM*%
%TF.FileFunction,Copper,L1,Top,Signal*%
%TF.FilePolarity,Positive*%
%TF.Part,Single*%
%TF.SameCoordinates*%
%TA.AperFunction,Conductor*%
%ADD10C,0.15000*%
%TA.AperFunction,NonConductor*%
%ADD11C,0.20000*%
%TA.AperFunction,ViaPad*%
%ADD12C,0.30000*%
%TA.AperFunction,BGAPad,CuDef*%
%ADD13C,0.35000*%
%ADD14C,0.40000*%
%TA.AperFunction,FiducialPad,Local*%
%ADD15C,0.50000*%
%TA.AperFunction,BGAPad,CuDef*%
%ADD16C,0.60000*%
%TA.AperFunction,ViaPad*%
%ADD17C,0.65000*%
%TA.AperFunction,TestPad*%
%ADD18C,0.70000*%
%TA.AperFunction,WasherPad*%
%ADD19C,6.000000*%
%TA.AperFunction,SMDPad,CuDef*%
%ADD20R,0.20000X1.80000*%
%ADD21R,0.25000X1.60000*%
%ADD22R,0.40000X1.60000*%
%ADD23R,0.50000X0.30000*%
%ADD24R,0.50000X0.40000*%
%ADD25R,0.60000X1.00000*%
%ADD26R,0.60000X1.60000*%
%ADD27R,1.00000X0.60000*%
%ADD28R,1.10000X1.80000*%
%ADD29R,1.50000X1.00000*%
%ADD30R,1.50000X1.60000*%
%ADD31R,1.60000X0.40000*%
%ADD32R,1.80000X0.20000*%
%ADD33R,1.80000X1.10000*%
%ADD34R,1.90000X2.10000*%
%ADD35R,2.00000X3.50000*%
%ADD36R,2.80000X1.10000*%
%TA.AperFunction,Conductor*%
%ADD37C,0*%
G01*
%LPD*%
D37*
G36*
X37423820Y55102010D02*
X37501960Y54948660D01*
X37623660Y54826960D01*
X37777010Y54748820D01*
X37947000Y54721900D01*
X38116990Y54748820D01*
X38270340Y54826960D01*
X38392040Y54948660D01*
X38470170Y55102010D01*
X38497100Y55272000D01*
X38470170Y55441990D01*
X38392040Y55595340D01*
X38270340Y55717040D01*
X38116990Y55795170D01*
X37947000Y55822100D01*
X37777010Y55795170D01*
X37623660Y55717040D01*
X37501960Y55595340D01*
X37423820Y55441990D01*
X37396900Y55272000D01*
X37227100D01*
X37200170Y55441990D01*
X37122040Y55595340D01*
X37000340Y55717040D01*
X36846990Y55795170D01*
X36677000Y55822100D01*
X36507010Y55795170D01*
X36353660Y55717040D01*
X36231960Y55595340D01*
X36153820Y55441990D01*
X36126900Y55272000D01*
X35957100D01*
X35930170Y55441990D01*
X35852040Y55595340D01*
X35730340Y55717040D01*
X35576990Y55795170D01*
X35407000Y55822100D01*
X35237010Y55795170D01*
X35083660Y55717040D01*
X34961960Y55595340D01*
X34883820Y55441990D01*
X34856900Y55272000D01*
X34687100D01*
X34660170Y55441990D01*
X34582040Y55595340D01*
X34460340Y55717040D01*
X34306990Y55795170D01*
X34137000Y55822100D01*
X33967010Y55795170D01*
X33813660Y55717040D01*
X33691960Y55595340D01*
X33613820Y55441990D01*
X33586900Y55272000D01*
X28797000D01*
Y56542000D01*
X33586900D01*
X33613820Y56372010D01*
X33691960Y56218660D01*
X33813660Y56096960D01*
X33967010Y56018820D01*
X34137000Y55991900D01*
X34306990Y56018820D01*
X34460340Y56096960D01*
X34582040Y56218660D01*
X34660170Y56372010D01*
X34687100Y56542000D01*
X34856900D01*
X34883820Y56372010D01*
X34961960Y56218660D01*
X35083660Y56096960D01*
X35237010Y56018820D01*
X35407000Y55991900D01*
X35576990Y56018820D01*
X35730340Y56096960D01*
X35852040Y56218660D01*
X35930170Y56372010D01*
X35957100Y56542000D01*
X36126900D01*
X36153820Y56372010D01*
X36231960Y56218660D01*
X36353660Y56096960D01*
X36507010Y56018820D01*
X36677000Y55991900D01*
X36846990Y56018820D01*
X37000340Y56096960D01*
X37122040Y56218660D01*
X37200170Y56372010D01*
X37227100Y56542000D01*
X37396900D01*
X37423820Y56372010D01*
X37501960Y56218660D01*
X37623660Y56096960D01*
X37777010Y56018820D01*
X37947000Y55991900D01*
X38116990Y56018820D01*
X38270340Y56096960D01*
X38392040Y56218660D01*
X38470170Y56372010D01*
X38497100Y56542000D01*
X38470170Y56711990D01*
X38392040Y56865340D01*
X38270340Y56987040D01*
X38116990Y57065170D01*
X37947000Y57092100D01*
X37777010Y57065170D01*
X37623660Y56987040D01*
X37501960Y56865340D01*
X37423820Y56711990D01*
X37396900Y56542000D01*
X37227100D01*
X37200170Y56711990D01*
X37122040Y56865340D01*
X37000340Y56987040D01*
X36846990Y57065170D01*
X36677000Y57092100D01*
X36507010Y57065170D01*
X36353660Y56987040D01*
X36231960Y56865340D01*
X36153820Y56711990D01*
X36126900Y56542000D01*
X35957100D01*
X35930170Y56711990D01*
X35852040Y56865340D01*
X35730340Y56987040D01*
X35576990Y57065170D01*
X35407000Y57092100D01*
X35237010Y57065170D01*
X35083660Y56987040D01*
X34961960Y56865340D01*
X34883820Y56711990D01*
X34856900Y56542000D01*
X34687100D01*
X34660170Y56711990D01*
X34582040Y56865340D01*
X34460340Y56987040D01*
X34306990Y57065170D01*
X34137000Y57092100D01*
X33967010Y57065170D01*
X33813660Y56987040D01*
X33691960Y56865340D01*
X33613820Y56711990D01*
X33586900Y56542000D01*
X28797000D01*
Y57812000D01*
X33586900D01*
X33613820Y57642010D01*
X33691960Y57488660D01*
X33813660Y57366960D01*
X33967010Y57288820D01*
X34137000Y57261900D01*
X34306990Y57288820D01*
X34460340Y57366960D01*
X34582040Y57488660D01*
X34660170Y57642010D01*
X34687100Y57812000D01*
X34856900D01*
X34883820Y57642010D01*
X34961960Y57488660D01*
X35083660Y57366960D01*
X35237010Y57288820D01*
X35407000Y57261900D01*
X35576990Y57288820D01*
X35730340Y57366960D01*
X35852040Y57488660D01*
X35930170Y57642010D01*
X35957100Y57812000D01*
X36126900D01*
X36153820Y57642010D01*
X36231960Y57488660D01*
X36353660Y57366960D01*
X36507010Y57288820D01*
X36677000Y57261900D01*
X36846990Y57288820D01*
X37000340Y57366960D01*
X37122040Y57488660D01*
X37200170Y57642010D01*
X37227100Y57812000D01*
X37396900D01*
X37423820Y57642010D01*
X37501960Y57488660D01*
X37623660Y57366960D01*
X37777010Y57288820D01*
X37947000Y57261900D01*
X38116990Y57288820D01*
X38270340Y57366960D01*
X38392040Y57488660D01*
X38470170Y57642010D01*
X38497100Y57812000D01*
X38470170Y57981990D01*
X38392040Y58135340D01*
X38270340Y58257040D01*
X38116990Y58335170D01*
X37947000Y58362100D01*
X37777010Y58335170D01*
X37623660Y58257040D01*
X37501960Y58135340D01*
X37423820Y57981990D01*
X37396900Y57812000D01*
X37227100D01*
X37200170Y57981990D01*
X37122040Y58135340D01*
X37000340Y58257040D01*
X36846990Y58335170D01*
X36677000Y58362100D01*
X36507010Y58335170D01*
X36353660Y58257040D01*
X36231960Y58135340D01*
X36153820Y57981990D01*
X36126900Y57812000D01*
X35957100D01*
X35930170Y57981990D01*
X35852040Y58135340D01*
X35730340Y58257040D01*
X35576990Y58335170D01*
X35407000Y58362100D01*
X35237010Y58335170D01*
X35083660Y58257040D01*
X34961960Y58135340D01*
X34883820Y57981990D01*
X34856900Y57812000D01*
X34687100D01*
X34660170Y57981990D01*
X34582040Y58135340D01*
X34460340Y58257040D01*
X34306990Y58335170D01*
X34137000Y58362100D01*
X33967010Y58335170D01*
X33813660Y58257040D01*
X33691960Y58135340D01*
X33613820Y57981990D01*
X33586900Y57812000D01*
X28797000D01*
Y61329000D01*
X29597000Y62129000D01*
X41397000D01*
X41997000Y61529000D01*
Y50229000D01*
X41047000Y49279000D01*
X30097000D01*
X28797000Y50579000D01*
Y54002000D01*
X33586900D01*
X33613820Y53832010D01*
X33691960Y53678660D01*
X33813660Y53556960D01*
X33967010Y53478820D01*
X34137000Y53451900D01*
X34306990Y53478820D01*
X34460340Y53556960D01*
X34582040Y53678660D01*
X34660170Y53832010D01*
X34687100Y54002000D01*
X34856900D01*
X34883820Y53832010D01*
X34961960Y53678660D01*
X35083660Y53556960D01*
X35237010Y53478820D01*
X35407000Y53451900D01*
X35576990Y53478820D01*
X35730340Y53556960D01*
X35852040Y53678660D01*
X35930170Y53832010D01*
X35957100Y54002000D01*
X36126900D01*
X36153820Y53832010D01*
X36231960Y53678660D01*
X36353660Y53556960D01*
X36507010Y53478820D01*
X36677000Y53451900D01*
X36846990Y53478820D01*
X37000340Y53556960D01*
X37122040Y53678660D01*
X37200170Y53832010D01*
X37227100Y54002000D01*
X37396900D01*
X37423820Y53832010D01*
X37501960Y53678660D01*
X37623660Y53556960D01*
X37777010Y53478820D01*
X37947000Y53451900D01*
X38116990Y53478820D01*
X38270340Y53556960D01*
X38392040Y53678660D01*
X38470170Y53832010D01*
X38497100Y54002000D01*
X38470170Y54171990D01*
X38392040Y54325340D01*
X38270340Y54447040D01*
X38116990Y54525170D01*
X37947000Y54552100D01*
X37777010Y54525170D01*
X37623660Y54447040D01*
X37501960Y54325340D01*
X37423820Y54171990D01*
X37396900Y54002000D01*
X37227100D01*
X37200170Y54171990D01*
X37122040Y54325340D01*
X37000340Y54447040D01*
X36846990Y54525170D01*
X36677000Y54552100D01*
X36507010Y54525170D01*
X36353660Y54447040D01*
X36231960Y54325340D01*
X36153820Y54171990D01*
X36126900Y54002000D01*
X35957100D01*
X35930170Y54171990D01*
X35852040Y54325340D01*
X35730340Y54447040D01*
X35576990Y54525170D01*
X35407000Y54552100D01*
X35237010Y54525170D01*
X35083660Y54447040D01*
X34961960Y54325340D01*
X34883820Y54171990D01*
X34856900Y54002000D01*
X34687100D01*
X34660170Y54171990D01*
X34582040Y54325340D01*
X34460340Y54447040D01*
X34306990Y54525170D01*
X34137000Y54552100D01*
X33967010Y54525170D01*
X33813660Y54447040D01*
X33691960Y54325340D01*
X33613820Y54171990D01*
X33586900Y54002000D01*
X28797000D01*
Y55272000D01*
X33586900D01*
X33613820Y55102010D01*
X33691960Y54948660D01*
X33813660Y54826960D01*
X33967010Y54748820D01*
X34137000Y54721900D01*
X34306990Y54748820D01*
X34460340Y54826960D01*
X34582040Y54948660D01*
X34660170Y55102010D01*
X34687100Y55272000D01*
X34856900D01*
X34883820Y55102010D01*
X34961960Y54948660D01*
X35083660Y54826960D01*
X35237010Y54748820D01*
X35407000Y54721900D01*
X35576990Y54748820D01*
X35730340Y54826960D01*
X35852040Y54948660D01*
X35930170Y55102010D01*
X35957100Y55272000D01*
X36126900D01*
X36153820Y55102010D01*
X36231960Y54948660D01*
X36353660Y54826960D01*
X36507010Y54748820D01*
X36677000Y54721900D01*
X36846990Y54748820D01*
X37000340Y54826960D01*
X37122040Y54948660D01*
X37200170Y55102010D01*
X37227100Y55272000D01*
X37396900D01*
X37423820Y55102010D01*
G37*
G36*
X74183600Y76778900D02*
Y80679100D01*
X71783400D01*
Y76778900D01*
X70597000D01*
Y82429000D01*
X71397000Y83229000D01*
X78897000D01*
X79797000Y82329000D01*
Y80679100D01*
X77625400D01*
Y76778900D01*
X79797000D01*
Y76639600D01*
X79794800Y76632300D01*
X79774480Y76530770D01*
Y76427230D01*
X79794800Y76325700D01*
X79797000Y76318400D01*
Y75129000D01*
X79297000Y74629000D01*
X71047000D01*
X70597000Y75079000D01*
Y75629000D01*
X70721900D01*
X70747450Y75459480D01*
X70821830Y75305030D01*
X70938430Y75179370D01*
X71086890Y75093650D01*
X71254020Y75055510D01*
X71424970Y75068320D01*
X71584550Y75130950D01*
X71718580Y75237830D01*
X71815140Y75379470D01*
X71865670Y75543280D01*
Y75714710D01*
X71815140Y75878520D01*
X71718580Y76020160D01*
X71584550Y76127050D01*
X71424970Y76189680D01*
X71254020Y76202490D01*
X71086890Y76164340D01*
X70938430Y76078630D01*
X70821830Y75952960D01*
X70747450Y75798510D01*
X70721900Y75629000D01*
X70597000D01*
Y76778900D01*
X71783400D01*
X74183600D01*
G37*
G36*
X54866100Y76411400D02*
Y80411600D01*
X52365900D01*
Y76411400D01*
X50397000D01*
Y82579000D01*
X51047000Y83229000D01*
X56897000D01*
X57547000Y82579000D01*
Y75756000D01*
X57500200Y75752200D01*
X57331510Y75712210D01*
X57182390Y75623770D01*
X57066420Y75494910D01*
X56994110Y75337340D01*
X56972040Y75165390D01*
X57002210Y74994670D01*
X57081900Y74840700D01*
X57101070Y74788850D01*
X57090320Y74734620D01*
X57052800Y74694010D01*
X56999600Y74679000D01*
X55665500D01*
X55650600Y74693600D01*
X55505790Y74797510D01*
X55336120Y74852090D01*
X55157880D01*
X54988210Y74797510D01*
X54843400Y74693600D01*
X54828500Y74679000D01*
X51147000D01*
X50397000Y75429000D01*
Y76411400D01*
X52365900D01*
X54866100D01*
G37*
G36*
X45994700Y74703800D02*
Y76804200D01*
X43994300D01*
Y74703800D01*
X43647000D01*
Y79529000D01*
X44147000Y80029000D01*
X44668800D01*
Y79344200D01*
X43994300D01*
Y77243800D01*
X45994700D01*
Y79344200D01*
X45319200D01*
Y80029000D01*
X46561100D01*
X46611300Y79978800D01*
X46869300D01*
Y79344200D01*
X46194300D01*
Y77243800D01*
X48194700D01*
Y79344200D01*
X47519700D01*
Y80029000D01*
X47847000D01*
X48447000Y79429000D01*
Y74379000D01*
X47897000Y73829000D01*
X46923200D01*
Y74703800D01*
X48194700D01*
Y76804200D01*
X46194300D01*
Y74703800D01*
X46272800D01*
Y73829000D01*
X44197000D01*
X43647000Y74379000D01*
Y74703800D01*
X43994300D01*
X45994700D01*
G37*
D10*
X5102000Y12689000D02*
Y13424000D01*
X5102000Y14594000D02*
Y15334000D01*
X5102000Y16499000D02*
Y17279000D01*
X5097000Y19322900D02*
Y18726500D01*
X5102000Y18721500D01*
X4897000Y21429000D02*
X5102000Y21224000D01*
Y20626500D01*
X7007000Y19674000D02*
X7002000Y19669000D01*
X6297000D01*
X4997000Y19529000D02*
X5097000Y19429000D01*
Y19322900D01*
X4944000Y19476000D01*
X5102000Y22531500D02*
Y22124000D01*
X5547000Y21679000D01*
X6247000Y23479000D02*
X7002000D01*
X7007000Y23484000D01*
X7007000Y21579000D02*
X6247000D01*
X14832000Y38144000D02*
X14476000Y38500000D01*
X13950000D01*
X6196000Y46254000D01*
X5058800D01*
X4722000Y46590800D01*
Y52828400D01*
X6597600Y54704000D01*
X8922000D01*
X9347000Y54279000D01*
X10347000Y53279000D02*
X9802000Y53824000D01*
X6724000D01*
X5800000Y52900000D01*
Y47200000D01*
X14100000Y38900000D01*
X14763000D01*
X15482000Y38181000D01*
Y36819000D01*
X6897000Y52379000D02*
X6200000Y51682000D01*
Y47350000D01*
X14221000Y39329000D01*
X15271300D01*
X16132000Y38468300D01*
Y38164000D01*
X11833000Y19199000D02*
X9167000D01*
X7850000Y17882000D01*
Y14150000D01*
X7024000Y13324000D01*
X7007000D01*
X7007000Y15546500D02*
Y14869000D01*
X7007000Y17451500D02*
Y16719000D01*
X10397000Y28949000D02*
Y28953000D01*
X9833500Y29516500D01*
X8404000D01*
X9293400Y36579000D02*
X8799000D01*
X8721500Y36501500D01*
X7797000Y52929000D02*
X7297000Y52429000D01*
Y51597000D01*
X6547000Y50847000D01*
Y47553000D01*
X14421000Y39679000D01*
X15617000D01*
X16782000Y38514000D01*
Y38214000D01*
X13947000Y42829000D02*
X13621000D01*
X12000000Y44450000D01*
X11136000D01*
X8772000Y46814000D01*
Y48854000D01*
X8347000Y49279000D01*
X11947000Y43329000D02*
X11267000D01*
X6900000Y47696000D01*
Y50650000D01*
X7954000Y51704000D01*
X8922000D01*
X9347000Y51279000D01*
X18082000Y36819000D02*
Y38394000D01*
X17072100Y39403900D01*
X16883800D01*
X16883700Y39404000D01*
X16796900D01*
X16096900Y40104000D01*
X15563700D01*
X15563600Y40103900D01*
X15332100D01*
X12852000Y42584000D01*
X12842000D01*
X12600000Y42826000D01*
Y43350000D01*
X11900000Y44050000D01*
X11041000D01*
X7250000Y47841000D01*
Y50282000D01*
X7747000Y50779000D01*
X8571000D01*
X9071000Y50279000D01*
X9347000D01*
X8347000Y50279000D02*
X7847000Y49779000D01*
X7197000Y53479000D02*
X8147000D01*
X8347000Y53279000D01*
X9072000Y52554000D02*
X8997000Y52629000D01*
Y52729000D01*
X9847000Y50729000D02*
X9221000D01*
X8671000Y51279000D01*
X8347000D01*
X11134500Y8879000D02*
X13497000D01*
X14309500Y8066500D01*
Y7066500D01*
X11833000Y17249000D02*
X10667000D01*
X10297000Y16879000D01*
Y15379000D01*
X11507300Y14168700D01*
X11533000D01*
X13122700Y12579000D01*
X16197000D01*
X16849500Y11926500D01*
Y11355500D01*
X10397000Y28949000D02*
X11833000D01*
X11833000Y32849000D02*
X10327000D01*
X10297000Y32879000D01*
X9997000Y32199000D02*
X11833000D01*
X11833000Y33499000D02*
X10597000D01*
X9293400Y36579000D02*
X9470200Y36755800D01*
X9293400Y36579000D02*
X9470200Y36402200D01*
X10000600Y36579000D02*
X9823800Y36402200D01*
X10000600Y36579000D02*
X9823800Y36755800D01*
X10000600Y36579000D02*
X9647000D01*
X9293400D01*
X11833000Y35449000D02*
X10601000D01*
X10250000Y35800000D01*
Y36329600D01*
X10000600Y36579000D01*
X18732000Y36819000D02*
Y38244000D01*
X17222100Y39753900D01*
X17028800D01*
X16617000Y40165700D01*
X16616900D01*
X16328600Y40454000D01*
X15496000D01*
X14297000Y41653000D01*
Y42974100D01*
X14092100Y43179000D01*
X13771000D01*
X11950000Y45000000D01*
X11081000D01*
X9347000Y46734000D01*
Y48279000D01*
X19382000Y36819000D02*
X19347000Y36854000D01*
Y38294000D01*
X17537100Y40103900D01*
X17173800D01*
X16762000Y40515700D01*
X16761900D01*
X16678600Y40599000D01*
Y40599100D01*
X16473700Y40804000D01*
X15646000D01*
X14647000Y41803000D01*
Y43119100D01*
X14237100Y43529000D01*
X13921000D01*
X11521200Y45928800D01*
X11117200D01*
X11117100Y45928900D01*
X10647100D01*
X9850000Y46726000D01*
Y48550000D01*
X9347000Y49053000D01*
Y49279000D01*
X20682000Y36819000D02*
Y37694000D01*
X20047100Y38328900D01*
X19807100D01*
X17682100Y40453900D01*
X17318900D01*
X16422000Y41350800D01*
Y42334100D01*
X12477200Y46278900D01*
X10988600D01*
X10277500Y46990000D01*
X10347000Y50279000D02*
X9850000Y49782000D01*
Y49100000D01*
X10160000Y48790000D01*
X10527500D01*
X10877500Y48440000D01*
Y47490000D01*
X11391000Y46976500D01*
X11591000D01*
X21332000Y36819000D02*
Y37829000D01*
X20482100Y38678900D01*
X19952100D01*
X17827000Y40804000D01*
X17463800D01*
X16847000Y41420800D01*
Y42404100D01*
X12622200Y46628900D01*
X11288600D01*
X10347000Y47570500D01*
Y48279000D01*
X11347000Y48279000D02*
Y47679000D01*
X21982000Y36819000D02*
Y37879000D01*
X20832000Y39029000D01*
X20097000D01*
X17972000Y41154000D01*
X17608800D01*
X17197000Y41565800D01*
Y42549100D01*
X11797000Y47949100D01*
Y48570500D01*
X11538500Y48829000D01*
X11038500D01*
X10588500Y49279000D01*
X10347000D01*
X11895400Y49780800D02*
X11897000Y49782400D01*
Y49803000D01*
X11421000Y50279000D01*
X11347000D01*
X11013500Y49654000D02*
X10797000D01*
X11013500Y49654000D02*
X11347000Y49320500D01*
Y49279000D01*
X11355500Y49270500D01*
X11597000D01*
X12088500Y48779000D01*
X12447000D01*
X12522000Y48704000D01*
X12523100D01*
X12772000Y48455100D01*
Y47434000D01*
X17227000Y42979000D01*
X17771000D01*
X18897000Y41853000D01*
Y40779000D01*
X10797000Y49729000D02*
X10938500D01*
X11013500Y49654000D01*
X10347000Y52279000D02*
X10847000Y52779000D01*
X11347000Y52279000D02*
X11947000Y51679000D01*
X11347000Y53279000D02*
X10847000Y53779000D01*
X10847000Y51779000D02*
X11347000Y51279000D01*
X9072000Y52554000D02*
Y52729000D01*
X9347000Y52279000D02*
X9072000Y52554000D01*
X10847000Y50829000D02*
X10797000D01*
X10347000Y51279000D01*
X9847000Y52779000D02*
X9347000Y53279000D01*
X10347000Y55279000D02*
Y57279000D01*
X11347000Y55279000D02*
Y57279000D01*
X9897000Y55579000D02*
Y54729000D01*
X10347000Y54279000D01*
X14309500Y5767500D02*
Y7066500D01*
X14309500Y11355500D02*
Y10791500D01*
X13297000Y9779000D01*
X12397000D01*
X11833000Y16599000D02*
Y14567000D01*
X13400000Y13000000D01*
X17526000D01*
X18119500Y12406500D01*
Y11355500D01*
X11833000Y32199000D02*
X13927000D01*
X14397000Y31729000D01*
Y21679000D01*
X14147000Y21429000D01*
X11833000Y24399000D02*
X13077000D01*
X13266900Y24398900D01*
X13297000Y24429000D01*
X11833000Y25049000D02*
X13347000D01*
X13421900Y30249000D02*
Y30229000D01*
X11833000Y34149000D02*
X13097000D01*
X12897000Y45079000D02*
X13182100D01*
X14997000Y43264100D01*
Y42579000D01*
X15847000Y41729000D01*
X22632000Y38214000D02*
X22094500Y38751500D01*
X21863800D01*
X21322000Y39293300D01*
Y41450000D01*
X20597000Y42175000D01*
Y42179000D01*
X19159400Y43616600D01*
X17134400D01*
X13347000Y47404000D01*
Y48279000D01*
X14347000Y48279000D02*
Y47403000D01*
X15296000Y46454000D01*
X16467000Y44779000D02*
X13897000Y47349000D01*
Y48729000D01*
X13347000Y49279000D01*
X12347000Y49279000D02*
X12550000D01*
X12847000Y48982000D01*
Y48979000D01*
X13347000Y50279000D02*
X13847000Y49779000D01*
X15347000Y46979000D02*
X14847000Y47479000D01*
Y48779000D01*
X14347000Y49279000D01*
X20897000Y45429000D02*
X20650000Y45676000D01*
Y47881000D01*
X18781000Y49750000D01*
X14876000D01*
X14347000Y50279000D01*
X12347000Y50279000D02*
X12397000D01*
X12947000Y49729000D01*
X13347000Y53279000D02*
X13847000Y52779000D01*
X11847000Y52829000D02*
Y52779000D01*
X12347000Y52279000D01*
X12847000Y53779000D02*
X12347000Y53279000D01*
X13847000Y51779000D02*
X13347000Y52279000D01*
X13797000Y50829000D02*
X13347000Y51279000D01*
X12347000Y51279000D02*
X12847000Y51779000D01*
X14897000Y52779000D02*
X14847000D01*
X14347000Y53279000D01*
X13847000Y54729000D02*
X13397000Y54279000D01*
X13347000D01*
X12347000Y55279000D02*
Y55979000D01*
X13347000Y55279000D02*
Y56079000D01*
X12347000Y54279000D02*
X12797000Y54729000D01*
Y56197000D01*
X13100000Y56500000D01*
X15000000D01*
X15772000Y55728000D01*
Y54016000D01*
X21650000Y48138000D01*
Y43575700D01*
X22047000Y43178700D01*
Y42179000D01*
X23097000Y41129000D01*
X23847000D01*
X24727000Y40249000D01*
Y38624000D01*
X24582000Y38479000D01*
Y36819000D01*
X21197000Y46079000D02*
Y48030100D01*
X15448100Y53779000D01*
X14847000D01*
X14347000Y54279000D01*
X14847000Y69325400D02*
Y69129000D01*
X13671000Y67953000D01*
X13297000D01*
X18750000Y77400000D02*
X18747000Y77403000D01*
Y78929000D01*
X18147000Y79529000D01*
X16129000D01*
X15600000Y79000000D01*
X13900000D01*
X13397000Y78497000D01*
X13147000Y78247000D01*
Y78229000D01*
X13397000Y78497000D02*
X13147000Y78479000D01*
X13397000Y78497000D02*
Y78229000D01*
X16495400Y4300000D02*
X16672700Y4477300D01*
X16495400Y4300000D02*
X16672700Y4123700D01*
X16495400Y4300000D02*
X16000000D01*
X15579500Y4720500D01*
Y5767500D01*
X16849500Y4654100D02*
X17026300Y4477300D01*
X16849500Y4654100D02*
X16672700Y4477300D01*
X16849500Y4654100D02*
Y4300500D01*
X16849000Y4300000D01*
X16495400D01*
X16849500Y5767500D02*
Y4654100D01*
X15579500Y11355500D02*
Y9770500D01*
X16350000Y9000000D01*
X19650000D01*
X20500000Y8150000D01*
Y7203600D01*
X16849500Y11355500D02*
Y10081500D01*
X16782000Y15229000D02*
Y17064000D01*
X17031300Y17313300D01*
Y25879000D01*
X16767000Y13864000D02*
Y15214000D01*
X16782000Y15229000D01*
X16132000Y15229000D02*
Y17064000D01*
X16627500Y17559500D01*
Y26237900D01*
X16117000Y13764000D02*
X16132000Y13779000D01*
Y15229000D01*
X15482000Y15229000D02*
Y17064000D01*
X16177500Y17759500D01*
Y26654000D01*
X15482000Y13929000D02*
Y15229000D01*
X14847000Y18529000D02*
X15422000Y19104000D01*
Y19991600D01*
X14832000Y20581600D01*
Y36819000D01*
X16782000Y36819000D02*
Y31044500D01*
X15697000Y29959500D01*
Y22879000D01*
X16132000Y36819000D02*
Y31094500D01*
X15347000Y30309500D01*
Y27429000D01*
X15482000Y36819000D02*
X15497000Y36804000D01*
Y31479000D01*
X14832000Y36819000D02*
Y38144000D01*
X16132000Y38164000D02*
Y36819000D01*
X16782000Y38214000D02*
Y36819000D01*
X15296000Y46454000D02*
X15497000D01*
X15296000Y46454000D02*
X15371000Y46379000D01*
X15497000D01*
X16147000Y54129000D02*
X22100000Y48176000D01*
Y43550000D01*
X25100000Y40550000D01*
Y38476000D01*
X25232000Y38344000D01*
Y36819000D01*
X14758500Y50917500D02*
X14833500Y50844400D01*
X14758500Y50917500D02*
Y50769400D01*
X14758500Y50917500D02*
X14397000Y51279000D01*
X14347000D01*
X14833500Y50769400D02*
X14847000D01*
Y50829000D01*
X14758500Y50917500D01*
X14847000Y51879000D02*
X14821000D01*
X14421000Y52279000D01*
X14347000D01*
X15347000Y53279000D02*
X15847000Y52779000D01*
X16147000Y54729000D02*
X22047000Y48829000D01*
Y48803000D01*
X22450000Y48400000D01*
Y43700000D01*
X25482000Y40668000D01*
Y38818000D01*
X25882000Y38418000D01*
Y36819000D01*
X14847000Y69325400D02*
X14670200Y69502200D01*
X14847000Y69325400D02*
X15023800Y69502200D01*
X14847000Y69679000D02*
Y69325400D01*
X14847000Y70032600D02*
X15023800Y69855800D01*
X14847000Y70032600D02*
X14670200Y69855800D01*
X14847000Y70032600D02*
Y72629000D01*
X14947000Y72729000D01*
Y73329000D01*
X14847000Y69679000D02*
Y70032600D01*
X18100000Y10100000D02*
X18119500Y10080500D01*
Y11355500D01*
X17432000Y15229000D02*
Y16444000D01*
X17847000Y16859000D01*
Y22770500D01*
X17427500Y23190000D01*
Y28690000D01*
X17417000Y13914000D02*
Y15214000D01*
X17432000Y15229000D01*
X19709400Y20359500D02*
Y20371900D01*
X21560000Y22222500D01*
Y30557500D01*
X21332000Y30785500D01*
Y36819000D01*
X17779000Y24629000D02*
Y24689600D01*
X17777500Y24691100D01*
Y28590000D01*
X20682000Y31494500D01*
Y36819000D01*
X18082000Y35494000D02*
Y36819000D01*
X18732000Y35444000D02*
Y36819000D01*
X19382000Y35464000D02*
Y36819000D01*
X25247000Y56542000D02*
X24655000Y55950000D01*
X22326000D01*
X21647000Y56629000D01*
X19947000D01*
X19347000Y56029000D01*
Y55979000D01*
X19072000Y73014000D02*
X20250000Y74192000D01*
Y77400000D01*
X18250000Y77400000D02*
Y78779000D01*
X20500000Y7203600D02*
X20676800Y7026800D01*
X20500000Y7203600D02*
X20323200Y7026800D01*
X20500000Y7203600D02*
Y6850000D01*
X27581000Y16599000D02*
Y14381000D01*
X25650000Y12450000D01*
X21600000D01*
X20750000Y11600000D01*
Y11350000D01*
X20750000Y11600000D02*
X20500000D01*
X20500000Y11350000D02*
X20750000Y11600000D01*
X21982000Y15229000D02*
Y16219700D01*
X21772700Y16429000D01*
X21658200D01*
X20676500Y17410700D01*
Y17538600D01*
X20676400Y17538700D01*
Y17787100D01*
X20676500Y17787200D01*
Y18288500D01*
X20676600Y18288600D01*
Y19339100D01*
X22227500Y20890000D01*
Y28540000D01*
X22017000Y13764000D02*
Y15194000D01*
X21982000Y15229000D01*
X25882000Y36819000D02*
Y35794500D01*
X24327500Y34240000D01*
Y19040000D01*
X22966500Y17679000D01*
X22247000D01*
X23277500Y28040000D02*
Y20090000D01*
X21576600Y18389100D01*
Y17861400D01*
X22109000Y17329000D01*
X22796900D01*
X23297000Y16829000D01*
X23932000Y16194000D01*
Y15229000D01*
X22927500Y27540000D02*
Y20290000D01*
X21276600Y18639100D01*
Y18040000D01*
X21276500Y18039900D01*
Y17791500D01*
X21276600Y17791400D01*
Y17666500D01*
X21452200Y17490900D01*
X21452300D01*
X21909200Y17034000D01*
X21979700D01*
X21984700Y17029000D01*
X22445900D01*
X22946000Y16529000D01*
X23282000Y16193000D01*
Y15229000D01*
X23077500Y30079000D02*
Y28740000D01*
X22927500Y28590000D01*
Y28140000D01*
X22577500Y27790000D01*
Y20590000D01*
X20976600Y18989100D01*
Y18164300D01*
X20976500Y18164200D01*
Y17662900D01*
X20976600Y17662800D01*
Y17534900D01*
X21782500Y16729000D01*
X22097000D01*
X22632000Y16194000D01*
Y15229000D01*
X24582000Y36819000D02*
X24547000Y36784000D01*
Y35571000D01*
X23627500Y34651500D01*
Y19659500D01*
X22347000Y18379000D01*
X25232000Y36819000D02*
X25247000Y36804000D01*
Y35709500D01*
X23977500Y34440000D01*
Y19240000D01*
X22771500Y18034000D01*
X21946300D01*
X21921600Y18058700D01*
X21477500Y20690000D02*
X21872000Y21084500D01*
Y23384700D01*
X21877500Y23390200D01*
Y30664300D01*
X21872000Y30669800D01*
Y35467300D01*
X21982000Y35577300D01*
Y36819000D01*
X20032000Y36819000D02*
X20047000Y36804000D01*
Y35229000D01*
X19797000Y40229000D02*
X19947000Y40079000D01*
Y40071500D01*
X20342000Y39676500D01*
X22697100Y40229000D02*
X22697000D01*
X22247000Y39779000D01*
Y39676500D01*
X23932000Y36819000D02*
Y38969000D01*
X23522000Y39379000D01*
Y40154000D01*
X21197000Y42479000D01*
Y43179000D01*
X21747000Y52779000D02*
X21997000D01*
X22622000Y53404000D01*
X24649000D01*
X25247000Y54002000D01*
X23977000Y52732000D02*
X23325200Y52080200D01*
X22530500D01*
X22513700Y52097000D01*
X21697000D01*
X20047000Y55329000D02*
X20071000D01*
X20750000Y54650000D01*
X24625000D01*
X25247000Y55272000D01*
X20267800Y56079000D02*
X21074800Y55272000D01*
X23977000D01*
X23977000Y54002000D02*
X23854000Y53879000D01*
X22447000D01*
X22047000Y53479000D01*
X23977000Y64162000D02*
X20346500D01*
X19807000Y64701500D01*
X19807000Y66606500D02*
X21616500Y64797000D01*
X24303000D01*
X24938000Y64162000D01*
X25247000D01*
X19807000Y68511500D02*
X22268500Y66050000D01*
X24101500D01*
X24650000Y65501500D01*
Y65150000D01*
X25003000Y64797000D01*
X25882000D01*
X26517000Y64162000D01*
X19807000Y70416500D02*
X20659500D01*
X20977000Y73014000D02*
X21047000Y73084000D01*
Y73882000D01*
X20750000Y74179000D01*
Y77400000D01*
Y79076000D01*
X20747000Y79079000D01*
X21750000Y77400000D02*
Y76276000D01*
X22882000Y75144000D01*
Y73014000D01*
X21797000Y81229000D02*
Y79650000D01*
X21750000Y79603000D01*
Y77400000D01*
X21250000Y76032000D02*
Y77400000D01*
X21250000Y76032000D02*
Y75598500D01*
X21929500Y74919000D01*
X20250000Y77400000D02*
Y78876000D01*
X20047000Y79079000D01*
X23932000Y15229000D02*
X23917000Y15214000D01*
Y14029000D01*
X23282000Y15229000D02*
X23267000Y15214000D01*
Y14029000D01*
X22632000Y15229000D02*
X22667000Y15194000D01*
Y14079000D01*
X27581000Y20499000D02*
X25118500D01*
X24704500Y20913000D01*
Y33852600D01*
X27581000Y19199000D02*
X25318500D01*
X24727500Y19790000D01*
X27581000Y18549000D02*
X26427000D01*
X26136000Y18840000D01*
X25027500D01*
X24738500Y19129000D01*
X24727500D01*
X22632000Y36819000D02*
Y38214000D01*
X36797000Y26429000D02*
X36533000D01*
X36202000Y26760000D01*
Y27232900D01*
X36222000Y27252900D01*
Y27678000D01*
X35950000Y27950000D01*
X31921000D01*
X31242000Y28629000D01*
X30952000D01*
X30747000Y28834000D01*
Y29117000D01*
X30827500Y29197500D01*
Y34572500D01*
X26647000Y38753000D01*
Y40053000D01*
X23452000Y43248000D01*
Y44584000D01*
X23977000Y45109000D01*
Y45112000D01*
X23977000Y43842000D02*
Y43223000D01*
X26997000Y40203000D01*
Y39003000D01*
X31377500Y34622500D01*
Y33058500D01*
X33507000Y30929000D01*
X34297000D01*
X34797000Y30429000D01*
X25247000Y45112000D02*
X24722000Y44587000D01*
Y43028000D01*
X27347000Y40403000D01*
Y39153000D01*
X31800000Y34700000D01*
Y33201700D01*
X33572700Y31429000D01*
X33797000D01*
X24493900Y46382000D02*
X24594000Y46482000D01*
X24493900Y46382000D02*
X24594000Y46376000D01*
X24493900Y46382000D02*
X23977000D01*
X24647000Y46429000D02*
X24600000Y46382000D01*
X24493900D01*
X25247000Y46382000D02*
Y46329000D01*
X24697000Y45779000D01*
X23977000Y47652000D02*
X23247000D01*
X24597000Y47029000D02*
X24624000D01*
X25247000Y47652000D01*
X23977000Y48922000D02*
X23342000Y48287000D01*
X23977000Y50192000D02*
X23342000Y49557000D01*
X25247000Y50192000D02*
X24612000Y49557000D01*
X25247000Y52732000D02*
X24612000Y52097000D01*
X23977000Y51462000D02*
X23342000Y50827000D01*
X23977000Y56542000D02*
X23342000Y57177000D01*
X25247000Y57812000D02*
X24612000Y58447000D01*
X23977000Y57812000D02*
X23342000Y58447000D01*
X24900000Y59450000D02*
X24600000D01*
X24900000Y59450000D02*
X24850000Y59700000D01*
X24900000Y59450000D02*
X25247000Y59103000D01*
Y59082000D01*
X24600000Y59700000D02*
X24650000D01*
Y59750000D01*
X24700000Y59700000D01*
Y59650000D01*
X24900000Y59450000D01*
X24855000Y62500000D02*
X24850000Y62250000D01*
X24855000Y62500000D02*
X24600000D01*
X24855000Y62500000D02*
X25247000Y62892000D01*
X24600000Y62250000D02*
X24650000Y62300000D01*
X24655000D01*
X24855000Y62500000D01*
X23600000Y62500000D02*
Y62250000D01*
X23600000Y62500000D02*
X23350000D01*
X23600000Y62500000D02*
X23350000Y62250000D01*
X23977000Y62892000D02*
Y62877000D01*
X23600000Y62500000D01*
X23977000Y66702000D02*
X23342000Y67337000D01*
X25247000Y65432000D02*
X24612000Y66067000D01*
X23997000Y68829000D02*
X23977000Y68809000D01*
Y67972000D01*
X25247000Y66702000D02*
X24612000Y67337000D01*
X23750000Y77400000D02*
Y78596800D01*
X23735300D01*
X22750000Y77400000D02*
Y75979000D01*
X24750000Y77400000D02*
Y78650000D01*
X24850000Y78750000D01*
Y80076000D01*
X24097000Y80829000D01*
X26000000Y10100000D02*
X25997000Y10097000D01*
Y7835100D01*
X26100000Y7732000D01*
X25997000Y7835100D02*
X25994000Y7732000D01*
X26047000Y7679000D02*
X25997000Y7729000D01*
Y7835100D01*
X27000000Y8838100D02*
X26844000Y8682000D01*
X27000000Y8838100D02*
Y8732000D01*
X26897000Y8629000D01*
X27000000Y10100000D02*
Y8838100D01*
X27581000Y17249000D02*
X26267000D01*
X27581000Y24399000D02*
X26236500D01*
X25127500Y23290000D01*
Y21290000D01*
X27581000Y21149000D02*
X26326000D01*
X26117000Y20940000D01*
X27581000Y19849000D02*
X28697000D01*
X28997000Y19549000D01*
Y19179000D01*
X27581000Y23749000D02*
X26367000D01*
X27581000Y23099000D02*
X26522000D01*
X26301700Y23319300D01*
X26111200D01*
X27581000Y22449000D02*
X26677000D01*
X26297000Y22829000D01*
X27581000Y21799000D02*
X25686500D01*
X25677500Y21790000D01*
X27581000Y25049000D02*
X26267000D01*
X27581000Y28949000D02*
X28967000D01*
X27581000Y27649000D02*
X29017000D01*
X27581000Y26999000D02*
X25518500D01*
X25077500Y27440000D01*
Y32840000D01*
X27581000Y28299000D02*
X26027000D01*
X25847000Y28479000D01*
Y29079000D01*
X27581000Y30249000D02*
X25886500D01*
X25477500Y29840000D01*
Y28040000D01*
X27581000Y31549000D02*
X26417000D01*
X27581000Y30899000D02*
X27541500Y30859500D01*
X25577500D01*
X27581000Y29599000D02*
X26347000D01*
X27581000Y33499000D02*
X28917000D01*
X27581000Y34799000D02*
X28967000D01*
X27581000Y35449000D02*
X27611000Y35479000D01*
X29271000D01*
X30477500Y34272500D01*
Y29342500D01*
X30097000Y28962000D01*
Y25900000D01*
X25697000Y34979000D02*
X26167000Y35449000D01*
X27581000D01*
X27962000Y39676500D02*
Y40414000D01*
X25247000Y43129000D01*
Y43842000D01*
X33797000Y32429000D02*
X33238500D01*
X32200000Y33467500D01*
Y35100000D01*
X30959100Y36340900D01*
X30958900D01*
X29177500Y38123500D01*
Y39026400D01*
X28827500Y39376400D01*
Y40448500D01*
X25897000Y43379000D01*
Y44492000D01*
X26517000Y45112000D01*
X26517000Y43842000D02*
X28530000Y41829000D01*
X31338500D01*
X32047000Y41120500D01*
Y39720500D01*
X34297000Y37470500D01*
Y34929000D01*
X34797000Y34429000D01*
X34797000Y35429000D02*
Y37479000D01*
X33650000Y38626000D01*
Y40071000D01*
X31464100Y42256900D01*
X28629600D01*
X27262000Y43624500D01*
Y44587000D01*
X27787000Y45112000D01*
X25647000Y46979000D02*
X25847000D01*
X26517000Y47649000D01*
Y47652000D01*
X26517000Y46382000D02*
X25964000Y45829000D01*
X25947000D01*
X27170400Y49917100D02*
X26791800D01*
X26517000Y50192000D01*
X26857400Y48161200D02*
X26517000Y48501600D01*
Y48922000D01*
X25247000Y48922000D02*
X25272000D01*
X25829000Y49479000D01*
X25847000D01*
X26517000Y54002000D02*
X25882000Y53367000D01*
X26517000Y52732000D02*
X25882000Y52097000D01*
X27787000Y52732000D02*
X27152000Y52097000D01*
X25247000Y51462000D02*
X25797000Y50912000D01*
Y50879000D01*
X26517000Y51462000D02*
X26538000D01*
X27071000Y50929000D01*
X27097000D01*
X26517000Y55272000D02*
X25882000Y54637000D01*
X27787000Y55272000D02*
X27152000Y54637000D01*
X26517000Y56542000D02*
X25882000Y57177000D01*
X27787000Y57812000D02*
X27152000Y58447000D01*
X26517000Y57812000D02*
X25882000Y58447000D01*
X26116300Y59483700D02*
X25866300D01*
X26116300Y59483700D02*
Y59733700D01*
X26116300Y59483700D02*
X26517000Y59083000D01*
Y59082000D01*
X25866300Y59733700D02*
X26116300Y59483700D01*
X26517000Y62892000D02*
X25882000Y63527000D01*
X27787000Y65432000D02*
X27150000Y66068900D01*
Y66811500D01*
X26611500Y67350000D01*
X26396500D01*
X25847000Y67899500D01*
Y69222900D01*
X26517000Y66702000D02*
X25890000Y67329000D01*
X25597000D01*
X26517000Y65432000D02*
X25882000Y66067000D01*
X25847000Y69222900D02*
Y69329000D01*
X25897000Y69379000D01*
X25847000Y69222900D02*
X25950000Y69326000D01*
X25847000Y69222900D02*
X25844000Y69326000D01*
X29057000Y65432000D02*
X28400000Y66088900D01*
Y66831500D01*
X27784500Y67447000D01*
X27569500D01*
X27262000Y67754500D01*
Y69379000D01*
X25247000Y67972000D02*
Y68729000D01*
X26517000Y67972000D02*
Y68679000D01*
X27787000Y66702000D02*
X27152000Y67337000D01*
X29250000Y77400000D02*
Y74432000D01*
X28697000Y73879000D01*
X27397000D01*
X25750000Y77400000D02*
Y75729000D01*
X26250000Y77400000D02*
Y79932000D01*
X26447000Y80129000D01*
X26750000Y77400000D02*
Y78829000D01*
X27250000Y77400000D02*
Y79429000D01*
X25250000Y77400000D02*
Y79670000D01*
X25659000Y80079000D01*
X29000000Y10100000D02*
Y8123000D01*
X29597000Y7526000D01*
X28000000Y10100000D02*
Y8976000D01*
X28397000Y8579000D01*
X30000000Y8782000D02*
Y8601000D01*
X30000000Y8782000D02*
Y10100000D01*
X29947000Y8579000D02*
Y8729000D01*
X30000000Y8782000D01*
X30097000Y25900000D02*
Y15803000D01*
X30697000Y15203000D01*
Y12999000D01*
X30947000Y12749000D01*
Y12579000D01*
X30297000Y14929000D02*
Y14953000D01*
X29747000Y15503000D01*
Y31169000D01*
X30057000Y31479000D01*
X30097000D01*
X34797000Y26429000D02*
X34697000Y26329000D01*
X34666500D01*
X34237500Y25900000D01*
X30097000D01*
X29247000Y40779000D02*
X29697000Y40329000D01*
Y39719500D01*
X29740000Y39676500D01*
X27787000Y43842000D02*
Y43781600D01*
X28911700Y42656900D01*
X31864000D01*
X33997000Y40523900D01*
Y39078700D01*
X34000000Y39075700D01*
Y38876000D01*
X35297000Y37579000D01*
Y34929000D01*
X35797000Y34429000D01*
X29647000Y44736000D02*
X29433000D01*
X29057000Y45112000D01*
X29697000Y43429000D02*
X29914000D01*
X30327000Y43842000D01*
X30327000Y45112000D02*
X30862000Y44577000D01*
X30899000D01*
X30947000Y44529000D01*
X29057000Y43179000D02*
Y43842000D01*
X30897000Y46829000D02*
X30450000Y46382000D01*
X30327000D01*
X29057000Y46382000D02*
X29068000D01*
X29547000Y45903000D01*
Y45879000D01*
X28527500Y45729000D02*
X28521000D01*
X27868000Y46382000D01*
X27787000D01*
X27787000Y50192000D02*
X28297000Y49682000D01*
X28997000Y69389000D02*
X28450000Y68842000D01*
Y67309000D01*
X29057000Y66702000D01*
X30327000Y65432000D02*
X29692000Y66067000D01*
X30327000Y66702000D02*
X29947000Y67082000D01*
Y67329000D01*
X29047000Y68679000D02*
Y67982000D01*
X29057000Y67972000D01*
X31400000Y70100000D02*
X30327000Y69027000D01*
Y67972000D01*
X27797000Y68679000D02*
X27787000Y68669000D01*
Y67972000D01*
X28750000Y77400000D02*
Y79479000D01*
X30250000Y77400000D02*
Y78679000D01*
X29750000Y77400000D02*
Y79229000D01*
X28250000Y77400000D02*
Y76182000D01*
X27750000Y77400000D02*
Y76089300D01*
X28560300Y75279000D01*
X28597000D01*
X29847000Y79979000D02*
X30675000Y79151000D01*
X36250000Y77400000D02*
Y78332000D01*
X36397000Y78479000D01*
Y79679000D01*
X35297100Y80778900D01*
Y80779100D01*
X35297000Y80779000D01*
X32647000Y83429000D01*
X29347000D01*
X28697000Y82779000D01*
X32000000Y10100000D02*
Y7732000D01*
X31000000Y10100000D02*
Y8876000D01*
X31297000Y8579000D01*
X31047000Y14579000D02*
Y15453000D01*
X30447000Y16053000D01*
Y24829000D01*
X30947000Y25329000D01*
X31747000Y14279000D02*
Y15655200D01*
X32102500Y16010700D01*
Y16894200D01*
X31850000Y17147100D01*
Y19250000D01*
X32747000Y20147000D01*
Y20317000D01*
X33284000Y20854000D01*
X33823100D01*
X34222000Y21252900D01*
Y21704000D01*
X34447000Y21929000D01*
X34797000Y21429000D02*
Y21109500D01*
X34277500Y20590000D01*
Y19259500D01*
X33100000Y18082000D01*
Y17228000D01*
X32947000Y17075000D01*
Y15729000D01*
X33033100Y14344000D02*
X32915000Y14226000D01*
X33033100Y14344000D02*
X32927000D01*
X32862000Y14279000D01*
X32447000Y21529000D02*
X32097000D01*
X31247000Y20679000D01*
Y16529500D01*
X31527500Y16249000D01*
X31597000Y19929000D02*
X32029000D01*
X32397000Y20297000D01*
Y20469000D01*
X33357000Y21429000D01*
X33797000D01*
X32047000Y20479000D02*
Y20624000D01*
X33352000Y21929000D01*
X33898100D01*
X34398100Y22429000D01*
X34797000D01*
X31697000Y23429000D02*
X33797000D01*
X30797000Y22379000D02*
X30997000D01*
X31622000Y23004000D01*
X34372000D01*
X34797000Y23429000D01*
X32447000Y21529000D02*
X33347000Y22429000D01*
X33797000D01*
X31047000Y26479000D02*
X32597000D01*
X33047000Y26929000D01*
X34297000D01*
X34797000Y27429000D01*
X30997000Y24479000D02*
X31947000Y25429000D01*
X33797000D01*
X31194000Y28182000D02*
X31047000D01*
X31194000Y28182000D02*
X31122000Y28257000D01*
X31194000Y28182000D02*
X31947000Y27429000D01*
X33797000D01*
X31047000Y28257000D02*
Y28279000D01*
X31097000D01*
X31194000Y28182000D01*
X31097000Y28979000D02*
X31521000D01*
X32071000Y28429000D01*
X33797000D01*
X31897000Y31379000D02*
Y30379000D01*
X32847000Y29429000D01*
X33797000D01*
X32447000Y31229000D02*
Y31220500D01*
X33238500Y30429000D01*
X33797000D01*
X31264000Y39676500D02*
Y40712000D01*
X32500000Y40650000D02*
Y40200000D01*
X33008000Y39692000D01*
X33100000D01*
X33084500Y39676500D01*
X33042000D01*
X31597000Y45112000D02*
X31614000D01*
X32197000Y44529000D01*
X33353500Y44379000D02*
Y44328500D01*
X32867000Y43842000D01*
X32867000Y45112000D02*
X33000000Y44979000D01*
X33547000D01*
X31597000Y43842000D02*
X31860000Y43579000D01*
X32297000D01*
X32197000Y46079000D02*
X31900000D01*
X31597000Y46382000D01*
X32247000Y46829000D02*
Y47029000D01*
X32867000Y47649000D01*
Y47652000D01*
X33547000Y45679000D02*
Y45702000D01*
X32867000Y46382000D01*
X32867000Y64162000D02*
X33350000Y63679000D01*
X33347000D01*
X32097000Y64879000D02*
Y65189500D01*
X32122000Y65214500D01*
Y65649500D01*
X31597000Y66174500D01*
Y66702000D01*
X31597000Y65432000D02*
X31197000Y65832000D01*
Y66079000D01*
X32867000Y65432000D02*
X32232000Y66067000D01*
X31597000Y67972000D02*
X30962000Y68607000D01*
X33250000Y77400000D02*
Y75350000D01*
X32672000Y74772000D01*
Y71828000D01*
X36122000Y68378000D01*
Y67257000D01*
X36677000Y66702000D01*
X31250000Y77400000D02*
Y78726000D01*
X30750000Y78929000D02*
Y77400000D01*
X32250000Y77400000D02*
Y76132000D01*
X31750000Y77400000D02*
Y78679000D01*
X30675000Y79151000D02*
Y78929000D01*
X30675000Y79151000D02*
X30750000Y79076000D01*
Y78929000D01*
X35750000Y77400000D02*
Y78282000D01*
X36047000Y78579000D01*
Y79429000D01*
X34197000Y81279000D01*
X33847000D01*
X32347000Y82779000D01*
X35250000Y77400000D02*
Y78203900D01*
X35224900Y78229000D01*
X35697000Y78701100D01*
Y79221500D01*
X34089500Y80829000D01*
X32497000D01*
X30547000Y82779000D01*
X36797000Y20429000D02*
Y19559500D01*
X36447000Y19209500D01*
Y19074000D01*
X36446900Y19073900D01*
Y18784100D01*
X36447000Y18784000D01*
Y18783900D01*
X36547000Y18683900D01*
Y13847000D01*
X34924700Y12224700D01*
X34897000D01*
X34922400Y12199300D01*
X36047000Y19979000D02*
Y19964000D01*
X35747000Y19664000D01*
Y19364000D01*
X35746900Y19363900D01*
Y18494100D01*
X35747000Y18494000D01*
Y18493900D01*
X35847000Y18393900D01*
Y17034000D01*
X35642000Y16829000D01*
X35350300D01*
X34894100Y16372800D01*
Y16081000D01*
X34497000Y15683900D01*
Y13329000D01*
X34647000Y13179000D01*
X34791500Y12654000D02*
X34597000D01*
X34791500Y12654000D02*
X36197000Y14059500D01*
Y18538900D01*
X36097000Y18638900D01*
Y18639000D01*
X36096900Y18639100D01*
Y19218900D01*
X36097000Y19219000D01*
Y19359500D01*
X36427500Y19690000D01*
Y20197400D01*
X36327500Y20297400D01*
Y20664400D01*
X36797000Y21133900D01*
Y21429000D01*
X34597000Y12579000D02*
X34716500D01*
X34791500Y12654000D01*
X33558500Y14344000D02*
X33033100D01*
X35586500Y14344000D02*
X35212000D01*
X34847000Y13979000D01*
X34297000Y16229000D02*
X33575500D01*
X33555500Y16249000D01*
X34797000Y20429000D02*
X34627500Y20259500D01*
Y18859500D01*
X34333800Y18565800D01*
Y16815800D01*
X34297000Y16779000D01*
X35797000Y20429000D02*
Y20229000D01*
X35327500Y19759500D01*
Y18418500D01*
X35397000Y18349000D01*
Y18348900D01*
X35497000Y18248900D01*
Y17179000D01*
X34797000Y17029000D02*
Y18029000D01*
X34977500Y18209500D01*
Y19940000D01*
X35297000Y20259500D01*
Y20929000D01*
X35797000Y21429000D01*
X33797000Y20429000D02*
X33597000Y20229000D01*
X33147000D01*
X34628100Y22004000D02*
X34500000Y21876000D01*
X34628100Y22004000D02*
X34522000D01*
X34447000Y21929000D01*
X35797000Y23429000D02*
X35722000Y23354000D01*
Y23159000D01*
X35297000Y22734000D01*
Y22327900D01*
X34973100Y22004000D01*
X34628100D01*
X35047000Y22979000D02*
X35247000Y23179000D01*
Y23854000D01*
X35797000Y24404000D01*
Y24429000D01*
X35797000Y22429000D02*
Y22229000D01*
X35247000Y21679000D01*
X33353100Y26429000D02*
X33250000Y26326000D01*
X33353100Y26429000D02*
X33250000Y26432000D01*
X33353100Y26429000D02*
X33797000D01*
X33197000Y26379000D02*
X33247000Y26429000D01*
X33353100D01*
X34977500Y25954000D02*
X35291500D01*
X35766500Y26429000D01*
X35797000D01*
X33547000Y24929000D02*
X34297000D01*
X34797000Y25429000D01*
X35797000Y25429000D02*
X35297000Y24929000D01*
X35797000Y28429000D02*
X35297000Y28929000D01*
X35797000Y27429000D02*
X35297000Y26929000D01*
X34297000Y29629000D02*
X34597000D01*
X34797000Y29429000D01*
X35797000Y29429000D02*
X35297000Y29929000D01*
X35797000Y31429000D02*
X35297000Y31929000D01*
X35797000Y30429000D02*
X35267000Y30959000D01*
Y30962100D01*
X35284600D01*
X35797000Y32429000D02*
X35297000Y32929000D01*
X35797000Y33429000D02*
X35297000Y33929000D01*
X34797000Y33429000D02*
X34297000Y33929000D01*
X33797000Y34429000D02*
X33297000Y34929000D01*
X33797000Y33429000D02*
X33297000Y33929000D01*
X34797000Y32429000D02*
X34297000Y32929000D01*
X34137000Y45112000D02*
Y44584500D01*
X33612000Y44059500D01*
Y41764000D01*
X34297000Y41079000D01*
Y39203000D01*
X35797000Y37703000D01*
Y35429000D01*
X36797000Y35429000D02*
X36771000D01*
X36297000Y35903000D01*
Y38279000D01*
X35797000Y38779000D01*
Y40379000D01*
X34922000Y41254000D01*
Y43104000D01*
X34184000Y43842000D01*
X34137000D01*
X37797000Y35429000D02*
Y36103000D01*
X37097000Y36803000D01*
Y37979000D01*
X36247000Y38829000D01*
Y41979000D01*
X35407000Y42819000D01*
Y43842000D01*
X35852000Y45557000D02*
X35407000Y45112000D01*
X34947000Y46779000D02*
X35344000Y46382000D01*
X35407000D01*
X34397000Y45729000D02*
Y46122000D01*
X34137000Y46382000D01*
X34137000Y55272000D02*
X34613000Y54796000D01*
X33661000Y55748000D02*
X34137000Y55272000D01*
X34613000Y55748000D01*
X33661000Y54796000D02*
X34137000Y55272000D01*
X35407000Y55272000D02*
X35883000Y54796000D01*
X34931000Y55748000D02*
X35407000Y55272000D01*
X35883000Y55748000D01*
X34931000Y54796000D02*
X35407000Y55272000D01*
X34137000Y54002000D02*
X34613000Y53526000D01*
X33661000Y54478000D02*
X34137000Y54002000D01*
X34613000Y54478000D01*
X33661000Y53526000D02*
X34137000Y54002000D01*
X35407000Y54002000D02*
X35883000Y53526000D01*
X34931000Y54478000D02*
X35407000Y54002000D01*
X35883000Y54478000D01*
X34931000Y53526000D02*
X35407000Y54002000D01*
X34137000Y56542000D02*
X34613000Y56066000D01*
X33661000Y56066000D02*
X34137000Y56542000D01*
X34931000Y56066000D02*
X35407000Y56542000D01*
X34137000Y57812000D02*
X34613000Y57336000D01*
X33661000Y58288000D02*
X34137000Y57812000D01*
X34613000Y58288000D01*
X33661000Y57336000D02*
X34137000Y57812000D01*
X35407000Y57812000D02*
X35883000Y57336000D01*
X34931000Y58288000D02*
X35407000Y57812000D01*
X35883000Y58288000D01*
X34931000Y57336000D02*
X35407000Y57812000D01*
X33661000Y57018000D02*
X34137000Y56542000D01*
X34613000Y57018000D01*
X35407000Y56542000D02*
X35883000Y56066000D01*
X34931000Y57018000D02*
X35407000Y56542000D01*
X35883000Y57018000D01*
X34137000Y66702000D02*
X33502000Y67337000D01*
X34137000Y65432000D02*
X33502000Y66067000D01*
X33647000Y64729000D02*
Y64652000D01*
X33722000Y64577000D01*
X34137000Y64162000D01*
X33722000Y64577000D02*
Y64729000D01*
X35407000Y67972000D02*
X34772000Y68607000D01*
X33750000Y77400000D02*
Y75050000D01*
X33900000Y74900000D01*
Y71400000D01*
X36677000Y68623000D01*
Y67972000D01*
X36750000Y77400000D02*
Y80200000D01*
X34171000Y82779000D01*
X34147000D01*
X37797000Y20429000D02*
Y17358900D01*
X36912000Y16473900D01*
Y13324500D01*
X36297000Y12709500D01*
Y9309500D01*
X36027500Y9040000D01*
Y7048500D01*
X36247000Y6829000D01*
X38247000Y16029000D02*
Y16079000D01*
X38144500Y16181500D01*
X37487000D01*
X38797000Y21429000D02*
Y21029000D01*
X38622000Y20854000D01*
X38620900D01*
X38372000Y20605100D01*
Y20604000D01*
X38297000Y20529000D01*
Y18303000D01*
X38750000Y17850000D01*
Y15400000D01*
X39250000Y14900000D01*
X42000000D01*
X42474000Y14426000D01*
X42476700D01*
X42705400Y14206600D01*
X42705500Y14206500D01*
X43677500D01*
X43855000Y14029000D01*
X43862000D01*
X44362000Y13529000D01*
X59247000D01*
X60747000Y15029000D01*
X36047000Y20879000D02*
X36277500Y21109500D01*
Y21927500D01*
X36779000Y22429000D01*
X36797000D01*
X38222000Y21160100D02*
X38094000Y21032000D01*
X38222000Y21160100D02*
Y21054000D01*
X38147000Y20979000D01*
X38797000Y24429000D02*
X38300000Y23932000D01*
Y22330900D01*
X38147000Y22177900D01*
Y21733900D01*
X38222000Y21658900D01*
Y21160100D01*
X36297000Y23629000D02*
Y23929000D01*
X36797000Y24429000D01*
X37797000Y23429000D02*
X37297000Y22929000D01*
X36797000Y23429000D02*
X36799500D01*
X37287900Y23917400D01*
Y23919900D01*
X37797000Y24429000D01*
X37797000Y26429000D02*
X37297000Y25929000D01*
X37797000Y25429000D02*
X37297000Y24929000D01*
X36797000Y25429000D02*
X36297000Y24929000D01*
X38797000Y27429000D02*
X38297000Y26929000D01*
X37797000Y28429000D02*
X37297000Y28929000D01*
X38797000Y28429000D02*
X38297000Y28929000D01*
X36797000Y28429000D02*
X36297000Y28929000D01*
X36547000Y26979000D02*
X36797000Y27229000D01*
Y27429000D01*
X37797000Y27429000D02*
X37547000D01*
X37247000Y27729000D01*
X36797000Y29429000D02*
X36297000Y29929000D01*
X36797000Y31429000D02*
X36297000Y31929000D01*
X36797000Y30429000D02*
X36297000Y30929000D01*
X37797000Y30429000D02*
X37297000Y30929000D01*
X36797000Y32429000D02*
X37297000Y31929000D01*
X37797000Y31429000D02*
X37297000Y31929000D01*
X38797000Y32429000D02*
X38297000Y32929000D01*
X38797000Y33429000D02*
X38347000Y33879000D01*
X37797000Y32429000D02*
X37297000Y32929000D01*
X36797000Y33429000D02*
X36297000Y33929000D01*
X36350000Y34850000D02*
X36376000D01*
X36797000Y34429000D01*
X38797000Y34429000D02*
X38297000Y34929000D01*
X36677000Y46382000D02*
Y45927000D01*
X36100000Y45350000D01*
Y42976000D01*
X36897000Y42179000D01*
Y41029000D01*
X37547000Y40379000D01*
Y37729000D01*
X39247000Y36029000D01*
Y34029000D01*
X39797000Y33479000D01*
Y33429000D01*
X37970700Y36530500D02*
X37973100Y36528100D01*
Y36526900D01*
X38797000Y35703000D01*
Y35429000D01*
X39797000Y35429000D02*
Y36929000D01*
X37897000Y38829000D01*
Y41779000D01*
X36677000Y42999000D01*
Y43842000D01*
X36677000Y45112000D02*
Y45099000D01*
X37297000Y44479000D01*
Y43179000D01*
X38397000Y42079000D01*
Y41179000D01*
X39497000Y40079000D01*
Y38229000D01*
X40371900Y37354100D01*
Y35003900D01*
X39797000Y34429000D01*
X40797000Y34429000D02*
X41322000Y34954000D01*
Y40504000D01*
X40847000Y40979000D01*
X39997000D01*
X39234700Y41741300D01*
Y42765300D01*
X38596900Y43403100D01*
Y44462100D01*
X37947000Y45112000D01*
X40797000Y35429000D02*
X40896900Y35528900D01*
Y38579100D01*
X40087000Y39389000D01*
Y40239000D01*
X38797000Y41529000D01*
Y42410700D01*
X37947000Y43260700D01*
Y43842000D01*
X35927000Y45779000D02*
Y45632000D01*
X35852000Y45557000D01*
Y45779000D01*
X37197000Y47029000D02*
X36677000Y47549000D01*
Y47652000D01*
X37947000Y46382000D02*
Y46379000D01*
X37347000Y45779000D01*
X36677000Y55272000D02*
X37153000Y54796000D01*
X36201000Y55748000D02*
X36677000Y55272000D01*
X37153000Y55748000D01*
X36201000Y54796000D02*
X36677000Y55272000D01*
X37947000Y55272000D02*
X38423000Y54796000D01*
X37471000Y55748000D02*
X37947000Y55272000D01*
X38423000Y55748000D01*
X37471000Y54796000D02*
X37947000Y55272000D01*
X36677000Y54002000D02*
X37153000Y53526000D01*
X36201000Y54478000D02*
X36677000Y54002000D01*
X37153000Y54478000D01*
X36201000Y53526000D02*
X36677000Y54002000D01*
X37947000Y54002000D02*
X38423000Y53526000D01*
X37471000Y54478000D02*
X37947000Y54002000D01*
X38423000Y54478000D01*
X37471000Y53526000D02*
X37947000Y54002000D01*
X36677000Y56542000D02*
X37153000Y56066000D01*
X36201000Y56066000D02*
X36677000Y56542000D01*
X37471000Y56066000D02*
X37947000Y56542000D01*
X36677000Y57812000D02*
X37153000Y57336000D01*
X36201000Y58288000D02*
X36677000Y57812000D01*
X37153000Y58288000D01*
X36201000Y57336000D02*
X36677000Y57812000D01*
X37947000Y57812000D02*
X38423000Y57336000D01*
X37471000Y58288000D02*
X37947000Y57812000D01*
X38423000Y58288000D01*
X37471000Y57336000D02*
X37947000Y57812000D01*
X36201000Y57018000D02*
X36677000Y56542000D01*
X37153000Y57018000D01*
X37947000Y56542000D02*
X38423000Y56066000D01*
X37471000Y57018000D02*
X37947000Y56542000D01*
X38423000Y57018000D01*
X37047000Y68679000D02*
X37372000Y68354000D01*
Y63304000D01*
X37926000Y62750000D01*
X41576000D01*
X42897000Y61429000D01*
Y48729000D01*
X43650000Y47976000D01*
Y47400000D01*
X43497000Y47247000D01*
Y46679000D01*
X43747000Y46429000D01*
Y45979000D01*
X44089000Y45637000D01*
X44514500D01*
X45039500Y45112000D01*
X45567000D01*
X36677000Y65432000D02*
X36997000Y65752000D01*
Y66079000D01*
X37947000Y66702000D02*
X38347000Y67102000D01*
Y67329000D01*
X38347000Y64779000D02*
Y64562000D01*
X37947000Y64162000D01*
X37897000Y68679000D02*
X38268000D01*
X38692000Y68255000D01*
Y63584000D01*
X39096900Y63179100D01*
X41770900D01*
X43300000Y61650000D01*
Y48950000D01*
X43950000Y48300000D01*
X44391500D01*
X44950000Y47741500D01*
Y46256500D01*
X45506500Y45700000D01*
X45721500D01*
X46200000Y45221500D01*
Y44850000D01*
X46837000Y44213000D01*
Y43842000D01*
X38185500Y73331500D02*
X38433000Y73579000D01*
X39143400D01*
X37250000Y77400000D02*
Y81550000D01*
X36021000Y82779000D01*
X35997000D01*
X38250000Y77400000D02*
Y80332000D01*
X39597000Y81679000D01*
Y82779000D01*
X38547000Y74679000D02*
Y75382000D01*
X38250000Y75679000D01*
Y77400000D01*
X37750000Y77400000D02*
Y75832000D01*
X37797000Y82779000D02*
X37750000Y82732000D01*
Y77400000D01*
X39797000Y21429000D02*
X39297000Y20929000D01*
Y16276500D01*
X39392000Y16181500D01*
X40147000Y16629000D02*
X40476000Y16300000D01*
X41102700D01*
X42846200Y14556500D01*
X43961000D01*
X44638500Y13879000D01*
X58916500D01*
X60097000Y15059500D01*
Y15079000D01*
X39797000Y20429000D02*
Y18279000D01*
X40147000Y17929000D01*
Y16629000D01*
X41147000Y16929000D02*
Y18757000D01*
X41447000Y19057000D01*
Y19679000D01*
X40797000Y20329000D01*
Y20429000D01*
X40347000Y21179000D02*
Y22979000D01*
X40797000Y23429000D01*
X38747000Y19279000D02*
Y20379000D01*
X38797000Y20429000D01*
X40997000Y19329000D02*
X40372000Y19954000D01*
Y20605100D01*
X40620900Y20854000D01*
X40622000D01*
X40797000Y21029000D01*
Y21429000D01*
X39259900Y21632000D02*
Y21891900D01*
X39797000Y22429000D01*
X41247000Y21979000D02*
X40797000Y22429000D01*
X39247000Y23079000D02*
X39447000D01*
X39797000Y23429000D01*
X40797000Y24429000D02*
X40297000Y23929000D01*
X38497000Y21879000D02*
X38797000Y22179000D01*
Y22429000D01*
X38797000Y23429000D02*
X39247000Y23879000D01*
X39797000Y24429000D02*
X39274300Y24951700D01*
X39797000Y31429000D02*
X39847000D01*
X40297000Y31879000D01*
X38797000Y31429000D02*
X38847000D01*
X39297000Y31879000D01*
X40797000Y31429000D02*
X41297000Y31929000D01*
X41297000Y32929000D02*
X40797000Y32429000D01*
X41227000Y33929000D02*
X40797000Y33499000D01*
Y33429000D01*
X42797000Y34429000D02*
Y34829000D01*
X42972000Y35004000D01*
X42973100D01*
X43222000Y35252900D01*
Y35254000D01*
X43372000Y35404000D01*
Y38058200D01*
X42097400Y39332900D01*
X41801500Y39628800D01*
Y40824500D01*
X41147000Y41479000D01*
X40447000D01*
X39962000Y41964000D01*
Y44367000D01*
X39217000Y45112000D01*
X46497000Y39679000D02*
X46377000Y39949000D01*
X45255600Y41070400D01*
X42960600D01*
X42052000Y41979000D01*
X41247000D01*
X40347000Y42879000D01*
X39217000Y43842000D02*
Y44209000D01*
X38947000Y44479000D01*
X40487000Y43842000D02*
X41122000Y43207000D01*
X40487000Y45112000D02*
X41122000Y44477000D01*
X39217000Y46382000D02*
X39200000D01*
X38597000Y45779000D01*
X40487000Y46382000D02*
X41150000Y45719000D01*
Y44976500D01*
X41676500Y44450000D01*
X41891500D01*
X42400000Y43941500D01*
Y43517000D01*
X42600000Y43317000D01*
X43483000D01*
X44621000Y42179000D01*
X45692000D01*
X46242000Y41629000D01*
X46997000D01*
X40487000Y47652000D02*
X40498000D01*
X41150000Y47000000D01*
X42100000D01*
X42450000Y46650000D01*
Y46216500D01*
X42916500Y45750000D01*
X43352000D01*
X43552000Y45550000D01*
Y45082000D01*
X44012000Y44622000D01*
Y44332000D01*
X43772000Y44092000D01*
Y43596500D01*
X44389500Y42979000D01*
X45047000D01*
X39847000Y63829000D02*
X39550000D01*
X39217000Y64162000D01*
X40487000Y66702000D02*
X41122000Y67337000D01*
Y70104000D01*
X39497000Y71729000D01*
Y73225400D01*
X39217000Y66702000D02*
X39852000Y67337000D01*
X40487000Y67972000D02*
Y69313000D01*
X39697000Y70103000D01*
Y70129000D01*
X39217000Y67972000D02*
Y68409000D01*
X38897000Y68729000D01*
X39497000Y73225400D02*
X39320200Y73402200D01*
X39497000Y73225400D02*
X39673800Y73402200D01*
X39497000Y73225400D02*
Y73378800D01*
X39597100Y73478900D01*
X39143400Y73579000D02*
X39320200Y73755800D01*
X39143400Y73579000D02*
X39320200Y73402200D01*
X39143400Y73579000D02*
X39497000D01*
X38750000Y77400000D02*
X38747000Y77397000D01*
Y75729000D01*
X40247000Y74229000D01*
Y72379000D01*
X40097000Y72229000D01*
X41397000Y82779000D02*
X40979000D01*
X40100000Y81900000D01*
Y81539000D01*
X38750000Y80189000D01*
Y77400000D01*
X45097000Y14579000D02*
X45088500D01*
X44411000Y15256500D01*
X43161000D01*
X41601900Y16815600D01*
Y18716900D01*
X41797000Y18912000D01*
Y19827900D01*
X41372000Y20252900D01*
Y21605100D01*
X41620900Y21854000D01*
X42222000D01*
X42797000Y22429000D01*
X41147000Y16929000D02*
Y16753000D01*
X42693700Y15206300D01*
Y15204000D01*
X42991200Y14906500D01*
X44161000D01*
X44838500Y14229000D01*
X58716500D01*
X60066500Y15579000D01*
X60597000D01*
X65900000Y18200000D02*
Y16682000D01*
X65147000Y15929000D01*
X61400000D01*
X61050000Y16279000D01*
X59647000D01*
X58608000Y15240000D01*
X45166500D01*
X44800000Y15606500D01*
X43281200D01*
X42983700Y15904000D01*
X42963500D01*
X41951900Y16915600D01*
Y18478300D01*
X41797000Y21429000D02*
X42301900Y20924100D01*
Y17224100D01*
X42597000Y16929000D01*
X50949500D01*
X51338500Y16540000D01*
X52027500D01*
X52677000Y15890500D01*
X57358500D01*
X57797000Y16329000D01*
X43497000Y17679000D02*
X42997000Y18179000D01*
Y19509500D01*
X43327500Y19840000D01*
Y20898500D01*
X42797000Y21429000D01*
X64300000Y18200000D02*
Y17184000D01*
X64016000Y16900000D01*
X62050000D01*
X61596000Y17354000D01*
X52684500D01*
X52009500Y18029000D01*
X47388500D01*
X46813500Y18604000D01*
X44972000D01*
X44047000Y17679000D01*
X43497000D01*
X64700000Y18200000D02*
Y16882000D01*
X64418000Y16600000D01*
X61851700D01*
X61572700Y16879000D01*
X57466000D01*
X56777500Y16190500D01*
X53427000D01*
X52885500Y16732000D01*
X52882100D01*
X51885100Y17729000D01*
X47188500D01*
X46613500Y18304000D01*
X45341500D01*
X44366500Y17329000D01*
X43097000D01*
X42647000Y17779000D01*
Y19840000D01*
X42797000Y19990000D01*
Y20429000D01*
X43519500Y16181500D02*
X44194500D01*
X43347000Y19129000D02*
X43397000Y19179000D01*
Y19229000D01*
X43797000Y19629000D01*
Y20429000D01*
X43797000Y22429000D02*
X43297000Y21929000D01*
Y21880600D01*
X43295200D01*
X41297000Y22929000D02*
X41797000Y22429000D01*
X41797000Y24429000D02*
X42297000Y23929000D01*
X42797000Y23429000D02*
X43297000Y22929000D01*
X41797000Y25429000D02*
X42297000Y24929000D01*
X42797000Y25429000D02*
X42297000Y25929000D01*
X43797000Y27429000D02*
Y27453000D01*
X43321000Y27929000D01*
X42297000D01*
X43797000Y28429000D02*
X43247000Y28979000D01*
X42797000Y31429000D02*
X43297000Y31929000D01*
X41797000Y30429000D02*
X41297000Y30929000D01*
X41797000Y31429000D02*
X42297000Y31929000D01*
X41797000Y33429000D02*
X42247000Y33879000D01*
X42797000Y33429000D02*
X43297000Y33929000D01*
Y34779000D01*
X41797000Y32429000D02*
X42297000Y32929000D01*
X42797000Y32429000D02*
X43297000Y32929000D01*
X48282000Y39676500D02*
Y39744000D01*
X47597000Y40429000D01*
X46392000D01*
X45400600Y41420400D01*
X43105600D01*
X41897000Y42629000D01*
Y42979000D01*
X50187000Y39676500D02*
X49134500Y40729000D01*
X46647000D01*
X45547000Y41829000D01*
X44371000D01*
X43342300Y42857700D01*
X43322900D01*
X43027000Y45112000D02*
X43662000Y44477000D01*
X41757000Y45112000D02*
X42392000Y44477000D01*
X41757000Y46382000D02*
X42392000Y45747000D01*
X41997000Y63529000D02*
X41847000Y63679000D01*
Y64079000D01*
X41764000Y64162000D01*
X41757000D01*
X41757000Y66702000D02*
Y66707000D01*
X42400000Y67350000D01*
Y69382000D01*
X43722000Y70704000D01*
X47422000D01*
X48297000Y71579000D01*
Y72364000D01*
X48282000Y72379000D01*
X41757000Y67972000D02*
Y69389000D01*
X43202000Y70834000D01*
Y72379000D01*
X44980000D01*
X70300000Y18200000D02*
Y16732000D01*
X69147000Y15579000D01*
X61271000D01*
X60921000Y15929000D01*
X59866500D01*
X58516500Y14579000D01*
X45097000D01*
X45424500Y16181500D02*
X44850600D01*
X44744500D01*
X44697000Y16229000D01*
X44850600Y16181500D02*
X44750000Y16282000D01*
X44850600Y16181500D02*
X44750000Y16176000D01*
X44714200Y18931700D02*
Y19346200D01*
X44797000Y19429000D01*
Y20429000D01*
X43797000Y21429000D02*
X44297000Y20929000D01*
X48453000Y18662400D02*
X47655100D01*
X46297000Y20020500D01*
Y20620500D01*
X45872000Y21045500D01*
Y21354000D01*
X45797000Y21429000D01*
X46347000Y21879000D02*
X46372000Y21854000D01*
Y21252900D01*
X46684900Y20940000D01*
X47177500D01*
X47327500Y20790000D01*
Y20190000D01*
X47538500Y19979000D01*
X52997000D01*
X53047000Y20029000D01*
X46797000Y22429000D02*
X46747000D01*
X46247000Y22929000D01*
X43797000Y24429000D02*
X44297000Y23929000D01*
X43797000Y23429000D02*
X44297000Y22929000D01*
X44797000Y23429000D02*
X45297000Y22929000D01*
X45197000Y24029000D02*
X44797000Y24429000D01*
X45797000Y23429000D02*
X45197000Y24029000D01*
X46347000Y21829000D02*
Y21879000D01*
X45797000Y22429000D02*
X46347000Y21879000D01*
X44797000Y25429000D02*
X45297000Y24929000D01*
X44797000Y26429000D02*
X45297000Y25929000D01*
X46497000Y24929000D02*
X45997000Y25429000D01*
X45797000D01*
X45797000Y26429000D02*
X46297000Y25929000D01*
X46297000Y24229000D02*
X46097000Y24429000D01*
X45797000D01*
X45797000Y29429000D02*
X46297000Y29929000D01*
X46797000Y28429000D02*
X46300000Y27932000D01*
Y27900000D01*
X44797000Y29429000D02*
X44751600D01*
X44274300Y29906300D01*
X45797000Y27429000D02*
X46297000Y26929000D01*
X45797000Y28429000D02*
X46297000Y28929000D01*
X52997000Y28629000D02*
X51271000D01*
X50971000Y28929000D01*
X46297000D01*
X44797000Y28429000D02*
X45319700Y27906300D01*
X44797000Y27429000D02*
X44297000Y27929000D01*
X44797000Y30429000D02*
X45297000Y30929000D01*
X45797000Y30429000D02*
X46297000Y30929000D01*
X43797000Y31429000D02*
X44297000Y31929000D01*
X46797000Y31429000D02*
X46771000D01*
X46300000Y31900000D01*
X44797000Y31429000D02*
X45297000Y31929000D01*
X45797000Y32429000D02*
X45297000Y31929000D01*
X45797000Y33429000D02*
X46297000Y33929000D01*
X43797000Y32429000D02*
X44297000Y32929000D01*
X43797000Y33429000D02*
X44297000Y33929000D01*
X45797000Y34429000D02*
X46297000Y34929000D01*
X44797000Y32429000D02*
X45297000Y32929000D01*
X44797000Y33429000D02*
X45297000Y33929000D01*
X44797000Y35429000D02*
Y36129000D01*
X45797000Y35429000D02*
Y36898700D01*
X45910800Y37012500D01*
X45916700D01*
X44097000Y36229000D02*
Y35729000D01*
X43797000Y35429000D01*
X48647000Y41679000D02*
X47871000D01*
X47420900Y42129100D01*
X46470900D01*
X44758000Y43842000D01*
X44297000D01*
X44297000Y45112000D02*
X44932000Y44477000D01*
X45865000D01*
X46250000Y44092000D01*
Y43676000D01*
X47069100Y42856900D01*
X49247000D01*
X49319100Y42929000D01*
X49797000D01*
X51347000Y41379000D01*
X50297000Y41629000D02*
X49421000D01*
X48550000Y42500000D01*
X46909000D01*
X45567000Y43842000D01*
X44297000Y46382000D02*
X44932000Y45747000D01*
X45567000Y46382000D02*
X46202000Y45747000D01*
X43847000Y47079000D02*
X44197000Y47429000D01*
X44297000D01*
Y47652000D01*
X44907000Y48311000D02*
X44856000Y48362000D01*
Y48363000D01*
X44297000Y48922000D01*
X44907000Y53391000D02*
Y53392000D01*
X44297000Y54002000D01*
X44907000Y50851000D02*
X44856000Y50902000D01*
Y50903000D01*
X44297000Y51462000D01*
X44907000Y55931000D02*
X44856000Y55982000D01*
Y55983000D01*
X44297000Y56542000D01*
X44297000Y59082000D02*
Y59081000D01*
X44958000Y58420000D01*
X44958000Y60960000D02*
X44856000Y61062000D01*
Y61063000D01*
X44403400Y61515600D01*
X44889600Y60966500D01*
X44403400Y61515600D02*
X44951700Y61028700D01*
X44958000Y62230000D02*
X44856000Y62332000D01*
Y62333000D01*
X44403400Y62785600D01*
X44297000Y62892000D01*
X44403400Y62785600D02*
X44889600Y62236500D01*
X44403400Y62785600D02*
X44951700Y62298700D01*
X44958000Y63500000D02*
X44856000Y63602000D01*
Y63603000D01*
X44403400Y64055600D01*
X44297000Y64162000D01*
X44403400Y64055600D02*
X44889600Y63506500D01*
X44403400Y64055600D02*
X44951700Y63568700D01*
X44403400Y61515600D02*
X44297000Y61622000D01*
X44994500Y74653000D02*
Y75754000D01*
X46045500D01*
X43943500Y75754000D02*
X44994500D01*
Y76855000D01*
X45015000Y81151500D02*
X44994000Y81130500D01*
Y78294500D01*
X44994500Y78294000D01*
X47329500Y16181500D02*
X46544500D01*
X49234500Y16181500D02*
X48499500D01*
X48453000Y18662400D02*
X48463600D01*
X48797000Y18329000D01*
X52133800D01*
X52808800Y17654000D01*
X61972000D01*
X62297000Y17329000D01*
X47797000Y21429000D02*
X48297000Y20929000D01*
X47247000Y21906300D02*
X46797000Y21456300D01*
Y21429000D01*
X46797000Y20429000D02*
Y20120500D01*
X47577500Y19340000D01*
X49186000D01*
X49897000Y18629000D01*
X52607500D01*
X53007500Y18229000D01*
X53047000D01*
X48797000Y21429000D02*
X49497000D01*
X50985900Y23429000D02*
X48797000D01*
X51847000Y23809000D02*
Y23309500D01*
X51466500Y22929000D01*
X48297000D01*
X47797000Y23429000D01*
X52090900Y21929000D02*
X48297000D01*
X47797000Y22429000D01*
X51447000Y22429000D02*
X48797000D01*
X47523700Y23021600D02*
X47204400D01*
X46797000Y23429000D01*
X46797000Y24429000D02*
X47346900Y23879000D01*
X48197000D01*
X47797000Y24429000D02*
X48188500D01*
X48688500Y23929000D01*
X49597000D01*
X51347000Y24927400D02*
X50047000D01*
X50045400Y24929000D01*
X48297000D01*
X47797000Y25429000D01*
X51647000Y26429000D02*
X48797000D01*
X46797000Y25429000D02*
X47147000D01*
X47297000Y25279000D01*
X51147000Y25929000D02*
X50947000Y26129000D01*
X49579000D01*
X49350000Y25900000D01*
X48326000D01*
X47797000Y26429000D01*
X50740900Y24429000D02*
X48797000D01*
X46797000Y26429000D02*
X47297000Y25929000D01*
X49697000Y25729000D02*
X49497000Y25529000D01*
X48897000D01*
X48797000Y25429000D01*
X47797000Y29429000D02*
X48297000Y29929000D01*
X46797000Y29429000D02*
X47297000Y29929000D01*
X49296400Y28350000D02*
X49052800D01*
X48973800Y28429000D01*
X48797000D01*
X46797000Y27429000D02*
X47297000Y26929000D01*
X48797000Y27429000D02*
X50447000D01*
X53047000Y27779000D02*
X49271000D01*
X49121000Y27929000D01*
X48297000D01*
X47797000Y28429000D01*
X47797000Y30429000D02*
X48297000Y30929000D01*
X47797000Y32429000D02*
Y32397000D01*
X47315600Y31915600D01*
X48797000Y29429000D02*
X49597000D01*
X46797000Y30429000D02*
X47297000Y30929000D01*
X48797000Y31429000D02*
X49390900D01*
X48797000Y30429000D02*
X49147000D01*
X49247000Y30529000D01*
X49697000D01*
X48797000Y34429000D02*
X49390900D01*
X46797000Y34429000D02*
X47297000Y34929000D01*
X47797000Y33429000D02*
X48297000Y33929000D01*
X48797000Y32429000D02*
X49547000D01*
X47797000Y34429000D02*
X48297000Y34929000D01*
X48797000Y33429000D02*
X50950000D01*
X46450000Y33050000D02*
X46797000Y33397000D01*
Y33429000D01*
X46797000Y32429000D02*
X47268000Y32900000D01*
X51400000D01*
X51600000Y32700000D01*
X54000000D01*
X54600000Y33300000D01*
X47797000Y35429000D02*
Y36950000D01*
X47297000Y34929000D02*
Y37250000D01*
X47797000Y37750000D01*
X51600000D01*
X52221000Y37129000D01*
X53097000D01*
X46797000Y35429000D02*
Y36129000D01*
X48297000Y34929000D02*
X49129000D01*
X49479000Y35279000D01*
X53097000D01*
X48107000Y43842000D02*
X48742000Y43207000D01*
X46837000Y45112000D02*
X47472000Y44477000D01*
X46837000Y46382000D02*
X47472000Y45747000D01*
X47419500Y50689000D02*
X46922500Y50192000D01*
X46837000D01*
X48107000Y54002000D02*
X48797000D01*
X47194500Y75754000D02*
X47110500Y75670000D01*
Y75660500D01*
X46600000Y75150000D01*
Y74841300D01*
X46600200Y74841100D01*
X46600000Y74840900D01*
Y74840500D01*
X46598000Y74838500D01*
Y73694300D01*
X46600000Y73692300D01*
Y72475000D01*
X46504000Y72379000D01*
X47194500Y78294000D02*
Y80159500D01*
X47050000Y80304000D01*
X46746000D01*
X46539000Y80511000D01*
Y81151500D01*
X47548500D01*
X48483000Y80217000D01*
X49397000D01*
X51550000Y10100000D02*
Y6832000D01*
X50050000Y10100000D02*
Y11232000D01*
X50156200Y11338200D01*
X50550000D01*
X51050000Y10100000D02*
Y11226000D01*
X50937800Y11338200D01*
X50550000D01*
X50050000Y8532000D02*
Y10100000D01*
X50550000Y10100000D02*
Y11338200D01*
X50822000Y16181500D02*
X50144500D01*
X50985900Y23429000D02*
X51094000Y23537000D01*
X51147000Y23484000D02*
X51092000Y23429000D01*
X50985900D01*
X50740900Y24429000D02*
X50894000Y24582000D01*
X50947000Y24529000D02*
X50847000Y24429000D01*
X50740900D01*
X49296400Y28350000D02*
X49473200Y28526800D01*
X49296400Y28350000D02*
X49473200Y28173200D01*
X49650000Y28350000D02*
X49296400D01*
X49390900Y31429000D02*
X49494000Y31532000D01*
X49390900Y31429000D02*
X49494000Y31426000D01*
X49390900Y31429000D02*
X49497000D01*
X49547000Y31479000D01*
X49390900Y34429000D02*
X49497000D01*
X49597000Y34529000D01*
X49390900Y34429000D02*
X49544000Y34582000D01*
X51912500Y51587500D02*
X51861000Y51639000D01*
X51119500D01*
X51912500Y55177500D02*
X51181000D01*
X49397000Y78841000D02*
Y80217000D01*
X52550000Y10100000D02*
Y7376000D01*
X53497000Y6429000D01*
X53550000Y10100000D02*
Y8326000D01*
X55097000Y6779000D01*
X65100000Y18200000D02*
Y16679000D01*
X64671000Y16250000D01*
X61579000D01*
X61250000Y16579000D01*
X59452000D01*
X58463500Y15590500D01*
X52227000D01*
X51797000Y16020500D01*
Y16029000D01*
X53847000Y18229000D02*
X53047000D01*
X53747000Y19979000D02*
Y21194000D01*
X53044500Y21896500D01*
X54300000Y22200000D02*
X54350000D01*
X54364000Y22214000D01*
X55337000D01*
X52090900Y21929000D02*
X52194000Y21932000D01*
X52090900Y21929000D02*
X52194000Y21826000D01*
X52247000Y21879000D02*
X52197000Y21929000D01*
X52090900D01*
X52047000Y25629000D02*
Y24803000D01*
X53044500Y23805500D01*
Y23801500D01*
X55337000Y24754000D02*
X55346000D01*
X54520500Y25579500D01*
X53044500D01*
X53047000Y27779000D02*
Y27106000D01*
X53044500Y27103500D01*
X53100000Y34500000D02*
Y34150000D01*
X53097000Y34147000D01*
Y33429000D01*
X53616000Y76360500D02*
Y78411500D01*
X54917000D01*
X52315000Y78411500D02*
X53616000D01*
Y80462500D01*
X56050000Y10100000D02*
Y7476000D01*
X56747000Y6779000D01*
X55550000Y10100000D02*
Y8432000D01*
X56550000Y10100000D02*
Y9076000D01*
X56697000Y8929000D01*
X57082000Y18804000D02*
X57007000Y18729000D01*
X56947000D01*
X57082000Y18804000D02*
X56947000D01*
X57082000Y18804000D02*
X57022000Y18729000D01*
X57550000Y10100000D02*
Y7476000D01*
X58297000Y6729000D01*
X59550000Y10100000D02*
Y7126000D01*
X59897000Y6779000D01*
X58050000Y10100000D02*
Y8626000D01*
X58297000Y8379000D01*
X57673200Y18892200D02*
Y18679000D01*
X57673200Y18892200D02*
X57608000Y18827000D01*
X57600000D01*
X57598200Y18825200D01*
Y18679000D01*
X62700000Y23800000D02*
X60054800D01*
X59347000Y23092200D01*
Y19280400D01*
X58666600Y18600000D01*
X58518000D01*
X58347000Y18429000D01*
X62700000Y22600000D02*
X60481300D01*
X60185300Y22304000D01*
X60172000D01*
X59647000Y21779000D01*
Y20553300D01*
X59647100Y20553200D01*
Y20304800D01*
X59647000Y20304700D01*
Y19156100D01*
X59307000Y18816100D01*
Y18297800D01*
X57537000Y22214000D02*
X57297000Y21974000D01*
Y20779000D01*
X62700000Y24200000D02*
X59918000D01*
X59047000Y23329000D01*
Y19404700D01*
X58561300Y18919000D01*
X57700000D01*
X57673200Y18892200D01*
X60547000Y33129000D02*
X59397000Y31979000D01*
Y24679000D01*
X58747000Y24029000D01*
Y19529000D01*
X58437000Y19219000D01*
X57497000D01*
X57082000Y18804000D01*
X58797000Y25329000D02*
Y30317000D01*
X60550000Y10100000D02*
Y7776000D01*
X61447000Y6879000D01*
X62050000Y10100000D02*
Y7826000D01*
X63047000Y6829000D01*
X60050000Y8429000D02*
Y10100000D01*
X61550000Y10100000D02*
Y8482000D01*
X62700000Y22200000D02*
X60505600D01*
X60309600Y22004000D01*
X60296300D01*
X59947000Y21654700D01*
Y20677600D01*
X59947100Y20677500D01*
Y20180500D01*
X59947000Y20180400D01*
Y19031800D01*
X59847000Y18931800D01*
Y18480500D01*
X59858800Y18386200D01*
X59847000Y18480500D02*
X59752800Y18386200D01*
X59805800Y18333200D02*
X59751200D01*
X59847000Y18429000D01*
Y18480500D01*
X62700000Y21000000D02*
X61018000D01*
X60723000Y20705000D01*
Y19203000D01*
X61297000Y18629000D01*
X62700000Y24600000D02*
X62721000Y24579000D01*
X63639200D01*
X64650000Y23568200D01*
Y20103000D01*
X63747000Y19200000D01*
X63468000D01*
X62297000Y18029000D01*
X60447000D01*
X62700000Y21800000D02*
X61096800D01*
X60975800Y21679000D01*
X60968800Y21686000D01*
X60297000Y21014200D01*
Y20379000D01*
X62700000Y21400000D02*
X61376000D01*
X62700000Y20600000D02*
X61418000D01*
X62700000Y20200000D02*
X61068000D01*
X62700000Y23000000D02*
X61326000D01*
X60947000Y23379000D01*
X60597000D01*
X62700000Y26200000D02*
X61326000D01*
X62700000Y25800000D02*
X60897000D01*
X62700000Y25400000D02*
X61318000D01*
X61176000Y28600000D02*
X62700000D01*
X62700000Y27400000D02*
X61218000D01*
X62700000Y30600000D02*
X61326000D01*
X61097000Y30829000D01*
Y31172900D01*
X60994000Y31276000D01*
X61097000Y31172900D02*
X61100000Y31276000D01*
X61047000Y31329000D02*
X61097000Y31279000D01*
Y31172900D01*
X62700000Y31800000D02*
X61518000D01*
X61047000Y31329000D01*
X63550000Y10100000D02*
Y9200000D01*
X64547000Y8203000D01*
Y6829000D01*
X62969000Y8478800D02*
Y8481000D01*
X62550000Y8900000D01*
Y10100000D01*
X64050000Y10100000D02*
Y11182000D01*
X64297000Y11429000D01*
X64547000D01*
X64550000Y10100000D02*
Y9097000D01*
X65250000Y8397000D01*
Y8050000D01*
X66100000Y7200000D01*
X62700000Y19800000D02*
X63740200D01*
X64197000Y20256800D01*
Y20429000D01*
X62700000Y25000000D02*
X63903200D01*
X65047000Y23856200D01*
Y19779000D01*
X62700000Y23400000D02*
X63976000D01*
X64247000Y23129000D01*
Y22729000D01*
X62700000Y26600000D02*
X64076000D01*
X64700000Y33800000D02*
Y24826000D01*
X65397000Y24129000D01*
Y20335100D01*
X62700000Y29400000D02*
X62729000Y29429000D01*
X63997000D01*
X64197000Y29629000D01*
Y29929000D01*
X63947000Y30179000D01*
Y30229000D01*
X62700000Y28600000D02*
X63876000D01*
X64097000Y28379000D01*
Y27179000D01*
X63947000Y27029000D01*
X62729000D01*
X62700000Y27000000D01*
X62700000Y31400000D02*
X63876000D01*
X64147000Y31129000D01*
Y30429000D01*
X63947000Y30229000D01*
X62700000Y30200000D02*
X62729000Y30229000D01*
X63947000D01*
X67550000Y10100000D02*
Y11276000D01*
X67050000Y10100000D02*
Y8832000D01*
X65550000Y10100000D02*
Y11276000D01*
X66050000Y10100000D02*
Y8882000D01*
X67100000Y18200000D02*
Y19659100D01*
X67247000Y19806100D01*
Y21329000D01*
X68497000Y22579000D01*
Y24429000D01*
X66700000Y18200000D02*
Y19683400D01*
X66947000Y19930400D01*
Y21453300D01*
X67597000Y22103300D01*
Y22379000D01*
X66300000Y18200000D02*
Y19707700D01*
X66647000Y20054700D01*
Y21577600D01*
X67247000Y22177600D01*
Y24822900D01*
X65500000Y18200000D02*
Y19332000D01*
X66347000Y20179000D01*
Y21701900D01*
X66897000Y22251900D01*
Y23229000D01*
X65397000Y20335100D02*
X65550000Y20182000D01*
X65497000Y20129000D02*
X65397000Y20229000D01*
Y20335100D01*
X65100000Y33800000D02*
Y25176000D01*
X65747000Y24529000D01*
Y20679000D01*
X66697000Y27267000D02*
X66897000Y27067000D01*
Y23229000D01*
X65500000Y33800000D02*
Y25276000D01*
X66097000Y24679000D01*
Y22879000D01*
X66547000Y22429000D01*
X67247000Y24822900D02*
X67244000Y24926000D01*
X67247000Y24822900D02*
X67350000Y24926000D01*
X67247000Y24822900D02*
Y24929000D01*
X67297000Y24979000D01*
X68700000Y33800000D02*
Y32172000D01*
X67547000Y31019000D01*
Y26597700D01*
X67547300D01*
X67100000Y33800000D02*
Y35576000D01*
X67500000Y33800000D02*
Y35226000D01*
X65900000Y33800000D02*
Y35126000D01*
X66300000Y33800000D02*
Y35576000D01*
X66700000Y33800000D02*
Y35132000D01*
X69100000Y18200000D02*
Y19782000D01*
X69397000Y20079000D01*
X68300000Y18200000D02*
Y19676000D01*
X69900000Y18200000D02*
X69897000Y18203000D01*
Y21129000D01*
X70347000Y21579000D01*
X67900000Y18200000D02*
Y16879000D01*
X69500000Y18200000D02*
Y16830200D01*
X69504900D01*
X68700000Y18200000D02*
Y20171000D01*
X68297000Y20574000D01*
X68047000D01*
X68297000Y20574000D02*
Y20824000D01*
X68297000Y20574000D02*
X68047000Y20824000D01*
X70347000Y21579000D02*
X72353000Y23585000D01*
Y27809100D01*
X72309100Y27853000D01*
X72297000D01*
X72050000Y28100000D01*
X71550000D01*
X70927500Y28722500D01*
Y29509500D01*
X71247000Y29829000D01*
Y31329000D01*
X69500000Y33800000D02*
Y31982000D01*
X68627500Y31109500D01*
Y25759500D01*
X68397000Y25529000D01*
X69100000Y33800000D02*
Y32077000D01*
X68177500Y31154500D01*
Y27590000D01*
X70300000Y33800000D02*
Y32032000D01*
X69259000Y30991000D01*
Y30117000D01*
X70097000Y29279000D01*
X68300000Y33800000D02*
Y35276000D01*
X69900000Y33800000D02*
Y32382000D01*
X72700000Y18200000D02*
Y19676000D01*
X70700000Y18200000D02*
Y20029000D01*
X71100000Y18200000D02*
Y19676000D01*
X71500000Y18200000D02*
Y20029000D01*
X71900000Y18200000D02*
Y19676000D01*
X72300000Y18200000D02*
Y20029000D01*
X71900000Y33800000D02*
Y29712500D01*
X71327500Y29140000D01*
X72300000Y33800000D02*
Y28690000D01*
X72250000Y28640000D01*
X72300000D01*
X70700000Y33800000D02*
X70697000Y33797000D01*
Y31479000D01*
X71100000Y33800000D02*
Y35226000D01*
X71550600Y38429000D02*
X71373800Y38252200D01*
X71550600Y38429000D02*
X71373800Y38605800D01*
X71550600Y38429000D02*
X72580000D01*
X72602500Y38406500D01*
X71197000Y38429000D02*
X71550600D01*
X72983500Y76728000D02*
Y78729000D01*
X74234500D01*
X71732500Y78729000D02*
X72983500D01*
Y80730000D01*
X73100000Y18200000D02*
Y20029000D01*
X73500000Y18200000D02*
Y19676000D01*
X73900000Y18200000D02*
Y20029000D01*
X74300000Y18200000D02*
Y19676000D01*
X74700000Y18200000D02*
Y20029000D01*
X75100000Y18200000D02*
Y19676000D01*
X75500000Y18200000D02*
Y20029000D01*
X73100000Y33800000D02*
Y29240000D01*
X73500000Y33800000D02*
Y35226000D01*
X74300000Y33800000D02*
Y35432000D01*
X74697000Y35829000D01*
Y37129000D01*
X74126500Y37699500D01*
Y38406500D01*
X74300000Y32429000D02*
Y33800000D01*
X75100000Y33800000D02*
Y35229000D01*
X73900000Y36382000D02*
Y33800000D01*
X82762500Y38406500D02*
X80374500D01*
X78497000Y36529000D01*
X75397000D01*
X75100000Y36232000D01*
Y35229000D01*
X73900000Y36382000D02*
Y36626000D01*
X73900000Y36382000D02*
X74144000Y36382100D01*
X74147000Y36629000D02*
X73900000Y36382000D01*
X75900000Y18200000D02*
Y19676000D01*
X76300000Y18200000D02*
Y20029000D01*
X77697000Y18479000D02*
X77947000D01*
X77697000Y18479000D02*
Y18229000D01*
X77697000Y18479000D02*
X77947000Y18229000D01*
X78300000Y20600000D02*
X77168000D01*
X76897000Y20329000D01*
Y19579000D01*
X77497000Y18979000D01*
Y18679000D01*
X77697000Y18479000D01*
X76700000Y16982600D02*
X76876800Y16805800D01*
X76700000Y16982600D02*
X76523200Y16805800D01*
X76700000Y16982600D02*
Y16629000D01*
X76700000Y18200000D02*
Y16982600D01*
X78300000Y21400000D02*
X77068000D01*
X76707600Y21039600D01*
X76699100Y20789600D01*
X76707600Y21039600D02*
X76449100D01*
X76449100Y20789600D02*
X76447000D01*
Y20779000D01*
X76707600Y21039600D01*
X78300000Y20200000D02*
X79522400D01*
X78300000Y21000000D02*
X79847000D01*
X78300000Y19800000D02*
X79387000D01*
X79547000Y19640000D01*
Y19432600D01*
X78300000Y23800000D02*
X76668000D01*
X78300000Y23000000D02*
X81797000D01*
X82318000Y22479000D01*
X83568000D01*
X84647000Y23558000D01*
Y23829000D01*
X85647000Y24829000D01*
X76850600Y23000000D02*
X76673800Y22823200D01*
X76850600Y23000000D02*
X76673800Y23176800D01*
X76850600Y23000000D02*
X78300000D01*
X76497000Y23000000D02*
X76850600D01*
X76656200Y22120200D02*
Y21869800D01*
X76656200Y22120200D02*
X76440300Y22085600D01*
X76676000Y22140000D02*
Y21850000D01*
X76676000Y22140000D02*
X76656200Y22120200D01*
X76400000Y22100000D02*
X76420200Y22120200D01*
X76656200D01*
X76426000Y21890000D01*
Y21850000D01*
X78300000Y22200000D02*
X76736000D01*
X76676000Y22140000D01*
X78300000Y21800000D02*
X79847000D01*
X78300000Y22600000D02*
X79847000D01*
X78300000Y23400000D02*
X79847000D01*
X78300000Y25000000D02*
X79847000D01*
X78300000Y25800000D02*
X79847000D01*
X78300000Y26200000D02*
X76676000D01*
X78300000Y25400000D02*
X76676000D01*
X78300000Y24600000D02*
X76668000D01*
X78300000Y24200000D02*
X81626000D01*
X82547000Y23279000D01*
X81318000Y26600000D02*
X78300000D01*
X78300000Y27800000D02*
X76676000D01*
X78300000Y27400000D02*
X79847000D01*
X78300000Y28200000D02*
X79847000D01*
X78300000Y27000000D02*
X76668000D01*
X78300000Y29000000D02*
X79847000D01*
X78300000Y28600000D02*
X82663000D01*
X82889500Y28373500D01*
X78300000Y29800000D02*
X79847000D01*
X78300000Y30600000D02*
X79847000D01*
X78300000Y31400000D02*
X79847000D01*
X78300000Y31800000D02*
X76726000D01*
X78300000Y31000000D02*
X76726000D01*
X78300000Y32200000D02*
X79847000D01*
X76300000Y33800000D02*
Y34982000D01*
X77097000Y35779000D01*
X78943400D01*
X75900000Y33800000D02*
Y35532000D01*
X75947000Y35579000D01*
X76700000Y33800000D02*
Y34832000D01*
X76847000Y34979000D01*
X77043400D01*
X75947000Y35579000D02*
Y35829000D01*
X75947000Y35579000D02*
X76197000D01*
X75947000Y35579000D02*
X76197000Y35829000D01*
X77043400Y34979000D02*
X77220200Y35155800D01*
X77043400Y34979000D02*
X77220200Y34802200D01*
X77397000Y34979000D02*
X77043400D01*
X79522400Y20200000D02*
X79699200Y20376800D01*
X79522400Y20200000D02*
X79699200Y20023200D01*
X79522400Y20200000D02*
X79876000D01*
X79547000Y19432600D02*
X79723800Y19255800D01*
X79547000Y19432600D02*
X79370200Y19255800D01*
X79547000Y19079000D02*
Y19432600D01*
X78943400Y35779000D02*
X79120200Y35955800D01*
X78943400Y35779000D02*
X79120200Y35602200D01*
X79297000Y35779000D02*
X78943400D01*
X82547000Y23279000D02*
X82797000D01*
X82547000Y23279000D02*
Y23029000D01*
X82547000Y23279000D02*
X82797000Y23029000D01*
X81318000Y26600000D02*
Y26849000D01*
X81318000Y26600000D02*
X81567000Y26600100D01*
X81567500Y26849500D02*
X81318000Y26600000D01*
X85647000Y24829000D02*
Y25079000D01*
X85647000Y24829000D02*
X85897000D01*
X85897000Y25079000D02*
X85647000Y24829000D01*
X85693400Y38129000D02*
X85870200Y38305800D01*
X85693400Y38129000D02*
X85870200Y37952200D01*
X85693400Y38129000D02*
X86047000D01*
X84286500Y38406500D02*
X85219500D01*
X85497000Y38129000D01*
X85693400D01*
X90892800Y44789000D02*
X91070200Y44965200D01*
X90892800Y44789000D02*
X91070200Y44611600D01*
X90892800Y44789000D02*
X90307000D01*
X91247000Y44788400D02*
X91197000Y44738400D01*
Y44729000D01*
X91137000Y44789000D01*
X90892800D01*
X8497000Y20379000D02*
X8747000Y20629000D01*
Y21967000D01*
X10417000Y19849000D02*
X9027000D01*
X8497000Y20379000D01*
X11833000Y23099000D02*
X9730000D01*
X9338000Y23491000D01*
X8747000D01*
X8741000Y24421900D02*
X8697000D01*
Y24426900D01*
X8797000D01*
X8747000Y24376900D01*
Y23491000D01*
X7197500Y35179500D02*
X7642000Y34735000D01*
Y33707500D01*
X7197500Y36501500D02*
Y35179500D01*
X12197000Y36679000D02*
X10997000D01*
X10247000Y37429000D01*
X7447000D01*
X7197500Y37179500D01*
Y36501500D01*
X11452000Y10657000D02*
X9997000D01*
X11452000Y12181000D02*
Y13074000D01*
X10417000Y20479000D02*
Y21129000D01*
X10417000Y20479000D02*
Y19849000D01*
X11833000Y20499000D02*
X10437000D01*
X10417000Y20479000D01*
X10417000Y21829000D02*
Y21129000D01*
X10417000Y19849000D02*
X11833000D01*
X11833000Y21149000D02*
X10437000D01*
X10417000Y21129000D01*
X11833000Y28299000D02*
X10567000D01*
X10347000Y28079000D01*
Y23979000D01*
X10577000Y23749000D01*
X11833000D01*
X10417000Y21829000D02*
Y22449000D01*
X11833000Y21799000D02*
X10447000D01*
X10417000Y21829000D01*
X11833000Y22449000D02*
X10417000D01*
X11833000Y30899000D02*
X10627000D01*
X10477000Y31049000D01*
Y31549000D01*
X11833000Y31549000D02*
X10477000D01*
X10467000Y34799000D02*
X11833000D01*
X9347000Y55279000D02*
Y57240000D01*
X11347000Y54279000D02*
X10847000Y54779000D01*
X13297000Y70405000D02*
X12047000D01*
X11623000Y70829000D01*
X11597000D01*
X11833000Y19849000D02*
X13147000D01*
X13297000Y19699000D01*
Y18754000D01*
X13092000Y18549000D01*
X11833000D01*
X11833000Y25699000D02*
X13217000D01*
X13950000Y26432000D01*
Y28038000D01*
X13952000Y28040000D01*
Y28558000D01*
X13950000Y28560000D01*
Y29726000D01*
X13427000Y30249000D01*
X13421900D01*
X13327000Y28299000D02*
X11833000D01*
X13421900Y30249000D02*
X11833000D01*
X11833000Y34799000D02*
X12867000D01*
X13047000Y34979000D01*
Y35829000D01*
X12197000Y36679000D01*
X14182000Y36819000D02*
Y37794000D01*
X13847000Y38129000D01*
X12997000D01*
X12597000Y37729000D01*
Y37079000D01*
X12197000Y36679000D01*
X14182000Y35364000D02*
Y36819000D01*
X14347000Y55279000D02*
Y56029000D01*
X15250000Y77400000D02*
Y76226000D01*
X15547000Y75929000D01*
X16250000D01*
X17250000Y75929000D02*
X16250000D01*
X16250000Y77400000D02*
Y75929000D01*
X15750000Y77400000D02*
Y78429000D01*
X16200000Y78879000D01*
X16750000D01*
X16750000Y77400000D02*
Y78879000D01*
X17750000Y77400000D02*
Y78350000D01*
X17221000Y78879000D01*
X16750000D01*
X19338000Y8039000D02*
Y8038000D01*
X18119500Y6819500D01*
Y5767500D01*
X18732000Y15229000D02*
X18747000Y15244000D01*
Y16629000D01*
X18782000Y16664000D01*
X20032000D01*
X17432000Y36819000D02*
Y34994000D01*
X17897000Y34529000D01*
X19997000D01*
X19250000Y77400000D02*
Y76182000D01*
X18997000Y75929000D01*
X17250000D01*
X17250000Y77400000D02*
Y75929000D01*
X21332000Y15229000D02*
Y16218000D01*
X20886000Y16664000D01*
X20032000D01*
Y15229000D01*
X22250000Y77400000D02*
Y78936200D01*
X22500000Y79186200D01*
X23250000D01*
X25000000Y10100000D02*
X24368000D01*
X24197000Y9929000D01*
Y8929000D01*
X24582000Y15229000D02*
Y16364000D01*
X24897000Y16679000D01*
X25697000D01*
X25897000Y16479000D01*
Y15244000D01*
X25882000Y15229000D01*
X23282000Y36819000D02*
Y38794000D01*
X23197000Y38879000D01*
X24250000Y77400000D02*
Y79174800D01*
X24238600Y79186200D01*
X23250000Y79186200D02*
Y77400000D01*
X24238600Y79186200D02*
X23250000D01*
X25882000Y15229000D02*
Y13914000D01*
X25897000Y13929000D01*
X27581000Y17899000D02*
X28703500D01*
X26296400Y25699000D02*
X26083800Y25664100D01*
X26296400Y25699000D02*
X26083800Y25911500D01*
X26296400Y25699000D02*
X25997000D01*
Y25787800D01*
X25960100D01*
X27581000Y25699000D02*
X26296400D01*
X27581000Y26349000D02*
X29027000D01*
X29250000Y26126000D01*
Y24326000D01*
X27581000Y32199000D02*
X28977000D01*
X27581000Y34149000D02*
X26517000D01*
X26247000Y33879000D01*
Y33579000D01*
X27747000Y47000000D02*
Y47612000D01*
X27787000Y47652000D01*
X27147000Y49329000D02*
X27554000Y48922000D01*
X27787000D01*
X28297000Y52129000D02*
Y51972000D01*
X27787000Y51462000D01*
X28347000Y53329000D02*
Y53442000D01*
X27787000Y54002000D01*
X27787000Y56542000D02*
X27760000D01*
X27147000Y55929000D01*
X27787000Y59082000D02*
X27152000Y59717000D01*
X27787000Y61622000D02*
X27152000Y62257000D01*
X27787000Y62892000D02*
X27152000Y63527000D01*
X27787000Y64162000D02*
Y64189000D01*
X27197000Y64779000D01*
X28703500Y17899000D02*
X29026300Y17576300D01*
X28703500Y17899000D02*
X28903000D01*
X29126000Y17676000D01*
X29150000Y17700000D01*
X29647000Y48029000D02*
X29434000D01*
X29057000Y47652000D01*
X30327000Y47652000D02*
Y47659000D01*
X30697000Y48029000D01*
X30947000D01*
X29057000Y64162000D02*
X29207000D01*
X29697000Y63672000D01*
X30327000Y64162000D02*
X29692000Y64797000D01*
X34797000Y28429000D02*
X34297000Y28929000D01*
X32247000D01*
X31747000Y29429000D01*
Y29479000D01*
X31397000Y29829000D01*
X31597000Y47652000D02*
X31720000D01*
X32247000Y48179000D01*
X32297000Y63679000D02*
X32197000D01*
X31714000Y64162000D01*
X31597000D01*
X32867000Y66702000D02*
X32232000Y67337000D01*
X32750000Y77400000D02*
Y78432000D01*
X32997000Y78679000D01*
X34012000D01*
X34250000Y78441000D01*
Y77400000D01*
X33347000Y23979000D02*
X33397000Y23929000D01*
X34297000D01*
X34797000Y24429000D01*
X34797000Y31429000D02*
X34297000Y31929000D01*
X33797000Y37379000D02*
Y35429000D01*
X35947000Y48179000D02*
X35420000Y47652000D01*
X35407000D01*
X34137000Y47652000D02*
X34647000Y48162000D01*
Y48129000D01*
X34897000Y64929000D02*
X35022000Y64804000D01*
Y64547000D01*
X35407000Y64162000D01*
X35407000Y66702000D02*
X34772000Y67337000D01*
X34250000Y77400000D02*
Y75683500D01*
X34883500Y75050000D01*
Y73331500D01*
X36122000Y73331500D02*
X34883500D01*
X34750000Y77400000D02*
Y78532000D01*
X35147000Y78929000D01*
X36647000Y7579000D02*
Y8245000D01*
X36900000Y8498000D01*
X38839500D01*
X36897000Y12079000D02*
X38127500D01*
X38839500Y12791000D01*
Y13578000D01*
X38797000Y26429000D02*
X38779000D01*
X38347000Y25997000D01*
Y25879000D01*
X38797000Y29429000D02*
X38297000Y29929000D01*
X37797000Y34429000D02*
X37300000Y34926000D01*
Y35218800D01*
X37297000Y35221800D01*
Y35636200D01*
X37300000Y35639200D01*
Y35950000D01*
X36971000Y36279000D01*
X36950000D01*
X37947000Y47652000D02*
X38397000Y48102000D01*
Y48129000D01*
X36997000Y64829000D02*
Y64550000D01*
X36677000Y64230000D01*
Y64162000D01*
X42649500Y10085500D02*
Y9131500D01*
X42016000Y8498000D01*
X38839500D01*
X38839500Y13578000D02*
X39678000D01*
X40400000Y14300000D01*
X42069600D01*
X42318600Y14051000D01*
X42321300D01*
X42540800Y13831500D01*
X42550000D01*
X42930500Y13451000D01*
X43284500D01*
X40797000Y26429000D02*
X40747000D01*
X40247000Y26929000D01*
X39797000Y26429000D02*
Y26479000D01*
X40247000Y26929000D01*
X39797000Y26429000D02*
X38797000Y25429000D01*
X39797000Y25429000D02*
X40297000Y25929000D01*
X40247000Y27829000D02*
X40397000D01*
X40797000Y27429000D01*
X40247000Y27829000D02*
X40179000D01*
X39797000Y27447000D01*
Y27429000D01*
X40797000Y28429000D02*
X40297000Y28929000D01*
X39797000Y28429000D02*
X40297000Y28929000D01*
X38797000Y30429000D02*
X39797000Y29429000D01*
X40297000Y29929000D01*
X40797000Y29429000D02*
X40297000Y29929000D01*
X39797000Y30429000D02*
X39297000Y30929000D01*
X41757000Y47652000D02*
X41424000D01*
X41147000Y47929000D01*
X39947000Y47929000D02*
X39647000D01*
X39370000Y47652000D01*
X39217000D01*
X39250000Y77400000D02*
Y78582000D01*
X39747000Y79079000D01*
X41247000D01*
X39750000Y77400000D02*
Y76876000D01*
X39947000Y76679000D01*
X40497000D01*
X43284500Y13451000D02*
Y12900000D01*
X43484500Y12700000D01*
X44100000D01*
X44350000Y12450000D01*
Y10832000D01*
X43603500Y10085500D01*
X42649500D01*
X42347000Y27029000D02*
X42797000Y26579000D01*
Y26429000D01*
X42347000Y27029000D02*
X41797000Y26479000D01*
Y26429000D01*
X42797000Y26429000D02*
X43797000Y25429000D01*
X43797000Y26429000D02*
X44297000Y25929000D01*
X42797000Y27429000D02*
X42397000Y27029000D01*
X42347000D01*
X41797000Y27429000D02*
X41921000D01*
X42321000Y27029000D01*
X42347000D01*
X41797000Y28429000D02*
X42297000Y28929000D01*
X42797000Y28429000D01*
X41797000Y29429000D02*
X42297000Y29929000D01*
X42797000Y29429000D01*
X43797000Y30429000D01*
X43797000Y29429000D02*
X44297000Y28929000D01*
X42797000Y30429000D02*
X43297000Y30929000D01*
X41797000Y34429000D02*
X42297000Y34929000D01*
Y37629000D01*
X42447000Y51329000D02*
Y48229000D01*
X43024000Y47652000D01*
X43027000D01*
X43547000Y63629000D02*
X43027000Y64149000D01*
Y64162000D01*
X44797000Y34429000D02*
X45297000Y34929000D01*
X48797000Y20429000D02*
X49347000D01*
X49847000Y20929000D01*
X47797000Y27429000D02*
X48297000Y26929000D01*
X47797000Y31429000D02*
Y31447000D01*
X48279000Y31929000D01*
X50097000D01*
X50347000Y31679000D01*
X48797000Y35429000D02*
X49297000Y35929000D01*
X48350000Y76350000D02*
X49400000D01*
X49397000Y77317000D02*
Y76353000D01*
X49400000Y76350000D01*
X52050000Y10100000D02*
Y5482000D01*
X53050000Y10100000D02*
Y12079000D01*
X54050000Y12079000D02*
Y10100000D01*
X53050000Y12079000D02*
X52497000D01*
X52050000Y11632000D01*
Y10100000D01*
X55050000Y12079000D02*
X54050000D01*
X53050000Y12079000D02*
X54050000D01*
X55050000Y10100000D02*
Y7826000D01*
X55650000Y7226000D01*
Y6000000D01*
X55147000Y5497000D01*
Y5479000D01*
X57050000Y10100000D02*
Y12079000D01*
X55050000Y12079000D02*
Y10100000D01*
X57050000Y12079000D02*
X55050000D01*
X57050000Y12079000D02*
X58550000D01*
X58550000Y10100000D02*
Y8950000D01*
X58947000Y8553000D01*
Y5779000D01*
X59597000Y5129000D01*
X59050000Y12079000D02*
Y10100000D01*
X58550000Y12079000D02*
Y10100000D01*
X58550000Y12079000D02*
X59050000D01*
X61050000Y12079000D02*
X59050000D01*
X60213000Y73200000D02*
Y73237000D01*
X59458000Y73992000D01*
Y78411500D01*
Y81408000D01*
X59929000Y81879000D01*
X60447000D01*
X61050000Y12079000D02*
Y10100000D01*
X63050000Y12079000D02*
X61050000D01*
X60447000Y81879000D02*
X61171000D01*
X62098500Y80951500D01*
X63268000D01*
X63050000Y10100000D02*
Y9100000D01*
X63697000Y8453000D01*
Y5079000D01*
X65050000Y10100000D02*
Y12029000D01*
X65100000Y12079000D01*
X63050000Y12079000D02*
Y10100000D01*
X63050000Y12079000D02*
X65100000D01*
X64400000Y42639000D02*
Y42942000D01*
X64710000Y43252000D01*
X64729500D01*
X64269500Y44889000D02*
X64389000D01*
X64729500Y45229500D01*
Y45252000D01*
X64319500Y59740400D02*
X64320900D01*
X64660000Y60079500D01*
X64729500D01*
X64369500Y62439000D02*
Y62430500D01*
X64720500Y62079500D01*
X64729500D01*
X65913000Y73213000D02*
X64963000D01*
X64397000Y73779000D01*
Y75255000D01*
X64697000Y78603000D02*
X64397000Y78303000D01*
X66550000Y5132000D02*
Y10100000D01*
Y11726000D01*
X66197000Y12079000D01*
X65100000D01*
X65913000Y73213000D02*
X67937000D01*
X68247000Y73523000D01*
Y75255000D01*
X68729500Y42252000D02*
X68656800Y42226300D01*
X68319500Y41889000D01*
X70800000Y42227500D02*
X70752000D01*
X70727500Y42252000D01*
X70329500D01*
X69819500Y46739000D02*
Y46539000D01*
X69532500Y46252000D01*
X69529500D01*
X69529500Y47252000D02*
Y47229000D01*
X69819500Y46939000D01*
Y46739000D01*
X68469500Y53689000D02*
Y53512000D01*
X68729500Y53252000D01*
X68729500Y59079500D02*
X68360000D01*
X68219500Y58939000D01*
X70519500Y58139000D02*
Y58889500D01*
X70329500Y59079500D01*
X69719500Y60589900D02*
Y60889500D01*
X69529500Y61079500D01*
X69169500Y63489000D02*
Y63439000D01*
X69529000Y63079500D01*
X69529500D01*
X69529500Y64079500D02*
X69869500Y63689000D01*
X68019500Y70389000D02*
X68285700Y70122800D01*
X68729500Y70079500D01*
X75777500Y37279000D02*
Y38406500D01*
X77301500Y38406500D02*
X78397000D01*
X78699500Y45252000D02*
X78582500D01*
X78319500Y44989000D01*
X78319500Y61789000D02*
X78610000Y62079500D01*
X78699500D01*
X78699500Y43252000D02*
Y43000500D01*
X78950000Y42750000D01*
X79050000Y60450000D02*
Y60400000D01*
X78729500Y60079500D01*
X78699500D01*
X81147000Y76879000D02*
Y72703000D01*
X81721000Y72129000D01*
X81747000D01*
X81147000Y78729000D02*
X78825500D01*
X81147000Y78729000D02*
Y79079000D01*
X81432000Y79364000D01*
X82318000D01*
X82897000Y16929000D02*
Y17714000D01*
X82889500Y17721500D01*
Y17959500D01*
X82889500Y19483500D02*
X81647000D01*
X82889500Y26849500D02*
X81567500D01*
X83799500Y27829000D02*
X84123300Y27505300D01*
X83799500Y27829000D02*
X83697000D01*
X83152500Y28373500D01*
X82889500D01*
X82699500Y42252000D02*
X82252000D01*
X84069500Y43739000D02*
X84019500D01*
X83506500Y44252000D01*
X83499500D01*
X83499500Y47252000D02*
Y47250500D01*
X84061000Y46689000D01*
X83939000D01*
X83501500Y46251500D01*
Y46250000D01*
X83499500Y46252000D01*
X82699500Y53252000D02*
X82169500D01*
X84569500Y60589000D02*
X84019500D01*
X83529000Y61079500D01*
X83499500D01*
X83499500Y64079500D02*
X83269500Y64309500D01*
Y64489000D01*
X83119500Y63389000D02*
X83429000Y63079500D01*
X83499500D01*
X82699500Y70079500D02*
X81837000D01*
X81798000Y70040500D01*
X87547000Y72579000D02*
X83478000D01*
X83207000Y72850000D01*
Y74030000D01*
X81147000Y76879000D02*
Y78729000D01*
X85366000Y79364000D02*
X84564000D01*
X83207000Y78007000D01*
Y77078000D01*
X84247000Y27629000D02*
X84047000Y27829000D01*
X83799500D01*
X84299500Y42252000D02*
X84750000D01*
X84299500Y59079500D02*
Y58559000D01*
X85366000Y79364000D02*
X86862000D01*
X87447000Y78779000D01*
X87547000Y72579000D02*
Y73925000D01*
X87652000Y74030000D01*
X87652000Y77078000D02*
Y78574000D01*
X87447000Y78779000D01*
X38750000Y82141400D02*
X38517300Y81908700D01*
X38750000Y82141400D02*
Y82106000D01*
X38535000Y81891000D01*
X66947000Y82629000D02*
Y83279000D01*
X66097000Y84129000D01*
X39497000D01*
X38750000Y83382000D01*
Y82141400D01*
X68247000Y78303000D02*
X64397000D01*
X66316000Y80951500D02*
X65069500D01*
X64697000Y80579000D01*
Y78603000D01*
X66316000Y80951500D02*
Y81998000D01*
X66947000Y82629000D01*
X36797000Y18929000D02*
X37327500Y19459500D01*
Y20959500D01*
X37797000Y21429000D01*
X43027000Y65432000D02*
X43065500D01*
X43710500Y64787000D01*
X43027000Y66702000D02*
X43065500D01*
X43710500Y66057000D01*
X41757000Y65432000D02*
X41795500D01*
X42440500Y64787000D01*
X43027000Y67972000D02*
X43065500D01*
X43710500Y67327000D01*
X46058000Y18965900D02*
X45297000Y19726900D01*
Y20929000D01*
X44797000Y21429000D01*
X46177000Y47041000D02*
X46126000Y47092000D01*
Y47093000D01*
X45567000Y47652000D01*
X46177000Y48311000D02*
X46126000Y48362000D01*
Y48363000D01*
X45567000Y48922000D01*
X46177000Y49581000D02*
X46126000Y49632000D01*
Y49633000D01*
X45567000Y50192000D01*
X44907000Y49581000D02*
X44856000Y49632000D01*
Y49633000D01*
X44297000Y50192000D01*
X46177000Y50851000D02*
X46126000Y50902000D01*
Y50903000D01*
X45567000Y51462000D01*
X46177000Y52121000D02*
X46126000Y52172000D01*
Y52173000D01*
X45567000Y52732000D01*
X44907000Y52121000D02*
X44856000Y52172000D01*
Y52173000D01*
X44297000Y52732000D01*
X46177000Y53391000D02*
X46126000Y53442000D01*
Y53443000D01*
X45567000Y54002000D01*
X46177000Y55931000D02*
X46126000Y55982000D01*
Y55983000D01*
X45567000Y56542000D01*
X46177000Y54661000D02*
X46126000Y54712000D01*
Y54713000D01*
X45567000Y55272000D01*
X44907000Y54661000D02*
X44856000Y54712000D01*
Y54713000D01*
X44297000Y55272000D01*
X44403400Y57705600D02*
X44953000Y57205000D01*
X44403400Y57705600D02*
X44903200Y57155100D01*
X44403400Y57705600D02*
X44297000Y57812000D01*
X44958000Y57150000D02*
X44856000Y57252000D01*
Y57253000D01*
X44403400Y57705600D01*
X45673400Y57705600D02*
X46223000Y57205000D01*
X45673400Y57705600D02*
X46173200Y57155100D01*
X45673400Y57705600D02*
X45567000Y57812000D01*
X46228000Y57150000D02*
X46126000Y57252000D01*
Y57253000D01*
X45673400Y57705600D01*
X45673400Y58975600D02*
X46223000Y58475000D01*
X45673400Y58975600D02*
X46173200Y58425100D01*
X46228000Y58420000D02*
X46126000Y58522000D01*
Y58523000D01*
X45673400Y58975600D01*
X45567000Y59082000D01*
X46228000Y59690000D02*
X46126000Y59792000D01*
Y59793000D01*
X45673400Y60245600D01*
X45567000Y60352000D01*
X45673400Y60245600D02*
X46173200Y59695100D01*
X45673400Y60245600D02*
X46223000Y59745000D01*
X44403400Y60245600D02*
X44953000Y59745000D01*
X44403400Y60245600D02*
X44903200Y59695100D01*
X44403400Y60245600D02*
X44297000Y60352000D01*
X44958000Y59690000D02*
X44856000Y59792000D01*
Y59793000D01*
X44403400Y60245600D01*
X45673400Y61515600D02*
X46223000Y61015000D01*
X45673400Y61515600D02*
X46173200Y60965100D01*
X46228000Y60960000D02*
X46126000Y61062000D01*
Y61063000D01*
X45673400Y61515600D01*
X45567000Y61622000D01*
X45673400Y62785600D02*
X46223000Y62285000D01*
X45673400Y62785600D02*
X46173200Y62235100D01*
X45673400Y62785600D02*
X45567000Y62892000D01*
X46228000Y62230000D02*
X46126000Y62332000D01*
Y62333000D01*
X45673400Y62785600D01*
X45673400Y64055600D02*
X46223000Y63555000D01*
X45673400Y64055600D02*
X46173200Y63505100D01*
X45673400Y64055600D02*
X45567000Y64162000D01*
X46228000Y63500000D02*
X46126000Y63602000D01*
Y63603000D01*
X45673400Y64055600D01*
X44958000Y66040000D02*
X44856000Y66142000D01*
Y66143000D01*
X44403400Y66595600D01*
X44297000Y66702000D01*
X44403400Y66595600D02*
X44903200Y66045100D01*
X44403400Y66595600D02*
X44953000Y66095000D01*
X44403400Y65325600D02*
X44953000Y64825000D01*
X44403400Y65325600D02*
X44903200Y64775100D01*
X44403400Y65325600D02*
X44297000Y65432000D01*
X44958000Y64770000D02*
X44856000Y64872000D01*
Y64873000D01*
X44403400Y65325600D01*
X45673400Y66595600D02*
X46223000Y66095000D01*
X45673400Y66595600D02*
X46173200Y66045100D01*
X45673400Y66595600D02*
X45567000Y66702000D01*
X46228000Y66040000D02*
X46126000Y66142000D01*
Y66143000D01*
X45673400Y66595600D01*
X45673400Y65325600D02*
X46223000Y64825000D01*
X45673400Y65325600D02*
X46173200Y64775100D01*
X45673400Y65325600D02*
X45567000Y65432000D01*
X46228000Y64770000D02*
X46126000Y64872000D01*
Y64873000D01*
X45673400Y65325600D01*
X46837000Y67972000D02*
X46169500Y67304500D01*
Y67289000D01*
X46369500Y68489000D02*
X46120800D01*
X45603800Y67972000D01*
X45567000D01*
X44403400Y67865600D02*
X44953000Y67365000D01*
X44403400Y67865600D02*
X44903200Y67315100D01*
X44403400Y67865600D02*
X44297000Y67972000D01*
X44958000Y67310000D02*
X44856000Y67412000D01*
Y67413000D01*
X44403400Y67865600D01*
X47468500Y47240000D02*
X47249000D01*
X46837000Y47652000D01*
X51912500Y46190000D02*
X50586000D01*
X49124000Y47652000D01*
X48107000D01*
X51912500Y48730000D02*
X50528500D01*
X49119500Y50139000D01*
X48160000D01*
X48107000Y50192000D01*
X51912500Y47790000D02*
X50718500D01*
X48979500Y49529000D01*
X47444000D01*
X46837000Y48922000D01*
X51912500Y46740000D02*
X50918500D01*
X48736500Y48922000D01*
X48107000D01*
X51912500Y50330000D02*
X51378500D01*
X50169500Y51539000D01*
X49095000D01*
X48505000Y52129000D01*
X47797000D01*
X47207000Y51539000D01*
X46914000D01*
X46837000Y51462000D01*
X51912500Y49280000D02*
X50860800D01*
X49101800Y51039000D01*
X48530000D01*
X48107000Y51462000D01*
X51912500Y52637500D02*
X49438500D01*
X48737000Y53339000D01*
X47500000D01*
X46837000Y54002000D01*
X51912500Y52137500D02*
X49238500D01*
X48644000Y52732000D01*
X48107000D01*
X47120000Y52449000D02*
X47319500D01*
X47120000Y52449000D02*
X46837000Y52732000D01*
X47319500Y52389000D02*
X47180000D01*
X47120000Y52449000D01*
X51912500Y54127500D02*
X49844000D01*
X48699500Y55272000D01*
X48107000D01*
X47210000Y54899000D02*
X47419500D01*
X47210000Y54899000D02*
X46837000Y55272000D01*
X47419500Y54839000D02*
X47270000D01*
X47210000Y54899000D01*
X51912500Y54677500D02*
X50398500D01*
X48534000Y56542000D01*
X48107000D01*
X51912500Y56667500D02*
X49958500D01*
X48814000Y57812000D01*
X48107000D01*
X47419500Y57739000D02*
X46910000D01*
X46837000Y57812000D01*
X51912500Y55727500D02*
X50148500D01*
X48697000Y57179000D01*
X47474000D01*
X46837000Y56542000D01*
X51912500Y57217500D02*
X50358500D01*
X49037000Y58539000D01*
X47380000D01*
X46837000Y59082000D01*
X46837000Y60352000D02*
X47202000D01*
X47829000Y60979000D01*
X50359500D01*
X50975500Y61595000D01*
X51943000D01*
X48107000Y60352000D02*
X50398000D01*
X50742500Y60007500D01*
X51943000D01*
X48107000Y61622000D02*
X47802500D01*
X47469500Y61289000D01*
X51912500Y57717500D02*
X50991000D01*
X49619500Y59089000D01*
X48114000D01*
X48107000Y59082000D01*
X51912500Y66607500D02*
X51175500D01*
X48747000Y64179000D01*
Y63879000D01*
X48397000Y63529000D01*
X47459500D01*
X46837000Y62906500D01*
Y62892000D01*
X51912500Y65557500D02*
X51357500D01*
X49600000Y63800000D01*
Y63250000D01*
X48600000Y62250000D01*
X47450000D01*
X46837000Y61637000D01*
Y61622000D01*
X51912500Y66107500D02*
X51905000Y66100000D01*
X51300000D01*
X49170000Y63970000D01*
Y63570000D01*
X48492000Y62892000D01*
X48107000D01*
X51912500Y67157500D02*
X51207500D01*
X48289000Y64239000D01*
X48184000D01*
X48107000Y64162000D01*
X51912500Y68097500D02*
X51571700D01*
X48303200Y64829000D01*
X47559500D01*
X46892500Y64162000D01*
X46837000D01*
X51912500Y68647500D02*
X51497500D01*
X48282000Y65432000D01*
X48107000D01*
X51912500Y69147500D02*
X51904000Y69139000D01*
X51319500D01*
X48259500Y66079000D01*
X47947000D01*
X47300000Y65432000D01*
X46837000D01*
X51912500Y69697500D02*
X51102500D01*
X48107000Y66702000D01*
X47252500Y66012200D02*
X47269500D01*
Y66289000D01*
X46856500Y66702000D01*
X46837000D01*
X47469500Y67489000D02*
X47952500Y67972000D01*
X48107000D01*
X51912500Y47240000D02*
X51218500D01*
X51912500Y49780000D02*
X51110500D01*
X51912500Y53187500D02*
X49719500D01*
X51912500Y58267500D02*
X51198000D01*
X51912500Y63017500D02*
X50269500D01*
Y63018600D01*
X50245100D01*
X50400000Y64067500D02*
X51912500D01*
X51912500Y63567500D02*
X49997000D01*
X51912500Y64617500D02*
X51047000D01*
Y64614500D01*
X51042400D01*
X52862500Y47790000D02*
X53470500D01*
X52862500Y46740000D02*
X53468500D01*
X52862500Y47240000D02*
X53769500D01*
X52862500Y46190000D02*
X53769500D01*
X52862500Y50330000D02*
X53469500D01*
X52862500Y49280000D02*
X53469500D01*
X52862500Y49780000D02*
X53769500D01*
X52862500Y48730000D02*
X53769500D01*
X52862500Y51587500D02*
X53769500D01*
X52862500Y52637500D02*
X53769500D01*
X52862500Y52137500D02*
X53469500D01*
X52862500Y53187500D02*
X53469500D01*
X52862500Y54127500D02*
X53769500D01*
X52862500Y55177500D02*
X53769500D01*
X52862500Y54677500D02*
X53469500D01*
X52862500Y55727500D02*
X53469500D01*
X52862500Y56667500D02*
X53769500D01*
X52862500Y58267500D02*
X53469500D01*
X52862500Y57717500D02*
X53769500D01*
X52862500Y57217500D02*
X53469500D01*
X52650000Y60689000D02*
Y60308500D01*
X52951000Y60007500D01*
X53467000D01*
X53467000Y61595000D02*
X53013000D01*
X52647000Y61229000D01*
X52862500Y63017500D02*
X53869500D01*
X52862500Y64067500D02*
X53386800D01*
X53425300Y64029000D01*
X53567200D01*
X53796200Y63800000D01*
X54058500D01*
X54069500Y63789000D01*
X52862500Y63567500D02*
X53519500D01*
X52862500Y64617500D02*
X53382500D01*
X53579500Y64420500D01*
Y64394000D01*
X53574500Y64389000D01*
X52862500Y66607500D02*
X53688000D01*
X52862500Y65557500D02*
X53738000D01*
X52862500Y66107500D02*
X53401000D01*
X52862500Y67157500D02*
X53451000D01*
X52862500Y68097500D02*
X53561000D01*
X53869500Y67789000D01*
X52862500Y68647500D02*
X53478000D01*
X52862500Y69147500D02*
X53911000D01*
X53919500Y69139000D01*
X52862500Y69697500D02*
X53569500D01*
X63269500Y42739000D02*
X63929500Y43252000D01*
X64550000Y41550000D02*
Y42072500D01*
X64729500Y42252000D01*
X63929500Y42252000D02*
X63506500Y41829000D01*
X63479500D01*
X63469500Y41839000D01*
X65529500Y45252000D02*
X65470000D01*
X64969500Y44751500D01*
Y44739000D01*
X62953100Y44981400D02*
X63223700Y45252000D01*
X63929500D01*
X63419500Y43739000D02*
X63407000D01*
X63920000Y44252000D01*
X63929500D01*
X64729500Y44252000D02*
X64539500Y44062000D01*
X64479500Y44002000D01*
X64348000D01*
X64539500Y44062000D02*
X64348000D01*
X65529500Y48252000D02*
X65256500Y47979000D01*
X65159500D01*
X64919500Y47739000D01*
X63319500Y45839000D02*
X63307000D01*
X63720000Y46252000D01*
X63929500D01*
X64969500Y46742000D02*
X64975500D01*
X65485500Y47252000D01*
X65529500D01*
X64471700Y46822900D02*
Y46509800D01*
X64729500Y46252000D01*
X64729500Y47252000D02*
Y47249000D01*
X64471700Y46991200D01*
Y46822900D01*
X64338000Y49620500D02*
X64169500D01*
X64338000Y49620500D02*
X64706500Y49252000D01*
X64729500D01*
X64169500Y49680500D02*
X64278000D01*
X64338000Y49620500D01*
X63869500Y48389000D02*
X64592500D01*
X64729500Y48252000D01*
X64069500Y50252000D02*
X64729500D01*
X64497000Y53479000D02*
X64690500Y53285500D01*
Y53213000D01*
X64729500Y53252000D01*
X64319500Y53539000D02*
X64437000D01*
X64497000Y53479000D01*
X64729500Y52252000D02*
X64019500D01*
X64729500Y51252000D02*
X63819500D01*
X64497000Y53479000D02*
X64319500D01*
X64419500Y58589000D02*
Y58769500D01*
X64729500Y59079500D01*
X63419500Y61112000D02*
X63897000D01*
X63929500Y61079500D01*
X63929500Y60079500D02*
X63510000D01*
X63069500Y59639000D01*
X63929500Y59079500D02*
X63839000Y58989000D01*
X63069500D01*
X64319500Y61339000D02*
X64579000Y61079500D01*
X64729500D01*
X63119500Y62939000D02*
X63260000Y63079500D01*
X63929500D01*
X63929500Y62079500D02*
X63269900D01*
X63269500Y62079100D01*
X63069500D01*
X64729500Y64079500D02*
X64269500Y63619500D01*
Y63589000D01*
X64979000Y63329000D02*
X65119500D01*
X64979000Y63329000D02*
X64729500Y63079500D01*
X65119500Y63389000D02*
X65039000D01*
X64979000Y63329000D01*
X64729500Y66079500D02*
X63919500D01*
X63769500Y64759000D02*
X64039500D01*
X64360000Y65079500D01*
X64729500D01*
X64069500Y67239000D02*
X64252500Y67056000D01*
X64706000D01*
X64729500Y67079500D01*
X63891000Y69088000D02*
X64721000D01*
X64729500Y69079500D01*
X63954500Y68072000D02*
X64722000D01*
X64729500Y68079500D01*
X63819500Y70189000D02*
X63929000Y70079500D01*
X64729500D01*
X65529500Y43252000D02*
Y43061500D01*
X65129500Y42661500D01*
X65097000D01*
X65119500Y42639000D01*
X66119500Y42039000D02*
X65869500D01*
X65711300Y42197200D01*
X65529500Y42252000D01*
X65529500Y44252000D02*
X65574000D01*
X66036800Y43789200D01*
X66069500D01*
X66071300Y43787400D01*
X65619500Y45739000D02*
Y46162000D01*
X65529500Y46252000D01*
X65669500Y49689000D02*
Y49392000D01*
X65529500Y49252000D01*
X65169500Y49589000D02*
Y49901500D01*
X65496500Y50228500D01*
X65553000D01*
X65529500Y50252000D01*
X66019500Y52039000D02*
X65819500Y52239000D01*
X65516500D01*
X65529500Y52252000D01*
X66169500Y51244500D02*
X65537000D01*
X65529500Y51252000D01*
X65181800Y54039000D02*
X65529500Y53691300D01*
Y53252000D01*
X65074000Y58439000D02*
Y58474000D01*
X65529500Y58929500D01*
Y59079500D01*
X66019500Y60639000D02*
X65609500Y61049000D01*
X65529500D01*
Y61079500D01*
X66119500Y59889000D02*
X65720000D01*
X65529500Y60079500D01*
X66519500Y62079500D02*
X65529500D01*
X65121600Y62339000D02*
Y62639000D01*
X65529500Y63079500D01*
X65898600Y64079500D02*
X66031600Y63946600D01*
X65898600Y64079500D02*
X65529500D01*
X66074000Y63989000D02*
X65983500Y64079500D01*
X65898600D01*
X65119500Y64614000D02*
X65529500Y65024000D01*
Y65079500D01*
X65529500Y66079500D02*
X66219500D01*
X66367500Y67056000D02*
X65553000D01*
X65529500Y67079500D01*
X66109100Y69789000D02*
Y69528100D01*
X65660500Y69079500D01*
X65529500D01*
X66155600Y68135500D02*
X66261600Y68241400D01*
X66155600Y68135500D02*
X65585500D01*
X65529500Y68079500D01*
X66304000Y68199000D02*
X66240500Y68135500D01*
X66155600D01*
X66669500Y70539000D02*
X66069500D01*
X65610000Y70079500D01*
X65529500D01*
X69950000Y41850000D02*
X69931500D01*
X69529500Y42252000D01*
X68729500Y45252000D02*
Y45479000D01*
X68629500Y45579000D01*
Y45590000D01*
X70329500Y43252000D02*
Y43126400D01*
X70732900Y42723000D01*
X68069500Y43689000D02*
Y43639000D01*
X68456500Y43252000D01*
X68729500D01*
X70937800Y44189000D02*
X70392500D01*
X70329500Y44252000D01*
X69169500Y43839000D02*
X68756500Y44252000D01*
X68729500D01*
X71372400Y45252000D02*
X70329500D01*
X71009500Y43449000D02*
X70769500Y43689000D01*
X69969500D01*
X69532500Y43252000D01*
X69529500D01*
X69529500Y45252000D02*
X69769500Y45012000D01*
Y44839000D01*
X69529500Y44252000D02*
X69742500D01*
X70157500Y44667000D01*
X70178700D01*
X70200700Y44689000D01*
X72069500D01*
X70819500Y47239000D02*
X70806500Y47252000D01*
X70329500D01*
X68629500Y45590000D02*
Y45739000D01*
X68629500Y45590000D02*
X68569500Y45650000D01*
Y45739000D01*
X71032500Y46252000D02*
X70329500D01*
X69969500Y47639000D02*
X69529500Y48079000D01*
Y48252000D01*
X69119500Y46589000D02*
X69107000D01*
X68757000Y46239000D01*
X68707300D01*
X68729500Y46252000D01*
X68219500Y46539000D02*
Y46742000D01*
X68729500Y47252000D01*
X68299100Y48819700D02*
X68319500D01*
Y48808900D01*
X68729500Y48398900D01*
Y48252000D01*
X68219500Y49739000D02*
X68706500Y49252000D01*
X68729500D01*
X68219500Y50789000D02*
X68729500Y50279000D01*
Y50252000D01*
X70028200Y48747100D02*
X70069500Y48705800D01*
Y48689000D01*
X69529500Y49229000D01*
Y49252000D01*
X69529500Y50252000D02*
X70519500D01*
X71019500Y51244500D02*
X71012000Y51252000D01*
X69529500D01*
X68729500Y51252000D02*
Y51629500D01*
X68829000Y51729000D01*
X68809500D01*
X68869500Y51789000D01*
X69764500Y52487100D02*
Y52626900D01*
X69764500Y52487100D02*
X69529500Y52252100D01*
Y52252000D01*
X69824500Y52626900D02*
Y52547100D01*
X69764500Y52487100D01*
X68369500Y52539000D02*
X68656500Y52252000D01*
X68729500D01*
X69529500Y53252000D02*
X69219500Y53562000D01*
Y53939000D01*
X69219500Y57689000D02*
Y57639000D01*
X69529500Y57949000D01*
Y59079500D01*
X71169500Y60045200D02*
X70974300D01*
X70969500Y60050000D01*
X70359000D01*
X70329500Y60079500D01*
X68027000Y59946500D02*
X68596500D01*
X68729500Y60079500D01*
X71069500Y61079500D02*
X70329500D01*
X68729500Y61079500D02*
X67869500D01*
X69819500Y59689000D02*
Y59789500D01*
X69759500Y59849500D01*
X69529500Y60079500D01*
X69759500Y59849500D02*
Y59689000D01*
X70329500Y64079500D02*
X70869500D01*
X70329500Y62079500D02*
X70869500D01*
X68169500Y62066500D02*
X68716500D01*
X68729500Y62079500D01*
X71269500Y63093000D02*
X71256000Y63079500D01*
X70329500D01*
X68729500Y63079500D02*
X68310000D01*
X68119500Y62889000D01*
X68045200Y64107800D02*
X68069500D01*
Y64109000D01*
X68700000D01*
X68729500Y64079500D01*
X69919500Y61889000D02*
X69720000D01*
X69529500Y62079500D01*
X68729500Y65079500D02*
X68229000D01*
X68729500Y66079500D02*
X68169500D01*
X69529500Y65079500D02*
X69680500D01*
X69990000Y65389000D01*
X70619500Y65989000D02*
X69620000D01*
X69529500Y66079500D01*
X67869500Y66939000D02*
X68589000D01*
X68729500Y67079500D01*
X70009500Y68129000D02*
X70169500D01*
X70009500Y68129000D02*
X70069500Y68189000D01*
X70169500D01*
X69529500Y68079500D02*
X69960000D01*
X70009500Y68129000D01*
X68095400Y68079500D02*
X67997400Y67981600D01*
X68095400Y68079500D02*
X68729500D01*
X67955000Y68024000D02*
X68010500Y68079500D01*
X68095400D01*
X70564500Y69243500D02*
X70169500D01*
X70005500Y69079500D01*
X69529500D01*
X68069500Y69139000D02*
X68120500Y69088000D01*
X68721000D01*
X68729500Y69079500D01*
X69529500Y67079500D02*
X70360000D01*
X70619500Y70539000D02*
Y70489000D01*
X70210000Y70079500D01*
X69529500D01*
X71372400Y45252000D02*
X71477100Y45147400D01*
X71519500Y45189800D02*
X71457300Y45252000D01*
X71372400D01*
X71009500Y43449000D02*
X71219500D01*
X71219500Y43389000D02*
X71069500D01*
X71009500Y43449000D01*
X70719500Y69248700D02*
X70569700D01*
X70564500Y69243500D01*
X70664700Y69243600D01*
X77510000Y42860000D02*
Y42700000D01*
X77450000Y42700000D02*
Y42800000D01*
X77510000Y42860000D01*
X77610000Y41960000D02*
Y41750000D01*
X77610000Y41960000D02*
X77899500Y42249500D01*
Y42252000D01*
X77550000Y41750000D02*
Y41900000D01*
X77610000Y41960000D01*
X76750000Y45300000D02*
X77302000D01*
X77350000Y45252000D01*
X77899500D01*
X77610000Y43910000D02*
X77400000D01*
X77610000Y43910000D02*
X77899500Y44199500D01*
Y44252000D01*
X77400000Y43850000D02*
X77550000D01*
X77610000Y43910000D01*
X77510000Y42860000D02*
X77899500Y43249500D01*
Y43252000D01*
X77419500Y46252000D02*
X77899500D01*
X78219500Y48089000D02*
X78382500Y48252000D01*
X78699500D01*
X78699500Y46252000D02*
Y46559000D01*
X78369500Y46889000D01*
X78699500Y47252000D02*
Y47219000D01*
X78369500Y46889000D01*
X78115000Y49657000D02*
X78269000D01*
X78674000Y49252000D01*
X78699500D01*
X78699500Y50252000D02*
X77988000D01*
X77734000Y53340000D02*
X78611500D01*
X78699500Y53252000D01*
X77861000Y52260500D02*
X78691000D01*
X78699500Y52252000D01*
X78051500Y51244500D02*
X78692000D01*
X78699500Y51252000D01*
X77025800Y61084500D02*
X77100000D01*
Y61080700D01*
X77051200D01*
X77050000Y61079500D01*
X77899500D01*
X76619500Y59239000D02*
X77451500Y60071000D01*
X77891000D01*
X77899500Y60079500D01*
X77899500Y59079500D02*
X77179000D01*
X78699500Y61079500D02*
Y61049500D01*
X78300000Y60650000D01*
Y60639000D01*
X77069500Y63439000D02*
Y63389000D01*
X77379000Y63079500D01*
X77899500D01*
X76869500Y61839000D02*
X77070000Y62039500D01*
X77859500D01*
X77899500Y62079500D01*
X78699500Y63079500D02*
Y63290900D01*
X78389000Y63601400D01*
X78699500Y64079500D02*
Y63911900D01*
X78389000Y63601400D01*
X78051500Y66357500D02*
X78421500D01*
X78699500Y66079500D01*
X78379500Y64717000D02*
X78219500D01*
X78379500Y64717000D02*
X78699500Y65037000D01*
Y65079500D01*
X78219500Y64657000D02*
X78319500D01*
X78379500Y64717000D01*
X77861000Y67119500D02*
Y67087700D01*
X77892700Y67056000D01*
X78009400D01*
X78676000D01*
X78699500Y67079500D01*
X78009400Y67056000D02*
X77903400Y67161900D01*
X77734000Y69088000D02*
X78691000D01*
X78699500Y69079500D01*
X77797500Y68072000D02*
X78692000D01*
X78699500Y68079500D01*
X78700000Y41250000D02*
X78699500Y41250500D01*
Y42252000D01*
X80400000Y42100000D02*
X80248000Y42252000D01*
X79499500D01*
X80319500Y45389000D02*
X79669500D01*
X79532500Y45252000D01*
X79499500D01*
X79650000Y44750000D02*
Y44402500D01*
X79499500Y44252000D01*
X80000000Y43000000D02*
X79748000Y43252000D01*
X79499500D01*
X79100000Y44750000D02*
Y44700000D01*
X78699500Y44299500D01*
Y44252000D01*
X79499500Y46252000D02*
Y46279000D01*
X79809500Y46589000D01*
X80019500D01*
X79869500Y47672000D02*
X79919500D01*
X79499500Y47252000D01*
X80219500Y48339000D02*
X79586500D01*
X79499500Y48252000D01*
X79499500Y49252000D02*
X79756500D01*
X79919500Y49089000D01*
X79499500Y50252000D02*
Y50226500D01*
X79887000Y49839000D01*
X80119500D01*
X79499500Y51252000D02*
X79514200D01*
X80269500Y50405500D01*
Y50389000D01*
X80274000Y52260500D02*
X80265500Y52252000D01*
X79499500D01*
X79499500Y53252000D02*
X80298500D01*
X80337500Y53213000D01*
X78686500Y58639000D02*
Y59066500D01*
X78699500Y59079500D01*
X80147000Y61087000D02*
X79507000D01*
X79499500Y61079500D01*
X80350000Y60071000D02*
X79508000D01*
X79499500Y60079500D01*
X79499500Y59079500D02*
X80310000D01*
X80119500Y62079500D02*
Y62003500D01*
X80043500Y62079500D01*
X79499500D01*
X79069500Y62639000D02*
X79499500Y63069000D01*
Y63079500D01*
X79119500Y63589000D02*
X79499500Y63969000D01*
Y64079500D01*
X80009500Y64549000D02*
Y64389000D01*
X80009500Y64549000D02*
X79499500Y65059000D01*
Y65079500D01*
X80069500Y64389000D02*
Y64489000D01*
X80009500Y64549000D01*
X79499500Y66079500D02*
X79479000D01*
X79069500Y66489000D01*
X79499500Y67079500D02*
X80234000D01*
X80274000Y67119500D01*
X79079500Y69529000D02*
X79499500Y69109000D01*
Y69079500D01*
X80274000Y68135500D02*
X79555500D01*
X79499500Y68079500D01*
X78699500Y70079500D02*
Y70789500D01*
X78686500Y70802500D01*
X79079500Y69529000D02*
X78869500D01*
X78869500Y69589000D02*
X79019500D01*
X79079500Y69529000D01*
X79499500Y70079500D02*
X79529000D01*
X79969500Y69639000D01*
X83499500Y42252000D02*
X83297000Y42049500D01*
Y42047000D01*
X83100000Y41850000D01*
X82699500Y45252000D02*
X81919500D01*
X82699500Y43252000D02*
X82052000D01*
X82699500Y44252000D02*
X82252000D01*
X83079500Y43629000D02*
X82919500D01*
X83079500Y43629000D02*
X83456500Y43252000D01*
X83499500D01*
X84096500Y44863900D02*
X84069500D01*
Y44839000D01*
X83969500D01*
X83556500Y45252000D01*
X83499500D01*
X82919500Y43689000D02*
X83019500D01*
X83079500Y43629000D01*
X83249700Y47758700D02*
X83217300D01*
X82724000Y48252000D01*
X82699500D01*
X82699500Y46252000D02*
X82252000D01*
X82699500Y47252000D02*
X81919500D01*
X82699500Y49252000D02*
X82269500D01*
X83056600Y48792000D02*
Y48782700D01*
X83492300Y48252000D01*
X83499500D01*
X82699500Y50252000D02*
X81956500D01*
X83499500Y49252000D02*
X84108000D01*
X84147500Y49212500D01*
X83499500Y50252000D02*
X84314500D01*
X84338000Y50228500D01*
X83499500Y51252000D02*
X84330500D01*
X84338000Y51244500D01*
X82699500Y51252000D02*
X81806500D01*
X83499500Y52252000D02*
X84329500D01*
X84338000Y52260500D01*
X81869500Y52260500D02*
X82691000D01*
X82699500Y52252000D01*
X83499500Y53252000D02*
X84299000D01*
X84338000Y53213000D01*
X83512500Y58589000D02*
Y59066500D01*
X83499500Y59079500D01*
X82699500Y60079500D02*
X81806500D01*
X81798000Y60071000D01*
X82699500Y61079500D02*
X81938900D01*
X81854000D01*
X81798000Y61023500D01*
X81938900Y61079500D02*
X81840400Y60981100D01*
X84569500Y59539000D02*
X84519500Y59589000D01*
X84019500D01*
X83529000Y60079500D01*
X83499500D01*
X82699500Y59079500D02*
X82675000Y59055000D01*
X81798000D01*
X83219500Y61589000D02*
X83807000D01*
X84297500Y62079500D01*
X84299500D01*
X82699500Y62079500D02*
X81838000D01*
X81798000Y62039500D01*
X82699500Y63079500D02*
X82069500D01*
X82699500Y64079500D02*
X81806000D01*
X81798000Y64071500D01*
X83719500Y62589000D02*
X83499500Y62369000D01*
Y62079500D01*
X82129500Y64984500D02*
Y64789000D01*
X82129500Y64984500D02*
X82069500Y64924500D01*
Y64789000D01*
X82699500Y65079500D02*
X82224500D01*
X82129500Y64984500D01*
X82699500Y66079500D02*
X82079000D01*
X81869500Y66289000D01*
X83068000Y65517000D02*
X83062000D01*
X83499500Y65079500D01*
X84084000Y66040000D02*
X83539000D01*
X83499500Y66079500D01*
X82699500Y67079500D02*
X81821500D01*
X81798000Y67056000D01*
X83499500Y68079500D02*
X84160000D01*
X82699500Y68079500D02*
X81805500D01*
X81798000Y68072000D01*
X83499500Y69079500D02*
X84260000D01*
X82699500Y69079500D02*
X82060500D01*
X82052000Y69088000D01*
X83499500Y67079500D02*
X84360000D01*
X84269500Y70089000D02*
X83509000D01*
X83499500Y70079500D01*
X85000000Y43243500D02*
X84991500Y43252000D01*
X84299500D01*
X84750000Y44259500D02*
X84742500Y44252000D01*
X84299500D01*
X84299500Y45252000D02*
X85000000D01*
X85419500Y47089000D02*
X85256500Y47252000D01*
X84299500D01*
X84299500Y46252000D02*
X84750000D01*
X84061000Y46689000D02*
X84119500D01*
X84299500Y60079500D02*
X85028000D01*
X85036500Y60071000D01*
X84299500Y61079500D02*
X85092500D01*
X85100000Y61087000D01*
X84299500Y64079500D02*
X85092000D01*
X85100000Y64071500D01*
X84299500Y63079500D02*
X85076000D01*
X85100000Y63055500D01*
X88783000Y44789000D02*
Y46440000D01*
X87652000Y45709000D02*
X87659500Y45701500D01*
X88760100D01*
X88783000Y46440000D01*
X88733000Y49776000D02*
X87712500D01*
X88733000Y51427000D02*
Y49776000D01*
X88783000Y61976000D02*
Y63627000D01*
X87652000Y63806500D02*
X88604500D01*
X88783000Y63628000D01*
Y63627000D01*
X88783000Y68580000D02*
Y66929000D01*
X87704500D01*
X90003000Y52618700D02*
X89836800Y52784800D01*
X90003000Y52618700D02*
X90169200Y52784800D01*
X90003000Y52618700D02*
Y52951000D01*
X90257000Y51427000D02*
X90003000Y51681000D01*
Y52618700D01*
X90286000Y59985000D02*
Y59750000D01*
X90286000Y59985000D02*
X90051000D01*
X90286000Y59985000D02*
X90307000Y60006000D01*
Y61976000D01*
X90051000Y59750000D02*
X90286000Y59985000D01*
X91310000Y64945700D02*
Y63995000D01*
X90942000Y63627000D01*
X90307000D01*
X91310000Y64945700D02*
X91143800Y65111800D01*
X91310000Y64945700D02*
X91476200Y65111800D01*
X91310000Y65610300D02*
X91476200Y65444200D01*
X91310000Y65610300D02*
X91143800Y65444200D01*
X91310000Y65610300D02*
Y65278000D01*
Y64945700D01*
X90307000Y66929000D02*
X90942000D01*
X91310000Y66561000D01*
Y65610300D01*
X90288000Y70377000D02*
X90307000Y70358000D01*
Y68580000D01*
X90288000Y70377000D02*
X90053000D01*
X90288000Y70377000D02*
Y70612000D01*
X90053000Y70612000D02*
X90288000Y70377000D01*
D11*
X6880000Y29516500D02*
Y30242500D01*
X7642000Y31004500D01*
Y31675500D01*
X8347000Y52279000D02*
X7647000D01*
X8147000Y64876000D02*
X9900000D01*
X6400000Y64876000D02*
X8147000D01*
X9900000Y67924000D02*
X9855000Y67879000D01*
X8447000D01*
X8097000Y68229000D01*
Y71576000D01*
X8500000Y71979000D01*
X6400000Y67924000D02*
Y69129000D01*
Y70376000D01*
X8500000Y71979000D02*
X8100000Y72379000D01*
Y73424000D01*
X9900000Y73424000D02*
X8100000D01*
X6400000D01*
X8147000Y75879000D02*
X11771000D01*
X13271000Y74379000D01*
Y73479000D01*
X13297000Y73453000D01*
X13297000Y64905000D02*
X13123000Y65079000D01*
X11847000D01*
X11547000Y65379000D01*
Y69829000D01*
X11000000Y70376000D01*
X9900000D01*
X14832000Y15229000D02*
Y13944000D01*
X17347000Y45979000D02*
Y45279000D01*
X16647000D01*
X18082000Y15229000D02*
Y13914000D01*
X18747000Y16629000D02*
Y16679000D01*
X19750000Y77400000D02*
Y75829000D01*
X25232000Y15229000D02*
Y14164000D01*
X24947000Y13879000D01*
X24597000D01*
X22542000Y68707000D02*
Y69407000D01*
X23242000D01*
X30797000Y73329000D02*
X31833000D01*
X31835500Y73331500D01*
X38839500Y5450000D02*
X36468000D01*
X39547000Y12029000D02*
X38916500D01*
X38677500Y11790000D01*
Y10692000D01*
X38839500Y10530000D01*
X40447000Y11927000D02*
X41697000D01*
X39547000Y12029000D02*
X40158000Y12640000D01*
X41447000D01*
X41697000Y12890000D01*
Y13451000D01*
X40487000Y65432000D02*
X41122000Y66067000D01*
X39597100Y73478900D02*
X39497000Y73579000D01*
X42649500Y7037500D02*
X45005500D01*
X41697000Y11927000D02*
X43284500D01*
X42597000Y73379000D02*
X41281000D01*
X41233500Y73331500D01*
X49397000Y81741000D02*
X48009000D01*
X49097000Y36429000D02*
X49797000D01*
Y35729000D01*
X57537000Y24754000D02*
X57453000Y24838000D01*
Y26279000D01*
X62700000Y32200000D02*
X61268000D01*
X64300000Y33800000D02*
Y37532000D01*
X64747000Y37979000D01*
X67900000Y33800000D02*
Y35632000D01*
X68347000Y36079000D01*
X69597000D01*
X71500000Y33800000D02*
X71497000Y33803000D01*
Y35779000D01*
X71197000Y36079000D01*
X69597000D01*
X72129500Y42352000D02*
Y41752000D01*
X71529500D01*
X72129500Y59179500D02*
Y58579500D01*
X71529500D01*
X75500000Y33800000D02*
X75497000Y33797000D01*
Y32429000D01*
X75097000Y32029000D01*
X74700000Y33800000D02*
Y32426000D01*
X75097000Y32029000D01*
X86099500Y42352000D02*
Y41752000D01*
X85499500D01*
X86099500Y59179500D02*
Y58579500D01*
X85499500D01*
X90380000Y11160800D02*
X91650000D01*
Y11804200D01*
X91650000Y12777500D02*
X90380000D01*
X90634000Y12584500D01*
X91650000Y12584500D02*
Y12970500D01*
X90257000Y49776000D02*
X90294000Y49739000D01*
X91119500D01*
X91410000Y49448500D01*
Y47752000D01*
X90307000Y46440000D02*
X91066100D01*
X91410000Y46783900D01*
Y47752000D01*
D12*
X5102000Y13424000D03*
Y15334000D03*
Y17279000D03*
X4897000Y21429000D03*
X6297000Y19669000D03*
X4997000Y19529000D03*
X5547000Y21679000D03*
X6247000Y23479000D03*
Y21579000D03*
X6400000Y69129000D03*
X7007000Y14869000D03*
Y16719000D03*
X9000000Y35100000D03*
X7197500Y35179500D03*
X7847000Y49779000D03*
X6897000Y52379000D03*
X7797000Y52929000D03*
X7197000Y53479000D03*
X8997000Y52729000D03*
X7647000Y52279000D03*
X8147000Y64876000D03*
X9997000Y10657000D03*
X11452000Y13074000D03*
X10417000Y19849000D03*
Y21129000D03*
Y22449000D03*
X10397000Y28949000D03*
X9997000Y32199000D03*
X10477000Y31549000D03*
X10297000Y32879000D03*
X10597000Y33499000D03*
X10467000Y34799000D03*
X11591000Y46976500D03*
X10277500Y46990000D03*
X11347000Y47679000D03*
X10847000Y50829000D03*
X10797000Y49729000D03*
X9847000Y50729000D03*
X10847000Y52779000D03*
Y51779000D03*
X9847000Y52779000D03*
X9897000Y55579000D03*
X10847000Y53779000D03*
Y54779000D03*
X10347000Y57279000D03*
X11347000D03*
X11547000Y65379000D03*
X14309500Y7066500D03*
X12397000Y9779000D03*
X14197000Y18329000D03*
X14147000Y21429000D03*
X13297000Y24429000D03*
X13347000Y25049000D03*
X13217000Y25699000D03*
X13097000Y34149000D03*
X14182000Y35364000D03*
X13947000Y42829000D03*
X12897000Y45079000D03*
X11947000Y43329000D03*
X12847000Y48979000D03*
X13847000Y49779000D03*
X13797000Y50829000D03*
X11895400Y49780800D03*
X12947000Y49729000D03*
X13847000Y52779000D03*
X11947000Y51679000D03*
X11847000Y52829000D03*
X13847000Y51779000D03*
X12847000D03*
X13847000Y54729000D03*
X12347000Y55979000D03*
X13347000Y56079000D03*
X12847000Y53779000D03*
X14347000Y56029000D03*
X16849500Y10081500D03*
X16767000Y13864000D03*
X16117000Y13764000D03*
X15482000Y13929000D03*
X14832000Y13944000D03*
X14847000Y18529000D03*
X15697000Y22879000D03*
X17031300Y25879000D03*
X16627500Y26237900D03*
X16177500Y26654000D03*
X15347000Y27429000D03*
X15497000Y31479000D03*
X14832000Y38144000D03*
X16132000Y38164000D03*
X16782000Y38214000D03*
X16467000Y44779000D03*
X15347000Y46979000D03*
X15497000Y46379000D03*
X14833500Y50769400D03*
X14847000Y51879000D03*
X14897000Y52779000D03*
X15847000D03*
X16147000Y54729000D03*
Y54129000D03*
X14947000Y73329000D03*
X18100000Y10100000D03*
X17417000Y13914000D03*
X18082000D03*
X19709400Y20359500D03*
X17779000Y24629000D03*
X17427500Y28690000D03*
X18082000Y35494000D03*
X18732000Y35444000D03*
X19382000Y35464000D03*
X19797000Y40229000D03*
X18897000Y40779000D03*
X19347000Y55979000D03*
X19750000Y75829000D03*
X18250000Y78779000D03*
X22017000Y13764000D03*
X22247000Y17679000D03*
X22347000Y18379000D03*
X21921600Y18058700D03*
X21477500Y20690000D03*
X22227500Y28540000D03*
X19997000Y34529000D03*
X20047000Y35229000D03*
X21197000Y43179000D03*
X20897000Y45429000D03*
X21197000Y46079000D03*
X22047000Y53479000D03*
X21747000Y52779000D03*
X21697000Y52097000D03*
X20047000Y55329000D03*
X20267800Y56079000D03*
X20659500Y70416500D03*
X21250000Y76032000D03*
X20747000Y79079000D03*
X20047000D03*
X21797000Y81229000D03*
X23917000Y14029000D03*
X23267000D03*
X22667000Y14079000D03*
X24597000Y13879000D03*
X25127500Y21290000D03*
X24727500Y19790000D03*
Y19129000D03*
X23277500Y28040000D03*
X22927500Y27540000D03*
X23077500Y30079000D03*
X24704500Y33852600D03*
X25077500Y32840000D03*
X22632000Y38214000D03*
X23197000Y38879000D03*
X22697100Y40229000D03*
X24647000Y46429000D03*
X24697000Y45779000D03*
X23247000Y47652000D03*
X24597000Y47029000D03*
X23342000Y48287000D03*
Y49557000D03*
X24612000D03*
X23342000Y50827000D03*
X24612000Y52097000D03*
X23342000Y57177000D03*
X24612000Y58447000D03*
X23342000D03*
X24612000Y66067000D03*
X23997000Y68829000D03*
X24612000Y67337000D03*
X23342000D03*
X22750000Y75979000D03*
X23735300Y78596800D03*
X24097000Y80829000D03*
X26047000Y7679000D03*
X26897000Y8629000D03*
X25897000Y13929000D03*
X26267000Y17249000D03*
X26117000Y20940000D03*
X26367000Y23749000D03*
X26111200Y23319300D03*
X26297000Y22829000D03*
X25677500Y21790000D03*
X26267000Y25049000D03*
X25847000Y29079000D03*
X25477500Y28040000D03*
X26417000Y31549000D03*
X25577500Y30859500D03*
X26347000Y29599000D03*
X26247000Y33579000D03*
X25697000Y34979000D03*
X26857400Y48161200D03*
X25647000Y46979000D03*
X25947000Y45829000D03*
X27747000Y47000000D03*
X27170400Y49917100D03*
X25847000Y49479000D03*
X25797000Y50879000D03*
X27147000Y49329000D03*
X25882000Y53367000D03*
Y52097000D03*
X27152000D03*
X27097000Y50929000D03*
X25882000Y54637000D03*
X27152000D03*
X27147000Y55929000D03*
X25882000Y57177000D03*
X27152000Y58447000D03*
X25882000D03*
X27152000Y59717000D03*
X25882000Y63527000D03*
X27152000Y62257000D03*
Y63527000D03*
X25882000Y66067000D03*
X27197000Y64779000D03*
X25897000Y69379000D03*
X27262000D03*
X25597000Y67329000D03*
X27797000Y68679000D03*
X25247000Y68729000D03*
X26517000Y68679000D03*
X27152000Y67337000D03*
X27397000Y73879000D03*
X25750000Y75729000D03*
X26447000Y80129000D03*
X26750000Y78829000D03*
X27250000Y79429000D03*
X25659000Y80079000D03*
X29597000Y7526000D03*
X28397000Y8579000D03*
X29947000D03*
X30297000Y14929000D03*
X28997000Y19179000D03*
X29250000Y24326000D03*
X28967000Y28949000D03*
X29017000Y27649000D03*
X30097000Y31479000D03*
X28977000Y32199000D03*
X28917000Y33499000D03*
X28967000Y34799000D03*
X29247000Y40779000D03*
X29647000Y44736000D03*
X29697000Y43429000D03*
X29057000Y43179000D03*
X29547000Y45879000D03*
X28527500Y45729000D03*
X29647000Y48029000D03*
X28297000Y49682000D03*
X28347000Y53329000D03*
X28297000Y52129000D03*
X29697000Y63672000D03*
X29692000Y66067000D03*
Y64797000D03*
X28997000Y69389000D03*
X29947000Y67329000D03*
X29047000Y68679000D03*
X28250000Y76182000D03*
X28597000Y75279000D03*
X28750000Y79479000D03*
X29847000Y79979000D03*
X30250000Y78679000D03*
X29750000Y79229000D03*
X32000000Y7732000D03*
X31297000Y8579000D03*
X30947000Y12579000D03*
X31047000Y14579000D03*
X31747000Y14279000D03*
X32947000Y15729000D03*
X32862000Y14279000D03*
X31597000Y19929000D03*
X32047000Y20479000D03*
X32447000Y21529000D03*
X31697000Y23429000D03*
X30797000Y22379000D03*
X31047000Y26479000D03*
X30947000Y25329000D03*
X30997000Y24479000D03*
X31047000Y28257000D03*
X31097000Y28979000D03*
X31897000Y31379000D03*
X32447000Y31229000D03*
X31397000Y29829000D03*
X31264000Y40712000D03*
X32500000Y40650000D03*
X32197000Y44529000D03*
X30947000D03*
X32297000Y43579000D03*
X30897000Y46829000D03*
X32197000Y46079000D03*
X32247000Y46829000D03*
Y48179000D03*
X30947000Y48029000D03*
X32297000Y63679000D03*
X32097000Y64879000D03*
X31197000Y66079000D03*
X32232000Y66067000D03*
X30962000Y68607000D03*
X32232000Y67337000D03*
X31400000Y70100000D03*
X30797000Y73329000D03*
X32250000Y76132000D03*
X31250000Y78726000D03*
X30750000Y78929000D03*
X31750000Y78679000D03*
X34922400Y12199300D03*
X34647000Y13179000D03*
X34597000Y12579000D03*
X34847000Y13979000D03*
X34297000Y16229000D03*
Y16779000D03*
X35497000Y17179000D03*
X34797000Y17029000D03*
X33147000Y20229000D03*
X34447000Y21929000D03*
X35047000Y22979000D03*
X35247000Y21679000D03*
X33347000Y23979000D03*
X33197000Y26379000D03*
X34977500Y25954000D03*
X33547000Y24929000D03*
X35297000D03*
Y28929000D03*
Y26929000D03*
Y29929000D03*
Y31929000D03*
X35284600Y30962100D03*
X34297000Y29629000D03*
Y31929000D03*
X35297000Y32929000D03*
Y33929000D03*
X34297000D03*
X33297000D03*
X34297000Y32929000D03*
X33297000Y34929000D03*
X33797000Y37379000D03*
X33353500Y44379000D03*
X33547000Y44979000D03*
X34947000Y46779000D03*
X33547000Y45679000D03*
X34397000Y45729000D03*
X34647000Y48129000D03*
X33347000Y63679000D03*
X33502000Y66067000D03*
X34897000Y64929000D03*
X33647000Y64729000D03*
X34772000Y68607000D03*
X33502000Y67337000D03*
X34772000D03*
X36247000Y6829000D03*
X38247000Y16029000D03*
X36047000Y20879000D03*
Y19979000D03*
X38147000Y20979000D03*
X36797000Y18929000D03*
X36297000Y23629000D03*
X37297000Y22929000D03*
X37287900Y23917400D03*
X37297000Y25929000D03*
Y24929000D03*
X36297000D03*
X38347000Y25879000D03*
X38297000Y26929000D03*
X37297000Y28929000D03*
X38297000D03*
X36297000D03*
X36547000Y26979000D03*
X37247000Y27729000D03*
X36297000Y31929000D03*
Y29929000D03*
Y30929000D03*
X37297000D03*
Y31929000D03*
X38297000Y29929000D03*
Y32929000D03*
X38347000Y33879000D03*
X37297000Y32929000D03*
X36297000Y33929000D03*
X36350000Y34850000D03*
X38297000Y34929000D03*
X37970700Y36530500D03*
X36950000Y36279000D03*
X35927000Y45779000D03*
X37197000Y47029000D03*
X37347000Y45779000D03*
X38397000Y48129000D03*
X35947000Y48179000D03*
X36997000Y66079000D03*
Y64829000D03*
X38347000Y64779000D03*
X37047000Y68679000D03*
X37897000D03*
X38347000Y67329000D03*
X37750000Y75832000D03*
X40447000Y11927000D03*
X39547000Y12029000D03*
X40147000Y16629000D03*
X40347000Y21179000D03*
X38747000Y19279000D03*
X40997000Y19329000D03*
X39259900Y21632000D03*
X39247000Y23079000D03*
X40297000Y23929000D03*
X38497000Y21879000D03*
X39247000Y23879000D03*
X39274300Y24951700D03*
X40297000Y25929000D03*
Y28929000D03*
X40247000Y27829000D03*
Y26929000D03*
X40297000Y31879000D03*
X39297000D03*
X40297000Y29929000D03*
X39297000Y30929000D03*
X40347000Y42879000D03*
X38947000Y44479000D03*
X41122000Y43207000D03*
Y44477000D03*
X38597000Y45779000D03*
X39947000Y47929000D03*
X39847000Y63829000D03*
X41122000Y66067000D03*
X38897000Y68729000D03*
X39852000Y67337000D03*
X39697000Y70129000D03*
X40097000Y72229000D03*
X38547000Y74679000D03*
X40497000Y76679000D03*
X41147000Y16929000D03*
X42597000D03*
X43497000Y17679000D03*
X41951900Y18478300D03*
X43097000Y17329000D03*
X43347000Y19129000D03*
X43295200Y21880600D03*
X41247000Y21979000D03*
X41297000Y22929000D03*
X42297000Y23929000D03*
X43297000Y22929000D03*
X42297000Y24929000D03*
Y25929000D03*
Y27929000D03*
X43247000Y28979000D03*
X42297000Y28929000D03*
X42347000Y27029000D03*
X43297000Y31929000D03*
X41297000Y30929000D03*
Y31929000D03*
X42297000D03*
Y29929000D03*
X43297000Y30929000D03*
X42247000Y33879000D03*
X43297000Y34779000D03*
X41297000Y32929000D03*
X42297000D03*
X41227000Y33929000D03*
X43297000Y32929000D03*
X42297000Y37629000D03*
X43322900Y42857700D03*
X41897000Y42979000D03*
X43662000Y44477000D03*
X42392000D03*
Y45747000D03*
X41147000Y47929000D03*
X42447000Y51329000D03*
X41997000Y63529000D03*
X43547000Y63629000D03*
X43710500Y64787000D03*
Y66057000D03*
X42440500Y64787000D03*
X43710500Y67327000D03*
X45005500Y7037500D03*
X45097000Y14579000D03*
X44194500Y16181500D03*
X44697000Y16229000D03*
X44714200Y18931700D03*
X44297000Y20929000D03*
X46058000Y18965900D03*
X46247000Y22929000D03*
X44297000Y23929000D03*
Y22929000D03*
X45297000D03*
X45197000Y24029000D03*
X46347000Y21829000D03*
X45297000Y24929000D03*
Y25929000D03*
X46297000D03*
Y24229000D03*
X44297000Y25929000D03*
X46300000Y27900000D03*
X46297000Y26929000D03*
Y28929000D03*
X45319700Y27906300D03*
X44297000Y27929000D03*
Y28929000D03*
X45297000Y30929000D03*
X46297000Y29929000D03*
Y30929000D03*
X44297000Y31929000D03*
X46300000Y31900000D03*
X45297000Y31929000D03*
X44274300Y29906300D03*
X46297000Y33929000D03*
X44297000Y32929000D03*
Y33929000D03*
X45297000Y32929000D03*
Y33929000D03*
X46450000Y33050000D03*
X44797000Y36129000D03*
X45916700Y37012500D03*
X46297000Y34929000D03*
X44097000Y36229000D03*
X45297000Y34929000D03*
X45047000Y42979000D03*
X44932000Y45747000D03*
X46202000D03*
X46177000Y47041000D03*
X43847000Y47079000D03*
X46177000Y48311000D03*
Y49581000D03*
X44907000D03*
X46177000Y50851000D03*
X44907000D03*
Y48311000D03*
X46177000Y52121000D03*
X44907000D03*
X46177000Y53391000D03*
X44907000D03*
X46177000Y55931000D03*
Y54661000D03*
X44907000D03*
Y55931000D03*
X44958000Y57150000D03*
X46228000D03*
Y58420000D03*
X44958000D03*
X46228000Y59690000D03*
X44958000D03*
X46228000Y60960000D03*
X44958000D03*
X46228000Y62230000D03*
Y63500000D03*
X44958000Y62230000D03*
Y63500000D03*
Y66040000D03*
Y64770000D03*
X46228000Y66040000D03*
Y64770000D03*
X46169500Y67289000D03*
X46369500Y68489000D03*
X44958000Y67310000D03*
X46544500Y16181500D03*
X48499500D03*
X48453000Y18662400D03*
X48297000Y20929000D03*
X47247000Y21906300D03*
X47523700Y23021600D03*
X48197000Y23879000D03*
X46497000Y24929000D03*
X47297000Y25279000D03*
Y25929000D03*
Y26929000D03*
X48297000D03*
Y29929000D03*
Y30929000D03*
X47315600Y31915600D03*
X47297000Y29929000D03*
Y30929000D03*
X48297000Y33929000D03*
X47797000Y36950000D03*
X47297000Y34929000D03*
X46797000Y36129000D03*
X48297000Y34929000D03*
X46997000Y41629000D03*
X48647000Y41679000D03*
X48742000Y43207000D03*
X47472000Y44477000D03*
X47468500Y47240000D03*
X47472000Y45747000D03*
X47419500Y50689000D03*
X47319500Y52389000D03*
X48797000Y54002000D03*
X47419500Y54839000D03*
Y57739000D03*
X47469500Y61289000D03*
X47252500Y66012200D03*
X47469500Y67489000D03*
X51550000Y6832000D03*
X50050000Y8532000D03*
X50144500Y16181500D03*
X51797000Y16029000D03*
X49497000Y21429000D03*
X49847000Y20929000D03*
X51147000Y23484000D03*
X51447000Y22429000D03*
X49597000Y23929000D03*
X51347000Y24927400D03*
X51647000Y26429000D03*
X51147000Y25929000D03*
X50947000Y24529000D03*
X49697000Y25729000D03*
X49597000Y29429000D03*
X50447000Y27429000D03*
X49547000Y31479000D03*
X49697000Y30529000D03*
X50347000Y31679000D03*
X49597000Y34529000D03*
X49547000Y32429000D03*
X50950000Y33429000D03*
X49297000Y35929000D03*
X51347000Y41379000D03*
X50297000Y41629000D03*
X51218500Y47240000D03*
X51110500Y49780000D03*
X51119500Y51639000D03*
X49719500Y53187500D03*
X51181000Y55177500D03*
X51198000Y58267500D03*
X50245100Y63018600D03*
X50400000Y64067500D03*
X49997000Y63567500D03*
X51042400Y64614500D03*
X53497000Y6429000D03*
X53847000Y18229000D03*
X53747000Y19979000D03*
X54300000Y22200000D03*
X51847000Y23809000D03*
X52247000Y21879000D03*
X52047000Y25629000D03*
X53047000Y27779000D03*
X53100000Y34500000D03*
X53470500Y47790000D03*
X53468500Y46740000D03*
X53769500Y47240000D03*
Y46190000D03*
X53469500Y50330000D03*
Y49280000D03*
X53769500Y49780000D03*
Y48730000D03*
Y51587500D03*
Y52637500D03*
X53469500Y52137500D03*
Y53187500D03*
X53769500Y54127500D03*
Y55177500D03*
X53469500Y54677500D03*
Y55727500D03*
X53769500Y56667500D03*
X53469500Y58267500D03*
X53769500Y57717500D03*
X53469500Y57217500D03*
X52650000Y60689000D03*
X52647000Y61229000D03*
X53869500Y63017500D03*
X54069500Y63789000D03*
X53519500Y63567500D03*
X53574500Y64389000D03*
X53688000Y66607500D03*
X53738000Y65557500D03*
X53401000Y66107500D03*
X53451000Y67157500D03*
X53869500Y67789000D03*
X53478000Y68647500D03*
X53919500Y69139000D03*
X53569500Y69697500D03*
X56747000Y6779000D03*
X55097000D03*
X55550000Y8432000D03*
X56697000Y8929000D03*
X56947000Y18729000D03*
X54600000Y33300000D03*
X58297000Y6729000D03*
Y8379000D03*
X59805800Y18333200D03*
X57797000Y16329000D03*
X57598200Y18679000D03*
X58347000Y18429000D03*
X59307000Y18297800D03*
X57297000Y20779000D03*
X58797000Y25329000D03*
Y30317000D03*
X59897000Y6779000D03*
X61447000Y6879000D03*
X60050000Y8429000D03*
X61550000Y8482000D03*
X60597000Y15579000D03*
X60097000Y15079000D03*
X60747000Y15029000D03*
X61297000Y18629000D03*
X60447000Y18029000D03*
X62297000Y17329000D03*
X60297000Y20379000D03*
X61376000Y21400000D03*
X61418000Y20600000D03*
X61068000Y20200000D03*
X60597000Y23379000D03*
X61326000Y26200000D03*
X60897000Y25800000D03*
X61318000Y25400000D03*
X61176000Y28600000D03*
X61218000Y27400000D03*
X61047000Y31329000D03*
X61268000Y32200000D03*
X60547000Y33129000D03*
X63047000Y6829000D03*
X64547000D03*
X62969000Y8478800D03*
X64547000Y11429000D03*
X64197000Y20429000D03*
X65047000Y19779000D03*
X64247000Y22729000D03*
X64076000Y26600000D03*
X64147000Y31129000D03*
X65119500Y42639000D03*
X63269500Y42739000D03*
X64550000Y41550000D03*
X63469500Y41839000D03*
X64400000Y42639000D03*
X64969500Y44739000D03*
X62953100Y44981400D03*
X63419500Y43739000D03*
X64348000Y44002000D03*
X64269500Y44889000D03*
X64919500Y47739000D03*
X63319500Y45839000D03*
X64969500Y46742000D03*
X64471700Y46822900D03*
X64169500Y49680500D03*
X63869500Y48389000D03*
X64069500Y50252000D03*
X64319500Y53539000D03*
X64019500Y52252000D03*
X63819500Y51252000D03*
X64419500Y58589000D03*
X65074000Y58439000D03*
X63419500Y61112000D03*
X63069500Y59639000D03*
Y58989000D03*
X64319500Y61339000D03*
Y59740400D03*
X63119500Y62939000D03*
X63069500Y62079100D03*
X65121600Y62339000D03*
X64269500Y63589000D03*
X65119500Y63389000D03*
X64369500Y62439000D03*
X65119500Y64614000D03*
X63919500Y66079500D03*
X63769500Y64759000D03*
X64069500Y67239000D03*
X63891000Y69088000D03*
X63954500Y68072000D03*
X63819500Y70189000D03*
X66100000Y7200000D03*
X67050000Y8832000D03*
X66050000Y8882000D03*
X67550000Y11276000D03*
X65550000D03*
X65497000Y20129000D03*
X65747000Y20679000D03*
X67597000Y22379000D03*
X66897000Y23229000D03*
X66547000Y22429000D03*
X67297000Y24979000D03*
X67547300Y26597700D03*
X66697000Y27267000D03*
X67100000Y35576000D03*
X67500000Y35226000D03*
X65900000Y35126000D03*
X66300000Y35576000D03*
X66700000Y35132000D03*
X66119500Y42039000D03*
X66071300Y43787400D03*
X65619500Y45739000D03*
X65669500Y49689000D03*
X65169500Y49589000D03*
X66019500Y52039000D03*
X66169500Y51244500D03*
X65181800Y54039000D03*
X66019500Y60639000D03*
X66119500Y59889000D03*
X66519500Y62079500D03*
X66074000Y63989000D03*
X66219500Y66079500D03*
X66367500Y67056000D03*
X66304000Y68199000D03*
X66109100Y69789000D03*
X66669500Y70539000D03*
X67900000Y16879000D03*
X69504900Y16830200D03*
X69397000Y20079000D03*
X68300000Y19676000D03*
X70347000Y21579000D03*
X68497000Y24429000D03*
X68397000Y25529000D03*
X68177500Y27590000D03*
X70097000Y29279000D03*
X69900000Y32382000D03*
X68300000Y35276000D03*
X69950000Y41850000D03*
X68319500Y41889000D03*
X68069500Y43689000D03*
X69169500Y43839000D03*
X69769500Y44839000D03*
X68569500Y45739000D03*
X69969500Y47639000D03*
X69119500Y46589000D03*
X68219500Y46539000D03*
X69819500Y46739000D03*
X68299100Y48819700D03*
X68219500Y49739000D03*
Y50789000D03*
X70028200Y48747100D03*
X68869500Y51789000D03*
X69824500Y52626900D03*
X68369500Y52539000D03*
X69219500Y53939000D03*
X68469500Y53689000D03*
X69219500Y57689000D03*
X68027000Y59946500D03*
X67869500Y61079500D03*
X69819500Y59689000D03*
X68219500Y58939000D03*
X69719500Y60589900D03*
X68169500Y62066500D03*
X68119500Y62889000D03*
X68045200Y64107800D03*
X69919500Y61889000D03*
X69169500Y63489000D03*
X69869500Y63689000D03*
X68229000Y65079500D03*
X68169500Y66079500D03*
X69990000Y65389000D03*
X67869500Y66939000D03*
X70169500Y68189000D03*
X67955000Y68024000D03*
X68069500Y69139000D03*
X70360000Y67079500D03*
X68019500Y70389000D03*
X72700000Y19676000D03*
X73100000Y20029000D03*
X70700000D03*
X71100000Y19676000D03*
X71500000Y20029000D03*
X71900000Y19676000D03*
X72300000Y20029000D03*
X71327500Y29140000D03*
X73100000Y29240000D03*
X72300000Y28640000D03*
X71247000Y31329000D03*
X70697000Y31479000D03*
X71100000Y35226000D03*
X70732900Y42723000D03*
X70800000Y42227500D03*
X70937800Y44189000D03*
X71519500Y45189800D03*
X71219500Y43389000D03*
X72069500Y44689000D03*
X70819500Y47239000D03*
X71032500Y46252000D03*
X70519500Y50252000D03*
X71019500Y51244500D03*
X70519500Y58139000D03*
X71169500Y60045200D03*
X71069500Y61079500D03*
X70869500Y64079500D03*
Y62079500D03*
X71269500Y63093000D03*
X70619500Y65989000D03*
X70719500Y69248700D03*
X70619500Y70539000D03*
X73500000Y19676000D03*
X73900000Y20029000D03*
X74300000Y19676000D03*
X74700000Y20029000D03*
X75100000Y19676000D03*
X75500000Y20029000D03*
X74300000Y32429000D03*
X73500000Y35226000D03*
X75100000Y35229000D03*
X75900000Y19676000D03*
X76300000Y20029000D03*
X76668000Y23800000D03*
X76676000Y26200000D03*
Y25400000D03*
X76668000Y24600000D03*
X76676000Y27800000D03*
X76668000Y27000000D03*
X76726000Y31800000D03*
Y31000000D03*
X77450000Y42700000D03*
X77550000Y41750000D03*
X76750000Y45300000D03*
X77400000Y43850000D03*
X78319500Y44989000D03*
X77419500Y46252000D03*
X78219500Y48089000D03*
X78369500Y46889000D03*
X78115000Y49657000D03*
X77988000Y50252000D03*
X77734000Y53340000D03*
X77861000Y52260500D03*
X78051500Y51244500D03*
X77025800Y61084500D03*
X76619500Y59239000D03*
X77179000Y59079500D03*
X78300000Y60639000D03*
X77069500Y63439000D03*
X76869500Y61839000D03*
X78389000Y63601400D03*
X78319500Y61789000D03*
X78051500Y66357500D03*
X78219500Y64657000D03*
X77861000Y67119500D03*
X77734000Y69088000D03*
X77797500Y68072000D03*
X79847000Y21000000D03*
Y21800000D03*
Y22600000D03*
Y23400000D03*
Y25000000D03*
Y25800000D03*
Y27400000D03*
Y28200000D03*
Y29000000D03*
Y29800000D03*
Y30600000D03*
Y31400000D03*
Y32200000D03*
X78700000Y41250000D03*
X80400000Y42100000D03*
X78950000Y42750000D03*
X80319500Y45389000D03*
X79650000Y44750000D03*
X80000000Y43000000D03*
X79100000Y44750000D03*
X80019500Y46589000D03*
X79869500Y47672000D03*
X80219500Y48339000D03*
X79919500Y49089000D03*
X80119500Y49839000D03*
X80269500Y50389000D03*
X80274000Y52260500D03*
X80337500Y53213000D03*
X78686500Y58639000D03*
X80147000Y61087000D03*
X80350000Y60071000D03*
X80310000Y59079500D03*
X79050000Y60450000D03*
X80119500Y62079500D03*
X79069500Y62639000D03*
X79119500Y63589000D03*
X80069500Y64389000D03*
X79069500Y66489000D03*
X80274000Y67119500D03*
Y68135500D03*
X78686500Y70802500D03*
X78869500Y69589000D03*
X79969500Y69639000D03*
X83100000Y41850000D03*
X82252000Y42252000D03*
X81919500Y45252000D03*
X82052000Y43252000D03*
X82252000Y44252000D03*
X82919500Y43689000D03*
X83249700Y47758700D03*
X82252000Y46252000D03*
X81919500Y47252000D03*
X82269500Y49252000D03*
X83056600Y48792000D03*
X81956500Y50252000D03*
X81806500Y51252000D03*
X81869500Y52260500D03*
X82169500Y53252000D03*
X83512500Y58589000D03*
X81798000Y60071000D03*
Y61023500D03*
Y59055000D03*
X83219500Y61589000D03*
X81798000Y62039500D03*
X82069500Y63079500D03*
X81798000Y64071500D03*
X83719500Y62589000D03*
X83119500Y63389000D03*
X82069500Y64789000D03*
X81869500Y66289000D03*
X83068000Y65517000D03*
X83269500Y64489000D03*
X81798000Y67056000D03*
Y68072000D03*
X82052000Y69088000D03*
X81798000Y70040500D03*
X84750000Y42252000D03*
X85000000Y43243500D03*
X84750000Y44259500D03*
X85000000Y45252000D03*
X84096500Y44863900D03*
X84069500Y43739000D03*
X85419500Y47089000D03*
X84750000Y46252000D03*
X84119500Y46689000D03*
X84147500Y49212500D03*
X84338000Y50228500D03*
Y51244500D03*
Y52260500D03*
Y53213000D03*
X84299500Y58559000D03*
X85036500Y60071000D03*
X85100000Y61087000D03*
X84569500Y59539000D03*
Y60589000D03*
X85100000Y64071500D03*
Y63055500D03*
X84084000Y66040000D03*
X84160000Y68079500D03*
X84260000Y69079500D03*
X84360000Y67079500D03*
X84269500Y70089000D03*
X87652000Y45709000D03*
X87712500Y49776000D03*
X87652000Y63806500D03*
X87704500Y66929000D03*
D13*
X63929500Y42252000D03*
X64729500D03*
X63929500Y45252000D03*
X64729500D03*
X63929500Y44252000D03*
X64729500D03*
X63929500Y43252000D03*
X64729500D03*
Y48252000D03*
X63929500Y47252000D03*
X64729500D03*
X63929500Y46252000D03*
X64729500D03*
Y50252000D03*
Y49252000D03*
Y53252000D03*
Y52252000D03*
Y51252000D03*
X63929500Y61079500D03*
X64729500D03*
X63929500Y60079500D03*
X64729500D03*
X63929500Y59079500D03*
X64729500D03*
X63929500Y64079500D03*
X64729500D03*
X63929500Y63079500D03*
X64729500D03*
X63929500Y62079500D03*
X64729500D03*
Y66079500D03*
Y65079500D03*
Y69079500D03*
Y68079500D03*
Y67079500D03*
Y70079500D03*
X65529500Y42252000D03*
Y45252000D03*
Y44252000D03*
Y43252000D03*
Y48252000D03*
Y47252000D03*
Y46252000D03*
Y50252000D03*
Y49252000D03*
Y53252000D03*
Y52252000D03*
Y51252000D03*
Y61079500D03*
Y60079500D03*
Y59079500D03*
Y64079500D03*
Y63079500D03*
Y62079500D03*
Y66079500D03*
Y65079500D03*
Y69079500D03*
Y68079500D03*
Y67079500D03*
Y70079500D03*
X68729500Y42252000D03*
X69529500D03*
X70329500D03*
X68729500Y45252000D03*
X69529500D03*
X70329500D03*
X68729500Y44252000D03*
X69529500D03*
X70329500D03*
X68729500Y43252000D03*
X69529500D03*
X70329500D03*
X68729500Y48252000D03*
X69529500D03*
X68729500Y47252000D03*
X69529500D03*
X70329500D03*
X68729500Y46252000D03*
X69529500D03*
X70329500D03*
X68729500Y50252000D03*
X69529500D03*
X68729500Y49252000D03*
X69529500D03*
X68729500Y53252000D03*
X69529500D03*
X68729500Y52252000D03*
X69529500D03*
X68729500Y51252000D03*
X69529500D03*
X68729500Y61079500D03*
X69529500D03*
X70329500D03*
X68729500Y60079500D03*
X69529500D03*
X70329500D03*
X68729500Y59079500D03*
X69529500D03*
X70329500D03*
X68729500Y64079500D03*
X69529500D03*
X70329500D03*
X68729500Y63079500D03*
X69529500D03*
X70329500D03*
X68729500Y62079500D03*
X69529500D03*
X70329500D03*
X68729500Y66079500D03*
X69529500D03*
X68729500Y65079500D03*
X69529500D03*
X68729500Y69079500D03*
X69529500D03*
X68729500Y68079500D03*
X69529500D03*
X68729500Y67079500D03*
X69529500D03*
X68729500Y70079500D03*
X69529500D03*
X77899500Y42252000D03*
Y45252000D03*
Y44252000D03*
Y43252000D03*
Y47252000D03*
Y46252000D03*
Y61079500D03*
Y60079500D03*
Y59079500D03*
Y64079500D03*
Y63079500D03*
Y62079500D03*
X78699500Y42252000D03*
X79499500D03*
X78699500Y45252000D03*
X79499500D03*
X78699500Y44252000D03*
X79499500D03*
X78699500Y43252000D03*
X79499500D03*
X78699500Y48252000D03*
X79499500D03*
X78699500Y47252000D03*
X79499500D03*
X78699500Y46252000D03*
X79499500D03*
X78699500Y50252000D03*
X79499500D03*
X78699500Y49252000D03*
X79499500D03*
X78699500Y53252000D03*
X79499500D03*
X78699500Y52252000D03*
X79499500D03*
X78699500Y51252000D03*
X79499500D03*
X78699500Y61079500D03*
X79499500D03*
X78699500Y60079500D03*
X79499500D03*
X78699500Y59079500D03*
X79499500D03*
X78699500Y64079500D03*
X79499500D03*
X78699500Y63079500D03*
X79499500D03*
X78699500Y62079500D03*
X79499500D03*
X78699500Y66079500D03*
X79499500D03*
X78699500Y65079500D03*
X79499500D03*
X78699500Y69079500D03*
X79499500D03*
X78699500Y68079500D03*
X79499500D03*
X78699500Y67079500D03*
X79499500D03*
X78699500Y70079500D03*
X79499500D03*
X82699500Y42252000D03*
X83499500D03*
X82699500Y45252000D03*
X83499500D03*
X82699500Y44252000D03*
X83499500D03*
X82699500Y43252000D03*
X83499500D03*
X82699500Y48252000D03*
X83499500D03*
X82699500Y47252000D03*
X83499500D03*
X82699500Y46252000D03*
X83499500D03*
X82699500Y50252000D03*
X83499500D03*
X82699500Y49252000D03*
X83499500D03*
X82699500Y53252000D03*
X83499500D03*
X82699500Y52252000D03*
X83499500D03*
X82699500Y51252000D03*
X83499500D03*
X82699500Y61079500D03*
X83499500D03*
X82699500Y60079500D03*
X83499500D03*
X82699500Y59079500D03*
X83499500D03*
X82699500Y64079500D03*
X83499500D03*
X82699500Y63079500D03*
X83499500D03*
X82699500Y62079500D03*
X83499500D03*
X82699500Y66079500D03*
X83499500D03*
X82699500Y65079500D03*
X83499500D03*
X82699500Y69079500D03*
X83499500D03*
X82699500Y68079500D03*
X83499500D03*
X82699500Y67079500D03*
X83499500D03*
X82699500Y70079500D03*
X83499500D03*
X84299500Y42252000D03*
Y45252000D03*
Y44252000D03*
Y43252000D03*
Y47252000D03*
Y46252000D03*
Y61079500D03*
Y60079500D03*
Y59079500D03*
Y64079500D03*
Y63079500D03*
Y62079500D03*
D14*
X8347000Y48279000D03*
Y50279000D03*
Y49279000D03*
Y53279000D03*
Y52279000D03*
Y51279000D03*
Y55279000D03*
Y54279000D03*
X9347000Y48279000D03*
X10347000D03*
X11347000D03*
X9347000Y50279000D03*
X10347000D03*
X11347000D03*
X9347000Y49279000D03*
X10347000D03*
X11347000D03*
X9347000Y53279000D03*
X10347000D03*
X11347000D03*
X9347000Y52279000D03*
X10347000D03*
X11347000D03*
X9347000Y51279000D03*
X10347000D03*
X11347000D03*
X9347000Y55279000D03*
X10347000D03*
X11347000D03*
X9347000Y54279000D03*
X10347000D03*
X11347000D03*
X12347000Y48279000D03*
X13347000D03*
X14347000D03*
X12347000Y50279000D03*
X13347000D03*
X14347000D03*
X12347000Y49279000D03*
X13347000D03*
X14347000D03*
X12347000Y53279000D03*
X13347000D03*
X14347000D03*
X12347000Y52279000D03*
X13347000D03*
X14347000D03*
X12347000Y51279000D03*
X13347000D03*
X14347000D03*
X12347000Y55279000D03*
X13347000D03*
X14347000D03*
X12347000Y54279000D03*
X13347000D03*
X14347000D03*
X15347000Y48279000D03*
Y50279000D03*
Y49279000D03*
Y53279000D03*
Y52279000D03*
Y51279000D03*
Y55279000D03*
Y54279000D03*
X33797000Y20429000D03*
Y21429000D03*
X34797000Y20429000D03*
Y21429000D03*
X35797000Y20429000D03*
Y21429000D03*
X33797000Y22429000D03*
Y23429000D03*
X34797000Y22429000D03*
Y23429000D03*
X35797000Y22429000D03*
Y23429000D03*
X33797000Y24429000D03*
Y25429000D03*
Y26429000D03*
X34797000Y24429000D03*
Y25429000D03*
Y26429000D03*
X35797000Y24429000D03*
Y25429000D03*
Y26429000D03*
X33797000Y27429000D03*
Y28429000D03*
Y29429000D03*
X34797000Y27429000D03*
Y28429000D03*
Y29429000D03*
X35797000Y27429000D03*
Y28429000D03*
Y29429000D03*
X33797000Y30429000D03*
Y31429000D03*
X34797000Y30429000D03*
Y31429000D03*
X35797000Y30429000D03*
Y31429000D03*
X33797000Y32429000D03*
Y33429000D03*
Y34429000D03*
X34797000Y32429000D03*
Y33429000D03*
Y34429000D03*
X35797000Y32429000D03*
Y33429000D03*
Y34429000D03*
X33797000Y35429000D03*
X34797000D03*
X35797000D03*
X36797000Y20429000D03*
Y21429000D03*
X37797000Y20429000D03*
Y21429000D03*
X36797000Y22429000D03*
Y23429000D03*
X37797000Y22429000D03*
Y23429000D03*
X36797000Y24429000D03*
Y25429000D03*
Y26429000D03*
X37797000Y24429000D03*
Y25429000D03*
Y26429000D03*
X36797000Y27429000D03*
Y28429000D03*
Y29429000D03*
X37797000Y27429000D03*
Y28429000D03*
Y29429000D03*
X36797000Y30429000D03*
Y31429000D03*
X37797000Y30429000D03*
Y31429000D03*
X36797000Y32429000D03*
Y33429000D03*
Y34429000D03*
X37797000Y32429000D03*
Y33429000D03*
Y34429000D03*
X36797000Y35429000D03*
X37797000D03*
X38797000Y20429000D03*
Y21429000D03*
X39797000Y20429000D03*
Y21429000D03*
X40797000Y20429000D03*
Y21429000D03*
X38797000Y22429000D03*
Y23429000D03*
X39797000Y22429000D03*
Y23429000D03*
X40797000Y22429000D03*
Y23429000D03*
X38797000Y24429000D03*
Y25429000D03*
Y26429000D03*
X39797000Y24429000D03*
Y25429000D03*
Y26429000D03*
X40797000Y24429000D03*
Y25429000D03*
Y26429000D03*
X38797000Y27429000D03*
Y28429000D03*
Y29429000D03*
X39797000Y27429000D03*
Y28429000D03*
Y29429000D03*
X40797000Y27429000D03*
Y28429000D03*
Y29429000D03*
X38797000Y30429000D03*
Y31429000D03*
X39797000Y30429000D03*
Y31429000D03*
X40797000Y30429000D03*
Y31429000D03*
X38797000Y32429000D03*
Y33429000D03*
Y34429000D03*
X39797000Y32429000D03*
Y33429000D03*
Y34429000D03*
X40797000Y32429000D03*
Y33429000D03*
Y34429000D03*
X38797000Y35429000D03*
X39797000D03*
X40797000D03*
X41797000Y20429000D03*
Y21429000D03*
X42797000Y20429000D03*
Y21429000D03*
X43797000Y20429000D03*
Y21429000D03*
X41797000Y22429000D03*
Y23429000D03*
X42797000Y22429000D03*
Y23429000D03*
X43797000Y22429000D03*
Y23429000D03*
X41797000Y24429000D03*
Y25429000D03*
Y26429000D03*
X42797000Y24429000D03*
Y25429000D03*
Y26429000D03*
X43797000Y24429000D03*
Y25429000D03*
Y26429000D03*
X41797000Y27429000D03*
Y28429000D03*
Y29429000D03*
X42797000Y27429000D03*
Y28429000D03*
Y29429000D03*
X43797000Y27429000D03*
Y28429000D03*
Y29429000D03*
X41797000Y30429000D03*
Y31429000D03*
X42797000Y30429000D03*
Y31429000D03*
X43797000Y30429000D03*
Y31429000D03*
X41797000Y32429000D03*
Y33429000D03*
Y34429000D03*
X42797000Y32429000D03*
Y33429000D03*
Y34429000D03*
X43797000Y32429000D03*
Y33429000D03*
Y34429000D03*
X41797000Y35429000D03*
X42797000D03*
X43797000D03*
X44797000Y20429000D03*
Y21429000D03*
X45797000Y20429000D03*
Y21429000D03*
X44797000Y22429000D03*
Y23429000D03*
X45797000Y22429000D03*
Y23429000D03*
X44797000Y24429000D03*
Y25429000D03*
Y26429000D03*
X45797000Y24429000D03*
Y25429000D03*
Y26429000D03*
X44797000Y27429000D03*
Y28429000D03*
Y29429000D03*
X45797000Y27429000D03*
Y28429000D03*
Y29429000D03*
X44797000Y30429000D03*
Y31429000D03*
X45797000Y30429000D03*
Y31429000D03*
X44797000Y32429000D03*
Y33429000D03*
Y34429000D03*
X45797000Y32429000D03*
Y33429000D03*
Y34429000D03*
X44797000Y35429000D03*
X45797000D03*
X46797000Y20429000D03*
Y21429000D03*
X47797000Y20429000D03*
Y21429000D03*
X48797000Y20429000D03*
Y21429000D03*
X46797000Y22429000D03*
Y23429000D03*
X47797000Y22429000D03*
Y23429000D03*
X48797000Y22429000D03*
Y23429000D03*
X46797000Y24429000D03*
Y25429000D03*
Y26429000D03*
X47797000Y24429000D03*
Y25429000D03*
Y26429000D03*
X48797000Y24429000D03*
Y25429000D03*
Y26429000D03*
X46797000Y27429000D03*
Y28429000D03*
Y29429000D03*
X47797000Y27429000D03*
Y28429000D03*
Y29429000D03*
X48797000Y27429000D03*
Y28429000D03*
Y29429000D03*
X46797000Y30429000D03*
Y31429000D03*
X47797000Y30429000D03*
Y31429000D03*
X48797000Y30429000D03*
Y31429000D03*
X46797000Y32429000D03*
Y33429000D03*
Y34429000D03*
X47797000Y32429000D03*
Y33429000D03*
Y34429000D03*
X48797000Y32429000D03*
Y33429000D03*
Y34429000D03*
X46797000Y35429000D03*
X47797000D03*
X48797000D03*
D15*
X6347000Y45279000D03*
Y58279000D03*
X17347000D03*
X22542000Y42407000D03*
X32797000Y19429000D03*
Y36429000D03*
X49797000Y19429000D03*
X49542000Y42407000D03*
Y69407000D03*
X62129500Y41752000D03*
Y53752000D03*
Y58579500D03*
Y70579500D03*
X72129500Y53752000D03*
Y70579500D03*
X76099500Y41752000D03*
Y53752000D03*
Y58579500D03*
Y70579500D03*
X86099500Y53752000D03*
Y70579500D03*
D16*
X25247000Y43842000D03*
X23977000D03*
X25247000Y45112000D03*
X23977000D03*
X25247000Y46382000D03*
X23977000D03*
X25247000Y47652000D03*
X23977000D03*
X25247000Y48922000D03*
X23977000D03*
X25247000Y50192000D03*
X23977000D03*
X25247000Y51462000D03*
X23977000D03*
X25247000Y52732000D03*
X23977000D03*
X25247000Y54002000D03*
X23977000D03*
X25247000Y55272000D03*
X23977000D03*
X25247000Y56542000D03*
X23977000D03*
X25247000Y57812000D03*
X23977000D03*
X25247000Y59082000D03*
X23977000D03*
X25247000Y60352000D03*
X23977000D03*
X25247000Y61622000D03*
X23977000D03*
X25247000Y62892000D03*
X23977000D03*
X25247000Y64162000D03*
X23977000D03*
X25247000Y65432000D03*
X23977000D03*
X25247000Y66702000D03*
X23977000D03*
X25247000Y67972000D03*
X23977000D03*
X27787000Y43842000D03*
X26517000D03*
X27787000Y45112000D03*
X26517000D03*
X27787000Y46382000D03*
X26517000D03*
X27787000Y47652000D03*
X26517000D03*
X27787000Y48922000D03*
X26517000D03*
X27787000Y50192000D03*
X26517000D03*
X27787000Y51462000D03*
X26517000D03*
X27787000Y52732000D03*
X26517000D03*
X27787000Y54002000D03*
X26517000D03*
X27787000Y55272000D03*
X26517000D03*
X27787000Y56542000D03*
X26517000D03*
X27787000Y57812000D03*
X26517000D03*
X27787000Y59082000D03*
X26517000D03*
X27787000Y60352000D03*
X26517000D03*
X27787000Y61622000D03*
X26517000D03*
X27787000Y62892000D03*
X26517000D03*
X27787000Y64162000D03*
X26517000D03*
X27787000Y65432000D03*
X26517000D03*
X27787000Y66702000D03*
X26517000D03*
X27787000Y67972000D03*
X26517000D03*
X30327000Y43842000D03*
X29057000D03*
X30327000Y45112000D03*
X29057000D03*
X30327000Y46382000D03*
X29057000D03*
X30327000Y47652000D03*
X29057000D03*
X30327000Y64162000D03*
X29057000D03*
X30327000Y65432000D03*
X29057000D03*
X30327000Y66702000D03*
X29057000D03*
X30327000Y67972000D03*
X29057000D03*
X32867000Y43842000D03*
X31597000D03*
X32867000Y45112000D03*
X31597000D03*
X32867000Y46382000D03*
X31597000D03*
X32867000Y47652000D03*
X31597000D03*
X32867000Y64162000D03*
X31597000D03*
X32867000Y65432000D03*
X31597000D03*
X32867000Y66702000D03*
X31597000D03*
X32867000Y67972000D03*
X31597000D03*
X35407000Y43842000D03*
X34137000D03*
X35407000Y45112000D03*
X34137000D03*
X35407000Y46382000D03*
X34137000D03*
X35407000Y47652000D03*
X34137000D03*
X35407000Y54002000D03*
X34137000D03*
X35407000Y55272000D03*
X34137000D03*
X35407000Y56542000D03*
X34137000D03*
X35407000Y57812000D03*
X34137000D03*
X35407000Y64162000D03*
X34137000D03*
X35407000Y65432000D03*
X34137000D03*
X35407000Y66702000D03*
X34137000D03*
X35407000Y67972000D03*
X34137000D03*
X37947000Y43842000D03*
X36677000D03*
X37947000Y45112000D03*
X36677000D03*
X37947000Y46382000D03*
X36677000D03*
X37947000Y47652000D03*
X36677000D03*
X37947000Y54002000D03*
X36677000D03*
X37947000Y55272000D03*
X36677000D03*
X37947000Y56542000D03*
X36677000D03*
X37947000Y57812000D03*
X36677000D03*
X37947000Y64162000D03*
X36677000D03*
X37947000Y65432000D03*
X36677000D03*
X37947000Y66702000D03*
X36677000D03*
X37947000Y67972000D03*
X36677000D03*
X40487000Y43842000D03*
X39217000D03*
X40487000Y45112000D03*
X39217000D03*
X40487000Y46382000D03*
X39217000D03*
X40487000Y47652000D03*
X39217000D03*
X40487000Y64162000D03*
X39217000D03*
X40487000Y65432000D03*
X39217000D03*
X40487000Y66702000D03*
X39217000D03*
X40487000Y67972000D03*
X39217000D03*
X43027000Y43842000D03*
X41757000D03*
X43027000Y45112000D03*
X41757000D03*
X43027000Y46382000D03*
X41757000D03*
X43027000Y47652000D03*
X41757000D03*
X43027000Y64162000D03*
X41757000D03*
X43027000Y65432000D03*
X41757000D03*
X43027000Y66702000D03*
X41757000D03*
X43027000Y67972000D03*
X41757000D03*
X45567000Y43842000D03*
X44297000D03*
X45567000Y45112000D03*
X44297000D03*
X45567000Y46382000D03*
X44297000D03*
X45567000Y47652000D03*
X44297000D03*
X45567000Y48922000D03*
X44297000D03*
X45567000Y50192000D03*
X44297000D03*
X45567000Y51462000D03*
X44297000D03*
X45567000Y52732000D03*
X44297000D03*
X45567000Y54002000D03*
X44297000D03*
X45567000Y55272000D03*
X44297000D03*
X45567000Y56542000D03*
X44297000D03*
X45567000Y57812000D03*
X44297000D03*
X45567000Y59082000D03*
X44297000D03*
X45567000Y60352000D03*
X44297000D03*
X45567000Y61622000D03*
X44297000D03*
X45567000Y62892000D03*
X44297000D03*
X45567000Y64162000D03*
X44297000D03*
X45567000Y65432000D03*
X44297000D03*
X45567000Y66702000D03*
X44297000D03*
X45567000Y67972000D03*
X44297000D03*
X48107000Y43842000D03*
X46837000D03*
X48107000Y45112000D03*
X46837000D03*
X48107000Y46382000D03*
X46837000D03*
X48107000Y47652000D03*
X46837000D03*
X48107000Y48922000D03*
X46837000D03*
X48107000Y50192000D03*
X46837000D03*
X48107000Y51462000D03*
X46837000D03*
X48107000Y52732000D03*
X46837000D03*
X48107000Y54002000D03*
X46837000D03*
X48107000Y55272000D03*
X46837000D03*
X48107000Y56542000D03*
X46837000D03*
X48107000Y57812000D03*
X46837000D03*
X48107000Y59082000D03*
X46837000D03*
X48107000Y60352000D03*
X46837000D03*
X48107000Y61622000D03*
X46837000D03*
X48107000Y62892000D03*
X46837000D03*
X48107000Y64162000D03*
X46837000D03*
X48107000Y65432000D03*
X46837000D03*
X48107000Y66702000D03*
X46837000D03*
X48107000Y67972000D03*
X46837000D03*
D17*
X5097000Y29179000D03*
Y28029000D03*
Y30279000D03*
Y32129000D03*
X5102000Y33961500D03*
Y35866500D03*
Y37771500D03*
Y39676500D03*
X5047000Y41079000D03*
X5297000Y46829000D03*
X6377500Y57290000D03*
X8497000Y17429000D03*
Y20379000D03*
X8741000Y24421900D03*
X8781200Y28384200D03*
X8947000Y32600000D03*
X9347000Y57240000D03*
X8697000Y69229000D03*
X8500000Y71979000D03*
X8147000Y75879000D03*
X9647000Y36579000D03*
X11597000Y70829000D03*
X12449000Y6600000D03*
X13299000Y11927000D03*
X14547000Y19629000D03*
X13327000Y28299000D03*
X13421900Y30229000D03*
X13997000Y34479000D03*
X12197000Y36679000D03*
X12722000Y58579000D03*
X14309500Y58616500D03*
X12722000Y59579000D03*
X12798100Y66219500D03*
X13616500Y75109500D03*
X13147000Y78229000D03*
X16849500Y4300500D03*
X17133700Y50471400D03*
X16997000Y54879000D03*
X14847000Y69679000D03*
X15579500Y68729000D03*
X15447000Y71917000D03*
X16250000Y75929000D03*
X15579500Y79879000D03*
X16750000Y78879000D03*
X15579500Y83329000D03*
X19338000Y8039000D03*
X19645000Y11927000D03*
X18747000Y16679000D03*
X19368500Y18185200D03*
X18147000Y30179000D03*
X18347000Y47929000D03*
X18497000Y59879000D03*
X18542000Y64124000D03*
X18754500Y71929000D03*
X19072000Y73014000D03*
X18754500Y83379000D03*
X20500000Y6850000D03*
Y11350000D03*
X20772000Y13479000D03*
X22447000Y35229000D03*
X22047000Y57229000D03*
X21929500Y74919000D03*
X20977000Y73014000D03*
X20307700Y79865500D03*
X20342000Y83379000D03*
X24197000Y8929000D03*
X24347000Y18229000D03*
X22947000Y52829000D03*
X24600000Y59700000D03*
Y62250000D03*
X23350000D03*
X23517000Y71909000D03*
X23997000Y73429000D03*
X22882000Y73014000D03*
X24238600Y79186200D03*
X23517000Y83429000D03*
X25547000Y18229000D03*
X25960100Y25787800D03*
X27934000Y39763100D03*
X25866300Y59733700D03*
X27247000Y75779000D03*
X27962000Y80129000D03*
X28914500Y5311500D03*
X29150000Y17700000D03*
X28597000Y38829000D03*
X28279500Y72029000D03*
X28697000Y82779000D03*
X30547000D03*
X30819500Y5279000D03*
X32497000Y17729000D03*
X31497000Y36879000D03*
X32847000Y38079000D03*
X33040000Y55272000D03*
X33070000Y54002000D03*
X33060000Y56542000D03*
X33147000Y57812000D03*
X33247000Y73579000D03*
X31447000Y75779000D03*
X31397000Y80429000D03*
X32347000Y82779000D03*
X35583500Y16249000D03*
X34137000Y52589000D03*
X35407000Y52639000D03*
X34137000Y58969000D03*
X35407000Y58939000D03*
X36047000Y72029000D03*
X36122000Y73331500D03*
X35147000Y78929000D03*
X35997000Y82779000D03*
X34147000D03*
X36468000Y5450000D03*
X36647000Y7579000D03*
X36897000Y12079000D03*
X36677000Y52699000D03*
X37947000Y58979000D03*
X36677000Y58959000D03*
X37147000Y71979000D03*
X38535000Y81891000D03*
X37797000Y82779000D03*
X39010000Y56542000D03*
X39020000Y54002000D03*
X39040000Y55272000D03*
X39497000Y73579000D03*
X41247000Y79079000D03*
X41397000Y82779000D03*
X39597000D03*
X41997000Y71729000D03*
X42597000Y73379000D03*
X45967000Y17729000D03*
X45447000Y37629000D03*
X45424500Y39875500D03*
X44397000Y39679000D03*
X49400000Y76350000D03*
X48009000Y81741000D03*
X48747000Y82929000D03*
X52050000Y5482000D03*
X50197000Y4879000D03*
X51597000Y17129000D03*
X51911900Y27157400D03*
X49650000Y28350000D03*
X50377500Y34450000D03*
X49552000Y74284000D03*
X51147000Y79079000D03*
X51447000Y82629000D03*
X53933500Y16765500D03*
X52847000Y30904000D03*
X52647000Y43279000D03*
X53481500Y71594500D03*
X53479000Y82629000D03*
X54495000D03*
X52463000D03*
X55147000Y5479000D03*
X57453000Y26279000D03*
X55247000Y74284000D03*
X55511000Y82629000D03*
X56527000D03*
X59597000Y5129000D03*
X59947000Y22879000D03*
X58722000Y31104000D03*
X58797000Y33379000D03*
X58197000Y36779000D03*
X57547000Y75179000D03*
X57497000Y74029000D03*
X58696000Y82378000D03*
X62647000Y37979000D03*
X60213000Y73200000D03*
X60447000Y81879000D03*
X60347000Y80879000D03*
X63697000Y5079000D03*
X63447000Y17829000D03*
X64747000Y37979000D03*
X66550000Y5132000D03*
X68047000Y20824000D03*
X65913000Y73213000D03*
X66947000Y82629000D03*
X68097000Y80979000D03*
X69597000Y36079000D03*
X70649000Y55177000D03*
X69872000Y79554000D03*
X69197000Y80979000D03*
X73025000Y6847000D03*
X71140000Y21473200D03*
X71197000Y38429000D03*
X71584500Y73966500D03*
X71297000Y75629000D03*
X71547000Y82529000D03*
X72563000D03*
X74358000Y9768000D03*
X75097000Y32029000D03*
X74147000Y36629000D03*
X75777500Y37279000D03*
X75747000Y55177000D03*
X75611000Y82529000D03*
X74595000D03*
X73579000D03*
X77197000Y5079000D03*
X77947000Y18229000D03*
X76700000Y16629000D03*
X76426000Y21850000D03*
X76449100Y20789600D03*
X76497000Y23000000D03*
X77397000Y34979000D03*
X76197000Y35829000D03*
X78397000Y38406500D03*
X78497000Y55177000D03*
X77734000Y70612000D03*
X78659000Y82529000D03*
X77643000D03*
X76627000D03*
X79079500Y9661500D03*
X80889500Y12371500D03*
X79547000Y19079000D03*
X79876000Y20200000D03*
X79297000Y35779000D03*
X81047000Y55177000D03*
X81147000Y76879000D03*
X80297000Y76479000D03*
X82897000Y16929000D03*
Y21400000D03*
X81647000Y19483500D03*
X82797000Y23029000D03*
X81567500Y26849500D03*
X82597000Y30479000D03*
X82219500Y54179000D03*
X81747000Y72129000D03*
X85597000Y10729000D03*
X85927000Y26659000D03*
X85897000Y25079000D03*
X85952000Y29834000D03*
X85947000Y28246500D03*
X84247000Y27629000D03*
X85954500Y31421500D03*
X85897000Y36579000D03*
X86047000Y38129000D03*
X86049000Y55177000D03*
X89277000Y13959000D03*
X89329500Y21896500D03*
X89417000Y26659000D03*
X89303000Y36635000D03*
X88021000Y42579000D03*
X87797000Y48879000D03*
X87971000Y52850000D03*
X86847000Y61305000D03*
X87697000Y62879000D03*
X87767000Y65278000D03*
X86860000Y69088000D03*
X87547000Y72579000D03*
X87447000Y78779000D03*
X89489500Y31421500D03*
X91247000Y44788400D03*
X91410000Y47752000D03*
X90003000Y52951000D03*
X90051000Y59750000D03*
X91310000Y65278000D03*
X90053000Y70612000D03*
D18*
X5102000Y12689000D03*
X7007000Y13324000D03*
Y15546500D03*
X5102000Y14594000D03*
Y16499000D03*
Y18721500D03*
X7007000Y17451500D03*
Y21579000D03*
Y19674000D03*
X5102000Y20626500D03*
X7007000Y23484000D03*
X5102000Y22531500D03*
Y24436500D03*
X5097000Y26229000D03*
X15847000Y41729000D03*
X20342000Y39676500D03*
X19747000Y41729000D03*
X17847000D03*
X19807000Y64701500D03*
Y66606500D03*
Y68511500D03*
Y70416500D03*
X22247000Y39676500D03*
X24152000D03*
X27962000D03*
X26057000D03*
X33558500Y14344000D03*
X31527500Y16249000D03*
X33555500D03*
X33042000Y39676500D03*
X35586500Y14344000D03*
X34947000Y39676500D03*
X37487000Y16181500D03*
X36852000Y39676500D03*
X38757000D03*
X39392000Y16181500D03*
X40662000Y39676500D03*
X43519500Y16181500D03*
X42567000Y39676500D03*
X43202000Y72379000D03*
X45424500Y16181500D03*
X46497000Y39679000D03*
X49234500Y16181500D03*
X47329500D03*
X48282000Y39676500D03*
Y72379000D03*
X50822000Y16181500D03*
X50187000Y39676500D03*
X53047000Y18229000D03*
Y20029000D03*
X53044500Y21896500D03*
Y23801500D03*
X52997000Y28629000D03*
X53097000Y35279000D03*
Y33429000D03*
Y37129000D03*
D19*
X5000000Y5000000D03*
Y82500000D03*
X90000000Y5000000D03*
Y82500000D03*
D20*
X64300000Y18200000D03*
X64700000D03*
Y33800000D03*
X64300000D03*
X65100000Y18200000D03*
X65500000D03*
X65900000D03*
X66300000D03*
X66700000D03*
X67100000D03*
X67500000D03*
Y33800000D03*
X67100000D03*
X66700000D03*
X66300000D03*
X65900000D03*
X65500000D03*
X65100000D03*
X67900000Y18200000D03*
X68300000D03*
X68700000D03*
X69100000D03*
X69500000D03*
X69900000D03*
X70300000D03*
Y33800000D03*
X69900000D03*
X69500000D03*
X69100000D03*
X68700000D03*
X68300000D03*
X67900000D03*
X70700000Y18200000D03*
X71100000D03*
X71500000D03*
X71900000D03*
X72300000D03*
X72700000D03*
Y33800000D03*
X72300000D03*
X71900000D03*
X71500000D03*
X71100000D03*
X70700000D03*
X73100000Y18200000D03*
X73500000D03*
X73900000D03*
X74300000D03*
X74700000D03*
X75100000D03*
X75500000D03*
Y33800000D03*
X75100000D03*
X74700000D03*
X74300000D03*
X73900000D03*
X73500000D03*
X73100000D03*
X75900000Y18200000D03*
X76300000D03*
X76700000D03*
Y33800000D03*
X76300000D03*
X75900000D03*
D21*
X16750000Y77400000D03*
X16250000D03*
X15750000D03*
X15250000D03*
X19250000D03*
X18750000D03*
X18250000D03*
X17750000D03*
X17250000D03*
X22250000D03*
X21750000D03*
X21250000D03*
X20750000D03*
X20250000D03*
X19750000D03*
X25000000Y10100000D03*
X24750000Y77400000D03*
X24250000D03*
X23750000D03*
X23250000D03*
X22750000D03*
X26000000Y10100000D03*
X27000000D03*
X27250000Y77400000D03*
X26750000D03*
X26250000D03*
X25750000D03*
X25250000D03*
X28000000Y10100000D03*
X29000000D03*
X30000000D03*
X30250000Y77400000D03*
X29750000D03*
X29250000D03*
X28750000D03*
X28250000D03*
X27750000D03*
X31000000Y10100000D03*
X32000000D03*
X32750000Y77400000D03*
X32250000D03*
X31750000D03*
X31250000D03*
X30750000D03*
X35250000D03*
X34750000D03*
X34250000D03*
X33750000D03*
X33250000D03*
X38250000D03*
X37750000D03*
X37250000D03*
X36750000D03*
X36250000D03*
X35750000D03*
X39750000D03*
X39250000D03*
X38750000D03*
X50050000Y10100000D03*
X50550000D03*
X51050000D03*
X51550000D03*
X52050000D03*
X52550000D03*
X53050000D03*
X53550000D03*
X54050000D03*
X54550000D03*
X55050000D03*
X55550000D03*
X56050000D03*
X56550000D03*
X57050000D03*
X57550000D03*
X58050000D03*
X58550000D03*
X59050000D03*
X59550000D03*
X60050000D03*
X60550000D03*
X61050000D03*
X61550000D03*
X62050000D03*
X62550000D03*
X63050000D03*
X63550000D03*
X64050000D03*
X64550000D03*
X65050000D03*
X65550000D03*
X66050000D03*
X66550000D03*
X67050000D03*
X67550000D03*
X68050000D03*
X68550000D03*
X69050000D03*
X69550000D03*
D22*
X13532000Y15229000D03*
X14182000D03*
Y36819000D03*
X13532000D03*
X14832000Y15229000D03*
X15482000D03*
X16132000D03*
X16782000D03*
Y36819000D03*
X16132000D03*
X15482000D03*
X14832000D03*
X17432000Y15229000D03*
X18082000D03*
X18732000D03*
X19382000D03*
Y36819000D03*
X18732000D03*
X18082000D03*
X17432000D03*
X20032000Y15229000D03*
X20682000D03*
X21332000D03*
X21982000D03*
Y36819000D03*
X21332000D03*
X20682000D03*
X20032000D03*
X22632000Y15229000D03*
X23282000D03*
X23932000D03*
X24582000D03*
Y36819000D03*
X23932000D03*
X23282000D03*
X22632000D03*
X25232000Y15229000D03*
X25882000D03*
Y36819000D03*
X25232000D03*
D23*
X52862500Y46740000D03*
Y47240000D03*
X51912500D03*
Y46740000D03*
X52862500Y49280000D03*
Y49780000D03*
X51912500D03*
Y49280000D03*
X52862500Y52137500D03*
Y52637500D03*
X51912500D03*
Y52137500D03*
X52862500Y54677500D03*
Y55177500D03*
X51912500D03*
Y54677500D03*
X52862500Y57217500D03*
Y57717500D03*
X51912500D03*
Y57217500D03*
X52862500Y63567500D03*
Y64067500D03*
X51912500D03*
Y63567500D03*
X52862500Y66107500D03*
Y66607500D03*
X51912500D03*
Y66107500D03*
X52862500Y68647500D03*
Y69147500D03*
X51912500D03*
Y68647500D03*
D24*
X52862500Y46190000D03*
Y47790000D03*
X51912500D03*
Y46190000D03*
X52862500Y48730000D03*
Y50330000D03*
X51912500D03*
Y48730000D03*
X52862500Y51587500D03*
Y53187500D03*
X51912500D03*
Y51587500D03*
X52862500Y54127500D03*
Y55727500D03*
X51912500D03*
Y54127500D03*
X52862500Y56667500D03*
Y58267500D03*
X51912500D03*
Y56667500D03*
X52862500Y63017500D03*
X51912500D03*
X52862500Y64617500D03*
X51912500D03*
X52862500Y65557500D03*
X51912500D03*
X52862500Y68097500D03*
X51912500D03*
X52862500Y67157500D03*
X51912500D03*
X52862500Y69697500D03*
X51912500D03*
D25*
X8404000Y29516500D03*
X6880000D03*
X8721500Y36501500D03*
X7197500D03*
X29740000Y39676500D03*
X31264000D03*
X44980000Y72379000D03*
X46504000D03*
X46539000Y81151500D03*
X45015000D03*
X51943000Y60007500D03*
Y61595000D03*
X53467000Y60007500D03*
Y61595000D03*
X72602500Y38406500D03*
X74126500D03*
X75777500D03*
X77301500D03*
X82762500D03*
X84286500D03*
X88783000Y44789000D03*
Y46440000D03*
X88733000Y49776000D03*
Y51427000D03*
X88783000Y63627000D03*
Y61976000D03*
Y66929000D03*
Y68580000D03*
X90307000Y44789000D03*
Y46440000D03*
X90257000Y49776000D03*
Y51427000D03*
X90307000Y63627000D03*
Y61976000D03*
Y66929000D03*
Y68580000D03*
D26*
X14309500Y5767500D03*
Y11355500D03*
X16849500Y5767500D03*
X15579500D03*
Y11355500D03*
X16849500D03*
X18119500Y5767500D03*
Y11355500D03*
D27*
X8747000Y23491000D03*
Y21967000D03*
X11452000Y10657000D03*
Y12181000D03*
X41697000Y13451000D03*
Y11927000D03*
X43284500D03*
Y13451000D03*
X49397000Y77317000D03*
Y80217000D03*
Y78841000D03*
Y81741000D03*
X53044500Y25579500D03*
Y27103500D03*
X82889500Y17959500D03*
Y19483500D03*
Y26849500D03*
Y28373500D03*
D28*
X31835500Y73331500D03*
X34883500D03*
X38185500D03*
X41233500D03*
X63268000Y80951500D03*
X66316000D03*
X82318000Y79364000D03*
X85366000D03*
D29*
X7642000Y31675500D03*
Y33707500D03*
D30*
X44994500Y75754000D03*
Y78294000D03*
X47194500Y75754000D03*
Y78294000D03*
X57537000Y22214000D03*
X55337000D03*
X57537000Y24754000D03*
X55337000D03*
D31*
X11833000Y18549000D03*
Y17899000D03*
Y17249000D03*
Y16599000D03*
Y21149000D03*
Y20499000D03*
Y19849000D03*
Y19199000D03*
Y23749000D03*
Y23099000D03*
Y22449000D03*
Y21799000D03*
Y26349000D03*
Y25699000D03*
Y25049000D03*
Y24399000D03*
Y28949000D03*
Y28299000D03*
Y27649000D03*
Y26999000D03*
Y32199000D03*
Y31549000D03*
Y30899000D03*
Y30249000D03*
Y29599000D03*
Y34799000D03*
Y34149000D03*
Y33499000D03*
Y32849000D03*
Y35449000D03*
X27581000Y16599000D03*
Y17249000D03*
Y17899000D03*
Y18549000D03*
Y19199000D03*
Y19849000D03*
Y20499000D03*
Y21149000D03*
Y21799000D03*
Y22449000D03*
Y23099000D03*
Y23749000D03*
Y24399000D03*
Y25049000D03*
Y25699000D03*
Y26349000D03*
Y26999000D03*
Y27649000D03*
Y28299000D03*
Y28949000D03*
Y29599000D03*
Y30249000D03*
Y30899000D03*
Y31549000D03*
Y32199000D03*
Y32849000D03*
Y33499000D03*
Y34149000D03*
Y34799000D03*
Y35449000D03*
D32*
X62700000Y21400000D03*
Y21000000D03*
Y20600000D03*
Y20200000D03*
Y19800000D03*
Y23800000D03*
Y23400000D03*
Y23000000D03*
Y22600000D03*
Y22200000D03*
Y21800000D03*
Y26600000D03*
Y26200000D03*
Y25800000D03*
Y25400000D03*
Y25000000D03*
Y24600000D03*
Y24200000D03*
Y29400000D03*
Y29000000D03*
Y28600000D03*
Y28200000D03*
Y27800000D03*
Y27400000D03*
Y27000000D03*
Y31800000D03*
Y31400000D03*
Y31000000D03*
Y30600000D03*
Y30200000D03*
Y29800000D03*
Y32200000D03*
X78300000Y19800000D03*
Y20200000D03*
Y20600000D03*
Y21000000D03*
Y21400000D03*
Y21800000D03*
Y22200000D03*
Y22600000D03*
Y23000000D03*
Y23400000D03*
Y23800000D03*
Y24200000D03*
Y24600000D03*
Y25000000D03*
Y25400000D03*
Y25800000D03*
Y26200000D03*
Y26600000D03*
Y27000000D03*
Y27400000D03*
Y27800000D03*
Y28200000D03*
Y28600000D03*
Y29000000D03*
Y29400000D03*
Y29800000D03*
Y30200000D03*
Y30600000D03*
Y31000000D03*
Y31400000D03*
Y31800000D03*
Y32200000D03*
D33*
X6400000Y64876000D03*
Y67924000D03*
Y70376000D03*
Y73424000D03*
X9900000Y64876000D03*
Y67924000D03*
Y70376000D03*
Y73424000D03*
X13297000Y64905000D03*
Y67953000D03*
Y70405000D03*
Y73453000D03*
D34*
X13350000Y80700000D03*
X22550000Y6800000D03*
X34450000D03*
X41650000Y80700000D03*
X48150000Y6800000D03*
X71450000D03*
D35*
X53616000Y78411500D03*
X59458000D03*
X72983500Y78729000D03*
X78825500D03*
D36*
X38839500Y5450000D03*
Y8498000D03*
Y10530000D03*
Y13578000D03*
X42649500Y7037500D03*
Y10085500D03*
X64397000Y75255000D03*
Y78303000D03*
X68247000Y75255000D03*
Y78303000D03*
X83207000Y74030000D03*
Y77078000D03*
X87652000Y74030000D03*
Y77078000D03*
M02*