G04 Gerber PCB Fabrication Data in Gerber – Example 2, created by Karel Tavernier, Filip Vermeire and Thomas Weyn*
G04 Ucamco copyright*
%TF.GenerationSoftware,Ucamco,UcamX,1.1.0-1400509*%
%TF.CreationDate,2014-07-14T00:00:00+01:00*%
%FSLAX26Y26*%
%MOMM*%
%TF.FileFunction,Soldermask,Top*%
%TF.FilePolarity,Negative*%
%TF.Part,Single*%
%TF.SameCoordinates*%
%TA.AperFunction,Material*%
%ADD10C,0.40000*%
%ADD11C,0.45000*%
%ADD12C,0.50000*%
%ADD13C,1.00000*%
%ADD14C,0.70000*%
%ADD15C,0.75000*%
%ADD16C,0.80000*%
%ADD17C,6.10000*%
%ADD18R,0.30000X1.90000*%
%ADD19R,0.35000X1.70000*%
%ADD20R,0.50000X1.70000*%
%ADD21R,0.60000X0.40000*%
%ADD22R,0.60000X0.50000*%
%ADD23R,0.70000X1.10000*%
%ADD24R,0.70000X1.70000*%
%ADD25R,1.10000X0.70000*%
%ADD26R,1.20000X1.90000*%
%ADD27R,1.60000X1.10000*%
%ADD28R,1.60000X1.70000*%
%ADD29R,1.70000X0.50000*%
%ADD30R,1.90000X0.30000*%
%ADD31R,1.90000X1.20000*%
%ADD32R,2.00000X2.20000*%
%ADD33R,2.10000X3.60000*%
%ADD34R,2.90000X1.20000*%
%ADD35C,2.80000*%
%ADD36C,1.80000*%
%ADD37C,1.40000*%
G01*
%LPD*%
D10*
X5102000Y13424000D03*
Y15334000D03*
Y17279000D03*
X4897000Y21429000D03*
X6297000Y19669000D03*
X4997000Y19529000D03*
X5547000Y21679000D03*
X6247000Y23479000D03*
Y21579000D03*
X6400000Y69129000D03*
X7007000Y14869000D03*
Y16719000D03*
X9000000Y35100000D03*
X7197500Y35179500D03*
X7847000Y49779000D03*
X6897000Y52379000D03*
X7797000Y52929000D03*
X7197000Y53479000D03*
X8997000Y52729000D03*
X7647000Y52279000D03*
X8147000Y64876000D03*
X9997000Y10657000D03*
X11452000Y13074000D03*
X10417000Y19849000D03*
Y21129000D03*
Y22449000D03*
X10397000Y28949000D03*
X9997000Y32199000D03*
X10477000Y31549000D03*
X10297000Y32879000D03*
X10597000Y33499000D03*
X10467000Y34799000D03*
X11591000Y46976500D03*
X10277500Y46990000D03*
X11347000Y47679000D03*
X10847000Y50829000D03*
X10797000Y49729000D03*
X9847000Y50729000D03*
X10847000Y52779000D03*
Y51779000D03*
X9847000Y52779000D03*
X9897000Y55579000D03*
X10847000Y53779000D03*
Y54779000D03*
X10347000Y57279000D03*
X11347000D03*
X11547000Y65379000D03*
X14309500Y7066500D03*
X12397000Y9779000D03*
X14197000Y18329000D03*
X14147000Y21429000D03*
X13297000Y24429000D03*
X13347000Y25049000D03*
X13217000Y25699000D03*
X13097000Y34149000D03*
X14182000Y35364000D03*
X13947000Y42829000D03*
X12897000Y45079000D03*
X11947000Y43329000D03*
X12847000Y48979000D03*
X13847000Y49779000D03*
X13797000Y50829000D03*
X11895400Y49780800D03*
X12947000Y49729000D03*
X13847000Y52779000D03*
X11947000Y51679000D03*
X11847000Y52829000D03*
X13847000Y51779000D03*
X12847000D03*
X13847000Y54729000D03*
X12347000Y55979000D03*
X13347000Y56079000D03*
X12847000Y53779000D03*
X14347000Y56029000D03*
X16849500Y10081500D03*
X16767000Y13864000D03*
X16117000Y13764000D03*
X15482000Y13929000D03*
X14832000Y13944000D03*
X14847000Y18529000D03*
X15697000Y22879000D03*
X17031300Y25879000D03*
X16627500Y26237900D03*
X16177500Y26654000D03*
X15347000Y27429000D03*
X15497000Y31479000D03*
X14832000Y38144000D03*
X16132000Y38164000D03*
X16782000Y38214000D03*
X16467000Y44779000D03*
X15347000Y46979000D03*
X15497000Y46379000D03*
X14833500Y50769400D03*
X14847000Y51879000D03*
X14897000Y52779000D03*
X15847000D03*
X16147000Y54729000D03*
Y54129000D03*
X14947000Y73329000D03*
X18100000Y10100000D03*
X17417000Y13914000D03*
X18082000D03*
X19709400Y20359500D03*
X17779000Y24629000D03*
X17427500Y28690000D03*
X18082000Y35494000D03*
X18732000Y35444000D03*
X19382000Y35464000D03*
X19797000Y40229000D03*
X18897000Y40779000D03*
X19347000Y55979000D03*
X19750000Y75829000D03*
X18250000Y78779000D03*
X22017000Y13764000D03*
X22247000Y17679000D03*
X22347000Y18379000D03*
X21921600Y18058700D03*
X21477500Y20690000D03*
X22227500Y28540000D03*
X19997000Y34529000D03*
X20047000Y35229000D03*
X21197000Y43179000D03*
X20897000Y45429000D03*
X21197000Y46079000D03*
X22047000Y53479000D03*
X21747000Y52779000D03*
X21697000Y52097000D03*
X20047000Y55329000D03*
X20267800Y56079000D03*
X20659500Y70416500D03*
X21250000Y76032000D03*
X20747000Y79079000D03*
X20047000D03*
X21797000Y81229000D03*
X23917000Y14029000D03*
X23267000D03*
X22667000Y14079000D03*
X24597000Y13879000D03*
X25127500Y21290000D03*
X24727500Y19790000D03*
Y19129000D03*
X23277500Y28040000D03*
X22927500Y27540000D03*
X23077500Y30079000D03*
X24704500Y33852600D03*
X25077500Y32840000D03*
X22632000Y38214000D03*
X23197000Y38879000D03*
X22697100Y40229000D03*
X24647000Y46429000D03*
X24697000Y45779000D03*
X23247000Y47652000D03*
X24597000Y47029000D03*
X23342000Y48287000D03*
Y49557000D03*
X24612000D03*
X23342000Y50827000D03*
X24612000Y52097000D03*
X23342000Y57177000D03*
X24612000Y58447000D03*
X23342000D03*
X24612000Y66067000D03*
X23997000Y68829000D03*
X24612000Y67337000D03*
X23342000D03*
X22750000Y75979000D03*
X23735300Y78596800D03*
X24097000Y80829000D03*
X26047000Y7679000D03*
X26897000Y8629000D03*
X25897000Y13929000D03*
X26267000Y17249000D03*
X26117000Y20940000D03*
X26367000Y23749000D03*
X26111200Y23319300D03*
X26297000Y22829000D03*
X25677500Y21790000D03*
X26267000Y25049000D03*
X25847000Y29079000D03*
X25477500Y28040000D03*
X26417000Y31549000D03*
X25577500Y30859500D03*
X26347000Y29599000D03*
X26247000Y33579000D03*
X25697000Y34979000D03*
X26857400Y48161200D03*
X25647000Y46979000D03*
X25947000Y45829000D03*
X27747000Y47000000D03*
X27170400Y49917100D03*
X25847000Y49479000D03*
X25797000Y50879000D03*
X27147000Y49329000D03*
X25882000Y53367000D03*
Y52097000D03*
X27152000D03*
X27097000Y50929000D03*
X25882000Y54637000D03*
X27152000D03*
X27147000Y55929000D03*
X25882000Y57177000D03*
X27152000Y58447000D03*
X25882000D03*
X27152000Y59717000D03*
X25882000Y63527000D03*
X27152000Y62257000D03*
Y63527000D03*
X25882000Y66067000D03*
X27197000Y64779000D03*
X25897000Y69379000D03*
X27262000D03*
X25597000Y67329000D03*
X27797000Y68679000D03*
X25247000Y68729000D03*
X26517000Y68679000D03*
X27152000Y67337000D03*
X27397000Y73879000D03*
X25750000Y75729000D03*
X26447000Y80129000D03*
X26750000Y78829000D03*
X27250000Y79429000D03*
X25659000Y80079000D03*
X29597000Y7526000D03*
X28397000Y8579000D03*
X29947000D03*
X30297000Y14929000D03*
X28997000Y19179000D03*
X29250000Y24326000D03*
X28967000Y28949000D03*
X29017000Y27649000D03*
X30097000Y31479000D03*
X28977000Y32199000D03*
X28917000Y33499000D03*
X28967000Y34799000D03*
X29247000Y40779000D03*
X29647000Y44736000D03*
X29697000Y43429000D03*
X29057000Y43179000D03*
X29547000Y45879000D03*
X28527500Y45729000D03*
X29647000Y48029000D03*
X28297000Y49682000D03*
X28347000Y53329000D03*
X28297000Y52129000D03*
X29697000Y63672000D03*
X29692000Y66067000D03*
Y64797000D03*
X28997000Y69389000D03*
X29947000Y67329000D03*
X29047000Y68679000D03*
X28250000Y76182000D03*
X28597000Y75279000D03*
X28750000Y79479000D03*
X29847000Y79979000D03*
X30250000Y78679000D03*
X29750000Y79229000D03*
X32000000Y7732000D03*
X31297000Y8579000D03*
X30947000Y12579000D03*
X31047000Y14579000D03*
X31747000Y14279000D03*
X32947000Y15729000D03*
X32862000Y14279000D03*
X31597000Y19929000D03*
X32047000Y20479000D03*
X32447000Y21529000D03*
X31697000Y23429000D03*
X30797000Y22379000D03*
X31047000Y26479000D03*
X30947000Y25329000D03*
X30997000Y24479000D03*
X31047000Y28257000D03*
X31097000Y28979000D03*
X31897000Y31379000D03*
X32447000Y31229000D03*
X31397000Y29829000D03*
X31264000Y40712000D03*
X32500000Y40650000D03*
X32197000Y44529000D03*
X30947000D03*
X32297000Y43579000D03*
X30897000Y46829000D03*
X32197000Y46079000D03*
X32247000Y46829000D03*
Y48179000D03*
X30947000Y48029000D03*
X32297000Y63679000D03*
X32097000Y64879000D03*
X31197000Y66079000D03*
X32232000Y66067000D03*
X30962000Y68607000D03*
X32232000Y67337000D03*
X31400000Y70100000D03*
X30797000Y73329000D03*
X32250000Y76132000D03*
X31250000Y78726000D03*
X30750000Y78929000D03*
X31750000Y78679000D03*
X34922400Y12199300D03*
X34647000Y13179000D03*
X34597000Y12579000D03*
X34847000Y13979000D03*
X34297000Y16229000D03*
Y16779000D03*
X35497000Y17179000D03*
X34797000Y17029000D03*
X33147000Y20229000D03*
X34447000Y21929000D03*
X35047000Y22979000D03*
X35247000Y21679000D03*
X33347000Y23979000D03*
X33197000Y26379000D03*
X34977500Y25954000D03*
X33547000Y24929000D03*
X35297000D03*
Y28929000D03*
Y26929000D03*
Y29929000D03*
Y31929000D03*
X35284600Y30962100D03*
X34297000Y29629000D03*
Y31929000D03*
X35297000Y32929000D03*
Y33929000D03*
X34297000D03*
X33297000D03*
X34297000Y32929000D03*
X33297000Y34929000D03*
X33797000Y37379000D03*
X33353500Y44379000D03*
X33547000Y44979000D03*
X34947000Y46779000D03*
X33547000Y45679000D03*
X34397000Y45729000D03*
X34647000Y48129000D03*
X33347000Y63679000D03*
X33502000Y66067000D03*
X34897000Y64929000D03*
X33647000Y64729000D03*
X34772000Y68607000D03*
X33502000Y67337000D03*
X34772000D03*
X36247000Y6829000D03*
X38247000Y16029000D03*
X36047000Y20879000D03*
Y19979000D03*
X38147000Y20979000D03*
X36797000Y18929000D03*
X36297000Y23629000D03*
X37297000Y22929000D03*
X37287900Y23917400D03*
X37297000Y25929000D03*
Y24929000D03*
X36297000D03*
X38347000Y25879000D03*
X38297000Y26929000D03*
X37297000Y28929000D03*
X38297000D03*
X36297000D03*
X36547000Y26979000D03*
X37247000Y27729000D03*
X36297000Y31929000D03*
Y29929000D03*
Y30929000D03*
X37297000D03*
Y31929000D03*
X38297000Y29929000D03*
Y32929000D03*
X38347000Y33879000D03*
X37297000Y32929000D03*
X36297000Y33929000D03*
X36350000Y34850000D03*
X38297000Y34929000D03*
X37970700Y36530500D03*
X36950000Y36279000D03*
X35927000Y45779000D03*
X37197000Y47029000D03*
X37347000Y45779000D03*
X38397000Y48129000D03*
X35947000Y48179000D03*
X36997000Y66079000D03*
Y64829000D03*
X38347000Y64779000D03*
X37047000Y68679000D03*
X37897000D03*
X38347000Y67329000D03*
X37750000Y75832000D03*
X40447000Y11927000D03*
X39547000Y12029000D03*
X40147000Y16629000D03*
X40347000Y21179000D03*
X38747000Y19279000D03*
X40997000Y19329000D03*
X39259900Y21632000D03*
X39247000Y23079000D03*
X40297000Y23929000D03*
X38497000Y21879000D03*
X39247000Y23879000D03*
X39274300Y24951700D03*
X40297000Y25929000D03*
Y28929000D03*
X40247000Y27829000D03*
Y26929000D03*
X40297000Y31879000D03*
X39297000D03*
X40297000Y29929000D03*
X39297000Y30929000D03*
X40347000Y42879000D03*
X38947000Y44479000D03*
X41122000Y43207000D03*
Y44477000D03*
X38597000Y45779000D03*
X39947000Y47929000D03*
X39847000Y63829000D03*
X41122000Y66067000D03*
X38897000Y68729000D03*
X39852000Y67337000D03*
X39697000Y70129000D03*
X40097000Y72229000D03*
X38547000Y74679000D03*
X40497000Y76679000D03*
X41147000Y16929000D03*
X42597000D03*
X43497000Y17679000D03*
X41951900Y18478300D03*
X43097000Y17329000D03*
X43347000Y19129000D03*
X43295200Y21880600D03*
X41247000Y21979000D03*
X41297000Y22929000D03*
X42297000Y23929000D03*
X43297000Y22929000D03*
X42297000Y24929000D03*
Y25929000D03*
Y27929000D03*
X43247000Y28979000D03*
X42297000Y28929000D03*
X42347000Y27029000D03*
X43297000Y31929000D03*
X41297000Y30929000D03*
Y31929000D03*
X42297000D03*
Y29929000D03*
X43297000Y30929000D03*
X42247000Y33879000D03*
X43297000Y34779000D03*
X41297000Y32929000D03*
X42297000D03*
X41227000Y33929000D03*
X43297000Y32929000D03*
X42297000Y37629000D03*
X43322900Y42857700D03*
X41897000Y42979000D03*
X43662000Y44477000D03*
X42392000D03*
Y45747000D03*
X41147000Y47929000D03*
X42447000Y51329000D03*
X41997000Y63529000D03*
X43547000Y63629000D03*
X43710500Y64787000D03*
Y66057000D03*
X42440500Y64787000D03*
X43710500Y67327000D03*
X45005500Y7037500D03*
X45097000Y14579000D03*
X44194500Y16181500D03*
X44697000Y16229000D03*
X44714200Y18931700D03*
X44297000Y20929000D03*
X46058000Y18965900D03*
X46247000Y22929000D03*
X44297000Y23929000D03*
Y22929000D03*
X45297000D03*
X45197000Y24029000D03*
X46347000Y21829000D03*
X45297000Y24929000D03*
Y25929000D03*
X46297000D03*
Y24229000D03*
X44297000Y25929000D03*
X46300000Y27900000D03*
X46297000Y26929000D03*
Y28929000D03*
X45319700Y27906300D03*
X44297000Y27929000D03*
Y28929000D03*
X45297000Y30929000D03*
X46297000Y29929000D03*
Y30929000D03*
X44297000Y31929000D03*
X46300000Y31900000D03*
X45297000Y31929000D03*
X44274300Y29906300D03*
X46297000Y33929000D03*
X44297000Y32929000D03*
Y33929000D03*
X45297000Y32929000D03*
Y33929000D03*
X46450000Y33050000D03*
X44797000Y36129000D03*
X45916700Y37012500D03*
X46297000Y34929000D03*
X44097000Y36229000D03*
X45297000Y34929000D03*
X45047000Y42979000D03*
X44932000Y45747000D03*
X46202000D03*
X46177000Y47041000D03*
X43847000Y47079000D03*
X46177000Y48311000D03*
Y49581000D03*
X44907000D03*
X46177000Y50851000D03*
X44907000D03*
Y48311000D03*
X46177000Y52121000D03*
X44907000D03*
X46177000Y53391000D03*
X44907000D03*
X46177000Y55931000D03*
Y54661000D03*
X44907000D03*
Y55931000D03*
X44958000Y57150000D03*
X46228000D03*
Y58420000D03*
X44958000D03*
X46228000Y59690000D03*
X44958000D03*
X46228000Y60960000D03*
X44958000D03*
X46228000Y62230000D03*
Y63500000D03*
X44958000Y62230000D03*
Y63500000D03*
Y66040000D03*
Y64770000D03*
X46228000Y66040000D03*
Y64770000D03*
X46169500Y67289000D03*
X46369500Y68489000D03*
X44958000Y67310000D03*
X46544500Y16181500D03*
X48499500D03*
X48453000Y18662400D03*
X48297000Y20929000D03*
X47247000Y21906300D03*
X47523700Y23021600D03*
X48197000Y23879000D03*
X46497000Y24929000D03*
X47297000Y25279000D03*
Y25929000D03*
Y26929000D03*
X48297000D03*
Y29929000D03*
Y30929000D03*
X47315600Y31915600D03*
X47297000Y29929000D03*
Y30929000D03*
X48297000Y33929000D03*
X47797000Y36950000D03*
X47297000Y34929000D03*
X46797000Y36129000D03*
X48297000Y34929000D03*
X46997000Y41629000D03*
X48647000Y41679000D03*
X48742000Y43207000D03*
X47472000Y44477000D03*
X47468500Y47240000D03*
X47472000Y45747000D03*
X47419500Y50689000D03*
X47319500Y52389000D03*
X48797000Y54002000D03*
X47419500Y54839000D03*
Y57739000D03*
X47469500Y61289000D03*
X47252500Y66012200D03*
X47469500Y67489000D03*
X51550000Y6832000D03*
X50050000Y8532000D03*
X50144500Y16181500D03*
X51797000Y16029000D03*
X49497000Y21429000D03*
X49847000Y20929000D03*
X51147000Y23484000D03*
X51447000Y22429000D03*
X49597000Y23929000D03*
X51347000Y24927400D03*
X51647000Y26429000D03*
X51147000Y25929000D03*
X50947000Y24529000D03*
X49697000Y25729000D03*
X49597000Y29429000D03*
X50447000Y27429000D03*
X49547000Y31479000D03*
X49697000Y30529000D03*
X50347000Y31679000D03*
X49597000Y34529000D03*
X49547000Y32429000D03*
X50950000Y33429000D03*
X49297000Y35929000D03*
X51347000Y41379000D03*
X50297000Y41629000D03*
X51218500Y47240000D03*
X51110500Y49780000D03*
X51119500Y51639000D03*
X49719500Y53187500D03*
X51181000Y55177500D03*
X51198000Y58267500D03*
X50245100Y63018600D03*
X50400000Y64067500D03*
X49997000Y63567500D03*
X51042400Y64614500D03*
X53497000Y6429000D03*
X53847000Y18229000D03*
X53747000Y19979000D03*
X54300000Y22200000D03*
X51847000Y23809000D03*
X52247000Y21879000D03*
X52047000Y25629000D03*
X53047000Y27779000D03*
X53100000Y34500000D03*
X53470500Y47790000D03*
X53468500Y46740000D03*
X53769500Y47240000D03*
Y46190000D03*
X53469500Y50330000D03*
Y49280000D03*
X53769500Y49780000D03*
Y48730000D03*
Y51587500D03*
Y52637500D03*
X53469500Y52137500D03*
Y53187500D03*
X53769500Y54127500D03*
Y55177500D03*
X53469500Y54677500D03*
Y55727500D03*
X53769500Y56667500D03*
X53469500Y58267500D03*
X53769500Y57717500D03*
X53469500Y57217500D03*
X52650000Y60689000D03*
X52647000Y61229000D03*
X53869500Y63017500D03*
X54069500Y63789000D03*
X53519500Y63567500D03*
X53574500Y64389000D03*
X53688000Y66607500D03*
X53738000Y65557500D03*
X53401000Y66107500D03*
X53451000Y67157500D03*
X53869500Y67789000D03*
X53478000Y68647500D03*
X53919500Y69139000D03*
X53569500Y69697500D03*
X56747000Y6779000D03*
X55097000D03*
X55550000Y8432000D03*
X56697000Y8929000D03*
X56947000Y18729000D03*
X54600000Y33300000D03*
X58297000Y6729000D03*
Y8379000D03*
X59805800Y18333200D03*
X57797000Y16329000D03*
X57598200Y18679000D03*
X58347000Y18429000D03*
X59307000Y18297800D03*
X57297000Y20779000D03*
X58797000Y25329000D03*
Y30317000D03*
X59897000Y6779000D03*
X61447000Y6879000D03*
X60050000Y8429000D03*
X61550000Y8482000D03*
X60597000Y15579000D03*
X60097000Y15079000D03*
X60747000Y15029000D03*
X61297000Y18629000D03*
X60447000Y18029000D03*
X62297000Y17329000D03*
X60297000Y20379000D03*
X61376000Y21400000D03*
X61418000Y20600000D03*
X61068000Y20200000D03*
X60597000Y23379000D03*
X61326000Y26200000D03*
X60897000Y25800000D03*
X61318000Y25400000D03*
X61176000Y28600000D03*
X61218000Y27400000D03*
X61047000Y31329000D03*
X61268000Y32200000D03*
X60547000Y33129000D03*
X63047000Y6829000D03*
X64547000D03*
X62969000Y8478800D03*
X64547000Y11429000D03*
X64197000Y20429000D03*
X65047000Y19779000D03*
X64247000Y22729000D03*
X64076000Y26600000D03*
X64147000Y31129000D03*
X65119500Y42639000D03*
X63269500Y42739000D03*
X64550000Y41550000D03*
X63469500Y41839000D03*
X64400000Y42639000D03*
X64969500Y44739000D03*
X62953100Y44981400D03*
X63419500Y43739000D03*
X64348000Y44002000D03*
X64269500Y44889000D03*
X64919500Y47739000D03*
X63319500Y45839000D03*
X64969500Y46742000D03*
X64471700Y46822900D03*
X64169500Y49680500D03*
X63869500Y48389000D03*
X64069500Y50252000D03*
X64319500Y53539000D03*
X64019500Y52252000D03*
X63819500Y51252000D03*
X64419500Y58589000D03*
X65074000Y58439000D03*
X63419500Y61112000D03*
X63069500Y59639000D03*
Y58989000D03*
X64319500Y61339000D03*
Y59740400D03*
X63119500Y62939000D03*
X63069500Y62079100D03*
X65121600Y62339000D03*
X64269500Y63589000D03*
X65119500Y63389000D03*
X64369500Y62439000D03*
X65119500Y64614000D03*
X63919500Y66079500D03*
X63769500Y64759000D03*
X64069500Y67239000D03*
X63891000Y69088000D03*
X63954500Y68072000D03*
X63819500Y70189000D03*
X66100000Y7200000D03*
X67050000Y8832000D03*
X66050000Y8882000D03*
X67550000Y11276000D03*
X65550000D03*
X65497000Y20129000D03*
X65747000Y20679000D03*
X67597000Y22379000D03*
X66897000Y23229000D03*
X66547000Y22429000D03*
X67297000Y24979000D03*
X67547300Y26597700D03*
X66697000Y27267000D03*
X67100000Y35576000D03*
X67500000Y35226000D03*
X65900000Y35126000D03*
X66300000Y35576000D03*
X66700000Y35132000D03*
X66119500Y42039000D03*
X66071300Y43787400D03*
X65619500Y45739000D03*
X65669500Y49689000D03*
X65169500Y49589000D03*
X66019500Y52039000D03*
X66169500Y51244500D03*
X65181800Y54039000D03*
X66019500Y60639000D03*
X66119500Y59889000D03*
X66519500Y62079500D03*
X66074000Y63989000D03*
X66219500Y66079500D03*
X66367500Y67056000D03*
X66304000Y68199000D03*
X66109100Y69789000D03*
X66669500Y70539000D03*
X67900000Y16879000D03*
X69504900Y16830200D03*
X69397000Y20079000D03*
X68300000Y19676000D03*
X70347000Y21579000D03*
X68497000Y24429000D03*
X68397000Y25529000D03*
X68177500Y27590000D03*
X70097000Y29279000D03*
X69900000Y32382000D03*
X68300000Y35276000D03*
X69950000Y41850000D03*
X68319500Y41889000D03*
X68069500Y43689000D03*
X69169500Y43839000D03*
X69769500Y44839000D03*
X68569500Y45739000D03*
X69969500Y47639000D03*
X69119500Y46589000D03*
X68219500Y46539000D03*
X69819500Y46739000D03*
X68299100Y48819700D03*
X68219500Y49739000D03*
Y50789000D03*
X70028200Y48747100D03*
X68869500Y51789000D03*
X69824500Y52626900D03*
X68369500Y52539000D03*
X69219500Y53939000D03*
X68469500Y53689000D03*
X69219500Y57689000D03*
X68027000Y59946500D03*
X67869500Y61079500D03*
X69819500Y59689000D03*
X68219500Y58939000D03*
X69719500Y60589900D03*
X68169500Y62066500D03*
X68119500Y62889000D03*
X68045200Y64107800D03*
X69919500Y61889000D03*
X69169500Y63489000D03*
X69869500Y63689000D03*
X68229000Y65079500D03*
X68169500Y66079500D03*
X69990000Y65389000D03*
X67869500Y66939000D03*
X70169500Y68189000D03*
X67955000Y68024000D03*
X68069500Y69139000D03*
X70360000Y67079500D03*
X68019500Y70389000D03*
X72700000Y19676000D03*
X73100000Y20029000D03*
X70700000D03*
X71100000Y19676000D03*
X71500000Y20029000D03*
X71900000Y19676000D03*
X72300000Y20029000D03*
X71327500Y29140000D03*
X73100000Y29240000D03*
X72300000Y28640000D03*
X71247000Y31329000D03*
X70697000Y31479000D03*
X71100000Y35226000D03*
X70732900Y42723000D03*
X70800000Y42227500D03*
X70937800Y44189000D03*
X71519500Y45189800D03*
X71219500Y43389000D03*
X72069500Y44689000D03*
X70819500Y47239000D03*
X71032500Y46252000D03*
X70519500Y50252000D03*
X71019500Y51244500D03*
X70519500Y58139000D03*
X71169500Y60045200D03*
X71069500Y61079500D03*
X70869500Y64079500D03*
Y62079500D03*
X71269500Y63093000D03*
X70619500Y65989000D03*
X70719500Y69248700D03*
X70619500Y70539000D03*
X73500000Y19676000D03*
X73900000Y20029000D03*
X74300000Y19676000D03*
X74700000Y20029000D03*
X75100000Y19676000D03*
X75500000Y20029000D03*
X74300000Y32429000D03*
X73500000Y35226000D03*
X75100000Y35229000D03*
X75900000Y19676000D03*
X76300000Y20029000D03*
X76668000Y23800000D03*
X76676000Y26200000D03*
Y25400000D03*
X76668000Y24600000D03*
X76676000Y27800000D03*
X76668000Y27000000D03*
X76726000Y31800000D03*
Y31000000D03*
X77450000Y42700000D03*
X77550000Y41750000D03*
X76750000Y45300000D03*
X77400000Y43850000D03*
X78319500Y44989000D03*
X77419500Y46252000D03*
X78219500Y48089000D03*
X78369500Y46889000D03*
X78115000Y49657000D03*
X77988000Y50252000D03*
X77734000Y53340000D03*
X77861000Y52260500D03*
X78051500Y51244500D03*
X77025800Y61084500D03*
X76619500Y59239000D03*
X77179000Y59079500D03*
X78300000Y60639000D03*
X77069500Y63439000D03*
X76869500Y61839000D03*
X78389000Y63601400D03*
X78319500Y61789000D03*
X78051500Y66357500D03*
X78219500Y64657000D03*
X77861000Y67119500D03*
X77734000Y69088000D03*
X77797500Y68072000D03*
X79847000Y21000000D03*
Y21800000D03*
Y22600000D03*
Y23400000D03*
Y25000000D03*
Y25800000D03*
Y27400000D03*
Y28200000D03*
Y29000000D03*
Y29800000D03*
Y30600000D03*
Y31400000D03*
Y32200000D03*
X78700000Y41250000D03*
X80400000Y42100000D03*
X78950000Y42750000D03*
X80319500Y45389000D03*
X79650000Y44750000D03*
X80000000Y43000000D03*
X79100000Y44750000D03*
X80019500Y46589000D03*
X79869500Y47672000D03*
X80219500Y48339000D03*
X79919500Y49089000D03*
X80119500Y49839000D03*
X80269500Y50389000D03*
X80274000Y52260500D03*
X80337500Y53213000D03*
X78686500Y58639000D03*
X80147000Y61087000D03*
X80350000Y60071000D03*
X80310000Y59079500D03*
X79050000Y60450000D03*
X80119500Y62079500D03*
X79069500Y62639000D03*
X79119500Y63589000D03*
X80069500Y64389000D03*
X79069500Y66489000D03*
X80274000Y67119500D03*
Y68135500D03*
X78686500Y70802500D03*
X78869500Y69589000D03*
X79969500Y69639000D03*
X83100000Y41850000D03*
X82252000Y42252000D03*
X81919500Y45252000D03*
X82052000Y43252000D03*
X82252000Y44252000D03*
X82919500Y43689000D03*
X83249700Y47758700D03*
X82252000Y46252000D03*
X81919500Y47252000D03*
X82269500Y49252000D03*
X83056600Y48792000D03*
X81956500Y50252000D03*
X81806500Y51252000D03*
X81869500Y52260500D03*
X82169500Y53252000D03*
X83512500Y58589000D03*
X81798000Y60071000D03*
Y61023500D03*
Y59055000D03*
X83219500Y61589000D03*
X81798000Y62039500D03*
X82069500Y63079500D03*
X81798000Y64071500D03*
X83719500Y62589000D03*
X83119500Y63389000D03*
X82069500Y64789000D03*
X81869500Y66289000D03*
X83068000Y65517000D03*
X83269500Y64489000D03*
X81798000Y67056000D03*
Y68072000D03*
X82052000Y69088000D03*
X81798000Y70040500D03*
X84750000Y42252000D03*
X85000000Y43243500D03*
X84750000Y44259500D03*
X85000000Y45252000D03*
X84096500Y44863900D03*
X84069500Y43739000D03*
X85419500Y47089000D03*
X84750000Y46252000D03*
X84119500Y46689000D03*
X84147500Y49212500D03*
X84338000Y50228500D03*
Y51244500D03*
Y52260500D03*
Y53213000D03*
X84299500Y58559000D03*
X85036500Y60071000D03*
X85100000Y61087000D03*
X84569500Y59539000D03*
Y60589000D03*
X85100000Y64071500D03*
Y63055500D03*
X84084000Y66040000D03*
X84160000Y68079500D03*
X84260000Y69079500D03*
X84360000Y67079500D03*
X84269500Y70089000D03*
X87652000Y45709000D03*
X87712500Y49776000D03*
X87652000Y63806500D03*
X87704500Y66929000D03*
D11*
X63929500Y42252000D03*
X64729500D03*
X63929500Y45252000D03*
X64729500D03*
X63929500Y44252000D03*
X64729500D03*
X63929500Y43252000D03*
X64729500D03*
Y48252000D03*
X63929500Y47252000D03*
X64729500D03*
X63929500Y46252000D03*
X64729500D03*
Y50252000D03*
Y49252000D03*
Y53252000D03*
Y52252000D03*
Y51252000D03*
X63929500Y61079500D03*
X64729500D03*
X63929500Y60079500D03*
X64729500D03*
X63929500Y59079500D03*
X64729500D03*
X63929500Y64079500D03*
X64729500D03*
X63929500Y63079500D03*
X64729500D03*
X63929500Y62079500D03*
X64729500D03*
Y66079500D03*
Y65079500D03*
Y69079500D03*
Y68079500D03*
Y67079500D03*
Y70079500D03*
X65529500Y42252000D03*
Y45252000D03*
Y44252000D03*
Y43252000D03*
Y48252000D03*
Y47252000D03*
Y46252000D03*
Y50252000D03*
Y49252000D03*
Y53252000D03*
Y52252000D03*
Y51252000D03*
Y61079500D03*
Y60079500D03*
Y59079500D03*
Y64079500D03*
Y63079500D03*
Y62079500D03*
Y66079500D03*
Y65079500D03*
Y69079500D03*
Y68079500D03*
Y67079500D03*
Y70079500D03*
X68729500Y42252000D03*
X69529500D03*
X70329500D03*
X68729500Y45252000D03*
X69529500D03*
X70329500D03*
X68729500Y44252000D03*
X69529500D03*
X70329500D03*
X68729500Y43252000D03*
X69529500D03*
X70329500D03*
X68729500Y48252000D03*
X69529500D03*
X68729500Y47252000D03*
X69529500D03*
X70329500D03*
X68729500Y46252000D03*
X69529500D03*
X70329500D03*
X68729500Y50252000D03*
X69529500D03*
X68729500Y49252000D03*
X69529500D03*
X68729500Y53252000D03*
X69529500D03*
X68729500Y52252000D03*
X69529500D03*
X68729500Y51252000D03*
X69529500D03*
X68729500Y61079500D03*
X69529500D03*
X70329500D03*
X68729500Y60079500D03*
X69529500D03*
X70329500D03*
X68729500Y59079500D03*
X69529500D03*
X70329500D03*
X68729500Y64079500D03*
X69529500D03*
X70329500D03*
X68729500Y63079500D03*
X69529500D03*
X70329500D03*
X68729500Y62079500D03*
X69529500D03*
X70329500D03*
X68729500Y66079500D03*
X69529500D03*
X68729500Y65079500D03*
X69529500D03*
X68729500Y69079500D03*
X69529500D03*
X68729500Y68079500D03*
X69529500D03*
X68729500Y67079500D03*
X69529500D03*
X68729500Y70079500D03*
X69529500D03*
X77899500Y42252000D03*
Y45252000D03*
Y44252000D03*
Y43252000D03*
Y47252000D03*
Y46252000D03*
Y61079500D03*
Y60079500D03*
Y59079500D03*
Y64079500D03*
Y63079500D03*
Y62079500D03*
X78699500Y42252000D03*
X79499500D03*
X78699500Y45252000D03*
X79499500D03*
X78699500Y44252000D03*
X79499500D03*
X78699500Y43252000D03*
X79499500D03*
X78699500Y48252000D03*
X79499500D03*
X78699500Y47252000D03*
X79499500D03*
X78699500Y46252000D03*
X79499500D03*
X78699500Y50252000D03*
X79499500D03*
X78699500Y49252000D03*
X79499500D03*
X78699500Y53252000D03*
X79499500D03*
X78699500Y52252000D03*
X79499500D03*
X78699500Y51252000D03*
X79499500D03*
X78699500Y61079500D03*
X79499500D03*
X78699500Y60079500D03*
X79499500D03*
X78699500Y59079500D03*
X79499500D03*
X78699500Y64079500D03*
X79499500D03*
X78699500Y63079500D03*
X79499500D03*
X78699500Y62079500D03*
X79499500D03*
X78699500Y66079500D03*
X79499500D03*
X78699500Y65079500D03*
X79499500D03*
X78699500Y69079500D03*
X79499500D03*
X78699500Y68079500D03*
X79499500D03*
X78699500Y67079500D03*
X79499500D03*
X78699500Y70079500D03*
X79499500D03*
X82699500Y42252000D03*
X83499500D03*
X82699500Y45252000D03*
X83499500D03*
X82699500Y44252000D03*
X83499500D03*
X82699500Y43252000D03*
X83499500D03*
X82699500Y48252000D03*
X83499500D03*
X82699500Y47252000D03*
X83499500D03*
X82699500Y46252000D03*
X83499500D03*
X82699500Y50252000D03*
X83499500D03*
X82699500Y49252000D03*
X83499500D03*
X82699500Y53252000D03*
X83499500D03*
X82699500Y52252000D03*
X83499500D03*
X82699500Y51252000D03*
X83499500D03*
X82699500Y61079500D03*
X83499500D03*
X82699500Y60079500D03*
X83499500D03*
X82699500Y59079500D03*
X83499500D03*
X82699500Y64079500D03*
X83499500D03*
X82699500Y63079500D03*
X83499500D03*
X82699500Y62079500D03*
X83499500D03*
X82699500Y66079500D03*
X83499500D03*
X82699500Y65079500D03*
X83499500D03*
X82699500Y69079500D03*
X83499500D03*
X82699500Y68079500D03*
X83499500D03*
X82699500Y67079500D03*
X83499500D03*
X82699500Y70079500D03*
X83499500D03*
X84299500Y42252000D03*
Y45252000D03*
Y44252000D03*
Y43252000D03*
Y47252000D03*
Y46252000D03*
Y61079500D03*
Y60079500D03*
Y59079500D03*
Y64079500D03*
Y63079500D03*
Y62079500D03*
D12*
X8347000Y48279000D03*
Y50279000D03*
Y49279000D03*
Y53279000D03*
Y52279000D03*
Y51279000D03*
Y55279000D03*
Y54279000D03*
X9347000Y48279000D03*
X10347000D03*
X11347000D03*
X9347000Y50279000D03*
X10347000D03*
X11347000D03*
X9347000Y49279000D03*
X10347000D03*
X11347000D03*
X9347000Y53279000D03*
X10347000D03*
X11347000D03*
X9347000Y52279000D03*
X10347000D03*
X11347000D03*
X9347000Y51279000D03*
X10347000D03*
X11347000D03*
X9347000Y55279000D03*
X10347000D03*
X11347000D03*
X9347000Y54279000D03*
X10347000D03*
X11347000D03*
X12347000Y48279000D03*
X13347000D03*
X14347000D03*
X12347000Y50279000D03*
X13347000D03*
X14347000D03*
X12347000Y49279000D03*
X13347000D03*
X14347000D03*
X12347000Y53279000D03*
X13347000D03*
X14347000D03*
X12347000Y52279000D03*
X13347000D03*
X14347000D03*
X12347000Y51279000D03*
X13347000D03*
X14347000D03*
X12347000Y55279000D03*
X13347000D03*
X14347000D03*
X12347000Y54279000D03*
X13347000D03*
X14347000D03*
X15347000Y48279000D03*
Y50279000D03*
Y49279000D03*
Y53279000D03*
Y52279000D03*
Y51279000D03*
Y55279000D03*
Y54279000D03*
X33797000Y20429000D03*
Y21429000D03*
X34797000Y20429000D03*
Y21429000D03*
X35797000Y20429000D03*
Y21429000D03*
X33797000Y22429000D03*
Y23429000D03*
X34797000Y22429000D03*
Y23429000D03*
X35797000Y22429000D03*
Y23429000D03*
X33797000Y24429000D03*
Y25429000D03*
Y26429000D03*
X34797000Y24429000D03*
Y25429000D03*
Y26429000D03*
X35797000Y24429000D03*
Y25429000D03*
Y26429000D03*
X33797000Y27429000D03*
Y28429000D03*
Y29429000D03*
X34797000Y27429000D03*
Y28429000D03*
Y29429000D03*
X35797000Y27429000D03*
Y28429000D03*
Y29429000D03*
X33797000Y30429000D03*
Y31429000D03*
X34797000Y30429000D03*
Y31429000D03*
X35797000Y30429000D03*
Y31429000D03*
X33797000Y32429000D03*
Y33429000D03*
Y34429000D03*
X34797000Y32429000D03*
Y33429000D03*
Y34429000D03*
X35797000Y32429000D03*
Y33429000D03*
Y34429000D03*
X33797000Y35429000D03*
X34797000D03*
X35797000D03*
X36797000Y20429000D03*
Y21429000D03*
X37797000Y20429000D03*
Y21429000D03*
X36797000Y22429000D03*
Y23429000D03*
X37797000Y22429000D03*
Y23429000D03*
X36797000Y24429000D03*
Y25429000D03*
Y26429000D03*
X37797000Y24429000D03*
Y25429000D03*
Y26429000D03*
X36797000Y27429000D03*
Y28429000D03*
Y29429000D03*
X37797000Y27429000D03*
Y28429000D03*
Y29429000D03*
X36797000Y30429000D03*
Y31429000D03*
X37797000Y30429000D03*
Y31429000D03*
X36797000Y32429000D03*
Y33429000D03*
Y34429000D03*
X37797000Y32429000D03*
Y33429000D03*
Y34429000D03*
X36797000Y35429000D03*
X37797000D03*
X38797000Y20429000D03*
Y21429000D03*
X39797000Y20429000D03*
Y21429000D03*
X40797000Y20429000D03*
Y21429000D03*
X38797000Y22429000D03*
Y23429000D03*
X39797000Y22429000D03*
Y23429000D03*
X40797000Y22429000D03*
Y23429000D03*
X38797000Y24429000D03*
Y25429000D03*
Y26429000D03*
X39797000Y24429000D03*
Y25429000D03*
Y26429000D03*
X40797000Y24429000D03*
Y25429000D03*
Y26429000D03*
X38797000Y27429000D03*
Y28429000D03*
Y29429000D03*
X39797000Y27429000D03*
Y28429000D03*
Y29429000D03*
X40797000Y27429000D03*
Y28429000D03*
Y29429000D03*
X38797000Y30429000D03*
Y31429000D03*
X39797000Y30429000D03*
Y31429000D03*
X40797000Y30429000D03*
Y31429000D03*
X38797000Y32429000D03*
Y33429000D03*
Y34429000D03*
X39797000Y32429000D03*
Y33429000D03*
Y34429000D03*
X40797000Y32429000D03*
Y33429000D03*
Y34429000D03*
X38797000Y35429000D03*
X39797000D03*
X40797000D03*
X41797000Y20429000D03*
Y21429000D03*
X42797000Y20429000D03*
Y21429000D03*
X43797000Y20429000D03*
Y21429000D03*
X41797000Y22429000D03*
Y23429000D03*
X42797000Y22429000D03*
Y23429000D03*
X43797000Y22429000D03*
Y23429000D03*
X41797000Y24429000D03*
Y25429000D03*
Y26429000D03*
X42797000Y24429000D03*
Y25429000D03*
Y26429000D03*
X43797000Y24429000D03*
Y25429000D03*
Y26429000D03*
X41797000Y27429000D03*
Y28429000D03*
Y29429000D03*
X42797000Y27429000D03*
Y28429000D03*
Y29429000D03*
X43797000Y27429000D03*
Y28429000D03*
Y29429000D03*
X41797000Y30429000D03*
Y31429000D03*
X42797000Y30429000D03*
Y31429000D03*
X43797000Y30429000D03*
Y31429000D03*
X41797000Y32429000D03*
Y33429000D03*
Y34429000D03*
X42797000Y32429000D03*
Y33429000D03*
Y34429000D03*
X43797000Y32429000D03*
Y33429000D03*
Y34429000D03*
X41797000Y35429000D03*
X42797000D03*
X43797000D03*
X44797000Y20429000D03*
Y21429000D03*
X45797000Y20429000D03*
Y21429000D03*
X44797000Y22429000D03*
Y23429000D03*
X45797000Y22429000D03*
Y23429000D03*
X44797000Y24429000D03*
Y25429000D03*
Y26429000D03*
X45797000Y24429000D03*
Y25429000D03*
Y26429000D03*
X44797000Y27429000D03*
Y28429000D03*
Y29429000D03*
X45797000Y27429000D03*
Y28429000D03*
Y29429000D03*
X44797000Y30429000D03*
Y31429000D03*
X45797000Y30429000D03*
Y31429000D03*
X44797000Y32429000D03*
Y33429000D03*
Y34429000D03*
X45797000Y32429000D03*
Y33429000D03*
Y34429000D03*
X44797000Y35429000D03*
X45797000D03*
X46797000Y20429000D03*
Y21429000D03*
X47797000Y20429000D03*
Y21429000D03*
X48797000Y20429000D03*
Y21429000D03*
X46797000Y22429000D03*
Y23429000D03*
X47797000Y22429000D03*
Y23429000D03*
X48797000Y22429000D03*
Y23429000D03*
X46797000Y24429000D03*
Y25429000D03*
Y26429000D03*
X47797000Y24429000D03*
Y25429000D03*
Y26429000D03*
X48797000Y24429000D03*
Y25429000D03*
Y26429000D03*
X46797000Y27429000D03*
Y28429000D03*
Y29429000D03*
X47797000Y27429000D03*
Y28429000D03*
Y29429000D03*
X48797000Y27429000D03*
Y28429000D03*
Y29429000D03*
X46797000Y30429000D03*
Y31429000D03*
X47797000Y30429000D03*
Y31429000D03*
X48797000Y30429000D03*
Y31429000D03*
X46797000Y32429000D03*
Y33429000D03*
Y34429000D03*
X47797000Y32429000D03*
Y33429000D03*
Y34429000D03*
X48797000Y32429000D03*
Y33429000D03*
Y34429000D03*
X46797000Y35429000D03*
X47797000D03*
X48797000D03*
D13*
X6347000Y45279000D03*
Y58279000D03*
X17347000D03*
X22542000Y42407000D03*
X32797000Y19429000D03*
Y36429000D03*
X49797000Y19429000D03*
X49542000Y42407000D03*
Y69407000D03*
X62129500Y41752000D03*
Y53752000D03*
Y58579500D03*
Y70579500D03*
X72129500Y53752000D03*
Y70579500D03*
X76099500Y41752000D03*
Y53752000D03*
Y58579500D03*
Y70579500D03*
X86099500Y53752000D03*
Y70579500D03*
D14*
X25247000Y43842000D03*
X23977000D03*
X25247000Y45112000D03*
X23977000D03*
X25247000Y46382000D03*
X23977000D03*
X25247000Y47652000D03*
X23977000D03*
X25247000Y48922000D03*
X23977000D03*
X25247000Y50192000D03*
X23977000D03*
X25247000Y51462000D03*
X23977000D03*
X25247000Y52732000D03*
X23977000D03*
X25247000Y54002000D03*
X23977000D03*
X25247000Y55272000D03*
X23977000D03*
X25247000Y56542000D03*
X23977000D03*
X25247000Y57812000D03*
X23977000D03*
X25247000Y59082000D03*
X23977000D03*
X25247000Y60352000D03*
X23977000D03*
X25247000Y61622000D03*
X23977000D03*
X25247000Y62892000D03*
X23977000D03*
X25247000Y64162000D03*
X23977000D03*
X25247000Y65432000D03*
X23977000D03*
X25247000Y66702000D03*
X23977000D03*
X25247000Y67972000D03*
X23977000D03*
X27787000Y43842000D03*
X26517000D03*
X27787000Y45112000D03*
X26517000D03*
X27787000Y46382000D03*
X26517000D03*
X27787000Y47652000D03*
X26517000D03*
X27787000Y48922000D03*
X26517000D03*
X27787000Y50192000D03*
X26517000D03*
X27787000Y51462000D03*
X26517000D03*
X27787000Y52732000D03*
X26517000D03*
X27787000Y54002000D03*
X26517000D03*
X27787000Y55272000D03*
X26517000D03*
X27787000Y56542000D03*
X26517000D03*
X27787000Y57812000D03*
X26517000D03*
X27787000Y59082000D03*
X26517000D03*
X27787000Y60352000D03*
X26517000D03*
X27787000Y61622000D03*
X26517000D03*
X27787000Y62892000D03*
X26517000D03*
X27787000Y64162000D03*
X26517000D03*
X27787000Y65432000D03*
X26517000D03*
X27787000Y66702000D03*
X26517000D03*
X27787000Y67972000D03*
X26517000D03*
X30327000Y43842000D03*
X29057000D03*
X30327000Y45112000D03*
X29057000D03*
X30327000Y46382000D03*
X29057000D03*
X30327000Y47652000D03*
X29057000D03*
X30327000Y64162000D03*
X29057000D03*
X30327000Y65432000D03*
X29057000D03*
X30327000Y66702000D03*
X29057000D03*
X30327000Y67972000D03*
X29057000D03*
X32867000Y43842000D03*
X31597000D03*
X32867000Y45112000D03*
X31597000D03*
X32867000Y46382000D03*
X31597000D03*
X32867000Y47652000D03*
X31597000D03*
X32867000Y64162000D03*
X31597000D03*
X32867000Y65432000D03*
X31597000D03*
X32867000Y66702000D03*
X31597000D03*
X32867000Y67972000D03*
X31597000D03*
X35407000Y43842000D03*
X34137000D03*
X35407000Y45112000D03*
X34137000D03*
X35407000Y46382000D03*
X34137000D03*
X35407000Y47652000D03*
X34137000D03*
X35407000Y54002000D03*
X34137000D03*
X35407000Y55272000D03*
X34137000D03*
X35407000Y56542000D03*
X34137000D03*
X35407000Y57812000D03*
X34137000D03*
X35407000Y64162000D03*
X34137000D03*
X35407000Y65432000D03*
X34137000D03*
X35407000Y66702000D03*
X34137000D03*
X35407000Y67972000D03*
X34137000D03*
X37947000Y43842000D03*
X36677000D03*
X37947000Y45112000D03*
X36677000D03*
X37947000Y46382000D03*
X36677000D03*
X37947000Y47652000D03*
X36677000D03*
X37947000Y54002000D03*
X36677000D03*
X37947000Y55272000D03*
X36677000D03*
X37947000Y56542000D03*
X36677000D03*
X37947000Y57812000D03*
X36677000D03*
X37947000Y64162000D03*
X36677000D03*
X37947000Y65432000D03*
X36677000D03*
X37947000Y66702000D03*
X36677000D03*
X37947000Y67972000D03*
X36677000D03*
X40487000Y43842000D03*
X39217000D03*
X40487000Y45112000D03*
X39217000D03*
X40487000Y46382000D03*
X39217000D03*
X40487000Y47652000D03*
X39217000D03*
X40487000Y64162000D03*
X39217000D03*
X40487000Y65432000D03*
X39217000D03*
X40487000Y66702000D03*
X39217000D03*
X40487000Y67972000D03*
X39217000D03*
X43027000Y43842000D03*
X41757000D03*
X43027000Y45112000D03*
X41757000D03*
X43027000Y46382000D03*
X41757000D03*
X43027000Y47652000D03*
X41757000D03*
X43027000Y64162000D03*
X41757000D03*
X43027000Y65432000D03*
X41757000D03*
X43027000Y66702000D03*
X41757000D03*
X43027000Y67972000D03*
X41757000D03*
X45567000Y43842000D03*
X44297000D03*
X45567000Y45112000D03*
X44297000D03*
X45567000Y46382000D03*
X44297000D03*
X45567000Y47652000D03*
X44297000D03*
X45567000Y48922000D03*
X44297000D03*
X45567000Y50192000D03*
X44297000D03*
X45567000Y51462000D03*
X44297000D03*
X45567000Y52732000D03*
X44297000D03*
X45567000Y54002000D03*
X44297000D03*
X45567000Y55272000D03*
X44297000D03*
X45567000Y56542000D03*
X44297000D03*
X45567000Y57812000D03*
X44297000D03*
X45567000Y59082000D03*
X44297000D03*
X45567000Y60352000D03*
X44297000D03*
X45567000Y61622000D03*
X44297000D03*
X45567000Y62892000D03*
X44297000D03*
X45567000Y64162000D03*
X44297000D03*
X45567000Y65432000D03*
X44297000D03*
X45567000Y66702000D03*
X44297000D03*
X45567000Y67972000D03*
X44297000D03*
X48107000Y43842000D03*
X46837000D03*
X48107000Y45112000D03*
X46837000D03*
X48107000Y46382000D03*
X46837000D03*
X48107000Y47652000D03*
X46837000D03*
X48107000Y48922000D03*
X46837000D03*
X48107000Y50192000D03*
X46837000D03*
X48107000Y51462000D03*
X46837000D03*
X48107000Y52732000D03*
X46837000D03*
X48107000Y54002000D03*
X46837000D03*
X48107000Y55272000D03*
X46837000D03*
X48107000Y56542000D03*
X46837000D03*
X48107000Y57812000D03*
X46837000D03*
X48107000Y59082000D03*
X46837000D03*
X48107000Y60352000D03*
X46837000D03*
X48107000Y61622000D03*
X46837000D03*
X48107000Y62892000D03*
X46837000D03*
X48107000Y64162000D03*
X46837000D03*
X48107000Y65432000D03*
X46837000D03*
X48107000Y66702000D03*
X46837000D03*
X48107000Y67972000D03*
X46837000D03*
D15*
X5097000Y29179000D03*
Y28029000D03*
Y30279000D03*
Y32129000D03*
X5102000Y33961500D03*
Y35866500D03*
Y37771500D03*
Y39676500D03*
X5047000Y41079000D03*
X5297000Y46829000D03*
X6377500Y57290000D03*
X8497000Y17429000D03*
Y20379000D03*
X8741000Y24421900D03*
X8781200Y28384200D03*
X8947000Y32600000D03*
X9347000Y57240000D03*
X8697000Y69229000D03*
X8500000Y71979000D03*
X8147000Y75879000D03*
X9647000Y36579000D03*
X11597000Y70829000D03*
X12449000Y6600000D03*
X13299000Y11927000D03*
X14547000Y19629000D03*
X13327000Y28299000D03*
X13421900Y30229000D03*
X13997000Y34479000D03*
X12197000Y36679000D03*
X12722000Y58579000D03*
X14309500Y58616500D03*
X12722000Y59579000D03*
X12798100Y66219500D03*
X13616500Y75109500D03*
X13147000Y78229000D03*
X16849500Y4300500D03*
X17133700Y50471400D03*
X16997000Y54879000D03*
X14847000Y69679000D03*
X15579500Y68729000D03*
X15447000Y71917000D03*
X16250000Y75929000D03*
X15579500Y79879000D03*
X16750000Y78879000D03*
X15579500Y83329000D03*
X19338000Y8039000D03*
X19645000Y11927000D03*
X18747000Y16679000D03*
X19368500Y18185200D03*
X18147000Y30179000D03*
X18347000Y47929000D03*
X18497000Y59879000D03*
X18542000Y64124000D03*
X18754500Y71929000D03*
X19072000Y73014000D03*
X18754500Y83379000D03*
X20500000Y6850000D03*
Y11350000D03*
X20772000Y13479000D03*
X22447000Y35229000D03*
X22047000Y57229000D03*
X21929500Y74919000D03*
X20977000Y73014000D03*
X20307700Y79865500D03*
X20342000Y83379000D03*
X24197000Y8929000D03*
X24347000Y18229000D03*
X22947000Y52829000D03*
X24600000Y59700000D03*
Y62250000D03*
X23350000D03*
X23517000Y71909000D03*
X23997000Y73429000D03*
X22882000Y73014000D03*
X24238600Y79186200D03*
X23517000Y83429000D03*
X25547000Y18229000D03*
X25960100Y25787800D03*
X27934000Y39763100D03*
X25866300Y59733700D03*
X27247000Y75779000D03*
X27962000Y80129000D03*
X28914500Y5311500D03*
X29150000Y17700000D03*
X28597000Y38829000D03*
X28279500Y72029000D03*
X28697000Y82779000D03*
X30547000D03*
X30819500Y5279000D03*
X32497000Y17729000D03*
X31497000Y36879000D03*
X32847000Y38079000D03*
X33040000Y55272000D03*
X33070000Y54002000D03*
X33060000Y56542000D03*
X33147000Y57812000D03*
X33247000Y73579000D03*
X31447000Y75779000D03*
X31397000Y80429000D03*
X32347000Y82779000D03*
X35583500Y16249000D03*
X34137000Y52589000D03*
X35407000Y52639000D03*
X34137000Y58969000D03*
X35407000Y58939000D03*
X36047000Y72029000D03*
X36122000Y73331500D03*
X35147000Y78929000D03*
X35997000Y82779000D03*
X34147000D03*
X36468000Y5450000D03*
X36647000Y7579000D03*
X36897000Y12079000D03*
X36677000Y52699000D03*
X37947000Y58979000D03*
X36677000Y58959000D03*
X37147000Y71979000D03*
X38535000Y81891000D03*
X37797000Y82779000D03*
X39010000Y56542000D03*
X39020000Y54002000D03*
X39040000Y55272000D03*
X39497000Y73579000D03*
X41247000Y79079000D03*
X41397000Y82779000D03*
X39597000D03*
X41997000Y71729000D03*
X42597000Y73379000D03*
X45967000Y17729000D03*
X45447000Y37629000D03*
X45424500Y39875500D03*
X44397000Y39679000D03*
X49400000Y76350000D03*
X48009000Y81741000D03*
X48747000Y82929000D03*
X52050000Y5482000D03*
X50197000Y4879000D03*
X51597000Y17129000D03*
X51911900Y27157400D03*
X49650000Y28350000D03*
X50377500Y34450000D03*
X49552000Y74284000D03*
X51147000Y79079000D03*
X51447000Y82629000D03*
X53933500Y16765500D03*
X52847000Y30904000D03*
X52647000Y43279000D03*
X53481500Y71594500D03*
X53479000Y82629000D03*
X54495000D03*
X52463000D03*
X55147000Y5479000D03*
X57453000Y26279000D03*
X55247000Y74284000D03*
X55511000Y82629000D03*
X56527000D03*
X59597000Y5129000D03*
X59947000Y22879000D03*
X58722000Y31104000D03*
X58797000Y33379000D03*
X58197000Y36779000D03*
X57547000Y75179000D03*
X57497000Y74029000D03*
X58696000Y82378000D03*
X62647000Y37979000D03*
X60213000Y73200000D03*
X60447000Y81879000D03*
X60347000Y80879000D03*
X63697000Y5079000D03*
X63447000Y17829000D03*
X64747000Y37979000D03*
X66550000Y5132000D03*
X68047000Y20824000D03*
X65913000Y73213000D03*
X66947000Y82629000D03*
X68097000Y80979000D03*
X69597000Y36079000D03*
X70649000Y55177000D03*
X69872000Y79554000D03*
X69197000Y80979000D03*
X73025000Y6847000D03*
X71140000Y21473200D03*
X71197000Y38429000D03*
X71584500Y73966500D03*
X71297000Y75629000D03*
X71547000Y82529000D03*
X72563000D03*
X74358000Y9768000D03*
X75097000Y32029000D03*
X74147000Y36629000D03*
X75777500Y37279000D03*
X75747000Y55177000D03*
X75611000Y82529000D03*
X74595000D03*
X73579000D03*
X77197000Y5079000D03*
X77947000Y18229000D03*
X76700000Y16629000D03*
X76426000Y21850000D03*
X76449100Y20789600D03*
X76497000Y23000000D03*
X77397000Y34979000D03*
X76197000Y35829000D03*
X78397000Y38406500D03*
X78497000Y55177000D03*
X77734000Y70612000D03*
X78659000Y82529000D03*
X77643000D03*
X76627000D03*
X79079500Y9661500D03*
X80889500Y12371500D03*
X79547000Y19079000D03*
X79876000Y20200000D03*
X79297000Y35779000D03*
X81047000Y55177000D03*
X81147000Y76879000D03*
X80297000Y76479000D03*
X82897000Y16929000D03*
Y21400000D03*
X81647000Y19483500D03*
X82797000Y23029000D03*
X81567500Y26849500D03*
X82597000Y30479000D03*
X82219500Y54179000D03*
X81747000Y72129000D03*
X85597000Y10729000D03*
X85927000Y26659000D03*
X85897000Y25079000D03*
X85952000Y29834000D03*
X85947000Y28246500D03*
X84247000Y27629000D03*
X85954500Y31421500D03*
X85897000Y36579000D03*
X86047000Y38129000D03*
X86049000Y55177000D03*
X89277000Y13959000D03*
X89329500Y21896500D03*
X89417000Y26659000D03*
X89303000Y36635000D03*
X88021000Y42579000D03*
X87797000Y48879000D03*
X87971000Y52850000D03*
X86847000Y61305000D03*
X87697000Y62879000D03*
X87767000Y65278000D03*
X86860000Y69088000D03*
X87547000Y72579000D03*
X87447000Y78779000D03*
X89489500Y31421500D03*
X91247000Y44788400D03*
X91410000Y47752000D03*
X90003000Y52951000D03*
X90051000Y59750000D03*
X91310000Y65278000D03*
X90053000Y70612000D03*
D16*
X5102000Y12689000D03*
X7007000Y13324000D03*
Y15546500D03*
X5102000Y14594000D03*
Y16499000D03*
Y18721500D03*
X7007000Y17451500D03*
Y21579000D03*
Y19674000D03*
X5102000Y20626500D03*
X7007000Y23484000D03*
X5102000Y22531500D03*
Y24436500D03*
X5097000Y26229000D03*
X15847000Y41729000D03*
X20342000Y39676500D03*
X19747000Y41729000D03*
X17847000D03*
X19807000Y64701500D03*
Y66606500D03*
Y68511500D03*
Y70416500D03*
X22247000Y39676500D03*
X24152000D03*
X27962000D03*
X26057000D03*
X33558500Y14344000D03*
X31527500Y16249000D03*
X33555500D03*
X33042000Y39676500D03*
X35586500Y14344000D03*
X34947000Y39676500D03*
X37487000Y16181500D03*
X36852000Y39676500D03*
X38757000D03*
X39392000Y16181500D03*
X40662000Y39676500D03*
X43519500Y16181500D03*
X42567000Y39676500D03*
X43202000Y72379000D03*
X45424500Y16181500D03*
X46497000Y39679000D03*
X49234500Y16181500D03*
X47329500D03*
X48282000Y39676500D03*
Y72379000D03*
X50822000Y16181500D03*
X50187000Y39676500D03*
X53047000Y18229000D03*
Y20029000D03*
X53044500Y21896500D03*
Y23801500D03*
X52997000Y28629000D03*
X53097000Y35279000D03*
Y33429000D03*
Y37129000D03*
D17*
X5000000Y5000000D03*
Y82500000D03*
X90000000Y5000000D03*
Y82500000D03*
D18*
X64300000Y18200000D03*
X64700000D03*
Y33800000D03*
X64300000D03*
X65100000Y18200000D03*
X65500000D03*
X65900000D03*
X66300000D03*
X66700000D03*
X67100000D03*
X67500000D03*
Y33800000D03*
X67100000D03*
X66700000D03*
X66300000D03*
X65900000D03*
X65500000D03*
X65100000D03*
X67900000Y18200000D03*
X68300000D03*
X68700000D03*
X69100000D03*
X69500000D03*
X69900000D03*
X70300000D03*
Y33800000D03*
X69900000D03*
X69500000D03*
X69100000D03*
X68700000D03*
X68300000D03*
X67900000D03*
X70700000Y18200000D03*
X71100000D03*
X71500000D03*
X71900000D03*
X72300000D03*
X72700000D03*
Y33800000D03*
X72300000D03*
X71900000D03*
X71500000D03*
X71100000D03*
X70700000D03*
X73100000Y18200000D03*
X73500000D03*
X73900000D03*
X74300000D03*
X74700000D03*
X75100000D03*
X75500000D03*
Y33800000D03*
X75100000D03*
X74700000D03*
X74300000D03*
X73900000D03*
X73500000D03*
X73100000D03*
X75900000Y18200000D03*
X76300000D03*
X76700000D03*
Y33800000D03*
X76300000D03*
X75900000D03*
D19*
X16750000Y77400000D03*
X16250000D03*
X15750000D03*
X15250000D03*
X19250000D03*
X18750000D03*
X18250000D03*
X17750000D03*
X17250000D03*
X22250000D03*
X21750000D03*
X21250000D03*
X20750000D03*
X20250000D03*
X19750000D03*
X25000000Y10100000D03*
X24750000Y77400000D03*
X24250000D03*
X23750000D03*
X23250000D03*
X22750000D03*
X26000000Y10100000D03*
X27000000D03*
X27250000Y77400000D03*
X26750000D03*
X26250000D03*
X25750000D03*
X25250000D03*
X28000000Y10100000D03*
X29000000D03*
X30000000D03*
X30250000Y77400000D03*
X29750000D03*
X29250000D03*
X28750000D03*
X28250000D03*
X27750000D03*
X31000000Y10100000D03*
X32000000D03*
X32750000Y77400000D03*
X32250000D03*
X31750000D03*
X31250000D03*
X30750000D03*
X35250000D03*
X34750000D03*
X34250000D03*
X33750000D03*
X33250000D03*
X38250000D03*
X37750000D03*
X37250000D03*
X36750000D03*
X36250000D03*
X35750000D03*
X39750000D03*
X39250000D03*
X38750000D03*
X50050000Y10100000D03*
X50550000D03*
X51050000D03*
X51550000D03*
X52050000D03*
X52550000D03*
X53050000D03*
X53550000D03*
X54050000D03*
X54550000D03*
X55050000D03*
X55550000D03*
X56050000D03*
X56550000D03*
X57050000D03*
X57550000D03*
X58050000D03*
X58550000D03*
X59050000D03*
X59550000D03*
X60050000D03*
X60550000D03*
X61050000D03*
X61550000D03*
X62050000D03*
X62550000D03*
X63050000D03*
X63550000D03*
X64050000D03*
X64550000D03*
X65050000D03*
X65550000D03*
X66050000D03*
X66550000D03*
X67050000D03*
X67550000D03*
X68050000D03*
X68550000D03*
X69050000D03*
X69550000D03*
D20*
X13532000Y15229000D03*
X14182000D03*
Y36819000D03*
X13532000D03*
X14832000Y15229000D03*
X15482000D03*
X16132000D03*
X16782000D03*
Y36819000D03*
X16132000D03*
X15482000D03*
X14832000D03*
X17432000Y15229000D03*
X18082000D03*
X18732000D03*
X19382000D03*
Y36819000D03*
X18732000D03*
X18082000D03*
X17432000D03*
X20032000Y15229000D03*
X20682000D03*
X21332000D03*
X21982000D03*
Y36819000D03*
X21332000D03*
X20682000D03*
X20032000D03*
X22632000Y15229000D03*
X23282000D03*
X23932000D03*
X24582000D03*
Y36819000D03*
X23932000D03*
X23282000D03*
X22632000D03*
X25232000Y15229000D03*
X25882000D03*
Y36819000D03*
X25232000D03*
D21*
X52862500Y46740000D03*
Y47240000D03*
X51912500D03*
Y46740000D03*
X52862500Y49280000D03*
Y49780000D03*
X51912500D03*
Y49280000D03*
X52862500Y52137500D03*
Y52637500D03*
X51912500D03*
Y52137500D03*
X52862500Y54677500D03*
Y55177500D03*
X51912500D03*
Y54677500D03*
X52862500Y57217500D03*
Y57717500D03*
X51912500D03*
Y57217500D03*
X52862500Y63567500D03*
Y64067500D03*
X51912500D03*
Y63567500D03*
X52862500Y66107500D03*
Y66607500D03*
X51912500D03*
Y66107500D03*
X52862500Y68647500D03*
Y69147500D03*
X51912500D03*
Y68647500D03*
D22*
X52862500Y46190000D03*
Y47790000D03*
X51912500D03*
Y46190000D03*
X52862500Y48730000D03*
Y50330000D03*
X51912500D03*
Y48730000D03*
X52862500Y51587500D03*
Y53187500D03*
X51912500D03*
Y51587500D03*
X52862500Y54127500D03*
Y55727500D03*
X51912500D03*
Y54127500D03*
X52862500Y56667500D03*
Y58267500D03*
X51912500D03*
Y56667500D03*
X52862500Y63017500D03*
X51912500D03*
X52862500Y64617500D03*
X51912500D03*
X52862500Y65557500D03*
X51912500D03*
X52862500Y68097500D03*
X51912500D03*
X52862500Y67157500D03*
X51912500D03*
X52862500Y69697500D03*
X51912500D03*
D23*
X8404000Y29516500D03*
X6880000D03*
X8721500Y36501500D03*
X7197500D03*
X29740000Y39676500D03*
X31264000D03*
X44980000Y72379000D03*
X46504000D03*
X46539000Y81151500D03*
X45015000D03*
X51943000Y60007500D03*
Y61595000D03*
X53467000Y60007500D03*
Y61595000D03*
X72602500Y38406500D03*
X74126500D03*
X75777500D03*
X77301500D03*
X82762500D03*
X84286500D03*
X88783000Y44789000D03*
Y46440000D03*
X88733000Y49776000D03*
Y51427000D03*
X88783000Y63627000D03*
Y61976000D03*
Y66929000D03*
Y68580000D03*
X90307000Y44789000D03*
Y46440000D03*
X90257000Y49776000D03*
Y51427000D03*
X90307000Y63627000D03*
Y61976000D03*
Y66929000D03*
Y68580000D03*
D24*
X14309500Y5767500D03*
Y11355500D03*
X16849500Y5767500D03*
X15579500D03*
Y11355500D03*
X16849500D03*
X18119500Y5767500D03*
Y11355500D03*
D25*
X8747000Y23491000D03*
Y21967000D03*
X11452000Y10657000D03*
Y12181000D03*
X41697000Y13451000D03*
Y11927000D03*
X43284500D03*
Y13451000D03*
X49397000Y77317000D03*
Y80217000D03*
Y78841000D03*
Y81741000D03*
X53044500Y25579500D03*
Y27103500D03*
X82889500Y17959500D03*
Y19483500D03*
Y26849500D03*
Y28373500D03*
D26*
X31835500Y73331500D03*
X34883500D03*
X38185500D03*
X41233500D03*
X63268000Y80951500D03*
X66316000D03*
X82318000Y79364000D03*
X85366000D03*
D27*
X7642000Y31675500D03*
Y33707500D03*
D28*
X44994500Y75754000D03*
Y78294000D03*
X47194500Y75754000D03*
Y78294000D03*
X57537000Y22214000D03*
X55337000D03*
X57537000Y24754000D03*
X55337000D03*
D29*
X11833000Y18549000D03*
Y17899000D03*
Y17249000D03*
Y16599000D03*
Y21149000D03*
Y20499000D03*
Y19849000D03*
Y19199000D03*
Y23749000D03*
Y23099000D03*
Y22449000D03*
Y21799000D03*
Y26349000D03*
Y25699000D03*
Y25049000D03*
Y24399000D03*
Y28949000D03*
Y28299000D03*
Y27649000D03*
Y26999000D03*
Y32199000D03*
Y31549000D03*
Y30899000D03*
Y30249000D03*
Y29599000D03*
Y34799000D03*
Y34149000D03*
Y33499000D03*
Y32849000D03*
Y35449000D03*
X27581000Y16599000D03*
Y17249000D03*
Y17899000D03*
Y18549000D03*
Y19199000D03*
Y19849000D03*
Y20499000D03*
Y21149000D03*
Y21799000D03*
Y22449000D03*
Y23099000D03*
Y23749000D03*
Y24399000D03*
Y25049000D03*
Y25699000D03*
Y26349000D03*
Y26999000D03*
Y27649000D03*
Y28299000D03*
Y28949000D03*
Y29599000D03*
Y30249000D03*
Y30899000D03*
Y31549000D03*
Y32199000D03*
Y32849000D03*
Y33499000D03*
Y34149000D03*
Y34799000D03*
Y35449000D03*
D30*
X62700000Y21400000D03*
Y21000000D03*
Y20600000D03*
Y20200000D03*
Y19800000D03*
Y23800000D03*
Y23400000D03*
Y23000000D03*
Y22600000D03*
Y22200000D03*
Y21800000D03*
Y26600000D03*
Y26200000D03*
Y25800000D03*
Y25400000D03*
Y25000000D03*
Y24600000D03*
Y24200000D03*
Y29400000D03*
Y29000000D03*
Y28600000D03*
Y28200000D03*
Y27800000D03*
Y27400000D03*
Y27000000D03*
Y31800000D03*
Y31400000D03*
Y31000000D03*
Y30600000D03*
Y30200000D03*
Y29800000D03*
Y32200000D03*
X78300000Y19800000D03*
Y20200000D03*
Y20600000D03*
Y21000000D03*
Y21400000D03*
Y21800000D03*
Y22200000D03*
Y22600000D03*
Y23000000D03*
Y23400000D03*
Y23800000D03*
Y24200000D03*
Y24600000D03*
Y25000000D03*
Y25400000D03*
Y25800000D03*
Y26200000D03*
Y26600000D03*
Y27000000D03*
Y27400000D03*
Y27800000D03*
Y28200000D03*
Y28600000D03*
Y29000000D03*
Y29400000D03*
Y29800000D03*
Y30200000D03*
Y30600000D03*
Y31000000D03*
Y31400000D03*
Y31800000D03*
Y32200000D03*
D31*
X6400000Y64876000D03*
Y67924000D03*
Y70376000D03*
Y73424000D03*
X9900000Y64876000D03*
Y67924000D03*
Y70376000D03*
Y73424000D03*
X13297000Y64905000D03*
Y67953000D03*
Y70405000D03*
Y73453000D03*
D32*
X13350000Y80700000D03*
X22550000Y6800000D03*
X34450000D03*
X41650000Y80700000D03*
X48150000Y6800000D03*
X71450000D03*
D33*
X53616000Y78411500D03*
X59458000D03*
X72983500Y78729000D03*
X78825500D03*
D34*
X38839500Y5450000D03*
Y8498000D03*
Y10530000D03*
Y13578000D03*
X42649500Y7037500D03*
Y10085500D03*
X64397000Y75255000D03*
Y78303000D03*
X68247000Y75255000D03*
Y78303000D03*
X83207000Y74030000D03*
Y77078000D03*
X87652000Y74030000D03*
Y77078000D03*
D35*
X4000000Y72500000D03*
X43000000Y4000000D03*
X91000000Y72500000D03*
D36*
X9000000Y14900000D03*
D37*
Y35100000D03*
M02*