G04 Gerber PCB Fabrication Data in Gerber – Example 2, created by Karel Tavernier, Filip Vermeire and Thomas Weyn*
G04 Ucamco copyright*
%TF.GenerationSoftware,Ucamco,UcamX,1.1.0-1400509*%
%TF.CreationDate,2014-07-14T00:00:00+01:00*%
%FSLAX26Y26*%
%MOMM*%
%TF.FileFunction,Soldermask,Bot*%
%TF.FilePolarity,Negative*%
%TF.Part,Single*%
%TF.SameCoordinates*%
%TA.AperFunction,Material*%
%ADD10C,0.40000*%
%ADD12C,0.75000*%
%ADD13C,0.80000*%
%ADD14C,6.10000*%
%ADD15R,0.37000X0.90000*%
%ADD16R,0.50000X1.70000*%
%ADD17R,0.60000X0.40000*%
%ADD18R,0.60000X0.50000*%
%ADD19R,0.70000X0.50000*%
%ADD20R,0.70000X1.10000*%
%ADD21R,0.80000X1.10000*%
%ADD22R,0.90000X1.70000*%
%ADD23R,1.10000X0.70000*%
%ADD24R,1.10000X0.80000*%
%ADD25R,1.10000X1.10000*%
%ADD26R,1.10000X1.60000*%
%ADD27R,1.20000X1.90000*%
%ADD28R,1.20000X2.90000*%
%ADD29R,1.30000X2.40000*%
%ADD30R,1.60000X1.10000*%
%ADD31R,1.70000X0.60000*%
%ADD32R,1.90000X1.20000*%
%ADD33R,2.10000X0.60000*%
%ADD34R,2.10000X2.40000*%
%ADD35R,2.90000X1.20000*%
%ADD36R,9.90000X8.60000*%
%ADD37C,2.80000*%
%ADD38C,1.80000*%
%ADD39C,1.40000*%
G01*
%LPD*%
D10*
X5247000Y19579000D03*
X5152800Y23638100D03*
X4647000Y25129000D03*
X5997000Y44479000D03*
X6289600Y50855700D03*
X5737000Y55919000D03*
X7897000Y16479000D03*
X8547000Y22729000D03*
X8268000Y22200000D03*
X8276000Y26200000D03*
X8297000Y27779000D03*
X8318000Y27000000D03*
X7072000Y44454000D03*
X8897000Y44529000D03*
X8647000Y52979000D03*
X8632500Y55043500D03*
X7547000Y71779000D03*
X7547500Y74629500D03*
X10467500Y7799500D03*
X9547000Y10179000D03*
X9647000Y18879000D03*
Y17429000D03*
X9626000Y18200000D03*
X9697000Y23729000D03*
X9718000Y23000000D03*
X9668000Y24600000D03*
X9718000Y26200000D03*
X9726000Y25400000D03*
X9668000Y27000000D03*
X9397000Y30179000D03*
X10499500Y38031500D03*
X11647000Y41229000D03*
Y42079000D03*
X9397000Y46479000D03*
X11447000Y45629000D03*
X9847000Y50679000D03*
X10747000Y54829000D03*
X9797000Y65929000D03*
X11447000Y74229000D03*
X12397000Y8529000D03*
X13947000Y13451000D03*
X12968000Y21400000D03*
X13076000Y20600000D03*
X13018000Y19800000D03*
X11847000Y40329000D03*
X12347000Y47429000D03*
X12647000Y67079000D03*
X15797000Y8629000D03*
X16497000Y10129000D03*
X16197000Y18379000D03*
X15838000Y24800000D03*
X15558000Y29368000D03*
X16397000Y36829000D03*
X14597000Y38479000D03*
X15889500Y41236500D03*
X16697000Y43329000D03*
X16297000Y47329000D03*
X16097000Y53329000D03*
X16464500Y62879000D03*
X15579500Y65329000D03*
X18447000Y14179000D03*
X18450000Y26000000D03*
X17297000Y32829000D03*
X17839500Y38529000D03*
X18466500Y56059500D03*
X19297000Y62429000D03*
X18747000Y63179000D03*
X18697000Y65229000D03*
X17167000Y68529000D03*
X18754500Y68621500D03*
X19707000Y76839000D03*
X19307000Y80077500D03*
X21647000Y17388000D03*
X21697000Y21479000D03*
X21897000Y25418000D03*
X22247000Y29368000D03*
X20697000Y35029000D03*
X20509000Y40817000D03*
Y41391000D03*
X21597000Y43179000D03*
X20647000Y53879000D03*
X20297000Y55679000D03*
X20747000Y68479000D03*
X21294500Y76881500D03*
X19947000Y75779000D03*
X21294500Y80026500D03*
X23095000Y11927000D03*
X23075000Y13451000D03*
X24797000Y26379000D03*
X23647000Y29318000D03*
X23547000Y35479000D03*
X24859400Y40050300D03*
X23997000Y41529000D03*
X23199500Y43081500D03*
X24547000Y45729000D03*
X23547000D03*
X22497000Y51479000D03*
X22697000Y70129000D03*
X24397000D03*
X22882000Y76894000D03*
X22697000Y80079000D03*
X22747000Y81629000D03*
X26047000Y7329000D03*
X25422000Y8904000D03*
X26797000Y8929000D03*
X25422000Y12104000D03*
X27009500Y12116500D03*
X25997000Y12529000D03*
X25747000Y21515500D03*
X26247000Y32379000D03*
X25297000Y36779000D03*
X25281200Y45782700D03*
X27097000Y49129000D03*
X27197000Y55979000D03*
X27147000Y57229000D03*
Y59729000D03*
Y62279000D03*
X27150000Y63579000D03*
X27497000Y70129000D03*
X25897000D03*
X25947000Y75379000D03*
X26097000Y80817000D03*
X29847000Y7129000D03*
X28397000Y8879000D03*
X28597000Y12079000D03*
X30297000D03*
X29547000Y32079000D03*
X29947000Y30479000D03*
X29597000Y33504000D03*
X27947000Y35079000D03*
X28647000Y41529000D03*
X29537000Y43129000D03*
X29397000Y45779000D03*
X29847000Y48079000D03*
X28347000Y53379000D03*
X28334500Y52091500D03*
X29697000Y63729000D03*
Y64779000D03*
X29867000Y68629000D03*
X29047000Y70129000D03*
X30247000Y73229000D03*
X31797000Y7732000D03*
X31197000Y9629000D03*
X32897000Y13150800D03*
X32700000Y19929000D03*
X32789300Y25171200D03*
X31147000Y27779000D03*
X32747000Y27629000D03*
X33097000Y30479000D03*
X31897000Y34129000D03*
X31500000Y41450000D03*
X30750000D03*
X30997000Y47929000D03*
X32297000Y48229000D03*
X31597000Y64179000D03*
X33042000Y68634000D03*
X31453900Y68631700D03*
X34347000Y11729000D03*
X33397000Y19429000D03*
X34647000Y26429000D03*
X33647000Y24479000D03*
X33997000Y37829000D03*
X33550000Y41650000D03*
X33547000Y43079000D03*
X34747000Y48029000D03*
X34847000Y64879000D03*
X33547000Y64629000D03*
X34647000Y68579000D03*
X37497000Y14779000D03*
X38009000Y17941000D03*
X37247000Y23929000D03*
X37797000Y36179000D03*
X36097000Y43129000D03*
X37487000Y43119000D03*
X36147000Y48029000D03*
X37247000Y64679000D03*
X36347000Y68629000D03*
X38158300Y68613100D03*
X38847000Y18479000D03*
X39047000Y25029000D03*
X38750000Y25729000D03*
X39997000Y27929000D03*
X40847000Y29429000D03*
X39297000Y28829000D03*
X38535000Y30967000D03*
X40947000Y31379000D03*
X39047000Y30429000D03*
X39297000Y36279000D03*
X40347000D03*
X39947000Y43038900D03*
X40747000Y43129000D03*
X41047000Y47779000D03*
X38497000Y48079000D03*
X39947000D03*
X40597000Y51329000D03*
X39797000Y63829000D03*
X38597000D03*
X40395300Y68640800D03*
X38597000Y70179000D03*
X41647000Y26329000D03*
X43597000Y25629000D03*
X41647000Y27129000D03*
X41405500Y27837500D03*
X41647000Y29279000D03*
X41747000Y31329000D03*
X43497000Y30279000D03*
X43597000Y36279000D03*
X41947000Y38979000D03*
X42249500Y43126500D03*
X43697000Y45029000D03*
X43797000Y54679000D03*
X42297000Y63779000D03*
X44281500Y20063500D03*
X45797000Y19979000D03*
X45274300Y22906300D03*
X45800000Y31429000D03*
X43837000Y43119000D03*
X45424500Y43101500D03*
X44897000Y48279000D03*
Y50829000D03*
Y55929000D03*
X44947000Y58429000D03*
Y60929000D03*
Y63529000D03*
Y62229000D03*
X46497000Y41579000D03*
X48197000D03*
X48669500Y49280000D03*
X48320000Y48730000D03*
X48018000Y50330000D03*
X48369500Y49780000D03*
X47869500Y51289000D03*
X48552000Y51270000D03*
X47869500Y52589000D03*
X48517000Y52320000D03*
X48019000Y55460000D03*
X48518000Y54910000D03*
X48002000Y54410000D03*
X48475000Y53860000D03*
X48044000Y58000000D03*
X48060000Y56950000D03*
X48518000Y57450000D03*
X48501000Y56400000D03*
X48219500Y61112500D03*
X48569500Y59739000D03*
X48619500Y61662500D03*
X48169500Y62162500D03*
X48619500Y62712500D03*
X48202500Y66256000D03*
X48636500Y66806000D03*
X48569500Y69539000D03*
X48636500Y67856000D03*
X48169500Y68989000D03*
X48219500Y67239000D03*
X48619500Y70589000D03*
X48169500Y70039000D03*
X50822000Y9279000D03*
Y11104000D03*
X49197000Y19779000D03*
X49482000Y20944000D03*
X50887000Y19039000D03*
X51147000Y26024000D03*
Y29316500D03*
X49597000Y30579000D03*
X50377500Y33450000D03*
X51147000Y36479000D03*
X51347000Y39879000D03*
X49747000Y41579000D03*
X49837000Y44451000D03*
X51104000Y49280000D03*
X51257000Y48730000D03*
X51042000Y50330000D03*
X51304000Y49780000D03*
X51058000Y51820000D03*
X51295000Y51270000D03*
X51042000Y52870000D03*
X51304000Y52320000D03*
X51770100Y52138800D03*
X51041000Y55460000D03*
X51304000Y54910000D03*
X51050000Y54410000D03*
X51296000Y53860000D03*
X51054000Y58000000D03*
X51069500Y56950000D03*
X51303000Y57450000D03*
X51270000Y56400000D03*
X51343000Y61112500D03*
X51719500Y59690000D03*
X51043000Y61662500D03*
X51393000Y62162500D03*
X50369500Y63389000D03*
X51169500Y66256000D03*
X51069500Y66806000D03*
X51369500Y67306000D03*
X51069500Y67856000D03*
Y68989000D03*
X51319500Y70589000D03*
X51069500Y70039000D03*
X51419500Y69589000D03*
X54314500Y5896500D03*
X52727000Y6009000D03*
X52497000Y9279000D03*
X53097000Y9379000D03*
X54314500Y9211500D03*
X53497000Y11029000D03*
X53547000Y12629000D03*
X52746900Y19229100D03*
X53900000Y33314500D03*
X51891000Y57717500D03*
X55902000Y5934000D03*
X56147000Y9229000D03*
Y12629000D03*
X56882500Y13514500D03*
X55902000Y15874000D03*
X54647000Y21829000D03*
X55269500Y53439000D03*
X55069500Y55839000D03*
X54481500Y59377000D03*
X54769500Y60739000D03*
X55219500Y60289000D03*
X57489500Y5886500D03*
X59077000Y5899000D03*
X59147000Y9229000D03*
X57897000Y9429000D03*
X57197000Y9279000D03*
X58647000Y9500200D03*
X57489500Y12671500D03*
X59077000Y12779000D03*
X57807000Y22119000D03*
X59047000Y27129000D03*
X60664500Y5896500D03*
X62252000Y5934000D03*
X60947000Y9329000D03*
X62097000Y9229000D03*
X60347000D03*
X60664500Y12729000D03*
X62252000Y12774000D03*
X60997000Y28679000D03*
X61119500Y49939000D03*
X61019500Y65789000D03*
X63839500Y5886500D03*
X62747000Y9479000D03*
X64447000Y9500200D03*
X63747000Y9179000D03*
X63839500Y12736500D03*
X64597000Y25279000D03*
X63097000Y34729000D03*
X63469500Y41789000D03*
X64419500Y42639000D03*
X63219500Y43339000D03*
X64369500Y44889000D03*
X63219500Y47789000D03*
X63169500Y47089000D03*
X63219500Y58389000D03*
X63269500Y60739000D03*
X63119500Y64039000D03*
X63269500Y61589000D03*
X63369500Y64489000D03*
X65427000Y6009000D03*
X67014500Y5896500D03*
X66047000Y9379000D03*
X67649500Y9481500D03*
X67014500Y9261500D03*
X65427000Y9149000D03*
X65744500Y12729000D03*
X67649500Y12676500D03*
X66947000Y15129000D03*
X67547000Y23279000D03*
X65797000D03*
X66697000Y26529000D03*
X66385000Y27267000D03*
X65797000Y27029000D03*
X67497000Y29629000D03*
X66169500Y41589000D03*
X66019500Y46439000D03*
X65369500Y53289000D03*
X65519500Y58189000D03*
X65619500Y60689000D03*
X65169500Y62389000D03*
X66319500Y70889000D03*
X68602000Y5874000D03*
X70189500Y9186500D03*
X68602000Y9424000D03*
X70371300Y18949000D03*
X69097000Y20579000D03*
X70297000Y22891000D03*
X68447000Y23679000D03*
X69297000Y25079000D03*
X68347000Y29426500D03*
X68297000Y30317000D03*
Y31379000D03*
X68569500Y53389000D03*
X69819500Y60339000D03*
X69319500Y59389000D03*
X69869500Y62439000D03*
X68019500Y63589000D03*
X69969500Y64389000D03*
X67869500Y70889000D03*
X71965100Y9310900D03*
X72419500Y45539000D03*
Y44289000D03*
X72669500Y47289000D03*
X72369500Y46289000D03*
X72019500Y58089000D03*
X74507500Y6679000D03*
X74497000Y12371500D03*
X73419500Y43039000D03*
X75619500Y44639000D03*
X75569500Y47489000D03*
X73169500Y64079500D03*
X76468000Y23800000D03*
X76368000Y26200000D03*
X76426000Y25400000D03*
Y24600000D03*
X76418000Y27800000D03*
X76697000Y32129000D03*
Y31229000D03*
X75869500Y41639000D03*
X77669500Y47989000D03*
X76539500Y51019000D03*
X77169500Y58289000D03*
X78469500Y60889000D03*
X77169500Y63439000D03*
X76931800Y62539000D03*
X76219500Y67039000D03*
X79647000Y21000000D03*
Y21800000D03*
Y22600000D03*
Y23400000D03*
Y25000000D03*
Y25800000D03*
Y27400000D03*
Y28200000D03*
X80126000Y27000000D03*
X79647000Y29000000D03*
Y29800000D03*
Y30600000D03*
X80168000Y31400000D03*
X79647000Y32200000D03*
X80219500Y41589000D03*
X79928300Y47439000D03*
X80219500Y58489000D03*
X79067500Y60441000D03*
X79921500Y60791000D03*
X79910600Y62630100D03*
X80019500Y70639000D03*
X81919500Y43139000D03*
X82269500Y45839000D03*
X82869500Y46389000D03*
X81819500Y51239000D03*
X82019500Y62589000D03*
X81960000Y63648500D03*
X81869500Y69539000D03*
X84619500Y41639000D03*
X84319500Y43239000D03*
X84719500Y47989000D03*
X84519500Y45739000D03*
X84069500Y46089000D03*
X85419500Y58389000D03*
X84669500Y60091200D03*
X83819500Y63639000D03*
X84369500Y62589000D03*
X85429500Y64499000D03*
D12*
X51147000Y79079000D03*
X5102000Y24436500D03*
X5097000Y26229000D03*
Y29179000D03*
Y28029000D03*
Y30279000D03*
Y32129000D03*
X5102000Y33961500D03*
Y35866500D03*
Y37771500D03*
Y39676500D03*
X5047000Y41079000D03*
X5297000Y46829000D03*
X6377500Y57290000D03*
X8497000Y17429000D03*
Y20379000D03*
X8741000Y24421900D03*
X8781200Y28384200D03*
X8947000Y32600000D03*
X9347000Y57240000D03*
X8697000Y69229000D03*
X8500000Y71979000D03*
X8147000Y75879000D03*
X9647000Y36579000D03*
X11597000Y70829000D03*
X12449000Y6600000D03*
X13299000Y11927000D03*
X14547000Y19629000D03*
X13327000Y28299000D03*
X13421900Y30229000D03*
X13997000Y34479000D03*
X12197000Y36679000D03*
X12722000Y58579000D03*
X14309500Y58616500D03*
X12722000Y59579000D03*
X12798100Y66219500D03*
X13616500Y75109500D03*
X13147000Y78229000D03*
X17133700Y50471400D03*
X16997000Y54879000D03*
X14847000Y69679000D03*
X15579500Y68729000D03*
X15447000Y71917000D03*
X16250000Y75929000D03*
X15579500Y79879000D03*
X16750000Y78879000D03*
X15579500Y83329000D03*
X19338000Y8039000D03*
X19645000Y11927000D03*
X18747000Y16679000D03*
X19368500Y18185200D03*
X18147000Y30179000D03*
X17847000Y41729000D03*
X19747000D03*
X18347000Y47929000D03*
X18497000Y59879000D03*
X18542000Y64124000D03*
X18754500Y71929000D03*
X19072000Y73014000D03*
X18754500Y83379000D03*
X20500000Y6850000D03*
Y11350000D03*
X20772000Y13479000D03*
X22447000Y35229000D03*
X22047000Y57229000D03*
X21929500Y74919000D03*
X20977000Y73014000D03*
X20307700Y79865500D03*
X20342000Y83379000D03*
X24197000Y8929000D03*
X24347000Y18229000D03*
X24152000Y39676500D03*
X22947000Y52829000D03*
X24600000Y59700000D03*
Y62250000D03*
X23350000D03*
X23517000Y71909000D03*
X23997000Y73429000D03*
X22882000Y73014000D03*
X24238600Y79186200D03*
X23517000Y83429000D03*
X25547000Y18229000D03*
X25960100Y25787800D03*
X27934000Y39763100D03*
X26057000Y39676500D03*
X25866300Y59733700D03*
X27247000Y75779000D03*
X27962000Y80129000D03*
X28914500Y5311500D03*
X29150000Y17700000D03*
X28597000Y38829000D03*
X28279500Y72029000D03*
X28697000Y82779000D03*
X30547000D03*
X30819500Y5279000D03*
X32497000Y17729000D03*
X31497000Y36879000D03*
X32847000Y38079000D03*
X33040000Y55272000D03*
X33070000Y54002000D03*
X33060000Y56542000D03*
X33147000Y57812000D03*
X33247000Y73579000D03*
X31447000Y75779000D03*
X31397000Y80429000D03*
X32347000Y82779000D03*
X35583500Y16249000D03*
X34947000Y39676500D03*
X34137000Y52589000D03*
X35407000Y52639000D03*
X34137000Y58969000D03*
X35407000Y58939000D03*
X36047000Y72029000D03*
X36122000Y73331500D03*
X35147000Y78929000D03*
X35997000Y82779000D03*
X34147000D03*
X36468000Y5450000D03*
X36647000Y7579000D03*
X36897000Y12079000D03*
X36852000Y39676500D03*
X38757000D03*
X36677000Y52699000D03*
X37947000Y58979000D03*
X36677000Y58959000D03*
X37147000Y71979000D03*
X38535000Y81891000D03*
X37797000Y82779000D03*
X40662000Y39676500D03*
X39010000Y56542000D03*
X39020000Y54002000D03*
X39040000Y55272000D03*
X39497000Y73579000D03*
X41247000Y79079000D03*
X41397000Y82779000D03*
X39597000D03*
X42567000Y39676500D03*
X41997000Y71729000D03*
X42597000Y73379000D03*
X45967000Y17729000D03*
X45447000Y37629000D03*
X45424500Y39875500D03*
X44397000Y39679000D03*
X48282000Y39676500D03*
X49400000Y76350000D03*
X48009000Y81741000D03*
X48747000Y82929000D03*
X52050000Y5482000D03*
X50197000Y4879000D03*
X51597000Y17129000D03*
X51911900Y27157400D03*
X49650000Y28350000D03*
X50377500Y34450000D03*
X49552000Y74284000D03*
X51447000Y82629000D03*
X53933500Y16765500D03*
X52847000Y30904000D03*
X52647000Y43279000D03*
X53481500Y71594500D03*
X53479000Y82629000D03*
X54495000D03*
X52463000D03*
X55147000Y5479000D03*
X57453000Y26279000D03*
X55247000Y74284000D03*
X55511000Y82629000D03*
X56527000D03*
X59597000Y5129000D03*
X59947000Y22879000D03*
X58722000Y31104000D03*
X58797000Y33379000D03*
X58197000Y36779000D03*
X57547000Y75179000D03*
X57497000Y74029000D03*
X58696000Y82378000D03*
X62647000Y37979000D03*
X60213000Y73200000D03*
X60447000Y81879000D03*
X60347000Y80879000D03*
X63697000Y5079000D03*
X63447000Y17829000D03*
X64747000Y37979000D03*
X66550000Y5132000D03*
X68047000Y20824000D03*
X65913000Y73213000D03*
X68097000Y80979000D03*
X69597000Y36079000D03*
X70649000Y55177000D03*
X69872000Y79554000D03*
X69197000Y80979000D03*
X73025000Y6847000D03*
X71140000Y21473200D03*
X71197000Y38429000D03*
X71584500Y73966500D03*
X71297000Y75629000D03*
X71547000Y82529000D03*
X72563000D03*
X74358000Y9768000D03*
X75097000Y32029000D03*
X74147000Y36629000D03*
X75777500Y37279000D03*
X75747000Y55177000D03*
X75611000Y82529000D03*
X74595000D03*
X73579000D03*
X77197000Y5079000D03*
X77947000Y18229000D03*
X76700000Y16629000D03*
X76426000Y21850000D03*
X76449100Y20789600D03*
X76497000Y23000000D03*
X77397000Y34979000D03*
X76197000Y35829000D03*
X78397000Y38406500D03*
X78497000Y55177000D03*
X77734000Y70612000D03*
X78659000Y82529000D03*
X77643000D03*
X76627000D03*
X79079500Y9661500D03*
X80889500Y12371500D03*
X79547000Y19079000D03*
X79876000Y20200000D03*
X79297000Y35779000D03*
X81047000Y55177000D03*
X81147000Y76879000D03*
X80297000Y76479000D03*
X82897000Y16929000D03*
Y21400000D03*
X81647000Y19483500D03*
X82797000Y23029000D03*
X81567500Y26849500D03*
X82597000Y30479000D03*
X82219500Y54179000D03*
X81747000Y72129000D03*
X85597000Y10729000D03*
X85927000Y26659000D03*
X85897000Y25079000D03*
X85952000Y29834000D03*
X85947000Y28246500D03*
X84247000Y27629000D03*
X85954500Y31421500D03*
X85897000Y36579000D03*
X86047000Y38129000D03*
X86049000Y55177000D03*
X89277000Y13959000D03*
X89329500Y21896500D03*
X89417000Y26659000D03*
X89303000Y36635000D03*
X88021000Y42579000D03*
X87797000Y48879000D03*
X87971000Y52850000D03*
X86847000Y61305000D03*
X87697000Y62879000D03*
X87767000Y65278000D03*
X86860000Y69088000D03*
X87547000Y72579000D03*
X87447000Y78779000D03*
X89489500Y31421500D03*
X91247000Y44788400D03*
X91410000Y47752000D03*
X90003000Y52951000D03*
X90051000Y59750000D03*
X91310000Y65278000D03*
X90053000Y70612000D03*
D13*
X6054500Y46026500D03*
X16850000Y4300000D03*
X15550000Y78000000D03*
X20024500Y74919000D03*
X54632000Y17769000D03*
X66947000Y82629000D03*
D14*
X5000000Y5000000D03*
Y82500000D03*
X90000000Y5000000D03*
Y82500000D03*
D15*
X16964500Y61584000D03*
X16464500D03*
X15964500D03*
X15464500D03*
X14964500D03*
Y64124000D03*
X15464500D03*
X15964500D03*
X16464500D03*
X16964500D03*
X17464500Y61584000D03*
Y64124000D03*
D16*
X13939500Y39803500D03*
X13289500D03*
Y45899500D03*
X13939500D03*
X16539500Y39803500D03*
X15889500D03*
X15239500D03*
X14589500D03*
Y45899500D03*
X15239500D03*
X15889500D03*
X16539500D03*
X19139500Y39803500D03*
X18489500D03*
X17839500D03*
X17189500D03*
Y45899500D03*
X17839500D03*
X18489500D03*
X19139500D03*
D17*
X50322500Y49780000D03*
Y49280000D03*
X49372500D03*
Y49780000D03*
X50322500Y52320000D03*
Y51820000D03*
X49372500D03*
Y52320000D03*
X50309000Y54910000D03*
Y54410000D03*
X49359000D03*
Y54910000D03*
X50309000Y57450000D03*
Y56950000D03*
X49359000D03*
Y57450000D03*
X50322500Y62162500D03*
Y61662500D03*
X49372500D03*
Y62162500D03*
X50309000Y66806000D03*
X49359000D03*
X50344500Y69539000D03*
X49394500D03*
X50309000Y67306000D03*
X49359000D03*
X50344500Y70039000D03*
X49394500D03*
D18*
X50322500Y50330000D03*
Y48730000D03*
X49372500D03*
Y50330000D03*
X50322500Y52870000D03*
Y51270000D03*
X49372500D03*
Y52870000D03*
X50309000Y55460000D03*
Y53860000D03*
X49359000D03*
Y55460000D03*
X50309000Y58000000D03*
Y56400000D03*
X49359000D03*
Y58000000D03*
X50322500Y61112500D03*
X49372500D03*
X50322500Y62712500D03*
X49372500D03*
X50309000Y66256000D03*
X49359000D03*
X50344500Y68989000D03*
X49394500D03*
X50309000Y67856000D03*
X49359000D03*
X50344500Y70589000D03*
X49394500D03*
D19*
X50377500Y79659000D03*
X51901500D03*
X50377500Y81609000D03*
Y80959000D03*
Y80309000D03*
X51901500D03*
Y80959000D03*
Y81609000D03*
X71967500Y79704000D03*
Y79054000D03*
Y78404000D03*
Y77754000D03*
X73491500D03*
Y78404000D03*
Y79054000D03*
Y79704000D03*
D20*
X15852500Y17374000D03*
X15838000Y23550000D03*
Y25700000D03*
X16509000Y31229000D03*
X14985000D03*
Y32879000D03*
X16509000D03*
X14985000Y34479000D03*
X16509000D03*
X17376500Y17374000D03*
X17362000Y23550000D03*
Y25700000D03*
X19580000Y54916500D03*
Y56504000D03*
X21335000Y44779000D03*
X21104000Y54916500D03*
Y56504000D03*
X21739000Y60949000D03*
X20215000D03*
X21739000Y64124000D03*
X20215000D03*
X21739000Y62536500D03*
X20215000D03*
X21739000Y65711500D03*
X20215000D03*
X22859000Y44779000D03*
X30335000Y19929000D03*
X30375000Y21579000D03*
Y23166500D03*
Y24754000D03*
X30385000Y27929000D03*
X30375000Y29516500D03*
X30385000Y32179000D03*
Y35179000D03*
X30375000Y39041500D03*
X29122500Y52091500D03*
X30646500D03*
X29122500Y53679000D03*
X30646500D03*
X29122500Y55266500D03*
X30646500D03*
X29122500Y56854000D03*
X30646500D03*
X29122500Y58441500D03*
X30646500D03*
X29122500Y60029000D03*
X30646500D03*
X29422500Y72379000D03*
X31859000Y19929000D03*
X31899000Y21579000D03*
Y23166500D03*
Y24754000D03*
X31909000Y27929000D03*
X31899000Y29516500D03*
X31909000Y32179000D03*
Y35179000D03*
X31899000Y39041500D03*
X30946500Y72379000D03*
X32597500D03*
X34121500D03*
X33550000Y75236500D03*
X35074000D03*
X38009000Y19029000D03*
X36485000D03*
X38485000Y21879000D03*
X38535000Y23929000D03*
Y26929000D03*
Y28879000D03*
Y31979000D03*
Y33979000D03*
X38435000Y52129000D03*
X38535000Y79779000D03*
X39635000Y19029000D03*
X41159000D03*
X40009000Y21879000D03*
X40059000Y23929000D03*
Y26929000D03*
Y28879000D03*
Y31979000D03*
Y33979000D03*
X39959000Y52129000D03*
X38947500Y72379000D03*
X40471500D03*
X40059000Y79779000D03*
X42757500Y19039000D03*
X42535000Y21879000D03*
Y23979000D03*
X42485000Y26879000D03*
Y28929000D03*
X42535000Y31979000D03*
Y33929000D03*
X42944000Y53729000D03*
X41420000D03*
X42944000Y52141500D03*
X41420000D03*
X42944000Y55316500D03*
X41420000D03*
X42944000Y56904000D03*
X41420000D03*
X42944000Y58491500D03*
X41420000D03*
X42944000Y60079000D03*
X41420000D03*
X45585000Y19029000D03*
X44281500Y19039000D03*
X44059000Y21879000D03*
Y23979000D03*
X44009000Y26879000D03*
Y28929000D03*
X44059000Y31979000D03*
Y33929000D03*
X47109000Y19029000D03*
X48472500Y19039000D03*
X49996500D03*
X51901500Y20944000D03*
X50377500D03*
Y26024000D03*
X51901500D03*
X50377500Y29316500D03*
X51901500D03*
X50377500Y32491500D03*
X51901500D03*
X50377500Y30904000D03*
X51901500D03*
Y35666500D03*
X50377500D03*
X50927000Y59690000D03*
X49403000D03*
X51957500Y66239000D03*
X51901500Y77141500D03*
X50377500D03*
X52657500Y52139000D03*
X54181500D03*
X52157500Y54389000D03*
X53681500D03*
X52957500Y57739000D03*
X54481500D03*
X52157500Y62189000D03*
X53681500D03*
X53481500Y66239000D03*
X57785000Y77129000D03*
X59309000D03*
X66252500Y53011500D03*
X67776500D03*
X69681500Y15864000D03*
X68157500D03*
X69681500Y17769000D03*
X68157500D03*
Y19674000D03*
X69681500D03*
X74507500Y5704000D03*
X75460000Y12371500D03*
X76031500Y5704000D03*
X76984000Y12371500D03*
X88409000Y10729000D03*
X86885000D03*
X88414000Y15546500D03*
X86890000D03*
X88414000Y13959000D03*
X86890000D03*
X88414000Y17134000D03*
X86890000D03*
X88414000Y18721500D03*
X86890000D03*
X88414000Y20309000D03*
X86890000D03*
X88414000Y21896500D03*
X86890000D03*
X88414000Y23484000D03*
X86890000D03*
X88414000Y26659000D03*
X86890000D03*
X88414000Y25071500D03*
X86890000D03*
X88414000Y29834000D03*
X86890000D03*
X88414000Y28246500D03*
X86890000D03*
X88414000Y31421500D03*
X86890000D03*
X88757500Y47789000D03*
X88783000Y46186000D03*
X88757500Y49389000D03*
X88783000Y63627000D03*
Y66929000D03*
Y65278000D03*
X90281500Y47789000D03*
X90307000Y46186000D03*
X90281500Y49389000D03*
X90307000Y63627000D03*
Y66929000D03*
Y65278000D03*
D21*
X8500000Y70730000D03*
X7547500D03*
Y73270000D03*
X9452500Y70730000D03*
Y73270000D03*
D22*
X83207000Y8561500D03*
X81937000D03*
Y12371500D03*
X83207000D03*
X84477000Y8561500D03*
Y12371500D03*
D23*
X6157000Y38914500D03*
X5102000Y42089500D03*
X6157000Y40438500D03*
X5102000Y43613500D03*
X5737000Y48439500D03*
Y49963500D03*
Y53519500D03*
Y55043500D03*
X8297000Y38967000D03*
Y40491000D03*
X8912000Y42089500D03*
X7007000D03*
X8912000Y43613500D03*
X7007000D03*
X7642000Y49963500D03*
Y48439500D03*
Y53519500D03*
Y55043500D03*
Y66854500D03*
Y68378500D03*
X9547000Y7799500D03*
X11452000D03*
X9547000Y9323500D03*
X11452000D03*
X10499500Y38914500D03*
Y42089500D03*
Y40438500D03*
Y44947000D03*
Y43613500D03*
Y46471000D03*
X9797000Y66767000D03*
X11697000D03*
X9797000Y68291000D03*
X11697000D03*
X13357000Y7799500D03*
Y9323500D03*
X14309500Y56059500D03*
X12722000D03*
X14309500Y57583500D03*
X12722000D03*
Y60504500D03*
Y62028500D03*
X13992000Y66219500D03*
Y67743500D03*
X14297000Y71917000D03*
X12404500Y71934500D03*
X14297000Y73441000D03*
X12404500Y73458500D03*
Y75109500D03*
Y76633500D03*
X14944500Y7799500D03*
X16532000D03*
X14944500Y9323500D03*
X16532000D03*
X14944500Y13451000D03*
Y11927000D03*
X17484500Y56059500D03*
X15897000D03*
X17484500Y57583500D03*
X15897000D03*
X17167000Y66219500D03*
X15579500D03*
X17167000Y67743500D03*
X15579500D03*
X17167000Y80824500D03*
Y82348500D03*
X15579500Y80824500D03*
Y82348500D03*
X18150000Y7788000D03*
Y9312000D03*
X17802000Y13451000D03*
Y11927000D03*
X20024500Y49074500D03*
Y50598500D03*
X18437000Y49074500D03*
Y50598500D03*
X17947000Y52117000D03*
Y53641000D03*
X18754500Y66219500D03*
Y67743500D03*
Y69394500D03*
Y70918500D03*
X19307000Y77649500D03*
Y79173500D03*
X18754500Y80824500D03*
Y82348500D03*
X20500000Y7788000D03*
Y9312000D03*
X21929500Y13451000D03*
Y11927000D03*
X21972000Y31647000D03*
Y33171000D03*
X21597000Y40817000D03*
Y42341000D03*
X21612000Y49074500D03*
Y50598500D03*
X21929500Y69394500D03*
X20342000D03*
X21929500Y70918500D03*
X20342000D03*
X21294500Y77649500D03*
Y79173500D03*
X21929500Y80824500D03*
Y82348500D03*
X20342000Y80824500D03*
Y82348500D03*
X25422000Y9704500D03*
Y11228500D03*
X24469500Y36057000D03*
Y37581000D03*
X24724500Y40819500D03*
Y42343500D03*
X23199500Y40799500D03*
Y42323500D03*
X23517000Y69394500D03*
X25104500D03*
X23517000Y70918500D03*
X25104500D03*
X22882000Y77649500D03*
Y79173500D03*
X23517000Y80824500D03*
Y82348500D03*
X25097000Y80817000D03*
Y82341000D03*
X27009500Y6212000D03*
Y7736000D03*
Y9704500D03*
Y11228500D03*
X26057000Y37581000D03*
Y36057000D03*
X27597000Y37591000D03*
Y36067000D03*
X27949500Y40819500D03*
Y42343500D03*
X26312000Y40819500D03*
Y42343500D03*
X26692000Y69394500D03*
Y70918500D03*
X27962000Y77649500D03*
X26374500D03*
X27962000Y79173500D03*
X26374500D03*
X28914500Y6212000D03*
Y7736000D03*
X30819500Y6212000D03*
Y7736000D03*
X28597000Y9704500D03*
X30184500D03*
X28597000Y11228500D03*
X30184500D03*
X29537000Y40819500D03*
Y42343500D03*
X30337000Y49057000D03*
Y50581000D03*
X28749500Y49057000D03*
Y50581000D03*
X30537000Y61507000D03*
X28949500D03*
X30537000Y63031000D03*
X28949500D03*
X28279500Y69394500D03*
X29867000D03*
X28279500Y70918500D03*
X29867000D03*
X30147000Y79667000D03*
Y81191000D03*
X32089500Y10974500D03*
Y12498500D03*
Y15356000D03*
Y13832000D03*
X32724500Y40819500D03*
Y42343500D03*
X31897000Y49067000D03*
Y50591000D03*
X33447000Y49067000D03*
Y50591000D03*
X32124500Y61507000D03*
Y63031000D03*
X33042000Y69394500D03*
X31454500D03*
X33042000Y70918500D03*
X31454500D03*
X32347000Y79667000D03*
Y81191000D03*
X33677000Y10974500D03*
X35264500D03*
X33677000Y12498500D03*
X35264500D03*
X33677000Y15356000D03*
Y13832000D03*
X35264500Y15356000D03*
Y13832000D03*
X35899500Y37077000D03*
X34312000D03*
X35899500Y38601000D03*
X34312000D03*
Y40819500D03*
Y42343500D03*
X35899500Y40819500D03*
Y42343500D03*
X35029500Y49057000D03*
Y50581000D03*
X33712000Y61507000D03*
X35299500D03*
X33712000Y63031000D03*
X35299500D03*
X34629500Y69394500D03*
Y70918500D03*
X34147000Y79667000D03*
Y81191000D03*
X37487000Y37077000D03*
Y38601000D03*
Y40819500D03*
Y42343500D03*
X36617000Y49057000D03*
Y50581000D03*
X38204500Y49057000D03*
Y50581000D03*
X38447000Y61517000D03*
X36887000Y61507000D03*
X38447000Y63041000D03*
X36887000Y63031000D03*
X36217000Y69394500D03*
X37804500D03*
X36217000Y70918500D03*
X37804500D03*
X36247000Y79667000D03*
Y81191000D03*
X40662000Y37077000D03*
X39074500D03*
X40662000Y38601000D03*
X39074500D03*
X40662000Y40819500D03*
Y42343500D03*
X39074500Y40819500D03*
Y42343500D03*
X41379500Y49057000D03*
Y50581000D03*
X39792000Y49057000D03*
Y50581000D03*
X40042000Y61507000D03*
Y63031000D03*
X40979500Y69394500D03*
X39392000D03*
X40979500Y70918500D03*
X39392000D03*
X43837000Y37077000D03*
Y38601000D03*
Y40819500D03*
Y42343500D03*
X42249500Y40819500D03*
Y42343500D03*
X42967000Y49057000D03*
Y50581000D03*
X41629500Y61507000D03*
X43217000D03*
X41629500Y63031000D03*
X43217000D03*
X45424500Y40819500D03*
Y42343500D03*
X47012000Y37127000D03*
X48749500Y37177000D03*
X47012000Y38651000D03*
X48749500Y38701000D03*
X47012000Y40819500D03*
Y42343500D03*
X48749500Y40819500D03*
Y42343500D03*
X50822000Y8371000D03*
Y6847000D03*
Y10339500D03*
Y11863500D03*
X51947000Y37117000D03*
X50337000Y37177000D03*
X51947000Y38641000D03*
X50337000Y38701000D03*
X51947000Y40817000D03*
Y42341000D03*
X50337000Y40819500D03*
Y42343500D03*
X51424500Y45201000D03*
Y43677000D03*
X49837000D03*
Y45201000D03*
X52727000Y8371000D03*
Y6847000D03*
X54314500Y8371000D03*
Y6847000D03*
X52727000Y10339500D03*
X54314500D03*
X52727000Y11863500D03*
X54314500D03*
X54632000Y19547000D03*
Y21071000D03*
X53679500Y32564500D03*
Y34088500D03*
Y35422000D03*
Y36946000D03*
X55902000Y8371000D03*
Y6847000D03*
X57489500Y8371000D03*
Y6847000D03*
X55902000Y10339500D03*
X57489500D03*
X55902000Y13514500D03*
Y11863500D03*
X57489500D03*
X55902000Y15038500D03*
X56219500Y19547000D03*
Y21071000D03*
X56854500Y32564500D03*
Y34088500D03*
X55267000Y32564500D03*
Y34088500D03*
X56854500Y35422000D03*
Y36946000D03*
X55267000Y35422000D03*
Y36946000D03*
X59077000Y8371000D03*
Y6847000D03*
Y10339500D03*
Y11863500D03*
X59712000Y19547000D03*
Y21071000D03*
X57807000Y19547000D03*
Y21071000D03*
X60029500Y27167000D03*
Y28691000D03*
Y32183500D03*
Y30659500D03*
X60664500Y8371000D03*
Y6847000D03*
X62252000Y8371000D03*
Y6847000D03*
X60664500Y10339500D03*
X62252000D03*
X60664500Y11863500D03*
X62252000D03*
Y35422000D03*
Y36946000D03*
X62061500Y42407000D03*
X62069500Y45277000D03*
X62061500Y43931000D03*
X62069500Y48077000D03*
Y46801000D03*
Y49601000D03*
X62319500Y58977000D03*
Y60501000D03*
Y63401000D03*
Y61877000D03*
Y64777000D03*
Y66301000D03*
X61647000Y81167000D03*
Y82691000D03*
X63839500Y8371000D03*
Y6847000D03*
X65427000Y8371000D03*
Y6847000D03*
X63839500Y10339500D03*
Y11863500D03*
Y35422000D03*
Y36946000D03*
X65427000Y35422000D03*
Y36946000D03*
X65197000Y82691000D03*
Y81167000D03*
X63447000Y82691000D03*
Y81167000D03*
X67014500Y8371000D03*
Y6847000D03*
X65744500Y10339500D03*
X67649500D03*
X65744500Y13514500D03*
Y11863500D03*
X67649500D03*
X65744500Y15038500D03*
X67547000Y24367000D03*
X65797000D03*
X67547000Y25891000D03*
X65797000D03*
X67547000Y28791000D03*
Y27267000D03*
X67014500Y42407000D03*
Y45264500D03*
Y43931000D03*
Y46788500D03*
X67069500Y58877000D03*
Y60401000D03*
X67019500Y61827000D03*
Y63351000D03*
Y68577000D03*
Y70101000D03*
X70189500Y6847000D03*
Y8371000D03*
X68602000Y6847000D03*
Y8371000D03*
X69297000Y21367000D03*
Y24317000D03*
Y22891000D03*
Y25841000D03*
Y28841000D03*
Y27317000D03*
Y31841000D03*
Y30317000D03*
X69872000Y77014500D03*
Y78538500D03*
X71777000Y6847000D03*
Y8371000D03*
X71459500Y42407000D03*
Y45264500D03*
Y43931000D03*
Y46788500D03*
X71819500Y55177000D03*
Y56701000D03*
X71869500Y59027000D03*
Y60551000D03*
Y61927000D03*
Y63451000D03*
X74569500Y55177000D03*
Y56701000D03*
X76539500Y42407000D03*
Y45264500D03*
Y43931000D03*
Y48122000D03*
Y46788500D03*
Y49646000D03*
X77269500Y55177000D03*
X76222000Y58917000D03*
X77269500Y56701000D03*
X76222000Y60441000D03*
X76219500Y61827000D03*
Y63351000D03*
Y64677000D03*
Y66201000D03*
X79079500Y7164500D03*
Y8688500D03*
X80969500Y42327000D03*
X80984500Y45264500D03*
X80969500Y43851000D03*
X80984500Y48122000D03*
Y46788500D03*
Y49646000D03*
X79869500Y55177000D03*
Y56701000D03*
X80934500Y59267000D03*
Y60791000D03*
Y62124500D03*
Y63648500D03*
X80984500Y68759500D03*
Y70283500D03*
X82219500Y55177000D03*
Y56701000D03*
X82889500Y72887000D03*
Y74411000D03*
Y77268500D03*
Y75744500D03*
X82572000Y78919500D03*
Y80443500D03*
X85447000Y42299500D03*
Y43823500D03*
Y45157000D03*
Y46681000D03*
X84919500Y55177000D03*
Y56701000D03*
X85419500Y60801000D03*
Y59277000D03*
X85429500Y62092000D03*
Y63616000D03*
X87652000Y73839500D03*
Y75363500D03*
D24*
X56219500Y73331500D03*
Y75236500D03*
X58759500Y74284000D03*
Y73331500D03*
Y75236500D03*
X75269500Y73331500D03*
Y75236500D03*
X77809500Y74284000D03*
Y73331500D03*
Y75236500D03*
D25*
X16614500Y21438000D03*
X17503500Y19533000D03*
X15725500D03*
X16547000Y29368000D03*
X17436000Y27463000D03*
X15658000D03*
X19770500Y15483000D03*
Y19610500D03*
X19758000Y23513000D03*
Y27463000D03*
X20086000Y31363000D03*
X18308000D03*
X19197000Y33268000D03*
X21548500Y15483000D03*
X20659500Y17388000D03*
Y21515500D03*
X21548500Y19610500D03*
X21536000Y23513000D03*
X20647000Y25418000D03*
Y29368000D03*
X21536000Y27463000D03*
X24787000Y21515500D03*
X23898000Y19610500D03*
X23908000Y23513000D03*
X24797000Y25418000D03*
Y29318000D03*
X23908000Y27413000D03*
X23858000Y31363000D03*
X24747000Y33268000D03*
X25058000Y72463000D03*
X25676000Y19610500D03*
X25686000Y23513000D03*
Y27413000D03*
X25636000Y31363000D03*
X26836000Y72463000D03*
X25947000Y74368000D03*
X74698000Y7863000D03*
X75587000Y9768000D03*
X76476000Y7863000D03*
D26*
X19643500Y52694000D03*
Y58726500D03*
X20596000Y36819000D03*
X22628000D03*
X21675500Y52694000D03*
Y58726500D03*
X64093500Y19356500D03*
X66125500D03*
X67903500Y38089000D03*
X69935500D03*
X89303000D03*
X87271000D03*
X88021000Y44027000D03*
X87971000Y51427000D03*
X88019000Y61305000D03*
X88021000Y69088000D03*
X90053000Y44027000D03*
X90003000Y51427000D03*
X90051000Y61305000D03*
X90053000Y69088000D03*
D27*
X15325500Y36819000D03*
X18373500D03*
D28*
X50885500Y14594000D03*
Y74284000D03*
X53933500Y14594000D03*
Y74284000D03*
X69935500Y73966500D03*
X72983500D03*
D29*
X40867000Y15927500D03*
X39167000D03*
X44267000D03*
X42567000D03*
X45967000D03*
D30*
X61697000Y75245000D03*
Y73213000D03*
Y77263000D03*
Y79295000D03*
X64497000Y73213000D03*
Y75245000D03*
X80667000Y75300000D03*
Y73268000D03*
X85112000D03*
Y75300000D03*
Y78030500D03*
Y80062500D03*
D31*
X72658000Y18200000D03*
Y17400000D03*
Y21400000D03*
Y20600000D03*
Y19800000D03*
Y19000000D03*
Y23800000D03*
Y23000000D03*
Y22200000D03*
Y25400000D03*
Y24600000D03*
Y29400000D03*
Y28600000D03*
Y31800000D03*
Y31000000D03*
Y30200000D03*
Y34200000D03*
Y33400000D03*
Y32600000D03*
Y36600000D03*
Y35800000D03*
Y35000000D03*
X84342000Y17400000D03*
Y18200000D03*
Y19000000D03*
Y19800000D03*
Y20600000D03*
Y21400000D03*
Y22200000D03*
Y23000000D03*
Y23800000D03*
Y24600000D03*
Y25400000D03*
Y28600000D03*
Y29400000D03*
Y30200000D03*
Y31000000D03*
Y31800000D03*
Y32600000D03*
Y33400000D03*
Y34200000D03*
Y35000000D03*
Y35800000D03*
Y36600000D03*
D32*
X7642000Y58790000D03*
Y61838000D03*
X10499500Y58790000D03*
Y61838000D03*
D33*
X6800000Y17400000D03*
Y18200000D03*
Y19000000D03*
Y19800000D03*
Y20600000D03*
Y21400000D03*
Y22200000D03*
Y23000000D03*
Y23800000D03*
Y24600000D03*
Y25400000D03*
Y26200000D03*
Y27000000D03*
Y27800000D03*
Y28600000D03*
Y29400000D03*
Y30200000D03*
Y31000000D03*
Y31800000D03*
Y32600000D03*
X11200000Y17400000D03*
Y18200000D03*
Y19000000D03*
Y19800000D03*
Y20600000D03*
Y21400000D03*
Y22200000D03*
Y23000000D03*
Y23800000D03*
Y24600000D03*
Y25400000D03*
Y26200000D03*
Y27000000D03*
Y27800000D03*
Y28600000D03*
Y29400000D03*
Y30200000D03*
Y31000000D03*
Y31800000D03*
Y32600000D03*
D34*
X54378000Y80634000D03*
X58696000D03*
X75650500Y78729000D03*
X79968500D03*
D35*
X30819500Y74347500D03*
Y77395500D03*
X38122000Y74847500D03*
Y77895500D03*
X41932000Y74847500D03*
Y77895500D03*
D36*
X42567000Y9577500D03*
D37*
X4000000Y72500000D03*
X43000000Y4000000D03*
X91000000Y72500000D03*
D38*
X9000000Y14900000D03*
D39*
Y35100000D03*
M02*