G04 Gerber PCB Fabrication Data in Gerber – Example 2, created by Karel Tavernier, Filip Vermeire and Thomas Weyn*
G04 Ucamco copyright*
%TF.GenerationSoftware,Ucamco,UcamX,1.1.0-1400509*%
%TF.CreationDate,2014-07-14T00:00:00+01:00*%
%FSLAX26Y26*%
%MOMM*%
%TF.FileFunction,Copper,L5,Inr,Signal*%
%TF.FilePolarity,Positive*%
%TF.Part,Single*%
%TF.SameCoordinates*%
%TA.AperFunction,Conductor*%
%ADD10C,0.15000*%
%TA.AperFunction,NonConductor*%
%ADD11C,0.20000*%
%TA.AperFunction,ViaPad*%
%ADD12C,0.65000*%
%TA.AperFunction,WasherPad*%
%ADD13C,6.00000*%
G01*
%LPD*%
D10*
X7047000Y49229000D02*
Y48979000D01*
X7047000Y49229000D02*
X6797000D01*
X7047000Y49229000D02*
X7197000Y49379000D01*
X10379000D01*
X11029000Y50029000D01*
X6797000Y48979000D02*
X7047000Y49229000D01*
X6397000Y70379000D02*
X6647000Y70629000D01*
X7797000Y71779000D01*
Y72787500D01*
X7959500Y72950000D01*
X6647000Y70629000D02*
X6397000D01*
X6647000Y70629000D02*
Y70379000D01*
X11029000Y50029000D02*
X11097000Y50279000D01*
X11029000Y50029000D02*
X11347000D01*
X11029000Y50029000D02*
X11297000Y50297000D01*
Y50329000D01*
X11347000Y50279000D01*
X44408100Y17479000D02*
X43379000D01*
X43009000Y17109000D01*
X33008500D01*
X32974900Y17075400D01*
Y17075300D01*
X32828600Y16929000D01*
X32046400D01*
X31916400Y17059000D01*
X29977000D01*
X28607000Y15689000D01*
X13987000D01*
X13197000Y16479000D01*
X5485900D01*
X5291500Y16284500D01*
X5485900Y16479000D02*
X5291500Y16673500D01*
X5485900Y16479000D02*
X5097000D01*
X5097000Y19167900D02*
X5291500Y18973500D01*
X5097000Y19167900D02*
X4902500Y18973500D01*
X5097000Y19167900D02*
Y23029000D01*
X5697000Y23629000D01*
Y25279000D01*
X7718000Y27300000D01*
X8750000D01*
X10874000Y29424000D01*
X17805900D01*
X17900900Y29329000D01*
X18950600D01*
X19000600Y29379000D01*
X19000700D01*
X19147000Y29525300D01*
Y29525400D01*
X19655600Y30034000D01*
X23751900D01*
X24691900Y30974000D01*
X26647000D01*
X26887000Y30734000D01*
X29752000D01*
X29992000Y30974000D01*
X33576000D01*
X34200000Y30350000D01*
X38571600D01*
X39395600Y31174000D01*
X42752100D01*
X43752100Y30174000D01*
X44301900D01*
X44541900Y29934000D01*
X45302000D01*
X45522000Y30154000D01*
X5097000Y18779000D02*
Y19167900D01*
X47797000Y29040100D02*
Y28497000D01*
X47234000Y27934000D01*
X43591900D01*
X43302000Y28223900D01*
Y28698000D01*
X42750000Y29250000D01*
X40400000D01*
X39379100Y28229100D01*
X33271400D01*
X32626300Y27584000D01*
X28852100D01*
X28352100Y27084000D01*
X27941900D01*
X27575900Y27450000D01*
X25200000D01*
X24026000Y28624000D01*
X15542000D01*
X13718000Y26800000D01*
X7668000D01*
X7542000Y26674000D01*
X7538400D01*
X5952000Y25087600D01*
Y23574000D01*
X7007000Y22519000D01*
Y21957900D01*
X44408100Y30429000D02*
X43921400D01*
X42926400Y31424000D01*
X39221300D01*
X38397300Y30600000D01*
X34350000D01*
X32976000Y31974000D01*
X30638400D01*
X29648400Y30984000D01*
X27187000D01*
X26947000Y31224000D01*
X24588300D01*
X24273300Y30909000D01*
X21962000D01*
X21847000Y31024000D01*
X20292000D01*
X18847000Y29579000D01*
X18004500D01*
X17909500Y29674000D01*
X8542000D01*
X5372000Y26504000D01*
Y26229000D01*
X5372000Y26504000D02*
X5097000D01*
X5372000Y26504000D02*
X5097000Y26229000D01*
X6722000Y23754000D02*
X6202000Y24274000D01*
Y24984000D01*
X7642000Y26424000D01*
X16576500D01*
X16841500Y26159000D01*
X18032400D01*
X18302400Y26429000D01*
X22295500D01*
X22704300Y26837800D01*
X27339500D01*
X27593300Y26584000D01*
X28702100D01*
X29102100Y26984000D01*
X33127700D01*
X33817700Y27674000D01*
X43726000D01*
X44471000Y26929000D01*
X45297000D01*
X45522000Y26704000D01*
X4804200Y24733900D02*
X5079200D01*
X4804200Y24733900D02*
Y24458900D01*
X4804200Y24733900D02*
X4547000Y24991100D01*
Y26456900D01*
X8674100Y30584000D01*
X12152000D01*
X12497000Y30929000D01*
X16446900D01*
X16791900Y31274000D01*
X22082000D01*
X22197000Y31159000D01*
X24169700D01*
X24484700Y31474000D01*
X27147000D01*
X27387000Y31234000D01*
X29544800D01*
X30534800Y32224000D01*
X33126000D01*
X34500000Y30850000D01*
X38100000D01*
X39174000Y31924000D01*
X45252000D01*
X46242000Y30934000D01*
X47291900D01*
X47522000Y30704000D01*
X5079200Y24458900D02*
X4804200Y24733900D01*
X11258100Y31779000D02*
X5447000D01*
X5097000Y32129000D01*
X11258100Y37779000D02*
X7147000D01*
X7139500Y37771500D01*
X5102000D01*
X8252200Y19214300D02*
Y18939300D01*
X8252200Y19214300D02*
X7977200D01*
X8252200Y19214300D02*
X9464400Y20426500D01*
X12644600D01*
X14992100Y22774000D01*
X20124000D01*
X20300000Y22950000D01*
X22874000D01*
X23440000Y22384000D01*
X28650700D01*
X29279100Y23012400D01*
X30288100D01*
X30821500Y22479000D01*
X31918800D01*
X32347800Y22050000D01*
X33068000D01*
X33318000Y22300000D01*
X35050000D01*
X36766000Y20584000D01*
X40702000D01*
X41402000Y21284000D01*
X42776400D01*
X42921400Y21429000D01*
X43408100D01*
X7977200Y18939300D02*
X8252200Y19214300D01*
X6722000Y23754000D02*
X6997000D01*
X6722000Y23754000D02*
Y23479000D01*
X6997000Y23479000D02*
X6722000Y23754000D01*
X7007000Y21957900D02*
X7201500Y21763500D01*
X7007000Y21957900D02*
X6812500Y21763500D01*
X7007000Y21957900D02*
Y21569000D01*
X6972000Y24804000D02*
Y24529000D01*
X6972000Y24804000D02*
X6697000D01*
X6972000Y24804000D02*
X8342000Y26174000D01*
X16402100D01*
X16667100Y25909000D01*
X18136000D01*
X18406000Y26179000D01*
X22469900D01*
X22878700Y26587800D01*
X27165200D01*
X27569000Y26184000D01*
X31316300D01*
X31566300Y25934000D01*
X32502100D01*
X33868100Y27300000D01*
X40000000D01*
X40050000Y27250000D01*
X40053600D01*
X40703600Y26600000D01*
X41650000D01*
X42050000Y27000000D01*
X44000000D01*
X44350000Y26650000D01*
X44576000D01*
X44797000Y26429000D01*
X6697000Y24529000D02*
X6972000Y24804000D01*
X8072000Y24854000D02*
Y24529000D01*
X8072000Y24854000D02*
X7797000Y24804000D01*
X8072000Y24854000D02*
X9142000Y25924000D01*
X14802100D01*
X16070300Y24655800D01*
X17236400D01*
X18509600Y25929000D01*
X22644200D01*
X23053000Y26337800D01*
X26633200D01*
X27247000Y25724000D01*
X31352000D01*
X31475400Y25600600D01*
X34575400D01*
X34747000Y25429000D01*
X35408100D01*
X7797000Y24529000D02*
Y24579000D01*
X8072000Y24854000D01*
X47822000Y46154000D02*
X47468000Y45800000D01*
X34450000D01*
X32750000Y47500000D01*
Y48042200D01*
X31941800Y48850000D01*
X31341800Y49450000D01*
Y49458200D01*
X30076000Y50724000D01*
X22202100D01*
X21852100Y51074000D01*
X16638400D01*
X16314100Y50749700D01*
X14200000D01*
X14049700Y50900000D01*
X10795900D01*
X10224900Y50329000D01*
X8735900D01*
X8541500Y50134500D01*
X8735900Y50329000D02*
X8541500Y50523500D01*
X8735900Y50329000D02*
X8347000D01*
X8888900Y71979000D02*
X8694500Y71784500D01*
X8888900Y71979000D02*
X8694500Y72173500D01*
X8888900Y71979000D02*
X8500000D01*
X39217000Y68397900D02*
Y68979000D01*
X37067000Y71129000D01*
X13871000D01*
X13021000Y71979000D01*
X8888900D01*
X7959500Y72950000D02*
X9238500Y74229000D01*
X25508100D01*
X11872000Y28004000D02*
X11547000D01*
X11872000Y28004000D02*
X11597000Y27729000D01*
X11547000D01*
X11258100Y31779000D02*
X11452500Y31973500D01*
X11258100Y31779000D02*
X11452500Y31584500D01*
X11647000Y31779000D02*
X11258100D01*
X11258100Y37779000D02*
X11452500Y37973500D01*
X11258100Y37779000D02*
X11452500Y37584500D01*
X11647000Y37779000D02*
X11258100D01*
X10622000Y52554000D02*
Y52279000D01*
X10622000Y52554000D02*
X10347000D01*
X10622000Y52554000D02*
X10864700Y52796700D01*
X11496700D01*
X11506700Y52806700D01*
X11656700D01*
X13050000Y54200000D01*
X14400000D01*
X15554000Y55354000D01*
X10347000Y52279000D02*
X10622000Y52554000D01*
X11713200Y52301700D02*
X11518800Y52107200D01*
X11713200Y52301700D02*
X11518800Y52496200D01*
X11324300Y52301700D02*
X11713200D01*
X12035900Y66729000D02*
X11647000D01*
X11872000Y28004000D02*
X11822000Y27729000D01*
X45454000Y29154000D02*
X45234000Y28934000D01*
X43566300D01*
X42921300Y29579000D01*
X41021000D01*
X40676000Y29924000D01*
X39591900D01*
X39292000Y29624100D01*
Y29223900D01*
X38618100Y28550000D01*
X33168000D01*
X32502000Y27884000D01*
X28542100D01*
X28352100Y28074000D01*
X27941900D01*
X27617900Y27750000D01*
X25300000D01*
X24176000Y28874000D01*
X12742000D01*
X11872000Y28004000D01*
X30711100Y34900000D02*
X30500000D01*
X30106000Y35294000D01*
X24644000D01*
X24029000Y34679000D01*
X19571000D01*
X18726000Y35524000D01*
X15297000D01*
X14222000Y36599000D01*
X13947000Y36874000D01*
Y36929000D01*
X14222000Y36599000D02*
Y36929000D01*
X14222000Y36599000D02*
X13947000Y36654000D01*
X13222000Y40604000D02*
Y40329000D01*
X13222000Y40604000D02*
X12947000D01*
X13222000Y40604000D02*
X19192000Y46574000D01*
X27392100D01*
X28497000Y47678900D01*
Y49379000D01*
X29072000Y49954000D01*
X12947000Y40329000D02*
X13222000Y40604000D01*
X21258100Y50579000D02*
X18279000D01*
X17350000Y49650000D01*
X15568000D01*
X14247000Y48329000D01*
X13635900D01*
X13441500Y48134500D01*
X13635900Y48329000D02*
X13441500Y48523500D01*
X13635900Y48329000D02*
X13247000D01*
X11713200Y52301700D02*
X12151700D01*
X12624000Y52774000D01*
X14450000D01*
X14795000Y52429000D01*
X16058100D01*
X12997000Y58303000D02*
X12722000Y58304000D01*
X12997000Y58303000D02*
Y58579000D01*
X12997000Y58303000D02*
X13671000Y57629000D01*
X18597000D01*
X19684000Y56542000D01*
X23588100D01*
X12722000Y58579000D02*
Y58578000D01*
X12997000Y58303000D01*
X12035900Y66729000D02*
X11841500Y66534500D01*
X12035900Y66729000D02*
X11841500Y66923500D01*
X12035900Y66729000D02*
X12279000D01*
X12400000Y66850000D01*
X13153900D01*
X13603900Y66400000D01*
X14916000D01*
X15245000Y66729000D01*
X16321000D01*
X17000000Y66050000D01*
X25865000D01*
X26242000Y66427000D01*
X14147000Y66979000D02*
X15746900D01*
X15981900Y67214000D01*
X28282000D01*
X28772000Y67704000D01*
X16122000Y17354000D02*
X15847000D01*
X16122000Y17354000D02*
Y17629000D01*
X16122000Y17354000D02*
X15847000Y17629000D01*
X21613100Y16184000D02*
X21558100Y16129000D01*
X17347000D01*
X16122000Y17354000D01*
X16122000Y21204000D02*
Y20929000D01*
X16122000Y21204000D02*
X15847000D01*
X16122000Y21204000D02*
X16342000Y21424000D01*
X19100000D01*
X19376000Y21700000D01*
X20600000D01*
X21250000Y21050000D01*
X27300000D01*
X27816000Y20534000D01*
X32955000D01*
X33650000Y21229000D01*
X34108100D01*
X15847000Y20929000D02*
X16122000Y21204000D01*
X14872000Y25154000D02*
X14597000D01*
X14872000Y25154000D02*
Y25429000D01*
X14872000Y25154000D02*
X15620200Y24405800D01*
X18773700D01*
X19491900Y25124000D01*
X20348300D01*
X20549300Y24923000D01*
X21449000D01*
X21700000Y25174000D01*
X24651900D01*
X25091900Y24734000D01*
X28534000D01*
X29049800Y25249800D01*
X34076200D01*
X34926000Y24400000D01*
X36327600D01*
X14597000Y25429000D02*
X14872000Y25154000D01*
X35296000Y32704000D02*
X35076000Y32924000D01*
X34250000D01*
X34050000Y32724000D01*
X20342000D01*
X19552000Y31934000D01*
X16192000D01*
X15322000Y32804000D01*
X15047000D01*
X15322000Y32804000D02*
Y33079000D01*
X15322000Y32804000D02*
X15047000Y33079000D01*
X16058100Y52429000D02*
X16252500Y52623500D01*
X16058100Y52429000D02*
X16252500Y52234500D01*
X16058100Y52429000D02*
X16447000D01*
X15554000Y55354000D02*
X15572000Y55629000D01*
X15554000Y55354000D02*
X15847000D01*
X15554000Y55354000D02*
X15829000Y55629000D01*
X15847000D01*
X14885900Y63879000D02*
X14691500Y63684500D01*
X14885900Y63879000D02*
X14691500Y64073500D01*
X14885900Y63879000D02*
X14497000D01*
X34422000Y66404000D02*
X34700000Y66126000D01*
Y65213000D01*
X34337000Y64850000D01*
X33513000D01*
X33320000Y64657000D01*
X27228000D01*
X26450000Y63879000D01*
X19400000D01*
X19071000Y63550000D01*
X17499000D01*
X17170000Y63879000D01*
X14885900D01*
X14885900Y64929000D02*
X14691500Y64734500D01*
X14885900Y64929000D02*
X14691500Y65123500D01*
X14885900Y64929000D02*
X14497000D01*
X14885900Y64929000D02*
X33150000D01*
X33640000Y65419000D01*
X33735100D01*
X16072000Y73604000D02*
Y73329000D01*
X16072000Y73604000D02*
X15797000D01*
X16072000Y73604000D02*
X16447000Y73979000D01*
X24850000D01*
X25095000Y73734000D01*
X32255000D01*
X32700000Y74179000D01*
X33521000D01*
X33800000Y73900000D01*
X37416000D01*
X37747000Y74231000D01*
Y74340100D01*
X15797000Y73329000D02*
X16072000Y73604000D01*
X17322000Y20354000D02*
X17047000D01*
X17322000Y20354000D02*
Y20629000D01*
X17322000Y20354000D02*
X17576000Y20100000D01*
X21434000D01*
X21834000Y19700000D01*
X23226000D01*
X23450000Y19924000D01*
X34952000D01*
X35649500Y19226500D01*
X37802100D01*
X38544600Y18484000D01*
X41852000D01*
X43368000Y20000000D01*
X54350000D01*
X55322000Y19028000D01*
X17047000Y20629000D02*
X17322000Y20354000D01*
X19647000Y22279000D02*
X20035900D01*
X26222000Y53007000D02*
X25850000Y53379000D01*
X19297000D01*
X18972000Y53704000D01*
X18697000D01*
X18972000Y53704000D02*
Y53979000D01*
X18972000Y53704000D02*
X18697000Y53979000D01*
X31443900Y60256100D02*
X31300000Y60400000D01*
X20250000D01*
X18996000Y61654000D01*
X18697000D01*
X18996000Y61654000D02*
X18972000Y61929000D01*
X18996000Y61654000D02*
X18721000Y61929000D01*
X18697000D01*
X18385900Y66702000D02*
X18191500Y66507500D01*
X18385900Y66702000D02*
X18191500Y66896500D01*
X18385900Y66702000D02*
X23588100D01*
X17997000Y66702000D02*
X18385900D01*
X21613100Y16184000D02*
X21807500Y15989500D01*
X21613100Y16184000D02*
X21807500Y16378500D01*
X21613100Y16184000D02*
X22002000D01*
X22385900Y24229000D02*
X22191500Y24034500D01*
X20035900Y22279000D02*
X19841500Y22084500D01*
X20035900Y22279000D02*
X19841500Y22473500D01*
X20035900Y22279000D02*
X20350000D01*
X20721000Y22650000D01*
X22774000D01*
X23290000Y22134000D01*
X28825000D01*
X29453400Y22762400D01*
X30113700D01*
X30676100Y22200000D01*
X31773500D01*
X32173500Y21800000D01*
X33222400D01*
X33472400Y22050000D01*
X34850000D01*
X36566000Y20334000D01*
X40876300D01*
X41476300Y20934000D01*
X46355700D01*
X47450700Y22029000D01*
X47558100D01*
X20160200Y24629000D02*
X19965800Y24434500D01*
X20160200Y24629000D02*
X19965800Y24823500D01*
X20160200Y24629000D02*
X21606000D01*
X21777000Y24800000D01*
X22726100D01*
X23342100Y24184000D01*
X28434000D01*
X29249800Y24999800D01*
X33376200D01*
X34526000Y23850000D01*
X36866600D01*
X37250000Y24233400D01*
Y24650000D01*
X37524000Y24924000D01*
X38652000D01*
X39147000Y24429000D01*
X39408100D01*
X19771300Y24629000D02*
X20160200D01*
X22385900Y24229000D02*
X21997000D01*
X22385900Y24229000D02*
X22191500Y24423500D01*
X21035900Y48129000D02*
X20841500Y47934500D01*
X21035900Y48129000D02*
X20841500Y48323500D01*
X21035900Y48129000D02*
X23029000D01*
X23654000Y48754000D01*
X20647000Y48129000D02*
X21035900D01*
X21258100Y50579000D02*
X21452500Y50773500D01*
X21258100Y50579000D02*
X21452500Y50384500D01*
X21647000Y50579000D02*
X21258100D01*
X20285900Y52579000D02*
X20091500Y52384500D01*
X20285900Y52579000D02*
X20091500Y52773500D01*
X20285900Y52579000D02*
X22419100D01*
X22719100Y52279000D01*
X23174900D01*
X23474900Y52579000D01*
X23508100D01*
X19897000Y52579000D02*
X20285900D01*
X27522000Y55004000D02*
X26847000Y54329000D01*
X21947000D01*
X21772000Y54154000D01*
X21722000Y53879000D01*
X21772000Y54154000D02*
X21447000D01*
X21772000Y54154000D02*
X21497000Y53879000D01*
X21447000D01*
X31958100Y60729000D02*
X22271000D01*
X20096000Y62904000D01*
X19747000D01*
X20096000Y62904000D02*
X20022000Y63179000D01*
X20096000Y62904000D02*
X19821000Y63179000D01*
X19747000D01*
X22385900Y69179000D02*
X22191500Y68984500D01*
X22385900Y69179000D02*
X22191500Y69373500D01*
X21997000Y69179000D02*
X22385900D01*
X22335800Y70567800D02*
X22317100Y70292800D01*
X22335800Y70567800D02*
X22042100D01*
X22335800Y70567800D02*
X22547000Y70779000D01*
X28497000D01*
X29572000Y69704000D01*
X22042100Y70292800D02*
X22060800D01*
X22335800Y70567800D01*
X42472000Y22104000D02*
X42252000Y21884000D01*
X36367700D01*
X35401700Y22850000D01*
X34150000D01*
X33626000Y23374000D01*
X31352000D01*
X31242000Y23484000D01*
Y23484100D01*
X30952100Y23774000D01*
X29616400D01*
X28476400Y22634000D01*
X24192000D01*
X22597000Y24229000D01*
X22385900D01*
X24671400Y27122800D02*
X24396400Y27125000D01*
X24671400Y27122800D02*
Y27400000D01*
X24671400Y27122800D02*
X24398600D01*
X24396400Y27125000D01*
X24396400Y27400000D02*
Y27397800D01*
X24671400Y27122800D01*
X27478800D01*
X27767600Y26834000D01*
X28527700D01*
X28977700Y27284000D01*
X32750600D01*
X33445700Y27979100D01*
X39529100D01*
X40550000Y29000000D01*
X42226000D01*
X42522000Y28704000D01*
X38504000Y32154000D02*
X38284000Y31934000D01*
X33849200D01*
X33309200Y32474000D01*
X30431000D01*
X29441000Y31484000D01*
X27742100D01*
X27502100Y31724000D01*
X24381100D01*
X24311100Y31654000D01*
X23260900D01*
X23066500Y31459500D01*
X23260900Y31654000D02*
X23066500Y31848500D01*
X23260900Y31654000D02*
X22872000D01*
X25285900Y30479000D02*
X24897000D01*
X22835900Y34129000D02*
X22641500Y33934500D01*
X22835900Y34129000D02*
X22641500Y34323500D01*
X22835900Y34129000D02*
X23297000D01*
X24422000Y33004000D01*
X31454000D01*
X32650000Y34200000D01*
X35726100D01*
X36302000Y33624100D01*
Y33223900D01*
X36591900Y32934000D01*
X37002100D01*
X37347100Y33279000D01*
X40545600D01*
X41190600Y33924000D01*
X45302000D01*
X45522000Y33704000D01*
X22447000Y34129000D02*
X22835900D01*
X23535900Y37229000D02*
X23341500Y37034500D01*
X23535900Y37229000D02*
X23341500Y37423500D01*
X23535900Y37229000D02*
X29797000D01*
X29872000Y37154000D01*
X23147000Y37229000D02*
X23535900D01*
X23654000Y48754000D02*
X23929000Y49029000D01*
X23947000D01*
X23654000Y48754000D02*
X23947000D01*
X23654000Y48754000D02*
X23672000Y49029000D01*
X23508100Y52579000D02*
X23702500Y52773500D01*
X23508100Y52579000D02*
X23702500Y52384500D01*
X23508100Y52579000D02*
X23897000D01*
X39622000Y50304000D02*
X37952000Y51974000D01*
X25042000D01*
X24530000Y51462000D01*
X24365900D01*
X23977000D01*
X24365900Y51462000D02*
X24171500Y51656500D01*
X24365900Y51462000D02*
X24171500Y51267500D01*
X23588100Y56542000D02*
X23782500Y56736500D01*
X23588100Y56542000D02*
X23782500Y56347500D01*
X23588100Y56542000D02*
X23977000D01*
X23588100Y66702000D02*
X23977000D01*
X23588100Y66702000D02*
X23782500Y66507500D01*
X23588100Y66702000D02*
X23782500Y66896500D01*
X22385900Y69179000D02*
X22700000D01*
X22971000Y69450000D01*
X25326000D01*
X26047000Y68729000D01*
X30771000D01*
X31253000Y68247000D01*
X25714900Y23150000D02*
X25491500Y22984500D01*
X25714900Y23150000D02*
X25491500Y23373500D01*
X25714900Y23150000D02*
X26034000D01*
X26150000Y23034000D01*
X28452100D01*
X29492100Y24074000D01*
X31102000D01*
X31542000Y23634000D01*
X33893400D01*
X34327400Y23200000D01*
X35476000D01*
X35742000Y22934000D01*
X40284000D01*
X40473600Y23123600D01*
X25297000Y23179000D02*
Y23279000D01*
X25426000Y23150000D01*
X25714900D01*
X44472300Y29650000D02*
X44198300Y29924000D01*
X41276000D01*
X40276000Y30924000D01*
X39569900D01*
X38569900Y29924000D01*
X28252000D01*
X28007000Y30169000D01*
X27997000D01*
X27687000Y30479000D01*
X25285900D01*
X25091500Y30284500D01*
X25285900Y30479000D02*
X25091500Y30673500D01*
X25572000Y33804000D02*
Y33529000D01*
X25572000Y33804000D02*
X25297000D01*
X25572000Y33804000D02*
X26018000Y34250000D01*
X31950000D01*
X32250000Y34550000D01*
X36500000D01*
X36771200Y34278900D01*
Y34278800D01*
X37416000Y33634000D01*
X40476300D01*
X41766300Y34924000D01*
X45302000D01*
X45522000Y34704000D01*
X25297000Y33529000D02*
X25572000Y33804000D01*
X26222000Y53007000D02*
X26497000D01*
X26222000Y53007000D02*
Y52732000D01*
X26497000Y52732000D02*
X26222000Y53007000D01*
X38608100Y49979000D02*
X31521000D01*
X30521100Y50978900D01*
X27347100D01*
X26897000Y51429000D01*
X25635900D01*
X25441500Y51234500D01*
X25635900Y51429000D02*
X25441500Y51623500D01*
X25635900Y51429000D02*
X25247000D01*
X27522000Y55004000D02*
Y55279000D01*
X27522000Y55004000D02*
X27797000D01*
X27797000Y55279000D02*
X27522000Y55004000D01*
X26242000Y66427000D02*
Y66702000D01*
X26242000Y66427000D02*
X26517000D01*
X26242000Y66427000D02*
X26517000Y66702000D01*
X36458100Y74429000D02*
X28379000D01*
X28179000Y74229000D01*
X26285900D01*
X25897000D01*
X26285900Y74229000D02*
X26091500Y74423500D01*
X26285900Y74229000D02*
X26091500Y74034500D01*
X25508100Y74229000D02*
X25897000D01*
X25508100Y74229000D02*
X25702500Y74034500D01*
X25508100Y74229000D02*
X25702500Y74423500D01*
X29072000Y14704000D02*
X28797000D01*
X29072000Y14704000D02*
Y14979000D01*
X29072000Y14704000D02*
X32326000Y11450000D01*
X39000000D01*
X42124000Y14574000D01*
X49939600D01*
X53047000Y17681400D01*
Y17840100D01*
X28797000Y14979000D02*
X29072000Y14704000D01*
X28415900Y17249000D02*
X28221500Y17054500D01*
X28415900Y17249000D02*
X28221500Y17443500D01*
X28415900Y17249000D02*
X28799100D01*
X29019100Y17029000D01*
X29474900D01*
X29754900Y17309000D01*
X32020000D01*
X32150000Y17179000D01*
X32724900D01*
X32904900Y17359000D01*
X42709000D01*
X43629000Y18279000D01*
X46447000D01*
X47122000Y17604000D01*
X28027000Y17249000D02*
X28415900D01*
X30172000Y16454000D02*
Y16179000D01*
X30172000Y16454000D02*
X29897000D01*
X30172000Y16454000D02*
X30522000Y16804000D01*
X31696000D01*
X29897000Y16179000D02*
X30172000Y16454000D01*
X41408100Y25429000D02*
X40829000D01*
X40302000Y24902000D01*
Y24233900D01*
X40002100Y23934000D01*
X37376300D01*
X36992300Y23550000D01*
X34401700D01*
X34017700Y23934000D01*
X31666000D01*
X31226000Y24374000D01*
X29869900D01*
X29869800Y24374100D01*
X29372800D01*
X29372700Y24374000D01*
X29124000D01*
X28554000Y23804000D01*
X28522000Y23529000D01*
X28554000Y23804000D02*
X28247000D01*
X28554000Y23804000D02*
X28279000Y23529000D01*
X28247000D01*
X63008100Y25179000D02*
X61929000D01*
X60629000Y23879000D01*
X59997000D01*
X57052000Y20934000D01*
X48542100D01*
X48002100Y21474000D01*
X47391900D01*
X46551900Y20634000D01*
X41600600D01*
X41050600Y20084000D01*
X36416000D01*
X34700000Y21800000D01*
X33600000D01*
X32704000Y20904000D01*
X31396100D01*
X30032500Y22267400D01*
X29853100Y22087900D01*
X30032500Y22267400D02*
X29853100Y22446800D01*
X30032500Y22267400D02*
X29658600D01*
X29872000Y37154000D02*
X30147000D01*
X29872000Y37154000D02*
Y36879000D01*
X29872000Y37154000D02*
X30147000Y36879000D01*
X28916400Y36240000D02*
X28722000Y36045500D01*
X28916400Y36240000D02*
X28722000Y36434500D01*
X28916400Y36240000D02*
X31990000D01*
X32200000Y36450000D01*
X36776000D01*
X37522000Y35704000D01*
X28527500Y36240000D02*
X28916400D01*
X29072000Y49954000D02*
Y50229000D01*
X29072000Y49954000D02*
X29347000D01*
X29072000Y49954000D02*
X29347000Y50229000D01*
X28772000Y67704000D02*
Y67979000D01*
X28772000Y67704000D02*
X29047000D01*
X28772000Y67704000D02*
X29047000Y67979000D01*
X29572000Y69704000D02*
X29847000D01*
X29572000Y69704000D02*
Y69429000D01*
X29572000Y69704000D02*
X29847000Y69429000D01*
X31022000Y23004000D02*
X30747000D01*
X31022000Y23004000D02*
Y23279000D01*
X31022000Y23004000D02*
X31246900Y22779100D01*
X32043000D01*
X32522100Y22300000D01*
X32950000D01*
X33200000Y22550000D01*
X35277400D01*
X36193400Y21634000D01*
X42702100D01*
X42992100Y21924000D01*
X45563600D01*
X45591900Y21895700D01*
X46963800D01*
X47592100Y22524000D01*
X49001900D01*
X49541900Y21984000D01*
X54301400D01*
X56596400Y24279000D01*
X60047000D01*
X61647000Y25879000D01*
X62208100D01*
X30747000Y23279000D02*
X31022000Y23004000D01*
X30711100Y34900000D02*
X30905500Y34705500D01*
X31488900Y34900000D02*
X31294500Y34705500D01*
X30711100Y34900000D02*
X30905500Y35094500D01*
X31488900Y34900000D02*
X31294500Y35094500D01*
X31488900Y34900000D02*
X36549900D01*
X36900100Y34550000D01*
Y34549900D01*
X37566000Y33884000D01*
X40302000D01*
X42368000Y35950000D01*
X45046900D01*
X45591900Y35405000D01*
X45595000D01*
X46066000Y34934000D01*
X48316000D01*
X48522000Y34728000D01*
X31100000Y34900000D02*
X31488900D01*
X31100000Y34900000D02*
X30711100D01*
X31443900Y60256100D02*
X31718900Y60254000D01*
X31443900Y60256100D02*
Y59979000D01*
X31443900Y60256100D02*
X31718900Y59981100D01*
Y59979000D01*
X31958100Y60729000D02*
X32152500Y60923500D01*
X31958100Y60729000D02*
X32152500Y60534500D01*
X31958100Y60729000D02*
X32347000D01*
X31253000Y68247000D02*
X31597000D01*
X31253000Y68247000D02*
X31322000Y67972000D01*
X31253000Y68247000D02*
X31528000Y67972000D01*
X31597000D01*
X33822000Y15954000D02*
X33547000D01*
X33822000Y15954000D02*
Y16229000D01*
X33822000Y15954000D02*
X34089500Y15686500D01*
X40754500D01*
X40772000Y15704000D01*
X33547000Y16229000D02*
X33822000Y15954000D01*
X34772000Y20954000D02*
X34497000D01*
X34772000Y20954000D02*
Y21229000D01*
X34772000Y20954000D02*
X35892000Y19834000D01*
X41224900D01*
X41724900Y20334000D01*
X58202000D01*
X62172000Y24304000D01*
X34108100Y21229000D02*
X34302500Y21423500D01*
X34108100Y21229000D02*
X34302500Y21034500D01*
X34108100Y21229000D02*
X34497000D01*
X34772000Y20954000D01*
X35408100Y25429000D02*
X35602500Y25623500D01*
X35408100Y25429000D02*
X35602500Y25234500D01*
X35408100Y25429000D02*
X35797000D01*
X35296000Y32704000D02*
X35522000Y32429000D01*
X35797000Y32429000D02*
X35571000D01*
X35296000Y32704000D01*
X35246000Y33154000D02*
X35072000Y33429000D01*
X35246000Y33154000D02*
X34971000Y33429000D01*
X34797000D01*
X35246000Y33154000D02*
X35466000Y32934000D01*
X36167600D01*
X36467600Y32634000D01*
X37126400D01*
X37416400Y32924000D01*
X47591900D01*
X47594900Y32927000D01*
X47722700D01*
X47742100Y32946400D01*
X48672400D01*
X49155000Y33429000D01*
X52708100D01*
X34947000Y39287600D02*
Y38953000D01*
X35500000Y38400000D01*
X37276000D01*
X38272000Y37404000D01*
X34947000Y39287600D02*
Y39676500D01*
X34947000Y39287600D02*
X35141500Y39482000D01*
X34947000Y39287600D02*
X34752500Y39482000D01*
X34422000Y66404000D02*
X34147000D01*
X34422000Y66404000D02*
Y66679000D01*
X34422000Y66404000D02*
X34147000Y66679000D01*
X33735100Y65419000D02*
X33942500Y65626500D01*
X33735100Y65419000D02*
X33942500Y65237500D01*
X33735100Y65419000D02*
X34124000D01*
X34137000Y65432000D01*
X38185900Y23429000D02*
X37991500Y23234500D01*
X38185900Y23429000D02*
X37991500Y23623500D01*
X38185900Y23429000D02*
X37797000D01*
X72847000Y35990100D02*
Y34147000D01*
X69850000Y31150000D01*
X68750000D01*
X64100000Y26500000D01*
X60018000D01*
X58597000Y25079000D01*
X54372700D01*
X53822700Y24529000D01*
X51731600D01*
X50629200Y23426600D01*
X47799500D01*
X47252100Y23974000D01*
X45536500D01*
X45486500Y23924000D01*
X40416400D01*
X39921400Y23429000D01*
X38185900D01*
X36327600Y24400000D02*
X36522400Y24594900D01*
X36327600Y24400000D02*
X36522400Y24205900D01*
X36327600Y24400000D02*
X36676700D01*
X36697000Y24420300D01*
X36716900Y24400400D01*
Y24566900D01*
X37292000Y25142000D01*
Y25624100D01*
X37591900Y25924000D01*
X42076000D01*
X42292000Y25708000D01*
Y25233900D01*
X42591900Y24934000D01*
X46426500D01*
X47016500Y25524000D01*
X50002100D01*
X50392100Y25134000D01*
X53202100D01*
X53492000Y25423900D01*
Y25474100D01*
X55741900Y27724000D01*
X62576000D01*
X62922000Y27378000D01*
X52608100Y25629000D02*
X51397100D01*
X50552100Y26474000D01*
X48224000D01*
X47684000Y25934000D01*
X42466000D01*
X42121000Y26279000D01*
X40671000D01*
X39950000Y27000000D01*
X37400000D01*
X36797000Y26397000D01*
Y25817900D01*
X36991500Y25623500D01*
X36797000Y25817900D02*
X36602500Y25623500D01*
X36797000Y25817900D02*
Y25429000D01*
X38272000Y37404000D02*
Y37129000D01*
X38272000Y37404000D02*
X38547000Y37129000D01*
X36450000Y35550000D02*
Y35776000D01*
X37292000Y34934000D01*
X40402000D01*
X41868000Y36400000D01*
X44505000D01*
X45005000Y36900000D01*
X50450000D01*
X51250000Y36100000D01*
X58921000D01*
X59300000Y36479000D01*
X65911100D01*
X37522000Y35704000D02*
X37797000D01*
X37522000Y35704000D02*
Y35429000D01*
X37522000Y35704000D02*
X37797000Y35429000D01*
X38272000Y37404000D02*
X38547000D01*
X36458100Y74429000D02*
X36652500Y74623500D01*
X36458100Y74429000D02*
X36652500Y74234500D01*
X36847000Y74429000D02*
X36458100D01*
X37747000Y74340100D02*
Y74729000D01*
X37747000Y74340100D02*
X37941500Y74534500D01*
X37747000Y74340100D02*
X37552500Y74534500D01*
X38922000Y12304000D02*
Y12029000D01*
X38922000Y12304000D02*
X38647000D01*
X38922000Y12304000D02*
X41618000Y15000000D01*
X45768000D01*
X46350000Y15582000D01*
Y17326000D01*
X46242000Y17434000D01*
X38647000Y12029000D02*
X38922000Y12304000D01*
X40772000Y15704000D02*
Y15979000D01*
X40772000Y15704000D02*
X41047000D01*
X40772000Y15704000D02*
X41047000Y15979000D01*
X41137500Y23427200D02*
X40943100Y23232700D01*
X41137500Y23427200D02*
X40943100Y23621700D01*
X40473600Y23123600D02*
Y23427200D01*
X40473600Y23123600D02*
X40748600Y23152200D01*
X40473600Y23123600D02*
X40748600Y23398600D01*
Y23427200D01*
X41137500D01*
X39408100Y24429000D02*
X39602500Y24623500D01*
X39408100Y24429000D02*
X39602500Y24234500D01*
X39408100Y24429000D02*
X39797000D01*
X38504000Y32154000D02*
X38522000Y32429000D01*
X38504000Y32154000D02*
X38797000D01*
X38797000Y32429000D02*
X38779000D01*
X38504000Y32154000D01*
X38608100Y49979000D02*
X38802500Y50173500D01*
X38608100Y49979000D02*
X38802500Y49784500D01*
X38997000Y49979000D02*
X38608100D01*
X39622000Y50304000D02*
X39897000D01*
X39622000Y50304000D02*
Y50029000D01*
X39897000Y50029000D02*
X39622000Y50304000D01*
X39217000Y68009000D02*
Y68397900D01*
X39022500Y68203500D01*
X39217000Y68397900D02*
X39411500Y68203500D01*
X42972000Y12204000D02*
Y11929000D01*
X42972000Y12204000D02*
X42697000D01*
X42972000Y12204000D02*
X43247000Y12479000D01*
X65997000D01*
X66672000Y13154000D01*
X42697000Y11929000D02*
X42972000Y12204000D01*
X43408100Y21429000D02*
X43602500Y21234500D01*
X43408100Y21429000D02*
X43602500Y21623500D01*
X43408100Y21429000D02*
X43797000D01*
X41137500Y23427200D02*
X42656800D01*
X43150000Y22934000D01*
X47202100D01*
X47394700Y23126600D01*
X50753500D01*
X51855900Y24229000D01*
X54396900D01*
X54991900Y24824000D01*
X59592000D01*
X59622000Y24854000D01*
X42472000Y22104000D02*
Y22379000D01*
X42472000Y22104000D02*
X42747000D01*
X42747000Y22379000D02*
X42472000Y22104000D01*
X41408100Y25429000D02*
X41602500Y25623500D01*
X41408100Y25429000D02*
X41602500Y25234500D01*
X41797000Y25429000D02*
X41408100D01*
X42522000Y28704000D02*
X42797000D01*
X42522000Y28704000D02*
Y28429000D01*
X42522000Y28704000D02*
X42797000Y28429000D01*
X44735900Y11929000D02*
X44541500Y11734500D01*
X44735900Y11929000D02*
X44541500Y12123500D01*
X44735900Y11929000D02*
X77746800D01*
X78947200Y10729000D01*
X85208100D01*
X44347000Y11929000D02*
X44735900D01*
X44408100Y17479000D02*
X44602500Y17673500D01*
X44408100Y17479000D02*
X44602500Y17284500D01*
X44797000Y17479000D02*
X44408100D01*
X46242000Y17434000D02*
X45967000Y17454000D01*
X46242000Y17434000D02*
Y17729000D01*
X46242000Y17434000D02*
X45967000Y17709000D01*
Y17729000D01*
X44185900Y24429000D02*
X43991500Y24234500D01*
X44185900Y24429000D02*
X43991500Y24623500D01*
X44185900Y24429000D02*
X46897000D01*
X47397000Y24929000D01*
X49196900D01*
X49591900Y24534000D01*
X50002100D01*
X50297100Y24829000D01*
X53547000D01*
X55672000Y26954000D01*
X43797000Y24429000D02*
X44185900D01*
X45522000Y26704000D02*
X45797000D01*
X45522000Y26704000D02*
Y26429000D01*
X45522000Y26704000D02*
X45797000Y26429000D01*
X45454000Y29154000D02*
X45522000Y29429000D01*
X45454000Y29154000D02*
X45797000D01*
X45454000Y29154000D02*
X45729000Y29429000D01*
X45797000D01*
X44408100Y30429000D02*
X44602500Y30623500D01*
X44408100Y30429000D02*
X44602500Y30234500D01*
X44797000Y30429000D02*
X44408100D01*
X45522000Y30154000D02*
X45797000Y30429000D01*
X45522000Y30154000D02*
X45797000D01*
X45522000Y30154000D02*
Y30429000D01*
X44472300Y29650000D02*
X44602600Y29519800D01*
X44797000Y29429000D02*
Y29479000D01*
X44626000Y29650000D01*
X44472300D01*
X45522000Y33704000D02*
X45797000Y33429000D01*
X45522000Y33704000D02*
Y33429000D01*
X45522000Y33704000D02*
X45797000D01*
X45522000Y34704000D02*
X45797000D01*
X45522000Y34704000D02*
Y34429000D01*
X45522000Y34704000D02*
X45797000Y34429000D01*
X47122000Y17604000D02*
X47397000D01*
X47122000Y17604000D02*
Y17329000D01*
X47122000Y17604000D02*
X47397000Y17329000D01*
X47558100Y22029000D02*
X47752500Y22223500D01*
X47558100Y22029000D02*
X47752500Y21834500D01*
X47558100Y22029000D02*
X47947000D01*
X47797000Y29040100D02*
X47602500Y29234500D01*
X47797000Y29040100D02*
X47991500Y29234500D01*
X47797000Y29040100D02*
Y29429000D01*
X47522000Y30704000D02*
X47797000D01*
X47522000Y30704000D02*
Y30429000D01*
X47522000Y30704000D02*
X47797000Y30429000D01*
X48522000Y34728000D02*
X48797000Y34453000D01*
Y34429000D01*
X48522000Y34728000D02*
Y34429000D01*
X48522000Y34728000D02*
X48797000Y34704000D01*
X47822000Y46154000D02*
Y46429000D01*
X47822000Y46154000D02*
X48097000D01*
X48097000Y46429000D02*
X47822000Y46154000D01*
X51319500Y63739000D02*
X51569400D01*
X51763800Y63544600D01*
X52603700D01*
X52778800Y63369600D01*
X52779300D01*
X52799700Y63349200D01*
X52830700Y63318300D01*
X52860400Y63288600D01*
X53833200Y62317000D01*
X55319500Y60830700D01*
Y60829500D01*
X55344500Y60804500D01*
Y52208900D01*
X55549400Y52004000D01*
X55549500D01*
X58114500Y49439000D01*
X62464500D01*
X62664500Y49239000D01*
X63729500D01*
X64344500Y48624000D01*
X51997000Y64982900D02*
X51608100D01*
X51358400Y65539000D02*
X51114000Y65394500D01*
X51358400Y65539000D02*
X51114000Y65783500D01*
X51358400Y65539000D02*
X52093800D01*
X52465300Y65167500D01*
X53070500Y64563000D01*
X53166300Y64467200D01*
X53214000Y64419600D01*
X53295000Y64338800D01*
X53355000Y64279000D01*
X53513500Y64120500D01*
X55535000Y62101700D01*
X55657000Y61979800D01*
X55711700Y61925200D01*
X55759400Y61877600D01*
X55759500D01*
X55837200Y61799900D01*
X55914800Y61722400D01*
X55914900D01*
X55945600Y61691600D01*
X56062100Y61575200D01*
X56164500Y61472800D01*
X56369500Y61267900D01*
Y61264500D01*
X56394500Y61239500D01*
Y55818700D01*
X57214400Y54998800D01*
X57214500D01*
X61324700Y50888600D01*
X61712700D01*
X61890900Y50710400D01*
X50919500Y65589000D02*
X50969500Y65539000D01*
X51358400D01*
X65852200Y49943900D02*
X65522300Y49614000D01*
X64552000D01*
X64244500Y49921500D01*
Y50051500D01*
X63632000Y50664000D01*
X62680000D01*
X62105200Y51238800D01*
X62049600D01*
X62049500Y51238700D01*
X61759600D01*
X61759500Y51238600D01*
X61469700D01*
X57359500Y55348800D01*
X57359400D01*
X56744500Y55963700D01*
Y61384500D01*
X56719500Y61409500D01*
Y61412900D01*
X56309600Y61822800D01*
X56193100Y61939200D01*
X56059900Y62072400D01*
X56059800D01*
X55904500Y62227700D01*
X55904200D01*
X55782300Y62349400D01*
X55699200Y62432400D01*
X53606600Y64522400D01*
X53602400Y64526600D01*
X53542400Y64586500D01*
X53372400Y64756400D01*
X53359300Y64769600D01*
X53359000D01*
X53358800Y64769800D01*
X53317800Y64810700D01*
X53215400Y64913100D01*
X53215300D01*
X52771200Y65356700D01*
X52771000Y65357300D01*
X51939600Y66188900D01*
X51334500D01*
X51031600Y66491800D01*
X50564200D01*
X50369800Y66297300D01*
X50564200Y66491800D02*
X50369800Y66686300D01*
X50564200Y66491800D02*
X50175300D01*
X50419500Y67306000D02*
X50712500D01*
X51479600Y66538900D01*
X52084600D01*
X53093500Y65529900D01*
X53093600Y65529400D01*
X53360300Y65263100D01*
X53360400D01*
X53485600Y65138000D01*
X53504000Y65119600D01*
X53504200D01*
X53619900Y65004000D01*
X53789800Y64834100D01*
X53849700Y64774300D01*
X54536200Y64088700D01*
X55060600Y63565000D01*
X55946500Y62680200D01*
X56049100Y62577800D01*
X56049400D01*
X56204800Y62422400D01*
X56204900D01*
X56388500Y62238900D01*
X56497100Y62130400D01*
X57069500Y61558000D01*
Y61554500D01*
X57094500Y61529500D01*
Y56108700D01*
X57504400Y55698800D01*
X57504500D01*
X61614600Y51588700D01*
X61904500D01*
X61904600Y51588800D01*
X62194400D01*
X62194500Y51588900D01*
X62250100D01*
X62825000Y51014000D01*
X63894500D01*
X64494500Y50414000D01*
X64244500Y52589000D02*
X63869500D01*
X63469500Y52989000D01*
X62194300D01*
X58494500Y56688800D01*
Y62109500D01*
X58469500Y62134500D01*
Y62138400D01*
X57169500Y63438400D01*
Y63438900D01*
X50519400Y70089000D01*
X50508400D01*
X49758400Y69539000D02*
X49564000Y69344500D01*
X49758400Y69539000D02*
X50569600D01*
X53938700Y66169900D01*
X53943500D01*
X56819500Y63293900D01*
Y63293300D01*
X58119500Y61993300D01*
Y61989500D01*
X58144500Y61964500D01*
Y56543800D01*
X62049400Y52638900D01*
X62339300D01*
X62339400Y52639000D01*
X62757500D01*
X63144500Y52252000D01*
X63319500D01*
X50108400Y67856000D02*
X49914000Y67661500D01*
X50108400Y67856000D02*
X49914000Y68050500D01*
X50108400Y67856000D02*
X50657500D01*
X51624600Y66888900D01*
X52229700D01*
X53238600Y65879900D01*
X53443600Y65674900D01*
X53443700Y65674600D01*
X53505300Y65613100D01*
X53560200Y65558300D01*
X53630500Y65488100D01*
X53649000Y65469600D01*
X53649100D01*
X53867300Y65251600D01*
X53959300Y65159700D01*
X56194000Y62927800D01*
X56194400D01*
X56349800Y62772400D01*
X56349900D01*
X56635900Y62486500D01*
X56744600Y62378000D01*
X57419500Y61703100D01*
Y61699500D01*
X57444500Y61674500D01*
Y56253700D01*
X57649400Y56048800D01*
X57649500D01*
X61759500Y51938800D01*
X62049400D01*
X62049500Y51938900D01*
X62395100D01*
X62957100Y51376900D01*
X64142700D01*
X49719500Y67856000D02*
X50108400D01*
X50344500Y68664000D02*
X50069500D01*
X50344500Y68664000D02*
Y68939000D01*
X50344500Y68664000D02*
X51769500Y67239000D01*
X52374600D01*
X53588700Y66024900D01*
Y66024800D01*
X53780600Y65832900D01*
X53785300Y65828300D01*
X53793800Y65819800D01*
X56339000Y63277800D01*
X56339400D01*
X56339500Y63277700D01*
X56339600D01*
X56494900Y63122400D01*
X56786300Y62831100D01*
X57063200Y62554500D01*
X57769500Y61848200D01*
Y61844500D01*
X57794500Y61819500D01*
Y56398800D01*
X61904400Y52288900D01*
X62484300D01*
X62484400Y52289000D01*
X62540100D01*
X62794500Y52034600D01*
Y52034500D01*
X63102000Y51727000D01*
X63707500D01*
X63844500Y51864000D01*
X64787000D01*
X65094500Y51556500D01*
Y51551700D01*
X65144500Y51501700D01*
X50069500Y68939000D02*
X50344500Y68664000D01*
X49783400Y70614000D02*
X49564000Y70394500D01*
X49783400Y70614000D02*
X49564000Y70783500D01*
X49783400Y70614000D02*
X49394500D01*
X49369500Y70589000D01*
X63469500Y53589000D02*
X63319500Y53739000D01*
X61939300D01*
X58844500Y56833800D01*
Y62254500D01*
X58819500Y62279500D01*
Y62283600D01*
X58719600Y62383500D01*
X58619600Y62483400D01*
Y62483600D01*
X57519500Y63583700D01*
Y63584000D01*
X50489500Y70614000D01*
X49783400D01*
X50508400Y70089000D02*
X50314000Y69894500D01*
X50508400Y70089000D02*
X50314000Y70283500D01*
X50508400Y70089000D02*
X50119500D01*
X49758400Y69539000D02*
X49564000Y69733500D01*
X49369500Y69539000D02*
X49758400D01*
X53047000Y17840100D02*
Y18229000D01*
X53047000Y17840100D02*
X53241500Y18034500D01*
X53047000Y17840100D02*
X52852500Y18034500D01*
X52608100Y25629000D02*
X52802500Y25823500D01*
X52608100Y25629000D02*
X52802500Y25434500D01*
X52997000Y25629000D02*
X52608100D01*
X52708100Y33429000D02*
X52902500Y33623500D01*
X52708100Y33429000D02*
X52902500Y33234500D01*
X52708100Y33429000D02*
X53097000D01*
X53219500Y59850100D02*
Y59248900D01*
X53619500Y58848900D01*
Y56376600D01*
X53444500Y56201600D01*
Y52914000D01*
X53444400Y52913900D01*
Y52624100D01*
X53619500Y52449000D01*
Y52448900D01*
X53824400Y52244000D01*
X53824500D01*
X54294500Y51774000D01*
Y51773900D01*
X55114400Y50954000D01*
X55114500D01*
X57879600Y48188900D01*
X58169400D01*
X58169500Y48189000D01*
X61639500D01*
X63342300Y46486200D01*
X64909000D01*
X65259000Y46136200D01*
X66573900D01*
X68371000Y47933300D01*
X61030600Y47639000D02*
X57934400D01*
X53094500Y52478900D01*
Y52479000D01*
X53094400Y52479100D01*
Y53058900D01*
X53094500Y53059000D01*
Y56346700D01*
X53194500Y56446700D01*
Y58714000D01*
X52744500Y59164000D01*
X53447000Y61090100D02*
Y60754000D01*
X53769500Y60431500D01*
Y59193900D01*
X53969500Y58993900D01*
Y56231500D01*
X53794500Y56056500D01*
Y52769000D01*
X54644500Y51919000D01*
Y51918900D01*
X55259400Y51304000D01*
X55259500D01*
X58024500Y48539000D01*
X61784500D01*
X63484500Y46839000D01*
X65051200D01*
X65404000Y46486200D01*
X66166700D01*
X68413800Y48733300D01*
X69925200D01*
X70244500Y48414000D01*
X52458400Y63019600D02*
X52633700D01*
X52637300Y63016100D01*
X52633900Y63019600D01*
X52634400D01*
X54994500Y60659500D01*
Y52063900D01*
X55404400Y51654000D01*
X55404500D01*
X57969600Y49088900D01*
X58259400D01*
X58259500Y49089000D01*
X62319500D01*
X63294500Y48114000D01*
X64112000D01*
X64402000Y47824000D01*
X64837000D01*
X65002000Y47989000D01*
X65180600D01*
X53219500Y59850100D02*
X53025000Y60044500D01*
X53219500Y59850100D02*
X53414000Y60044500D01*
X53219500Y60239000D02*
Y59850100D01*
X52744500Y59164000D02*
X52469500D01*
X52744500Y59164000D02*
Y59439000D01*
X52744500Y59164000D02*
X52469500Y59439000D01*
X53447000Y61090100D02*
X53252500Y61284500D01*
X53447000Y61090100D02*
X53641500Y61284500D01*
X53447000Y61479000D02*
Y61090100D01*
X52458400Y63019600D02*
X52264000Y62825100D01*
X52458400Y63019600D02*
X52264000Y63214100D01*
X52069500Y63019600D02*
X52458400D01*
X65849200Y49316100D02*
X65719400D01*
X65667300Y49264000D01*
X64407000D01*
X63894500Y49776500D01*
Y49906500D01*
X63487000Y50314000D01*
X62237000D01*
X62108400Y50185400D01*
X61532900D01*
X57069500Y54648800D01*
X57069400D01*
X56044500Y55673700D01*
Y61094500D01*
X56019500Y61119500D01*
Y61122800D01*
X55917000Y61225300D01*
X55814600Y61327600D01*
X55619400Y61522700D01*
X55614500Y61527600D01*
X55614400D01*
X55478000Y61663800D01*
X55455300Y61686500D01*
X54120400Y63019700D01*
X53294400Y63844600D01*
X53107700Y64031300D01*
X53069200Y64069600D01*
X53068800D01*
X52937500Y64200800D01*
X52864000Y64274200D01*
X52863900Y64274400D01*
X52750500Y64387900D01*
X52655100Y64483200D01*
X52599200Y64539000D01*
X52170100Y64967500D01*
X52154700Y64982900D01*
X51997000D01*
X62880600Y49789000D02*
X58259500D01*
X55694500Y52354000D01*
Y60949500D01*
X55669500Y60974500D01*
Y60977700D01*
X55586300Y61060800D01*
X55518100Y61128900D01*
X55469500Y61177500D01*
X55231700Y61415100D01*
X54693800Y61952300D01*
X53078100Y63565900D01*
X53047000Y63597000D01*
X52923900Y63719600D01*
X52923800D01*
X52807000Y63836400D01*
X52690100Y63953200D01*
X52576300Y64066700D01*
X52576200Y64067100D01*
X52454300Y64189000D01*
X52214000Y64046900D01*
X51997000Y64982900D02*
X51802600Y64788400D01*
X51997000Y64982900D02*
X51802600Y65177400D01*
X52454300Y64189000D02*
X52214000Y64429300D01*
X52454300Y64189000D02*
X52069500D01*
X52019500Y64239000D01*
X55322000Y19028000D02*
Y18729000D01*
X55322000Y19028000D02*
X55597000Y18753000D01*
Y18729000D01*
X55322000Y19028000D02*
X55597000Y19004000D01*
X55672000Y26954000D02*
Y27229000D01*
X55672000Y26954000D02*
X55947000D01*
X55672000Y26954000D02*
X55947000Y27229000D01*
X54888900Y34700000D02*
X54694500Y34505500D01*
X54888900Y34700000D02*
X54694500Y34894500D01*
X54888900Y34700000D02*
X62268100D01*
X63168100Y35600000D01*
X66350000D01*
X67100000Y36350000D01*
Y36587100D01*
X54500000Y34700000D02*
X54888900D01*
X68435800Y50314000D02*
X67304500D01*
X66294500Y51324000D01*
Y51589200D01*
X65519500Y52364200D01*
Y52940400D01*
X64050900Y54409000D01*
Y54409100D01*
X63846000Y54614000D01*
X62344400D01*
X62344300Y54613900D01*
X62054500D01*
X59674600Y56993800D01*
X59674500D01*
X59544500Y57123800D01*
Y62548700D01*
X58419500Y63673700D01*
Y64734000D01*
X57439500Y65714000D01*
X56152000D01*
X55644500Y66221500D01*
X55369500Y66264000D01*
X55644500Y66221500D02*
Y66539000D01*
X55644500Y66221500D02*
X55369500Y66496500D01*
Y66539000D01*
X56719500Y65189000D02*
X56969500D01*
X57869500Y64289000D01*
X71544500Y50527000D02*
X71482500Y50589000D01*
X69472000D01*
X69139000Y50922000D01*
X68690200D01*
X68432200Y50664000D01*
X67449500D01*
X66644500Y51469000D01*
Y51769000D01*
X65869500Y52544000D01*
Y52795400D01*
X65869600Y52795500D01*
Y53085300D01*
X64400900Y54554000D01*
Y54554100D01*
X63991000Y54964000D01*
X62199400D01*
X59894500Y57268900D01*
Y62694300D01*
X58794500Y63794300D01*
Y64854000D01*
X57409500Y66239000D01*
X56758400D01*
X56564000Y66044500D01*
X56758400Y66239000D02*
X56564000Y66433500D01*
X56758400Y66239000D02*
X56369500D01*
X69880600Y51289000D02*
X68562200D01*
X68287200Y51014000D01*
X67852000D01*
X66994500Y51871500D01*
Y51914000D01*
X66519500Y52389000D01*
Y53931500D01*
X65112300Y55338700D01*
X62319800D01*
X60244500Y57414000D01*
Y62839300D01*
X59144500Y63939300D01*
Y64999000D01*
X57104500Y67039000D01*
X56819500D01*
X56544500Y67314000D01*
X56269500D01*
X56544500Y67314000D02*
Y67589000D01*
X56544500Y67314000D02*
X56269500Y67589000D01*
X54719500Y67639000D02*
X54855000Y67774500D01*
X55712500D01*
X56052000Y68114000D01*
X56524500D01*
X59494500Y65144000D01*
Y64084300D01*
X60594500Y62984300D01*
Y57578900D01*
X62484700Y55688700D01*
X65257300D01*
X66869600Y54076400D01*
Y52738900D01*
X67794500Y51814000D01*
X70430600Y52252000D02*
X69827000D01*
X68744500Y53334500D01*
Y53606500D01*
X65962000Y56389000D01*
X62774500D01*
X61294500Y57869000D01*
Y63274300D01*
X61044500Y63524300D01*
Y65756500D01*
X57987000Y68814000D01*
X56694500D01*
X56469500Y69039000D01*
X55044500Y69164000D02*
X54769500D01*
X55044500Y69164000D02*
Y69439000D01*
X55044500Y69164000D02*
X55744500Y68464000D01*
X56669500D01*
X59844500Y65289000D01*
Y64229300D01*
X60944500Y63129300D01*
Y57724000D01*
X62629600Y56038900D01*
X65402100D01*
X67219700Y54221300D01*
Y53138800D01*
X67394500Y52964000D01*
X54769500Y69439000D02*
X55044500Y69164000D01*
X55653000Y69764000D02*
X55378000D01*
X55653000Y69764000D02*
Y70039000D01*
X55653000Y69764000D02*
X55678000Y69739000D01*
X57557000D01*
X61394500Y65901500D01*
Y63669300D01*
X61644500Y63419300D01*
Y58214000D01*
X63119500Y56739000D01*
X66107000D01*
X69294500Y53551500D01*
X55378000Y70039000D02*
X55653000Y69764000D01*
X59622000Y24854000D02*
X59897000Y25129000D01*
X59622000Y24854000D02*
X59897000D01*
X59622000Y24854000D02*
Y25129000D01*
X70280600Y49289000D02*
X69619500D01*
X69036500Y49872000D01*
X67251500D01*
X65944500Y51179000D01*
Y51444200D01*
X65158400Y52230300D01*
Y52806500D01*
X63701100Y54263800D01*
X61909500D01*
X59194500Y56978800D01*
Y62403700D01*
X57964300Y63633900D01*
Y64194200D01*
X57869500Y64289000D01*
X62208100Y25879000D02*
X62402500Y26073500D01*
X62208100Y25879000D02*
X62402500Y25684500D01*
X62208100Y25879000D02*
X62597000D01*
X62172000Y24304000D02*
Y24579000D01*
X62172000Y24304000D02*
X62447000D01*
X62172000Y24304000D02*
X62447000Y24579000D01*
X61735900Y33129000D02*
X61541500Y32934500D01*
X61735900Y33129000D02*
X61541500Y33323500D01*
X61735900Y33129000D02*
X61347000D01*
X65372000Y34054000D02*
X64450000Y33132000D01*
X62497000D01*
X62494000Y33129000D01*
X61735900D01*
X61030600Y47639000D02*
X61225000Y47833500D01*
X61030600Y47639000D02*
X61225000Y47444500D01*
X61419500Y47639000D02*
X61030600D01*
X63008100Y25179000D02*
X63202500Y25373500D01*
X63008100Y25179000D02*
X63202500Y24984500D01*
X63397000Y25179000D02*
X63008100D01*
X62922000Y27378000D02*
X63197000Y27354000D01*
X62922000Y27378000D02*
Y27079000D01*
X62922000Y27378000D02*
X63197000Y27103000D01*
Y27079000D01*
X62880600Y49789000D02*
X63075000Y49983500D01*
X62880600Y49789000D02*
X63075000Y49594500D01*
X63269500Y49789000D02*
X62880600D01*
X64344500Y48624000D02*
X64619500D01*
X64344500Y48624000D02*
Y48349000D01*
X64344500Y48624000D02*
X64619500Y48349000D01*
X64494500Y50414000D02*
X64769500D01*
X64494500Y50414000D02*
Y50139000D01*
X64494500Y50414000D02*
X64769500Y50139000D01*
X64244500Y52589000D02*
X64438900Y52783500D01*
X64244500Y52589000D02*
X64438900Y52394500D01*
X64633400Y52589000D02*
X64244500D01*
X64142700Y51376900D02*
X64531600D01*
X64569500Y51339000D01*
X64142700Y51376900D02*
X64375000Y51144500D01*
X64142700Y51376900D02*
X64375000Y51533500D01*
X66672000Y13154000D02*
X66947000Y13429000D01*
X66672000Y13154000D02*
X66947000D01*
X66672000Y13154000D02*
Y13429000D01*
X65372000Y34054000D02*
Y34329000D01*
X65372000Y34054000D02*
X65647000D01*
X65647000Y34329000D02*
X65372000Y34054000D01*
X66235900Y33429000D02*
X66041500Y33234500D01*
X66235900Y33429000D02*
X66041500Y33623500D01*
X66235900Y33429000D02*
X70497000D01*
X70825000Y33757000D01*
X65847000Y33429000D02*
X66235900D01*
X67100000Y36587100D02*
X66905500Y36781500D01*
X67100000Y36587100D02*
X67294500Y36781500D01*
X67100000Y36587100D02*
Y36976000D01*
X65911100Y36479000D02*
X66105500Y36673500D01*
X65911100Y36479000D02*
X66105500Y36284500D01*
X65911100Y36479000D02*
X66300000D01*
X65180600Y47989000D02*
X65375000Y48183500D01*
X65180600Y47989000D02*
X65375000Y47794500D01*
X65180600Y47989000D02*
X65569500D01*
X65849200Y49316100D02*
X66043600Y49510600D01*
X65849200Y49316100D02*
X66043600Y49121600D01*
X66238100Y49316100D02*
X65849200D01*
X65852200Y49943900D02*
Y50218900D01*
X65852200Y49943900D02*
X66127200D01*
X66127200Y50218900D02*
X65852200Y49943900D01*
X67394500Y52964000D02*
X67669500D01*
X67394500Y52964000D02*
Y52689000D01*
X67394500Y52964000D02*
X67669500Y52689000D01*
X65144500Y51501700D02*
X65419500D01*
X65144500Y51501700D02*
Y51226700D01*
X65144500Y51501700D02*
X65419500Y51226700D01*
X68371000Y47933300D02*
Y48208300D01*
X68371000Y47933300D02*
X68646000D01*
X68371000Y47933300D02*
X68646000Y48208300D01*
X70244500Y48414000D02*
X70519500D01*
X70244500Y48414000D02*
Y48139000D01*
X70244500Y48414000D02*
X70519500Y48139000D01*
X68435800Y50314000D02*
X68713200Y50202500D01*
X68907700Y50397000D02*
X68824700Y50314000D01*
X68435800D01*
X68907700Y50397000D02*
X68965700Y50339000D01*
X69227000D01*
X69477000Y50089000D01*
X70619500D01*
X70887000Y49821500D01*
Y49814000D01*
X71083200Y49617800D01*
X71690700D01*
X72194500Y49114000D01*
X74937000D01*
X75312000Y49489000D01*
X80989000D01*
X81600000Y50100000D01*
X82330000D01*
X70280600Y49289000D02*
X70475000Y49483500D01*
X70280600Y49289000D02*
X70475000Y49094500D01*
X70669500Y49289000D02*
X70280600D01*
X69880600Y51289000D02*
X70075000Y51483500D01*
X69880600Y51289000D02*
X70075000Y51094500D01*
X70269500Y51289000D02*
X69880600D01*
X67794500Y51814000D02*
X68069500D01*
X67794500Y51814000D02*
Y51539000D01*
X67794500Y51814000D02*
X68069500Y51539000D01*
X69294500Y53551500D02*
Y53252000D01*
X69294500Y53551500D02*
X69569500Y53276500D01*
Y53252000D01*
X69294500Y53551500D02*
X69569500Y53527000D01*
X70825000Y33757000D02*
Y34032000D01*
X70825000Y33757000D02*
X71100000D01*
X70825000Y33757000D02*
X71100000Y34032000D01*
X72847000Y35990100D02*
X72652500Y36184500D01*
X72847000Y35990100D02*
X73041500Y36184500D01*
X72847000Y35990100D02*
Y36379000D01*
X71544500Y50527000D02*
X71819500D01*
X71544500Y50527000D02*
Y50252000D01*
X71819500Y50252000D02*
X71544500Y50527000D01*
X70430600Y52252000D02*
X70625000Y52446500D01*
X70430600Y52252000D02*
X70625000Y52057500D01*
X70819500Y52252000D02*
X70430600D01*
X82330000Y50100000D02*
X82525000Y50295100D01*
X82330000Y50100000D02*
X82525000Y49906100D01*
X82330000Y50100000D02*
X82518900D01*
X82619500Y50200600D01*
X82719500Y50100600D01*
X85208100Y10729000D02*
X85402500Y10923500D01*
X85208100Y10729000D02*
X85402500Y10534500D01*
X85208100Y10729000D02*
X85597000D01*
X32497000Y17729000D02*
X42279000D01*
X43379000Y18829000D01*
X44047000D01*
X17847000Y41729000D02*
Y42110800D01*
Y43947000D01*
X19479000Y45579000D01*
X23097000D01*
X23547000Y45129000D01*
X28658200D01*
X17847000Y42110800D02*
X17656100Y41919900D01*
X17847000Y42110800D02*
X18037900Y41919900D01*
X48347000Y17760800D02*
Y19253000D01*
X47950000Y19650000D01*
X43468000D01*
X42047000Y18229000D01*
X33471000D01*
X32271000Y19429000D01*
X27428800D01*
X27237900Y19238100D01*
X27428800Y19429000D02*
X27237900Y19619900D01*
X27428800Y19429000D02*
X27047000D01*
X31696000Y16804000D02*
X31850000Y16650000D01*
X32910200D01*
X32934200Y16674000D01*
X32934300D01*
X33064300Y16804000D01*
X42972000D01*
X43227000Y16549000D01*
X28658200Y45129000D02*
X28866100Y45302900D01*
X28658200Y45129000D02*
X28866100Y44921100D01*
X28658200Y45129000D02*
X29040000D01*
X29057000Y45112000D01*
X45277000Y16064000D02*
X44644500Y15431500D01*
X31544500D01*
X31017000Y15959000D01*
X30747000D01*
X31017000Y15959000D02*
Y16229000D01*
X31017000Y15959000D02*
X30747000Y16229000D01*
X36115200Y37079000D02*
X35629000D01*
X35300000Y36750000D01*
X33400000D01*
X33071000Y37079000D01*
X32321000D01*
X31621000Y37779000D01*
X31228800D01*
X31037900Y37588100D01*
X31228800Y37779000D02*
X31037900Y37969900D01*
X31228800Y37779000D02*
X30847000D01*
X36115200Y37079000D02*
X36306100Y37269900D01*
X36115200Y37079000D02*
X36306100Y36888100D01*
X36497000Y37079000D02*
X36115200D01*
X43227000Y16549000D02*
X43497000D01*
X43227000Y16549000D02*
Y16279000D01*
X43227000Y16549000D02*
X43497000Y16279000D01*
X45277000Y16064000D02*
Y16334000D01*
X45277000Y16064000D02*
X45547000D01*
X45547000Y16334000D02*
X45277000Y16064000D01*
X48347000Y17760800D02*
X48537900Y17569900D01*
X48347000Y17760800D02*
X48156100Y17569900D01*
X48347000Y17379000D02*
Y17760800D01*
X32847000Y38079000D02*
X32247000Y38679000D01*
X30197000D01*
X29618000Y38100000D01*
X19150000D01*
X18256400Y38993600D01*
X7156400D01*
X5071000Y41079000D01*
X5047000D01*
X32847000Y38079000D02*
X33626000Y37300000D01*
X35118000D01*
X35597000Y37779000D01*
X36747000D01*
X37497000Y37029000D01*
X44246000Y51511000D02*
X44841000Y50916000D01*
X49210000D01*
X51197000Y48929000D01*
Y39147000D01*
X50650000Y38600000D01*
X44700000D01*
X43837000Y37737000D01*
Y37069000D01*
D11*
X90330000Y35810800D02*
X91600000D01*
Y36454200D01*
X91409500Y37073700D02*
X91515400Y37170100D01*
X91578800Y37282700D01*
X91600000Y37427500D01*
X91557700Y37572300D01*
X91473000Y37684800D01*
X91324900Y37765300D01*
X91155500Y37781300D01*
X90986200Y37749200D01*
X90880300Y37668700D01*
X90795700Y37556200D01*
X90774500Y37443600D01*
X90795700Y37331000D01*
X90880300Y37186300D01*
X90330000Y37234500D01*
Y37668700D01*
D12*
X5097000Y16479000D03*
Y18779000D03*
X5747000Y22524000D03*
X6697000Y24529000D03*
X5102000Y24436500D03*
X5079200Y24458900D03*
X5097000Y26229000D03*
Y29179000D03*
Y28029000D03*
Y30279000D03*
Y32129000D03*
X5647000Y34829000D03*
X5102000Y33961500D03*
Y35866500D03*
Y37771500D03*
Y39676500D03*
X5047000Y41079000D03*
X5297000Y46829000D03*
X6057000Y50079000D03*
X6097000Y51679000D03*
Y53029000D03*
X6547000Y55919000D03*
X6377500Y57290000D03*
X6747000Y71879000D03*
X6397000Y70379000D03*
X7007000Y15579000D03*
X7977200Y18939300D03*
X7097000Y17479000D03*
X8497000Y17429000D03*
X7007000Y19669000D03*
Y21569000D03*
X9037900Y21190300D03*
X8497000Y20379000D03*
X6997000Y23479000D03*
X7797000Y24529000D03*
X8741000Y24421900D03*
X8781200Y28384200D03*
X8947000Y32600000D03*
X8447000Y43479000D03*
X8347000Y48279000D03*
X6847000Y47679000D03*
X8347000Y50329000D03*
X6797000Y48979000D03*
X8347000Y52279000D03*
X8632500Y56164500D03*
X9347000Y57240000D03*
X8697000Y69229000D03*
X8500000Y71979000D03*
X8147000Y75879000D03*
X11347000Y9879000D03*
X9547000Y9329000D03*
X11452000Y12224000D03*
X11697000Y17729000D03*
X11947000Y18679000D03*
X11317000Y19849000D03*
X11247000Y21129000D03*
Y22449000D03*
X11547000Y27729000D03*
X11647000Y28929000D03*
Y31779000D03*
X11047000Y31079000D03*
X11397000Y33499000D03*
X11647000Y37779000D03*
X9647000Y36579000D03*
X10597000Y40329000D03*
X9929300Y41229000D03*
X10547000Y42079000D03*
X11947000Y44129000D03*
X9697000Y43479000D03*
X10497000Y44929000D03*
X11347000Y50279000D03*
X10347000Y52279000D03*
X11324300Y52301700D03*
Y53301700D03*
X10297000Y51279000D03*
X10347000Y56379000D03*
X11347000D03*
Y55279000D03*
Y54279000D03*
X9797000Y66729000D03*
X11647000D03*
X11597000Y70829000D03*
X13509500Y7066500D03*
X12449000Y6600000D03*
X13299000Y11927000D03*
X13497000Y19029000D03*
X14647000Y17679000D03*
X14547000Y19629000D03*
X14597000Y25429000D03*
X13327000Y28299000D03*
X13747000Y31529000D03*
X13421900Y30229000D03*
X12297000Y34149300D03*
X13997000Y34479000D03*
X13947000Y36929000D03*
X12197000Y36679000D03*
X12947000Y40329000D03*
X13247000Y48329000D03*
X13347000Y53279000D03*
Y52279000D03*
X12347000Y55279000D03*
X13347000D03*
X12722000Y58579000D03*
X14309500Y58616500D03*
X12722000Y59579000D03*
X14497000Y63879000D03*
Y64929000D03*
X14147000Y66979000D03*
X12798100Y66219500D03*
X13616500Y75109500D03*
X13147000Y78229000D03*
X16849500Y4300500D03*
X14944500Y9381500D03*
X16497000Y9329000D03*
X15847000Y17629000D03*
X14797000Y20729000D03*
X17047000Y20629000D03*
X15847000Y20929000D03*
X15747000Y19229000D03*
X14897000Y24229000D03*
X17031300Y25150800D03*
X16297000Y25579000D03*
X16797000Y28129000D03*
X16597000Y30379000D03*
X15047000Y33079000D03*
X14847000Y36829000D03*
X14947000Y43529000D03*
X15047000Y50129000D03*
X16297000Y48779000D03*
X17133700Y50471400D03*
X16447000Y52429000D03*
X15312900Y51244700D03*
X15348600Y53280800D03*
X15847000Y55629000D03*
X16997000Y54879000D03*
X15579500Y66111500D03*
X17167000Y67709000D03*
X14847000Y69679000D03*
X15579500Y68729000D03*
X15447000Y71917000D03*
X15797000Y73329000D03*
X16250000Y75929000D03*
X15579500Y79879000D03*
X16750000Y78879000D03*
X16947000Y80829000D03*
X17147000Y82329000D03*
X15579500Y83329000D03*
X19338000Y8039000D03*
X19645000Y11927000D03*
X18047000Y15179000D03*
X18451100Y18515500D03*
X17547000Y18479000D03*
X18747000Y16679000D03*
X19368500Y18185200D03*
X19047000Y20729000D03*
X18047000Y20679000D03*
X18647000Y19579000D03*
X19597000Y23279000D03*
X17897000Y22079000D03*
X19647000Y22279000D03*
X17797000Y26654000D03*
X19771300Y24629000D03*
X18497000Y32429000D03*
X18147000Y30179000D03*
X17647000Y34729000D03*
X17697000Y33529000D03*
X18747000Y33504000D03*
X19897000Y36179000D03*
X17897000Y37679000D03*
X18097000Y36729000D03*
X19583500Y39588600D03*
X17847000Y41729000D03*
X19747000D03*
X19647000Y44079000D03*
X17797000Y46979000D03*
X18347000Y47929000D03*
X19897000Y52579000D03*
Y51579000D03*
X18697000Y53979000D03*
X17513600Y56695600D03*
X18497000Y59879000D03*
X18697000Y61929000D03*
X19747000Y63179000D03*
X18542000Y64124000D03*
X17997000Y66702000D03*
X19897000Y67729000D03*
X18754500Y71929000D03*
X19197000Y75179000D03*
X19072000Y73014000D03*
X19307000Y79279000D03*
X18147000Y82179000D03*
X18754500Y83379000D03*
X20500000Y6850000D03*
Y11350000D03*
X20772000Y13479000D03*
X22002000Y16184000D03*
X20247000Y21079000D03*
X22747000Y20279000D03*
X21147000Y22079000D03*
X22197000D03*
X21997000Y24229000D03*
X21108000Y25418000D03*
X20897000Y27029000D03*
X21347000Y29429000D03*
X21637400Y28040000D03*
X20147000Y27929000D03*
X21297000Y30529000D03*
X22447000Y34129000D03*
X22097000Y37179000D03*
X22147000Y36229000D03*
X22447000Y35229000D03*
X21547000Y42379000D03*
X21585000Y40817000D03*
X22397000Y45079000D03*
X20647000Y48129000D03*
X21313900Y47139000D03*
X22575000Y47157000D03*
X22447000Y46079000D03*
X21647000Y50579000D03*
X21797000Y49079000D03*
X21097000Y49879000D03*
X21447000Y53879000D03*
X21147000Y51579000D03*
X21097000Y56029000D03*
X22047000Y57229000D03*
X21997000Y69179000D03*
X22042100Y70292800D03*
X21929500Y74919000D03*
X20977000Y73014000D03*
X21397000Y79279000D03*
X20307700Y79865500D03*
X20342000Y83379000D03*
X24197000Y8929000D03*
X25197000Y11279000D03*
X25397000Y13379000D03*
X24047000Y13329000D03*
X23597000Y19129000D03*
X24347000Y18229000D03*
X25297000Y23179000D03*
X24297000Y25779000D03*
X24397000Y24679000D03*
X23199300Y25784000D03*
X24396400Y27400000D03*
X24486000Y29318000D03*
X25397000Y29629000D03*
X22872000Y31654000D03*
X24897000Y30479000D03*
X25297000Y33529000D03*
X24997000Y34629000D03*
X24447000Y36729000D03*
X23147000Y37229000D03*
X24152000Y39676500D03*
X24897000Y38929000D03*
X23047000Y41679000D03*
X24197000Y40879000D03*
X23977000Y47652000D03*
X25247000D03*
X22847000Y49029000D03*
X23947000D03*
X25247000Y50192000D03*
X23897000Y52579000D03*
X25247000Y51429000D03*
X23977000Y51462000D03*
X22947000Y52829000D03*
X23977000Y56542000D03*
X25247000Y57812000D03*
X23977000D03*
X24600000Y59700000D03*
Y62250000D03*
X23350000D03*
X25247000Y66702000D03*
X23977000D03*
X25247000Y65432000D03*
X23997000Y67979000D03*
X23197000Y68829000D03*
X25247000Y67972000D03*
X23647000Y70129000D03*
X23517000Y71909000D03*
X23997000Y73429000D03*
X22882000Y73014000D03*
X22847000Y79279000D03*
X24238600Y79186200D03*
X25159000Y80817000D03*
X23247000Y80729000D03*
X23517000Y83429000D03*
X26997000Y7679000D03*
X26147000Y8679000D03*
X27647000Y8629000D03*
X28027000Y17249000D03*
X25547000Y18229000D03*
X27997000Y21194000D03*
X26897000Y21579000D03*
Y20529000D03*
X27047000Y19429000D03*
X27147000Y23579000D03*
X28097000Y25229000D03*
X25960100Y25787800D03*
X26747000Y28329000D03*
X27047000Y29639000D03*
X27027000Y34799000D03*
X27934000Y39763100D03*
X26057000Y39676500D03*
X27947000Y41479000D03*
X27797000Y47679000D03*
X27787000Y50192000D03*
Y48922000D03*
X26497000Y52732000D03*
X27797000Y51479000D03*
X26517000Y55272000D03*
X27797000Y55279000D03*
X26497000Y56529000D03*
X27797000D03*
Y54029000D03*
X27787000Y59082000D03*
X25866300Y59733700D03*
X27787000Y61622000D03*
X27797000Y64129000D03*
X27787000Y62892000D03*
X26517000Y66702000D03*
Y65432000D03*
X27787000Y66702000D03*
X26569700Y69435100D03*
X27787000Y67972000D03*
X26517000D03*
X25897000Y74229000D03*
X27247000Y75779000D03*
X27962000Y80129000D03*
X28914500Y5311500D03*
X28597000Y7579000D03*
X30597000Y8379000D03*
X29247000Y8579000D03*
X30197000Y12779000D03*
X29897000Y16179000D03*
X30747000Y16229000D03*
X28797000Y14979000D03*
X29150000Y17700000D03*
X30197000Y21029000D03*
X28247000Y23529000D03*
X30747000Y23279000D03*
X29658600Y22267400D03*
X28147000Y28949000D03*
Y27579000D03*
Y31979000D03*
X30797000Y30429000D03*
X28147000Y33499000D03*
X30297000Y33504000D03*
X30147000Y36879000D03*
X28527500Y36240000D03*
X28597000Y38829000D03*
X30247000Y42929000D03*
X29057000Y45112000D03*
Y46382000D03*
X29347000Y50229000D03*
X30197000Y49579000D03*
X29347000Y48729000D03*
X30047000Y58447000D03*
X28797000Y57772000D03*
X28947600Y64054100D03*
X30327000Y64162000D03*
Y66702000D03*
X28247000Y69429000D03*
X29847000D03*
X29047000Y67979000D03*
X28279500Y72029000D03*
X30750000Y77976000D03*
X28697000Y82779000D03*
X30547000D03*
X30819500Y5279000D03*
X31197000Y7379000D03*
X32147000Y13329000D03*
X32497000Y17729000D03*
X31694500Y21399000D03*
X32697000Y22879000D03*
X31847000Y24479000D03*
X32897000Y24504800D03*
X31797000Y26429000D03*
Y28379000D03*
X32497000Y29429000D03*
X31147000Y31479000D03*
X32197000Y30479000D03*
X31100000Y34900000D03*
X30847000Y37779000D03*
X33347000Y35950000D03*
X31497000Y36879000D03*
X31264000Y39746000D03*
X32847000Y38079000D03*
X31614000Y45329000D03*
X32847000Y45129000D03*
X31597000Y43842000D03*
X31600800Y47627100D03*
X31147000Y48900000D03*
X32597000Y51329000D03*
X33040000Y55272000D03*
X33070000Y54002000D03*
X33060000Y56542000D03*
X33147000Y57812000D03*
X31718900Y59979000D03*
X32347000Y60729000D03*
X32147000Y62179000D03*
X32747000Y62979000D03*
X31597000Y66729000D03*
Y65432000D03*
X32867000D03*
Y66702000D03*
X31597000Y67972000D03*
Y72329000D03*
X33247000Y73579000D03*
X31247000Y76879000D03*
X32250000Y76929000D03*
X31447000Y75779000D03*
X31250000Y79479000D03*
X32297000Y79279000D03*
X31397000Y80429000D03*
X32347000Y82779000D03*
X33597000Y12929000D03*
X33547000Y16229000D03*
X33946900Y14299000D03*
X35547000Y13954000D03*
X35583500Y16249000D03*
X34497000Y21229000D03*
X33797000Y20429000D03*
X33947000Y26429000D03*
X35797000Y25429000D03*
Y32429000D03*
Y31429000D03*
X34797000Y32429000D03*
Y31429000D03*
X35797000Y33429000D03*
X34797000D03*
X33550000Y33250000D03*
X34947000Y39676500D03*
X34059200Y38591200D03*
X35797000Y42429000D03*
X34047000Y42479000D03*
X35397000Y47679000D03*
X34097000Y47629000D03*
X34137000Y52589000D03*
X35407000Y52639000D03*
X34137000Y58969000D03*
X35407000Y58939000D03*
X35397000Y64179000D03*
X34147000D03*
Y66679000D03*
X34137000Y65432000D03*
X35407000Y66702000D03*
X34397000Y69429000D03*
X35407000Y67972000D03*
X36047000Y72029000D03*
X36122000Y73331500D03*
X35147000Y78929000D03*
X35997000Y82779000D03*
X34147000D03*
X36468000Y5450000D03*
X36647000Y7579000D03*
X38647000Y12029000D03*
X36897000Y12079000D03*
X37499500Y16181500D03*
X37597000Y18731500D03*
X36716900Y24400400D03*
X37797000Y23429000D03*
Y24429000D03*
Y26429000D03*
Y25429000D03*
X36797000D03*
X38748600Y26427200D03*
X36797000Y29429000D03*
X38797000D03*
Y32429000D03*
X37797000D03*
X36797000Y31429000D03*
X37797000D03*
Y34379000D03*
X38797000Y34429000D03*
X36797000Y33429000D03*
X36497000Y37079000D03*
X38547000Y37129000D03*
X36450000Y35550000D03*
X37797000Y35429000D03*
X37497000Y37029000D03*
X38547000Y36179000D03*
X36852000Y39676500D03*
X38757000D03*
X37747000Y42429000D03*
X37947000Y48779000D03*
X36677000Y52699000D03*
X37947000Y58979000D03*
X36677000Y58959000D03*
Y64159000D03*
X37947000Y64179000D03*
X36677000Y65432000D03*
X37947000Y66702000D03*
X36147000Y69479000D03*
X37897000D03*
X37147000Y71979000D03*
X36847000Y74429000D03*
X37747000Y74729000D03*
X38535000Y81891000D03*
X37797000Y82779000D03*
X41297000Y11927000D03*
X41047000Y15979000D03*
X39647000Y21079000D03*
X39497000Y19229000D03*
X40697000Y22379000D03*
X40748600Y23427200D03*
X39397000Y22379000D03*
X39797000Y24429000D03*
X40797000D03*
X40891500Y27142100D03*
X39747000Y26429000D03*
X39797000Y25429000D03*
Y29429000D03*
X40800000Y28429000D03*
X39797000Y30429000D03*
X40662000Y39676500D03*
X39074500Y42379000D03*
X40797000Y42329000D03*
X40497000Y43879000D03*
X39226400Y45093500D03*
X39197000Y46379000D03*
X39247000Y47639000D03*
X38997000Y49979000D03*
X39897000Y50029000D03*
X41147000Y48729000D03*
X39597000D03*
X39997000Y52029000D03*
X39010000Y56542000D03*
X39020000Y54002000D03*
X39040000Y55272000D03*
X39197000Y64179000D03*
X39217000Y65432000D03*
Y66702000D03*
Y68009000D03*
X39347000Y70879000D03*
X39497000Y73579000D03*
X41247000Y79079000D03*
X41397000Y82779000D03*
X39597000D03*
X43705500Y7037500D03*
X42697000Y11929000D03*
X43497000Y16279000D03*
X44097000Y16979000D03*
X44047000Y18829000D03*
X43797000Y21429000D03*
X41897000Y19329000D03*
X43797000Y24429000D03*
Y23429000D03*
X41797000Y22429000D03*
X42747000Y22379000D03*
X41797000Y25429000D03*
X42748900Y26430500D03*
X43797000Y26429000D03*
X42797000Y25429000D03*
Y28429000D03*
X43797000D03*
X41750000Y28424000D03*
X43797000Y29429000D03*
Y31429000D03*
Y32429000D03*
X41797000Y30429000D03*
X42797000D03*
X43797000Y33429000D03*
X43837000Y37069000D03*
X42567000Y39676500D03*
X42547000Y38579000D03*
X42447000Y42379000D03*
X43837000Y42389000D03*
X42987000Y45079000D03*
X41697000Y45112000D03*
X41757000Y46382000D03*
X41747000Y64179000D03*
X43047000Y64129000D03*
X43049500Y65447000D03*
Y66717000D03*
X41779500Y65447000D03*
X43199500Y67939000D03*
X41997000Y71729000D03*
X42597000Y73379000D03*
X44347000Y11929000D03*
X45547000Y16334000D03*
X45397000Y18829000D03*
X44797000Y17479000D03*
X45967000Y17729000D03*
X46747000Y18829000D03*
X44797000Y21429000D03*
X46797000Y22429000D03*
X44797000Y23429000D03*
X45718700Y23456100D03*
X45797000Y22390700D03*
X44797000Y25429000D03*
Y26429000D03*
X45797000Y25429000D03*
Y26429000D03*
X46797000D03*
X45797000Y29429000D03*
X46797000D03*
Y28429000D03*
X44797000Y29429000D03*
X45797000Y27429000D03*
Y28429000D03*
X44797000Y27429000D03*
X46797000D03*
X44797000Y28429000D03*
Y30429000D03*
X45797000D03*
X46797000Y31429000D03*
X44797000D03*
X46797000Y30429000D03*
X44797000Y32429000D03*
X45797000Y33429000D03*
X46797000Y34429000D03*
X45797000D03*
X44797000Y33429000D03*
Y34429000D03*
Y35429000D03*
X45797000Y36300000D03*
X46797000Y35429000D03*
X45447000Y37629000D03*
X45424500Y39875500D03*
X44397000Y39679000D03*
X45424500Y42351500D03*
X44297000Y46382000D03*
X45567000D03*
X45516000Y47701000D03*
X44297000Y47679000D03*
X45516000Y48971000D03*
Y50241000D03*
X44246000D03*
X44297000Y48929000D03*
X45516000Y51511000D03*
Y52781000D03*
X44246000D03*
Y51511000D03*
X45516000Y54051000D03*
Y55321000D03*
X44246000D03*
Y54051000D03*
X45516000Y56591000D03*
X44297000Y57810000D03*
X45567000D03*
Y59080000D03*
X44246000Y56591000D03*
X44297000Y59080000D03*
X45567000Y60350000D03*
X44297000D03*
X45567000Y61620000D03*
X44297000D03*
X45567000Y62890000D03*
Y64160000D03*
X44297000D03*
Y62890000D03*
Y66700000D03*
Y65430000D03*
X45567000D03*
X44619500Y67939000D03*
X47997000Y10129000D03*
X49047000Y10079000D03*
X47344500Y16181500D03*
X49244500D03*
X47397000Y17329000D03*
X48347000Y17379000D03*
X49244500Y18729000D03*
X47697000Y19079000D03*
X47597000Y20979000D03*
X48797000Y21429000D03*
X47947000Y22029000D03*
X46947000Y23479000D03*
X47747000Y24429000D03*
X47797000Y29429000D03*
X48100000Y27600000D03*
X47797000Y30429000D03*
X47957900Y32293100D03*
X48797000Y31429000D03*
Y32429000D03*
Y34429000D03*
X47649900Y33591800D03*
X47797000Y34429000D03*
Y36200000D03*
X48282000Y39676500D03*
X46997000Y40829000D03*
X48697000Y40929000D03*
X48107000Y43842000D03*
X48097000Y46429000D03*
X49319500Y59739000D03*
X47919500Y68139000D03*
X49369500Y69539000D03*
Y70589000D03*
X49400000Y76350000D03*
X48009000Y81741000D03*
X48747000Y82929000D03*
X52050000Y5482000D03*
X50197000Y4879000D03*
X50822000Y8404000D03*
Y10254000D03*
X50847000Y16181500D03*
X51597000Y17129000D03*
X51937000Y19039000D03*
X50547000Y21429000D03*
X49747000Y22479000D03*
X51947000Y22929000D03*
X50424100Y23921600D03*
X49797000Y25029000D03*
X50347000Y25979000D03*
X51911900Y27157400D03*
X49650000Y28350000D03*
X51900000Y29316500D03*
X51147000Y30229000D03*
X50347000Y30929000D03*
Y32429000D03*
X50377500Y34450000D03*
X50397000Y35829000D03*
X51147000Y37179000D03*
X51897000Y40829000D03*
X50297000D03*
X50587000Y44469000D03*
X51969500Y61389000D03*
X50469500Y61089000D03*
X52069500Y63019600D03*
X52019500Y64239000D03*
X51319500Y63739000D03*
X50369500Y62209300D03*
X50919500Y62989000D03*
X51608100Y64982900D03*
X50919500Y65589000D03*
X50175300Y66491800D03*
X50419500Y67306000D03*
X49719500Y67856000D03*
X50069500Y68939000D03*
X50119500Y70089000D03*
X49552000Y74284000D03*
X51147000Y79079000D03*
X51447000Y82629000D03*
X54314500Y6746500D03*
X52727000Y6759000D03*
X52497000Y8429000D03*
X54314500Y8396500D03*
X52497000Y10329000D03*
X53047000Y18229000D03*
X53933500Y16765500D03*
X54297000Y27129000D03*
X52997000Y25629000D03*
X53047000Y27079000D03*
X52847000Y30904000D03*
X53097000Y33429000D03*
X54500000Y34700000D03*
X52647000Y43279000D03*
X52619500Y52139000D03*
X54469500Y53439000D03*
X54319500Y55839000D03*
X52669500Y57717500D03*
X53219500Y60239000D03*
X52469500Y59439000D03*
X53447000Y61479000D03*
X54469500Y60089000D03*
X54719500Y67639000D03*
X54769500Y69439000D03*
X53481500Y71594500D03*
X53479000Y82629000D03*
X54495000D03*
X52463000D03*
X55147000Y5479000D03*
X55902000Y6874000D03*
X55550000Y10076000D03*
X56697000Y10079000D03*
X55597000Y18729000D03*
X56347000Y18279000D03*
X55382000Y22214000D03*
X55197000Y24329000D03*
X55547000Y25779000D03*
X57453000Y26279000D03*
X55947000Y27229000D03*
X55369500Y66539000D03*
X56719500Y65189000D03*
X56369500Y66239000D03*
X56269500Y67589000D03*
X56469500Y69039000D03*
X55378000Y70039000D03*
X55247000Y74284000D03*
X55511000Y82629000D03*
X56527000D03*
X58297000Y5129000D03*
X59597000D03*
X57489500Y6771500D03*
X59077000Y6749000D03*
X57547000Y8379000D03*
X58097000Y21029000D03*
X58915500Y23528400D03*
X59947000Y22879000D03*
X59897000Y25129000D03*
X60047000Y28679000D03*
X60097000Y27229000D03*
X60047000Y31129000D03*
X58722000Y31104000D03*
X58797000Y33379000D03*
X58197000Y36779000D03*
X57869500Y64289000D03*
X57547000Y75179000D03*
X57497000Y74029000D03*
X58696000Y82378000D03*
X60664500Y6861500D03*
X60747000Y8429000D03*
X62252000Y6874000D03*
X62294000Y8482000D03*
X61297000Y15479000D03*
X62597000Y25879000D03*
X62447000Y24579000D03*
X62747000Y31329000D03*
X60168000Y32200000D03*
X61347000Y33129000D03*
X62200000Y35450000D03*
X62647000Y37979000D03*
X62584500Y42989000D03*
X62619500Y41839000D03*
X62269500Y45239000D03*
X62217800Y43774300D03*
X62669500Y46139000D03*
X61419500Y47639000D03*
X61890900Y50710400D03*
X60519500Y50389000D03*
X62419500Y60139000D03*
X62519500Y61112000D03*
X62420100Y63042800D03*
X62307600Y61935200D03*
X62369500Y64462800D03*
X61930200Y65475200D03*
X60169500Y65789000D03*
X61169500Y69088000D03*
X62369500Y68439000D03*
X61986000Y69659500D03*
X60213000Y73200000D03*
X60447000Y81879000D03*
X60347000Y80879000D03*
X63697000Y5079000D03*
X63839500Y6871500D03*
X63797000Y8479000D03*
X65427000Y6809000D03*
X63547000Y10079000D03*
X64122000Y16654000D03*
X63447000Y17829000D03*
X63197000Y19829000D03*
X65447000Y21579000D03*
X63197000Y27079000D03*
X63397000Y25179000D03*
X65046900Y29078900D03*
X65447000Y31079000D03*
X64747000Y37979000D03*
X63877900Y43161400D03*
X64869500Y45739000D03*
X64963500Y43642800D03*
X63619500Y45089000D03*
X64619500Y48349000D03*
X63969500Y47483500D03*
X63269500Y49789000D03*
X64769500Y50139000D03*
X63469500Y53589000D03*
X64633400Y52589000D03*
X63319500Y52252000D03*
X64569500Y51339000D03*
X65419500Y51226700D03*
X63760100Y58943600D03*
X64920500Y60047800D03*
X65019500Y61133100D03*
X63669500Y60089000D03*
X63569500Y63509000D03*
X63744500Y62089000D03*
X64619500Y65939000D03*
X62919500Y65289000D03*
X63169500Y67352000D03*
X64769500Y70338000D03*
X66550000Y5132000D03*
X67014500Y6796500D03*
X65997000Y10279000D03*
X67647000Y10379000D03*
X66947000Y13429000D03*
X68047000Y21779000D03*
Y20824000D03*
X66597000Y25179000D03*
X67547000Y25879000D03*
X66056600Y26315500D03*
X67459000Y27267000D03*
X67347000Y31529000D03*
X65647000Y34329000D03*
X66897000Y34129000D03*
X65847000Y33429000D03*
X67100000Y36976000D03*
X67697000Y36279000D03*
X66300000Y36479000D03*
X65681900Y43188400D03*
X66669500Y42439000D03*
X65469500Y41689000D03*
X67619500Y41889000D03*
X65569500Y44239000D03*
Y47989000D03*
X65621500Y47011200D03*
X66238100Y49316100D03*
X66127200Y50218900D03*
X68069500Y51539000D03*
X67669500Y52689000D03*
X65919500Y53789000D03*
X67769500Y53839000D03*
X65650000Y58923500D03*
X67419500Y62089000D03*
X65819500Y61939000D03*
X66567900Y62985900D03*
X67319500Y63989800D03*
X65719500Y63039000D03*
X66419500Y64614000D03*
X65469500Y65939000D03*
X67219500Y66339000D03*
X67019500Y67889000D03*
X65542000Y68135500D03*
X65719500Y70539000D03*
X65913000Y73213000D03*
X66947000Y82629000D03*
X68097000Y80979000D03*
X70189500Y8386500D03*
X68622000Y8454000D03*
X69647000Y6779000D03*
X68602000Y6874000D03*
X70797000Y10379000D03*
X68300000Y18082000D03*
X68847000Y16679000D03*
X69647000Y18579000D03*
X69397000Y21279000D03*
X70347000Y20829000D03*
X69297000Y24279000D03*
X68147000Y22829000D03*
X69335000Y25841000D03*
X69285000Y28841000D03*
X69335000Y30317000D03*
X69309000Y31841000D03*
X68297000Y34029000D03*
X69597000Y36079000D03*
X69219500Y45289000D03*
X68748000Y43252000D03*
X68646000Y48208300D03*
X70519500Y48139000D03*
X68667900Y47090800D03*
X70319500Y46239000D03*
X68788400Y49309100D03*
X68907700Y50397000D03*
X70669500Y49289000D03*
X70269500Y51289000D03*
X69569500Y53252000D03*
X70649000Y55177000D03*
X69969500Y57639000D03*
X69085400Y58654900D03*
X68719500Y59839000D03*
X68669500Y60939000D03*
X70469500Y59939000D03*
X70394600Y61092400D03*
X70523500Y62939000D03*
X68843900Y62037900D03*
X68719500Y64139000D03*
X68869500Y66040000D03*
X69866900Y66052700D03*
X69469500Y68189000D03*
X69819500Y70539000D03*
X68769500Y70489000D03*
X69872000Y79554000D03*
X69197000Y80979000D03*
X73025000Y6847000D03*
X71140000Y21473200D03*
X71100000Y34032000D03*
X72847000Y36379000D03*
X71197000Y38429000D03*
X72719500Y42989000D03*
X71500000Y41800000D03*
X70819500Y45239000D03*
X73219500Y44502000D03*
X71671000Y47217000D03*
X71819500Y50252000D03*
X70819500Y52252000D03*
X71219500Y58089000D03*
X71919500Y59989000D03*
X72171800Y61093200D03*
X71669500Y64079500D03*
X71619500Y62079500D03*
X71169500Y66889000D03*
X71419500Y69139000D03*
X71584500Y73966500D03*
X71297000Y75629000D03*
X71547000Y82529000D03*
X72563000D03*
X74358000Y9768000D03*
X75097000Y32029000D03*
X74147000Y36629000D03*
X75777500Y37279000D03*
X75350000Y42550000D03*
X74250000Y45250000D03*
X74719500Y49639000D03*
X75619500Y51189000D03*
X75747000Y55177000D03*
X75400000Y62100000D03*
X75719500Y66439000D03*
X75611000Y82529000D03*
X74595000D03*
X73579000D03*
X77197000Y5079000D03*
X77947000Y18229000D03*
X76700000Y16629000D03*
X76426000Y21850000D03*
X76449100Y20789600D03*
X78126000Y23800000D03*
X76497000Y23000000D03*
X78126000Y27000000D03*
X77526000Y26200000D03*
X78076000Y25400000D03*
X77476000Y24600000D03*
X77518000Y27800000D03*
X77626000Y31800000D03*
X78076000Y31000000D03*
X77397000Y34979000D03*
X76197000Y35829000D03*
X78397000Y38406500D03*
X76700000Y41800000D03*
X78250000Y42700000D03*
X76706100Y43954900D03*
X78800000Y44100000D03*
X77600000Y44850000D03*
X76706500Y46252000D03*
X76850600Y48473500D03*
X77769500Y47239000D03*
X77218500Y50253500D03*
X78686500Y50228500D03*
Y53340000D03*
X78694000Y52170300D03*
X77019500Y51739000D03*
X78497000Y55177000D03*
X77819500Y58789000D03*
X77641000Y60806700D03*
X77019500Y64389000D03*
X77819500Y63239000D03*
X77619500Y62089000D03*
X77099000Y66421000D03*
X77734000Y70612000D03*
X78659000Y82529000D03*
X77643000D03*
X76627000D03*
X79079500Y9661500D03*
X80889500Y12371500D03*
X79547000Y19079000D03*
X79876000Y20200000D03*
X78918000Y21000000D03*
X81047000Y21850000D03*
X78918000Y22600000D03*
X80847000Y23421000D03*
X81047000Y25021000D03*
X78918000Y25800000D03*
Y27400000D03*
X80926000Y28200000D03*
X78918000Y29000000D03*
X80947000Y29821000D03*
X78918000Y30600000D03*
X80997000Y31421000D03*
X78918000Y32200000D03*
X79297000Y35779000D03*
X80850000Y43029900D03*
X79700000Y42100000D03*
X81019500Y45380000D03*
X80242200Y44393000D03*
X79369500Y48239000D03*
X79269500Y46389000D03*
X80669500Y47439000D03*
X79536500Y50239600D03*
X80919500Y50192000D03*
X81019500Y51252000D03*
X79543500Y52199700D03*
X79560000Y53300000D03*
X81369500Y53252000D03*
X81047000Y55177000D03*
X79519500Y58639000D03*
X80869500Y60539000D03*
X79678800Y60143400D03*
X79319500Y64289000D03*
X80950000Y62100000D03*
X79419500Y62039000D03*
X80969500Y63055500D03*
X79819500Y63539000D03*
X79869500Y66146000D03*
X81119500Y66189000D03*
Y67639000D03*
X79469500Y68289000D03*
Y70139000D03*
X81147000Y76879000D03*
X80297000Y76479000D03*
X82897000Y16929000D03*
Y21400000D03*
X81647000Y19483500D03*
X82797000Y23029000D03*
X81567500Y26849500D03*
X82597000Y30479000D03*
X81550000Y42100000D03*
X82619500Y45252000D03*
X81519500Y44189000D03*
X83499500Y45252000D03*
Y43252000D03*
X83371100Y44190800D03*
X82669500Y48239000D03*
X83619500Y48323500D03*
X81552000Y46389000D03*
X82684000Y47082300D03*
X83569500Y47089000D03*
X81519500Y49252000D03*
X82719500Y50100600D03*
X82669500Y52339000D03*
X82719500Y51239000D03*
X82219500Y54179000D03*
X82687000Y58928000D03*
X82666400Y61074500D03*
X83519500Y59939000D03*
X83601500Y61032400D03*
X82719500Y62239000D03*
Y64089000D03*
X82687000Y67056000D03*
X83579000Y67079500D03*
X82679000Y68079500D03*
X83560000Y69079500D03*
X81747000Y72129000D03*
X83569500Y70039000D03*
X82687000Y70040500D03*
X85597000Y10729000D03*
X85927000Y26659000D03*
X85897000Y25079000D03*
X85952000Y29834000D03*
X85947000Y28246500D03*
X84247000Y27629000D03*
X85954500Y31421500D03*
X85897000Y36579000D03*
X86047000Y38129000D03*
X85500000Y42252000D03*
X84712100Y47012300D03*
X86049000Y55177000D03*
X86219500Y60071000D03*
X85919500Y61087000D03*
X85419500Y59239000D03*
X84338000Y64071500D03*
X85919500Y63055500D03*
X89277000Y13959000D03*
X89329500Y21896500D03*
X89417000Y26659000D03*
X89303000Y36635000D03*
X88021000Y42579000D03*
X87797000Y48879000D03*
X87971000Y52850000D03*
X86847000Y61305000D03*
X87697000Y62879000D03*
X87767000Y65278000D03*
X86860000Y69088000D03*
X87547000Y72579000D03*
X87447000Y78779000D03*
X89489500Y31421500D03*
X91247000Y44788400D03*
X91410000Y47752000D03*
X90003000Y52951000D03*
X90051000Y59750000D03*
X91310000Y65278000D03*
X90053000Y70612000D03*
D13*
X5000000Y5000000D03*
Y82500000D03*
X90000000Y5000000D03*
Y82500000D03*
M02*