G04 Gerber PCB Fabrication Data in Gerber – Example 2, created by Karel Tavernier, Filip Vermeire and Thomas Weyn*
G04 Ucamco copyright*
%TF.GenerationSoftware,Ucamco,UcamX,1.1.0-1400509*%
%TF.CreationDate,2014-07-14T00:00:00+01:00*%
%FSLAX26Y26*%
%MOMM*%
%TF.FileFunction,Copper,L6,Inr,Signal*%
%TF.FilePolarity,Positive*%
%TF.Part,Single*%
%TF.SameCoordinates*%
%TA.AperFunction,Conductor*%
%ADD10C,0.15000*%
%TA.AperFunction,NonConductor*%
%ADD11C,0.20000*%
%TA.AperFunction,ViaPad*%
%ADD12C,0.65000*%
%TA.AperFunction,WasherPad*%
%ADD13C,6.00000*%
G01*
%LPD*%
D10*
X5097000Y28029000D02*
Y28047000D01*
X7447000Y30397000D01*
Y41829000D01*
X6102000Y43174000D01*
Y47373900D01*
X5500000Y47976000D01*
Y56412500D01*
X6102500Y57015000D01*
X14108100Y63879000D02*
X10679000D01*
X5197000Y58397000D01*
Y47706900D01*
X5847000Y47056900D01*
Y42429000D01*
X6447000Y41829000D01*
Y34629000D01*
X5779500Y33961500D01*
X5102000D01*
X14108100Y64929000D02*
X11229000D01*
X4772000Y58472000D01*
Y43079700D01*
X5847000Y42004700D01*
Y36611500D01*
X5102000Y35866500D01*
X14147000Y66979000D02*
X13958500Y66790500D01*
X12540500D01*
X9536100Y63786100D01*
Y63779000D01*
X9243400Y63486300D01*
Y63486200D01*
X4496900Y58739700D01*
Y58532700D01*
X4497000Y58532600D01*
Y40281500D01*
X5102000Y39676500D01*
X6372000Y51404000D02*
X6097000D01*
X6372000Y51404000D02*
X6097000Y51679000D01*
X6372000Y52754000D02*
X6097000D01*
X6372000Y52754000D02*
X6097000Y53029000D01*
X6102500Y57015000D02*
Y57290000D01*
X6102500Y57015000D02*
X6377500D01*
X6102500Y57015000D02*
X6377500Y57290000D01*
X6522000Y48704000D02*
X6352000Y48534000D01*
Y43624900D01*
X7797000Y42178500D01*
Y24917900D01*
X7991500Y24723500D01*
X7797000Y24917900D02*
X7602500Y24723500D01*
X7797000Y24917900D02*
Y24529000D01*
X8447000Y43090100D02*
Y36779000D01*
X9647000Y35579000D01*
Y30979100D01*
X10497000Y30129000D01*
X11547000D01*
X12297000Y29379000D01*
Y19329000D01*
X12497000Y19129000D01*
Y18154000D01*
X13572000Y17079000D01*
X17047000D01*
X18176100Y18208100D01*
X6847000Y47290100D02*
Y46082600D01*
X8942000Y43987600D01*
Y38026500D01*
X10172000Y36796500D01*
X10179500D01*
X11697000Y35279000D01*
Y34049200D01*
X12552000Y33194200D01*
Y19524000D01*
X12897000Y19179000D01*
Y18479000D01*
X13697000Y17679000D01*
X14258100D01*
X8447000Y43090100D02*
X8252500Y43284500D01*
X8447000Y43090100D02*
X8641500Y43284500D01*
X8447000Y43479000D02*
Y43090100D01*
X6372000Y51404000D02*
X7397000Y50379000D01*
Y46129000D01*
X9202000Y44324000D01*
Y43148000D01*
X9650000Y42700000D01*
X10626000D01*
X10752000Y42574000D01*
X10752100D01*
X11550000Y41776100D01*
Y39176000D01*
X12897000Y37829000D01*
Y36529000D01*
X14597000Y34829000D01*
Y34251100D01*
X14347000Y34001100D01*
Y29003000D01*
X14597000Y28753000D01*
Y25817900D01*
X6372000Y52754000D02*
X7747000Y51379000D01*
Y46286400D01*
X15792000Y38241400D01*
Y31946500D01*
X15102000Y31256500D01*
Y29248000D01*
X15446900Y28903100D01*
Y25153100D01*
X15847000Y24753000D01*
Y21317900D01*
X6847000Y47290100D02*
X6652500Y47484500D01*
X6847000Y47290100D02*
X7041500Y47484500D01*
X6847000Y47679000D02*
Y47290100D01*
X6522000Y48704000D02*
Y48979000D01*
X6522000Y48704000D02*
X6797000D01*
X6797000Y48979000D02*
X6522000Y48704000D01*
X6372000Y51404000D02*
Y51679000D01*
X6372000Y52754000D02*
Y53029000D01*
X13222000Y19304000D02*
X12802000Y19724000D01*
Y34624000D01*
X9929300Y37496700D01*
Y40840100D01*
X14522000Y21004000D02*
X13947000Y21579000D01*
Y29786500D01*
X13947100Y29786600D01*
Y30221600D01*
X13947000Y30221700D01*
Y30329000D01*
X13946900Y30329100D01*
Y30446500D01*
X13639400Y30754000D01*
X13522000D01*
X13252000Y31024000D01*
Y34824000D01*
X11092000Y36984000D01*
Y41484000D01*
X10822000Y41754000D01*
X9929300Y40840100D02*
X9734800Y41034500D01*
X9929300Y40840100D02*
X10123800Y41034500D01*
X9929300Y40840100D02*
Y41229000D01*
X10822000Y41754000D02*
X10547000Y41804000D01*
X10822000Y41754000D02*
Y42079000D01*
X10822000Y41754000D02*
X10547000Y42029000D01*
Y42079000D01*
X10085900Y43479000D02*
X10200800D01*
X11002100Y42677700D01*
Y42677600D01*
X11947000Y41732700D01*
Y39729000D01*
X14572000Y37104000D01*
X16522000Y28428000D02*
X16196900Y28753100D01*
Y29353100D01*
X15852000Y29698000D01*
Y30945700D01*
X16542000Y31635700D01*
Y38552300D01*
X11877300Y43217000D01*
X11452000Y43642400D01*
Y48224000D01*
X9747000Y49929000D01*
Y53379100D01*
X11146900Y54779000D01*
X11847000D01*
X12072000Y55004000D01*
X17031300Y25539700D02*
Y25694800D01*
X15946900Y26779200D01*
Y29203100D01*
X15602000Y29548000D01*
Y31049300D01*
X16292000Y31739300D01*
Y38448600D01*
X11081000Y43659600D01*
Y48045000D01*
X9447000Y49679000D01*
Y53432700D01*
X11018300Y55004000D01*
X16297000Y25967900D02*
Y26004800D01*
X15696900Y26604900D01*
Y29053100D01*
X15352000Y29398000D01*
Y31152900D01*
X16042000Y31842900D01*
Y38345000D01*
X9147000Y45240000D01*
Y53779100D01*
X11141900Y55774000D01*
X12852000D01*
X13072000Y55554000D01*
X10085900Y43479000D02*
X9891500Y43284500D01*
X10085900Y43479000D02*
X9891500Y43673500D01*
X9697000Y43479000D02*
X10085900D01*
X11599300Y53576700D02*
Y53301700D01*
X11599300Y53576700D02*
X11324300Y53301700D01*
X11018300Y55004000D02*
X11072000Y55279000D01*
X11018300Y55004000D02*
X11293300Y55279000D01*
X11347000D01*
X11599300Y53576700D02*
X11324300D01*
X11599300Y53576700D02*
X11796600Y53774000D01*
X13552100D01*
X14247000Y53079100D01*
Y52779000D01*
X14947000Y52079000D01*
X15247000D01*
X15807900Y51518100D01*
Y49557900D01*
X15552000Y49302000D01*
Y45398000D01*
X16297000Y44653000D01*
Y41708200D01*
X16296900Y41708100D01*
Y41086700D01*
X16882400Y40501200D01*
X16882500D01*
X18902100Y38481600D01*
Y37331200D01*
X19146900Y37086400D01*
Y35080500D01*
X19742000Y34485400D01*
Y28324000D01*
X19600000Y28182000D01*
Y27676000D01*
X19850000Y27426000D01*
Y25395300D01*
X20266300Y24979000D01*
Y22898300D01*
X19922000Y22554000D01*
X10622000Y56654000D02*
Y56379000D01*
X10622000Y56654000D02*
X10347000D01*
X10622000Y56654000D02*
X10347000Y56379000D01*
X20892000Y27422900D02*
Y28484100D01*
X20552000Y28824100D01*
Y35220100D01*
X20396900Y35375200D01*
Y36897200D01*
X19652100Y37642000D01*
Y38792400D01*
X17047000Y41397500D01*
Y45253000D01*
X16792000Y45508000D01*
Y49652500D01*
X16308100Y50136400D01*
Y51817900D01*
X15547000Y52579000D01*
X15247000D01*
X14842000Y52984000D01*
Y55084000D01*
X13052000Y56874000D01*
X10842000D01*
X10622000Y56654000D01*
X11735900Y56379000D02*
X11541500Y56184500D01*
X11735900Y56379000D02*
X11541500Y56573500D01*
X11347000Y56379000D02*
X11735900D01*
X14258100Y17679000D02*
X14647000D01*
X14258100Y17679000D02*
X14452500Y17484500D01*
X14258100Y17679000D02*
X14452500Y17873500D01*
X13222000Y19304000D02*
X13497000D01*
X13222000Y19304000D02*
Y19029000D01*
X13497000Y19029000D02*
X13222000Y19304000D01*
X13222000Y40054000D02*
X12947000D01*
X13222000Y40054000D02*
Y40329000D01*
X13222000Y40054000D02*
X12947000Y40329000D01*
X13222000Y40054000D02*
X15542000Y37734000D01*
Y32592300D01*
X14852000Y31902300D01*
Y29048000D01*
X15092000Y28808000D01*
Y24874000D01*
X14897000Y24679000D01*
Y24617900D01*
X11997000Y43690100D02*
Y43618600D01*
X16792000Y38823600D01*
Y31532100D01*
X16102000Y30842100D01*
Y29848000D01*
X16447000Y29503000D01*
Y29353000D01*
X17292000Y28508000D01*
Y27648400D01*
X17052000Y27408400D01*
Y26320400D01*
X17051900Y26320300D01*
Y26148100D01*
X17526300Y25673700D01*
Y24776300D01*
X16552000Y23802000D01*
Y20034000D01*
X16022000Y19504000D01*
X13622000Y52004000D02*
X14296900Y51329000D01*
Y44179100D01*
X14672000Y43804000D01*
X11997000Y43690100D02*
X11752500Y43934500D01*
X11997000Y43690100D02*
X12141500Y43934500D01*
X11997000Y43690100D02*
Y44079000D01*
X11947000Y44129000D01*
X13622000Y53004000D02*
X13347000D01*
X13622000Y53004000D02*
Y53279000D01*
X13622000Y53004000D02*
X13347000Y53279000D01*
X17647000Y35117900D02*
Y35803000D01*
X17347000Y36103000D01*
Y38975900D01*
X16571800Y39751100D01*
X16571700D01*
X15546900Y40775900D01*
Y42018900D01*
X15547000Y42019000D01*
Y42042900D01*
X15546900Y42043000D01*
Y43078800D01*
X15547000Y43078900D01*
Y44079200D01*
X15546900Y44079300D01*
Y44103100D01*
X14546900Y45103100D01*
Y52079100D01*
X13622000Y53004000D01*
X13622000Y52004000D02*
X13347000D01*
X13622000Y52004000D02*
Y52279000D01*
X13347000Y52279000D02*
X13622000Y52004000D01*
X11735900Y56379000D02*
X13097000D01*
X14497000Y54979000D01*
Y52929000D01*
X15097000Y52329000D01*
X15407700D01*
X16058000Y51678700D01*
Y51346300D01*
X16057900Y51346200D01*
Y49407900D01*
X15802000Y49152000D01*
Y45598000D01*
X16547000Y44853000D01*
Y41604600D01*
X16546900Y41604500D01*
Y41190300D01*
X16986000Y40751200D01*
X16986100D01*
X19152100Y38585200D01*
Y37434800D01*
X19396900Y37190000D01*
Y35184100D01*
X20052000Y34529000D01*
Y28024000D01*
X20147000Y27929000D01*
X12072000Y55004000D02*
X12347000Y55279000D01*
X12072000Y55004000D02*
X12347000D01*
X12072000Y55004000D02*
Y55279000D01*
X13072000Y55554000D02*
X13347000D01*
X13072000Y55554000D02*
Y55279000D01*
X13072000Y55554000D02*
X13347000Y55279000D01*
X14108100Y63879000D02*
X14302500Y64073500D01*
X14108100Y63879000D02*
X14302500Y63684500D01*
X14497000Y63879000D02*
X14108100D01*
X14108100Y64929000D02*
X14302500Y65123500D01*
X14108100Y64929000D02*
X14302500Y64734500D01*
X14497000Y64929000D02*
X14108100D01*
X14522000Y21004000D02*
X14797000D01*
X14522000Y21004000D02*
Y20729000D01*
X14797000Y20729000D02*
X14522000Y21004000D01*
X17047000Y21017900D02*
X16852500Y20823500D01*
X15847000Y21317900D02*
X16041500Y21123500D01*
X15847000Y21317900D02*
X15652500Y21123500D01*
X15847000Y21317900D02*
Y20929000D01*
X16022000Y19504000D02*
Y19229000D01*
X16022000Y19504000D02*
X15747000D01*
X16022000Y19504000D02*
X15747000Y19229000D01*
X14897000Y24617900D02*
X15091500Y24423500D01*
X14897000Y24617900D02*
X14702500Y24423500D01*
X14897000Y24617900D02*
Y24229000D01*
X17031300Y25539700D02*
X16836800Y25345300D01*
X16297000Y25967900D02*
X16491500Y25773500D01*
X16297000Y25967900D02*
X16102500Y25773500D01*
X16297000Y25967900D02*
Y25579000D01*
X14597000Y25817900D02*
X14791500Y25623500D01*
X14597000Y25817900D02*
X14402500Y25623500D01*
X14597000Y25817900D02*
Y25429000D01*
X16597000Y30379000D02*
X16697000Y30279000D01*
Y29503000D01*
X17542000Y28658000D01*
Y27474000D01*
X17302000Y27234000D01*
Y26298000D01*
X17776300Y25823700D01*
Y24626300D01*
X17047000Y23897000D01*
Y21017900D01*
X16522000Y28428000D02*
X16797000Y28404000D01*
X16522000Y28428000D02*
Y28129000D01*
X16797000Y28129000D02*
Y28153000D01*
X16522000Y28428000D01*
X15097000Y33517900D02*
X15241500Y33273500D01*
X15097000Y33517900D02*
X14852500Y33273500D01*
X15097000Y33517900D02*
Y36579000D01*
X15047000Y33079000D02*
X15097000Y33129000D01*
Y33517900D01*
X15097000Y36579000D02*
X14872000D01*
X15097000Y36579000D02*
X15096900Y36804000D01*
X15097000Y36579000D02*
X14847000Y36829000D01*
X14572000Y37104000D02*
X14847000D01*
X14572000Y37104000D02*
Y36829000D01*
X14572000Y37104000D02*
X14847000Y36829000D01*
X17797000Y27042900D02*
Y28786300D01*
X17097000Y29486300D01*
Y38872200D01*
X14947000Y41022200D01*
Y43140100D01*
X15047000Y49740100D02*
Y45053000D01*
X15797000Y44303000D01*
Y41915400D01*
X15796900Y41915300D01*
Y40879500D01*
X16675300Y40001100D01*
X16675400D01*
X18402000Y38274500D01*
Y37124100D01*
X18646900Y36879200D01*
Y34873200D01*
X19242000Y34278100D01*
Y28531300D01*
X19100000Y28389300D01*
Y27468800D01*
X19350000Y27218800D01*
Y25750000D01*
X19026300Y25426300D01*
Y21138600D01*
X15312900Y51244700D02*
X15542000Y51015600D01*
Y49692000D01*
X15302000Y49452000D01*
Y45248000D01*
X16047000Y44503000D01*
Y41811800D01*
X16046900Y41811700D01*
Y40983100D01*
X16778800Y40251200D01*
X16778900D01*
X18652100Y38378000D01*
Y37227600D01*
X18896900Y36982800D01*
Y34976900D01*
X19492000Y34381800D01*
Y28427600D01*
X19350000Y28285600D01*
Y27572400D01*
X19600000Y27322400D01*
Y25600000D01*
X19276300Y25276300D01*
Y23599700D01*
X19322000Y23554000D01*
X16297000Y48390100D02*
Y46432600D01*
X16296900Y46432500D01*
Y45553100D01*
X16797000Y45053000D01*
Y41501000D01*
X16796900Y41500900D01*
Y41293900D01*
X17089600Y41001200D01*
X17089700D01*
X19402100Y38688800D01*
Y37538400D01*
X19647000Y37293500D01*
Y37279000D01*
X19897000Y37029000D01*
Y36229000D01*
X19947000Y36179000D01*
X14672000Y43804000D02*
X14947000D01*
X14672000Y43804000D02*
Y43529000D01*
X14672000Y43804000D02*
X14947000Y43529000D01*
X14947000Y43140100D02*
X14752500Y43334500D01*
X14947000Y43140100D02*
X15141500Y43334500D01*
X14947000Y43140100D02*
Y43529000D01*
X16447000Y52040100D02*
Y52036800D01*
X16583700Y51900000D01*
Y50243500D01*
X17042000Y49785200D01*
Y45658000D01*
X17052000Y45648000D01*
Y45644400D01*
X17297000Y45399400D01*
Y41501100D01*
X17719100Y41079000D01*
X18793200D01*
X20152100Y39720100D01*
Y37849200D01*
X20897000Y37104300D01*
Y35582400D01*
X21127000Y35352400D01*
Y30930900D01*
X15047000Y49740100D02*
Y50129000D01*
X15047000Y49740100D02*
X15241500Y49934500D01*
X15047000Y49740100D02*
X14852500Y49934500D01*
X16297000Y48390100D02*
X16102500Y48584500D01*
X16297000Y48390100D02*
X16491500Y48584500D01*
X16297000Y48779000D02*
Y48390100D01*
X15847000Y55240100D02*
Y53729100D01*
X17683700Y51892400D01*
Y50243500D01*
X17302000Y49861800D01*
Y45748000D01*
X18397000Y44653000D01*
Y41828800D01*
X20402100Y39823700D01*
Y37952800D01*
X21147000Y37207900D01*
Y35686100D01*
X21377000Y35456100D01*
Y31149100D01*
X21842000Y30684100D01*
Y28790000D01*
X21637400Y28585400D01*
Y28428900D01*
X16447000Y52040100D02*
X16252500Y52234500D01*
X16447000Y52040100D02*
X16641500Y52234500D01*
X16447000Y52429000D02*
Y52040100D01*
X15847000Y55240100D02*
X15652500Y55434500D01*
X15847000Y55240100D02*
X16041500Y55434500D01*
X15847000Y55629000D02*
Y55240100D01*
X16947000Y80440100D02*
Y79947000D01*
X15597000Y78597000D01*
Y75479000D01*
X16292000Y74784000D01*
Y66774000D01*
X15904500Y66386500D01*
X15854500Y66111500D01*
X15904500Y66386500D02*
X15579500D01*
X15904500Y66386500D02*
X15629500Y66111500D01*
X15579500D01*
X16947000Y80440100D02*
X16752500Y80634500D01*
X16947000Y80440100D02*
X17141500Y80634500D01*
X16947000Y80829000D02*
Y80440100D01*
X18176100Y18208100D02*
X18483500Y18515500D01*
X18451100D01*
X18176100Y18208100D02*
X18451100Y18240500D01*
X18176100Y18208100D02*
Y18515500D01*
X17547000Y18867900D02*
X17741500Y18673500D01*
X17547000Y18867900D02*
X17352500Y18673500D01*
X17547000Y18867900D02*
Y18479000D01*
X17047000Y21017900D02*
X17241500Y20823500D01*
X17047000Y21017900D02*
Y20629000D01*
X19026300Y21138600D02*
X19241500Y20923500D01*
X19026300Y21138600D02*
X18852500Y20923500D01*
X19026300Y21138600D02*
Y20749700D01*
X19047000Y20729000D01*
X17697000Y33140100D02*
Y30860500D01*
X17347000Y30510500D01*
Y29636900D01*
X18100000Y28883900D01*
Y27054300D01*
X18350000Y26804300D01*
Y26400000D01*
X18026300Y26076300D01*
Y24426300D01*
X17402000Y23802000D01*
Y21229000D01*
X17547000Y21084000D01*
Y18867900D01*
X18047000Y21067900D02*
X18241500Y20873500D01*
X18047000Y21067900D02*
X17852500Y20873500D01*
X18047000Y21067900D02*
Y20679000D01*
X18497000Y32429000D02*
X18697000Y32229000D01*
Y28693600D01*
X18600000Y28596600D01*
Y27261600D01*
X18850000Y27011600D01*
Y26100000D01*
X18526300Y25776300D01*
Y21826300D01*
X18047000Y21347000D01*
Y21067900D01*
X18647000Y19967900D02*
X18841500Y19773500D01*
X18647000Y19967900D02*
X18452500Y19773500D01*
X18647000Y19967900D02*
Y19579000D01*
X18647000Y19967900D02*
Y20428900D01*
X18552000Y20523900D01*
Y21302000D01*
X18776300Y21526300D01*
Y25576300D01*
X19100000Y25900000D01*
Y27115200D01*
X18850000Y27365200D01*
Y28493000D01*
X18992000Y28635000D01*
Y33259000D01*
X19322000Y23554000D02*
X19597000D01*
X19322000Y23554000D02*
Y23279000D01*
X19322000Y23554000D02*
X19597000Y23279000D01*
X17897000Y22467900D02*
X18091500Y22273500D01*
X17897000Y22467900D02*
X17702500Y22273500D01*
X17897000Y22467900D02*
Y22079000D01*
X17622000Y37404000D02*
X17602000Y37384000D01*
Y36274000D01*
X18250000Y35626000D01*
Y33100000D01*
X17950000Y32800000D01*
Y30759900D01*
X17597000Y30406900D01*
Y29740500D01*
X18350000Y28987500D01*
Y27157900D01*
X18600000Y26907900D01*
Y26250000D01*
X18276300Y25926300D01*
Y24226300D01*
X17897000Y23847000D01*
Y22467900D01*
X19922000Y22554000D02*
X19647000D01*
X19922000Y22554000D02*
X19647000Y22279000D01*
X17031300Y25539700D02*
X17225800Y25345300D01*
X17031300Y25539700D02*
Y25150800D01*
X17797000Y27042900D02*
Y26654000D01*
X17797000Y27042900D02*
X17602500Y26848500D01*
X17647000Y35117900D02*
Y34729000D01*
X17697000Y33140100D02*
Y33529000D01*
X17697000Y33140100D02*
X17891500Y33334500D01*
X17697000Y33140100D02*
X17502500Y33334500D01*
X18992000Y33259000D02*
X18777000D01*
X18992000Y33259000D02*
X18991900Y33474000D01*
X18992000Y33259000D02*
X18747000Y33504000D01*
X17647000Y35117900D02*
X17841500Y34923500D01*
X17647000Y35117900D02*
X17452500Y34923500D01*
X17622000Y37404000D02*
X17897000Y37679000D01*
X19858500Y39313600D02*
X19583500D01*
X19858500Y39313600D02*
X19583500Y39588600D01*
X17622000Y37404000D02*
Y37679000D01*
X17622000Y37404000D02*
X17897000D01*
X21767100Y70017800D02*
X21372000Y69622700D01*
Y59793000D01*
X20022000Y58443000D01*
Y54093000D01*
X18902000Y52973000D01*
Y47497300D01*
X18797000Y47392300D01*
Y41879000D01*
X20697000Y39979000D01*
Y38279000D01*
X21402000Y37574000D01*
Y35920300D01*
X21627000Y35695300D01*
Y31252700D01*
X22132400Y30747300D01*
Y27414400D01*
X21108000Y26390000D01*
Y25806900D01*
X24297000Y26167900D02*
Y26494000D01*
X23741000Y27050000D01*
Y30762100D01*
X24117000Y31138100D01*
Y36250000D01*
X23952000Y36415000D01*
Y37998000D01*
X22400000Y39550000D01*
Y40900000D01*
X21738000Y41562000D01*
X21200000D01*
X20897000Y41865000D01*
Y43679000D01*
X19402000Y45174000D01*
Y52052000D01*
X19622000Y52272000D01*
X21427000Y21804000D02*
X21702000Y21529000D01*
X22379000D01*
X22692000Y21842000D01*
Y24408000D01*
X22400000Y24700000D01*
Y26621100D01*
X22947100Y27168200D01*
Y31029000D01*
X23367000Y31448900D01*
Y35833000D01*
X22647000Y36553000D01*
Y37779000D01*
X22597000D01*
X21090000Y39286000D01*
Y40056400D01*
X20300000Y40846400D01*
Y42725900D01*
X19047000Y43978900D01*
Y47253300D01*
X19152000Y47358300D01*
Y52834000D01*
X20297000Y53979000D01*
Y58197000D01*
X21682000Y59582000D01*
Y68904000D01*
X19922000Y43804000D02*
X19647000D01*
X19922000Y43804000D02*
X19647000Y44079000D01*
X17797000Y47367900D02*
X17991500Y47173500D01*
X17797000Y47367900D02*
X17602500Y47173500D01*
X17797000Y47367900D02*
Y46979000D01*
X22847000Y79279000D02*
X22747000Y79179000D01*
Y73879000D01*
X21097000Y72229000D01*
Y60429000D01*
X18202000Y57534000D01*
Y49601300D01*
X17797000Y49196300D01*
Y47367900D01*
X19622000Y52272000D02*
Y52579000D01*
X19622000Y52272000D02*
X19897000Y52304000D01*
X19622000Y52272000D02*
X19897000Y52547000D01*
Y52579000D01*
X17997000Y66702000D02*
Y67090900D01*
X17442000Y67984000D02*
Y67709000D01*
X17442000Y67984000D02*
X17167000D01*
X17442000Y67984000D02*
X17547000Y68089000D01*
Y81929000D01*
X17422000Y82054000D01*
X17167000Y67709000D02*
X17442000Y67984000D01*
X17997000Y67090900D02*
X18191500Y66896500D01*
X17997000Y67090900D02*
X17802500Y66896500D01*
X17997000Y67090900D02*
Y67400000D01*
X18147000Y67550000D01*
Y81790100D01*
X17422000Y82054000D02*
X17147000D01*
X17422000Y82054000D02*
Y82329000D01*
X17422000Y82054000D02*
X17147000Y82329000D01*
X18147000Y81790100D02*
Y82179000D01*
X18147000Y81790100D02*
X18341500Y81984500D01*
X18147000Y81790100D02*
X17952500Y81984500D01*
X25047000Y8529000D02*
Y9194100D01*
X24147000Y10094100D01*
Y11529000D01*
X20947000Y14729000D01*
Y21379000D01*
X20547000Y21779000D01*
Y22379000D01*
X21108000Y22940000D01*
Y25029100D01*
X22002000Y16572900D02*
X22196500Y16378500D01*
X22002000Y16572900D02*
X21807500Y16378500D01*
X22002000Y16572900D02*
Y20702000D01*
X22942000Y21642000D01*
Y24608000D01*
X22650000Y24900000D01*
Y26450000D01*
X23241000Y27041000D01*
Y30969300D01*
X23617000Y31345300D01*
Y35983000D01*
X23147000Y36453000D01*
Y36840100D01*
X22002000Y16184000D02*
Y16572900D01*
X20247000Y21467900D02*
X20441500Y21273500D01*
X20247000Y21467900D02*
X20052500Y21273500D01*
X20247000Y21467900D02*
Y21079000D01*
X23199300Y25395100D02*
Y21499300D01*
X22252000Y20552000D01*
Y19577000D01*
X22700000Y19129000D01*
X23208100D01*
X21427000Y21804000D02*
X21147000D01*
X21427000Y21804000D02*
X21422000Y22079000D01*
X21427000Y21804000D02*
X21152000Y22079000D01*
X21147000D01*
X21922000Y22354000D02*
X22197000D01*
X21922000Y22354000D02*
Y22079000D01*
X21922000Y22354000D02*
X21400000Y22876000D01*
Y24800000D01*
X21650000Y25050000D01*
Y26578400D01*
X22382400Y27310800D01*
Y30850900D01*
X21877000Y31356300D01*
Y35798900D01*
X21652000Y36023900D01*
Y36829000D01*
X22002000Y37179000D01*
X22097000D01*
X22197000Y22079000D02*
X21922000Y22354000D01*
X19947000Y36179000D02*
X19897000Y36129000D01*
Y35079000D01*
X20302000Y34674000D01*
Y28720400D01*
X20642000Y28380400D01*
Y27642000D01*
X20350000Y27350000D01*
Y26794600D01*
X20516300Y26628300D01*
Y22794700D01*
X20247000Y22525400D01*
Y21467900D01*
X19922000Y22554000D02*
Y22279000D01*
X21108000Y25806900D02*
X21302500Y25612500D01*
X21108000Y25806900D02*
X20913500Y25612500D01*
X21108000Y25806900D02*
Y25418000D01*
X21108000Y25029100D02*
X20913500Y25223500D01*
X21108000Y25029100D02*
X21302500Y25223500D01*
X21108000Y25029100D02*
Y25418000D01*
X21997000Y24229000D02*
Y24617900D01*
Y26571700D01*
X22632400Y27207100D01*
Y30973600D01*
X22377000Y31229000D01*
Y32212700D01*
X23097000Y32932700D01*
Y35703000D01*
X22571000Y36229000D01*
X22535900D01*
X21997000Y24617900D02*
X21802500Y24423500D01*
X21997000Y24617900D02*
X22191500Y24423500D01*
X21637400Y28428900D02*
X21831900Y28234500D01*
X21637400Y28428900D02*
X21442900Y28234500D01*
X21637400Y28428900D02*
Y28040000D01*
X20892000Y27422900D02*
X21091500Y27223500D01*
X20892000Y27422900D02*
X20702500Y27223500D01*
X20897000Y27029000D02*
X20892000Y27034000D01*
Y27422900D01*
X21072000Y29704000D02*
X21347000D01*
X21072000Y29704000D02*
Y29429000D01*
X21072000Y29704000D02*
X20802000Y29974000D01*
Y35323700D01*
X20647000Y35478700D01*
Y37000700D01*
X19902100Y37745600D01*
Y39270000D01*
X19858500Y39313600D01*
X21347000Y29429000D02*
X21072000Y29704000D01*
X21127000Y30930900D02*
X21288100Y30795100D01*
X21127000Y30930900D02*
X21127100Y30634000D01*
X21127000Y30930900D02*
X21297000Y30760900D01*
Y30529000D01*
X19947000Y36179000D02*
X19897000D01*
X22535900Y36229000D02*
X22147000D01*
X22535900Y36229000D02*
X22341500Y36423500D01*
X22535900Y36229000D02*
X22341500Y36034500D01*
X19858500Y39313600D02*
Y39588600D01*
X25297000Y23567900D02*
Y24479100D01*
X24576100Y25200000D01*
X24100000D01*
X23750000Y25550000D01*
Y26141000D01*
X23491000Y26400000D01*
Y30865700D01*
X23867000Y31241700D01*
Y36135000D01*
X23702000Y36300000D01*
Y37798000D01*
X20550000Y40950000D01*
Y42829500D01*
X20547000Y42832500D01*
Y43179000D01*
X19922000Y43804000D01*
X20647000Y47740100D02*
Y47722500D01*
X20450000Y47525500D01*
Y45472300D01*
X20449900Y45472200D01*
Y45050100D01*
X22000000Y43500000D01*
X22400000D01*
X25257000Y40643000D01*
Y39345000D01*
X25792000Y38810000D01*
Y32074100D01*
X24402000Y30684100D01*
Y29924000D01*
X24486000Y29840000D01*
Y29706900D01*
X21797000Y48690100D02*
Y48183000D01*
X21830000Y48150000D01*
Y44870000D01*
X22350000Y44350000D01*
X22700000D01*
X26884000Y40166000D01*
Y36304600D01*
X27797000Y35391600D01*
Y34629000D01*
X28642000Y33784000D01*
Y25792000D01*
X28372000Y25522000D01*
X21313900Y46750100D02*
Y44986100D01*
X22200000Y44100000D01*
X22550000D01*
X26634000Y40016000D01*
Y36181200D01*
X27542000Y35273200D01*
Y26042000D01*
X27147000Y25647000D01*
Y23967900D01*
X19922000Y43804000D02*
Y44079000D01*
X26897000Y21967900D02*
Y22500000D01*
X26600000Y22797000D01*
Y24300000D01*
X26800000Y24500000D01*
Y26600000D01*
X26252000Y27148000D01*
Y38703600D01*
X25507000Y39448600D01*
Y40746600D01*
X22403600Y43850000D01*
X22050000D01*
X20700000Y45200000D01*
Y47350000D01*
X21142000Y47792000D01*
Y49445100D01*
X19897000Y51190100D02*
Y45153000D01*
X22350000Y42700000D01*
Y41450000D01*
X22800000Y41000000D01*
Y39650000D01*
X25000000Y37450000D01*
Y36100000D01*
X24367000Y35467000D01*
Y31034500D01*
X23991000Y30658500D01*
Y29112900D01*
X25410100Y27693800D01*
Y25559900D01*
X26050000Y24920000D01*
Y21372300D01*
X26588400Y20833900D01*
X26592100D01*
X26622000Y20804000D01*
X20647000Y47740100D02*
X20452500Y47934500D01*
X20647000Y47740100D02*
X20841500Y47934500D01*
X20647000Y48129000D02*
Y47740100D01*
X21313900Y46750100D02*
X21119400Y46944500D01*
X21313900Y46750100D02*
X21508400Y46944500D01*
X21313900Y47139000D02*
Y46750100D01*
X28252500Y36515000D02*
X28047000Y36720500D01*
Y39056900D01*
X28484000Y39493900D01*
Y41666000D01*
X23488000Y46662000D01*
X22288000D01*
X22080000Y46870000D01*
Y47930000D01*
X22292000Y48142000D01*
Y50908000D01*
X21621000Y51579000D01*
X21535900D01*
X21797000Y48690100D02*
X21602500Y48884500D01*
X21797000Y48690100D02*
X21991500Y48884500D01*
X21797000Y49079000D02*
Y48690100D01*
X21142000Y49445100D02*
X20902500Y49684500D01*
X21142000Y49445100D02*
X21291500Y49684500D01*
X21142000Y49445100D02*
Y49834000D01*
X21097000Y49879000D01*
X22922000Y68554000D02*
X22122000Y67754000D01*
Y59004000D01*
X21497000Y58379000D01*
Y56803000D01*
X22142000Y56158000D01*
Y52234000D01*
X22847000Y51529000D01*
Y49417900D01*
X19897000Y51190100D02*
X19702500Y51384500D01*
X19897000Y51190100D02*
X20091500Y51384500D01*
X19897000Y51579000D02*
Y51190100D01*
X21535900Y51579000D02*
X21341500Y51384500D01*
X21535900Y51579000D02*
X21341500Y51773500D01*
X21535900Y51579000D02*
X21147000D01*
X21682000Y68904000D02*
X21722000Y69179000D01*
X21682000Y68904000D02*
X21997000D01*
X21682000Y68904000D02*
X21957000Y69179000D01*
X21997000D01*
X19897000Y68117900D02*
X20091500Y67923500D01*
X19897000Y68117900D02*
X19702500Y67923500D01*
X19897000Y68117900D02*
Y73997000D01*
X22150000Y76250000D01*
Y80250000D01*
X22629000Y80729000D01*
X22858100D01*
X19897000Y67729000D02*
Y68117900D01*
X21767100Y70017800D02*
Y70292800D01*
X21767100Y70017800D02*
X22042100D01*
X22042100Y70292800D02*
X21767100Y70017800D01*
X24922000Y11554000D02*
X25197000D01*
X24922000Y11554000D02*
Y11279000D01*
X24922000Y11554000D02*
X25197000Y11279000D01*
X24297000Y25779000D02*
X24547000D01*
X25792000Y24534000D01*
Y19501900D01*
X24902000Y18611900D01*
Y11574000D01*
X24922000Y11554000D01*
X24122000Y24404000D02*
X23847000Y24129000D01*
Y21379000D01*
X23022000Y20554000D01*
X22747000Y20279000D01*
X23022000Y20554000D02*
X22747000D01*
X23022000Y20554000D02*
Y20279000D01*
X23208100Y19129000D02*
X23597000D01*
X23208100Y19129000D02*
X23402500Y18934500D01*
X23208100Y19129000D02*
X23402500Y19323500D01*
X24297000Y26167900D02*
X24491500Y25973500D01*
X24297000Y26167900D02*
X24102500Y25973500D01*
X24297000Y26167900D02*
Y25779000D01*
X24122000Y24404000D02*
Y24679000D01*
X24122000Y24404000D02*
X24397000D01*
X24397000Y24679000D02*
X24122000Y24404000D01*
X23199300Y25395100D02*
X23004800Y25589500D01*
X23199300Y25395100D02*
X23393800Y25589500D01*
X23199300Y25784000D02*
Y25395100D01*
X24486000Y29706900D02*
Y29318000D01*
X24874900Y29318000D02*
X24486000D01*
X24874900Y29318000D02*
X24680500Y29512500D01*
X24874900Y29318000D02*
X24680500Y29123500D01*
X29897000Y7573900D02*
Y9779100D01*
X28302000Y11374100D01*
Y16273900D01*
X27532000Y17043900D01*
Y19213900D01*
X27542000Y19223900D01*
Y20584100D01*
X27042100Y21084000D01*
X26691900D01*
X26350000Y21425900D01*
Y24550000D01*
X26510100Y24710100D01*
Y26319500D01*
X25747000Y27082600D01*
Y28520500D01*
X24949500Y29318000D01*
X24874900D01*
X24486000Y29706900D02*
X24291500Y29512500D01*
X24486000Y29706900D02*
X24680500Y29512500D01*
X23147000Y36840100D02*
X22952500Y37034500D01*
X23147000Y36840100D02*
X23341500Y37034500D01*
X23147000Y36840100D02*
Y37229000D01*
X28522000Y23822000D02*
X28892000Y24192000D01*
Y33887600D01*
X28047100Y34732500D01*
Y35495200D01*
X27134000Y36408300D01*
Y40342000D01*
X22672000Y44804000D01*
X22397000Y45079000D01*
X22672000Y44804000D02*
Y45079000D01*
X22672000Y44804000D02*
X22397000D01*
X22722000Y45804000D02*
X27384000Y41142000D01*
Y36511900D01*
X28297100Y35598800D01*
Y34836100D01*
X29142000Y33991200D01*
Y23342000D01*
X28600000Y22800000D01*
Y17397000D01*
X28797000Y17200000D01*
Y15367900D01*
X23647000Y69740100D02*
Y69553000D01*
X23750000Y69450000D01*
Y68550000D01*
X22597000Y67397000D01*
Y54097000D01*
X22397000Y53897000D01*
Y52379000D01*
X23342000Y51434000D01*
Y47586900D01*
X29397000Y41531900D01*
Y36575300D01*
X29642000Y36330300D01*
Y23108000D01*
X30197000Y22553000D01*
Y21417900D01*
X29392000Y22534000D02*
Y34253300D01*
X29147000Y34498300D01*
Y41353000D01*
X28734000Y41766000D01*
Y41769600D01*
X23346600Y47157000D01*
X22963900D01*
X22575000D01*
X22963900Y47157000D02*
X22769500Y47351500D01*
X22963900Y47157000D02*
X22769500Y46962500D01*
X22722000Y45804000D02*
X22447000D01*
X22722000Y45804000D02*
Y46079000D01*
X22447000Y46079000D02*
X22722000Y45804000D01*
X22847000Y49417900D02*
X23041500Y49223500D01*
X22847000Y49417900D02*
X22652500Y49223500D01*
X22847000Y49417900D02*
Y49029000D01*
X23947000Y49029000D02*
X24222000Y49304000D01*
X24597000Y49679000D01*
Y55329100D01*
X26291900Y57024000D01*
X26292000D01*
X27447000Y58179000D01*
X28297000D01*
X28797000Y58679000D01*
Y61850800D01*
X30774300Y63828100D01*
X30774400D01*
X31597000Y64650700D01*
Y65043100D01*
X24222000Y49304000D02*
X23947000D01*
X24222000Y49304000D02*
Y49029000D01*
X23897000Y52967900D02*
X24091500Y52773500D01*
X23897000Y52967900D02*
X23702500Y52773500D01*
X23897000Y52967900D02*
Y52579000D01*
X27954000Y69154000D02*
X27197000Y68397000D01*
Y66429000D01*
X26847000Y66079000D01*
X24529000D01*
X24000000Y65550000D01*
Y60400000D01*
X23250000Y59650000D01*
Y56047000D01*
X23897000Y55400000D01*
Y52967900D01*
X24263000Y57537000D02*
X23977000D01*
X24263000Y57537000D02*
X24252000Y57812000D01*
X24263000Y57537000D02*
X23988000Y57812000D01*
X23977000D01*
X24263000Y57537000D02*
X24650000Y57150000D01*
X25500000D01*
X26500000Y58150000D01*
Y63950000D01*
X30800000Y68250000D01*
Y70150000D01*
X30352000Y70598000D01*
Y77578000D01*
X30475000Y77701000D01*
X22922000Y68554000D02*
Y68829000D01*
X22922000Y68554000D02*
X23197000D01*
X23197000Y68829000D02*
X22922000Y68554000D01*
X23647000Y69740100D02*
X23452500Y69934500D01*
X23647000Y69740100D02*
X23841500Y69934500D01*
X23647000Y69740100D02*
Y70129000D01*
X22858100Y80729000D02*
X23052500Y80923500D01*
X22858100Y80729000D02*
X23052500Y80534500D01*
X22858100Y80729000D02*
X23247000D01*
X26622000Y20804000D02*
X26897000D01*
X26622000Y20804000D02*
Y20529000D01*
X26622000Y20804000D02*
X26897000Y20529000D01*
X27147000Y23967900D02*
X27341500Y23773500D01*
X27147000Y23967900D02*
X26952500Y23773500D01*
X27147000Y23967900D02*
Y23579000D01*
X25297000Y23567900D02*
X25491500Y23373500D01*
X25297000Y23567900D02*
X25102500Y23373500D01*
X25297000Y23567900D02*
Y23179000D01*
X26897000Y21967900D02*
X27091500Y21773500D01*
X26897000Y21967900D02*
X26702500Y21773500D01*
X26897000Y21579000D02*
Y21967900D01*
X25250000Y58203900D02*
X25441500Y58006500D01*
X25250000Y58203900D02*
X25052500Y58006500D01*
X25250000Y58203900D02*
Y63200000D01*
X30500000Y68450000D01*
Y69950000D01*
X29352000Y71098000D01*
Y77581000D01*
X30975000Y79204000D01*
X25247000Y57812000D02*
X25250000D01*
Y58203900D01*
X30972000Y76604000D02*
X30852000Y76484000D01*
Y71048000D01*
X32397100Y69502900D01*
Y69495600D01*
X33362000Y68530700D01*
Y66496900D01*
X33072100Y66207000D01*
X32661900D01*
X32372000Y65917100D01*
Y64718500D01*
X30981500Y63328000D01*
X30981400D01*
X29297000Y61643600D01*
Y57571900D01*
X28954100Y57229000D01*
X27197000D01*
X26772000Y56804000D01*
X26497000Y56529000D01*
X26772000Y56804000D02*
X26497000D01*
X26772000Y56804000D02*
Y56529000D01*
X25522000Y68247000D02*
Y67972000D01*
X25522000Y68247000D02*
X25247000D01*
X25522000Y68247000D02*
X25247000Y67972000D01*
X28697000Y82779000D02*
Y82747000D01*
X26147000Y80197000D01*
Y76879000D01*
X25247000Y75979000D01*
Y72929000D01*
X25692000Y72484000D01*
Y68417000D01*
X25522000Y68247000D01*
X29922000Y13054000D02*
X30197000D01*
X29922000Y13054000D02*
Y12779000D01*
X29922000Y13054000D02*
X30197000Y12779000D01*
X29922000Y13054000D02*
X29402000Y13574000D01*
Y16956100D01*
X30692000Y18246100D01*
Y22458000D01*
X29996900Y23153100D01*
Y24375600D01*
X29996800Y24375700D01*
Y24789900D01*
X29996900Y24790000D01*
Y31446900D01*
X30792000Y32242000D01*
Y34058000D01*
X30500000Y34350000D01*
Y36358000D01*
X30650000Y36508000D01*
Y37250000D01*
X30352000Y37548000D01*
Y41234000D01*
X30742000Y41624000D01*
Y44634000D01*
X30652000Y44724000D01*
Y49333900D01*
X31150000Y49831900D01*
Y61250000D01*
X31804000Y61904000D01*
X28797000Y15367900D02*
X28991500Y15173500D01*
X28797000Y15367900D02*
X28602500Y15173500D01*
X28797000Y15367900D02*
Y14979000D01*
X31147000Y31479000D02*
X30600000D01*
X30246900Y31125900D01*
Y24686400D01*
X30246800Y24686300D01*
Y24503200D01*
X31242000Y23508000D01*
Y22392000D01*
X31241300Y22391300D01*
Y22141300D01*
X30942000Y21842000D01*
Y17224000D01*
X30172000Y16454000D01*
Y16179000D01*
X30172000Y16454000D02*
X29897000D01*
X29897000Y16179000D02*
X30172000Y16454000D01*
X30197000Y21417900D02*
X30391500Y21223500D01*
X30197000Y21417900D02*
X30002500Y21223500D01*
X30197000Y21417900D02*
Y21029000D01*
X27997000Y21582900D02*
X28191500Y21388500D01*
X27997000Y21582900D02*
X27802500Y21388500D01*
X27997000Y21582900D02*
Y21194000D01*
X27822000Y24954000D02*
X27752000Y24884000D01*
Y22745000D01*
X27997000Y22500000D01*
Y21582900D01*
X28522000Y23822000D02*
Y23529000D01*
X28522000Y23822000D02*
X28247000Y23804000D01*
X28247000Y23529000D02*
Y23547000D01*
X28522000Y23822000D01*
X29392000Y22534000D02*
X29650200D01*
X29392000Y22534000D02*
X29392100Y22275800D01*
X29658600Y22267400D02*
X29392000Y22534000D01*
X27822000Y24954000D02*
Y25229000D01*
X27822000Y24954000D02*
X28097000D01*
X28372000Y25522000D02*
Y25229000D01*
X28372000Y25522000D02*
X28097000Y25504000D01*
X28372000Y25522000D02*
X28097000Y25247000D01*
Y25229000D01*
X27822000Y24954000D01*
X28147000Y28949000D02*
X28067000Y29029000D01*
Y31899000D01*
X28147000Y31979000D01*
X30022000Y33779000D02*
X30297000D01*
X30022000Y33779000D02*
Y33504000D01*
X30022000Y33779000D02*
X29892000Y33909000D01*
Y36433900D01*
X29647000Y36678900D01*
Y41779000D01*
X29502000Y41924000D01*
Y44483900D01*
X29842000Y44823900D01*
Y48934100D01*
X28852000Y49924100D01*
Y50734000D01*
X29547000Y51429000D01*
Y61540000D01*
X31084900Y63077900D01*
X31085000D01*
X32299200Y64292100D01*
X32427200D01*
X33362000Y65226900D01*
Y66012000D01*
X33650000Y66300000D01*
Y68750000D01*
X33362000Y69038000D01*
Y70564000D01*
X31872000Y72054000D01*
X30297000Y33504000D02*
X30022000Y33779000D01*
X30147000Y37229000D02*
X29991500Y37073500D01*
X30147000Y37229000D02*
Y36879000D01*
X30197000Y49579000D02*
X30020200Y49402200D01*
X30092000Y49330400D01*
Y44474000D01*
X29752000Y44134000D01*
Y42074000D01*
X29897000Y41929000D01*
Y37479000D01*
X30147000Y37229000D01*
X28252500Y36515000D02*
X28527500D01*
X28252500Y36515000D02*
Y36240000D01*
X28527500Y36240000D02*
X28252500Y36515000D01*
X29347000Y50617900D02*
X29541500Y50423500D01*
X29347000Y50617900D02*
X29152500Y50423500D01*
X29347000Y50617900D02*
Y50229000D01*
X36402000Y65102000D02*
X36100000Y64800000D01*
X33850000D01*
X32774000Y63724000D01*
X32645500D01*
X32645400Y63724100D01*
X32438400D01*
X30550000Y61835700D01*
Y52032000D01*
X29347000Y50829000D01*
Y50617900D01*
X30197000Y49579000D02*
X30850000Y50232000D01*
Y61782100D01*
X32541900Y63474000D01*
X37010000D01*
X37400000Y63864000D01*
Y66132000D01*
X37672000Y66404000D01*
X30047000Y58835900D02*
X30241500Y58641500D01*
X30047000Y58835900D02*
X29852500Y58641500D01*
X30047000Y58835900D02*
Y58447000D01*
X29047000Y58022000D02*
Y57797000D01*
X29047000Y58022000D02*
X28822000Y58021900D01*
X29047000Y58022000D02*
X28797000Y57772000D01*
X32297000Y78890100D02*
Y78697000D01*
X30602000Y77002000D01*
Y70798000D01*
X32342000Y69058000D01*
Y66420200D01*
X32092000Y66170200D01*
Y64792100D01*
X30878000Y63578100D01*
X30877900D01*
X29047000Y61747200D01*
Y58022000D01*
X32250000Y76540100D02*
Y75576000D01*
X33797000Y74029000D01*
Y69027000D01*
X34750000Y68074000D01*
Y66450000D01*
X34350000Y66050000D01*
X33952000D01*
X33612000Y65710000D01*
Y65097600D01*
X32488500Y63974100D01*
X32334800D01*
X31188600Y62827900D01*
X31188500D01*
X31042200Y62681600D01*
Y62681500D01*
X30047000Y61686300D01*
Y58835900D01*
X27954000Y69154000D02*
X27972000Y69429000D01*
X27954000Y69154000D02*
X28247000D01*
X27954000Y69154000D02*
X28229000Y69429000D01*
X28247000D01*
X32147000Y13717900D02*
Y13329000D01*
X32147000Y13717900D02*
X32341500Y13523500D01*
X32147000Y13717900D02*
X31952500Y13523500D01*
X32972000Y22604000D02*
X33047000Y22529000D01*
Y17297000D01*
X32147000Y16397000D01*
Y13717900D01*
X31022000Y16504000D02*
Y16229000D01*
X31022000Y16504000D02*
X30747000D01*
X30747000Y16229000D02*
X31022000Y16504000D01*
X31247000Y16729000D01*
Y18147000D01*
X32189500Y19089500D01*
Y21760500D01*
X31742000Y22208000D01*
Y23761600D01*
X30746900Y24756700D01*
Y28196900D01*
X31500000Y28950000D01*
X32018000D01*
X32222000Y29154000D01*
X31694500Y21787900D02*
Y21399000D01*
X32972000Y22604000D02*
X32697000D01*
X32972000Y22604000D02*
Y22879000D01*
X32972000Y22604000D02*
X32697000Y22879000D01*
X31694500Y21787900D02*
X31889000Y21593500D01*
X31694500Y21787900D02*
X31500000Y21593500D01*
X38922000Y46104000D02*
X36922000Y44104000D01*
Y42853900D01*
X35597100Y41529000D01*
X33833700D01*
X32047000Y39742300D01*
Y31678900D01*
X31300000Y30931900D01*
Y29400000D01*
X30496900Y28596900D01*
Y24653100D01*
X31492000Y23658000D01*
Y22052500D01*
X31694500Y21850000D01*
Y21787900D01*
X33322000Y13204000D02*
X33052000Y13474000D01*
Y16830400D01*
X33302000Y17080400D01*
Y21252000D01*
X33450000Y21400000D01*
Y24776000D01*
X32072000Y26154000D01*
X31797000D01*
X32072000Y26154000D02*
Y26429000D01*
X32072000Y26154000D02*
X31797000Y26429000D01*
X32222000Y29154000D02*
Y29429000D01*
X32222000Y29154000D02*
X32497000D01*
X32222000Y29154000D02*
X32497000Y29429000D01*
X33072000Y35617000D02*
X33000000Y35545000D01*
Y31452000D01*
X33497100Y30954900D01*
Y27300000D01*
X33202000Y27004900D01*
Y25798000D01*
X33850000Y25150000D01*
Y22650000D01*
X35050000Y21450000D01*
Y16900000D01*
X33946900Y15796900D01*
Y14687900D01*
X32597000Y50940100D02*
Y49824000D01*
X32352000Y49579000D01*
Y41534100D01*
X30769000Y39951100D01*
Y39540900D01*
X31342000Y38967900D01*
Y37501900D01*
X30947000Y37106900D01*
Y36651100D01*
X31592000Y36006100D01*
Y35108100D01*
X31595000Y35105100D01*
Y34694900D01*
X31592000Y34691900D01*
Y31924000D01*
X31147000Y31479000D01*
X32222000Y29704000D02*
X32497000D01*
X32222000Y29704000D02*
Y29429000D01*
X32222000Y29704000D02*
X31702000Y30224000D01*
Y30979000D01*
X32297000Y31574000D01*
Y39638700D01*
X33937300Y41279000D01*
X35700700D01*
X37222000Y42800300D01*
Y43089100D01*
X38951400Y44818500D01*
X32497000Y29429000D02*
X32222000Y29704000D01*
X32597000Y50940100D02*
X32402500Y51134500D01*
X32597000Y50940100D02*
X32791500Y51134500D01*
X32597000Y51329000D02*
Y50940100D01*
X31804000Y61904000D02*
X31872000Y62179000D01*
X31804000Y61904000D02*
X32147000D01*
X31804000Y61904000D02*
X32079000Y62179000D01*
X32147000D01*
X31597000Y65043100D02*
Y65432000D01*
X31597000Y65043100D02*
X31791500Y65237500D01*
X31597000Y65043100D02*
X31402500Y65237500D01*
X31872000Y72054000D02*
X31597000D01*
X31872000Y72054000D02*
Y72329000D01*
X31872000Y72054000D02*
X31597000Y72329000D01*
X30972000Y76604000D02*
Y76879000D01*
X30972000Y76604000D02*
X31247000D01*
X31247000Y76879000D02*
X30972000Y76604000D01*
X32250000Y76540100D02*
X32055500Y76734500D01*
X32250000Y76540100D02*
X32444500Y76734500D01*
X32250000Y76929000D02*
Y76540100D01*
X30975000Y79204000D02*
X31250000Y79479000D01*
X30975000Y79204000D02*
X31250000D01*
X30975000Y79204000D02*
Y79479000D01*
X30475000Y77701000D02*
Y77976000D01*
X30475000Y77701000D02*
X30750000D01*
X30475000Y77701000D02*
X30750000Y77976000D01*
X32297000Y78890100D02*
X32102500Y79084500D01*
X32297000Y78890100D02*
X32491500Y79084500D01*
X32297000Y78890100D02*
Y79279000D01*
X33322000Y13204000D02*
X33597000D01*
X33322000Y13204000D02*
Y12929000D01*
X33597000Y12929000D02*
X33322000Y13204000D01*
X33946900Y14687900D02*
X34141400Y14493500D01*
X33946900Y14687900D02*
X33752400Y14493500D01*
X33946900Y14687900D02*
Y14299000D01*
X35272000Y14229000D02*
X35547000D01*
X35272000Y14229000D02*
Y13954000D01*
X35272000Y14229000D02*
X35547000Y13954000D01*
X35272000Y14229000D02*
X35033500Y14467500D01*
Y16483500D01*
X35300000Y16750000D01*
Y21600000D01*
X34150000Y22750000D01*
Y25300000D01*
X33452000Y25998000D01*
Y26634100D01*
X33796900Y26979000D01*
X33797000Y26979200D01*
Y31253000D01*
X33550000Y31500000D01*
Y32861100D01*
X34522000Y32122000D02*
X34200000Y31800000D01*
Y29452000D01*
X34552000Y29100000D01*
Y22751100D01*
X35583500Y21719600D01*
Y16249000D01*
X42422000Y12204000D02*
X36802000Y17824000D01*
Y21349700D01*
X35052000Y23099700D01*
Y25958300D01*
X35696900Y26603200D01*
Y29877600D01*
X35797000Y29977700D01*
Y31040100D01*
X48772000Y9804000D02*
X48568000Y9600000D01*
X45450000D01*
X43450000Y11600000D01*
Y11992000D01*
X41592000Y13850000D01*
X41200000D01*
X37102000Y17948000D01*
Y21474000D01*
X35302000Y23274000D01*
Y25784000D01*
X35997000Y26479000D01*
Y28479000D01*
X36292000Y28774000D01*
Y32784000D01*
X36072000Y33004000D01*
X35072000Y33154000D02*
X35292000Y32934000D01*
Y26622600D01*
X34802000Y26132600D01*
Y22925400D01*
X36431200Y21296200D01*
Y17249800D01*
X37224500Y16456500D01*
X35797000Y31040100D02*
X35602500Y31234500D01*
X35072000Y33154000D02*
X34797000D01*
X35072000Y33154000D02*
Y33429000D01*
X34797000Y33817900D02*
X34991500Y33623500D01*
X34797000Y33817900D02*
X34602500Y33623500D01*
X34797000Y33817900D02*
Y34850000D01*
X35050000Y35103000D01*
Y37350000D01*
X36150000Y38450000D01*
X36757000D01*
X37702000Y39395000D01*
Y39882100D01*
X39997100Y42177200D01*
Y43379100D01*
X40222000Y43604000D01*
X34797000Y33429000D02*
X35072000Y33154000D01*
X34797000Y33429000D02*
Y33817900D01*
X33550000Y33638900D02*
X33744500Y33444500D01*
X33550000Y33638900D02*
X33355500Y33444500D01*
X33550000Y33638900D02*
Y34500000D01*
X34300000Y35250000D01*
Y37500000D01*
X36302000Y39502000D01*
Y39904400D01*
X38547000Y42149400D01*
Y43079000D01*
X40602000Y45134000D01*
Y46280700D01*
X41301900Y46980600D01*
Y46980700D01*
X41448200Y47127000D01*
X42176600D01*
X42600000Y46703600D01*
Y45800000D01*
X42450000Y45650000D01*
Y44750000D01*
X42850000Y44350000D01*
X44300000D01*
X46997000Y41653000D01*
Y41217900D01*
X33550000Y32861100D02*
X33355500Y33055500D01*
X33550000Y32861100D02*
X33744500Y33055500D01*
X33550000Y32861100D02*
Y33250000D01*
Y33638900D01*
X34522000Y32122000D02*
Y32429000D01*
X34522000Y32122000D02*
X34797000Y32154000D01*
X34496000Y32704000D02*
X34797000D01*
X34496000Y32704000D02*
X34522000Y32429000D01*
X34496000Y32704000D02*
X34302000Y32898000D01*
Y34802000D01*
X34700000Y35200000D01*
Y37450000D01*
X36000000Y38750000D01*
X36703400D01*
X37402000Y39448600D01*
Y40006400D01*
X39569500Y42173900D01*
Y43677200D01*
X40900000Y45007700D01*
Y46225100D01*
X41551900Y46877000D01*
X42025000D01*
X42350000Y46552000D01*
Y46000000D01*
X42200000Y45850000D01*
Y44550000D01*
X42771100Y43978900D01*
X43797100D01*
X45149500Y42626500D01*
X34797000Y32429000D02*
X34771000D01*
X34496000Y32704000D01*
X34797000Y32429000D02*
Y32397000D01*
X34522000Y32122000D01*
X41482000Y46107000D02*
X41150000Y45775000D01*
Y44550000D01*
X41400000Y44300000D01*
Y41850000D01*
X41079000Y41529000D01*
X40116400D01*
X39307000Y40719600D01*
Y39448600D01*
X38984900Y39126500D01*
X37928500D01*
X36952000Y38150000D01*
X36250000D01*
X35500000Y37400000D01*
Y34750000D01*
X36302000Y33948000D01*
Y33223900D01*
X36591900Y32934000D01*
X36597000D01*
Y32403000D01*
X37292000Y31708000D01*
Y28529000D01*
X36752000Y27989000D01*
Y25862900D01*
X33347000Y36338900D02*
X33541500Y36144500D01*
X33347000Y36338900D02*
X33152500Y36144500D01*
X33347000Y36338900D02*
Y36997000D01*
X36002000Y39652000D01*
Y39983900D01*
X38247000Y42228900D01*
Y43203300D01*
X40302000Y45258300D01*
Y46334300D01*
X41051900Y47084200D01*
Y47084300D01*
X41344600Y47377000D01*
X42073000D01*
X42073100Y47377100D01*
X42280100D01*
X42850000Y46807200D01*
Y46800000D01*
X42897000Y46753000D01*
Y45169000D01*
X42987000Y45079000D01*
X33072000Y35617000D02*
Y35950000D01*
X33072000Y35617000D02*
X33347000Y35675000D01*
X33072000Y35617000D02*
X33347000Y35892000D01*
Y35950000D01*
Y36338900D01*
X44022000Y46657000D02*
X43700000Y46979000D01*
Y47196400D01*
X42446900Y48449500D01*
Y48453100D01*
X42300000Y48600000D01*
Y59450000D01*
X39372100Y62377900D01*
Y62379000D01*
X38522100Y63229000D01*
Y66827000D01*
X36520100Y68829000D01*
X34997000D01*
X34672000Y69154000D01*
X34397000D01*
X34672000Y69154000D02*
Y69429000D01*
X34672000Y69154000D02*
X34397000Y69429000D01*
X47608100Y10129000D02*
X45321000D01*
X43700000Y11750000D01*
Y12150000D01*
X41700000Y14150000D01*
X41300000D01*
X38247000Y17203000D01*
Y21278900D01*
X36221900Y23304000D01*
Y24605500D01*
X36292000Y24675600D01*
Y28349700D01*
X36797000Y28854700D01*
Y29040100D01*
X37224500Y16456500D02*
X37499500Y16181500D01*
X37224500Y16456500D02*
Y16181500D01*
X37224500Y16456500D02*
X37499500D01*
X37797000Y32429000D02*
X37921000D01*
X38176000Y32174000D01*
X38179600D01*
X38542000Y31811600D01*
Y31808000D01*
X39292000Y31058000D01*
Y28624100D01*
X37302000Y26634100D01*
Y26223900D01*
X37591900Y25934000D01*
X37992100D01*
X38597000Y25329100D01*
Y17253000D01*
X41400000Y14450000D01*
X41850000D01*
X44072000Y12228000D01*
X36772000Y36778000D02*
X37050000Y36500000D01*
Y34300000D01*
X38426000Y32924000D01*
X39002100D01*
X40292000Y31634100D01*
Y29142000D01*
X38600000Y27450000D01*
Y27232000D01*
X38072000Y26704000D01*
X37797000Y26429000D01*
X38072000Y26704000D02*
X37797000D01*
X38072000Y26704000D02*
Y26429000D01*
X37467500Y25634000D02*
X37602600Y25499000D01*
X37467500Y25634000D02*
X37592000D01*
X37797000Y25429000D01*
X41697000Y45112000D02*
X41757000Y45052000D01*
Y41757000D01*
X40979000Y40979000D01*
X39920000D01*
X39607000Y40666000D01*
Y39324300D01*
X39109200Y38826500D01*
X38053000D01*
X37775000Y38548600D01*
X37774900D01*
X37076300Y37850000D01*
X36400000D01*
X35850000Y37300000D01*
Y35096700D01*
X37297000Y33649700D01*
Y32153400D01*
X37526400Y31924000D01*
X38076000D01*
X38292000Y31708000D01*
Y28048400D01*
X37002000Y26758400D01*
Y26099500D01*
X37467500Y25634000D01*
X36752000Y25862900D02*
X36991500Y25623500D01*
X36752000Y25862900D02*
X36602500Y25623500D01*
X36752000Y25862900D02*
Y25474000D01*
X36797000Y25429000D01*
X36797000Y29040100D02*
X36602500Y29234500D01*
X36797000Y29040100D02*
X36991500Y29234500D01*
X36797000Y29040100D02*
Y29429000D01*
X35797000Y31040100D02*
Y31429000D01*
X35797000Y31040100D02*
X35991500Y31234500D01*
X38072000Y34104000D02*
X37797000D01*
X38072000Y34104000D02*
Y34379000D01*
X38072000Y34104000D02*
X37797000Y34379000D01*
X50847000Y15792600D02*
Y15529000D01*
X50347000Y15029000D01*
X41221000D01*
X40200000Y16050000D01*
Y23150000D01*
X39250000Y24100000D01*
Y27650000D01*
X40592000Y28992000D01*
Y31758400D01*
X39126400Y33224000D01*
X38952000D01*
X38072000Y34104000D01*
X36072000Y33004000D02*
X35797000Y33154000D01*
X36072000Y33004000D02*
X35797000Y33279000D01*
Y33429000D01*
X36772000Y36778000D02*
X36497000Y36804000D01*
X36772000Y36778000D02*
Y37079000D01*
X36497000Y37079000D02*
Y37053000D01*
X36772000Y36778000D01*
X38072000Y35154000D02*
X37797000D01*
X38072000Y35154000D02*
Y35429000D01*
X38072000Y35154000D02*
X37797000Y35429000D01*
X45398800Y22400000D02*
X45125900D01*
X44302000Y23223900D01*
Y26898000D01*
X43300000Y27900000D01*
Y28626100D01*
X42292000Y29634100D01*
Y30907000D01*
X39597000Y33602000D01*
Y34429000D01*
X38897000Y35129000D01*
X38097000D01*
X38072000Y35154000D01*
X36402000Y65102000D02*
Y65432000D01*
X36402000Y65102000D02*
X36677000Y65157000D01*
X36677000Y65432000D02*
Y65377000D01*
X36402000Y65102000D01*
X37672000Y66404000D02*
Y66702000D01*
X37672000Y66404000D02*
X37947000Y66427000D01*
X37672000Y66404000D02*
X37947000Y66679000D01*
Y66702000D01*
X41047000Y16367900D02*
X40852500Y16173500D01*
X41047000Y16367900D02*
Y21347000D01*
X41292000Y21592000D01*
Y26592000D01*
X42245000Y27545000D01*
Y28955000D01*
X41150000Y30050000D01*
Y31624700D01*
X39292000Y33482700D01*
Y33934000D01*
X39072000Y34154000D01*
X38797000D01*
X39072000Y34154000D02*
Y34429000D01*
X39072000Y34154000D02*
X38797000Y34429000D01*
X44496000Y27704000D02*
X44292000Y27908000D01*
Y28708000D01*
X44076000Y28924000D01*
X43499800D01*
X43292000Y29131800D01*
Y30634100D01*
X39897000Y34029100D01*
Y36229000D01*
X38997000Y37129000D01*
X38935900D01*
X38741500Y36934500D01*
X38935900Y37129000D02*
X38741500Y37323500D01*
X38935900Y37129000D02*
X38547000D01*
X40222000Y43604000D02*
X40497000Y43879000D01*
X40222000Y43604000D02*
X40497000D01*
X40222000Y43604000D02*
Y43879000D01*
X38951400Y44818500D02*
Y45093500D01*
X38951400Y44818500D02*
X39226400D01*
X38951400Y44818500D02*
X39226400Y45093500D01*
X45496000Y27704000D02*
X45302000Y27898000D01*
Y28624100D01*
X44992100Y28934000D01*
X44516000D01*
X44292000Y29158000D01*
Y35696100D01*
X47132000Y38536100D01*
Y40182000D01*
X47550000Y40600000D01*
Y41526000D01*
X43150000Y45926000D01*
Y46891400D01*
X42264400Y47777000D01*
X40823000D01*
X40250000Y48350000D01*
Y48776100D01*
X39322100Y49704000D01*
X38922000Y46104000D02*
Y46379000D01*
X38922000Y46104000D02*
X39197000D01*
X39197000Y46379000D02*
X38922000Y46104000D01*
X39322100Y49704000D02*
X38997000D01*
X39322100Y49704000D02*
X39272000Y49979000D01*
X39322100Y49704000D02*
X39047100Y49979000D01*
X38997000D01*
X40172000Y49754000D02*
X39897000D01*
X40172000Y49754000D02*
Y50029000D01*
X40172000Y49754000D02*
X39897000Y50029000D01*
X45522000Y28804000D02*
X45302000Y29024000D01*
Y34952000D01*
X47432000Y37082000D01*
Y39982000D01*
X47800000Y40350000D01*
Y41700300D01*
X43400000Y46100300D01*
Y46995000D01*
X42315900Y48079100D01*
X41097200D01*
X41095800Y48080300D01*
X40941900Y48234000D01*
X40597000Y48578900D01*
Y49329000D01*
X40172000Y49754000D01*
X39492000Y65157000D02*
X40050000Y64599000D01*
Y63050000D01*
X42697000Y60403000D01*
Y48553000D01*
X44171000Y47079000D01*
X44547000D01*
X44847000Y46779000D01*
Y45077600D01*
X48092000Y41832600D01*
Y40264500D01*
X47921400Y40093800D01*
X47732000Y39904400D01*
Y36882000D01*
X47300000Y36450000D01*
Y34100000D01*
X46797000Y33597000D01*
Y31817900D01*
X39492000Y66427000D02*
X40550000Y65369000D01*
Y63200000D01*
X43047000Y60703000D01*
Y48932000D01*
X43729000Y48250000D01*
X44426100D01*
X44950000Y47726100D01*
Y47450000D01*
X45321000Y47079000D01*
X48321000D01*
X49447000Y45953000D01*
Y29247000D01*
X48850000Y28650000D01*
Y27050000D01*
X46302000Y24502000D01*
Y22195600D01*
X45535400Y21429000D01*
X45185900D01*
X39492000Y65157000D02*
X39217000D01*
X39492000Y65157000D02*
Y65432000D01*
X39217000Y65432000D02*
X39492000Y65157000D01*
X39492000Y66427000D02*
X39217000Y66702000D01*
X39492000Y66427000D02*
Y66702000D01*
X39492000Y66427000D02*
X39217000D01*
X42422000Y12204000D02*
X42697000D01*
X42422000Y12204000D02*
Y11929000D01*
X42697000Y11929000D02*
X42422000Y12204000D01*
X41047000Y15979000D02*
Y16367900D01*
X41241500Y16173500D01*
X42747000Y21990100D02*
Y18329000D01*
X43822000Y17254000D01*
X43797000Y23040100D02*
X43602500Y23234500D01*
X42747000Y21990100D02*
X42552500Y22184500D01*
X42747000Y21990100D02*
X42941500Y22184500D01*
X42747000Y22379000D02*
Y21990100D01*
X41482000Y46107000D02*
Y46382000D01*
X41482000Y46107000D02*
X41757000D01*
X41757000Y46382000D02*
X41482000Y46107000D01*
X44072000Y12228000D02*
X44347000Y12204000D01*
X44072000Y12228000D02*
Y11929000D01*
X44072000Y12228000D02*
X44347000Y11953000D01*
Y11929000D01*
X46955600Y16181500D02*
X46736600D01*
X45417000Y17501100D01*
Y18420100D01*
X45202500Y18634500D01*
X45417000Y18420100D02*
X45591500Y18634500D01*
X45417000Y18420100D02*
Y18809000D01*
X45397000Y18829000D01*
X44797000Y17867900D02*
X44991500Y17673500D01*
X44797000Y17867900D02*
X44602500Y17673500D01*
X44797000Y17867900D02*
Y17479000D01*
X43797000Y23040100D02*
Y22753000D01*
X44292000Y22258000D01*
Y20684000D01*
X44797000Y20179000D01*
Y17867900D01*
X43822000Y17254000D02*
X44097000Y16979000D01*
X43822000Y17254000D02*
Y16979000D01*
X43822000Y17254000D02*
X44097000D01*
X45185900Y21429000D02*
X44991500Y21234500D01*
X43797000Y23040100D02*
X43991500Y23234500D01*
X43797000Y23429000D02*
Y23040100D01*
X45185900Y21429000D02*
X44991500Y21623500D01*
X45185900Y21429000D02*
X44797000D01*
X45398800Y22400000D02*
X45787700D01*
X45797000Y22390700D01*
X45398800Y22400000D02*
X45602500Y22196200D01*
X45398800Y22400000D02*
X45602500Y22585200D01*
X45496000Y27704000D02*
X45797000D01*
X45496000Y27704000D02*
X45522000Y27429000D01*
X45496000Y27704000D02*
X45771000Y27429000D01*
X45797000D01*
X45522000Y28804000D02*
X45797000Y28529000D01*
Y28429000D01*
X45522000Y28804000D02*
X45797000Y28704000D01*
X44496000Y27704000D02*
X44721000Y27479000D01*
X44747000D01*
X44797000Y27429000D01*
X44496000Y27704000D02*
X44522000Y27429000D01*
X44496000Y27704000D02*
X44797000D01*
X45149500Y42626500D02*
X45424500D01*
X45149500Y42626500D02*
Y42351500D01*
X45149500Y42626500D02*
X45424500Y42351500D01*
X44022000Y46657000D02*
X44297000D01*
X44022000Y46657000D02*
Y46382000D01*
X44297000Y46382000D02*
X44022000Y46657000D01*
X47608100Y10129000D02*
X47802500Y10323500D01*
X47608100Y10129000D02*
X47802500Y9934500D01*
X47608100Y10129000D02*
X47997000D01*
X48772000Y9804000D02*
Y10079000D01*
X48772000Y9804000D02*
X49047000D01*
X48772000Y9804000D02*
X49047000Y10079000D01*
X46955600Y16181500D02*
X47150000Y15987000D01*
X46955600Y16181500D02*
X47150000Y16376000D01*
X47344500Y16181500D02*
X46955600D01*
X47397000Y17717900D02*
X47591500Y17523500D01*
X47397000Y17717900D02*
X47202500Y17523500D01*
X47397000Y17717900D02*
Y17329000D01*
X47222000Y23204000D02*
X47292000Y23134000D01*
Y21740000D01*
X47102000Y21550000D01*
Y20498000D01*
X48192000Y19408000D01*
Y18742000D01*
X47397000Y17947000D01*
Y17717900D01*
X48347000Y17767900D02*
X48541500Y17573500D01*
X48347000Y17767900D02*
X48152500Y17573500D01*
X48347000Y17767900D02*
Y17379000D01*
X48046000Y24154000D02*
X48442000Y23758000D01*
Y21823900D01*
X48302000Y21683900D01*
Y20750000D01*
X48500000Y20552000D01*
Y18553000D01*
X48347000Y18400000D01*
Y17767900D01*
X47222000Y23204000D02*
X46947000D01*
X47222000Y23204000D02*
Y23479000D01*
X47222000Y23204000D02*
X46947000Y23479000D01*
X48046000Y24154000D02*
X47747000D01*
X48046000Y24154000D02*
X48022000Y24429000D01*
X48046000Y24154000D02*
X47771000Y24429000D01*
X47747000D01*
X46797000Y31817900D02*
X46991500Y31623500D01*
X46797000Y31817900D02*
X46602500Y31623500D01*
X46797000Y31817900D02*
Y31429000D01*
X47649900Y33591800D02*
X47650000Y33591900D01*
Y33600000D01*
X47800000Y33450000D01*
Y33650000D01*
X48302000Y34152000D01*
Y38134000D01*
X49197000Y39029000D01*
Y41479000D01*
X48797000Y41879000D01*
Y45729000D01*
X48372000Y46154000D01*
X46997000Y41217900D02*
X47191500Y41023500D01*
X46997000Y41217900D02*
X46802500Y41023500D01*
X46997000Y41217900D02*
Y40829000D01*
X48372000Y46154000D02*
X48097000D01*
X48372000Y46154000D02*
Y46429000D01*
X48372000Y46154000D02*
X48097000Y46429000D01*
X50847000Y15792600D02*
X50652500Y15987000D01*
X50847000Y15792600D02*
X51041500Y15987000D01*
X50847000Y15792600D02*
Y16181500D01*
X49797000Y24640100D02*
Y23453000D01*
X51300000Y21950000D01*
Y18350000D01*
X52497000Y17153000D01*
Y10717900D01*
X49244500Y18340100D02*
X49050000Y18534500D01*
X49244500Y18340100D02*
X49439000Y18534500D01*
X49244500Y18340100D02*
Y16570400D01*
X49439000Y16376000D01*
X49244500Y16570400D02*
X49050000Y16376000D01*
X49244500Y16570400D02*
Y16181500D01*
X49244500Y18729000D02*
Y18340100D01*
X49797000Y24640100D02*
X49602500Y24834500D01*
X49797000Y24640100D02*
X49991500Y24834500D01*
X49797000Y24640100D02*
Y25029000D01*
X51997000Y64982900D02*
X51608100D01*
X64445500Y70613000D02*
X62779500Y72279000D01*
X54397000D01*
X54197000Y72079000D01*
Y70829000D01*
X53957000Y70589000D01*
X52151900D01*
X52051900Y70689000D01*
Y72379000D01*
X51951900Y72479000D01*
X51751900D01*
X51651900Y72379000D01*
Y70689000D01*
X51551900Y70589000D01*
X51351900D01*
X51251900Y70689000D01*
Y72379000D01*
X51151900Y72479000D01*
X50951900D01*
X50851900Y72379000D01*
Y70689000D01*
X50751900Y70589000D01*
X50362000D01*
X50337000Y70614000D01*
X49902000D01*
X49877000Y70589000D01*
X49758400D01*
X49564000Y70394500D01*
X49758400Y70589000D02*
X49564000Y70783500D01*
X49758400Y70589000D02*
X49369500D01*
X52772000Y8704000D02*
Y8429000D01*
X52772000Y8704000D02*
X52497000D01*
X52772000Y8704000D02*
X53050000Y8982000D01*
Y17200000D01*
X52500000Y17750000D01*
Y23700000D01*
X54297000Y25497000D01*
Y26740100D01*
X52497000Y8429000D02*
X52772000Y8704000D01*
X52497000Y10717900D02*
X52691500Y10523500D01*
X52497000Y10717900D02*
X52302500Y10523500D01*
X52497000Y10717900D02*
Y10329000D01*
X54314500Y8785400D02*
X54509000Y8591000D01*
X54314500Y8785400D02*
X54120000Y8591000D01*
X54314500Y8785400D02*
Y12661500D01*
X54550000Y12897000D01*
Y24782000D01*
X55272000Y25504000D01*
X54314500Y8396500D02*
Y8785400D01*
X54297000Y26740100D02*
X54102500Y26934500D01*
X54297000Y26740100D02*
X54491500Y26934500D01*
X54297000Y26740100D02*
Y27129000D01*
X52408400Y64239000D02*
X52214000Y64044500D01*
X65194500Y66214000D02*
X63561500Y67847000D01*
X57265000D01*
X56512000Y67094000D01*
X54387000D01*
X54287000Y66994000D01*
Y64764000D01*
X54187000Y64664000D01*
X53987000D01*
X53887000Y64764000D01*
Y66929000D01*
X53787000Y67029000D01*
X53587000D01*
X53487000Y66929000D01*
Y64764000D01*
X53387000Y64664000D01*
X53187000D01*
X53087000Y64764000D01*
Y66929000D01*
X52987000Y67029000D01*
X52787000D01*
X52687000Y66929000D01*
Y65082900D01*
X52587000Y64982900D01*
X51997000D01*
X51802600Y64788400D01*
X51997000Y64982900D02*
X51802600Y65177400D01*
X64344500Y66214000D02*
X64094500Y66464000D01*
X63012000D01*
X62097000Y67379000D01*
X57597000D01*
X57214500Y66996500D01*
Y64079000D01*
X57114500Y63979000D01*
X55937000D01*
X55837000Y64079000D01*
Y65879000D01*
X55737000Y65979000D01*
X55537000D01*
X55437000Y65879000D01*
Y64339000D01*
X55337000Y64239000D01*
X55137000D01*
X55037000Y64339000D01*
Y65879000D01*
X54937000Y65979000D01*
X54737000D01*
X54637000Y65879000D01*
Y64339000D01*
X54537000Y64239000D01*
X52408400D01*
X52214000Y64433500D01*
X52408400Y64239000D02*
X52019500D01*
X63272000Y10354000D02*
X62097000Y11529000D01*
X57597000D01*
X56347000Y12779000D01*
Y17890100D01*
X55872000Y19004000D02*
Y18729000D01*
X55872000Y19004000D02*
X55597000Y18729000D01*
X56347000Y17890100D02*
X56152500Y18084500D01*
X56347000Y17890100D02*
X56541500Y18084500D01*
X56347000Y17890100D02*
Y18279000D01*
X55947000Y26840100D02*
Y26653000D01*
X56150000Y26450000D01*
Y19282000D01*
X55872000Y19004000D01*
X55597000D01*
X55272000Y25504000D02*
Y25779000D01*
X55272000Y25504000D02*
X55547000D01*
X55272000Y25504000D02*
X55547000Y25779000D01*
X55947000Y26840100D02*
X55752500Y27034500D01*
X55947000Y26840100D02*
X56141500Y27034500D01*
X55947000Y27229000D02*
Y26840100D01*
X56469500Y69039000D02*
X58811200D01*
X58911200Y69139000D01*
Y71339000D01*
X59011200Y71439000D01*
X60321000D01*
X60421000Y71339000D01*
Y71139000D01*
X60321000Y71039000D01*
X59411200D01*
X59311200Y70939000D01*
Y70739000D01*
X59411200Y70639000D01*
X60321000D01*
X60421000Y70539000D01*
Y70339000D01*
X60321000Y70239000D01*
X59411200D01*
X59311200Y70139000D01*
Y69939000D01*
X59411200Y69839000D01*
X60321000D01*
X60421000Y69739000D01*
Y69539000D01*
X60321000Y69439000D01*
X59411200D01*
X59311200Y69339000D01*
Y69139000D01*
X59411200Y69039000D01*
X60421000D01*
X60897000Y68563000D01*
X61593500D01*
X62169500Y69139000D01*
X71030600D01*
X55766900Y70039000D02*
X55572500Y69844500D01*
X55766900Y70039000D02*
X55572500Y70233500D01*
X55766900Y70039000D02*
X55378000D01*
X69819500Y70150100D02*
Y70050000D01*
X69582500Y69813000D01*
X64445500D01*
X62379500Y71879000D01*
X58647100D01*
X58547100Y71779000D01*
Y70129000D01*
X58447100Y70029000D01*
X58247100D01*
X58147100Y70129000D01*
Y71779000D01*
X58047100Y71879000D01*
X57797100D01*
X57697100Y71779000D01*
Y70139000D01*
X57597100Y70039000D01*
X57397100D01*
X57297100Y70139000D01*
Y71779000D01*
X57197100Y71879000D01*
X56997100D01*
X56897100Y71779000D01*
Y70139000D01*
X56797100Y70039000D01*
X56597100D01*
X56497100Y70139000D01*
Y71779000D01*
X56397100Y71879000D01*
X56197100D01*
X56097100Y71779000D01*
Y70139000D01*
X55997100Y70039000D01*
X55766900D01*
X57869500Y64289000D02*
X57697000D01*
X57597000Y64389000D01*
Y66979000D01*
X57697000Y67079000D01*
X57947000D01*
X58047000Y66979000D01*
Y65379000D01*
X58147000Y65279000D01*
X58347000D01*
X58447000Y65379000D01*
Y66979000D01*
X58547000Y67079000D01*
X58747000D01*
X58847000Y66979000D01*
Y65379000D01*
X58947000Y65279000D01*
X59147000D01*
X59247000Y65379000D01*
Y66979000D01*
X59347000Y67079000D01*
X61997000D01*
X62962000Y66114000D01*
X63444500D01*
X64217000Y65341500D01*
X67691500D01*
X68192000Y65842000D01*
Y66142000D01*
X68650000Y66600000D01*
X69308500D01*
X69580800Y66327700D01*
X68877000Y7149000D02*
X69247000Y7519000D01*
Y12429000D01*
X66197000Y15479000D01*
X61685900D01*
X61491500Y15284500D01*
X61685900Y15479000D02*
X61491500Y15673500D01*
X61685900Y15479000D02*
X61297000D01*
X63197000Y20217900D02*
Y21853000D01*
X60196000Y24854000D01*
X59921000Y25129000D01*
X59897000D01*
X60196000Y24854000D02*
X60172000Y25129000D01*
X60196000Y24854000D02*
X59897000D01*
X62475000Y35122000D02*
X62200000Y35175000D01*
X62200000Y35450000D02*
Y35397000D01*
X62475000Y35122000D01*
X61808400Y47639000D02*
X61614000Y47444500D01*
X61808400Y47639000D02*
X61614000Y47833500D01*
X61808400Y47639000D02*
X61419500D01*
X68354400Y49264000D02*
X67394500D01*
X66856900Y48726400D01*
X66069600D01*
X65807000Y48989000D01*
X64119500D01*
X62769500Y47639000D01*
X61808400D01*
X76804600Y50228500D02*
X72538500D01*
X72037000Y49727000D01*
X71469100D01*
X71007100Y50189000D01*
X69974500D01*
X69657500Y49872000D01*
X68486500D01*
X67614600Y50743900D01*
X65679200D01*
X65637000Y50701700D01*
X64464300D01*
X64455600Y50710400D01*
X62279800D01*
X62085400Y50515900D01*
X62279800Y50710400D02*
X62085400Y50904900D01*
X62279800Y50710400D02*
X61890900D01*
X62696500Y61935200D02*
X62307600D01*
X63272000Y10354000D02*
X63547000D01*
X63272000Y10354000D02*
Y10079000D01*
X63547000Y10079000D02*
X63272000Y10354000D01*
X63197000Y19829000D02*
Y20217900D01*
X63002500Y20023500D01*
X63197000Y20217900D02*
X63391500Y20023500D01*
X62475000Y35122000D02*
X62747000Y34850000D01*
Y31717900D01*
X62941500Y31523500D01*
X62747000Y31717900D02*
X62552500Y31523500D01*
X62747000Y31717900D02*
Y31329000D01*
X62475000Y35122000D02*
Y35450000D01*
X64619500Y48349000D02*
X64784500Y48514000D01*
X65786900D01*
X65924500Y48376400D01*
X67001900D01*
X67358800Y48733300D01*
X70775200D01*
X71169500Y48339000D01*
X75743500D01*
X75878000Y48473500D01*
X76461700D01*
X65022300Y52589000D02*
X64827900Y52394500D01*
X65022300Y52589000D02*
X64827900Y52783500D01*
X65022300Y52589000D02*
X64633400D01*
X63708400Y52252000D02*
X63514000Y52057500D01*
X63708400Y52252000D02*
X63514000Y52446500D01*
X63708400Y52252000D02*
X63319500D01*
X78419000Y52445300D02*
X78004700D01*
X76673000Y53777000D01*
X68450000D01*
X67987000Y53314000D01*
X66682000D01*
X65487500Y52119500D01*
X65050000D01*
X64930500Y52000000D01*
X64108500D01*
X63856500Y52252000D01*
X63708400D01*
X77019500Y51739000D02*
Y51639000D01*
X75881500Y52777000D01*
X70455800D01*
X69742800Y52064000D01*
X67852000D01*
X67557500Y51769500D01*
X65218100D01*
X64787600Y51339000D01*
X64569500D01*
X63469500Y53589000D02*
X63619500Y53739000D01*
X64972700D01*
X65597700Y54364000D01*
X66454500D01*
X66929500Y54839000D01*
X69669500D01*
X69856500Y54652000D01*
X77398000D01*
X78411500Y53638500D01*
Y53615000D01*
X64920500Y60047800D02*
X64920000D01*
X64919500Y60047300D01*
X65309900D01*
X62696500Y61935200D02*
X62502100Y61740700D01*
X62696500Y61935200D02*
X62502100Y62129700D01*
X75011100Y62100000D02*
X72382500D01*
X71782500Y61500000D01*
X70954500D01*
X70854500Y61600000D01*
X69800000D01*
X69689000Y61489000D01*
X68000000D01*
X67925000Y61414000D01*
X65536000D01*
X65291900Y61658100D01*
X64450000D01*
X64291900Y61500000D01*
X63350000D01*
X62914800Y61935200D01*
X62696500D01*
X76630600Y64389000D02*
X72511000D01*
X72200000Y64700000D01*
X68300000D01*
X68204500Y64604500D01*
X67152500D01*
X66637000Y64089000D01*
X62743300D01*
X62644500Y64187800D01*
X64344500Y66214000D02*
X64619500D01*
X64344500Y66214000D02*
Y65939000D01*
X64619500Y65939000D02*
X64344500Y66214000D01*
X62644500Y64187800D02*
X62369500D01*
X62644500Y64187800D02*
Y64462800D01*
X62644500Y64187800D02*
X62369500Y64462800D01*
X65044500Y70613000D02*
X64769500D01*
X64445500Y70613000D02*
X64769500D01*
X64445500Y70613000D02*
X64494500Y70338000D01*
X64769500Y70338000D02*
X65044500Y70613000D01*
X64769500Y70338000D02*
X64720500D01*
X64445500Y70613000D01*
X79094500Y47944500D02*
X78989000Y47839000D01*
X70962000D01*
X70737000Y47614000D01*
X68094500D01*
X67769600Y47938900D01*
X66008500D01*
X65764000Y47794500D01*
X66008500Y47938900D02*
X65764000Y48183500D01*
X66008500Y47938900D02*
X65779600D01*
X65729500Y47989000D01*
X65569500D01*
X65022300Y52589000D02*
X65462000D01*
X67237000Y54364000D01*
X68350000D01*
X68464000Y54250000D01*
X76861900D01*
X78361900Y52750000D01*
X78917200D01*
X79192500Y52474700D01*
X65808400Y51226700D02*
X65614000Y51032200D01*
X65808400Y51226700D02*
X65614000Y51421200D01*
X65808400Y51226700D02*
X65419500D01*
X80919500Y50192000D02*
X80820800D01*
X80234300Y50778500D01*
X77001000D01*
X76886500Y50664000D01*
X74700000D01*
X74587000Y50777000D01*
X70507500D01*
X70380500Y50650000D01*
X69564000D01*
X69200000Y51014000D01*
X67852000D01*
X67639300Y51226700D01*
X65808400D01*
X65309900Y60047300D02*
X65115000Y59853300D01*
X65309900Y60047300D02*
X65115000Y60242300D01*
X65309900Y60047300D02*
X68097300D01*
X68400000Y60350000D01*
X69636000D01*
X69800000Y60514000D01*
X76886000D01*
X77150000Y60250000D01*
X78450000D01*
X78900000Y60700000D01*
X80188400D01*
X80349400Y60539000D01*
X80480600D01*
X66208400Y61939000D02*
X66014000Y61744500D01*
X66208400Y61939000D02*
X66014000Y62133500D01*
X66208400Y61939000D02*
X65819500D01*
X79144500Y61764000D02*
X78880500Y61500000D01*
X77300000D01*
X76100000Y62700000D01*
X71300000D01*
X70889000Y62289000D01*
X69611000D01*
X69286000Y62614000D01*
X67096500D01*
X66421500Y61939000D01*
X66208400D01*
X66694500Y64894500D02*
Y64614000D01*
X66694500Y64894500D02*
X66419500Y64889000D01*
X66694500Y64894500D02*
X66419500Y64619500D01*
Y64614000D01*
X79044500Y64564000D02*
X78558500Y65050000D01*
X68100000D01*
X68050000Y65000000D01*
X66800000D01*
X66694500Y64894500D01*
X65194500Y66214000D02*
X65469500D01*
X65194500Y66214000D02*
Y65939000D01*
X65717000Y65691500D02*
X65497000D01*
X65717000Y65691500D02*
X65716900Y65911500D01*
X65717000Y65691500D02*
X65469500Y65939000D01*
X65717000Y65691500D02*
X67441500D01*
X67842000Y66092000D01*
Y66292000D01*
X68465000Y66915000D01*
X70043500D01*
X71062500Y65896000D01*
X79619500D01*
X65469500Y65939000D02*
X65194500Y66214000D01*
X67544500Y66614000D02*
X67494500Y66339000D01*
X67544500Y66614000D02*
X67219500D01*
X67544500Y66614000D02*
X68244500Y67314000D01*
X70852000D01*
X70952000Y67414000D01*
X78344500D01*
X78694500Y67064000D01*
X81482000D01*
X81490000Y67056000D01*
X82298100D01*
X67219500Y66339000D02*
X67269500D01*
X67544500Y66614000D01*
X67019500Y67889000D02*
X67244500Y67664000D01*
X70707000D01*
X70807000Y67764000D01*
X78582500D01*
X78932500Y67414000D01*
X79964500D01*
X80189500Y67639000D01*
X80730600D01*
X65930900Y68135500D02*
X65736500Y67941000D01*
X65930900Y68135500D02*
X65736500Y68330000D01*
X65930900Y68135500D02*
X65542000D01*
X79469500Y68289000D02*
X79295000D01*
X79045000Y68539000D01*
X69862000D01*
X69687000Y68714000D01*
X67102000D01*
X66523500Y68135500D01*
X65930900D01*
X65044500Y70613000D02*
Y70338000D01*
X65044500Y70613000D02*
X65495500Y71064000D01*
X77282000D01*
X77459000Y70887000D01*
X69647000Y7167900D02*
X69841500Y6973500D01*
X69647000Y7167900D02*
X69452500Y6973500D01*
X69647000Y7167900D02*
Y16735000D01*
X68575000Y17807000D01*
X69647000Y6779000D02*
Y7167900D01*
X68877000Y7149000D02*
Y6874000D01*
X68877000Y7149000D02*
X68602000D01*
X68602000Y6874000D02*
X68877000Y7149000D01*
X68575000Y17807000D02*
X68300000Y18082000D01*
X68575000Y17807000D02*
Y18082000D01*
X68575000Y17807000D02*
X68300000D01*
X68354400Y49264000D02*
X68593900Y49503600D01*
X68354400Y49264000D02*
X68593900Y49114600D01*
X68788400Y49309100D02*
X68968300Y49489000D01*
X69769500D01*
X70119500Y49839000D01*
X70862000D01*
X71324000Y49377000D01*
X71331500D01*
X72019500Y48689000D01*
X75598500D01*
X75948500Y49039000D01*
X81306500D01*
X81519500Y49252000D01*
X68788400Y49309100D02*
X68768300Y49289000D01*
X68768200D01*
X68743200Y49264000D01*
X68354400D01*
X68058400Y52689000D02*
X67864000Y52494500D01*
X68058400Y52689000D02*
X67864000Y52883500D01*
X68058400Y52689000D02*
X67669500D01*
X82280600Y52339000D02*
X80889000D01*
X80195300Y51645300D01*
X78254700D01*
X76773000Y53127000D01*
X70310800D01*
X69872800Y52689000D01*
X68058400D01*
X69144500Y65765000D02*
X68869500D01*
X69144500Y65765000D02*
Y66040000D01*
X69144500Y65765000D02*
X69381800Y65527700D01*
X80158200D01*
X80819500Y66189000D01*
X81119500D01*
X68869500Y66040000D02*
X69144500Y65765000D01*
X69580800Y66327700D02*
X69866900D01*
X69580800Y66327700D02*
X69591900Y66052700D01*
X69580800Y66327700D02*
X69855800Y66052700D01*
X69866900D01*
X69858400Y68189000D02*
X69664000Y67994500D01*
X69858400Y68189000D02*
X69469500D01*
X82679000Y68079500D02*
X82594500Y68164000D01*
X80219500D01*
X79819500Y67764000D01*
X79077500D01*
X78652500Y68189000D01*
X69858400D01*
X70219400Y70550000D02*
X70014000Y70344500D01*
X70219400Y70550000D02*
X70014000Y70733500D01*
X70219400Y70550000D02*
X76658500D01*
X77146500Y70062000D01*
X78592500D01*
X79369500Y70839000D01*
X82769500D01*
X83294500Y70314000D01*
X69819500Y70150100D02*
X69625000Y70344500D01*
X69819500Y70150100D02*
X70014000Y70344500D01*
X69819500Y70539000D02*
Y70150100D01*
X69819500Y70539000D02*
X69830500Y70550000D01*
X70219400D01*
X71558400Y66889000D02*
X71364000Y66694500D01*
X71808400Y69139000D02*
X71614000Y68944500D01*
X71808400Y69139000D02*
X71614000Y69333500D01*
X71808400Y69139000D02*
X83500500D01*
X83560000Y69079500D01*
X71030600Y69139000D02*
X71225000Y69333500D01*
X71030600Y69139000D02*
X71225000Y68944500D01*
X71030600Y69139000D02*
X71419500D01*
X71808400D01*
X83304000Y66804000D02*
X83031000Y66531000D01*
X81520000D01*
X81337000Y66714000D01*
X78186000D01*
X77900000Y67000000D01*
X74900000D01*
X74789000Y66889000D01*
X71558400D01*
X71364000Y67083500D01*
X71558400Y66889000D02*
X71169500D01*
X75011100Y62100000D02*
X75400000D01*
X75011100Y62100000D02*
X75205500Y61905500D01*
X75011100Y62100000D02*
X75205500Y62294500D01*
X76804600Y50228500D02*
X77024000Y50448000D01*
X76804600Y50228500D02*
X77024000Y50059000D01*
X77218500Y50253500D02*
X77219500D01*
Y50228500D01*
X76804600D01*
X76461700Y48473500D02*
X76850600D01*
X76461700Y48473500D02*
X76656100Y48279000D01*
X76461700Y48473500D02*
X76656100Y48668000D01*
X76630600Y64389000D02*
X76825000Y64583500D01*
X76630600Y64389000D02*
X76825000Y64194500D01*
X76630600Y64389000D02*
X77019500D01*
X77459000Y70887000D02*
X77734000D01*
X77459000Y70887000D02*
Y70612000D01*
X77459000Y70887000D02*
X77734000Y70612000D01*
X79094500Y47944500D02*
Y48239000D01*
X79094500Y47944500D02*
X79369500Y47964000D01*
X79369500Y48239000D02*
X79389000D01*
X79094500Y47944500D01*
X78411500Y53615000D02*
Y53340000D01*
X78411500Y53615000D02*
X78686500Y53340000D01*
X79192500Y52474700D02*
X79543500D01*
X79192500Y52474700D02*
X79268500Y52199700D01*
X79192500Y52474700D02*
X79467500Y52199700D01*
X79543500D01*
X78419000Y52445300D02*
X78694000Y52170300D01*
X78419000Y52445300D02*
Y52170300D01*
X78419000Y52445300D02*
X78694000D01*
X78411500Y53615000D02*
X78686500D01*
X80480600Y60539000D02*
X80675000Y60733500D01*
X80480600Y60539000D02*
X80675000Y60344500D01*
X80480600Y60539000D02*
X80869500D01*
X79144500Y61764000D02*
Y62039000D01*
X79144500Y61764000D02*
X79419500D01*
X79144500Y61764000D02*
X79419500Y62039000D01*
X79044500Y64564000D02*
X79319500D01*
X79044500Y64564000D02*
Y64289000D01*
X79044500Y64564000D02*
X79319500Y64289000D01*
X79619500Y65896000D02*
Y66121000D01*
X79619500Y65896000D02*
X79844500Y65896100D01*
X79619500Y65896000D02*
X79869500Y66146000D01*
X80730600Y67639000D02*
X80925000Y67833500D01*
X80730600Y67639000D02*
X80925000Y67444500D01*
X80730600Y67639000D02*
X81119500D01*
X82280600Y52339000D02*
X82475000Y52533500D01*
X82280600Y52339000D02*
X82475000Y52144500D01*
X82280600Y52339000D02*
X82669500D01*
X82298100Y67056000D02*
X82492500Y67250500D01*
X82298100Y67056000D02*
X82492500Y66861500D01*
X82298100Y67056000D02*
X82687000D01*
X83304000Y66804000D02*
Y67079500D01*
X83304000Y66804000D02*
X83579000Y66804500D01*
X83579000Y67079500D02*
Y67079000D01*
X83304000Y66804000D01*
X83294500Y70314000D02*
X83569500D01*
X83294500Y70314000D02*
Y70039000D01*
X83294500Y70314000D02*
X83569500Y70039000D01*
X32497000Y17729000D02*
Y17697000D01*
X31700000Y16900000D01*
Y14032000D01*
X31297000Y13629000D01*
Y10621000D01*
X36468000Y5450000D01*
X32650000Y18129500D02*
X32373300Y17852700D01*
X32650000Y18129500D02*
Y21850000D01*
X32102000Y22398000D01*
Y24224000D01*
X31847000Y24479000D01*
X32497000Y17729000D02*
X32650000Y17882000D01*
Y18129500D01*
X31847000Y24479000D02*
X31097000Y25229000D01*
Y26829000D01*
X33147000Y28879000D01*
Y29929000D01*
X32597000Y30479000D01*
X32197000D01*
X32647000Y37631500D02*
Y31429000D01*
X32197000Y30979000D01*
Y30479000D01*
X32647000Y37631500D02*
X32970700Y37955300D01*
X32847000Y38079000D02*
X32647000Y37879000D01*
Y37631500D01*
X37497000Y37029000D02*
Y37597000D01*
X37929000Y38029000D01*
X41247000D01*
X42247000Y37029000D01*
X43797000D01*
X43837000Y37069000D01*
X68451300Y51539000D02*
X68260400Y51348100D01*
X68451300Y51539000D02*
X68260400Y51729900D01*
X68451300Y51539000D02*
X68069500D01*
X80594700Y51209000D02*
X76699900D01*
X76186900Y51722000D01*
X70586100D01*
X70489100Y51819000D01*
X69999900D01*
X69719900Y51539000D01*
X68451300D01*
X81019500Y51252000D02*
X80976500Y51209000D01*
X80594700D01*
X80828600Y51061100D01*
X80594700Y51209000D02*
X80828600Y51442900D01*
X46597000Y48729000D02*
Y49079000D01*
X46160000Y49516000D01*
X44884000D01*
X44297000Y48929000D01*
X44947000Y48279000D01*
X46287000D01*
X46597000Y48589000D01*
Y48729000D01*
X50247000D01*
X51447000Y47529000D01*
Y43179000D01*
X51147000Y42879000D01*
Y39029000D01*
X51900000Y38276000D01*
Y32479000D01*
X50350000Y30929000D01*
X50347000D01*
X50347000Y25979000D02*
Y30929000D01*
X28560900Y5311500D02*
X26914500D01*
X25047000Y7179000D01*
Y8529000D01*
X30569500Y5529000D02*
X29897000Y6201500D01*
Y7573900D01*
X28560900Y5311500D02*
X28737700Y5488300D01*
X28560900Y5311500D02*
X28737700Y5134700D01*
X28914500Y5311500D02*
X28560900D01*
X30819500Y5279000D02*
X30569500Y5529000D01*
Y5279000D01*
X30569500Y5529000D02*
X30819500D01*
D11*
X90380000Y15739200D02*
X91650000D01*
Y15095800D01*
X91120900Y14428100D02*
X90972700Y14315500D01*
X90888000Y14219000D01*
X90845700Y14090300D01*
X90888000Y13977700D01*
X90972700Y13897300D01*
X91099700Y13833000D01*
X91247800Y13816900D01*
X91374900Y13833000D01*
X91501900Y13897300D01*
X91607700Y13993800D01*
X91650000Y14106400D01*
X91607700Y14235100D01*
X91480700Y14347700D01*
X91290200Y14412000D01*
X91078500Y14428100D01*
X90803400Y14395900D01*
X90655100Y14347700D01*
X90507000Y14267300D01*
X90401200Y14154700D01*
X90380000Y14042100D01*
X90422300Y13929500D01*
X90528200Y13849100D01*
D12*
X5097000Y16479000D03*
Y18779000D03*
X5747000Y22524000D03*
X6697000Y24529000D03*
X5102000Y24436500D03*
X5079200Y24458900D03*
X5097000Y26229000D03*
Y29179000D03*
Y28029000D03*
Y30279000D03*
Y32129000D03*
X5647000Y34829000D03*
X5102000Y33961500D03*
Y35866500D03*
Y37771500D03*
Y39676500D03*
X5047000Y41079000D03*
X5297000Y46829000D03*
X6057000Y50079000D03*
X6097000Y51679000D03*
Y53029000D03*
X6547000Y55919000D03*
X6377500Y57290000D03*
X6747000Y71879000D03*
X6397000Y70379000D03*
X7007000Y15579000D03*
X7977200Y18939300D03*
X7097000Y17479000D03*
X8497000Y17429000D03*
X7007000Y19669000D03*
Y21569000D03*
X9037900Y21190300D03*
X8497000Y20379000D03*
X6997000Y23479000D03*
X7797000Y24529000D03*
X8741000Y24421900D03*
X8781200Y28384200D03*
X8947000Y32600000D03*
X8447000Y43479000D03*
X8347000Y48279000D03*
X6847000Y47679000D03*
X8347000Y50329000D03*
X6797000Y48979000D03*
X8347000Y52279000D03*
X8632500Y56164500D03*
X9347000Y57240000D03*
X8697000Y69229000D03*
X8500000Y71979000D03*
X8147000Y75879000D03*
X11347000Y9879000D03*
X9547000Y9329000D03*
X11452000Y12224000D03*
X11697000Y17729000D03*
X11947000Y18679000D03*
X11317000Y19849000D03*
X11247000Y21129000D03*
Y22449000D03*
X11547000Y27729000D03*
X11647000Y28929000D03*
Y31779000D03*
X11047000Y31079000D03*
X11397000Y33499000D03*
X11647000Y37779000D03*
X9647000Y36579000D03*
X10597000Y40329000D03*
X9929300Y41229000D03*
X10547000Y42079000D03*
X11947000Y44129000D03*
X9697000Y43479000D03*
X10497000Y44929000D03*
X11347000Y50279000D03*
X10347000Y52279000D03*
X11324300Y52301700D03*
Y53301700D03*
X10297000Y51279000D03*
X10347000Y56379000D03*
X11347000D03*
Y55279000D03*
Y54279000D03*
X9797000Y66729000D03*
X11647000D03*
X11597000Y70829000D03*
X13509500Y7066500D03*
X12449000Y6600000D03*
X13299000Y11927000D03*
X13497000Y19029000D03*
X14647000Y17679000D03*
X14547000Y19629000D03*
X14597000Y25429000D03*
X13327000Y28299000D03*
X13747000Y31529000D03*
X13421900Y30229000D03*
X12297000Y34149300D03*
X13997000Y34479000D03*
X13947000Y36929000D03*
X12197000Y36679000D03*
X12947000Y40329000D03*
X13247000Y48329000D03*
X13347000Y53279000D03*
Y52279000D03*
X12347000Y55279000D03*
X13347000D03*
X12722000Y58579000D03*
X14309500Y58616500D03*
X12722000Y59579000D03*
X14497000Y63879000D03*
Y64929000D03*
X14147000Y66979000D03*
X12798100Y66219500D03*
X13616500Y75109500D03*
X13147000Y78229000D03*
X16849500Y4300500D03*
X14944500Y9381500D03*
X16497000Y9329000D03*
X15847000Y17629000D03*
X14797000Y20729000D03*
X17047000Y20629000D03*
X15847000Y20929000D03*
X15747000Y19229000D03*
X14897000Y24229000D03*
X17031300Y25150800D03*
X16297000Y25579000D03*
X16797000Y28129000D03*
X16597000Y30379000D03*
X15047000Y33079000D03*
X14847000Y36829000D03*
X14947000Y43529000D03*
X15047000Y50129000D03*
X16297000Y48779000D03*
X17133700Y50471400D03*
X16447000Y52429000D03*
X15312900Y51244700D03*
X15348600Y53280800D03*
X15847000Y55629000D03*
X16997000Y54879000D03*
X15579500Y66111500D03*
X17167000Y67709000D03*
X14847000Y69679000D03*
X15579500Y68729000D03*
X15447000Y71917000D03*
X15797000Y73329000D03*
X16250000Y75929000D03*
X15579500Y79879000D03*
X16750000Y78879000D03*
X16947000Y80829000D03*
X17147000Y82329000D03*
X15579500Y83329000D03*
X19338000Y8039000D03*
X19645000Y11927000D03*
X18047000Y15179000D03*
X18451100Y18515500D03*
X17547000Y18479000D03*
X18747000Y16679000D03*
X19368500Y18185200D03*
X19047000Y20729000D03*
X18047000Y20679000D03*
X18647000Y19579000D03*
X19597000Y23279000D03*
X17897000Y22079000D03*
X19647000Y22279000D03*
X17797000Y26654000D03*
X19771300Y24629000D03*
X18497000Y32429000D03*
X18147000Y30179000D03*
X17647000Y34729000D03*
X17697000Y33529000D03*
X18747000Y33504000D03*
X19897000Y36179000D03*
X17897000Y37679000D03*
X18097000Y36729000D03*
X19583500Y39588600D03*
X17847000Y41729000D03*
X19747000D03*
X19647000Y44079000D03*
X17797000Y46979000D03*
X18347000Y47929000D03*
X19897000Y52579000D03*
Y51579000D03*
X18697000Y53979000D03*
X17513600Y56695600D03*
X18497000Y59879000D03*
X18697000Y61929000D03*
X19747000Y63179000D03*
X18542000Y64124000D03*
X17997000Y66702000D03*
X19897000Y67729000D03*
X18754500Y71929000D03*
X19197000Y75179000D03*
X19072000Y73014000D03*
X19307000Y79279000D03*
X18147000Y82179000D03*
X18754500Y83379000D03*
X20500000Y6850000D03*
Y11350000D03*
X20772000Y13479000D03*
X22002000Y16184000D03*
X20247000Y21079000D03*
X22747000Y20279000D03*
X21147000Y22079000D03*
X22197000D03*
X21997000Y24229000D03*
X21108000Y25418000D03*
X20897000Y27029000D03*
X21347000Y29429000D03*
X21637400Y28040000D03*
X20147000Y27929000D03*
X21297000Y30529000D03*
X22447000Y34129000D03*
X22097000Y37179000D03*
X22147000Y36229000D03*
X22447000Y35229000D03*
X21547000Y42379000D03*
X21585000Y40817000D03*
X22397000Y45079000D03*
X20647000Y48129000D03*
X21313900Y47139000D03*
X22575000Y47157000D03*
X22447000Y46079000D03*
X21647000Y50579000D03*
X21797000Y49079000D03*
X21097000Y49879000D03*
X21447000Y53879000D03*
X21147000Y51579000D03*
X21097000Y56029000D03*
X22047000Y57229000D03*
X21997000Y69179000D03*
X22042100Y70292800D03*
X21929500Y74919000D03*
X20977000Y73014000D03*
X21397000Y79279000D03*
X20307700Y79865500D03*
X20342000Y83379000D03*
X24197000Y8929000D03*
X25197000Y11279000D03*
X25397000Y13379000D03*
X24047000Y13329000D03*
X23597000Y19129000D03*
X24347000Y18229000D03*
X25297000Y23179000D03*
X24297000Y25779000D03*
X24397000Y24679000D03*
X23199300Y25784000D03*
X24396400Y27400000D03*
X24486000Y29318000D03*
X25397000Y29629000D03*
X22872000Y31654000D03*
X24897000Y30479000D03*
X25297000Y33529000D03*
X24997000Y34629000D03*
X24447000Y36729000D03*
X23147000Y37229000D03*
X24152000Y39676500D03*
X24897000Y38929000D03*
X23047000Y41679000D03*
X24197000Y40879000D03*
X23977000Y47652000D03*
X25247000D03*
X22847000Y49029000D03*
X23947000D03*
X25247000Y50192000D03*
X23897000Y52579000D03*
X25247000Y51429000D03*
X23977000Y51462000D03*
X22947000Y52829000D03*
X23977000Y56542000D03*
X25247000Y57812000D03*
X23977000D03*
X24600000Y59700000D03*
Y62250000D03*
X23350000D03*
X25247000Y66702000D03*
X23977000D03*
X25247000Y65432000D03*
X23997000Y67979000D03*
X23197000Y68829000D03*
X25247000Y67972000D03*
X23647000Y70129000D03*
X23517000Y71909000D03*
X23997000Y73429000D03*
X22882000Y73014000D03*
X22847000Y79279000D03*
X24238600Y79186200D03*
X25159000Y80817000D03*
X23247000Y80729000D03*
X23517000Y83429000D03*
X26997000Y7679000D03*
X26147000Y8679000D03*
X27647000Y8629000D03*
X28027000Y17249000D03*
X25547000Y18229000D03*
X27997000Y21194000D03*
X26897000Y21579000D03*
Y20529000D03*
X27047000Y19429000D03*
X27147000Y23579000D03*
X28097000Y25229000D03*
X25960100Y25787800D03*
X26747000Y28329000D03*
X27047000Y29639000D03*
X27027000Y34799000D03*
X27934000Y39763100D03*
X26057000Y39676500D03*
X27947000Y41479000D03*
X27797000Y47679000D03*
X27787000Y50192000D03*
Y48922000D03*
X26497000Y52732000D03*
X27797000Y51479000D03*
X26517000Y55272000D03*
X27797000Y55279000D03*
X26497000Y56529000D03*
X27797000D03*
Y54029000D03*
X27787000Y59082000D03*
X25866300Y59733700D03*
X27787000Y61622000D03*
X27797000Y64129000D03*
X27787000Y62892000D03*
X26517000Y66702000D03*
Y65432000D03*
X27787000Y66702000D03*
X26569700Y69435100D03*
X27787000Y67972000D03*
X26517000D03*
X25897000Y74229000D03*
X27247000Y75779000D03*
X27962000Y80129000D03*
X28914500Y5311500D03*
X28597000Y7579000D03*
X30597000Y8379000D03*
X29247000Y8579000D03*
X30197000Y12779000D03*
X29897000Y16179000D03*
X30747000Y16229000D03*
X28797000Y14979000D03*
X29150000Y17700000D03*
X30197000Y21029000D03*
X28247000Y23529000D03*
X30747000Y23279000D03*
X29658600Y22267400D03*
X28147000Y28949000D03*
Y27579000D03*
Y31979000D03*
X30797000Y30429000D03*
X28147000Y33499000D03*
X30297000Y33504000D03*
X30147000Y36879000D03*
X28527500Y36240000D03*
X28597000Y38829000D03*
X30247000Y42929000D03*
X29057000Y45112000D03*
Y46382000D03*
X29347000Y50229000D03*
X30197000Y49579000D03*
X29347000Y48729000D03*
X30047000Y58447000D03*
X28797000Y57772000D03*
X28947600Y64054100D03*
X30327000Y64162000D03*
Y66702000D03*
X28247000Y69429000D03*
X29847000D03*
X29047000Y67979000D03*
X28279500Y72029000D03*
X30750000Y77976000D03*
X28697000Y82779000D03*
X30547000D03*
X30819500Y5279000D03*
X31197000Y7379000D03*
X32147000Y13329000D03*
X32497000Y17729000D03*
X31694500Y21399000D03*
X32697000Y22879000D03*
X31847000Y24479000D03*
X32897000Y24504800D03*
X31797000Y26429000D03*
Y28379000D03*
X32497000Y29429000D03*
X31147000Y31479000D03*
X32197000Y30479000D03*
X31100000Y34900000D03*
X30847000Y37779000D03*
X33347000Y35950000D03*
X31497000Y36879000D03*
X31264000Y39746000D03*
X32847000Y38079000D03*
X31614000Y45329000D03*
X32847000Y45129000D03*
X31597000Y43842000D03*
X31600800Y47627100D03*
X31147000Y48900000D03*
X32597000Y51329000D03*
X33040000Y55272000D03*
X33070000Y54002000D03*
X33060000Y56542000D03*
X33147000Y57812000D03*
X31718900Y59979000D03*
X32347000Y60729000D03*
X32147000Y62179000D03*
X32747000Y62979000D03*
X31597000Y66729000D03*
Y65432000D03*
X32867000D03*
Y66702000D03*
X31597000Y67972000D03*
Y72329000D03*
X33247000Y73579000D03*
X31247000Y76879000D03*
X32250000Y76929000D03*
X31447000Y75779000D03*
X31250000Y79479000D03*
X32297000Y79279000D03*
X31397000Y80429000D03*
X32347000Y82779000D03*
X33597000Y12929000D03*
X33547000Y16229000D03*
X33946900Y14299000D03*
X35547000Y13954000D03*
X35583500Y16249000D03*
X34497000Y21229000D03*
X33797000Y20429000D03*
X33947000Y26429000D03*
X35797000Y25429000D03*
Y32429000D03*
Y31429000D03*
X34797000Y32429000D03*
Y31429000D03*
X35797000Y33429000D03*
X34797000D03*
X33550000Y33250000D03*
X34947000Y39676500D03*
X34059200Y38591200D03*
X35797000Y42429000D03*
X34047000Y42479000D03*
X35397000Y47679000D03*
X34097000Y47629000D03*
X34137000Y52589000D03*
X35407000Y52639000D03*
X34137000Y58969000D03*
X35407000Y58939000D03*
X35397000Y64179000D03*
X34147000D03*
Y66679000D03*
X34137000Y65432000D03*
X35407000Y66702000D03*
X34397000Y69429000D03*
X35407000Y67972000D03*
X36047000Y72029000D03*
X36122000Y73331500D03*
X35147000Y78929000D03*
X35997000Y82779000D03*
X34147000D03*
X36468000Y5450000D03*
X36647000Y7579000D03*
X38647000Y12029000D03*
X36897000Y12079000D03*
X37499500Y16181500D03*
X37597000Y18731500D03*
X36716900Y24400400D03*
X37797000Y23429000D03*
Y24429000D03*
Y26429000D03*
Y25429000D03*
X36797000D03*
X38748600Y26427200D03*
X36797000Y29429000D03*
X38797000D03*
Y32429000D03*
X37797000D03*
X36797000Y31429000D03*
X37797000D03*
Y34379000D03*
X38797000Y34429000D03*
X36797000Y33429000D03*
X36497000Y37079000D03*
X38547000Y37129000D03*
X36450000Y35550000D03*
X37797000Y35429000D03*
X37497000Y37029000D03*
X38547000Y36179000D03*
X36852000Y39676500D03*
X38757000D03*
X37747000Y42429000D03*
X37947000Y48779000D03*
X36677000Y52699000D03*
X37947000Y58979000D03*
X36677000Y58959000D03*
Y64159000D03*
X37947000Y64179000D03*
X36677000Y65432000D03*
X37947000Y66702000D03*
X36147000Y69479000D03*
X37897000D03*
X37147000Y71979000D03*
X36847000Y74429000D03*
X37747000Y74729000D03*
X38535000Y81891000D03*
X37797000Y82779000D03*
X41297000Y11927000D03*
X41047000Y15979000D03*
X39647000Y21079000D03*
X39497000Y19229000D03*
X40697000Y22379000D03*
X40748600Y23427200D03*
X39397000Y22379000D03*
X39797000Y24429000D03*
X40797000D03*
X40891500Y27142100D03*
X39747000Y26429000D03*
X39797000Y25429000D03*
Y29429000D03*
X40800000Y28429000D03*
X39797000Y30429000D03*
X40662000Y39676500D03*
X39074500Y42379000D03*
X40797000Y42329000D03*
X40497000Y43879000D03*
X39226400Y45093500D03*
X39197000Y46379000D03*
X39247000Y47639000D03*
X38997000Y49979000D03*
X39897000Y50029000D03*
X41147000Y48729000D03*
X39597000D03*
X39997000Y52029000D03*
X39010000Y56542000D03*
X39020000Y54002000D03*
X39040000Y55272000D03*
X39197000Y64179000D03*
X39217000Y65432000D03*
Y66702000D03*
Y68009000D03*
X39347000Y70879000D03*
X39497000Y73579000D03*
X41247000Y79079000D03*
X41397000Y82779000D03*
X39597000D03*
X43705500Y7037500D03*
X42697000Y11929000D03*
X43497000Y16279000D03*
X44097000Y16979000D03*
X44047000Y18829000D03*
X43797000Y21429000D03*
X41897000Y19329000D03*
X43797000Y24429000D03*
Y23429000D03*
X41797000Y22429000D03*
X42747000Y22379000D03*
X41797000Y25429000D03*
X42748900Y26430500D03*
X43797000Y26429000D03*
X42797000Y25429000D03*
Y28429000D03*
X43797000D03*
X41750000Y28424000D03*
X43797000Y29429000D03*
Y31429000D03*
Y32429000D03*
X41797000Y30429000D03*
X42797000D03*
X43797000Y33429000D03*
X43837000Y37069000D03*
X42567000Y39676500D03*
X42547000Y38579000D03*
X42447000Y42379000D03*
X43837000Y42389000D03*
X42987000Y45079000D03*
X41697000Y45112000D03*
X41757000Y46382000D03*
X41747000Y64179000D03*
X43047000Y64129000D03*
X43049500Y65447000D03*
Y66717000D03*
X41779500Y65447000D03*
X43199500Y67939000D03*
X41997000Y71729000D03*
X42597000Y73379000D03*
X44347000Y11929000D03*
X45547000Y16334000D03*
X45397000Y18829000D03*
X44797000Y17479000D03*
X45967000Y17729000D03*
X46747000Y18829000D03*
X44797000Y21429000D03*
X46797000Y22429000D03*
X44797000Y23429000D03*
X45718700Y23456100D03*
X45797000Y22390700D03*
X44797000Y25429000D03*
Y26429000D03*
X45797000Y25429000D03*
Y26429000D03*
X46797000D03*
X45797000Y29429000D03*
X46797000D03*
Y28429000D03*
X44797000Y29429000D03*
X45797000Y27429000D03*
Y28429000D03*
X44797000Y27429000D03*
X46797000D03*
X44797000Y28429000D03*
Y30429000D03*
X45797000D03*
X46797000Y31429000D03*
X44797000D03*
X46797000Y30429000D03*
X44797000Y32429000D03*
X45797000Y33429000D03*
X46797000Y34429000D03*
X45797000D03*
X44797000Y33429000D03*
Y34429000D03*
Y35429000D03*
X45797000Y36300000D03*
X46797000Y35429000D03*
X45447000Y37629000D03*
X45424500Y39875500D03*
X44397000Y39679000D03*
X45424500Y42351500D03*
X44297000Y46382000D03*
X45567000D03*
X45516000Y47701000D03*
X44297000Y47679000D03*
X45516000Y48971000D03*
Y50241000D03*
X44246000D03*
X44297000Y48929000D03*
X45516000Y51511000D03*
Y52781000D03*
X44246000D03*
Y51511000D03*
X45516000Y54051000D03*
Y55321000D03*
X44246000D03*
Y54051000D03*
X45516000Y56591000D03*
X44297000Y57810000D03*
X45567000D03*
Y59080000D03*
X44246000Y56591000D03*
X44297000Y59080000D03*
X45567000Y60350000D03*
X44297000D03*
X45567000Y61620000D03*
X44297000D03*
X45567000Y62890000D03*
Y64160000D03*
X44297000D03*
Y62890000D03*
Y66700000D03*
Y65430000D03*
X45567000D03*
X44619500Y67939000D03*
X47997000Y10129000D03*
X49047000Y10079000D03*
X47344500Y16181500D03*
X49244500D03*
X47397000Y17329000D03*
X48347000Y17379000D03*
X49244500Y18729000D03*
X47697000Y19079000D03*
X47597000Y20979000D03*
X48797000Y21429000D03*
X47947000Y22029000D03*
X46947000Y23479000D03*
X47747000Y24429000D03*
X47797000Y29429000D03*
X48100000Y27600000D03*
X47797000Y30429000D03*
X47957900Y32293100D03*
X48797000Y31429000D03*
Y32429000D03*
Y34429000D03*
X47649900Y33591800D03*
X47797000Y34429000D03*
Y36200000D03*
X48282000Y39676500D03*
X46997000Y40829000D03*
X48697000Y40929000D03*
X48107000Y43842000D03*
X48097000Y46429000D03*
X49319500Y59739000D03*
X47919500Y68139000D03*
X49369500Y69539000D03*
Y70589000D03*
X49400000Y76350000D03*
X48009000Y81741000D03*
X48747000Y82929000D03*
X52050000Y5482000D03*
X50197000Y4879000D03*
X50822000Y8404000D03*
Y10254000D03*
X50847000Y16181500D03*
X51597000Y17129000D03*
X51937000Y19039000D03*
X50547000Y21429000D03*
X49747000Y22479000D03*
X51947000Y22929000D03*
X50424100Y23921600D03*
X49797000Y25029000D03*
X50347000Y25979000D03*
X51911900Y27157400D03*
X49650000Y28350000D03*
X51900000Y29316500D03*
X51147000Y30229000D03*
X50347000Y30929000D03*
Y32429000D03*
X50377500Y34450000D03*
X50397000Y35829000D03*
X51147000Y37179000D03*
X51897000Y40829000D03*
X50297000D03*
X50587000Y44469000D03*
X51969500Y61389000D03*
X50469500Y61089000D03*
X52069500Y63019600D03*
X52019500Y64239000D03*
X51319500Y63739000D03*
X50369500Y62209300D03*
X50919500Y62989000D03*
X51608100Y64982900D03*
X50919500Y65589000D03*
X50175300Y66491800D03*
X50419500Y67306000D03*
X49719500Y67856000D03*
X50069500Y68939000D03*
X50119500Y70089000D03*
X49552000Y74284000D03*
X51147000Y79079000D03*
X51447000Y82629000D03*
X54314500Y6746500D03*
X52727000Y6759000D03*
X52497000Y8429000D03*
X54314500Y8396500D03*
X52497000Y10329000D03*
X53047000Y18229000D03*
X53933500Y16765500D03*
X54297000Y27129000D03*
X52997000Y25629000D03*
X53047000Y27079000D03*
X52847000Y30904000D03*
X53097000Y33429000D03*
X54500000Y34700000D03*
X52647000Y43279000D03*
X52619500Y52139000D03*
X54469500Y53439000D03*
X54319500Y55839000D03*
X52669500Y57717500D03*
X53219500Y60239000D03*
X52469500Y59439000D03*
X53447000Y61479000D03*
X54469500Y60089000D03*
X54719500Y67639000D03*
X54769500Y69439000D03*
X53481500Y71594500D03*
X53479000Y82629000D03*
X54495000D03*
X52463000D03*
X55147000Y5479000D03*
X55902000Y6874000D03*
X55550000Y10076000D03*
X56697000Y10079000D03*
X55597000Y18729000D03*
X56347000Y18279000D03*
X55382000Y22214000D03*
X55197000Y24329000D03*
X55547000Y25779000D03*
X57453000Y26279000D03*
X55947000Y27229000D03*
X55369500Y66539000D03*
X56719500Y65189000D03*
X56369500Y66239000D03*
X56269500Y67589000D03*
X56469500Y69039000D03*
X55378000Y70039000D03*
X55247000Y74284000D03*
X55511000Y82629000D03*
X56527000D03*
X58297000Y5129000D03*
X59597000D03*
X57489500Y6771500D03*
X59077000Y6749000D03*
X57547000Y8379000D03*
X58097000Y21029000D03*
X58915500Y23528400D03*
X59947000Y22879000D03*
X59897000Y25129000D03*
X60047000Y28679000D03*
X60097000Y27229000D03*
X60047000Y31129000D03*
X58722000Y31104000D03*
X58797000Y33379000D03*
X58197000Y36779000D03*
X57869500Y64289000D03*
X57547000Y75179000D03*
X57497000Y74029000D03*
X58696000Y82378000D03*
X60664500Y6861500D03*
X60747000Y8429000D03*
X62252000Y6874000D03*
X62294000Y8482000D03*
X61297000Y15479000D03*
X62597000Y25879000D03*
X62447000Y24579000D03*
X62747000Y31329000D03*
X60168000Y32200000D03*
X61347000Y33129000D03*
X62200000Y35450000D03*
X62647000Y37979000D03*
X62584500Y42989000D03*
X62619500Y41839000D03*
X62269500Y45239000D03*
X62217800Y43774300D03*
X62669500Y46139000D03*
X61419500Y47639000D03*
X61890900Y50710400D03*
X60519500Y50389000D03*
X62419500Y60139000D03*
X62519500Y61112000D03*
X62420100Y63042800D03*
X62307600Y61935200D03*
X62369500Y64462800D03*
X61930200Y65475200D03*
X60169500Y65789000D03*
X61169500Y69088000D03*
X62369500Y68439000D03*
X61986000Y69659500D03*
X60213000Y73200000D03*
X60447000Y81879000D03*
X60347000Y80879000D03*
X63697000Y5079000D03*
X63839500Y6871500D03*
X63797000Y8479000D03*
X65427000Y6809000D03*
X63547000Y10079000D03*
X64122000Y16654000D03*
X63447000Y17829000D03*
X63197000Y19829000D03*
X65447000Y21579000D03*
X63197000Y27079000D03*
X63397000Y25179000D03*
X65046900Y29078900D03*
X65447000Y31079000D03*
X64747000Y37979000D03*
X63877900Y43161400D03*
X64869500Y45739000D03*
X64963500Y43642800D03*
X63619500Y45089000D03*
X64619500Y48349000D03*
X63969500Y47483500D03*
X63269500Y49789000D03*
X64769500Y50139000D03*
X63469500Y53589000D03*
X64633400Y52589000D03*
X63319500Y52252000D03*
X64569500Y51339000D03*
X65419500Y51226700D03*
X63760100Y58943600D03*
X64920500Y60047800D03*
X65019500Y61133100D03*
X63669500Y60089000D03*
X63569500Y63509000D03*
X63744500Y62089000D03*
X64619500Y65939000D03*
X62919500Y65289000D03*
X63169500Y67352000D03*
X64769500Y70338000D03*
X66550000Y5132000D03*
X67014500Y6796500D03*
X65997000Y10279000D03*
X67647000Y10379000D03*
X66947000Y13429000D03*
X68047000Y21779000D03*
Y20824000D03*
X66597000Y25179000D03*
X67547000Y25879000D03*
X66056600Y26315500D03*
X67459000Y27267000D03*
X67347000Y31529000D03*
X65647000Y34329000D03*
X66897000Y34129000D03*
X65847000Y33429000D03*
X67100000Y36976000D03*
X67697000Y36279000D03*
X66300000Y36479000D03*
X65681900Y43188400D03*
X66669500Y42439000D03*
X65469500Y41689000D03*
X67619500Y41889000D03*
X65569500Y44239000D03*
Y47989000D03*
X65621500Y47011200D03*
X66238100Y49316100D03*
X66127200Y50218900D03*
X68069500Y51539000D03*
X67669500Y52689000D03*
X65919500Y53789000D03*
X67769500Y53839000D03*
X65650000Y58923500D03*
X67419500Y62089000D03*
X65819500Y61939000D03*
X66567900Y62985900D03*
X67319500Y63989800D03*
X65719500Y63039000D03*
X66419500Y64614000D03*
X65469500Y65939000D03*
X67219500Y66339000D03*
X67019500Y67889000D03*
X65542000Y68135500D03*
X65719500Y70539000D03*
X65913000Y73213000D03*
X66947000Y82629000D03*
X68097000Y80979000D03*
X70189500Y8386500D03*
X68622000Y8454000D03*
X69647000Y6779000D03*
X68602000Y6874000D03*
X70797000Y10379000D03*
X68300000Y18082000D03*
X68847000Y16679000D03*
X69647000Y18579000D03*
X69397000Y21279000D03*
X70347000Y20829000D03*
X69297000Y24279000D03*
X68147000Y22829000D03*
X69335000Y25841000D03*
X69285000Y28841000D03*
X69335000Y30317000D03*
X69309000Y31841000D03*
X68297000Y34029000D03*
X69597000Y36079000D03*
X69219500Y45289000D03*
X68748000Y43252000D03*
X68646000Y48208300D03*
X70519500Y48139000D03*
X68667900Y47090800D03*
X70319500Y46239000D03*
X68788400Y49309100D03*
X68907700Y50397000D03*
X70669500Y49289000D03*
X70269500Y51289000D03*
X69569500Y53252000D03*
X70649000Y55177000D03*
X69969500Y57639000D03*
X69085400Y58654900D03*
X68719500Y59839000D03*
X68669500Y60939000D03*
X70469500Y59939000D03*
X70394600Y61092400D03*
X70523500Y62939000D03*
X68843900Y62037900D03*
X68719500Y64139000D03*
X68869500Y66040000D03*
X69866900Y66052700D03*
X69469500Y68189000D03*
X69819500Y70539000D03*
X68769500Y70489000D03*
X69872000Y79554000D03*
X69197000Y80979000D03*
X73025000Y6847000D03*
X71140000Y21473200D03*
X71100000Y34032000D03*
X72847000Y36379000D03*
X71197000Y38429000D03*
X72719500Y42989000D03*
X71500000Y41800000D03*
X70819500Y45239000D03*
X73219500Y44502000D03*
X71671000Y47217000D03*
X71819500Y50252000D03*
X70819500Y52252000D03*
X71219500Y58089000D03*
X71919500Y59989000D03*
X72171800Y61093200D03*
X71669500Y64079500D03*
X71619500Y62079500D03*
X71169500Y66889000D03*
X71419500Y69139000D03*
X71584500Y73966500D03*
X71297000Y75629000D03*
X71547000Y82529000D03*
X72563000D03*
X74358000Y9768000D03*
X75097000Y32029000D03*
X74147000Y36629000D03*
X75777500Y37279000D03*
X75350000Y42550000D03*
X74250000Y45250000D03*
X74719500Y49639000D03*
X75619500Y51189000D03*
X75747000Y55177000D03*
X75400000Y62100000D03*
X75719500Y66439000D03*
X75611000Y82529000D03*
X74595000D03*
X73579000D03*
X77197000Y5079000D03*
X77947000Y18229000D03*
X76700000Y16629000D03*
X76426000Y21850000D03*
X76449100Y20789600D03*
X78126000Y23800000D03*
X76497000Y23000000D03*
X78126000Y27000000D03*
X77526000Y26200000D03*
X78076000Y25400000D03*
X77476000Y24600000D03*
X77518000Y27800000D03*
X77626000Y31800000D03*
X78076000Y31000000D03*
X77397000Y34979000D03*
X76197000Y35829000D03*
X78397000Y38406500D03*
X76700000Y41800000D03*
X78250000Y42700000D03*
X76706100Y43954900D03*
X78800000Y44100000D03*
X77600000Y44850000D03*
X76706500Y46252000D03*
X76850600Y48473500D03*
X77769500Y47239000D03*
X77218500Y50253500D03*
X78686500Y50228500D03*
Y53340000D03*
X78694000Y52170300D03*
X77019500Y51739000D03*
X78497000Y55177000D03*
X77819500Y58789000D03*
X77641000Y60806700D03*
X77019500Y64389000D03*
X77819500Y63239000D03*
X77619500Y62089000D03*
X77099000Y66421000D03*
X77734000Y70612000D03*
X78659000Y82529000D03*
X77643000D03*
X76627000D03*
X79079500Y9661500D03*
X80889500Y12371500D03*
X79547000Y19079000D03*
X79876000Y20200000D03*
X78918000Y21000000D03*
X81047000Y21850000D03*
X78918000Y22600000D03*
X80847000Y23421000D03*
X81047000Y25021000D03*
X78918000Y25800000D03*
Y27400000D03*
X80926000Y28200000D03*
X78918000Y29000000D03*
X80947000Y29821000D03*
X78918000Y30600000D03*
X80997000Y31421000D03*
X78918000Y32200000D03*
X79297000Y35779000D03*
X80850000Y43029900D03*
X79700000Y42100000D03*
X81019500Y45380000D03*
X80242200Y44393000D03*
X79369500Y48239000D03*
X79269500Y46389000D03*
X80669500Y47439000D03*
X79536500Y50239600D03*
X80919500Y50192000D03*
X81019500Y51252000D03*
X79543500Y52199700D03*
X79560000Y53300000D03*
X81369500Y53252000D03*
X81047000Y55177000D03*
X79519500Y58639000D03*
X80869500Y60539000D03*
X79678800Y60143400D03*
X79319500Y64289000D03*
X80950000Y62100000D03*
X79419500Y62039000D03*
X80969500Y63055500D03*
X79819500Y63539000D03*
X79869500Y66146000D03*
X81119500Y66189000D03*
Y67639000D03*
X79469500Y68289000D03*
Y70139000D03*
X81147000Y76879000D03*
X80297000Y76479000D03*
X82897000Y16929000D03*
Y21400000D03*
X81647000Y19483500D03*
X82797000Y23029000D03*
X81567500Y26849500D03*
X82597000Y30479000D03*
X81550000Y42100000D03*
X82619500Y45252000D03*
X81519500Y44189000D03*
X83499500Y45252000D03*
Y43252000D03*
X83371100Y44190800D03*
X82669500Y48239000D03*
X83619500Y48323500D03*
X81552000Y46389000D03*
X82684000Y47082300D03*
X83569500Y47089000D03*
X81519500Y49252000D03*
X82719500Y50100600D03*
X82669500Y52339000D03*
X82719500Y51239000D03*
X82219500Y54179000D03*
X82687000Y58928000D03*
X82666400Y61074500D03*
X83519500Y59939000D03*
X83601500Y61032400D03*
X82719500Y62239000D03*
Y64089000D03*
X82687000Y67056000D03*
X83579000Y67079500D03*
X82679000Y68079500D03*
X83560000Y69079500D03*
X81747000Y72129000D03*
X83569500Y70039000D03*
X82687000Y70040500D03*
X85597000Y10729000D03*
X85927000Y26659000D03*
X85897000Y25079000D03*
X85952000Y29834000D03*
X85947000Y28246500D03*
X84247000Y27629000D03*
X85954500Y31421500D03*
X85897000Y36579000D03*
X86047000Y38129000D03*
X85500000Y42252000D03*
X84712100Y47012300D03*
X86049000Y55177000D03*
X86219500Y60071000D03*
X85919500Y61087000D03*
X85419500Y59239000D03*
X84338000Y64071500D03*
X85919500Y63055500D03*
X89277000Y13959000D03*
X89329500Y21896500D03*
X89417000Y26659000D03*
X89303000Y36635000D03*
X88021000Y42579000D03*
X87797000Y48879000D03*
X87971000Y52850000D03*
X86847000Y61305000D03*
X87697000Y62879000D03*
X87767000Y65278000D03*
X86860000Y69088000D03*
X87547000Y72579000D03*
X87447000Y78779000D03*
X89489500Y31421500D03*
X91247000Y44788400D03*
X91410000Y47752000D03*
X90003000Y52951000D03*
X90051000Y59750000D03*
X91310000Y65278000D03*
X90053000Y70612000D03*
D13*
X5000000Y5000000D03*
Y82500000D03*
X90000000Y5000000D03*
Y82500000D03*
M02*