G04 Gerber PCB Fabrication Data in Gerber – Example 2, created by Karel Tavernier, Filip Vermeire and Thomas Weyn*
G04 Ucamco copyright*
%TF.GenerationSoftware,Ucamco,UcamX,1.1.0-1400509*%
%TF.CreationDate,2014-07-14T00:00:00+01:00*%
%FSLAX26Y26*%
%MOMM*%
%TF.FileFunction,Copper,L10,Bot,Signal*%
%TF.FilePolarity,Positive*%
%TF.Part,Single*%
%TF.SameCoordinates*%
%TA.AperFunction,Conductor*%
%ADD10C,0.15000*%
%TA.AperFunction,NonConductor*%
%ADD11C,0.20000*%
%TA.AperFunction,ViaPad*%
%ADD12C,0.30000*%
%TA.AperFunction,ViaPad*%
%ADD13C,0.65000*%
%TA.AperFunction,TestPad*%
%ADD14C,0.70000*%
%TA.AperFunction,WasherPad*%
%ADD15C,6.00000*%
%TA.AperFunction,SMDPad,CuDef*%
%ADD16R,0.27000X0.80000*%
%ADD17R,0.40000X1.60000*%
%ADD18R,0.50000X0.30000*%
%ADD19R,0.50000X0.40000*%
%ADD20R,0.60000X0.40000*%
%ADD21R,0.60000X1.00000*%
%ADD22R,0.70000X1.00000*%
%ADD23R,0.80000X1.60000*%
%ADD24R,1.00000X0.60000*%
%ADD25R,1.00000X0.70000*%
%ADD26R,1.00000X1.00000*%
%ADD27R,1.00000X1.50000*%
%ADD28R,1.10000X1.80000*%
%ADD29R,1.10000X2.80000*%
%ADD30R,1.20000X2.30000*%
%ADD31R,1.50000X1.00000*%
%ADD32R,1.60000X0.50000*%
%ADD33R,1.80000X1.10000*%
%ADD34R,2.00000X0.50000*%
%ADD35R,2.00000X2.30000*%
%ADD36R,2.80000X1.10000*%
%ADD37R,9.80000X8.50000*%
%TA.AperFunction,Conductor*%
%ADD38C,0*%
G01*
%LPD*%
D38*
G36*
X76850600Y77378900D02*
Y80079100D01*
X74450400D01*
Y77378900D01*
X73991600D01*
Y80104100D01*
X72991400D01*
Y77779000D01*
X72467600D01*
Y80104100D01*
X71467400D01*
Y77779000D01*
X70797000D01*
Y82479000D01*
X72247000Y83929000D01*
X81347000D01*
X83247000Y82029000D01*
Y80943600D01*
X81871900D01*
Y80029000D01*
X81497000D01*
X81297000Y80229000D01*
X78747000D01*
X78597000Y80079000D01*
Y76279000D01*
X78197000Y75879000D01*
X74697000D01*
X73766600Y76809400D01*
Y77353900D01*
X73991600D01*
Y77378900D01*
X74450400D01*
X76850600D01*
G37*
G36*
X31306600Y60846900D02*
X37747100D01*
Y60856900D01*
X39181900D01*
Y60846900D01*
X40759900D01*
Y53079000D01*
X39847000D01*
X39757100Y52989100D01*
X39298900D01*
Y51241100D01*
X39095100D01*
Y52989100D01*
X37774900D01*
Y51241100D01*
X34307100D01*
Y51251100D01*
X31306600D01*
Y60846900D01*
G37*
G36*
X55578100Y79283900D02*
Y81984100D01*
X53177900D01*
Y79283900D01*
X52476200D01*
Y79430300D01*
X52476160Y79434730D01*
X52476060Y79439170D01*
X52475900Y79443600D01*
X52475600Y79450900D01*
X52475540Y79452360D01*
X52475470Y79453830D01*
X52475400Y79455300D01*
X52471800Y79521300D01*
X52471260Y79529350D01*
X52470530Y79537380D01*
X52469600Y79545400D01*
X52467100Y79564700D01*
X52465380Y79576270D01*
X52463240Y79587780D01*
X52460700Y79599200D01*
X52460000Y79602100D01*
X52448150Y79640580D01*
X52431630Y79677300D01*
X52410700Y79711700D01*
X52401600Y79724800D01*
Y82009100D01*
X51401400D01*
Y79258900D01*
X51826000D01*
Y78716600D01*
X51826100Y78707920D01*
X51826430Y78699250D01*
X51827000Y78690600D01*
X51827200Y78688600D01*
Y78629000D01*
X50777600D01*
Y79258900D01*
X50877600D01*
Y82009100D01*
X49877400D01*
Y79258900D01*
X49977400D01*
Y78629000D01*
X49797000D01*
X48797000Y79629000D01*
Y82179000D01*
X49897000Y83279000D01*
X57197000D01*
X57547000Y82929000D01*
Y82029000D01*
X57397000Y81879000D01*
Y79379000D01*
X57497000Y79279000D01*
X58297000D01*
Y77879100D01*
X57234900D01*
Y76379000D01*
X54947000D01*
X52697000Y78629000D01*
X52477400D01*
Y78698600D01*
X52477360Y78703200D01*
X52477260Y78707800D01*
X52477100Y78712400D01*
X52476700Y78721800D01*
X52476580Y78724270D01*
X52476450Y78726730D01*
X52476300Y78729200D01*
X52476200Y78730900D01*
Y79283900D01*
X53177900D01*
X55578100D01*
G37*
D10*
X6800000Y19800000D02*
X6721000Y19879000D01*
X5597000D01*
X5297000Y19579000D01*
X5247000D01*
X6800000Y23800000D02*
X6629000Y23629000D01*
X5156100D01*
X5147000Y23638100D01*
X5152800D01*
X6800000Y24600000D02*
X6621000Y24779000D01*
X5647000D01*
X5297000Y25129000D01*
X4647000D01*
X6800000Y25400000D02*
X5500000D01*
X5400000Y25500000D01*
X4872000D01*
X4450000Y25922000D01*
Y27382000D01*
X5097000Y28029000D01*
X11490900Y41279000D02*
X9697000D01*
X9247000Y40829000D01*
Y40279000D01*
X8697000Y39729000D01*
X7097000D01*
X6282500Y38914500D01*
X6157000D01*
X5102000Y43613500D02*
X5331500D01*
X5997000Y44279000D01*
Y44479000D01*
X12347000Y47429000D02*
X12147000Y47229000D01*
X8447000D01*
X7244500Y46026500D01*
X6054500D01*
X6289600Y50855700D02*
X5963700D01*
X5737000Y50629000D01*
Y49963500D01*
X5737000Y55043500D02*
Y55919000D01*
X11200000Y22200000D02*
X9918000D01*
X9072000Y21354000D01*
Y17190800D01*
X8360200Y16479000D01*
X7897000D01*
X6800000Y23000000D02*
X8276000D01*
X8547000Y22729000D01*
X6800000Y22200000D02*
X8268000D01*
X6800000Y26200000D02*
X8276000D01*
X6800000Y27800000D02*
X6821000Y27779000D01*
X8297000D01*
X6800000Y27000000D02*
X8318000D01*
X8297000Y38967000D02*
X8126500Y38979000D01*
X9097000D01*
X9647000Y39529000D01*
Y39779000D01*
X10306500Y40438500D01*
X10499500D01*
X7072000Y44454000D02*
Y43678500D01*
X7007000Y43613500D01*
X8897000Y44529000D02*
Y43628500D01*
X8912000Y43613500D01*
X6731100Y57290000D02*
X6554300Y57113200D01*
X6731100Y57290000D02*
X6554300Y57466800D01*
X6731100Y57290000D02*
X8277500D01*
X8877500Y57890000D01*
X9227500D01*
X10127500Y58790000D01*
X10499500D01*
X6377500Y57290000D02*
X6731100D01*
X10499500Y61838000D02*
X10497000Y61835500D01*
Y60779000D01*
X9847000Y60129000D01*
X8047000D01*
X7642000Y59724000D01*
Y58790000D01*
X7642000Y68378500D02*
Y70635500D01*
X7547500Y70730000D01*
Y71678500D01*
X7497000Y71729000D01*
X7547000Y71779000D01*
X7547500Y73270000D02*
Y74629500D01*
X10467500Y7799500D02*
X10447000Y7820000D01*
Y8579000D01*
X11191500Y9323500D01*
X11452000D01*
X9547000Y7799500D02*
X10467500D01*
X11200000Y17400000D02*
X11171000Y17429000D01*
X9647000D01*
X11200000Y18200000D02*
X9626000D01*
X11200000Y19000000D02*
X9768000D01*
X9647000Y18879000D01*
X11200000Y21400000D02*
X12968000D01*
X11200000Y20600000D02*
X13076000D01*
X11200000Y19800000D02*
X13018000D01*
X11200000Y23800000D02*
X11129000Y23729000D01*
X9697000D01*
X11200000Y23000000D02*
X9718000D01*
X11200000Y24600000D02*
X9668000D01*
X11200000Y26200000D02*
X9718000D01*
X11200000Y25400000D02*
X14250000D01*
X15200000Y24450000D01*
X16375000D01*
X16614500Y24210500D01*
Y21438000D01*
X9726000Y25400000D02*
X11200000D01*
X11200000Y27000000D02*
X9668000D01*
X10499500Y38914500D02*
Y38031500D01*
X16539500Y39803500D02*
Y41379000D01*
X16189500Y41729000D01*
X12729000D01*
X12229000Y41229000D01*
X11647000D01*
X11490900Y41279000D02*
X11594000Y41282000D01*
X11490900Y41279000D02*
X11594000Y41176000D01*
X11647000Y41229000D02*
X11597000Y41279000D01*
X11490900D01*
X17189500Y39803500D02*
Y41360500D01*
X16471000Y42079000D01*
X11647000D01*
X10499500Y42089500D02*
X11636500D01*
X11647000Y42079000D01*
X10499500Y40438500D02*
X11300000D01*
X11409500Y40329000D01*
X11847000D01*
X17189500Y45899500D02*
X17197000Y45892000D01*
Y44938700D01*
X16712300Y44454000D01*
X15212300D01*
X14371800Y43613500D01*
X10499500D01*
X9397000Y46479000D02*
X10491500D01*
X10499500Y46471000D01*
X9797000Y66767000D02*
Y65929000D01*
X12404500Y73458500D02*
X11617500D01*
X11447000Y73629000D01*
Y74229000D01*
X12440500Y8678600D02*
X12450000Y8582000D01*
X12440500Y8678600D02*
X12344000Y8582000D01*
X12440500Y8678600D02*
Y8572500D01*
X12397000Y8529000D01*
X13357000Y9323500D02*
X13312500Y9279000D01*
X12679000D01*
X12440500Y9040500D01*
Y8678600D01*
X15838000Y23550000D02*
X15050000D01*
X14300000Y22800000D01*
Y21150000D01*
X13750000Y20600000D01*
X13076000D01*
X13289500Y39803500D02*
X13286000Y39800000D01*
X12376000D01*
X11847000Y40329000D01*
X12722000Y57583500D02*
X12992500D01*
X13497000Y57079000D01*
Y56629000D01*
X14066500Y56059500D01*
X14309500D01*
X12722000Y58225400D02*
X12545200Y58402200D01*
X12722000Y58225400D02*
X12898800Y58402200D01*
X12722000Y58225400D02*
Y58579000D01*
X12722000Y57583500D02*
Y58225400D01*
X11697000Y66767000D02*
X12335000D01*
X12647000Y67079000D01*
X13992000Y67743500D02*
X14332500D01*
X14797000Y67279000D01*
Y66779000D01*
X15356500Y66219500D01*
X15579500D01*
X14297000Y73441000D02*
X14279500Y73458500D01*
X12404500D01*
X17203100Y4300500D02*
X17026300Y4123700D01*
X17203100Y4300500D02*
X17026300Y4477300D01*
X17203100Y4300500D02*
X16849500D01*
X14944500Y9323500D02*
X15102500D01*
X15797000Y8629000D01*
X16497000Y10129000D02*
Y9358500D01*
X16532000Y9323500D01*
X15852500Y17374000D02*
Y18034500D01*
X16197000Y18379000D01*
X15838000Y25700000D02*
Y24800000D01*
X16547000Y29368000D02*
X15558000D01*
X16509000Y32879000D02*
Y32641000D01*
X15918000Y32050000D01*
X15680000D01*
X14985000Y31355000D01*
Y31229000D01*
X19197000Y33268000D02*
X18468000D01*
X17347000Y32147000D01*
Y31479000D01*
X17097000Y31229000D01*
X16509000D01*
X17297000Y32829000D02*
X16559000D01*
X16509000Y32879000D01*
Y34479000D01*
X15325500Y36819000D02*
Y36474500D01*
X15800000Y36000000D01*
Y33882000D01*
X14985000Y33067000D01*
Y32879000D01*
X16397000Y36829000D02*
X15335500D01*
X15325500Y36819000D01*
X15889500Y39803500D02*
Y38786500D01*
X16497000Y38179000D01*
X25947000D01*
X26047000Y38079000D01*
Y37591000D01*
X26057000Y37581000D01*
X15889500Y41236500D02*
Y39803500D01*
X15239500Y39803500D02*
Y38786500D01*
X16197000Y37829000D01*
X17747000D01*
X18373500Y37202500D01*
Y36819000D01*
X14589500Y39803500D02*
X14597000Y39796000D01*
Y38479000D01*
X19139500Y39803500D02*
Y41386500D01*
X17197000Y43329000D01*
X16697000D01*
X16297000Y47329000D02*
X16897000D01*
X17189500Y47036500D01*
Y45899500D01*
X17484500Y56059500D02*
X17266500D01*
X16697000Y56629000D01*
Y56979000D01*
X16092500Y57583500D01*
X15897000D01*
X15464500Y61584000D02*
Y60961500D01*
X15697000Y60729000D01*
X19147000D01*
X19397000Y60979000D01*
X20185000D01*
X20215000Y60949000D01*
X16464500Y61584000D02*
Y62879000D01*
X16964500Y61584000D02*
Y62496500D01*
X17647000Y63179000D01*
X18747000D01*
X16964500Y64124000D02*
Y64946500D01*
X17247000Y65229000D01*
X18697000D01*
X15579500Y66219500D02*
Y65329000D01*
X17167000Y80824500D02*
X16901500D01*
X16347000Y81379000D01*
Y81729000D01*
X15727500Y82348500D01*
X15579500D01*
Y82975400D01*
X15402700Y83152200D01*
X15579500Y82975400D02*
X15756300Y83152200D01*
X15579500Y82975400D02*
Y83329000D01*
X18150000Y7788000D02*
Y4850000D01*
X17600500Y4300500D01*
X17203100D01*
X17376500Y17374000D02*
Y18373000D01*
X17503500Y18500000D01*
Y19533000D01*
X17362000Y23550000D02*
X18100000D01*
X18450000Y23900000D01*
Y26000000D01*
X18373500Y36819000D02*
X20596000D01*
X17839500Y39803500D02*
Y38529000D01*
X19580000Y54916500D02*
Y52757500D01*
X19643500Y52694000D01*
X17484500Y56059500D02*
X18466500D01*
X19580000Y56504000D02*
Y58663000D01*
X19643500Y58726500D01*
X17464500Y61584000D02*
Y62046500D01*
X17847000Y62429000D01*
X19297000D01*
X20107500D01*
X20215000Y62536500D01*
X18747000Y63179000D02*
X19692000Y64124000D01*
X20215000D01*
X20215000Y65711500D02*
X20182500Y65679000D01*
X19647000D01*
X19197000Y65229000D01*
X18697000D01*
X17167000Y67743500D02*
X17432500D01*
X17847000Y67329000D01*
Y66979000D01*
X18606500Y66219500D01*
X18754500D01*
X17167000Y67743500D02*
Y68529000D01*
X18754500Y69394500D02*
Y68621500D01*
X19307000Y77649500D02*
Y77006800D01*
X19474800Y76839000D01*
X19707000D01*
X19307000Y79173500D02*
Y80077500D01*
X18754500Y80824500D02*
X18942500D01*
X19647000Y81529000D01*
Y81779000D01*
X20216500Y82348500D01*
X20342000D01*
X20500000Y7203600D02*
X20676800Y7026800D01*
X20500000Y7203600D02*
X20323200Y7026800D01*
X20500000Y7203600D02*
Y6850000D01*
X20500000Y7788000D02*
Y7203600D01*
X20500000Y9312000D02*
Y10996400D01*
X20659500Y21515500D02*
Y18691500D01*
X20081000Y18113000D01*
X20066300D01*
X19918500Y17965200D01*
Y17957300D01*
X19797000Y17835800D01*
Y16729000D01*
X20097000Y16429000D01*
X20447000D01*
X20697000Y16179000D01*
Y14579000D01*
X20197000Y14079000D01*
Y13115700D01*
X20633700Y12679000D01*
X25847000D01*
X25997000Y12529000D01*
X20500000Y10996400D02*
X20323200Y11173200D01*
X20500000Y10996400D02*
X20676800Y11173200D01*
X20500000Y10996400D02*
Y11350000D01*
X20659500Y17388000D02*
X21647000D01*
X21697000Y21479000D02*
X20696000D01*
X20659500Y21515500D01*
X21897000Y25418000D02*
X20647000D01*
X20647000Y29368000D02*
X22247000D01*
X27009500Y12116500D02*
Y12816500D01*
X23147000Y16679000D01*
Y28929000D01*
X22708000Y29368000D01*
X22247000D01*
X21972000Y31647000D02*
X20370000D01*
X20086000Y31363000D01*
X21972000Y33171000D02*
X24650000D01*
X24747000Y33268000D01*
X20697000Y35029000D02*
Y35599000D01*
X20596000Y35700000D01*
Y36819000D01*
X21597000Y42341000D02*
Y43179000D01*
X21612000Y50598500D02*
X22206500D01*
X22497000Y50889000D01*
Y51479000D01*
X20024500Y50598500D02*
X21612000D01*
X20647000Y53879000D02*
Y54279000D01*
X21104000Y54736000D01*
Y54916500D01*
X20297000Y55679000D02*
X20497000D01*
X21104000Y56286000D01*
Y56504000D01*
X21929500Y69394500D02*
X22194500D01*
X22597000Y69797000D01*
Y69922900D01*
X20747000Y68479000D02*
X20350000Y68876000D01*
Y69386500D01*
X20342000Y69394500D01*
X21294500Y77649500D02*
Y76881500D01*
X21294500Y79173500D02*
Y80026500D01*
X20342000Y82348500D02*
Y83025400D01*
X22747000Y81629000D02*
X22171000D01*
X21929500Y81870500D01*
Y82348500D01*
X20342000Y83025400D02*
X20165200Y83202200D01*
X20342000Y83025400D02*
X20518800Y83202200D01*
X20342000Y83025400D02*
Y83379000D01*
X24787000Y21515500D02*
Y18825000D01*
X24922000Y18690000D01*
Y17154000D01*
X27872000Y14204000D01*
Y6904000D01*
X27180000Y6212000D01*
X27009500D01*
X24787000Y21515500D02*
X25747000D01*
X24836000Y26233900D02*
X24744000Y26326000D01*
X24836000Y26233900D02*
X24850000Y26326000D01*
X24836000Y26233900D02*
Y25418000D01*
X24797000D01*
X24797000Y26379000D02*
X24836000Y26340000D01*
Y26233900D01*
X24797000Y29318000D02*
X23647000D01*
X24469500Y37581000D02*
X24695000D01*
X25297000Y36979000D01*
Y36779000D01*
X23547000Y35479000D02*
X23897000Y35829000D01*
X24241500D01*
X24469500Y36057000D01*
X23997000Y41529000D02*
Y41779000D01*
X24561500Y42343500D01*
X24724500D01*
X23547000Y45729000D02*
Y44229000D01*
X24747000Y43029000D01*
Y42366000D01*
X24724500Y42343500D01*
X24547000Y45729000D02*
Y45379000D01*
X26312000Y43614000D01*
Y42343500D01*
X23350000Y61896400D02*
Y54350000D01*
X24100000Y53600000D01*
Y48250000D01*
X28400000Y43950000D01*
X30100000D01*
X30750000Y43300000D01*
Y41450000D01*
X31500000Y41450000D02*
Y43550000D01*
X30300000Y44750000D01*
X28500000D01*
X24700000Y48550000D01*
Y54000000D01*
X23950000Y54750000D01*
Y61600000D01*
X24350000Y62000000D01*
X55267000Y35422000D02*
Y35917000D01*
X55550000Y36200000D01*
X58700000D01*
X58950000Y36450000D01*
Y39400000D01*
X51950000Y46400000D01*
X27700000D01*
X25300000Y48800000D01*
Y54250000D01*
X24600000Y54950000D01*
Y59346400D01*
X24423200Y59523200D01*
X24600000Y59346400D02*
X24776800Y59523200D01*
X24600000Y59346400D02*
Y59700000D01*
X24350000Y62000000D02*
Y62250000D01*
X24350000Y62000000D02*
X24600000D01*
X24350000Y62000000D02*
X24600000Y62250000D01*
X23350000Y61896400D02*
X23173200Y62073200D01*
X23350000Y61896400D02*
X23526800Y62073200D01*
X23350000Y62250000D02*
Y61896400D01*
X24397000Y70129000D02*
X23662500Y69394500D01*
X23517000D01*
X22597000Y69922900D02*
X22750000Y70076000D01*
X22597000Y69922900D02*
Y70029000D01*
X22697000Y70129000D01*
X22882000Y77649500D02*
Y76894000D01*
X22882000Y80079000D02*
Y79173500D01*
X22697000Y80079000D02*
X22882000D01*
X26021000D01*
X26374500Y79725500D01*
Y79173500D01*
X23517000Y80824500D02*
Y81450000D01*
X23338000Y81629000D01*
X22747000D01*
X26047000Y7329000D02*
X26397000D01*
X26804000Y7736000D01*
X27009500D01*
X25422000Y9704500D02*
Y8904000D01*
X26797000Y8929000D02*
Y9492000D01*
X27009500Y9704500D01*
X25422000Y11228500D02*
Y12104000D01*
X27009500Y11228500D02*
Y12116500D01*
X26247000Y32379000D02*
Y31974000D01*
X25636000Y31363000D01*
X25297000Y36779000D02*
Y36579000D01*
X25819000Y36057000D01*
X26057000D01*
X27597000Y36067000D02*
Y35429000D01*
X27947000Y35079000D01*
X26410600Y39676500D02*
X26233800Y39499700D01*
X26410600Y39676500D02*
X26233800Y39853300D01*
X26410600Y39676500D02*
X26544500D01*
X27037000Y40169000D01*
Y41789000D01*
X26482500Y42343500D01*
X26312000D01*
X26057000Y39676500D02*
X26410600D01*
X25281200Y45782700D02*
X27934900Y43129000D01*
X29537000D01*
X56854500Y35422000D02*
X58722000D01*
X59450000Y36150000D01*
Y39750000D01*
X52150000Y47050000D01*
X27900000D01*
X25866300Y49083700D01*
Y59380100D01*
X25689500Y59556900D01*
X25866300Y59380100D02*
X26043100Y59556900D01*
X25866300Y59380100D02*
Y59733700D01*
X27422000Y69954000D02*
X26862500Y69394500D01*
X26692000D01*
X25822000Y69954000D02*
X25262500Y69394500D01*
X25104500D01*
X27422000Y69954000D02*
Y70129000D01*
X27497000Y70129000D02*
Y70029000D01*
X27422000Y69954000D01*
X25822000Y69954000D02*
Y70129000D01*
X25897000Y70129000D02*
Y70029000D01*
X25822000Y69954000D01*
X26836000Y72463000D02*
X27202000Y72829000D01*
X29097000D01*
X29422500Y72503500D01*
Y72379000D01*
X25947000Y74368000D02*
Y75379000D01*
X26374500Y77649500D02*
X26999500D01*
X27200000Y77850000D01*
Y80026000D01*
X26409000Y80817000D01*
X26097000D01*
X25097000Y80817000D02*
X26097000D01*
X28697000Y82779000D02*
X28297000Y83179000D01*
X25397000D01*
X25097000Y82879000D01*
Y82341000D01*
X28914500Y5665100D02*
Y5311500D01*
X28914500Y5665100D02*
X29091300Y5488300D01*
X28914500Y5665100D02*
X28737700Y5488300D01*
X28914500Y6212000D02*
Y5665100D01*
X29847000Y7129000D02*
X29014500D01*
X28914500Y7229000D01*
Y7736000D01*
X28397000Y8879000D02*
Y9504500D01*
X28597000Y9704500D01*
X31197000Y9629000D02*
X30260000D01*
X30184500Y9704500D01*
X28597000Y11228500D02*
Y12079000D01*
X30297000Y12079000D02*
Y11341000D01*
X30184500Y11228500D01*
X29547000Y32079000D02*
X30285000D01*
X30385000Y32179000D01*
X28647000Y41529000D02*
Y41329000D01*
X28137500Y40819500D01*
X27949500D01*
X29537000Y42343500D02*
Y43129000D01*
X29537000Y42343500D02*
X27949500D01*
X29397000Y45779000D02*
X30821000D01*
X33521000Y43079000D01*
X33547000D01*
X28279500Y69394500D02*
X28412500D01*
X28972000Y69954000D01*
X29867000Y69394500D02*
Y68629000D01*
X28972000Y69954000D02*
Y70129000D01*
X28972000Y69954000D02*
X29047000Y70029000D01*
Y70129000D01*
X30946500Y72379000D02*
Y72529500D01*
X30247000Y73229000D01*
X30147000Y81191000D02*
Y82379000D01*
X30547000Y82779000D01*
X30819500Y5632600D02*
Y5279000D01*
X30819500Y5632600D02*
X30642700Y5455800D01*
X30819500Y5632600D02*
X30996300Y5455800D01*
X30819500Y6212000D02*
Y5632600D01*
X31797000Y7732000D02*
X30823500D01*
X30819500Y7736000D01*
X32822000Y13304000D02*
Y13150800D01*
X32897000Y13150800D02*
X32822000D01*
X32822000Y13304000D02*
X32294000Y13832000D01*
X32089500D01*
X32822000Y13304000D02*
X32897000Y13229000D01*
Y13150800D01*
X32089500Y12498500D02*
X32298500D01*
X32872800Y13072800D01*
X32900000D01*
X32822000Y13150800D01*
X31899000Y21579000D02*
X32738500D01*
X33397000Y20920500D01*
Y19429000D01*
X31097000Y27622900D02*
Y21879000D01*
X30797000Y21579000D01*
X30375000D01*
X32789300Y25171200D02*
X32797000Y25163500D01*
Y24947000D01*
X32600000Y24750000D01*
X31903000D01*
X31899000Y24754000D01*
X31097000Y27622900D02*
X31094000Y27726000D01*
X31097000Y27622900D02*
X31200000Y27726000D01*
X31147000Y27779000D02*
X31097000Y27729000D01*
Y27622900D01*
X31909000Y27929000D02*
X32447000D01*
X32747000Y27629000D01*
X31897000Y34129000D02*
Y32191000D01*
X31909000Y32179000D01*
X33550000Y41650000D02*
X32924500D01*
X32724500Y41850000D01*
Y42343500D01*
X31454500Y69394500D02*
Y68631700D01*
X31453900D01*
X32597500Y72379000D02*
X32647000Y72428500D01*
Y72579000D01*
X33197000Y73129000D01*
Y73579000D01*
X32347000Y81191000D02*
Y82779000D01*
X33677000Y12498500D02*
X33877500D01*
X34347000Y12029000D01*
Y11729000D01*
X33677000Y13832000D02*
Y12498500D01*
X35264500Y13832000D02*
Y12498500D01*
X34647000Y26429000D02*
X35597000Y25479000D01*
Y17090500D01*
X36158500Y16529000D01*
Y14540500D01*
X35450000Y13832000D01*
X35264500D01*
X33547000Y43079000D02*
X34002000D01*
X34312000Y42769000D01*
Y42343500D01*
X34647000Y68579000D02*
Y69377000D01*
X34629500Y69394500D01*
X33042000Y69394500D02*
Y68634000D01*
X34147000Y81191000D02*
Y82779000D01*
X37497000Y14779000D02*
X38547000D01*
X39167000Y15399000D01*
Y15927500D01*
X35899500Y42343500D02*
Y42931500D01*
X36097000Y43129000D01*
X37487000Y42343500D02*
Y43119000D01*
X36347000Y68629000D02*
Y69264500D01*
X36217000Y69394500D01*
X38158300Y68613100D02*
X37804500Y68966900D01*
Y69394500D01*
X36247000Y81191000D02*
Y82529000D01*
X35997000Y82779000D01*
X39297000Y28829000D02*
X38585000D01*
X38535000Y28879000D01*
X39074500Y42343500D02*
Y42728900D01*
X39384500Y43038900D01*
X39947000D01*
X40747000Y43129000D02*
Y42428500D01*
X40662000Y42343500D01*
X40979500Y69394500D02*
X40812500D01*
X40395300Y68977300D01*
Y68640800D01*
X38672000Y70354000D02*
Y70179000D01*
X38672000Y70354000D02*
X39236500Y70918500D01*
X39392000D01*
X38597000Y70179000D02*
Y70279000D01*
X38672000Y70354000D01*
X42249500Y42343500D02*
Y43126500D01*
X49837000Y45201000D02*
X48319000D01*
X47597000Y44479000D01*
X44197000D01*
X43647000Y45029000D01*
X43697000D01*
X43837000Y42343500D02*
Y43119000D01*
X45424500Y42343500D02*
Y43101500D01*
X47012000Y40819500D02*
Y38651000D01*
X48749500Y38701000D02*
X48919000D01*
X49197000Y38979000D01*
Y40579000D01*
X48956500Y40819500D01*
X48749500D01*
X46497000Y41579000D02*
Y41179000D01*
X46856500Y40819500D01*
X47012000D01*
X48247000Y41422900D02*
X48144000Y41526000D01*
X48247000Y41422900D02*
X48250000Y41526000D01*
X48247000Y41422900D02*
Y41129000D01*
X48556500Y40819500D01*
X48749500D01*
X48197000Y41579000D02*
X48247000Y41529000D01*
Y41422900D01*
X50822000Y9279000D02*
Y8371000D01*
X50822000Y10339500D02*
Y9279000D01*
X50377500Y26024000D02*
X51147000D01*
X51347000Y39879000D02*
Y39029000D01*
X51735000Y38641000D01*
X51947000D01*
X51347000Y39879000D02*
Y40429000D01*
X51735000Y40817000D01*
X51947000D01*
X50337000Y38701000D02*
X50569000D01*
X50847000Y38979000D01*
Y40479000D01*
X50506500Y40819500D01*
X50337000D01*
X49847000Y41372900D02*
X49694000Y41526000D01*
X49847000Y41372900D02*
Y41079000D01*
X50106500Y40819500D01*
X50337000D01*
X49747000Y41579000D02*
X49847000Y41479000D01*
Y41372900D01*
X49837000Y45201000D02*
X51424500D01*
X51350500Y81609000D02*
X51901500D01*
X51350500Y80959000D02*
X51901500D01*
X51350500Y80309000D02*
X51901500D01*
X50377500Y80309000D02*
X50928500D01*
X49826500Y80309000D02*
X50377500D01*
X50377500Y80959000D02*
X50928500D01*
X49826500Y80959000D02*
X50377500D01*
X50377500Y81609000D02*
X50928500D01*
X49826500Y81609000D02*
X50377500D01*
Y82060000D01*
X54314500Y6847000D02*
Y5896500D01*
X52727000Y6847000D02*
Y6009000D01*
X55902000Y6847000D02*
X55779000D01*
X55039500Y7586500D01*
Y9736500D01*
X54436500Y10339500D01*
X54314500D01*
X52727000Y8371000D02*
Y9049000D01*
X52497000Y9279000D01*
X52727000Y10339500D02*
Y9749000D01*
X53097000Y9379000D01*
X54314500Y8371000D02*
Y9211500D01*
X53497000Y11029000D02*
Y11329000D01*
X52962500Y11863500D01*
X52727000D01*
X53622000Y12404000D02*
Y12629000D01*
X53622000Y12404000D02*
X53547000Y12479000D01*
Y12629000D01*
X54314500Y11863500D02*
X54162500D01*
X53622000Y12404000D01*
X53679500Y34088500D02*
Y33535000D01*
X53900000Y33314500D01*
X53679500Y34088500D02*
Y35422000D01*
X52657500Y52139000D02*
X51769500D01*
Y52138800D01*
X51770100D01*
X56219500Y75236500D02*
X55956000Y75500000D01*
X55326000D01*
X52776000Y78050000D01*
X52479300D01*
X52152300Y78377000D01*
Y78698600D01*
X52151900Y78708000D01*
X52151100Y78716600D01*
Y79430300D01*
X52150800Y79437600D01*
X52147200Y79503600D01*
X52144700Y79522900D01*
X52144000Y79525800D01*
X52010800Y79659000D01*
X51901500D01*
X51901500Y81609000D02*
X52452500D01*
X51901500Y81609000D02*
Y82060000D01*
X51901500Y80959000D02*
X52452500D01*
X51901500Y80309000D02*
X52452500D01*
X53127000Y80634000D02*
X54378000D01*
X55902000Y6847000D02*
Y5934000D01*
X55902000Y8371000D02*
Y8984000D01*
X56147000Y9229000D01*
X55902000Y13514500D02*
X55687500Y13300000D01*
X55218000D01*
X55047000Y13129000D01*
Y10679000D01*
X55386500Y10339500D01*
X55902000D01*
X56097000Y12472900D02*
X56094000Y12576000D01*
X56097000Y12472900D02*
X56200000Y12576000D01*
X56097000Y12472900D02*
Y12058500D01*
X55902000Y11863500D01*
X56147000Y12629000D02*
X56097000Y12579000D01*
Y12472900D01*
X55902000Y15038500D02*
Y15874000D01*
X55902000Y13514500D02*
X56882500D01*
X54647000Y21829000D02*
Y21086000D01*
X54632000Y21071000D01*
X56219500Y21071000D02*
X56455000D01*
X57097000Y20429000D01*
Y20079000D01*
X57629000Y19547000D01*
X57807000D01*
X54632000Y21071000D02*
X56219500D01*
X56854500Y34088500D02*
Y35422000D01*
X55267000Y34088500D02*
Y35422000D01*
X54378000Y79233000D02*
Y80634000D01*
X55629000D01*
X54378000Y80634000D02*
Y82035000D01*
X57489500Y6847000D02*
Y5886500D01*
X59077000Y6847000D02*
Y5899000D01*
X59077000Y8371000D02*
Y9052900D01*
Y9159000D01*
X59147000Y9229000D01*
X59077000Y9052900D02*
X59200000Y9176000D01*
X57489500Y10339500D02*
Y9836500D01*
X57897000Y9429000D01*
X57489500Y8371000D02*
Y8986500D01*
X57197000Y9279000D01*
X58647000Y9500200D02*
Y10079000D01*
X58907500Y10339500D01*
X59077000D01*
X57489500Y11863500D02*
Y12671500D01*
X59077000Y11863500D02*
Y12779000D01*
X57807000Y21071000D02*
Y22119000D01*
X57184000Y77129000D02*
X57785000D01*
Y77930000D01*
X60664500Y6847000D02*
Y5896500D01*
X62252000Y6847000D02*
Y5934000D01*
X60664500Y10339500D02*
Y9611500D01*
X60947000Y9329000D01*
X62252000Y10339500D02*
X62347000D01*
X62747000Y9939500D01*
Y9479000D01*
X62252000Y8371000D02*
Y9074000D01*
X62097000Y9229000D01*
X60664500Y8371000D02*
Y8911500D01*
X60347000Y9229000D01*
X60664500Y11863500D02*
Y12729000D01*
X62252000Y11863500D02*
Y12774000D01*
X70371300Y18949000D02*
X70397000Y18974700D01*
Y21429000D01*
X69597000Y22229000D01*
X64947000D01*
X62265000Y19547000D01*
X59712000D01*
X62940900Y34779000D02*
X62447000D01*
X62252000Y34974000D01*
Y35422000D01*
X63839500Y6847000D02*
Y5886500D01*
X64447000Y9500200D02*
X64450000Y9503200D01*
Y9936500D01*
X64047000Y10339500D01*
X63839500D01*
X63839500Y8980400D02*
X63694000Y9126000D01*
X63839500Y8980400D02*
Y9086500D01*
X63747000Y9179000D01*
X63839500Y8371000D02*
Y8980400D01*
X63839500Y11863500D02*
Y12736500D01*
X64597000Y25279000D02*
X65047000Y25729000D01*
X65635000D01*
X65797000Y25891000D01*
X62940900Y34779000D02*
X63044000Y34676000D01*
X63097000Y34729000D02*
X63047000Y34779000D01*
X62940900D01*
X63097000Y34729000D02*
X63597000D01*
X63839500Y34971500D01*
Y35422000D01*
X62940900Y34779000D02*
X63044000Y34782000D01*
X65427000Y6847000D02*
Y6009000D01*
X67014500Y6847000D02*
Y5896500D01*
X65744500Y10339500D02*
Y9681500D01*
X66047000Y9379000D01*
X67649500Y10339500D02*
Y9481500D01*
X67014500Y8371000D02*
Y9261500D01*
X65427000Y8371000D02*
Y9149000D01*
X65744500Y12729000D02*
Y13514500D01*
X65744500Y11863500D02*
Y12729000D01*
X67649500Y11863500D02*
Y12676500D01*
X66947000Y15129000D02*
X65835000D01*
X65744500Y15038500D01*
X66125500Y19356500D02*
Y20857500D01*
X66697000Y21429000D01*
X68947000D01*
X69009000Y21367000D01*
X69297000D01*
X67547000Y24367000D02*
Y23279000D01*
X65797000Y24367000D02*
Y23279000D01*
X67547000Y25891000D02*
X66985000D01*
X66697000Y26179000D01*
Y26529000D01*
X65797000Y25891000D02*
Y27029000D01*
X67547000Y27267000D02*
X66385000D01*
X67497000Y29629000D02*
Y28841000D01*
X67547000Y28791000D01*
X70189500Y6847000D02*
X70415000D01*
X71047000Y7479000D01*
Y7779000D01*
X71639000Y8371000D01*
X71777000D01*
X68602000Y6847000D02*
Y5874000D01*
X70189500Y8371000D02*
Y9186500D01*
X68602000Y8371000D02*
Y9424000D01*
X70297000Y22891000D02*
X69297000D01*
X70297000Y22891000D02*
Y27029000D01*
X70009000Y27317000D01*
X69297000D01*
X69297000Y24317000D02*
Y23879000D01*
X69097000Y23679000D01*
X68447000D01*
X69297000Y25841000D02*
Y25079000D01*
X68347000Y29426500D02*
X68449500D01*
X68524500Y29351500D01*
X69035000Y28841000D01*
X69297000D01*
X68524500Y29351500D02*
X68347000D01*
X69297000Y30317000D02*
X68297000D01*
X68297000Y31379000D02*
Y31591000D01*
X68547000Y31841000D01*
X69297000D01*
X70847000Y38179000D02*
X70757000Y38089000D01*
X69935500D01*
X71965100Y9310900D02*
Y8559100D01*
X71777000Y8371000D01*
X77564400Y18200000D02*
X72658000D01*
X76247000Y22729000D02*
X74118000Y20600000D01*
X72658000D01*
X72658000Y19800000D02*
X74376000D01*
X76176000Y21600000D01*
X76447000Y20789600D02*
Y20829000D01*
X74618000Y19000000D01*
X72658000D01*
X72658000Y23800000D02*
X74826000D01*
X76426000Y25400000D01*
X72658000Y23000000D02*
X74826000D01*
X76426000Y24600000D01*
X76468000Y23800000D02*
X74868000Y22200000D01*
X72658000D01*
X72658000Y24600000D02*
X74768000D01*
X76368000Y26200000D01*
X76418000Y27800000D02*
X76389000Y27829000D01*
X76047000D01*
X73676000Y30200000D01*
X72658000D01*
X79647000Y28200000D02*
X79626000Y28179000D01*
X78497000D01*
X75676000Y31000000D01*
X72658000D01*
X72658000Y34200000D02*
X74626000D01*
X76697000Y32129000D01*
X76697000Y31229000D02*
X75697000Y32229000D01*
Y32256900D01*
X75374900Y32579000D01*
X75347000D01*
X74526000Y33400000D01*
X72658000D01*
X75843400Y35829000D02*
X72687000D01*
X72658000Y35800000D01*
X77043400Y34979000D02*
X72679000D01*
X72658000Y35000000D01*
X70847000Y38179000D02*
X70947000Y38429000D01*
X70847000Y38179000D02*
X71197000D01*
X71197000Y38429000D02*
X71097000D01*
X70847000Y38179000D01*
X71967500Y78404000D02*
X72518500D01*
X71416500Y78404000D02*
X71967500D01*
X71967500Y79054000D02*
X72518500D01*
X71416500Y79054000D02*
X71967500D01*
X71967500Y79704000D02*
X72518500D01*
X71416500Y79704000D02*
X71967500D01*
Y80155000D01*
X72940500Y79704000D02*
X73491500D01*
X72940500Y79054000D02*
X73491500D01*
X72940500Y78404000D02*
X73491500D01*
X74507500Y6679000D02*
X74698000Y6869500D01*
Y7863000D01*
X74507500Y5704000D02*
Y6679000D01*
X74497000Y12371500D02*
X75460000D01*
X75269500Y75236500D02*
X74977000Y75529000D01*
X74547000D01*
X73491500Y76584500D01*
Y77754000D01*
X75650500Y77328000D02*
Y78729000D01*
X73491500Y79704000D02*
X74042500D01*
X73491500Y79704000D02*
Y80155000D01*
X73491500Y79054000D02*
X74042500D01*
X73491500Y78404000D02*
X74042500D01*
X75650500Y78729000D02*
X76901500D01*
X74399500Y78729000D02*
X75650500D01*
Y80130000D01*
X76984000Y12371500D02*
Y9229000D01*
X76476000Y8721000D01*
Y7863000D01*
X77160000Y7179000D01*
X79065000D01*
X79079500Y7164500D01*
X77564400Y18200000D02*
X77770200Y18405800D01*
X77564400Y18200000D02*
X77770200Y18052200D01*
X77947000Y18229000D02*
X77918000Y18200000D01*
X77564400D01*
X86890000Y15546500D02*
X82279500D01*
X78647000Y19179000D01*
Y19629000D01*
X76676000Y21600000D01*
X76449100Y20789600D02*
X76447000D01*
X86890000Y13959000D02*
X83267000D01*
X76447000Y20779000D01*
Y20789600D01*
X76247000Y22729000D02*
Y23000000D01*
X76247000Y22729000D02*
X76497000Y22750000D01*
X76497000Y23000000D02*
Y22979000D01*
X76247000Y22729000D01*
X76176000Y21600000D02*
Y21850000D01*
X76176000Y21600000D02*
X76426000D01*
X76176000Y21600000D02*
X76426000Y21850000D01*
X76676000Y21600000D02*
X76426000D01*
X76676000Y21600000D02*
Y21850000D01*
X76676000Y21600000D02*
X76426000Y21850000D01*
X75843400Y35829000D02*
X76020200Y36005800D01*
X75843400Y35829000D02*
X76020200Y35652200D01*
X76197000Y35829000D02*
X75843400D01*
X77043400Y34979000D02*
X77220200Y35155800D01*
X77043400Y34979000D02*
X77220200Y34802200D01*
X77397000Y34979000D02*
X77043400D01*
X84342000Y18200000D02*
X84321000Y18179000D01*
X81397000D01*
X79876000Y19700000D01*
Y19846400D01*
X79699200Y20023200D01*
X79876000Y19846400D02*
X80052800Y20023200D01*
X79876000Y19846400D02*
Y20200000D01*
X79647000Y21000000D02*
X79900000D01*
X80800000Y20100000D01*
Y19517200D01*
X81408700Y18908500D01*
X81989800D01*
X82081300Y19000000D01*
X84342000D01*
X79647000Y21800000D02*
X81197000Y20250000D01*
X82250000D01*
X82700000Y19800000D01*
X84342000D01*
X84342000Y20600000D02*
X81647000D01*
X79647000Y22600000D01*
X84342000Y22200000D02*
X80847000D01*
X79647000Y23400000D01*
X84342000Y23800000D02*
X81826000D01*
X80626000Y25000000D01*
X79647000D01*
X79647000Y25800000D02*
X79676000Y25829000D01*
X80497000D01*
X81726000Y24600000D01*
X84342000D01*
X84342000Y30200000D02*
X83168000D01*
X80368000Y27400000D01*
X79647000D01*
X80126000Y27000000D02*
X80568000D01*
X82968000Y29400000D01*
X84342000D01*
X79647000Y29000000D02*
X79676000Y29029000D01*
X80297000D01*
X83068000Y31800000D01*
X84342000D01*
X84342000Y32600000D02*
X83218000D01*
X80418000Y29800000D01*
X79647000D01*
X79647000Y30600000D02*
X79676000Y30629000D01*
X80147000D01*
X82918000Y33400000D01*
X84342000D01*
X84342000Y34200000D02*
X82968000D01*
X80168000Y31400000D01*
X79647000Y32200000D02*
X79668000Y32179000D01*
X80297000D01*
X83118000Y35000000D01*
X84342000D01*
X79650600Y35779000D02*
X79473800Y35602200D01*
X79650600Y35779000D02*
X79473800Y35955800D01*
X79650600Y35779000D02*
X84321000D01*
X84342000Y35800000D01*
X79297000Y35779000D02*
X79650600D01*
X80969500Y42327000D02*
Y41800000D01*
X80758500Y41589000D01*
X80219500D01*
X83207000Y12371500D02*
Y11039000D01*
X83517000Y10729000D01*
X85243400D01*
X83150600Y23029000D02*
X82973800Y22852200D01*
X83150600Y23029000D02*
X82973800Y23205800D01*
X83150600Y23029000D02*
X84313000D01*
X84342000Y23000000D01*
X82797000Y23029000D02*
X83150600D01*
X81821000Y80443500D02*
X82572000D01*
Y80994500D01*
X85243400Y10729000D02*
X85420200Y10905800D01*
X85243400Y10729000D02*
X85420200Y10552200D01*
X85950600Y10729000D02*
X85773800Y10552200D01*
X85950600Y10729000D02*
X85773800Y10905800D01*
X85950600Y10729000D02*
X85597000D01*
X85243400D01*
X86885000Y10729000D02*
X85950600D01*
X84342000Y18200000D02*
X85426000D01*
X85797000Y17829000D01*
Y17329000D01*
X85992000Y17134000D01*
X86890000D01*
X86890000Y18721500D02*
X85954500D01*
X85676000Y19000000D01*
X84342000D01*
X86890000Y20309000D02*
X86259000D01*
X85750000Y19800000D01*
X84342000D01*
X84342000Y20600000D02*
X85368000D01*
X85747000Y20979000D01*
Y21379000D01*
X86264500Y21896500D01*
X86890000D01*
X84342000Y22200000D02*
X85618000D01*
X85897000Y22479000D01*
Y23179000D01*
X86197000Y23479000D01*
X86885000D01*
X86890000Y23484000D01*
X86280600Y26659000D02*
X86103800Y26482200D01*
X86280600Y26659000D02*
X86103800Y26835800D01*
X86280600Y26659000D02*
X85927000D01*
X86890000Y26659000D02*
X86280600D01*
X86258100Y25071500D02*
X86073800Y24902200D01*
X86258100Y25071500D02*
X86073800Y25255800D01*
X86258100Y25071500D02*
X85904500D01*
X85897000Y25079000D01*
X86890000Y25071500D02*
X86258100D01*
X86890000Y28246500D02*
X86300600D01*
X85947000D01*
X86300600Y28246500D02*
X86123800Y28423300D01*
X86300600Y28246500D02*
X86123800Y28069700D01*
X86890000Y31421500D02*
X86308100D01*
X85954500D01*
X86308100Y31421500D02*
X86131300Y31598300D01*
X86308100Y31421500D02*
X86131300Y31244700D01*
X86890000Y29834000D02*
X86305600D01*
X85952000D01*
X86305600Y29834000D02*
X86128800Y30010800D01*
X86305600Y29834000D02*
X86128800Y29657200D01*
X86400600Y38129000D02*
X86223800Y37952200D01*
X86400600Y38129000D02*
X86223800Y38305800D01*
X86047000Y38129000D02*
X86400600D01*
X87231000D01*
X87271000Y38089000D01*
X91247000Y44434800D02*
X91070200Y44611600D01*
X91247000Y44434800D02*
X91423800Y44611600D01*
X91247000Y44434800D02*
Y44277000D01*
X90997000Y44027000D01*
X90053000D01*
X91247000Y44788400D02*
Y44434800D01*
X91056400Y47752000D02*
X91233200Y47928800D01*
X91056400Y47752000D02*
X91233200Y47575200D01*
X91056400Y47752000D02*
X90318500D01*
X90281500Y47789000D01*
X91410000Y47752000D02*
X91056400D01*
X5565500Y29400000D02*
X5220700Y29055300D01*
X5565500Y29400000D02*
X5318000D01*
X5097000Y29179000D01*
X6800000Y29400000D02*
X5565500D01*
X5222000Y40585800D02*
Y41079000D01*
X5222000Y40585800D02*
X5369300Y40438500D01*
X6157000D01*
X7007000Y42089500D02*
X6157000D01*
X5102000D01*
X5047000Y41079000D02*
Y42034500D01*
X5102000Y42089500D01*
X6157000Y40438500D02*
X8244500D01*
X8297000Y40491000D01*
X5047000Y41079000D02*
Y40760800D01*
X5222000Y40585800D01*
X6157000Y40438500D02*
Y42089500D01*
X5737000Y48439500D02*
Y47269000D01*
X5297000Y46829000D01*
X7642000Y48439500D02*
X5737000D01*
X5737000Y53519500D02*
X7642000D01*
X8497000Y18200000D02*
X6800000D01*
X8497000Y18979000D02*
Y18200000D01*
X8497000Y17429000D02*
Y18200000D01*
X6800000Y17400000D02*
X6829000Y17429000D01*
X8497000D01*
X6800000Y21400000D02*
X8176000D01*
X8497000Y21079000D01*
Y20379000D01*
X6800000Y19000000D02*
X8476000D01*
X8497000Y18979000D01*
X8497000Y20379000D02*
Y18979000D01*
X8000000Y42089500D02*
X8912000D01*
X8000000Y42089500D02*
Y41497000D01*
X8297000Y41200000D01*
Y40491000D01*
X21335000Y44779000D02*
Y44617000D01*
X20597000Y43879000D01*
X16297000D01*
X15247000Y42829000D01*
X9147000D01*
X8912000Y42594000D01*
Y42089500D01*
X7007000Y42089500D02*
X8000000D01*
X9847000Y50679000D02*
Y50729000D01*
X9081500Y49963500D01*
X7642000D01*
X8647000Y52979000D02*
X8397000D01*
X7856500Y53519500D01*
X7642000D01*
X7642000Y55043500D02*
X8632500D01*
X8697000Y69229000D02*
X8647000Y69179000D01*
Y67129000D01*
X8372500Y66854500D01*
X7642000D01*
X8500000Y69673500D02*
X8820700Y69352700D01*
X8500000Y69673500D02*
Y69426000D01*
X8697000Y69229000D01*
X8500000Y70730000D02*
Y69673500D01*
X12500000Y7799500D02*
X11452000D01*
X9547000Y9323500D02*
Y10179000D01*
X11200000Y28600000D02*
X13026000D01*
X13327000Y28299000D01*
X10499500Y44947000D02*
X10765000D01*
X11447000Y45629000D01*
X12722000Y56059500D02*
X11977500D01*
X10747000Y54829000D01*
X11797000Y70381500D02*
Y68391000D01*
X11697000Y68291000D01*
X9797000Y68291000D02*
X11697000D01*
X9452500Y73270000D02*
Y72347500D01*
X9950000Y71850000D01*
X10576000D01*
X11597000Y70829000D01*
X11797000Y70381500D02*
X11473300Y70705300D01*
X11597000Y70829000D02*
X11797000Y70629000D01*
Y70381500D01*
X13357000Y7799500D02*
X12500000D01*
X14944500Y7799500D02*
X13357000D01*
X12449000Y6600000D02*
Y7748500D01*
X12500000Y7799500D01*
X14944500Y11927000D02*
X13299000D01*
X14944500Y13451000D02*
X13947000D01*
X15658000Y27463000D02*
X14163000D01*
X13327000Y28299000D01*
X13997000Y34479000D02*
X14985000D01*
X13289500Y45899500D02*
Y48471500D01*
X15397000Y50579000D01*
X16778600D01*
X14309500Y58616500D02*
X14322000Y58629000D01*
X17147000D01*
X17484500Y58291500D01*
Y57583500D01*
X14309500Y57583500D02*
Y58616500D01*
X12722000Y60504500D02*
Y59579000D01*
X31447000Y75779000D02*
X29397000D01*
X27047000Y73429000D01*
X25147000D01*
X24426000Y74150000D01*
X17668000D01*
X16147000Y72629000D01*
X12550000D01*
X12404500Y72483500D01*
Y71934500D01*
X14297000Y71917000D02*
X15447000D01*
X12404500Y75109500D02*
X13616500D01*
X16532000Y7799500D02*
X14944500D01*
X14944500Y13451000D02*
X17802000D01*
X14890500Y19533000D02*
X14670700Y19505300D01*
X14890500Y19533000D02*
X14670700Y19752700D01*
X14890500Y19533000D02*
X14643000D01*
X14547000Y19629000D01*
X15725500Y19533000D02*
X14890500D01*
X16778600Y50579000D02*
X17010000Y50595100D01*
X16778600Y50579000D02*
X17010000Y50347700D01*
X17133700Y50471400D02*
X17026100Y50579000D01*
X16778600D01*
X18437000Y50598500D02*
X18097000D01*
X17927500Y50429000D01*
X17176100D01*
X17133700Y50471400D01*
Y51565700D01*
X17685000Y52117000D01*
X17947000D01*
X17947000Y53641000D02*
X17785000Y53479000D01*
X16247000D01*
X16097000Y53329000D01*
X15897000Y56059500D02*
Y53529000D01*
X16097000Y53329000D01*
X16997000Y54879000D02*
X16647000Y55229000D01*
Y55479000D01*
X16066500Y56059500D01*
X15897000D01*
X15579500Y67743500D02*
Y68729000D01*
X16079500Y69229000D01*
X17447000D01*
X18097000Y68579000D01*
Y68229000D01*
X18582500Y67743500D01*
X18754500D01*
X15550000Y78000000D02*
Y79849500D01*
X15579500Y79879000D01*
X15579500Y80824500D02*
Y79879000D01*
X18150000Y9312000D02*
X19126000D01*
X19338000Y9100000D01*
Y8039000D01*
X17802000Y11927000D02*
X19645000D01*
X18447000Y14179000D02*
Y13829000D01*
X18069000Y13451000D01*
X17802000D01*
X19770500Y15483000D02*
X19368500Y15885000D01*
Y16416500D01*
X19372000Y16420000D01*
Y16938000D01*
X19368500Y16941500D01*
Y18185200D01*
X19770500Y19610500D02*
X19397000Y19237000D01*
Y18279000D01*
X19303200Y18185200D01*
X19368500D01*
X19758000Y23513000D02*
Y22391900D01*
X19609500Y22243400D01*
Y19771500D01*
X19770500Y19610500D01*
X19758000Y27463000D02*
X19650000Y27355000D01*
Y23621000D01*
X19758000Y23513000D01*
X18308000Y31363000D02*
X18147000Y31202000D01*
Y30179000D01*
X23858000Y31363000D02*
X22874000Y30379000D01*
X19947000D01*
X19747000Y30179000D01*
X18147000D01*
X19139500Y45899500D02*
Y46821500D01*
X19397000Y47079000D01*
X21097000D01*
X21347000Y46829000D01*
Y44791000D01*
X21335000Y44779000D01*
X17839500Y45899500D02*
Y47700000D01*
X18068500Y47929000D01*
X18347000D01*
X21612000Y49074500D02*
X21597000Y49059500D01*
Y48379000D01*
X21147000Y47929000D01*
X18347000D01*
X18489500Y47539000D02*
X18223300Y47805300D01*
X18489500Y47539000D02*
Y47786500D01*
X18347000Y47929000D01*
Y48984500D01*
X18437000Y49074500D01*
X18489500Y45899500D02*
Y47539000D01*
X20024500Y49074500D02*
X19901500D01*
X19197000Y49779000D01*
Y49979000D01*
X18577500Y50598500D01*
X18437000D01*
X21739000Y60949000D02*
Y60621000D01*
X20997000Y59879000D01*
X18497000D01*
X17464500Y64124000D02*
X18542000D01*
X20342000Y70918500D02*
X18754500D01*
Y71929000D01*
X17167000Y82348500D02*
X18754500D01*
Y83379000D01*
X20772000Y13479000D02*
Y13854000D01*
X21397000Y14479000D01*
Y15279000D01*
X21548500Y15430500D01*
Y15483000D01*
X21929500Y11927000D02*
X23095000D01*
X21929500Y13451000D02*
X23075000D01*
X21548500Y19610500D02*
X22447000Y18712000D01*
Y16379000D01*
X21551000Y15483000D01*
X21548500D01*
X21536000Y23513000D02*
X22397000Y22652000D01*
Y20429000D01*
X21578500Y19610500D01*
X21548500D01*
X21536000Y27463000D02*
X22447000Y26552000D01*
Y24429000D01*
X21536000Y23518000D01*
Y23513000D01*
X22628000Y35657500D02*
X22323300Y35352700D01*
X22447000Y35229000D02*
X22628000Y35410000D01*
Y35657500D01*
X23199500Y40799500D02*
X21614500D01*
X21597000Y40817000D01*
X20509000Y41391000D02*
Y40817000D01*
X21597000Y40817000D02*
X20509000D01*
X22564500Y52694000D02*
X21675500D01*
X21675500Y58726500D02*
Y57600500D01*
X22047000Y57229000D01*
X21739000Y62536500D02*
Y60949000D01*
X21739000Y65711500D02*
Y64124000D01*
Y62536500D01*
X21929500Y70918500D02*
X20342000D01*
X19947000Y75779000D02*
Y74996500D01*
X20024500Y74919000D01*
X27247000Y75779000D02*
X26847000Y76179000D01*
X21297000D01*
X20037000Y74919000D01*
X20024500D01*
X20307700Y79865500D02*
X20297000Y79854800D01*
Y79829000D01*
X20342000Y79874000D01*
Y80824500D01*
X21929500D01*
X23898000Y19610500D02*
Y18678000D01*
X24347000Y18229000D01*
X23898000Y19610500D02*
Y20568300D01*
X23737000Y20729300D01*
Y23342000D01*
X23908000Y23513000D01*
X23800000Y23621000D01*
Y27305000D01*
X23908000Y27413000D01*
X23858000Y31363000D02*
X24871000Y30350000D01*
X25826000D01*
X26147000Y30029000D01*
Y27929000D01*
X25686000Y27468000D01*
Y27413000D01*
X22628000Y35657500D02*
Y36819000D01*
X24724500Y40819500D02*
X24859400Y40684600D01*
Y40050300D01*
X23199500Y42323500D02*
Y43081500D01*
X23199500Y40799500D02*
X24704500D01*
X24724500Y40819500D01*
X26312000Y40819500D02*
X24724500D01*
X22859000Y44779000D02*
Y43422000D01*
X23199500Y43081500D01*
X22564500Y52694000D02*
X22823300Y52952700D01*
X22947000Y52829000D02*
X22773200Y52655200D01*
X22770800D01*
X22732000Y52694000D01*
X22564500D01*
X23517000Y70918500D02*
Y71909000D01*
X23517000Y70918500D02*
X25104500D01*
X25058000Y72463000D02*
X24963000D01*
X23997000Y73429000D01*
X23517000Y82348500D02*
Y83429000D01*
X25676000Y18608000D02*
Y18275000D01*
X25676000Y18608000D02*
Y19610500D01*
X25547000Y18229000D02*
Y18479000D01*
X25676000Y18608000D01*
X25686000Y23513000D02*
X26197000Y23002000D01*
Y20979000D01*
X25676000Y20458000D01*
Y19610500D01*
X25686000Y23513000D02*
Y25513700D01*
X25960100Y25787800D01*
X30375000Y25829000D02*
X26001300D01*
X25960100Y25787800D01*
X25686000Y27413000D02*
Y26061900D01*
X25960100Y25787800D01*
X28597000Y38829000D02*
Y37929000D01*
X28309000Y37641000D01*
X27647000D01*
X27597000Y37591000D01*
X28749500Y49057000D02*
X27169000D01*
X27097000Y49129000D01*
X27197000Y55979000D02*
Y55589000D01*
X27507000Y55279000D01*
X29110000D01*
X29122500Y55266500D01*
X29122500Y56854000D02*
X27522000D01*
X27147000Y57229000D01*
X27147000Y62279000D02*
Y61103000D01*
X28221000Y60029000D01*
X29122500D01*
X29122500Y58441500D02*
X28434500D01*
X27147000Y59729000D01*
X27150000Y63579000D02*
Y63150000D01*
X28050000Y62250000D01*
X30287000D01*
X30537000Y62500000D01*
Y63031000D01*
X26692000Y70918500D02*
X28279500D01*
X25104500Y70918500D02*
X26692000D01*
X27247000Y75779000D02*
X28129000D01*
X28900000Y76550000D01*
Y77649500D01*
X29150000Y17700000D02*
X30335000Y18885000D01*
Y19929000D01*
X30375000Y23166500D02*
Y24754000D01*
X30375000Y25829000D02*
Y24754000D01*
X30385000Y27929000D02*
X30375000Y27919000D01*
Y25829000D01*
X30385000Y27929000D02*
Y29506500D01*
X30375000Y29516500D01*
X29947000Y30479000D02*
Y30129000D01*
X30375000Y29701000D01*
Y29516500D01*
X31497000Y36879000D02*
X31488500D01*
X30375000Y37992500D01*
Y39041500D01*
X29537000Y40819500D02*
Y39769000D01*
X28597000Y38829000D01*
X29537000Y40819500D02*
X31897000D01*
X30337000Y49057000D02*
Y48569000D01*
X29847000Y48079000D01*
X30337000Y50581000D02*
X31887000D01*
X31897000Y50591000D01*
X30337000Y50581000D02*
X28749500D01*
X29122500Y53679000D02*
X28647000D01*
X28347000Y53379000D01*
X29122500Y52091500D02*
X28334500D01*
X29697000Y63729000D02*
X29128500D01*
X28949500Y63550000D01*
Y63031000D01*
X28949500Y61507000D02*
X30537000D01*
X30537000Y63031000D02*
Y63939000D01*
X29697000Y64779000D01*
X28279500Y70918500D02*
Y72029000D01*
X28279500Y70918500D02*
X29867000D01*
X31454500D01*
X28900000Y77649500D02*
Y78482000D01*
X29197000Y78779000D01*
Y82379000D01*
X30547000Y83729000D01*
X66997000D01*
X68097000Y82629000D01*
Y80979000D01*
X27962000Y77649500D02*
X28900000D01*
X27962000Y79173500D02*
Y80129000D01*
X31397000Y79667000D02*
X30147000D01*
X33677000Y10974500D02*
X32089500D01*
X32700000Y19929000D02*
X31859000D01*
X33647000Y24479000D02*
Y23497000D01*
X33316500Y23166500D01*
X31899000D01*
X31897000Y49067000D02*
Y48597000D01*
X31229000Y47929000D01*
X30997000D01*
X32297000Y48229000D02*
X33137000D01*
X33447000Y48539000D01*
Y49067000D01*
X31597000Y64179000D02*
X31621000D01*
X32124500Y63675500D01*
Y63031000D01*
X32124500Y61507000D02*
X30537000D01*
X31454500Y70918500D02*
X33042000D01*
X31397000Y80429000D02*
Y79667000D01*
X32347000Y79667000D02*
X31397000D01*
X34147000Y79667000D02*
X32347000D01*
X35264500Y10974500D02*
X33677000D01*
X35264500Y10974500D02*
X36692500D01*
X36897000Y11179000D01*
Y12079000D01*
X34312000Y37077000D02*
X35899500D01*
X35899500Y38601000D02*
X34312000D01*
X33997000Y37829000D02*
X34197000D01*
X34312000Y37944000D01*
Y38601000D01*
X35029500Y49057000D02*
Y48311500D01*
X34747000Y48029000D01*
X35299500Y63031000D02*
Y64426500D01*
X34847000Y64879000D01*
X33712000Y63031000D02*
Y64464000D01*
X33547000Y64629000D01*
X34847000Y72379000D02*
Y71729000D01*
X34629500Y71511500D01*
Y70918500D01*
X34847000Y72379000D02*
X35247000D01*
X36097000Y73229000D01*
Y73254000D01*
X36122000Y73279000D01*
Y73331500D01*
X34121500Y72379000D02*
X34847000D01*
X36122000Y73331500D02*
Y74804000D01*
X35689500Y75236500D01*
X35074000D01*
X35047000Y79667000D02*
X34147000D01*
X36247000Y79667000D02*
X35047000D01*
X35147000Y78929000D02*
Y79567000D01*
X35047000Y79667000D01*
X36647000Y7579000D02*
X41197000D01*
X42567000Y8949000D01*
Y9577500D01*
X41548500D01*
X38997000Y12129000D01*
X36947000D01*
X36897000Y12079000D01*
X36485000Y19029000D02*
Y17029000D01*
X36647000Y16867000D01*
Y12329000D01*
X36897000Y12079000D01*
X38009000Y17941000D02*
X38121000Y17829000D01*
X40597000D01*
X40867000Y17559000D01*
Y15927500D01*
X38009000Y19029000D02*
Y17941000D01*
X35899500Y37077000D02*
Y37599500D01*
X36100000Y37800000D01*
X38850000D01*
X39074500Y37575500D01*
Y37077000D01*
X39074500Y38601000D02*
X37487000D01*
X35899500D01*
X36147000Y48029000D02*
Y48079000D01*
X36617000Y48549000D01*
Y49057000D01*
X38204500Y49057000D02*
Y48371500D01*
X38497000Y48079000D01*
X38204500Y50581000D02*
X39147000D01*
X38204500Y50581000D02*
X36617000D01*
X37247000Y64679000D02*
X36887000Y64319000D01*
Y63031000D01*
X38597000Y63829000D02*
X38547000Y63779000D01*
X38497000D01*
X38447000Y63729000D01*
Y63041000D01*
X37147000Y71979000D02*
X37554500D01*
X37804500Y71729000D01*
Y70918500D01*
X36047000Y72029000D02*
Y71549000D01*
X36217000Y71379000D01*
Y70918500D01*
X38847000Y18479000D02*
X39297000D01*
X39635000Y18817000D01*
Y19029000D01*
X44281500Y20063500D02*
X44276500Y20068500D01*
X39836500D01*
X39635000Y19867000D01*
Y19029000D01*
X40059000Y25379000D02*
Y23929000D01*
X40009000Y21879000D02*
Y23879000D01*
X40059000Y23929000D01*
X42485000Y25379000D02*
X40059000D01*
X40059000Y26929000D02*
Y25379000D01*
X38750000Y25729000D02*
X38850000D01*
X39050000Y25529000D01*
Y25032000D01*
X39047000Y25029000D01*
X38750000Y25729000D02*
X38706000D01*
X38535000Y25900000D01*
Y26929000D01*
X40059000Y30429000D02*
Y28879000D01*
X40847000Y29429000D02*
Y29029000D01*
X40697000Y28879000D01*
X40059000D01*
X41647000Y27129000D02*
X41447000Y26929000D01*
X40059000D01*
Y27867000D01*
X39997000Y27929000D01*
X40059000Y28879000D02*
Y27991000D01*
X39997000Y27929000D01*
X39047000Y30429000D02*
X39029000D01*
X38535000Y29935000D01*
Y28879000D01*
Y26929000D01*
X42535000Y30379000D02*
X40109000D01*
X40059000Y30429000D01*
X40059000Y31979000D02*
Y30429000D01*
X40947000Y31379000D02*
Y31779000D01*
X40747000Y31979000D01*
X40059000D01*
Y33979000D01*
X39297000Y36279000D02*
X39074500Y36501500D01*
Y37077000D01*
X40347000Y36279000D02*
X40662000Y36594000D01*
Y37077000D01*
X39297000Y36279000D02*
X40347000D01*
X41947000Y38979000D02*
X41569000Y38601000D01*
X40662000D01*
X39074500D01*
X41379500Y49057000D02*
Y48111500D01*
X41047000Y47779000D01*
X39947000Y48079000D02*
X39792000Y48234000D01*
Y49057000D01*
X39147000Y51379000D02*
Y50581000D01*
X41379500Y50581000D02*
X39792000D01*
X40597000Y51329000D02*
X39959000Y51967000D01*
Y52129000D01*
X40042000Y63031000D02*
Y63584000D01*
X39797000Y63829000D01*
X39392000Y69394500D02*
X39512500D01*
X40197000Y70079000D01*
Y70429000D01*
X40686500Y70918500D01*
X40979500D01*
X41186500D01*
X41997000Y71729000D01*
X41247000Y79079000D02*
Y79629000D01*
X41097000Y79779000D01*
X40059000D01*
X50197000Y4879000D02*
X47797000D01*
X43148500Y9527500D01*
Y9577500D01*
X42567000Y15927500D02*
Y9577500D01*
X50885500Y14594000D02*
X48262000D01*
X43245500Y9577500D01*
X43148500D01*
X42447000Y17929000D02*
Y16047500D01*
X42567000Y15927500D01*
X42447000Y17929000D02*
X41497000D01*
X41159000Y18267000D01*
Y19029000D01*
X42757500Y19039000D02*
X42847000Y18949500D01*
Y18129000D01*
X42647000Y17929000D01*
X42447000D01*
X42535000Y23979000D02*
X42485000Y24029000D01*
Y25379000D01*
X42535000Y23979000D02*
Y21879000D01*
X42485000Y26879000D02*
Y25379000D01*
X41647000Y26329000D02*
Y26379000D01*
X41947000Y26679000D01*
X42285000D01*
X42485000Y26879000D01*
X43597000Y25629000D02*
X44009000Y26041000D01*
Y26879000D01*
X41405500Y27837500D02*
X41414000Y27829000D01*
X42485000D01*
Y28929000D01*
X42485000Y26879000D02*
Y27829000D01*
X42485000Y28929000D02*
X42535000Y28979000D01*
Y30379000D01*
X42485000Y28929000D02*
X41997000D01*
X41647000Y29279000D01*
X42535000Y30379000D02*
Y31979000D01*
X41747000Y31329000D02*
Y31829000D01*
X41897000Y31979000D01*
X42535000D01*
Y33929000D01*
X43497000Y30279000D02*
X44009000Y29767000D01*
Y28929000D01*
X43837000Y38601000D02*
X42325000D01*
X41947000Y38979000D01*
X42967000Y49057000D02*
Y48589000D01*
X43277000Y48279000D01*
X44897000D01*
X42967000Y50581000D02*
X41379500D01*
Y52101000D01*
X41420000Y52141500D01*
X42944000Y52141500D02*
X44258500D01*
X44897000Y51503000D01*
Y50829000D01*
X41420000Y52141500D02*
Y53729000D01*
X43797000Y54679000D02*
Y54039000D01*
X43487000Y53729000D01*
X42944000D01*
X44897000Y55929000D02*
X44268000Y55300000D01*
X42960500D01*
X42944000Y55316500D01*
X41420000Y53729000D02*
Y55316500D01*
X42944000Y56904000D02*
X44351000D01*
X44947000Y57500000D01*
Y58429000D01*
X42944000Y58491500D02*
X43691500D01*
X44947000Y59747000D01*
Y60929000D01*
X44947000Y62229000D02*
X44247000Y61529000D01*
Y60529000D01*
X43797000Y60079000D01*
X42944000D01*
X41629500Y63031000D02*
Y63582500D01*
X41826000Y63779000D01*
X42297000D01*
X44947000Y63529000D02*
X44929000D01*
X44431000Y63031000D01*
X43217000D01*
X43217000Y61507000D02*
X41629500D01*
X41932000Y77895500D02*
X41947000Y77910500D01*
Y78769000D01*
X41637000Y79079000D01*
X41247000D01*
X44267000Y15927500D02*
Y19024500D01*
X44281500Y19039000D01*
X44281500Y20063500D02*
Y19039000D01*
X45797000Y19979000D02*
X45585000Y19767000D01*
Y19029000D01*
X44009000Y26879000D02*
Y28929000D01*
X45447000Y37629000D02*
Y38279000D01*
X45125000Y38601000D01*
X43837000D01*
X45424500Y39875500D02*
Y40819500D01*
X47109000Y19029000D02*
X47119000Y19039000D01*
X48472500D01*
X49197000Y19779000D02*
Y19186000D01*
X49050000Y19039000D01*
X48472500D01*
X47012000Y37127000D02*
X48699500D01*
X48749500Y37177000D01*
X50337000D01*
X47012000Y42343500D02*
X48749500D01*
X50337000D01*
X50822000Y6847000D02*
Y5504000D01*
X50197000Y4879000D01*
X50822000Y11863500D02*
Y11104000D01*
X51597000Y17129000D02*
X50885500Y16417500D01*
Y14594000D01*
X50377500Y20944000D02*
X49482000D01*
X50377500Y20944000D02*
Y21709500D01*
X50647000Y21979000D01*
X52697000D01*
X53147000Y21529000D01*
Y19953000D01*
X53550000Y19550000D01*
X54635000D01*
X54632000Y19547000D01*
X49996500Y19039000D02*
X50887000D01*
X50377500Y29316500D02*
X51147000D01*
X51901500Y32491500D02*
Y34000000D01*
X51451500Y34450000D01*
X50377500D01*
X50377500Y35666500D02*
Y34450000D01*
X50377500Y33450000D02*
Y32491500D01*
X51147000Y37177000D02*
Y36479000D01*
X51147000Y37177000D02*
X50337000D01*
X51947000Y37117000D02*
X51887000Y37177000D01*
X51147000D01*
X50337000Y42343500D02*
X51944500D01*
X51947000Y42341000D01*
X51424500Y43677000D02*
X52249000D01*
X52647000Y43279000D01*
X49837000Y43677000D02*
Y44451000D01*
X50885500Y74284000D02*
X49552000D01*
X51901500Y77141500D02*
Y76401500D01*
X51650000Y76150000D01*
X51097000D01*
X50885500Y75938500D01*
Y74284000D01*
X49400000Y76350000D02*
Y76950000D01*
X49591500Y77141500D01*
X50377500D01*
X51901500Y77141500D02*
Y77898500D01*
X51600000Y78200000D01*
X50626000D01*
X50377500Y78448500D01*
Y79659000D01*
X53933500Y14594000D02*
Y16765500D01*
X52746900Y19229100D02*
X53397000Y18579000D01*
X55997000D01*
X56219500Y18801500D01*
Y19547000D01*
X51901500Y20944000D02*
Y20074500D01*
X52746900Y19229100D01*
X51901500Y26024000D02*
Y27157400D01*
X51911900D01*
X51901500Y30904000D02*
Y29316500D01*
X51901500Y30904000D02*
X52847000D01*
X51901500Y32491500D02*
Y30904000D01*
X53679500Y32564500D02*
X55267000D01*
X55267000Y36946000D02*
X53679500D01*
X51947000Y37117000D02*
Y35712000D01*
X51901500Y35666500D01*
X52647000Y43279000D02*
Y42747000D01*
X52241000Y42341000D01*
X51947000D01*
X54181500Y52139000D02*
X54481500Y52439000D01*
Y53439000D01*
X54481500Y55939000D02*
X54581500Y55839000D01*
X55069500D01*
X53681500Y54389000D02*
X54481500D01*
X53481500Y66239000D02*
Y71594500D01*
X55247000Y74284000D02*
X53933500D01*
X56854500Y32564500D02*
X57982500D01*
X58797000Y33379000D01*
X55267000Y32564500D02*
X56854500D01*
X55267000Y36946000D02*
X56854500D01*
X57782500D01*
X54481500Y53439000D02*
X55269500D01*
X54481500Y53439000D02*
Y54389000D01*
Y55939000D01*
X54481500Y57739000D02*
Y55939000D01*
X54481500Y57739000D02*
Y59377000D01*
X56219500Y73331500D02*
X57497000D01*
X59712000Y21071000D02*
Y22644000D01*
X59947000Y22879000D01*
X60029500Y27167000D02*
X59991500Y27129000D01*
X59047000D01*
X60029500Y30659500D02*
X59166500D01*
X58722000Y31104000D01*
X60029500Y32183500D02*
Y33000000D01*
X59650500Y33379000D01*
X58797000D01*
X57782500Y36946000D02*
X58073300Y36655300D01*
X57782500Y36946000D02*
X58030000D01*
X58197000Y36779000D01*
X58759500Y74284000D02*
X63166000D01*
X64237000Y73213000D01*
X64497000D01*
X57722000Y74804000D02*
X58047000Y74479000D01*
X58564500D01*
X58759500Y74284000D01*
X57722000Y74804000D02*
Y75179000D01*
X57547000Y75179000D02*
Y74979000D01*
X57722000Y74804000D01*
X57497000Y73331500D02*
Y74029000D01*
X57497000Y73331500D02*
X58759500D01*
X59309000Y77129000D02*
Y77941000D01*
X60663000Y79295000D01*
X61697000D01*
X58759500Y75236500D02*
X58768000Y75245000D01*
X61697000D01*
X60347000Y80879000D02*
X60102000Y80634000D01*
X58696000D01*
Y82378000D01*
X59496000D01*
X59809000Y82691000D01*
X61647000D01*
X60997000Y28679000D02*
X60041500D01*
X60029500Y28691000D01*
X62252000Y36946000D02*
Y37584000D01*
X62647000Y37979000D01*
X65427000Y35422000D02*
X65447000Y35442000D01*
Y35979000D01*
X65297000Y36129000D01*
X62547000D01*
X62252000Y36424000D01*
Y36946000D01*
X62061500Y42407000D02*
X62801500D01*
X63419500Y41789000D01*
X63469500D01*
X62061500Y43931000D02*
X62909500D01*
X63219500Y43621000D01*
Y43339000D01*
X62069500Y45277000D02*
X63123000D01*
X63511000Y44889000D01*
X64369500D01*
X62069500Y48077000D02*
X62931500D01*
X63219500Y47789000D01*
X62069500Y46801000D02*
X62881500D01*
X63169500Y47089000D01*
X61119500Y49939000D02*
X61457500Y49601000D01*
X62069500D01*
X62319500Y58977000D02*
X62523000D01*
X63111000Y58389000D01*
X63219500D01*
X62319500Y60501000D02*
X63031500D01*
X63269500Y60739000D01*
X62319500Y63401000D02*
X62501000D01*
X63119500Y64019500D01*
Y64039000D01*
X63269500Y61589000D02*
X62869500D01*
X62581500Y61877000D01*
X62319500D01*
X62319500Y64777000D02*
X63081500D01*
X63369500Y64489000D01*
X61019500Y65789000D02*
Y66089000D01*
X61231500Y66301000D01*
X62319500D01*
X60213000Y73200000D02*
Y73350000D01*
X60350000Y73213000D01*
X61697000D01*
X61697000Y75245000D02*
X64497000D01*
X62597000Y81167000D02*
Y80379000D01*
X62997000Y79979000D01*
Y78329000D01*
X61931000Y77263000D01*
X61697000D01*
Y75245000D01*
X61647000Y81167000D02*
X62597000D01*
X60447000Y81879000D02*
X60497000Y81929000D01*
X62497000D01*
X63259000Y82691000D01*
X63447000D01*
X68157500Y17769000D02*
X63507000D01*
X63447000Y17829000D01*
Y18479000D01*
X64093500Y19125500D01*
Y19356500D01*
X64747000Y37979000D02*
X64047000D01*
X63839500Y37771500D01*
Y36946000D01*
X64747000Y37979000D02*
X65197000D01*
X65427000Y37749000D01*
Y36946000D01*
X64419500Y42639000D02*
X64439000D01*
X65731000Y43931000D01*
X67014500D01*
X67014500Y45264500D02*
X65764500D01*
X65389000Y44889000D01*
X64369500D01*
X64497000Y73213000D02*
X65913000D01*
X63447000Y81167000D02*
X62597000D01*
X65197000Y81167000D02*
X63447000D01*
X63447000Y82691000D02*
X65197000D01*
X66169500Y41589000D02*
X66119500D01*
X66937500Y42407000D01*
X67014500D01*
X67014500Y46788500D02*
X66369000D01*
X66019500Y46439000D01*
X66252500Y53011500D02*
X65647000D01*
X65369500Y53289000D01*
X65519500Y58189000D02*
Y58219500D01*
X66177000Y58877000D01*
X67069500D01*
X66881500Y61827000D02*
X66757500D01*
X65619500Y60689000D01*
X69319500Y59389000D02*
X68307500Y60401000D01*
X67069500D01*
X67019500Y61827000D02*
X66881500D01*
X65169500Y62389000D02*
X66319500D01*
X66881500Y61827000D01*
X67019500Y63351000D02*
X67781500D01*
X68019500Y63589000D01*
X67869500Y70889000D02*
X68019500Y70739000D01*
Y69389000D01*
X67207500Y68577000D01*
X67019500D01*
X67019500Y70101000D02*
X66807500D01*
X66319500Y70589000D01*
Y70889000D01*
X68157500Y15864000D02*
Y17769000D01*
X69681500Y15864000D02*
X71140000D01*
X68157500Y17769000D02*
Y18007500D01*
X69681500Y19531500D01*
Y19674000D01*
X71140000Y17769000D02*
X69681500D01*
X69681500Y19674000D02*
Y19994500D01*
X69097000Y20579000D01*
X68157500Y20466000D02*
X67923300Y20700300D01*
X68157500Y20466000D02*
X68170700Y20700300D01*
X68157500Y20466000D02*
Y20713500D01*
X68047000Y20824000D01*
X68157500Y19674000D02*
Y20466000D01*
X69597000Y36079000D02*
X68671000D01*
X67903500Y36846500D01*
Y38089000D01*
X68569500Y53389000D02*
Y53339000D01*
X68242000Y53011500D01*
X67776500D01*
X71869500Y60551000D02*
X70031500D01*
X69819500Y60339000D01*
X71869500Y61927000D02*
X70381500D01*
X69869500Y62439000D01*
X69969500Y64389000D02*
Y64289000D01*
X70807500Y63451000D01*
X71869500D01*
X75269500Y72100000D02*
X70876000D01*
X69935500Y73040500D01*
Y73966500D01*
X71297000Y75629000D02*
X70797000Y75129000D01*
X70197000D01*
X69935500Y74867500D01*
Y73966500D01*
X69872000Y77014500D02*
Y76279000D01*
X70122000Y76029000D01*
X70897000D01*
X71297000Y75629000D01*
X69872000Y78538500D02*
Y79554000D01*
X71140000Y15864000D02*
X71832000D01*
X72658000Y16690000D01*
Y17400000D01*
X71140000Y15864000D02*
Y17769000D01*
X71140000Y21473200D02*
Y17769000D01*
X71460700Y21400000D02*
X71263700Y21349500D01*
X71460700Y21400000D02*
X71263700Y21596900D01*
X71460700Y21400000D02*
X71213200D01*
X71140000Y21473200D01*
X72658000Y21400000D02*
X71460700D01*
X72658000Y36600000D02*
X74118000D01*
X74147000Y36629000D01*
X71459500Y42407000D02*
X72787500D01*
X73419500Y43039000D01*
X72419500Y45539000D02*
X72369500D01*
X72095000Y45264500D01*
X71459500D01*
X72419500Y44289000D02*
X72061500Y43931000D01*
X71459500D01*
X72669500Y47289000D02*
X72859500D01*
X73169500Y47599000D01*
Y56701000D01*
X72369500Y46289000D02*
X72111000D01*
X71600000Y46800000D01*
X71471000D01*
X71459500Y46788500D01*
X70649000Y55177000D02*
X71819500D01*
X73169500Y56701000D02*
X71819500D01*
X71869500Y59027000D02*
X72019500Y58877000D01*
Y58089000D01*
X72983500Y73966500D02*
X71584500D01*
X77809500Y74284000D02*
X74402000D01*
X74084500Y73966500D01*
X72983500D01*
X71297000Y75629000D02*
X71967500Y76299500D01*
Y77754000D01*
X75587000Y9768000D02*
X74358000D01*
X76539500Y45264500D02*
X75864500D01*
X75619500Y45019500D01*
Y44639000D01*
Y44230500D01*
X75919000Y43931000D01*
X76539500D01*
X76539500Y46788500D02*
X75731000D01*
X75569500Y46950000D01*
Y47489000D01*
X74569500Y55177000D02*
X75747000D01*
X74569500Y56701000D02*
X73169500D01*
Y64079500D01*
X77269500Y56701000D02*
X74569500D01*
X77809500Y73331500D02*
Y72641500D01*
X77268000Y72100000D01*
X75269500D01*
X75269500Y73331500D02*
Y72100000D01*
X77197000Y5079000D02*
X76447000D01*
X76031500Y5494500D01*
Y5704000D01*
X75869500Y41639000D02*
X76378500D01*
X76539500Y41800000D01*
Y42407000D01*
X77669500Y47989000D02*
X77536500Y48122000D01*
X76539500D01*
X76539500Y49646000D02*
Y51019000D01*
X78497000Y55177000D02*
X77269500D01*
X77269500Y56701000D02*
X79869500D01*
X76222000Y58917000D02*
X77000000D01*
X77169500Y58747500D01*
Y58289000D01*
X76219500Y61827000D02*
X77531500D01*
X78469500Y60889000D01*
X79067500Y60441000D02*
X78926500Y60300000D01*
X78150000D01*
X78009000Y60441000D01*
X76222000D01*
X76219500Y64677000D02*
X76992500D01*
X77169500Y64500000D01*
Y63439000D01*
X76931800Y62539000D02*
Y62776700D01*
X76357500Y63351000D01*
X76219500D01*
X76219500Y66201000D02*
Y67039000D01*
X79079500Y8688500D02*
Y9661500D01*
X81937000Y12371500D02*
X80889500D01*
X80984500Y45264500D02*
X81695000D01*
X82269500Y45839000D01*
X80969500Y43851000D02*
X81699000D01*
X81919500Y43630500D01*
Y43139000D01*
X79928300Y47439000D02*
Y47900000D01*
X80150300Y48122000D01*
X80984500D01*
X82869500Y46389000D02*
X82849500D01*
X82450000Y46788500D01*
X80984500D01*
X80984500Y49646000D02*
Y50404000D01*
X81819500Y51239000D01*
X79869500Y55177000D02*
X81047000D01*
X79869500Y56701000D02*
X82219500D01*
X80219500Y58489000D02*
X80639000D01*
X80950000Y58800000D01*
Y59251500D01*
X80934500Y59267000D01*
X80934500Y60791000D02*
X79921500D01*
X80934500Y62124500D02*
X80725500D01*
X80219900Y62630100D01*
X79910600D01*
X80934500Y62124500D02*
X81174500D01*
X81639000Y62589000D01*
X82019500D01*
X80934500Y63648500D02*
X81960000D01*
X80984500Y68759500D02*
X81559500D01*
X81869500Y69069500D01*
Y69539000D01*
X80984500Y70283500D02*
X80679000Y70589000D01*
X80069500D01*
X80019500Y70639000D01*
X80667000Y73268000D02*
Y72580000D01*
X81118000Y72129000D01*
X81747000D01*
X82889500Y77268500D02*
X82829000Y77329000D01*
X81597000D01*
X81147000Y76879000D01*
X79968500Y78729000D02*
Y76789000D01*
X80278500Y76479000D01*
X80297000D01*
X82897000Y16929000D02*
X83368000Y17400000D01*
X84342000D01*
X84342000Y21400000D02*
X82897000D01*
X84342000Y31000000D02*
X83118000D01*
X82597000Y30479000D01*
X84719500Y47989000D02*
X83569500Y49139000D01*
Y56681000D01*
X82219500Y54179000D02*
Y55177000D01*
X83569500Y56681000D02*
X83556200Y56694300D01*
X82226200D01*
X82219500Y56701000D01*
X83819500Y63639000D02*
X83569500Y63389000D01*
Y56681000D01*
X84919500Y56701000D02*
X84899500Y56681000D01*
X83569500D01*
X82889500Y72887000D02*
Y72439000D01*
X82579500Y72129000D01*
X81747000D01*
X85112000Y80062500D02*
X84680500D01*
X83597000Y78979000D01*
X82631500D01*
X82572000Y78919500D01*
X85897000Y36579000D02*
X84363000D01*
X84342000Y36600000D01*
X85447000Y42299500D02*
Y41847000D01*
X85239000Y41639000D01*
X84619500D01*
X84519500Y45739000D02*
Y45380500D01*
X84743000Y45157000D01*
X85447000D01*
X85447000Y43823500D02*
X84573500D01*
X84319500Y43569500D01*
Y43239000D01*
X84069500Y46089000D02*
Y46369500D01*
X84381000Y46681000D01*
X85447000D01*
X84919500Y55177000D02*
X86049000D01*
X85419500Y59277000D02*
Y58389000D01*
X85419500Y60801000D02*
X85251000D01*
X84669500Y60219500D01*
Y60091200D01*
X84369500Y62589000D02*
X84711000D01*
X85208000Y62092000D01*
X85429500D01*
X85429500Y63616000D02*
Y64499000D01*
X87547000Y72579000D02*
X86047000D01*
X85358000Y73268000D01*
X85112000D01*
X88409000Y10729000D02*
Y13954000D01*
X88414000Y13959000D01*
X89277000D01*
X88414000Y13959000D02*
Y15546500D01*
Y17134000D01*
Y18721500D01*
Y20309000D01*
Y21896500D01*
X89329500D01*
X88414000Y21896500D02*
Y23484000D01*
Y25071500D01*
X88414000Y26659000D02*
X89417000D01*
X88414000Y25071500D02*
Y26659000D01*
Y28246500D01*
Y29834000D01*
X88414000Y31421500D02*
X89489500D01*
X88414000Y29834000D02*
Y31421500D01*
X88021000Y44027000D02*
Y42579000D01*
X88757500Y47789000D02*
Y46211500D01*
X88783000Y46186000D01*
X87797000Y48879000D02*
X88307000Y49389000D01*
X88757500D01*
X87971000Y51427000D02*
Y52850000D01*
X88019000Y61305000D02*
X86847000D01*
X87697000Y62879000D02*
Y63329000D01*
X87995000Y63627000D01*
X88783000D01*
X88783000Y66929000D02*
Y65278000D01*
X87767000D01*
X88021000Y69088000D02*
Y67879000D01*
X88783000Y67117000D01*
Y66929000D01*
X88021000Y69088000D02*
X86860000D01*
X87652000Y72931500D02*
X87670700Y72702700D01*
X87652000Y72931500D02*
X87423300Y72702700D01*
X87652000Y72931500D02*
Y72684000D01*
X87547000Y72579000D01*
X87652000Y73839500D02*
Y72931500D01*
X89303000Y38089000D02*
Y36635000D01*
X49372500Y49280000D02*
X48669500D01*
X49372500Y48730000D02*
X48320000D01*
X49372500Y50330000D02*
X48018000D01*
X49372500Y49780000D02*
X48369500D01*
X49372500Y51820000D02*
X48400500D01*
X47869500Y51289000D01*
X49372500Y51270000D02*
X48552000D01*
X49372500Y52870000D02*
X48150500D01*
X47869500Y52589000D01*
X49372500Y52320000D02*
X48517000D01*
X49359000Y55460000D02*
X48019000D01*
X49359000Y54910000D02*
X48518000D01*
X49359000Y54410000D02*
X48002000D01*
X49359000Y53860000D02*
X48475000D01*
X49359000Y58000000D02*
X48044000D01*
X49359000Y56950000D02*
X48060000D01*
X49359000Y57450000D02*
X48518000D01*
X49359000Y56400000D02*
X48501000D01*
X49372500Y61112500D02*
X48219500D01*
X48569500Y59739000D02*
X49354000D01*
X49403000Y59690000D01*
X49372500Y61662500D02*
X48619500D01*
X49372500Y62162500D02*
X48169500D01*
X49372500Y62712500D02*
X48619500D01*
X49359000Y66256000D02*
X48202500D01*
X49359000Y67856000D02*
X48636500D01*
X49394500Y68989000D02*
X48169500D01*
X49359000Y66806000D02*
X48636500D01*
X48371400Y67306000D02*
X48261900Y67196600D01*
X48371400Y67306000D02*
X48286500D01*
X48219500Y67239000D01*
X49359000Y67306000D02*
X48371400D01*
X49394500Y70589000D02*
X48619500D01*
X49394500Y70039000D02*
X48169500D01*
X49394500Y69539000D02*
X48569500D01*
X50322500Y49280000D02*
X51104000D01*
X50322500Y48730000D02*
X51257000D01*
X50322500Y50330000D02*
X51042000D01*
X50322500Y49780000D02*
X51304000D01*
X50322500Y51820000D02*
X51058000D01*
X50322500Y51270000D02*
X51295000D01*
X50322500Y52870000D02*
X51042000D01*
X50322500Y52320000D02*
X51304000D01*
X51041000Y55460000D02*
X50309000D01*
X51304000Y54910000D02*
X50309000D01*
X50309000Y54410000D02*
X51050000D01*
X52157500Y54389000D02*
X51071000D01*
X51050000Y54410000D01*
X50309000Y53860000D02*
X51296000D01*
X51054000Y58000000D02*
X50309000D01*
X50309000Y56950000D02*
X51069500D01*
X51303000Y57450000D02*
X50309000D01*
X50309000Y56400000D02*
X51270000D01*
X50322500Y61112500D02*
X51343000D01*
X50927000Y59690000D02*
X51719500D01*
X50322500Y61662500D02*
X51043000D01*
X52157500Y62189000D02*
X51419500D01*
X51393000Y62162500D01*
X50322500Y62162500D02*
X51393000D01*
X50322500Y62712500D02*
Y63342000D01*
X50369500Y63389000D01*
X51169500Y66256000D02*
X51940500D01*
X51957500Y66239000D01*
X50309000Y66256000D02*
X51169500D01*
X50309000Y66806000D02*
X51069500D01*
X50309000Y67306000D02*
X51369500D01*
X50309000Y67856000D02*
X51069500D01*
X51069500Y68989000D02*
X50344500D01*
X50344500Y70589000D02*
X51319500D01*
X50344500Y70039000D02*
X51069500D01*
X50344500Y69539000D02*
X51369500D01*
X51419500Y69589000D01*
X51891000Y57717500D02*
X52936000D01*
X52957500Y57739000D01*
X8388600Y28600000D02*
X8692800Y28295800D01*
X8388600Y28600000D02*
X8565400D01*
X8781200Y28384200D01*
X11200000Y27800000D02*
X9365400D01*
X8781200Y28384200D01*
X6800000Y28600000D02*
X8388600D01*
X8947000Y32600000D02*
X6800000D01*
X8947000Y32600000D02*
X11200000D01*
X31897000Y40819500D02*
Y39043500D01*
X31899000Y39041500D01*
X32724500Y40819500D02*
X31897000D01*
X34312000Y40819500D02*
X32724500D01*
X34312000Y40819500D02*
X35899500D01*
X44059000Y21879000D02*
Y20991000D01*
X43747000Y20679000D01*
X38897000D01*
X38485000Y21091000D01*
Y21879000D01*
X38535000Y23929000D02*
X38485000Y23979000D01*
X37297000D01*
X38485000Y21879000D02*
Y23879000D01*
X38535000Y23929000D01*
X38535000Y31979000D02*
X37847000D01*
X37297000Y31429000D01*
Y23979000D01*
X44059000Y33929000D02*
Y34817000D01*
X43847000Y35029000D01*
X38747000D01*
X38535000Y34817000D01*
Y33979000D01*
X37487000Y40819500D02*
X35899500D01*
X39074500Y40819500D02*
X37487000D01*
X38535000Y31979000D02*
Y30967000D01*
X38535000Y33979000D02*
Y31979000D01*
X39074500Y40819500D02*
X40662000D01*
X42249500D01*
X43837000D01*
X45967000Y15927500D02*
Y17729000D01*
X46350000Y18112000D01*
Y21076000D01*
X45547000Y21879000D01*
X44059000D01*
Y23979000D01*
X45274300Y22906300D02*
Y23401700D01*
X44697000Y23979000D01*
X44059000D01*
X44059000Y33929000D02*
Y31979000D01*
X45800000Y31429000D02*
Y31450000D01*
X45321000Y31929000D01*
X44109000D01*
X44059000Y31979000D01*
X43837000Y40819500D02*
X45424500D01*
X54769500Y60739000D02*
Y61639000D01*
X54219500Y62189000D01*
X53681500D01*
X54769500Y60739000D02*
X55219500Y60289000D01*
X88021000Y44027000D02*
Y46007000D01*
X88200000Y46186000D01*
X88783000D01*
X33647000Y77395500D02*
X30819500D01*
X31447000Y75779000D02*
Y76768000D01*
X30819500Y77395500D01*
X38030500Y77895500D02*
X35847000D01*
X35347000Y77395500D01*
X33647000D01*
X33550000Y77298500D01*
Y75236500D01*
X37547000Y79729000D02*
Y78379000D01*
X38030500Y77895500D01*
X38535000Y81891000D02*
X37547000Y80903000D01*
Y79729000D01*
X38030500Y77895500D02*
X38122000D01*
X7642000Y63384000D02*
X5797000Y65229000D01*
Y75036000D01*
X6640000Y75879000D01*
X8147000D01*
X12722000Y62929000D02*
X11822000Y63829000D01*
X8042000D01*
X7642000Y63429000D01*
Y63384000D01*
X7642000Y61838000D02*
Y63384000D01*
X12404500Y76633500D02*
X9983500D01*
X8500000Y75150000D01*
Y71979000D01*
X9452500Y70730000D02*
Y71473500D01*
X8947000Y71979000D01*
X8500000D01*
X11200000Y29400000D02*
X9776000D01*
X9397000Y29779000D01*
Y30179000D01*
X15964500Y61584000D02*
Y62411500D01*
X15447000Y62929000D01*
X12722000D01*
X12722000Y62028500D02*
Y62929000D01*
X13992000Y66219500D02*
X12798100D01*
X17167000Y66219500D02*
X17057000D01*
X16747000Y65909500D01*
Y65479000D01*
X16197000Y64929000D01*
X14497000D01*
X13992000Y65434000D01*
Y66219500D01*
X13147000Y78229000D02*
Y77229000D01*
X12551500Y76633500D01*
X12404500D01*
X17362000Y25700000D02*
X17376500Y25714500D01*
Y26550000D01*
X17436000Y26609500D01*
Y27463000D01*
X29597000Y33504000D02*
X28925000D01*
X28921000Y33500000D01*
X28650000D01*
X28418000Y33268000D01*
X24747000D01*
X29597000Y33504000D02*
X30385000Y34292000D01*
Y35179000D01*
X33677000Y15356000D02*
X32089500D01*
X32497000Y17729000D02*
X32089500Y17321500D01*
Y15356000D01*
X31899000Y29516500D02*
X31936500Y29479000D01*
X32847000D01*
X33097000Y29729000D01*
Y30479000D01*
X33097000Y35179000D02*
X31909000D01*
X31897000Y50591000D02*
Y51302000D01*
X30646500Y52091500D02*
X31357500D01*
X30646500Y53679000D02*
X31357500D01*
X30646500Y55266500D02*
X31357500D01*
X30646500Y58441500D02*
X31357500D01*
X30646500Y56854000D02*
X31357500D01*
X30646500Y60029000D02*
X31357500D01*
X32124500Y60796000D02*
Y61507000D01*
X33197000Y73579000D02*
Y73669000D01*
X32887000Y73979000D01*
X31188000D01*
X30819500Y74347500D01*
X35264500Y15356000D02*
X33677000D01*
X33097000Y30479000D02*
Y35179000D01*
X37487000Y36179000D02*
X33679000D01*
X33097000Y35597000D01*
Y35179000D01*
X33447000Y50591000D02*
Y51302000D01*
X35029500Y50581000D02*
Y51292000D01*
X35299500Y60796000D02*
Y61507000D01*
X33712000Y60796000D02*
Y61507000D01*
X33197000Y73579000D02*
X33247000D01*
X37297000Y23979000D02*
X37247000Y23929000D01*
X37487000Y36179000D02*
Y37077000D01*
X43597000Y36279000D02*
Y36247000D01*
X43000000Y35650000D01*
X38326000D01*
X37797000Y36179000D01*
X37487000D01*
X36617000Y50581000D02*
Y51292000D01*
X37724000Y52129000D02*
X38435000D01*
X36887000Y60796000D02*
Y61507000D01*
X39497000Y73579000D02*
Y74379000D01*
X39028500Y74847500D01*
X38122000D01*
X38535000Y79779000D02*
X37597000D01*
X37547000Y79729000D01*
X39147000Y50581000D02*
X39792000D01*
X38435000Y52129000D02*
X39146000D01*
X38435000Y52129000D02*
Y53040000D01*
X40709000Y53729000D02*
X41420000D01*
X40709000Y55316500D02*
X41420000D01*
X40709000Y58491500D02*
X41420000D01*
X40709000Y56904000D02*
X41420000D01*
X38447000Y60806000D02*
Y61517000D01*
X40042000Y60796000D02*
Y61507000D01*
X40709000Y60079000D02*
X41420000D01*
X41629500Y61507000D02*
X40042000D01*
X42597000Y73379000D02*
Y72729000D01*
X42247000Y72379000D01*
X40471500D01*
X39497000Y73579000D02*
Y73129000D01*
X38947500Y72579500D01*
Y72379000D01*
X43148500Y9577500D02*
X42567000D01*
X43837000Y37077000D02*
Y36519000D01*
X43597000Y36279000D01*
X41629500Y61507000D02*
X41420000Y61297500D01*
Y60079000D01*
X42597000Y73379000D02*
Y74550000D01*
X42299500Y74847500D01*
X41932000D01*
X45967000Y15927500D02*
X48105500D01*
X49947000Y17769000D01*
X54632000D01*
X49597000Y30579000D02*
X49922000Y30904000D01*
X50377500D01*
X71777000Y6847000D02*
X73025000D01*
X77809500Y75236500D02*
X80603500D01*
X80667000Y75300000D01*
X82889500Y75744500D02*
X81394500D01*
X80950000Y75300000D01*
X80667000D01*
X82889500Y74411000D02*
Y75744500D01*
X84281500D01*
X84726000Y75300000D01*
X85112000D01*
X87652000Y75363500D02*
X85175500D01*
X85112000Y75300000D01*
Y78030500D01*
X91410000Y47752000D02*
Y48898500D01*
X90919500Y49389000D01*
X90281500D01*
X90307000Y46186000D02*
X91076900D01*
X91410000Y46519100D01*
Y47752000D01*
X90003000Y52951000D02*
Y51427000D01*
X90051000Y61305000D02*
Y59750000D01*
X91310000Y65278000D02*
Y63995000D01*
X90942000Y63627000D01*
X90307000D01*
X91310000Y65278000D02*
X90307000D01*
X90307000Y66929000D02*
X90942000D01*
X91310000Y66561000D01*
Y65278000D01*
X90053000Y69088000D02*
Y70612000D01*
D11*
X90330000Y41639200D02*
X91600000D01*
Y40995800D01*
X91600000Y40022500D02*
X90330000D01*
X90584000Y40215500D01*
X91600000Y40215500D02*
Y39829500D01*
X90330000Y38727500D02*
X90372300Y38856200D01*
X90478200Y38952700D01*
X90605100Y39017000D01*
X90774500Y39065300D01*
X90965000Y39081300D01*
X91155500Y39065300D01*
X91324900Y39017000D01*
X91451900Y38952700D01*
X91557700Y38856200D01*
X91600000Y38727500D01*
X91557700Y38598800D01*
X91451900Y38502300D01*
X91324900Y38438000D01*
X91155500Y38389700D01*
X90965000Y38373700D01*
X90774500Y38389700D01*
X90605100Y38438000D01*
X90478200Y38502300D01*
X90372300Y38598800D01*
X90330000Y38727500D01*
D12*
X5247000Y19579000D03*
X5152800Y23638100D03*
X4647000Y25129000D03*
X5997000Y44479000D03*
X6289600Y50855700D03*
X5737000Y55919000D03*
X7897000Y16479000D03*
X8547000Y22729000D03*
X8268000Y22200000D03*
X8276000Y26200000D03*
X8297000Y27779000D03*
X8318000Y27000000D03*
X7072000Y44454000D03*
X8897000Y44529000D03*
X8647000Y52979000D03*
X8632500Y55043500D03*
X7547000Y71779000D03*
X7547500Y74629500D03*
X10467500Y7799500D03*
X9547000Y10179000D03*
X9647000Y18879000D03*
Y17429000D03*
X9626000Y18200000D03*
X9697000Y23729000D03*
X9718000Y23000000D03*
X9668000Y24600000D03*
X9718000Y26200000D03*
X9726000Y25400000D03*
X9668000Y27000000D03*
X9397000Y30179000D03*
X10499500Y38031500D03*
X11647000Y41229000D03*
Y42079000D03*
X9397000Y46479000D03*
X11447000Y45629000D03*
X9847000Y50679000D03*
X10747000Y54829000D03*
X9797000Y65929000D03*
X11447000Y74229000D03*
X12397000Y8529000D03*
X13947000Y13451000D03*
X12968000Y21400000D03*
X13076000Y20600000D03*
X13018000Y19800000D03*
X11847000Y40329000D03*
X12347000Y47429000D03*
X12647000Y67079000D03*
X15797000Y8629000D03*
X16497000Y10129000D03*
X16197000Y18379000D03*
X15838000Y24800000D03*
X15558000Y29368000D03*
X16397000Y36829000D03*
X14597000Y38479000D03*
X15889500Y41236500D03*
X16697000Y43329000D03*
X16297000Y47329000D03*
X16097000Y53329000D03*
X16464500Y62879000D03*
X15579500Y65329000D03*
X18447000Y14179000D03*
X18450000Y26000000D03*
X17297000Y32829000D03*
X17839500Y38529000D03*
X18466500Y56059500D03*
X19297000Y62429000D03*
X18747000Y63179000D03*
X18697000Y65229000D03*
X17167000Y68529000D03*
X18754500Y68621500D03*
X19707000Y76839000D03*
X19307000Y80077500D03*
X21647000Y17388000D03*
X21697000Y21479000D03*
X21897000Y25418000D03*
X22247000Y29368000D03*
X20697000Y35029000D03*
X20509000Y40817000D03*
Y41391000D03*
X21597000Y43179000D03*
X20647000Y53879000D03*
X20297000Y55679000D03*
X20747000Y68479000D03*
X21294500Y76881500D03*
X19947000Y75779000D03*
X21294500Y80026500D03*
X23095000Y11927000D03*
X23075000Y13451000D03*
X24797000Y26379000D03*
X23647000Y29318000D03*
X23547000Y35479000D03*
X24859400Y40050300D03*
X23997000Y41529000D03*
X23199500Y43081500D03*
X24547000Y45729000D03*
X23547000D03*
X22497000Y51479000D03*
X22697000Y70129000D03*
X24397000D03*
X22882000Y76894000D03*
X22697000Y80079000D03*
X22747000Y81629000D03*
X26047000Y7329000D03*
X25422000Y8904000D03*
X26797000Y8929000D03*
X25422000Y12104000D03*
X27009500Y12116500D03*
X25997000Y12529000D03*
X25747000Y21515500D03*
X26247000Y32379000D03*
X25297000Y36779000D03*
X25281200Y45782700D03*
X27097000Y49129000D03*
X27197000Y55979000D03*
X27147000Y57229000D03*
Y59729000D03*
Y62279000D03*
X27150000Y63579000D03*
X27497000Y70129000D03*
X25897000D03*
X25947000Y75379000D03*
X26097000Y80817000D03*
X29847000Y7129000D03*
X28397000Y8879000D03*
X28597000Y12079000D03*
X30297000D03*
X29547000Y32079000D03*
X29947000Y30479000D03*
X29597000Y33504000D03*
X27947000Y35079000D03*
X28647000Y41529000D03*
X29537000Y43129000D03*
X29397000Y45779000D03*
X29847000Y48079000D03*
X28347000Y53379000D03*
X28334500Y52091500D03*
X29697000Y63729000D03*
Y64779000D03*
X29867000Y68629000D03*
X29047000Y70129000D03*
X30247000Y73229000D03*
X31797000Y7732000D03*
X31197000Y9629000D03*
X32897000Y13150800D03*
X32700000Y19929000D03*
X32789300Y25171200D03*
X31147000Y27779000D03*
X32747000Y27629000D03*
X33097000Y30479000D03*
X31897000Y34129000D03*
X31500000Y41450000D03*
X30750000D03*
X30997000Y47929000D03*
X32297000Y48229000D03*
X31597000Y64179000D03*
X33042000Y68634000D03*
X31453900Y68631700D03*
X34347000Y11729000D03*
X33397000Y19429000D03*
X34647000Y26429000D03*
X33647000Y24479000D03*
X33997000Y37829000D03*
X33550000Y41650000D03*
X33547000Y43079000D03*
X34747000Y48029000D03*
X34847000Y64879000D03*
X33547000Y64629000D03*
X34647000Y68579000D03*
X37497000Y14779000D03*
X38009000Y17941000D03*
X37247000Y23929000D03*
X37797000Y36179000D03*
X36097000Y43129000D03*
X37487000Y43119000D03*
X36147000Y48029000D03*
X37247000Y64679000D03*
X36347000Y68629000D03*
X38158300Y68613100D03*
X38847000Y18479000D03*
X39047000Y25029000D03*
X38750000Y25729000D03*
X39997000Y27929000D03*
X40847000Y29429000D03*
X39297000Y28829000D03*
X38535000Y30967000D03*
X40947000Y31379000D03*
X39047000Y30429000D03*
X39297000Y36279000D03*
X40347000D03*
X39947000Y43038900D03*
X40747000Y43129000D03*
X41047000Y47779000D03*
X38497000Y48079000D03*
X39947000D03*
X40597000Y51329000D03*
X39797000Y63829000D03*
X38597000D03*
X40395300Y68640800D03*
X38597000Y70179000D03*
X41647000Y26329000D03*
X43597000Y25629000D03*
X41647000Y27129000D03*
X41405500Y27837500D03*
X41647000Y29279000D03*
X41747000Y31329000D03*
X43497000Y30279000D03*
X43597000Y36279000D03*
X41947000Y38979000D03*
X42249500Y43126500D03*
X43697000Y45029000D03*
X43797000Y54679000D03*
X42297000Y63779000D03*
X44281500Y20063500D03*
X45797000Y19979000D03*
X45274300Y22906300D03*
X45800000Y31429000D03*
X43837000Y43119000D03*
X45424500Y43101500D03*
X44897000Y48279000D03*
Y50829000D03*
Y55929000D03*
X44947000Y58429000D03*
Y60929000D03*
Y63529000D03*
Y62229000D03*
X46497000Y41579000D03*
X48197000D03*
X48669500Y49280000D03*
X48320000Y48730000D03*
X48018000Y50330000D03*
X48369500Y49780000D03*
X47869500Y51289000D03*
X48552000Y51270000D03*
X47869500Y52589000D03*
X48517000Y52320000D03*
X48019000Y55460000D03*
X48518000Y54910000D03*
X48002000Y54410000D03*
X48475000Y53860000D03*
X48044000Y58000000D03*
X48060000Y56950000D03*
X48518000Y57450000D03*
X48501000Y56400000D03*
X48219500Y61112500D03*
X48569500Y59739000D03*
X48619500Y61662500D03*
X48169500Y62162500D03*
X48619500Y62712500D03*
X48202500Y66256000D03*
X48636500Y66806000D03*
X48569500Y69539000D03*
X48636500Y67856000D03*
X48169500Y68989000D03*
X48219500Y67239000D03*
X48619500Y70589000D03*
X48169500Y70039000D03*
X50822000Y9279000D03*
Y11104000D03*
X49197000Y19779000D03*
X49482000Y20944000D03*
X50887000Y19039000D03*
X51147000Y26024000D03*
Y29316500D03*
X49597000Y30579000D03*
X50377500Y33450000D03*
X51147000Y36479000D03*
X51347000Y39879000D03*
X49747000Y41579000D03*
X49837000Y44451000D03*
X51104000Y49280000D03*
X51257000Y48730000D03*
X51042000Y50330000D03*
X51304000Y49780000D03*
X51058000Y51820000D03*
X51295000Y51270000D03*
X51042000Y52870000D03*
X51304000Y52320000D03*
X51770100Y52138800D03*
X51041000Y55460000D03*
X51304000Y54910000D03*
X51050000Y54410000D03*
X51296000Y53860000D03*
X51054000Y58000000D03*
X51069500Y56950000D03*
X51303000Y57450000D03*
X51270000Y56400000D03*
X51343000Y61112500D03*
X51719500Y59690000D03*
X51043000Y61662500D03*
X51393000Y62162500D03*
X50369500Y63389000D03*
X51169500Y66256000D03*
X51069500Y66806000D03*
X51369500Y67306000D03*
X51069500Y67856000D03*
Y68989000D03*
X51319500Y70589000D03*
X51069500Y70039000D03*
X51419500Y69589000D03*
X54314500Y5896500D03*
X52727000Y6009000D03*
X52497000Y9279000D03*
X53097000Y9379000D03*
X54314500Y9211500D03*
X53497000Y11029000D03*
X53547000Y12629000D03*
X52746900Y19229100D03*
X53900000Y33314500D03*
X51891000Y57717500D03*
X55902000Y5934000D03*
X56147000Y9229000D03*
Y12629000D03*
X56882500Y13514500D03*
X55902000Y15874000D03*
X54647000Y21829000D03*
X55269500Y53439000D03*
X55069500Y55839000D03*
X54481500Y59377000D03*
X54769500Y60739000D03*
X55219500Y60289000D03*
X57489500Y5886500D03*
X59077000Y5899000D03*
X59147000Y9229000D03*
X57897000Y9429000D03*
X57197000Y9279000D03*
X58647000Y9500200D03*
X57489500Y12671500D03*
X59077000Y12779000D03*
X57807000Y22119000D03*
X59047000Y27129000D03*
X60664500Y5896500D03*
X62252000Y5934000D03*
X60947000Y9329000D03*
X62097000Y9229000D03*
X60347000D03*
X60664500Y12729000D03*
X62252000Y12774000D03*
X60997000Y28679000D03*
X61119500Y49939000D03*
X61019500Y65789000D03*
X63839500Y5886500D03*
X62747000Y9479000D03*
X64447000Y9500200D03*
X63747000Y9179000D03*
X63839500Y12736500D03*
X64597000Y25279000D03*
X63097000Y34729000D03*
X63469500Y41789000D03*
X64419500Y42639000D03*
X63219500Y43339000D03*
X64369500Y44889000D03*
X63219500Y47789000D03*
X63169500Y47089000D03*
X63219500Y58389000D03*
X63269500Y60739000D03*
X63119500Y64039000D03*
X63269500Y61589000D03*
X63369500Y64489000D03*
X65427000Y6009000D03*
X67014500Y5896500D03*
X66047000Y9379000D03*
X67649500Y9481500D03*
X67014500Y9261500D03*
X65427000Y9149000D03*
X65744500Y12729000D03*
X67649500Y12676500D03*
X66947000Y15129000D03*
X67547000Y23279000D03*
X65797000D03*
X66697000Y26529000D03*
X66385000Y27267000D03*
X65797000Y27029000D03*
X67497000Y29629000D03*
X66169500Y41589000D03*
X66019500Y46439000D03*
X65369500Y53289000D03*
X65519500Y58189000D03*
X65619500Y60689000D03*
X65169500Y62389000D03*
X66319500Y70889000D03*
X68602000Y5874000D03*
X70189500Y9186500D03*
X68602000Y9424000D03*
X70371300Y18949000D03*
X69097000Y20579000D03*
X70297000Y22891000D03*
X68447000Y23679000D03*
X69297000Y25079000D03*
X68347000Y29426500D03*
X68297000Y30317000D03*
Y31379000D03*
X68569500Y53389000D03*
X69819500Y60339000D03*
X69319500Y59389000D03*
X69869500Y62439000D03*
X68019500Y63589000D03*
X69969500Y64389000D03*
X67869500Y70889000D03*
X71965100Y9310900D03*
X72419500Y45539000D03*
Y44289000D03*
X72669500Y47289000D03*
X72369500Y46289000D03*
X72019500Y58089000D03*
X74507500Y6679000D03*
X74497000Y12371500D03*
X73419500Y43039000D03*
X75619500Y44639000D03*
X75569500Y47489000D03*
X73169500Y64079500D03*
X76468000Y23800000D03*
X76368000Y26200000D03*
X76426000Y25400000D03*
Y24600000D03*
X76418000Y27800000D03*
X76697000Y32129000D03*
Y31229000D03*
X75869500Y41639000D03*
X77669500Y47989000D03*
X76539500Y51019000D03*
X77169500Y58289000D03*
X78469500Y60889000D03*
X77169500Y63439000D03*
X76931800Y62539000D03*
X76219500Y67039000D03*
X79647000Y21000000D03*
Y21800000D03*
Y22600000D03*
Y23400000D03*
Y25000000D03*
Y25800000D03*
Y27400000D03*
Y28200000D03*
X80126000Y27000000D03*
X79647000Y29000000D03*
Y29800000D03*
Y30600000D03*
X80168000Y31400000D03*
X79647000Y32200000D03*
X80219500Y41589000D03*
X79928300Y47439000D03*
X80219500Y58489000D03*
X79067500Y60441000D03*
X79921500Y60791000D03*
X79910600Y62630100D03*
X80019500Y70639000D03*
X81919500Y43139000D03*
X82269500Y45839000D03*
X82869500Y46389000D03*
X81819500Y51239000D03*
X82019500Y62589000D03*
X81960000Y63648500D03*
X81869500Y69539000D03*
X84619500Y41639000D03*
X84319500Y43239000D03*
X84719500Y47989000D03*
X84519500Y45739000D03*
X84069500Y46089000D03*
X85419500Y58389000D03*
X84669500Y60091200D03*
X83819500Y63639000D03*
X84369500Y62589000D03*
X85429500Y64499000D03*
D13*
X5102000Y24436500D03*
X5097000Y26229000D03*
Y29179000D03*
Y28029000D03*
Y30279000D03*
Y32129000D03*
X5102000Y33961500D03*
Y35866500D03*
Y37771500D03*
Y39676500D03*
X5047000Y41079000D03*
X5297000Y46829000D03*
X6377500Y57290000D03*
X8497000Y17429000D03*
Y20379000D03*
X8741000Y24421900D03*
X8781200Y28384200D03*
X8947000Y32600000D03*
X9347000Y57240000D03*
X8697000Y69229000D03*
X8500000Y71979000D03*
X8147000Y75879000D03*
X9647000Y36579000D03*
X11597000Y70829000D03*
X12449000Y6600000D03*
X13299000Y11927000D03*
X14547000Y19629000D03*
X13327000Y28299000D03*
X13421900Y30229000D03*
X13997000Y34479000D03*
X12197000Y36679000D03*
X12722000Y58579000D03*
X14309500Y58616500D03*
X12722000Y59579000D03*
X12798100Y66219500D03*
X13616500Y75109500D03*
X13147000Y78229000D03*
X17133700Y50471400D03*
X16997000Y54879000D03*
X14847000Y69679000D03*
X15579500Y68729000D03*
X15447000Y71917000D03*
X16250000Y75929000D03*
X15579500Y79879000D03*
X16750000Y78879000D03*
X15579500Y83329000D03*
X19338000Y8039000D03*
X19645000Y11927000D03*
X18747000Y16679000D03*
X19368500Y18185200D03*
X18147000Y30179000D03*
X17847000Y41729000D03*
X19747000D03*
X18347000Y47929000D03*
X18497000Y59879000D03*
X18542000Y64124000D03*
X18754500Y71929000D03*
X19072000Y73014000D03*
X18754500Y83379000D03*
X20500000Y6850000D03*
Y11350000D03*
X20772000Y13479000D03*
X22447000Y35229000D03*
X22047000Y57229000D03*
X21929500Y74919000D03*
X20977000Y73014000D03*
X20307700Y79865500D03*
X20342000Y83379000D03*
X24197000Y8929000D03*
X24347000Y18229000D03*
X24152000Y39676500D03*
X22947000Y52829000D03*
X24600000Y59700000D03*
Y62250000D03*
X23350000D03*
X23517000Y71909000D03*
X23997000Y73429000D03*
X22882000Y73014000D03*
X24238600Y79186200D03*
X23517000Y83429000D03*
X25547000Y18229000D03*
X25960100Y25787800D03*
X27934000Y39763100D03*
X26057000Y39676500D03*
X25866300Y59733700D03*
X27247000Y75779000D03*
X27962000Y80129000D03*
X28914500Y5311500D03*
X29150000Y17700000D03*
X28597000Y38829000D03*
X28279500Y72029000D03*
X28697000Y82779000D03*
X30547000D03*
X30819500Y5279000D03*
X32497000Y17729000D03*
X31497000Y36879000D03*
X32847000Y38079000D03*
X33040000Y55272000D03*
X33070000Y54002000D03*
X33060000Y56542000D03*
X33147000Y57812000D03*
X33247000Y73579000D03*
X31447000Y75779000D03*
X31397000Y80429000D03*
X32347000Y82779000D03*
X35583500Y16249000D03*
X34947000Y39676500D03*
X34137000Y52589000D03*
X35407000Y52639000D03*
X34137000Y58969000D03*
X35407000Y58939000D03*
X36047000Y72029000D03*
X36122000Y73331500D03*
X35147000Y78929000D03*
X35997000Y82779000D03*
X34147000D03*
X36468000Y5450000D03*
X36647000Y7579000D03*
X36897000Y12079000D03*
X36852000Y39676500D03*
X38757000D03*
X36677000Y52699000D03*
X37947000Y58979000D03*
X36677000Y58959000D03*
X37147000Y71979000D03*
X38535000Y81891000D03*
X37797000Y82779000D03*
X40662000Y39676500D03*
X39010000Y56542000D03*
X39020000Y54002000D03*
X39040000Y55272000D03*
X39497000Y73579000D03*
X41247000Y79079000D03*
X41397000Y82779000D03*
X39597000D03*
X42567000Y39676500D03*
X41997000Y71729000D03*
X42597000Y73379000D03*
X45967000Y17729000D03*
X45447000Y37629000D03*
X45424500Y39875500D03*
X44397000Y39679000D03*
X48282000Y39676500D03*
X49400000Y76350000D03*
X48009000Y81741000D03*
X48747000Y82929000D03*
X52050000Y5482000D03*
X50197000Y4879000D03*
X51597000Y17129000D03*
X51911900Y27157400D03*
X49650000Y28350000D03*
X50377500Y34450000D03*
X49552000Y74284000D03*
X51147000Y79079000D03*
X51447000Y82629000D03*
X53933500Y16765500D03*
X52847000Y30904000D03*
X52647000Y43279000D03*
X53481500Y71594500D03*
X53479000Y82629000D03*
X54495000D03*
X52463000D03*
X55147000Y5479000D03*
X57453000Y26279000D03*
X55247000Y74284000D03*
X55511000Y82629000D03*
X56527000D03*
X59597000Y5129000D03*
X59947000Y22879000D03*
X58722000Y31104000D03*
X58797000Y33379000D03*
X58197000Y36779000D03*
X57547000Y75179000D03*
X57497000Y74029000D03*
X58696000Y82378000D03*
X62647000Y37979000D03*
X60213000Y73200000D03*
X60447000Y81879000D03*
X60347000Y80879000D03*
X63697000Y5079000D03*
X63447000Y17829000D03*
X64747000Y37979000D03*
X66550000Y5132000D03*
X68047000Y20824000D03*
X65913000Y73213000D03*
X68097000Y80979000D03*
X69597000Y36079000D03*
X70649000Y55177000D03*
X69872000Y79554000D03*
X69197000Y80979000D03*
X73025000Y6847000D03*
X71140000Y21473200D03*
X71197000Y38429000D03*
X71584500Y73966500D03*
X71297000Y75629000D03*
X71547000Y82529000D03*
X72563000D03*
X74358000Y9768000D03*
X75097000Y32029000D03*
X74147000Y36629000D03*
X75777500Y37279000D03*
X75747000Y55177000D03*
X75611000Y82529000D03*
X74595000D03*
X73579000D03*
X77197000Y5079000D03*
X77947000Y18229000D03*
X76700000Y16629000D03*
X76426000Y21850000D03*
X76449100Y20789600D03*
X76497000Y23000000D03*
X77397000Y34979000D03*
X76197000Y35829000D03*
X78397000Y38406500D03*
X78497000Y55177000D03*
X77734000Y70612000D03*
X78659000Y82529000D03*
X77643000D03*
X76627000D03*
X79079500Y9661500D03*
X80889500Y12371500D03*
X79547000Y19079000D03*
X79876000Y20200000D03*
X79297000Y35779000D03*
X81047000Y55177000D03*
X81147000Y76879000D03*
X80297000Y76479000D03*
X82897000Y16929000D03*
Y21400000D03*
X81647000Y19483500D03*
X82797000Y23029000D03*
X81567500Y26849500D03*
X82597000Y30479000D03*
X82219500Y54179000D03*
X81747000Y72129000D03*
X85597000Y10729000D03*
X85927000Y26659000D03*
X85897000Y25079000D03*
X85952000Y29834000D03*
X85947000Y28246500D03*
X84247000Y27629000D03*
X85954500Y31421500D03*
X85897000Y36579000D03*
X86047000Y38129000D03*
X86049000Y55177000D03*
X89277000Y13959000D03*
X89329500Y21896500D03*
X89417000Y26659000D03*
X89303000Y36635000D03*
X88021000Y42579000D03*
X87797000Y48879000D03*
X87971000Y52850000D03*
X86847000Y61305000D03*
X87697000Y62879000D03*
X87767000Y65278000D03*
X86860000Y69088000D03*
X87547000Y72579000D03*
X87447000Y78779000D03*
X89489500Y31421500D03*
X91247000Y44788400D03*
X91410000Y47752000D03*
X90003000Y52951000D03*
X90051000Y59750000D03*
X91310000Y65278000D03*
X90053000Y70612000D03*
D14*
X6054500Y46026500D03*
X16850000Y4300000D03*
X15550000Y78000000D03*
X20024500Y74919000D03*
X54632000Y17769000D03*
X66947000Y82629000D03*
D15*
X5000000Y5000000D03*
Y82500000D03*
X90000000Y5000000D03*
Y82500000D03*
D16*
X16964500Y61584000D03*
X16464500D03*
X15964500D03*
X15464500D03*
X14964500D03*
Y64124000D03*
X15464500D03*
X15964500D03*
X16464500D03*
X16964500D03*
X17464500Y61584000D03*
Y64124000D03*
D17*
X13939500Y39803500D03*
X13289500D03*
Y45899500D03*
X13939500D03*
X16539500Y39803500D03*
X15889500D03*
X15239500D03*
X14589500D03*
Y45899500D03*
X15239500D03*
X15889500D03*
X16539500D03*
X19139500Y39803500D03*
X18489500D03*
X17839500D03*
X17189500D03*
Y45899500D03*
X17839500D03*
X18489500D03*
X19139500D03*
D18*
X50322500Y49780000D03*
Y49280000D03*
X49372500D03*
Y49780000D03*
X50322500Y52320000D03*
Y51820000D03*
X49372500D03*
Y52320000D03*
X50309000Y54910000D03*
Y54410000D03*
X49359000D03*
Y54910000D03*
X50309000Y57450000D03*
Y56950000D03*
X49359000D03*
Y57450000D03*
X50322500Y62162500D03*
Y61662500D03*
X49372500D03*
Y62162500D03*
X50309000Y66806000D03*
X49359000D03*
X50344500Y69539000D03*
X49394500D03*
X50309000Y67306000D03*
X49359000D03*
X50344500Y70039000D03*
X49394500D03*
D19*
X50322500Y50330000D03*
Y48730000D03*
X49372500D03*
Y50330000D03*
X50322500Y52870000D03*
Y51270000D03*
X49372500D03*
Y52870000D03*
X50309000Y55460000D03*
Y53860000D03*
X49359000D03*
Y55460000D03*
X50309000Y58000000D03*
Y56400000D03*
X49359000D03*
Y58000000D03*
X50322500Y61112500D03*
X49372500D03*
X50322500Y62712500D03*
X49372500D03*
X50309000Y66256000D03*
X49359000D03*
X50344500Y68989000D03*
X49394500D03*
X50309000Y67856000D03*
X49359000D03*
X50344500Y70589000D03*
X49394500D03*
D20*
X50377500Y79659000D03*
X51901500D03*
X50377500Y81609000D03*
Y80959000D03*
Y80309000D03*
X51901500D03*
Y80959000D03*
Y81609000D03*
X71967500Y79704000D03*
Y79054000D03*
Y78404000D03*
Y77754000D03*
X73491500D03*
Y78404000D03*
Y79054000D03*
Y79704000D03*
D21*
X15852500Y17374000D03*
X15838000Y23550000D03*
Y25700000D03*
X16509000Y31229000D03*
X14985000D03*
Y32879000D03*
X16509000D03*
X14985000Y34479000D03*
X16509000D03*
X17376500Y17374000D03*
X17362000Y23550000D03*
Y25700000D03*
X19580000Y54916500D03*
Y56504000D03*
X21335000Y44779000D03*
X21104000Y54916500D03*
Y56504000D03*
X21739000Y60949000D03*
X20215000D03*
X21739000Y64124000D03*
X20215000D03*
X21739000Y62536500D03*
X20215000D03*
X21739000Y65711500D03*
X20215000D03*
X22859000Y44779000D03*
X30335000Y19929000D03*
X30375000Y21579000D03*
Y23166500D03*
Y24754000D03*
X30385000Y27929000D03*
X30375000Y29516500D03*
X30385000Y32179000D03*
Y35179000D03*
X30375000Y39041500D03*
X29122500Y52091500D03*
X30646500D03*
X29122500Y53679000D03*
X30646500D03*
X29122500Y55266500D03*
X30646500D03*
X29122500Y56854000D03*
X30646500D03*
X29122500Y58441500D03*
X30646500D03*
X29122500Y60029000D03*
X30646500D03*
X29422500Y72379000D03*
X31859000Y19929000D03*
X31899000Y21579000D03*
Y23166500D03*
Y24754000D03*
X31909000Y27929000D03*
X31899000Y29516500D03*
X31909000Y32179000D03*
Y35179000D03*
X31899000Y39041500D03*
X30946500Y72379000D03*
X32597500D03*
X34121500D03*
X33550000Y75236500D03*
X35074000D03*
X38009000Y19029000D03*
X36485000D03*
X38485000Y21879000D03*
X38535000Y23929000D03*
Y26929000D03*
Y28879000D03*
Y31979000D03*
Y33979000D03*
X38435000Y52129000D03*
X38535000Y79779000D03*
X39635000Y19029000D03*
X41159000D03*
X40009000Y21879000D03*
X40059000Y23929000D03*
Y26929000D03*
Y28879000D03*
Y31979000D03*
Y33979000D03*
X39959000Y52129000D03*
X38947500Y72379000D03*
X40471500D03*
X40059000Y79779000D03*
X42757500Y19039000D03*
X42535000Y21879000D03*
Y23979000D03*
X42485000Y26879000D03*
Y28929000D03*
X42535000Y31979000D03*
Y33929000D03*
X42944000Y53729000D03*
X41420000D03*
X42944000Y52141500D03*
X41420000D03*
X42944000Y55316500D03*
X41420000D03*
X42944000Y56904000D03*
X41420000D03*
X42944000Y58491500D03*
X41420000D03*
X42944000Y60079000D03*
X41420000D03*
X45585000Y19029000D03*
X44281500Y19039000D03*
X44059000Y21879000D03*
Y23979000D03*
X44009000Y26879000D03*
Y28929000D03*
X44059000Y31979000D03*
Y33929000D03*
X47109000Y19029000D03*
X48472500Y19039000D03*
X49996500D03*
X51901500Y20944000D03*
X50377500D03*
Y26024000D03*
X51901500D03*
X50377500Y29316500D03*
X51901500D03*
X50377500Y32491500D03*
X51901500D03*
X50377500Y30904000D03*
X51901500D03*
Y35666500D03*
X50377500D03*
X50927000Y59690000D03*
X49403000D03*
X51957500Y66239000D03*
X51901500Y77141500D03*
X50377500D03*
X52657500Y52139000D03*
X54181500D03*
X52157500Y54389000D03*
X53681500D03*
X52957500Y57739000D03*
X54481500D03*
X52157500Y62189000D03*
X53681500D03*
X53481500Y66239000D03*
X57785000Y77129000D03*
X59309000D03*
X66252500Y53011500D03*
X67776500D03*
X69681500Y15864000D03*
X68157500D03*
X69681500Y17769000D03*
X68157500D03*
Y19674000D03*
X69681500D03*
X74507500Y5704000D03*
X75460000Y12371500D03*
X76031500Y5704000D03*
X76984000Y12371500D03*
X88409000Y10729000D03*
X86885000D03*
X88414000Y15546500D03*
X86890000D03*
X88414000Y13959000D03*
X86890000D03*
X88414000Y17134000D03*
X86890000D03*
X88414000Y18721500D03*
X86890000D03*
X88414000Y20309000D03*
X86890000D03*
X88414000Y21896500D03*
X86890000D03*
X88414000Y23484000D03*
X86890000D03*
X88414000Y26659000D03*
X86890000D03*
X88414000Y25071500D03*
X86890000D03*
X88414000Y29834000D03*
X86890000D03*
X88414000Y28246500D03*
X86890000D03*
X88414000Y31421500D03*
X86890000D03*
X88757500Y47789000D03*
X88783000Y46186000D03*
X88757500Y49389000D03*
X88783000Y63627000D03*
Y66929000D03*
Y65278000D03*
X90281500Y47789000D03*
X90307000Y46186000D03*
X90281500Y49389000D03*
X90307000Y63627000D03*
Y66929000D03*
Y65278000D03*
D22*
X8500000Y70730000D03*
X7547500D03*
Y73270000D03*
X9452500Y70730000D03*
Y73270000D03*
D23*
X83207000Y8561500D03*
X81937000D03*
Y12371500D03*
X83207000D03*
X84477000Y8561500D03*
Y12371500D03*
D24*
X6157000Y38914500D03*
X5102000Y42089500D03*
X6157000Y40438500D03*
X5102000Y43613500D03*
X5737000Y48439500D03*
Y49963500D03*
Y53519500D03*
Y55043500D03*
X8297000Y38967000D03*
Y40491000D03*
X8912000Y42089500D03*
X7007000D03*
X8912000Y43613500D03*
X7007000D03*
X7642000Y49963500D03*
Y48439500D03*
Y53519500D03*
Y55043500D03*
Y66854500D03*
Y68378500D03*
X9547000Y7799500D03*
X11452000D03*
X9547000Y9323500D03*
X11452000D03*
X10499500Y38914500D03*
Y42089500D03*
Y40438500D03*
Y44947000D03*
Y43613500D03*
Y46471000D03*
X9797000Y66767000D03*
X11697000D03*
X9797000Y68291000D03*
X11697000D03*
X13357000Y7799500D03*
Y9323500D03*
X14309500Y56059500D03*
X12722000D03*
X14309500Y57583500D03*
X12722000D03*
Y60504500D03*
Y62028500D03*
X13992000Y66219500D03*
Y67743500D03*
X14297000Y71917000D03*
X12404500Y71934500D03*
X14297000Y73441000D03*
X12404500Y73458500D03*
Y75109500D03*
Y76633500D03*
X14944500Y7799500D03*
X16532000D03*
X14944500Y9323500D03*
X16532000D03*
X14944500Y13451000D03*
Y11927000D03*
X17484500Y56059500D03*
X15897000D03*
X17484500Y57583500D03*
X15897000D03*
X17167000Y66219500D03*
X15579500D03*
X17167000Y67743500D03*
X15579500D03*
X17167000Y80824500D03*
Y82348500D03*
X15579500Y80824500D03*
Y82348500D03*
X18150000Y7788000D03*
Y9312000D03*
X17802000Y13451000D03*
Y11927000D03*
X20024500Y49074500D03*
Y50598500D03*
X18437000Y49074500D03*
Y50598500D03*
X17947000Y52117000D03*
Y53641000D03*
X18754500Y66219500D03*
Y67743500D03*
Y69394500D03*
Y70918500D03*
X19307000Y77649500D03*
Y79173500D03*
X18754500Y80824500D03*
Y82348500D03*
X20500000Y7788000D03*
Y9312000D03*
X21929500Y13451000D03*
Y11927000D03*
X21972000Y31647000D03*
Y33171000D03*
X21597000Y40817000D03*
Y42341000D03*
X21612000Y49074500D03*
Y50598500D03*
X21929500Y69394500D03*
X20342000D03*
X21929500Y70918500D03*
X20342000D03*
X21294500Y77649500D03*
Y79173500D03*
X21929500Y80824500D03*
Y82348500D03*
X20342000Y80824500D03*
Y82348500D03*
X25422000Y9704500D03*
Y11228500D03*
X24469500Y36057000D03*
Y37581000D03*
X24724500Y40819500D03*
Y42343500D03*
X23199500Y40799500D03*
Y42323500D03*
X23517000Y69394500D03*
X25104500D03*
X23517000Y70918500D03*
X25104500D03*
X22882000Y77649500D03*
Y79173500D03*
X23517000Y80824500D03*
Y82348500D03*
X25097000Y80817000D03*
Y82341000D03*
X27009500Y6212000D03*
Y7736000D03*
Y9704500D03*
Y11228500D03*
X26057000Y37581000D03*
Y36057000D03*
X27597000Y37591000D03*
Y36067000D03*
X27949500Y40819500D03*
Y42343500D03*
X26312000Y40819500D03*
Y42343500D03*
X26692000Y69394500D03*
Y70918500D03*
X27962000Y77649500D03*
X26374500D03*
X27962000Y79173500D03*
X26374500D03*
X28914500Y6212000D03*
Y7736000D03*
X30819500Y6212000D03*
Y7736000D03*
X28597000Y9704500D03*
X30184500D03*
X28597000Y11228500D03*
X30184500D03*
X29537000Y40819500D03*
Y42343500D03*
X30337000Y49057000D03*
Y50581000D03*
X28749500Y49057000D03*
Y50581000D03*
X30537000Y61507000D03*
X28949500D03*
X30537000Y63031000D03*
X28949500D03*
X28279500Y69394500D03*
X29867000D03*
X28279500Y70918500D03*
X29867000D03*
X30147000Y79667000D03*
Y81191000D03*
X32089500Y10974500D03*
Y12498500D03*
Y15356000D03*
Y13832000D03*
X32724500Y40819500D03*
Y42343500D03*
X31897000Y49067000D03*
Y50591000D03*
X33447000Y49067000D03*
Y50591000D03*
X32124500Y61507000D03*
Y63031000D03*
X33042000Y69394500D03*
X31454500D03*
X33042000Y70918500D03*
X31454500D03*
X32347000Y79667000D03*
Y81191000D03*
X33677000Y10974500D03*
X35264500D03*
X33677000Y12498500D03*
X35264500D03*
X33677000Y15356000D03*
Y13832000D03*
X35264500Y15356000D03*
Y13832000D03*
X35899500Y37077000D03*
X34312000D03*
X35899500Y38601000D03*
X34312000D03*
Y40819500D03*
Y42343500D03*
X35899500Y40819500D03*
Y42343500D03*
X35029500Y49057000D03*
Y50581000D03*
X33712000Y61507000D03*
X35299500D03*
X33712000Y63031000D03*
X35299500D03*
X34629500Y69394500D03*
Y70918500D03*
X34147000Y79667000D03*
Y81191000D03*
X37487000Y37077000D03*
Y38601000D03*
Y40819500D03*
Y42343500D03*
X36617000Y49057000D03*
Y50581000D03*
X38204500Y49057000D03*
Y50581000D03*
X38447000Y61517000D03*
X36887000Y61507000D03*
X38447000Y63041000D03*
X36887000Y63031000D03*
X36217000Y69394500D03*
X37804500D03*
X36217000Y70918500D03*
X37804500D03*
X36247000Y79667000D03*
Y81191000D03*
X40662000Y37077000D03*
X39074500D03*
X40662000Y38601000D03*
X39074500D03*
X40662000Y40819500D03*
Y42343500D03*
X39074500Y40819500D03*
Y42343500D03*
X41379500Y49057000D03*
Y50581000D03*
X39792000Y49057000D03*
Y50581000D03*
X40042000Y61507000D03*
Y63031000D03*
X40979500Y69394500D03*
X39392000D03*
X40979500Y70918500D03*
X39392000D03*
X43837000Y37077000D03*
Y38601000D03*
Y40819500D03*
Y42343500D03*
X42249500Y40819500D03*
Y42343500D03*
X42967000Y49057000D03*
Y50581000D03*
X41629500Y61507000D03*
X43217000D03*
X41629500Y63031000D03*
X43217000D03*
X45424500Y40819500D03*
Y42343500D03*
X47012000Y37127000D03*
X48749500Y37177000D03*
X47012000Y38651000D03*
X48749500Y38701000D03*
X47012000Y40819500D03*
Y42343500D03*
X48749500Y40819500D03*
Y42343500D03*
X50822000Y8371000D03*
Y6847000D03*
Y10339500D03*
Y11863500D03*
X51947000Y37117000D03*
X50337000Y37177000D03*
X51947000Y38641000D03*
X50337000Y38701000D03*
X51947000Y40817000D03*
Y42341000D03*
X50337000Y40819500D03*
Y42343500D03*
X51424500Y45201000D03*
Y43677000D03*
X49837000D03*
Y45201000D03*
X52727000Y8371000D03*
Y6847000D03*
X54314500Y8371000D03*
Y6847000D03*
X52727000Y10339500D03*
X54314500D03*
X52727000Y11863500D03*
X54314500D03*
X54632000Y19547000D03*
Y21071000D03*
X53679500Y32564500D03*
Y34088500D03*
Y35422000D03*
Y36946000D03*
X55902000Y8371000D03*
Y6847000D03*
X57489500Y8371000D03*
Y6847000D03*
X55902000Y10339500D03*
X57489500D03*
X55902000Y13514500D03*
Y11863500D03*
X57489500D03*
X55902000Y15038500D03*
X56219500Y19547000D03*
Y21071000D03*
X56854500Y32564500D03*
Y34088500D03*
X55267000Y32564500D03*
Y34088500D03*
X56854500Y35422000D03*
Y36946000D03*
X55267000Y35422000D03*
Y36946000D03*
X59077000Y8371000D03*
Y6847000D03*
Y10339500D03*
Y11863500D03*
X59712000Y19547000D03*
Y21071000D03*
X57807000Y19547000D03*
Y21071000D03*
X60029500Y27167000D03*
Y28691000D03*
Y32183500D03*
Y30659500D03*
X60664500Y8371000D03*
Y6847000D03*
X62252000Y8371000D03*
Y6847000D03*
X60664500Y10339500D03*
X62252000D03*
X60664500Y11863500D03*
X62252000D03*
Y35422000D03*
Y36946000D03*
X62061500Y42407000D03*
X62069500Y45277000D03*
X62061500Y43931000D03*
X62069500Y48077000D03*
Y46801000D03*
Y49601000D03*
X62319500Y58977000D03*
Y60501000D03*
Y63401000D03*
Y61877000D03*
Y64777000D03*
Y66301000D03*
X61647000Y81167000D03*
Y82691000D03*
X63839500Y8371000D03*
Y6847000D03*
X65427000Y8371000D03*
Y6847000D03*
X63839500Y10339500D03*
Y11863500D03*
Y35422000D03*
Y36946000D03*
X65427000Y35422000D03*
Y36946000D03*
X65197000Y82691000D03*
Y81167000D03*
X63447000Y82691000D03*
Y81167000D03*
X67014500Y8371000D03*
Y6847000D03*
X65744500Y10339500D03*
X67649500D03*
X65744500Y13514500D03*
Y11863500D03*
X67649500D03*
X65744500Y15038500D03*
X67547000Y24367000D03*
X65797000D03*
X67547000Y25891000D03*
X65797000D03*
X67547000Y28791000D03*
Y27267000D03*
X67014500Y42407000D03*
Y45264500D03*
Y43931000D03*
Y46788500D03*
X67069500Y58877000D03*
Y60401000D03*
X67019500Y61827000D03*
Y63351000D03*
Y68577000D03*
Y70101000D03*
X70189500Y6847000D03*
Y8371000D03*
X68602000Y6847000D03*
Y8371000D03*
X69297000Y21367000D03*
Y24317000D03*
Y22891000D03*
Y25841000D03*
Y28841000D03*
Y27317000D03*
Y31841000D03*
Y30317000D03*
X69872000Y77014500D03*
Y78538500D03*
X71777000Y6847000D03*
Y8371000D03*
X71459500Y42407000D03*
Y45264500D03*
Y43931000D03*
Y46788500D03*
X71819500Y55177000D03*
Y56701000D03*
X71869500Y59027000D03*
Y60551000D03*
Y61927000D03*
Y63451000D03*
X74569500Y55177000D03*
Y56701000D03*
X76539500Y42407000D03*
Y45264500D03*
Y43931000D03*
Y48122000D03*
Y46788500D03*
Y49646000D03*
X77269500Y55177000D03*
X76222000Y58917000D03*
X77269500Y56701000D03*
X76222000Y60441000D03*
X76219500Y61827000D03*
Y63351000D03*
Y64677000D03*
Y66201000D03*
X79079500Y7164500D03*
Y8688500D03*
X80969500Y42327000D03*
X80984500Y45264500D03*
X80969500Y43851000D03*
X80984500Y48122000D03*
Y46788500D03*
Y49646000D03*
X79869500Y55177000D03*
Y56701000D03*
X80934500Y59267000D03*
Y60791000D03*
Y62124500D03*
Y63648500D03*
X80984500Y68759500D03*
Y70283500D03*
X82219500Y55177000D03*
Y56701000D03*
X82889500Y72887000D03*
Y74411000D03*
Y77268500D03*
Y75744500D03*
X82572000Y78919500D03*
Y80443500D03*
X85447000Y42299500D03*
Y43823500D03*
Y45157000D03*
Y46681000D03*
X84919500Y55177000D03*
Y56701000D03*
X85419500Y60801000D03*
Y59277000D03*
X85429500Y62092000D03*
Y63616000D03*
X87652000Y73839500D03*
Y75363500D03*
D25*
X56219500Y73331500D03*
Y75236500D03*
X58759500Y74284000D03*
Y73331500D03*
Y75236500D03*
X75269500Y73331500D03*
Y75236500D03*
X77809500Y74284000D03*
Y73331500D03*
Y75236500D03*
D26*
X16614500Y21438000D03*
X17503500Y19533000D03*
X15725500D03*
X16547000Y29368000D03*
X17436000Y27463000D03*
X15658000D03*
X19770500Y15483000D03*
Y19610500D03*
X19758000Y23513000D03*
Y27463000D03*
X20086000Y31363000D03*
X18308000D03*
X19197000Y33268000D03*
X21548500Y15483000D03*
X20659500Y17388000D03*
Y21515500D03*
X21548500Y19610500D03*
X21536000Y23513000D03*
X20647000Y25418000D03*
Y29368000D03*
X21536000Y27463000D03*
X24787000Y21515500D03*
X23898000Y19610500D03*
X23908000Y23513000D03*
X24797000Y25418000D03*
Y29318000D03*
X23908000Y27413000D03*
X23858000Y31363000D03*
X24747000Y33268000D03*
X25058000Y72463000D03*
X25676000Y19610500D03*
X25686000Y23513000D03*
Y27413000D03*
X25636000Y31363000D03*
X26836000Y72463000D03*
X25947000Y74368000D03*
X74698000Y7863000D03*
X75587000Y9768000D03*
X76476000Y7863000D03*
D27*
X19643500Y52694000D03*
Y58726500D03*
X20596000Y36819000D03*
X22628000D03*
X21675500Y52694000D03*
Y58726500D03*
X64093500Y19356500D03*
X66125500D03*
X67903500Y38089000D03*
X69935500D03*
X89303000D03*
X87271000D03*
X88021000Y44027000D03*
X87971000Y51427000D03*
X88019000Y61305000D03*
X88021000Y69088000D03*
X90053000Y44027000D03*
X90003000Y51427000D03*
X90051000Y61305000D03*
X90053000Y69088000D03*
D28*
X15325500Y36819000D03*
X18373500D03*
D29*
X50885500Y14594000D03*
Y74284000D03*
X53933500Y14594000D03*
Y74284000D03*
X69935500Y73966500D03*
X72983500D03*
D30*
X40867000Y15927500D03*
X39167000D03*
X44267000D03*
X42567000D03*
X45967000D03*
D31*
X61697000Y75245000D03*
Y73213000D03*
Y77263000D03*
Y79295000D03*
X64497000Y73213000D03*
Y75245000D03*
X80667000Y75300000D03*
Y73268000D03*
X85112000D03*
Y75300000D03*
Y78030500D03*
Y80062500D03*
D32*
X72658000Y18200000D03*
Y17400000D03*
Y21400000D03*
Y20600000D03*
Y19800000D03*
Y19000000D03*
Y23800000D03*
Y23000000D03*
Y22200000D03*
Y25400000D03*
Y24600000D03*
Y29400000D03*
Y28600000D03*
Y31800000D03*
Y31000000D03*
Y30200000D03*
Y34200000D03*
Y33400000D03*
Y32600000D03*
Y36600000D03*
Y35800000D03*
Y35000000D03*
X84342000Y17400000D03*
Y18200000D03*
Y19000000D03*
Y19800000D03*
Y20600000D03*
Y21400000D03*
Y22200000D03*
Y23000000D03*
Y23800000D03*
Y24600000D03*
Y25400000D03*
Y28600000D03*
Y29400000D03*
Y30200000D03*
Y31000000D03*
Y31800000D03*
Y32600000D03*
Y33400000D03*
Y34200000D03*
Y35000000D03*
Y35800000D03*
Y36600000D03*
D33*
X7642000Y58790000D03*
Y61838000D03*
X10499500Y58790000D03*
Y61838000D03*
D34*
X6800000Y17400000D03*
Y18200000D03*
Y19000000D03*
Y19800000D03*
Y20600000D03*
Y21400000D03*
Y22200000D03*
Y23000000D03*
Y23800000D03*
Y24600000D03*
Y25400000D03*
Y26200000D03*
Y27000000D03*
Y27800000D03*
Y28600000D03*
Y29400000D03*
Y30200000D03*
Y31000000D03*
Y31800000D03*
Y32600000D03*
X11200000Y17400000D03*
Y18200000D03*
Y19000000D03*
Y19800000D03*
Y20600000D03*
Y21400000D03*
Y22200000D03*
Y23000000D03*
Y23800000D03*
Y24600000D03*
Y25400000D03*
Y26200000D03*
Y27000000D03*
Y27800000D03*
Y28600000D03*
Y29400000D03*
Y30200000D03*
Y31000000D03*
Y31800000D03*
Y32600000D03*
D35*
X54378000Y80634000D03*
X58696000D03*
X75650500Y78729000D03*
X79968500D03*
D36*
X30819500Y74347500D03*
Y77395500D03*
X38122000Y74847500D03*
Y77895500D03*
X41932000Y74847500D03*
Y77895500D03*
D37*
X42567000Y9577500D03*
M02*