G04 Gerber PCB Fabrication Data in Gerber – Example 2, created by Karel Tavernier, Filip Vermeire and Thomas Weyn*
G04 Ucamco copyright*
%TF.GenerationSoftware,Ucamco,UcamX,1.1.0-1400509*%
%TF.CreationDate,2014-07-14T00:00:00+01:00*%
%FSLAX26Y26*%
%MOMM*%
%TF.FileFunction,Copper,L4,Inr,Plane*%
%TF.FilePolarity,Positive*%
%TF.Part,Single*%
%TF.SameCoordinates*%
%TA.AperFunction,NonConductor*%
%ADD10C,0.20000*%
%TA.AperFunction,AntiPad*%
%ADD11C,0.90000*%
%ADD12C,1.80000*%
%ADD13C,2.50000*%
%ADD14C,3.20000*%
%ADD15C,7.00000*%
%TA.AperFunction,ThermalReliefPad*%
%AMTHERS4*1,1-$6,$1,0,0*1,$6,$2,0,0*21,$6,$1,$3,0,0,$4+$5*21,$6,$3,$1,0,0,$4+$5*%
%ADD16THERS4,1X0.60000X0.20000X45.00X0.00X0*%
%TA.AperFunction,Conductor*%
%ADD17C,0*%
G01*
%LPD*%
D17*
G36*
X1000100Y86499900D02*
X48550000D01*
Y83219600D01*
X48530500Y83204300D01*
X48431960Y83082030D01*
X48396760Y82929000D01*
X48431960Y82775960D01*
X48530500Y82653700D01*
X48550000Y82638400D01*
Y79237900D01*
X49887900Y77900000D01*
X73687900D01*
X75200000Y76387900D01*
Y72762100D01*
X74387900Y71950000D01*
X69062100D01*
X68362100Y72650000D01*
X63362100D01*
X62712100Y73300000D01*
X60602200D01*
X60590100Y73333900D01*
X60505500Y73473070D01*
X60372450Y73567000D01*
X60213000Y73600140D01*
X60053540Y73567000D01*
X59920490Y73473070D01*
X59835900Y73333900D01*
X59823800Y73300000D01*
X49937900D01*
X48087900Y71450000D01*
X43637900D01*
X42237900Y70050000D01*
X38712100D01*
X38412100Y70350000D01*
X37287900D01*
X36850000Y69912100D01*
Y66337900D01*
X37150000Y66037900D01*
Y65000000D01*
X36262100D01*
X36062100Y65200000D01*
X34987900D01*
X34600000Y64812100D01*
Y63462100D01*
X34337900Y63200000D01*
X34062100D01*
X33200000Y64062100D01*
Y64537900D01*
X33700000Y65037900D01*
Y68162100D01*
X32850000Y69012100D01*
Y75912100D01*
X31962100Y76800000D01*
X29837900D01*
X28850000Y75812100D01*
Y69062100D01*
X28250000Y68462100D01*
Y64962100D01*
X27950000Y64662100D01*
Y63687900D01*
X28500000Y63137900D01*
Y58862100D01*
X26562500Y56924600D01*
X26538300Y56927100D01*
X26393860Y56915810D01*
X26262910Y56853840D01*
X26162600Y56749310D01*
X26106080Y56615920D01*
X26100750Y56471140D01*
X26147310Y56333950D01*
X26239660Y56222330D01*
X26365700Y56150900D01*
X26400000Y56139000D01*
Y55656300D01*
X26368000Y55643400D01*
X26236150Y55557060D01*
X26147870Y55426510D01*
X26116840Y55272000D01*
X26147870Y55117480D01*
X26236150Y54986940D01*
X26368000Y54900600D01*
X26400000Y54887700D01*
Y53122000D01*
X26365700Y53110100D01*
X26225210Y53025840D01*
X26130240Y52892350D01*
X26096710Y52732000D01*
X26130240Y52571640D01*
X26225210Y52438160D01*
X26365700Y52353900D01*
X26400000Y52342000D01*
Y50737900D01*
X27137900Y50000000D01*
X27434800D01*
X27449800Y49976500D01*
X27560620Y49862010D01*
X27707330Y49799830D01*
X27866670D01*
X28013380Y49862010D01*
X28124200Y49976500D01*
X28139200Y50000000D01*
X29017900D01*
X29033200Y49980600D01*
X29140980Y49885880D01*
X29275250Y49835260D01*
X29418740D01*
X29553010Y49885880D01*
X29660800Y49980600D01*
X29676100Y50000000D01*
X31337900D01*
X31900000Y49437900D01*
Y48562100D01*
X31737900Y48400000D01*
X30987900D01*
X30500000Y47912100D01*
Y46887900D01*
X30887900Y46500000D01*
X32712100D01*
X33300000Y47087900D01*
Y48237900D01*
X33762100Y48700000D01*
X35887900D01*
X36987900Y47600000D01*
X38212100D01*
X38950000Y48337900D01*
Y49137900D01*
X39200000Y49387900D01*
Y49633100D01*
X39222300Y49648200D01*
X39330960Y49758410D01*
X39389690Y49901610D01*
Y50056380D01*
X39330960Y50199590D01*
X39222300Y50309800D01*
X39200000Y50324900D01*
Y52487900D01*
X39562100Y52850000D01*
X40487900D01*
X40900000Y52437900D01*
Y49962100D01*
X40250000Y49312100D01*
Y48087900D01*
X40637900Y47700000D01*
X42900000D01*
Y46587900D01*
X44037900Y45450000D01*
X50737900D01*
X51500000Y44687900D01*
Y42037900D01*
X53687900Y39850000D01*
X90050000D01*
Y34700100D01*
X90029900D01*
Y29149900D01*
X92423400D01*
Y34700100D01*
X92400000D01*
Y40800000D01*
X93999900D01*
Y1000100D01*
X1000100D01*
Y86499900D01*
G37*
G36*
X37150000Y69787900D02*
X37412100Y70050000D01*
X38287900D01*
X38587900Y69750000D01*
X42362100D01*
X43762100Y71150000D01*
X48212100D01*
X50062100Y73000000D01*
X59865400D01*
X59880500Y72977400D01*
X59990870Y72867170D01*
X60135000Y72807530D01*
X60290990D01*
X60435120Y72867170D01*
X60545500Y72977400D01*
X60560600Y73000000D01*
X62587900D01*
X63237900Y72350000D01*
X68237900D01*
X68937900Y71650000D01*
X74512100D01*
X75500000Y72637900D01*
Y76512100D01*
X73812100Y78200000D01*
X50012100D01*
X48850000Y79362100D01*
Y82592700D01*
X48881400Y82605700D01*
X48994790Y82681630D01*
X49070540Y82795150D01*
X49097130Y82929000D01*
X49070540Y83062850D01*
X48994790Y83176360D01*
X48881400Y83252300D01*
X48850000Y83265300D01*
Y86499900D01*
X93999900D01*
Y41100000D01*
X89750000D01*
Y40150000D01*
X53812100D01*
X51800000Y42162100D01*
Y44812100D01*
X50862100Y45750000D01*
X44162100D01*
X43200000Y46712100D01*
Y53212100D01*
X42500000Y53912100D01*
Y58662600D01*
X37576500Y63537400D01*
X37450000Y63662600D01*
Y66162100D01*
X37150000Y66462100D01*
Y69787900D01*
G37*
G36*
X26700000Y52386200D02*
X26722200Y52401300D01*
X26830830Y52511470D01*
X26889540Y52654630D01*
Y52809360D01*
X26830830Y52952520D01*
X26722200Y53062700D01*
X26700000Y53077800D01*
Y54915100D01*
X26724500Y54929900D01*
X26843720Y55041040D01*
X26908730Y55190500D01*
Y55353490D01*
X26843720Y55502960D01*
X26724500Y55614100D01*
X26700000Y55628900D01*
Y56183200D01*
X26722200Y56198300D01*
X26827390Y56303350D01*
X26886970Y56439550D01*
X26892700Y56588110D01*
X26843800Y56728500D01*
X26824400Y56762300D01*
X28800000Y58737900D01*
Y63262100D01*
X28250000Y63812100D01*
Y64537900D01*
X28550000Y64837900D01*
Y68337900D01*
X29150000Y68937900D01*
Y75687900D01*
X29962100Y76500000D01*
X31118500D01*
X31126100Y76497600D01*
X31206130Y76480990D01*
X31287870D01*
X31367900Y76497600D01*
X31375500Y76500000D01*
X31837900D01*
X32550000Y75787900D01*
Y68887900D01*
X33400000Y68037900D01*
Y65162100D01*
X32900000Y64662100D01*
Y63937900D01*
X33937900Y62900000D01*
X34462100D01*
X34900000Y63337900D01*
Y64687900D01*
X35112100Y64900000D01*
X35937900D01*
X36137900Y64700000D01*
X37150000D01*
Y63537400D01*
X42200000Y58537400D01*
Y53787900D01*
X42900000Y53087900D01*
Y48000000D01*
X40762100D01*
X40550000Y48212100D01*
Y49187900D01*
X41200000Y49837900D01*
Y52562100D01*
X40612100Y53150000D01*
X39437900D01*
X38900000Y52612100D01*
Y50368800D01*
X38865800Y50357000D01*
X38725330Y50272770D01*
X38630380Y50139310D01*
X38596860Y49979000D01*
X38630380Y49818680D01*
X38725330Y49685230D01*
X38865800Y49601000D01*
X38900000Y49589200D01*
Y49512100D01*
X38650000Y49262100D01*
Y48462100D01*
X38087900Y47900000D01*
X37112100D01*
X36012100Y49000000D01*
X33637900D01*
X33000000Y48362100D01*
Y47212100D01*
X32587900Y46800000D01*
X31012100D01*
X30800000Y47012100D01*
Y47787900D01*
X31112100Y48100000D01*
X31862100D01*
X32200000Y48437900D01*
Y49562100D01*
X31462100Y50300000D01*
X29742600D01*
X29732200Y50337100D01*
X29666880Y50469270D01*
X29558130Y50568820D01*
X29420710Y50622210D01*
X29273280D01*
X29135860Y50568820D01*
X29027110Y50469270D01*
X28961800Y50337100D01*
X28951400Y50300000D01*
X28173900D01*
X28161400Y50333000D01*
X28075950Y50468680D01*
X27944090Y50559920D01*
X27787000Y50592050D01*
X27629900Y50559920D01*
X27498040Y50468680D01*
X27412600Y50333000D01*
X27400100Y50300000D01*
X27262100D01*
X26700000Y50862100D01*
Y52386200D01*
G37*
D10*
X90380000Y29660800D02*
X91650000D01*
Y30304200D01*
X91650000Y31470500D02*
X90380000D01*
X91290200Y30875400D01*
Y31679600D01*
%LPC*%
D11*
X5097000Y16479000D03*
Y18779000D03*
X5747000Y22524000D03*
X6697000Y24529000D03*
X5102000Y24436500D03*
X5079200Y24458900D03*
X5097000Y26229000D03*
Y29179000D03*
Y28029000D03*
Y30279000D03*
Y32129000D03*
X5647000Y34829000D03*
X5102000Y33961500D03*
Y35866500D03*
Y37771500D03*
Y39676500D03*
X5047000Y41079000D03*
X5297000Y46829000D03*
X6057000Y50079000D03*
X6097000Y51679000D03*
Y53029000D03*
X6547000Y55919000D03*
X6377500Y57290000D03*
X6747000Y71879000D03*
X6397000Y70379000D03*
X7007000Y15579000D03*
X7977200Y18939300D03*
X7097000Y17479000D03*
X8497000Y17429000D03*
X7007000Y19669000D03*
Y21569000D03*
X9037900Y21190300D03*
X8497000Y20379000D03*
X6997000Y23479000D03*
X7797000Y24529000D03*
X8447000Y43479000D03*
X8347000Y48279000D03*
X6847000Y47679000D03*
X8347000Y50329000D03*
X6797000Y48979000D03*
X8347000Y52279000D03*
X9347000Y57240000D03*
X8697000Y69229000D03*
X8500000Y71979000D03*
X8147000Y75879000D03*
X11347000Y9879000D03*
X9547000Y9329000D03*
X11697000Y17729000D03*
X11947000Y18679000D03*
X11317000Y19849000D03*
X11247000Y21129000D03*
Y22449000D03*
X11547000Y27729000D03*
X11647000Y28929000D03*
Y31779000D03*
X11047000Y31079000D03*
X11397000Y33499000D03*
X11647000Y37779000D03*
X10597000Y40329000D03*
X9929300Y41229000D03*
X10547000Y42079000D03*
X11947000Y44129000D03*
X9697000Y43479000D03*
X11347000Y50279000D03*
X10347000Y52279000D03*
X11324300Y52301700D03*
Y53301700D03*
X10347000Y56379000D03*
X11347000D03*
Y55279000D03*
X9797000Y66729000D03*
X11647000D03*
X13509500Y7066500D03*
X13299000Y11927000D03*
X13497000Y19029000D03*
X14647000Y17679000D03*
X14547000Y19629000D03*
X14597000Y25429000D03*
X13327000Y28299000D03*
X13747000Y31529000D03*
X12297000Y34149300D03*
X13947000Y36929000D03*
X12197000Y36679000D03*
X12947000Y40329000D03*
X13247000Y48329000D03*
X13347000Y53279000D03*
Y52279000D03*
X12347000Y55279000D03*
X13347000D03*
X12722000Y58579000D03*
X14309500Y58616500D03*
X12722000Y59579000D03*
X14497000Y63879000D03*
Y64929000D03*
X14147000Y66979000D03*
X13147000Y78229000D03*
X16849500Y4300500D03*
X14944500Y9381500D03*
X16497000Y9329000D03*
X15847000Y17629000D03*
X14797000Y20729000D03*
X17047000Y20629000D03*
X15847000Y20929000D03*
X15747000Y19229000D03*
X14897000Y24229000D03*
X17031300Y25150800D03*
X16297000Y25579000D03*
X16797000Y28129000D03*
X16597000Y30379000D03*
X15047000Y33079000D03*
X14847000Y36829000D03*
X14947000Y43529000D03*
X15047000Y50129000D03*
X16297000Y48779000D03*
X17133700Y50471400D03*
X16447000Y52429000D03*
X15312900Y51244700D03*
X15847000Y55629000D03*
X15579500Y66111500D03*
X17167000Y67709000D03*
X14847000Y69679000D03*
X15579500Y68729000D03*
X15447000Y71917000D03*
X15797000Y73329000D03*
X16250000Y75929000D03*
X16947000Y80829000D03*
X17147000Y82329000D03*
X15579500Y83329000D03*
X19338000Y8039000D03*
X19645000Y11927000D03*
X18451100Y18515500D03*
X17547000Y18479000D03*
X18747000Y16679000D03*
X19047000Y20729000D03*
X18047000Y20679000D03*
X18647000Y19579000D03*
X19597000Y23279000D03*
X17897000Y22079000D03*
X19647000Y22279000D03*
X17797000Y26654000D03*
X19771300Y24629000D03*
X18497000Y32429000D03*
X18147000Y30179000D03*
X17647000Y34729000D03*
X17697000Y33529000D03*
X18747000Y33504000D03*
X19897000Y36179000D03*
X17897000Y37679000D03*
X18097000Y36729000D03*
X19583500Y39588600D03*
X17847000Y41729000D03*
X19747000D03*
X19647000Y44079000D03*
X17797000Y46979000D03*
X19897000Y52579000D03*
Y51579000D03*
X18697000Y53979000D03*
X17513600Y56695600D03*
X18697000Y61929000D03*
X19747000Y63179000D03*
X18542000Y64124000D03*
X17997000Y66702000D03*
X19897000Y67729000D03*
X18754500Y71929000D03*
X19197000Y75179000D03*
X19072000Y73014000D03*
X19307000Y79279000D03*
X18147000Y82179000D03*
X18754500Y83379000D03*
X20500000Y6850000D03*
Y11350000D03*
X20772000Y13479000D03*
X22002000Y16184000D03*
X20247000Y21079000D03*
X22747000Y20279000D03*
X21147000Y22079000D03*
X22197000D03*
X21997000Y24229000D03*
X21108000Y25418000D03*
X20897000Y27029000D03*
X21347000Y29429000D03*
X21637400Y28040000D03*
X20147000Y27929000D03*
X21297000Y30529000D03*
X22447000Y34129000D03*
X22097000Y37179000D03*
X22147000Y36229000D03*
X22447000Y35229000D03*
X21547000Y42379000D03*
X22397000Y45079000D03*
X20647000Y48129000D03*
X21313900Y47139000D03*
X22575000Y47157000D03*
X22447000Y46079000D03*
X21647000Y50579000D03*
X21797000Y49079000D03*
X21097000Y49879000D03*
X21447000Y53879000D03*
X21147000Y51579000D03*
X21097000Y56029000D03*
X22047000Y57229000D03*
X21997000Y69179000D03*
X22042100Y70292800D03*
X21929500Y74919000D03*
X20977000Y73014000D03*
X21397000Y79279000D03*
X20342000Y83379000D03*
X24197000Y8929000D03*
X25197000Y11279000D03*
X25397000Y13379000D03*
X23597000Y19129000D03*
X25297000Y23179000D03*
X24297000Y25779000D03*
X24397000Y24679000D03*
X23199300Y25784000D03*
X24396400Y27400000D03*
X24486000Y29318000D03*
X25397000Y29629000D03*
X22872000Y31654000D03*
X24897000Y30479000D03*
X25297000Y33529000D03*
X24997000Y34629000D03*
X24447000Y36729000D03*
X23147000Y37229000D03*
X24152000Y39676500D03*
X23047000Y41679000D03*
X23977000Y47652000D03*
X25247000D03*
X22847000Y49029000D03*
X23947000D03*
X25247000Y50192000D03*
X23897000Y52579000D03*
X25247000Y51429000D03*
X23977000Y51462000D03*
X22947000Y52829000D03*
X23977000Y56542000D03*
X25247000Y57812000D03*
X23977000D03*
X24600000Y59700000D03*
Y62250000D03*
X23350000D03*
X25247000Y66702000D03*
X23977000D03*
X25247000Y65432000D03*
X23997000Y67979000D03*
X23197000Y68829000D03*
X25247000Y67972000D03*
X23647000Y70129000D03*
X23997000Y73429000D03*
X22882000Y73014000D03*
X22847000Y79279000D03*
X24238600Y79186200D03*
X25159000Y80817000D03*
X23247000Y80729000D03*
X23517000Y83429000D03*
X26997000Y7679000D03*
X26147000Y8679000D03*
X27647000Y8629000D03*
X28027000Y17249000D03*
X25547000Y18229000D03*
X27997000Y21194000D03*
X26897000Y21579000D03*
Y20529000D03*
X27047000Y19429000D03*
X27147000Y23579000D03*
X28097000Y25229000D03*
X25960100Y25787800D03*
X26747000Y28329000D03*
X27047000Y29639000D03*
X27027000Y34799000D03*
X27934000Y39763100D03*
X26057000Y39676500D03*
X27947000Y41479000D03*
X27797000Y47679000D03*
X27787000Y50192000D03*
X26497000Y52732000D03*
X26517000Y55272000D03*
X27797000Y55279000D03*
X26497000Y56529000D03*
X25866300Y59733700D03*
X27797000Y64129000D03*
X26517000Y66702000D03*
Y65432000D03*
X27787000Y66702000D03*
X26569700Y69435100D03*
X27787000Y67972000D03*
X26517000D03*
X25897000Y74229000D03*
X27247000Y75779000D03*
X27962000Y80129000D03*
X28914500Y5311500D03*
X28597000Y7579000D03*
X30597000Y8379000D03*
X29247000Y8579000D03*
X30197000Y12779000D03*
X29897000Y16179000D03*
X30747000Y16229000D03*
X28797000Y14979000D03*
X30197000Y21029000D03*
X28247000Y23529000D03*
X30747000Y23279000D03*
X29658600Y22267400D03*
X28147000Y28949000D03*
Y27579000D03*
Y31979000D03*
X30797000Y30429000D03*
X28147000Y33499000D03*
X30297000Y33504000D03*
X30147000Y36879000D03*
X28527500Y36240000D03*
X30247000Y42929000D03*
X29057000Y45112000D03*
Y46382000D03*
X29347000Y50229000D03*
X30197000Y49579000D03*
X30047000Y58447000D03*
X28797000Y57772000D03*
X30327000Y64162000D03*
Y66702000D03*
X28247000Y69429000D03*
X29847000D03*
X29047000Y67979000D03*
X30750000Y77976000D03*
X28697000Y82779000D03*
X30547000D03*
X30819500Y5279000D03*
X31197000Y7379000D03*
X32147000Y13329000D03*
X32497000Y17729000D03*
X31694500Y21399000D03*
X32697000Y22879000D03*
X31847000Y24479000D03*
X31797000Y26429000D03*
Y28379000D03*
X32497000Y29429000D03*
X31147000Y31479000D03*
X32197000Y30479000D03*
X31100000Y34900000D03*
X30847000Y37779000D03*
X33347000Y35950000D03*
X31497000Y36879000D03*
X31264000Y39746000D03*
X32847000Y38079000D03*
X31614000Y45329000D03*
X32847000Y45129000D03*
X31597000Y43842000D03*
X32597000Y51329000D03*
X33040000Y55272000D03*
X33070000Y54002000D03*
X33060000Y56542000D03*
X33147000Y57812000D03*
X31718900Y59979000D03*
X32347000Y60729000D03*
X32147000Y62179000D03*
X31597000Y66729000D03*
Y65432000D03*
X32867000D03*
Y66702000D03*
X31597000Y67972000D03*
Y72329000D03*
X33247000Y73579000D03*
X31247000Y76879000D03*
X32250000Y76929000D03*
X31250000Y79479000D03*
X32297000Y79279000D03*
X32347000Y82779000D03*
X33597000Y12929000D03*
X33547000Y16229000D03*
X33946900Y14299000D03*
X35547000Y13954000D03*
X35583500Y16249000D03*
X34497000Y21229000D03*
X33797000Y20429000D03*
X33947000Y26429000D03*
X35797000Y25429000D03*
Y32429000D03*
Y31429000D03*
X34797000Y32429000D03*
X35797000Y33429000D03*
X34797000D03*
X33550000Y33250000D03*
X34947000Y39676500D03*
X34059200Y38591200D03*
X35797000Y42429000D03*
X34047000Y42479000D03*
X34137000Y52589000D03*
X35407000Y52639000D03*
X34137000Y58969000D03*
X35407000Y58939000D03*
X34147000Y66679000D03*
X34137000Y65432000D03*
X35407000Y66702000D03*
X34397000Y69429000D03*
X35407000Y67972000D03*
X36122000Y73331500D03*
X35997000Y82779000D03*
X34147000D03*
X36468000Y5450000D03*
X36647000Y7579000D03*
X38647000Y12029000D03*
X36897000Y12079000D03*
X37499500Y16181500D03*
X36716900Y24400400D03*
X37797000Y23429000D03*
Y24429000D03*
Y26429000D03*
Y25429000D03*
X36797000D03*
Y29429000D03*
X38797000Y32429000D03*
X37797000D03*
X36797000Y31429000D03*
X37797000D03*
Y34379000D03*
X38797000Y34429000D03*
X36797000Y33429000D03*
X36497000Y37079000D03*
X38547000Y37129000D03*
X36450000Y35550000D03*
X37797000Y35429000D03*
X37497000Y37029000D03*
X36852000Y39676500D03*
X38757000D03*
X37747000Y42429000D03*
X36677000Y52699000D03*
X37947000Y58979000D03*
X36677000Y58959000D03*
Y65432000D03*
X37947000Y66702000D03*
X36147000Y69479000D03*
X37897000D03*
X37147000Y71979000D03*
X36847000Y74429000D03*
X37747000Y74729000D03*
X38535000Y81891000D03*
X37797000Y82779000D03*
X41297000Y11927000D03*
X41047000Y15979000D03*
X39647000Y21079000D03*
X39497000Y19229000D03*
X40697000Y22379000D03*
X40748600Y23427200D03*
X39397000Y22379000D03*
X39797000Y24429000D03*
X40797000D03*
X40891500Y27142100D03*
X39747000Y26429000D03*
X39797000Y29429000D03*
X40800000Y28429000D03*
X40662000Y39676500D03*
X39074500Y42379000D03*
X40797000Y42329000D03*
X40497000Y43879000D03*
X39226400Y45093500D03*
X39197000Y46379000D03*
X38997000Y49979000D03*
X39897000Y50029000D03*
X39010000Y56542000D03*
X39020000Y54002000D03*
X39040000Y55272000D03*
X39217000Y65432000D03*
Y66702000D03*
Y68009000D03*
X39347000Y70879000D03*
X39497000Y73579000D03*
X41247000Y79079000D03*
X41397000Y82779000D03*
X39597000D03*
X42697000Y11929000D03*
X43497000Y16279000D03*
X44097000Y16979000D03*
X44047000Y18829000D03*
X43797000Y21429000D03*
X41897000Y19329000D03*
X43797000Y24429000D03*
Y23429000D03*
X41797000Y22429000D03*
X42747000Y22379000D03*
X41797000Y25429000D03*
X42748900Y26430500D03*
X42797000Y28429000D03*
X43797000D03*
X41750000Y28424000D03*
X43797000Y31429000D03*
Y32429000D03*
X41797000Y30429000D03*
X43797000Y33429000D03*
X43837000Y37069000D03*
X42567000Y39676500D03*
X42547000Y38579000D03*
X42447000Y42379000D03*
X43837000Y42389000D03*
X42987000Y45079000D03*
X41697000Y45112000D03*
X41757000Y46382000D03*
X43047000Y64129000D03*
X43049500Y65447000D03*
Y66717000D03*
X41779500Y65447000D03*
X43199500Y67939000D03*
X42597000Y73379000D03*
X44347000Y11929000D03*
X45547000Y16334000D03*
X45397000Y18829000D03*
X44797000Y17479000D03*
X45967000Y17729000D03*
X44797000Y21429000D03*
X46797000Y22429000D03*
X44797000Y23429000D03*
X45718700Y23456100D03*
X45797000Y22390700D03*
X44797000Y25429000D03*
Y26429000D03*
X45797000Y25429000D03*
Y26429000D03*
X46797000D03*
X45797000Y29429000D03*
X46797000D03*
Y28429000D03*
X44797000Y29429000D03*
X45797000Y27429000D03*
Y28429000D03*
X44797000Y27429000D03*
X46797000D03*
X44797000Y28429000D03*
Y30429000D03*
X45797000D03*
X46797000Y31429000D03*
X44797000D03*
X46797000Y30429000D03*
X44797000Y32429000D03*
X45797000Y33429000D03*
X46797000Y34429000D03*
X45797000D03*
X44797000Y33429000D03*
Y35429000D03*
X45797000Y36300000D03*
X46797000Y35429000D03*
X45447000Y37629000D03*
X44397000Y39679000D03*
X45424500Y42351500D03*
X44297000Y46382000D03*
X45567000D03*
X45516000Y47701000D03*
X44297000Y47679000D03*
X45516000Y48971000D03*
Y50241000D03*
X44246000D03*
X45516000Y51511000D03*
Y52781000D03*
X44246000D03*
X45516000Y54051000D03*
Y55321000D03*
X44246000D03*
X45516000Y56591000D03*
X44297000Y57810000D03*
X45567000D03*
Y59080000D03*
Y60350000D03*
X44297000D03*
X45567000Y61620000D03*
Y62890000D03*
Y64160000D03*
X44297000Y66700000D03*
Y65430000D03*
X45567000D03*
X44619500Y67939000D03*
X47997000Y10129000D03*
X49047000Y10079000D03*
X47344500Y16181500D03*
X49244500D03*
X47397000Y17329000D03*
X48347000Y17379000D03*
X49244500Y18729000D03*
X47697000Y19079000D03*
X47597000Y20979000D03*
X48797000Y21429000D03*
X47947000Y22029000D03*
X46947000Y23479000D03*
X47747000Y24429000D03*
X47797000Y29429000D03*
X48100000Y27600000D03*
X47797000Y30429000D03*
X47957900Y32293100D03*
X48797000Y31429000D03*
Y32429000D03*
Y34429000D03*
X47649900Y33591800D03*
X47797000Y34429000D03*
Y36200000D03*
X48282000Y39676500D03*
X46997000Y40829000D03*
X48697000Y40929000D03*
X48107000Y43842000D03*
X48097000Y46429000D03*
X49319500Y59739000D03*
X47919500Y68139000D03*
X49369500Y69539000D03*
Y70589000D03*
X49400000Y76350000D03*
X48747000Y82929000D03*
X52050000Y5482000D03*
X50197000Y4879000D03*
X50822000Y8404000D03*
X50847000Y16181500D03*
X51597000Y17129000D03*
X50547000Y21429000D03*
X49747000Y22479000D03*
X51947000Y22929000D03*
X49797000Y25029000D03*
X50347000Y25979000D03*
X51911900Y27157400D03*
X49650000Y28350000D03*
X51147000Y30229000D03*
X50347000Y30929000D03*
X50377500Y34450000D03*
X50397000Y35829000D03*
X51897000Y40829000D03*
X50297000D03*
X51969500Y61389000D03*
X50469500Y61089000D03*
X52069500Y63019600D03*
X52019500Y64239000D03*
X51319500Y63739000D03*
X50369500Y62209300D03*
X50919500Y62989000D03*
X51608100Y64982900D03*
X50919500Y65589000D03*
X50175300Y66491800D03*
X50419500Y67306000D03*
X49719500Y67856000D03*
X50069500Y68939000D03*
X50119500Y70089000D03*
X51147000Y79079000D03*
X51447000Y82629000D03*
X54314500Y6746500D03*
X52727000Y6759000D03*
X52497000Y8429000D03*
X54314500Y8396500D03*
X52497000Y10329000D03*
X53047000Y18229000D03*
X54297000Y27129000D03*
X52997000Y25629000D03*
X53047000Y27079000D03*
X52847000Y30904000D03*
X53097000Y33429000D03*
X54500000Y34700000D03*
X52647000Y43279000D03*
X52619500Y52139000D03*
X54469500Y53439000D03*
X54319500Y55839000D03*
X52669500Y57717500D03*
X53219500Y60239000D03*
X52469500Y59439000D03*
X53447000Y61479000D03*
X54469500Y60089000D03*
X54719500Y67639000D03*
X54769500Y69439000D03*
X53479000Y82629000D03*
X54495000D03*
X52463000D03*
X55147000Y5479000D03*
X55902000Y6874000D03*
X55550000Y10076000D03*
X56697000Y10079000D03*
X55597000Y18729000D03*
X56347000Y18279000D03*
X55382000Y22214000D03*
X55197000Y24329000D03*
X55547000Y25779000D03*
X57453000Y26279000D03*
X55947000Y27229000D03*
X55369500Y66539000D03*
X56719500Y65189000D03*
X56369500Y66239000D03*
X56269500Y67589000D03*
X56469500Y69039000D03*
X55378000Y70039000D03*
X55247000Y74284000D03*
X55511000Y82629000D03*
X56527000D03*
X58297000Y5129000D03*
X59597000D03*
X57489500Y6771500D03*
X59077000Y6749000D03*
X57547000Y8379000D03*
X58097000Y21029000D03*
X58915500Y23528400D03*
X59897000Y25129000D03*
X60047000Y28679000D03*
Y31129000D03*
X58722000Y31104000D03*
X58197000Y36779000D03*
X57869500Y64289000D03*
X57547000Y75179000D03*
X58696000Y82378000D03*
X60664500Y6861500D03*
X60747000Y8429000D03*
X62252000Y6874000D03*
X62294000Y8482000D03*
X61297000Y15479000D03*
X62597000Y25879000D03*
X62447000Y24579000D03*
X62747000Y31329000D03*
X61347000Y33129000D03*
X62200000Y35450000D03*
X62584500Y42989000D03*
X62269500Y45239000D03*
X62217800Y43774300D03*
X62669500Y46139000D03*
X61419500Y47639000D03*
X61890900Y50710400D03*
X60519500Y50389000D03*
X62419500Y60139000D03*
X62519500Y61112000D03*
X62420100Y63042800D03*
X62307600Y61935200D03*
X62369500Y64462800D03*
X61930200Y65475200D03*
X60169500Y65789000D03*
X61169500Y69088000D03*
X62369500Y68439000D03*
X61986000Y69659500D03*
X60213000Y73200000D03*
X60447000Y81879000D03*
X60347000Y80879000D03*
X63697000Y5079000D03*
X63839500Y6871500D03*
X63797000Y8479000D03*
X65427000Y6809000D03*
X63547000Y10079000D03*
X64122000Y16654000D03*
X63447000Y17829000D03*
X63197000Y19829000D03*
X65447000Y21579000D03*
X63197000Y27079000D03*
X63397000Y25179000D03*
X65046900Y29078900D03*
X65447000Y31079000D03*
X64747000Y37979000D03*
X63877900Y43161400D03*
X64869500Y45739000D03*
X63619500Y45089000D03*
X64619500Y48349000D03*
X63269500Y49789000D03*
X64769500Y50139000D03*
X63469500Y53589000D03*
X64633400Y52589000D03*
X63319500Y52252000D03*
X64569500Y51339000D03*
X65419500Y51226700D03*
X64920500Y60047800D03*
X63669500Y60089000D03*
X63744500Y62089000D03*
X64619500Y65939000D03*
X62919500Y65289000D03*
X63169500Y67352000D03*
X64769500Y70338000D03*
X66550000Y5132000D03*
X67014500Y6796500D03*
X65997000Y10279000D03*
X67647000Y10379000D03*
X66947000Y13429000D03*
X68047000Y21779000D03*
X66597000Y25179000D03*
X67547000Y25879000D03*
X66056600Y26315500D03*
X67459000Y27267000D03*
X67347000Y31529000D03*
X65647000Y34329000D03*
X66897000Y34129000D03*
X65847000Y33429000D03*
X67100000Y36976000D03*
X67697000Y36279000D03*
X66300000Y36479000D03*
X65681900Y43188400D03*
X66669500Y42439000D03*
X67619500Y41889000D03*
X65569500Y44239000D03*
Y47989000D03*
X65621500Y47011200D03*
X66238100Y49316100D03*
X66127200Y50218900D03*
X68069500Y51539000D03*
X67669500Y52689000D03*
X67769500Y53839000D03*
X67419500Y62089000D03*
X65819500Y61939000D03*
X66567900Y62985900D03*
X67319500Y63989800D03*
X66419500Y64614000D03*
X65469500Y65939000D03*
X67219500Y66339000D03*
X67019500Y67889000D03*
X65542000Y68135500D03*
X65913000Y73213000D03*
X66947000Y82629000D03*
X70189500Y8386500D03*
X68622000Y8454000D03*
X69647000Y6779000D03*
X68602000Y6874000D03*
X70797000Y10379000D03*
X68300000Y18082000D03*
X68847000Y16679000D03*
X69647000Y18579000D03*
X69397000Y21279000D03*
X70347000Y20829000D03*
X69297000Y24279000D03*
X68147000Y22829000D03*
X69335000Y25841000D03*
X69285000Y28841000D03*
X69335000Y30317000D03*
X69309000Y31841000D03*
X68297000Y34029000D03*
X69597000Y36079000D03*
X69219500Y45289000D03*
X68748000Y43252000D03*
X68646000Y48208300D03*
X70519500Y48139000D03*
X68667900Y47090800D03*
X70319500Y46239000D03*
X68788400Y49309100D03*
X68907700Y50397000D03*
X70669500Y49289000D03*
X70269500Y51289000D03*
X69569500Y53252000D03*
X69969500Y57639000D03*
X69085400Y58654900D03*
X68719500Y59839000D03*
X68669500Y60939000D03*
X70394600Y61092400D03*
X70523500Y62939000D03*
X68719500Y64139000D03*
X68869500Y66040000D03*
X69866900Y66052700D03*
X69469500Y68189000D03*
X69819500Y70539000D03*
X68769500Y70489000D03*
X69872000Y79554000D03*
X71100000Y34032000D03*
X72847000Y36379000D03*
X71197000Y38429000D03*
X71500000Y41800000D03*
X73219500Y44502000D03*
X71671000Y47217000D03*
X71819500Y50252000D03*
X70819500Y52252000D03*
X71219500Y58089000D03*
X71919500Y59989000D03*
X72171800Y61093200D03*
X71669500Y64079500D03*
X71619500Y62079500D03*
X71169500Y66889000D03*
X71419500Y69139000D03*
X71584500Y73966500D03*
X71547000Y82529000D03*
X72563000D03*
X75097000Y32029000D03*
X75350000Y42550000D03*
X74250000Y45250000D03*
X74719500Y49639000D03*
X75619500Y51189000D03*
X75747000Y55177000D03*
X75400000Y62100000D03*
X75719500Y66439000D03*
X75611000Y82529000D03*
X74595000D03*
X73579000D03*
X77197000Y5079000D03*
X77947000Y18229000D03*
X76700000Y16629000D03*
X76426000Y21850000D03*
X76449100Y20789600D03*
X78126000Y23800000D03*
X76497000Y23000000D03*
X78126000Y27000000D03*
X77526000Y26200000D03*
X78076000Y25400000D03*
X77476000Y24600000D03*
X77518000Y27800000D03*
X77626000Y31800000D03*
X78076000Y31000000D03*
X77397000Y34979000D03*
X76197000Y35829000D03*
X78397000Y38406500D03*
X78250000Y42700000D03*
X76706100Y43954900D03*
X77600000Y44850000D03*
X76706500Y46252000D03*
X76850600Y48473500D03*
X77218500Y50253500D03*
X78686500Y50228500D03*
Y53340000D03*
X78694000Y52170300D03*
X77019500Y51739000D03*
Y64389000D03*
X77619500Y62089000D03*
X77099000Y66421000D03*
X77734000Y70612000D03*
X78659000Y82529000D03*
X77643000D03*
X76627000D03*
X79079500Y9661500D03*
X80889500Y12371500D03*
X79876000Y20200000D03*
X78918000Y21000000D03*
X81047000Y21850000D03*
X78918000Y22600000D03*
X80847000Y23421000D03*
X81047000Y25021000D03*
X78918000Y25800000D03*
Y27400000D03*
X80926000Y28200000D03*
X78918000Y29000000D03*
X80947000Y29821000D03*
X78918000Y30600000D03*
X80997000Y31421000D03*
X78918000Y32200000D03*
X79297000Y35779000D03*
X80850000Y43029900D03*
X81019500Y45380000D03*
X80242200Y44393000D03*
X79369500Y48239000D03*
X79269500Y46389000D03*
X80669500Y47439000D03*
X79536500Y50239600D03*
X80919500Y50192000D03*
X81019500Y51252000D03*
X79543500Y52199700D03*
X81369500Y53252000D03*
X81047000Y55177000D03*
X80869500Y60539000D03*
X79678800Y60143400D03*
X79319500Y64289000D03*
X80950000Y62100000D03*
X79419500Y62039000D03*
X80969500Y63055500D03*
X79819500Y63539000D03*
X79869500Y66146000D03*
X81119500Y66189000D03*
Y67639000D03*
X79469500Y68289000D03*
X81147000Y76879000D03*
X80297000Y76479000D03*
X82897000Y16929000D03*
Y21400000D03*
X82797000Y23029000D03*
X81567500Y26849500D03*
X82597000Y30479000D03*
X81550000Y42100000D03*
X82619500Y45252000D03*
X81519500Y44189000D03*
X83371100Y44190800D03*
X82669500Y48239000D03*
X83619500Y48323500D03*
X81552000Y46389000D03*
X82684000Y47082300D03*
X83569500Y47089000D03*
X81519500Y49252000D03*
X82719500Y50100600D03*
X82669500Y52339000D03*
X82719500Y51239000D03*
X82687000Y58928000D03*
X82666400Y61074500D03*
X83601500Y61032400D03*
X82719500Y64089000D03*
X82687000Y67056000D03*
X83579000Y67079500D03*
X82679000Y68079500D03*
X83560000Y69079500D03*
X81747000Y72129000D03*
X83569500Y70039000D03*
X82687000Y70040500D03*
X85597000Y10729000D03*
X85927000Y26659000D03*
X85897000Y25079000D03*
X85952000Y29834000D03*
X85947000Y28246500D03*
X85954500Y31421500D03*
X85897000Y36579000D03*
X86047000Y38129000D03*
X85500000Y42252000D03*
X84712100Y47012300D03*
X86049000Y55177000D03*
X86219500Y60071000D03*
X85919500Y61087000D03*
X85419500Y59239000D03*
X84338000Y64071500D03*
X85919500Y63055500D03*
X89303000Y36635000D03*
X88021000Y42579000D03*
X87971000Y52850000D03*
X86847000Y61305000D03*
X87767000Y65278000D03*
X86860000Y69088000D03*
X87547000Y72579000D03*
X91247000Y44788400D03*
X91410000Y47752000D03*
X90003000Y52951000D03*
X90051000Y59750000D03*
X91310000Y65278000D03*
X90053000Y70612000D03*
D12*
X9000000Y35100000D03*
D13*
Y14900000D03*
D14*
X4000000Y72500000D03*
X43000000Y4000000D03*
X91000000Y72500000D03*
D15*
X5000000Y5000000D03*
Y82500000D03*
X90000000Y5000000D03*
Y82500000D03*
D16*
X32897000Y24504800D03*
X37597000Y18731500D03*
X38748600Y26427200D03*
X37947000Y48779000D03*
X39797000Y25429000D03*
X41147000Y48729000D03*
X39597000D03*
X39997000Y52029000D03*
X63569500Y63509000D03*
X65469500Y41689000D03*
X79700000Y42100000D03*
X79560000Y53300000D03*
X83499500Y45252000D03*
Y43252000D03*
X8741000Y24421900D03*
X8781200Y28384200D03*
X8947000Y32600000D03*
X8632500Y56164500D03*
X11452000Y12224000D03*
X9647000Y36579000D03*
X10497000Y44929000D03*
X10297000Y51279000D03*
X11347000Y54279000D03*
X11597000Y70829000D03*
X12449000Y6600000D03*
X13421900Y30229000D03*
X13997000Y34479000D03*
X12798100Y66219500D03*
X13616500Y75109500D03*
X15348600Y53280800D03*
X16997000Y54879000D03*
X15579500Y79879000D03*
X16750000Y78879000D03*
X18047000Y15179000D03*
X19368500Y18185200D03*
X18347000Y47929000D03*
X18497000Y59879000D03*
X21585000Y40817000D03*
X20307700Y79865500D03*
X24047000Y13329000D03*
X24347000Y18229000D03*
X24897000Y38929000D03*
X24197000Y40879000D03*
X23517000Y71909000D03*
X27787000Y48922000D03*
X27797000Y51479000D03*
Y56529000D03*
Y54029000D03*
X29150000Y17700000D03*
X28597000Y38829000D03*
X29347000Y48729000D03*
X28279500Y72029000D03*
X31600800Y47627100D03*
X31147000Y48900000D03*
X31447000Y75779000D03*
X31397000Y80429000D03*
X34797000Y31429000D03*
X35397000Y47679000D03*
X34097000Y47629000D03*
X35397000Y64179000D03*
X34147000D03*
X36047000Y72029000D03*
X35147000Y78929000D03*
X38797000Y29429000D03*
X38547000Y36179000D03*
X36677000Y64159000D03*
X39797000Y30429000D03*
X39247000Y47639000D03*
X43705500Y7037500D03*
X43797000Y29429000D03*
X41747000Y64179000D03*
X41997000Y71729000D03*
X45424500Y39875500D03*
X44297000Y48929000D03*
X44246000Y51511000D03*
Y54051000D03*
Y56591000D03*
X44297000Y59080000D03*
Y61620000D03*
Y64160000D03*
Y62890000D03*
X48009000Y81741000D03*
X50822000Y10254000D03*
X51937000Y19039000D03*
X51900000Y29316500D03*
X50347000Y32429000D03*
X51147000Y37179000D03*
X50587000Y44469000D03*
X49552000Y74284000D03*
X53933500Y16765500D03*
X53481500Y71594500D03*
X59947000Y22879000D03*
X60097000Y27229000D03*
X58797000Y33379000D03*
X57497000Y74029000D03*
X60168000Y32200000D03*
X62647000Y37979000D03*
X62619500Y41839000D03*
X64963500Y43642800D03*
X63969500Y47483500D03*
X63760100Y58943600D03*
X65019500Y61133100D03*
X68047000Y20824000D03*
X65919500Y53789000D03*
X65650000Y58923500D03*
X65719500Y63039000D03*
Y70539000D03*
X68097000Y80979000D03*
X70649000Y55177000D03*
X70469500Y59939000D03*
X68843900Y62037900D03*
X69197000Y80979000D03*
X73025000Y6847000D03*
X71140000Y21473200D03*
X72719500Y42989000D03*
X70819500Y45239000D03*
X71297000Y75629000D03*
X74358000Y9768000D03*
X74147000Y36629000D03*
X75777500Y37279000D03*
X76700000Y41800000D03*
X78800000Y44100000D03*
X77769500Y47239000D03*
X78497000Y55177000D03*
X77819500Y58789000D03*
X77641000Y60806700D03*
X77819500Y63239000D03*
X79547000Y19079000D03*
X79519500Y58639000D03*
X79469500Y70139000D03*
X81647000Y19483500D03*
X82219500Y54179000D03*
X83519500Y59939000D03*
X82719500Y62239000D03*
X84247000Y27629000D03*
X89277000Y13959000D03*
X89329500Y21896500D03*
X89417000Y26659000D03*
X87797000Y48879000D03*
X87697000Y62879000D03*
X87447000Y78779000D03*
X89489500Y31421500D03*
X27787000Y59082000D03*
Y61622000D03*
Y62892000D03*
X28947600Y64054100D03*
X32747000Y62979000D03*
X42797000Y30429000D03*
X44797000Y34429000D03*
X37947000Y64179000D03*
X39197000D03*
X43797000Y26429000D03*
X42797000Y25429000D03*
X46747000Y18829000D03*
X50424100Y23921600D03*
M02*