%TF.GenerationSoftware,KiCad,Pcbnew,8.99.0-365-g44b970c8f2-dirty*%
%TF.CreationDate,2024-03-12T13:01:39+01:00*%
%TF.ProjectId,li-ion_charger,6c692d69-6f6e-45f6-9368-61726765722e,04*%
%TF.SameCoordinates,Original*%
%TF.FileFunction,Paste,Top*%
%TF.FilePolarity,Positive*%
%FSLAX46Y46*%
G04 Gerber Fmt 4.6, Leading zero omitted, Abs format (unit mm)*
G04 Created by KiCad (PCBNEW 8.99.0-365-g44b970c8f2-dirty) date 2024-03-12 13:01:39*
%MOMM*%
%LPD*%
G01*
G04 APERTURE LIST*
G04 Aperture macros list*
%AMRoundRect*
0 Rectangle with rounded corners*
0 $1 Rounding radius*
0 $2 $3 $4 $5 $6 $7 $8 $9 X,Y pos of 4 corners*
0 Add a 4 corners polygon primitive as box body*
4,1,4,$2,$3,$4,$5,$6,$7,$8,$9,$2,$3,0*
0 Add four circle primitives for the rounded corners*
1,1,$1+$1,$2,$3*
1,1,$1+$1,$4,$5*
1,1,$1+$1,$6,$7*
1,1,$1+$1,$8,$9*
0 Add four rect primitives between the rounded corners*
20,1,$1+$1,$2,$3,$4,$5,0*
20,1,$1+$1,$4,$5,$6,$7,0*
20,1,$1+$1,$6,$7,$8,$9,0*
20,1,$1+$1,$8,$9,$2,$3,0*%
G04 Aperture macros list end*
%ADD10R,0.400000X1.200000*%
%ADD11RoundRect,0.249999X-0.737501X-2.450001X0.737501X-2.450001X0.737501X2.450001X-0.737501X2.450001X0*%
%ADD12RoundRect,0.250000X0.450000X-0.262500X0.450000X0.262500X-0.450000X0.262500X-0.450000X-0.262500X0*%
%ADD13RoundRect,0.250000X-0.250000X-0.475000X0.250000X-0.475000X0.250000X0.475000X-0.250000X0.475000X0*%
%ADD14RoundRect,0.250000X0.537500X1.450000X-0.537500X1.450000X-0.537500X-1.450000X0.537500X-1.450000X0*%
%ADD15R,0.914400X0.914400*%
%ADD16RoundRect,0.250000X-0.262500X-0.450000X0.262500X-0.450000X0.262500X0.450000X-0.262500X0.450000X0*%
%ADD17RoundRect,0.250000X1.075000X-0.400000X1.075000X0.400000X-1.075000X0.400000X-1.075000X-0.400000X0*%
%ADD18RoundRect,0.250000X1.125000X-1.275000X1.125000X1.275000X-1.125000X1.275000X-1.125000X-1.275000X0*%
%ADD19RoundRect,0.250000X0.350000X-0.850000X0.350000X0.850000X-0.350000X0.850000X-0.350000X-0.850000X0*%
%ADD20RoundRect,0.250000X-0.325000X-1.100000X0.325000X-1.100000X0.325000X1.100000X-0.325000X1.100000X0*%
%ADD21RoundRect,0.150000X-0.725000X-0.150000X0.725000X-0.150000X0.725000X0.150000X-0.725000X0.150000X0*%
%ADD22R,1.778000X2.159000*%
%ADD23R,5.080000X2.540000*%
%ADD24RoundRect,0.200000X0.275000X-0.200000X0.275000X0.200000X-0.275000X0.200000X-0.275000X-0.200000X0*%
%ADD25RoundRect,0.250000X-0.537500X-1.450000X0.537500X-1.450000X0.537500X1.450000X-0.537500X1.450000X0*%
%ADD26RoundRect,0.250000X0.262500X0.450000X-0.262500X0.450000X-0.262500X-0.450000X0.262500X-0.450000X0*%
%ADD27R,2.540000X1.143000*%
%ADD28R,2.540000X1.016000*%
%ADD29R,1.143000X2.540000*%
%ADD30R,1.016000X2.540000*%
%ADD31R,1.193800X1.498600*%
%ADD32RoundRect,0.200000X-0.275000X0.200000X-0.275000X-0.200000X0.275000X-0.200000X0.275000X0.200000X0*%
%ADD33RoundRect,0.150000X0.150000X-0.587500X0.150000X0.587500X-0.150000X0.587500X-0.150000X-0.587500X0*%
%ADD34RoundRect,0.250000X1.100000X-0.325000X1.100000X0.325000X-1.100000X0.325000X-1.100000X-0.325000X0*%
%ADD35RoundRect,0.250000X-1.125000X1.275000X-1.125000X-1.275000X1.125000X-1.275000X1.125000X1.275000X0*%
%ADD36RoundRect,0.250000X-0.350000X0.850000X-0.350000X-0.850000X0.350000X-0.850000X0.350000X0.850000X0*%
%ADD37R,1.150620X0.431800*%
%ADD38R,2.948940X3.599180*%
%ADD39RoundRect,0.250000X0.250000X0.475000X-0.250000X0.475000X-0.250000X-0.475000X0.250000X-0.475000X0*%
%ADD40R,2.999740X2.999740*%
%ADD41RoundRect,0.250000X0.475000X-0.250000X0.475000X0.250000X-0.475000X0.250000X-0.475000X-0.250000X0*%
%ADD42RoundRect,0.250000X-0.450000X0.262500X-0.450000X-0.262500X0.450000X-0.262500X0.450000X0.262500X0*%
%ADD43RoundRect,0.249999X0.737501X2.450001X-0.737501X2.450001X-0.737501X-2.450001X0.737501X-2.450001X0*%
%ADD44RoundRect,0.250000X-1.450000X0.537500X-1.450000X-0.537500X1.450000X-0.537500X1.450000X0.537500X0*%
%ADD45R,0.431800X1.150620*%
%ADD46R,3.599180X2.948940*%
%ADD47RoundRect,0.250000X-0.475000X0.250000X-0.475000X-0.250000X0.475000X-0.250000X0.475000X0.250000X0*%
%ADD48RoundRect,0.150000X0.587500X0.150000X-0.587500X0.150000X-0.587500X-0.150000X0.587500X-0.150000X0*%
%ADD49R,2.159000X1.778000*%
%ADD50RoundRect,0.243750X0.456250X-0.243750X0.456250X0.243750X-0.456250X0.243750X-0.456250X-0.243750X0*%
%ADD51RoundRect,0.250000X0.650000X-0.325000X0.650000X0.325000X-0.650000X0.325000X-0.650000X-0.325000X0*%
%ADD52RoundRect,0.250000X-0.325000X-0.650000X0.325000X-0.650000X0.325000X0.650000X-0.325000X0.650000X0*%
%ADD53R,2.794000X1.270000*%
%ADD54R,1.270000X2.794000*%
%ADD55RoundRect,0.150000X-0.150000X0.725000X-0.150000X-0.725000X0.150000X-0.725000X0.150000X0.725000X0*%
%ADD56R,0.254000X1.524000*%
%ADD57R,1.524000X0.254000*%
G04 APERTURE END LIST*
D10*
%TO.C,U120*%
X124650500Y-76831500D03*
X125285500Y-76831500D03*
X125920500Y-76831500D03*
X126555500Y-76831500D03*
X127190500Y-76831500D03*
X127825500Y-76831500D03*
X128460500Y-76831500D03*
X129095500Y-76831500D03*
X129730500Y-76831500D03*
X130365500Y-76831500D03*
X131000500Y-76831500D03*
X131635500Y-76831500D03*
X131635500Y-71631500D03*
X131000500Y-71631500D03*
X130365500Y-71631500D03*
X129730500Y-71631500D03*
X129095500Y-71631500D03*
X128460500Y-71631500D03*
X127825500Y-71631500D03*
X127190500Y-71631500D03*
X126555500Y-71631500D03*
X125920500Y-71631500D03*
X125285500Y-71631500D03*
X124650500Y-71631500D03*
%TD*%
D11*
%TO.C,C4*%
X92612500Y-111760000D03*
X97887500Y-111760000D03*
%TD*%
D12*
%TO.C,R1*%
X85344000Y-87018500D03*
X85344000Y-85193500D03*
%TD*%
D13*
%TO.C,C1*%
X98618000Y-91059000D03*
X100518000Y-91059000D03*
%TD*%
D14*
%TO.C,C3*%
X97006500Y-85090000D03*
X92731500Y-85090000D03*
%TD*%
D15*
%TO.C,Q100*%
X55935500Y-68837500D03*
X56888000Y-66932500D03*
X57840500Y-68837500D03*
%TD*%
D16*
%TO.C,R100*%
X55983500Y-64770000D03*
X57808500Y-64770000D03*
%TD*%
D17*
%TO.C,R122*%
X116713000Y-70765000D03*
X116713000Y-67665000D03*
%TD*%
D18*
%TO.C,Q121*%
X126655000Y-59275000D03*
X129705000Y-59275000D03*
X126655000Y-55925000D03*
X129705000Y-55925000D03*
D19*
X125900000Y-63900000D03*
X130460000Y-63900000D03*
%TD*%
D20*
%TO.C,C124*%
X110793000Y-60261500D03*
X113743000Y-60261500D03*
%TD*%
D21*
%TO.C,Q122*%
X116678000Y-60261500D03*
X116678000Y-61531500D03*
X116678000Y-62801500D03*
X116678000Y-64071500D03*
X121828000Y-64071500D03*
X121828000Y-62801500D03*
X121828000Y-61531500D03*
X121828000Y-60261500D03*
%TD*%
D22*
%TO.C,D120*%
X121285000Y-55816500D03*
X117221000Y-55816500D03*
%TD*%
D23*
%TO.C,L120*%
X139700000Y-56515000D03*
X139700000Y-66675000D03*
%TD*%
D24*
%TO.C,R123*%
X144907000Y-75120000D03*
X144907000Y-73470000D03*
%TD*%
%TO.C,R124*%
X142875000Y-75120000D03*
X142875000Y-73470000D03*
%TD*%
D17*
%TO.C,R125*%
X152400000Y-81052000D03*
X152400000Y-77952000D03*
%TD*%
D13*
%TO.C,C121*%
X126177000Y-85026500D03*
X128077000Y-85026500D03*
%TD*%
D25*
%TO.C,C120*%
X125370500Y-81216500D03*
X129645500Y-81216500D03*
%TD*%
D15*
%TO.C,Q101*%
X52125500Y-68837500D03*
X53078000Y-66932500D03*
X54030500Y-68837500D03*
%TD*%
D26*
%TO.C,R101*%
X53998500Y-64770000D03*
X52173500Y-64770000D03*
%TD*%
%TO.C,R110*%
X57808500Y-70993000D03*
X55983500Y-70993000D03*
%TD*%
%TO.C,R111*%
X53998500Y-70993000D03*
X52173500Y-70993000D03*
%TD*%
D27*
%TO.C,FI120*%
X141605000Y-80581500D03*
D28*
X141605000Y-82105500D03*
D27*
X141605000Y-83629500D03*
%TD*%
D29*
%TO.C,FI121*%
X166370000Y-72517000D03*
D30*
X164846000Y-72517000D03*
D29*
X163322000Y-72517000D03*
%TD*%
D31*
%TO.C,VR120*%
X162877500Y-69596000D03*
X165290500Y-69596000D03*
%TD*%
D32*
%TO.C,R130*%
X168402000Y-71692000D03*
X168402000Y-73342000D03*
%TD*%
D33*
%TO.C,D121*%
X172151000Y-73200500D03*
X174051000Y-73200500D03*
X173101000Y-71325500D03*
%TD*%
D34*
%TO.C,C128*%
X138938000Y-77611500D03*
X138938000Y-74661500D03*
%TD*%
D10*
%TO.C,U220*%
X124650500Y-114042500D03*
X125285500Y-114042500D03*
X125920500Y-114042500D03*
X126555500Y-114042500D03*
X127190500Y-114042500D03*
X127825500Y-114042500D03*
X128460500Y-114042500D03*
X129095500Y-114042500D03*
X129730500Y-114042500D03*
X130365500Y-114042500D03*
X131000500Y-114042500D03*
X131635500Y-114042500D03*
X131635500Y-108842500D03*
X131000500Y-108842500D03*
X130365500Y-108842500D03*
X129730500Y-108842500D03*
X129095500Y-108842500D03*
X128460500Y-108842500D03*
X127825500Y-108842500D03*
X127190500Y-108842500D03*
X126555500Y-108842500D03*
X125920500Y-108842500D03*
X125285500Y-108842500D03*
X124650500Y-108842500D03*
%TD*%
D15*
%TO.C,Q200*%
X68760500Y-109980500D03*
X67808000Y-111885500D03*
X66855500Y-109980500D03*
%TD*%
D16*
%TO.C,R200*%
X66905500Y-114046000D03*
X68730500Y-114046000D03*
%TD*%
D17*
%TO.C,R222*%
X116713000Y-107912500D03*
X116713000Y-104812500D03*
%TD*%
D18*
%TO.C,Q221*%
X126618000Y-96575000D03*
X129668000Y-96575000D03*
X126618000Y-93225000D03*
X129668000Y-93225000D03*
D19*
X125863000Y-101200000D03*
X130423000Y-101200000D03*
%TD*%
D20*
%TO.C,C224*%
X110793000Y-97409000D03*
X113743000Y-97409000D03*
%TD*%
D21*
%TO.C,Q222*%
X116678000Y-97472500D03*
X116678000Y-98742500D03*
X116678000Y-100012500D03*
X116678000Y-101282500D03*
X121828000Y-101282500D03*
X121828000Y-100012500D03*
X121828000Y-98742500D03*
X121828000Y-97472500D03*
%TD*%
D22*
%TO.C,D220*%
X121285000Y-93027500D03*
X117221000Y-93027500D03*
%TD*%
D24*
%TO.C,R223*%
X144907000Y-112585000D03*
X144907000Y-110935000D03*
%TD*%
%TO.C,R224*%
X142875000Y-112585000D03*
X142875000Y-110935000D03*
%TD*%
D17*
%TO.C,R225*%
X152400000Y-118898000D03*
X152400000Y-115798000D03*
%TD*%
D13*
%TO.C,C221*%
X126177000Y-122428000D03*
X128077000Y-122428000D03*
%TD*%
D25*
%TO.C,C220*%
X125370500Y-118427500D03*
X129645500Y-118427500D03*
%TD*%
D15*
%TO.C,Q201*%
X64960500Y-109980500D03*
X64008000Y-111885500D03*
X63055500Y-109980500D03*
%TD*%
D16*
%TO.C,R201*%
X63095500Y-114046000D03*
X64920500Y-114046000D03*
%TD*%
%TO.C,R210*%
X66905500Y-107696000D03*
X68730500Y-107696000D03*
%TD*%
%TO.C,R211*%
X63095500Y-107696000D03*
X64920500Y-107696000D03*
%TD*%
D27*
%TO.C,FI220*%
X141605000Y-118491000D03*
D28*
X141605000Y-120015000D03*
D27*
X141605000Y-121539000D03*
%TD*%
D29*
%TO.C,FI221*%
X166370000Y-99060000D03*
D30*
X164846000Y-99060000D03*
D29*
X163322000Y-99060000D03*
%TD*%
D31*
%TO.C,VR220*%
X162877500Y-96139000D03*
X165290500Y-96139000D03*
%TD*%
D32*
%TO.C,R230*%
X168402000Y-98235000D03*
X168402000Y-99885000D03*
%TD*%
D33*
%TO.C,D221*%
X172151000Y-99743500D03*
X174051000Y-99743500D03*
X173101000Y-97868500D03*
%TD*%
D34*
%TO.C,C228*%
X138938000Y-115457500D03*
X138938000Y-112507500D03*
%TD*%
D20*
%TO.C,C129*%
X110793000Y-55816500D03*
X113743000Y-55816500D03*
%TD*%
D34*
%TO.C,C130*%
X135128000Y-77611500D03*
X135128000Y-74661500D03*
%TD*%
%TO.C,C230*%
X135128000Y-115457500D03*
X135128000Y-112507500D03*
%TD*%
D20*
%TO.C,C229*%
X110793000Y-93027500D03*
X113743000Y-93027500D03*
%TD*%
D24*
%TO.C,R231*%
X170307000Y-99885000D03*
X170307000Y-98235000D03*
%TD*%
%TO.C,R131*%
X170307000Y-73342000D03*
X170307000Y-71692000D03*
%TD*%
D35*
%TO.C,Q120*%
X120145000Y-79725000D03*
X117095000Y-79725000D03*
X120145000Y-83075000D03*
X117095000Y-83075000D03*
D36*
X120900000Y-75100000D03*
X116340000Y-75100000D03*
%TD*%
D35*
%TO.C,Q220*%
X120245000Y-116725000D03*
X117195000Y-116725000D03*
X120245000Y-120075000D03*
X117195000Y-120075000D03*
D36*
X121000000Y-112100000D03*
X116440000Y-112100000D03*
%TD*%
D37*
%TO.C,U1*%
X95123000Y-93446600D03*
X95123000Y-92811600D03*
X95123000Y-92151200D03*
X95123000Y-91516200D03*
X95123000Y-90855800D03*
X95123000Y-90208100D03*
X95123000Y-89560400D03*
X95123000Y-88912700D03*
X89535000Y-88912700D03*
X89535000Y-89560400D03*
X89535000Y-90208100D03*
X89535000Y-90855800D03*
X89535000Y-91516200D03*
X89535000Y-92163900D03*
X89535000Y-92811600D03*
X89535000Y-93459300D03*
D38*
X92329000Y-91186000D03*
%TD*%
D39*
%TO.C,C2*%
X87056000Y-89027000D03*
X85156000Y-89027000D03*
%TD*%
D13*
%TO.C,C6*%
X93284000Y-95504000D03*
X95184000Y-95504000D03*
%TD*%
%TO.C,C7*%
X93284000Y-97790000D03*
X95184000Y-97790000D03*
%TD*%
D33*
%TO.C,D1*%
X89601000Y-97330500D03*
X91501000Y-97330500D03*
X90551000Y-95455500D03*
%TD*%
D40*
%TO.C,L1*%
X97790000Y-104013000D03*
X87630000Y-104013000D03*
%TD*%
D26*
%TO.C,R2*%
X87018500Y-96266000D03*
X85193500Y-96266000D03*
%TD*%
D16*
%TO.C,R3*%
X85193500Y-93853000D03*
X87018500Y-93853000D03*
%TD*%
D26*
%TO.C,R4*%
X87018500Y-91440000D03*
X85193500Y-91440000D03*
%TD*%
D22*
%TO.C,D2*%
X97790000Y-96647000D03*
X101854000Y-96647000D03*
%TD*%
D41*
%TO.C,C5*%
X87884000Y-87056000D03*
X87884000Y-85156000D03*
%TD*%
D16*
%TO.C,R10*%
X55602500Y-77470000D03*
X57427500Y-77470000D03*
%TD*%
D12*
%TO.C,R12*%
X52324000Y-115847500D03*
X52324000Y-114022500D03*
%TD*%
D42*
%TO.C,R13*%
X85979000Y-110085500D03*
X85979000Y-111910500D03*
%TD*%
D12*
%TO.C,R14*%
X54483000Y-115847500D03*
X54483000Y-114022500D03*
%TD*%
%TO.C,R15*%
X58801000Y-115847500D03*
X58801000Y-114022500D03*
%TD*%
D42*
%TO.C,R23*%
X79502000Y-110085500D03*
X79502000Y-111910500D03*
%TD*%
%TO.C,R16*%
X83820000Y-110085500D03*
X83820000Y-111910500D03*
%TD*%
D12*
%TO.C,R17*%
X56642000Y-115847500D03*
X56642000Y-114022500D03*
%TD*%
D42*
%TO.C,R26*%
X81661000Y-110085500D03*
X81661000Y-111910500D03*
%TD*%
D24*
%TO.C,R233*%
X161290000Y-99885000D03*
X161290000Y-98235000D03*
%TD*%
%TO.C,R133*%
X161290000Y-73342000D03*
X161290000Y-71692000D03*
%TD*%
D23*
%TO.C,L121*%
X152400000Y-64135000D03*
X152400000Y-74295000D03*
%TD*%
%TO.C,L220*%
X139700000Y-93980000D03*
X139700000Y-104140000D03*
%TD*%
%TO.C,L221*%
X152400000Y-101600000D03*
X152400000Y-111760000D03*
%TD*%
D43*
%TO.C,C54*%
X106015500Y-65024000D03*
X100740500Y-65024000D03*
%TD*%
D26*
%TO.C,R51*%
X81684500Y-66675000D03*
X79859500Y-66675000D03*
%TD*%
D44*
%TO.C,C53*%
X80264000Y-54885500D03*
X80264000Y-59160500D03*
%TD*%
D45*
%TO.C,U51*%
X88112600Y-56896000D03*
X87477600Y-56896000D03*
X86817200Y-56896000D03*
X86182200Y-56896000D03*
X85521800Y-56896000D03*
X84874100Y-56896000D03*
X84226400Y-56896000D03*
X83578700Y-56896000D03*
X83578700Y-62484000D03*
X84226400Y-62484000D03*
X84874100Y-62484000D03*
X85521800Y-62484000D03*
X86182200Y-62484000D03*
X86829900Y-62484000D03*
X87477600Y-62484000D03*
X88125300Y-62484000D03*
D46*
X85852000Y-59690000D03*
%TD*%
D47*
%TO.C,C52*%
X83693000Y-64963000D03*
X83693000Y-66863000D03*
%TD*%
D41*
%TO.C,C56*%
X90678000Y-62799000D03*
X90678000Y-60899000D03*
%TD*%
%TO.C,C57*%
X92964000Y-62799000D03*
X92964000Y-60899000D03*
%TD*%
D48*
%TO.C,D51*%
X92504500Y-66863000D03*
X92504500Y-64963000D03*
X90629500Y-65913000D03*
%TD*%
D40*
%TO.C,L51*%
X95885000Y-56515000D03*
X106045000Y-56515000D03*
%TD*%
D12*
%TO.C,R52*%
X88392000Y-66825500D03*
X88392000Y-65000500D03*
%TD*%
D42*
%TO.C,R54*%
X65659000Y-64492500D03*
X65659000Y-66317500D03*
%TD*%
D49*
%TO.C,D52*%
X91313000Y-54483000D03*
X91313000Y-58547000D03*
%TD*%
D39*
%TO.C,C55*%
X81722000Y-64135000D03*
X79822000Y-64135000D03*
%TD*%
D12*
%TO.C,R6*%
X95885000Y-119657500D03*
X95885000Y-117832500D03*
%TD*%
D42*
%TO.C,R53*%
X86106000Y-65000500D03*
X86106000Y-66825500D03*
%TD*%
D26*
%TO.C,R50*%
X163091500Y-89535000D03*
X161266500Y-89535000D03*
%TD*%
D22*
%TO.C,D50*%
X159258000Y-92837000D03*
X163322000Y-92837000D03*
%TD*%
D41*
%TO.C,C18*%
X75057000Y-117790000D03*
X75057000Y-115890000D03*
%TD*%
D42*
%TO.C,R59*%
X67818000Y-64492500D03*
X67818000Y-66317500D03*
%TD*%
%TO.C,R58*%
X71247000Y-64492500D03*
X71247000Y-66317500D03*
%TD*%
%TO.C,R57*%
X63500000Y-64492500D03*
X63500000Y-66317500D03*
%TD*%
%TO.C,R56*%
X75565000Y-64492500D03*
X75565000Y-66317500D03*
%TD*%
%TO.C,R55*%
X73406000Y-64492500D03*
X73406000Y-66317500D03*
%TD*%
%TO.C,R20*%
X75057000Y-119737500D03*
X75057000Y-121562500D03*
%TD*%
D47*
%TO.C,C17*%
X83947000Y-115890000D03*
X83947000Y-117790000D03*
%TD*%
D12*
%TO.C,R18*%
X83947000Y-121562500D03*
X83947000Y-119737500D03*
%TD*%
D26*
%TO.C,R9*%
X77620500Y-105918000D03*
X75795500Y-105918000D03*
%TD*%
D42*
%TO.C,R5*%
X60325000Y-68429500D03*
X60325000Y-70254500D03*
%TD*%
D41*
%TO.C,C8*%
X98425000Y-119695000D03*
X98425000Y-117795000D03*
%TD*%
D12*
%TO.C,R19*%
X86487000Y-119657500D03*
X86487000Y-117832500D03*
%TD*%
D50*
%TO.C,LED3*%
X60325000Y-66342500D03*
X60325000Y-64467500D03*
%TD*%
D51*
%TO.C,C19*%
X82550000Y-96153500D03*
X82550000Y-93203500D03*
%TD*%
D52*
%TO.C,C21*%
X78789000Y-86995000D03*
X81739000Y-86995000D03*
%TD*%
D51*
%TO.C,C25*%
X59309000Y-83898000D03*
X59309000Y-80948000D03*
%TD*%
D53*
%TO.C,L20*%
X79248000Y-81915000D03*
X79248000Y-84455000D03*
%TD*%
D54*
%TO.C,L21*%
X59309000Y-87376000D03*
X61849000Y-87376000D03*
%TD*%
D55*
%TO.C,U50*%
X72390000Y-69180000D03*
X71120000Y-69180000D03*
X69850000Y-69180000D03*
X68580000Y-69180000D03*
X67310000Y-69180000D03*
X66040000Y-69180000D03*
X64770000Y-69180000D03*
X63500000Y-69180000D03*
X63500000Y-74330000D03*
X64770000Y-74330000D03*
X66040000Y-74330000D03*
X67310000Y-74330000D03*
X68580000Y-74330000D03*
X69850000Y-74330000D03*
X71120000Y-74330000D03*
X72390000Y-74330000D03*
%TD*%
D56*
%TO.C,U10*%
X64480600Y-103622000D03*
X64988600Y-103622000D03*
X65471200Y-103622000D03*
X65979200Y-103622000D03*
X66487200Y-103622000D03*
X66969800Y-103622000D03*
X67477800Y-103622000D03*
X67985800Y-103622000D03*
X68468400Y-103622000D03*
X68976400Y-103622000D03*
X69484400Y-103622000D03*
X69992400Y-103622000D03*
X70475000Y-103622000D03*
X70983000Y-103622000D03*
X71491000Y-103622000D03*
X71973600Y-103622000D03*
X72481600Y-103622000D03*
X72989600Y-103622000D03*
X73472200Y-103622000D03*
X73980200Y-103622000D03*
X74488200Y-103622000D03*
X74970800Y-103622000D03*
X75478800Y-103622000D03*
X75986800Y-103622000D03*
X76469400Y-103622000D03*
D57*
X78222000Y-101869400D03*
X78222000Y-101361400D03*
X78222000Y-100878800D03*
X78222000Y-100370800D03*
X78222000Y-99862800D03*
X78222000Y-99380200D03*
X78222000Y-98872200D03*
X78222000Y-98364200D03*
X78222000Y-97881600D03*
X78222000Y-97373600D03*
X78222000Y-96865600D03*
X78222000Y-96357600D03*
X78222000Y-95875000D03*
X78222000Y-95367000D03*
X78222000Y-94859000D03*
X78222000Y-94376400D03*
X78222000Y-93868400D03*
X78222000Y-93360400D03*
X78222000Y-92877800D03*
X78222000Y-92369800D03*
X78222000Y-91861800D03*
X78222000Y-91379200D03*
X78222000Y-90871200D03*
X78222000Y-90363200D03*
X78222000Y-89880600D03*
D56*
X76469400Y-88128000D03*
X75961400Y-88128000D03*
X75478800Y-88128000D03*
X74970800Y-88128000D03*
X74462800Y-88128000D03*
X73980200Y-88128000D03*
X73472200Y-88128000D03*
X72964200Y-88128000D03*
X72481600Y-88128000D03*
X71973600Y-88128000D03*
X71465600Y-88128000D03*
X70957600Y-88128000D03*
X70475000Y-88128000D03*
X69967000Y-88128000D03*
X69459000Y-88128000D03*
X68976400Y-88128000D03*
X68468400Y-88128000D03*
X67960400Y-88128000D03*
X67477800Y-88128000D03*
X66969800Y-88128000D03*
X66461800Y-88128000D03*
X65979200Y-88128000D03*
X65471200Y-88128000D03*
X64963200Y-88128000D03*
X64480600Y-88128000D03*
D57*
X62728000Y-89880600D03*
X62728000Y-90388600D03*
X62728000Y-90871200D03*
X62728000Y-91379200D03*
X62728000Y-91887200D03*
X62728000Y-92369800D03*
X62728000Y-92877800D03*
X62728000Y-93385800D03*
X62728000Y-93868400D03*
X62728000Y-94376400D03*
X62728000Y-94884400D03*
X62728000Y-95392400D03*
X62728000Y-95875000D03*
X62728000Y-96383000D03*
X62728000Y-96891000D03*
X62728000Y-97373600D03*
X62728000Y-97881600D03*
X62728000Y-98389600D03*
X62728000Y-98872200D03*
X62728000Y-99380200D03*
X62728000Y-99888200D03*
X62728000Y-100370800D03*
X62728000Y-100878800D03*
X62728000Y-101386800D03*
X62728000Y-101869400D03*
%TD*%
D55*
%TO.C,U11*%
X81407000Y-116170000D03*
X80137000Y-116170000D03*
X78867000Y-116170000D03*
X77597000Y-116170000D03*
X77597000Y-121320000D03*
X78867000Y-121320000D03*
X80137000Y-121320000D03*
X81407000Y-121320000D03*
%TD*%
M02*
