%TF.GenerationSoftware,KiCad,Pcbnew,8.99.0-365-g44b970c8f2-dirty*%
%TF.CreationDate,2024-03-12T13:02:08+01:00*%
%TF.ProjectId,li-ion_charger,6c692d69-6f6e-45f6-9368-61726765722e,04*%
%TF.SameCoordinates,Original*%
%TF.FileFunction,Component,L1,Top*%
%TF.FilePolarity,Positive*%
%FSLAX46Y46*%
G04 Gerber Fmt 4.6, Leading zero omitted, Abs format (unit mm)*
G04 Created by KiCad (PCBNEW 8.99.0-365-g44b970c8f2-dirty) date 2024-03-12 13:02:08*
%MOMM*%
%LPD*%
G01*
G04 APERTURE LIST*
%TA.AperFunction,ComponentMain*%
%ADD10C,0.300000*%
%TD*%
%TA.AperFunction,ComponentOutline,Courtyard*%
%ADD11C,0.100000*%
%TD*%
%TA.AperFunction,ComponentPin*%
%ADD12P,0.360000X4X0.000000*%
%TD*%
%TA.AperFunction,ComponentPin*%
%ADD13C,0.100000*%
%TD*%
%TA.AperFunction,ComponentOutline,Footprint*%
%ADD14C,0.100000*%
%TD*%
%TA.AperFunction,Profile*%
%ADD15C,0.203200*%
%TD*%
G04 APERTURE END LIST*
D10*
%TO.C,P1*%
%TO.CFtp,TerminalBlock_Phoenix_PT-1\u002C5-2-3.5-H_1x02_P3.50mm_Horizontal*%
%TO.CVal,CNT2*%
%TO.CLbN,TerminalBlock_Phoenix*%
%TO.CMnt,TH*%
%TO.CRot,-90*%
X83420000Y-71770000D03*
D11*
X87019999Y-69520001D02*
X87019999Y-77519999D01*
X78420001Y-77519999D01*
X78420001Y-69520001D01*
X87019999Y-69520001D01*
D12*
%TO.P,P1,1,P1*%
X83420000Y-71770000D03*
D13*
%TO.P,P1,2,PM*%
X83420000Y-75270000D03*
%TD*%
D10*
%TO.C,U120*%
%TO.CFtp,SSOP-24_3.9x8.7mm_P0.635mm*%
%TO.CVal,LTC4007*%
%TO.CLbN,li-ion*%
%TO.CMnt,SMD*%
%TO.CRot,90*%
X128143000Y-74231500D03*
D11*
X132792999Y-70781501D02*
X132792999Y-77681499D01*
X123493001Y-77681499D01*
X123493001Y-70781501D01*
X132792999Y-70781501D01*
D12*
%TO.P,U120,1,DCIN*%
X124650500Y-76831500D03*
D13*
%TO.P,U120,2,/CHG*%
X125285500Y-76831500D03*
%TO.P,U120,3,ACP*%
X125920500Y-76831500D03*
%TO.P,U120,4,RT*%
X126555500Y-76831500D03*
%TO.P,U120,5,/FAULT*%
X127190500Y-76831500D03*
%TO.P,U120,6,GND*%
X127825500Y-76831500D03*
%TO.P,U120,7,3C4C*%
X128460500Y-76831500D03*
%TO.P,U120,8,/LOBAT*%
X129095500Y-76831500D03*
%TO.P,U120,9,NTC*%
X129730500Y-76831500D03*
%TO.P,U120,10,ITH*%
X130365500Y-76831500D03*
%TO.P,U120,11,PROG*%
X131000500Y-76831500D03*
%TO.P,U120,12*%
X131635500Y-76831500D03*
%TO.P,U120,13,/ICL*%
X131635500Y-71631500D03*
%TO.P,U120,14,CSP*%
X131000500Y-71631500D03*
%TO.P,U120,15,BAT*%
X130365500Y-71631500D03*
%TO.P,U120,16,CHEM*%
X129730500Y-71631500D03*
%TO.P,U120,17,/FLAG*%
X129095500Y-71631500D03*
%TO.P,U120,18,CLP*%
X128460500Y-71631500D03*
%TO.P,U120,19,CLN*%
X127825500Y-71631500D03*
%TO.P,U120,20,TGATE*%
X127190500Y-71631500D03*
%TO.P,U120,21,PGND*%
X126555500Y-71631500D03*
%TO.P,U120,22,BGATE*%
X125920500Y-71631500D03*
%TO.P,U120,23,INFET*%
X125285500Y-71631500D03*
%TO.P,U120,24,SHDN*%
X124650500Y-71631500D03*
%TD*%
D10*
%TO.C,C4*%
%TO.CFtp,C_2220_5650Metric_Pad1.97x5.40mm_HandSolder*%
%TO.CVal,100uF*%
%TO.CLbN,Capacitor_SMD*%
%TO.CMnt,SMD*%
%TO.CRot,0*%
X95250000Y-111760000D03*
D11*
X99129999Y-108810001D02*
X99129999Y-114709999D01*
X91370001Y-114709999D01*
X91370001Y-108810001D01*
X99129999Y-108810001D01*
D12*
%TO.P,C4,1*%
X92612500Y-111760000D03*
D13*
%TO.P,C4,2*%
X97887500Y-111760000D03*
%TD*%
D10*
%TO.C,R1*%
%TO.CFtp,R_0805_2012Metric*%
%TO.CVal,100K*%
%TO.CLbN,li-ion*%
%TO.CMnt,SMD*%
%TO.CRot,90*%
X85344000Y-86106000D03*
D11*
X86293999Y-84426001D02*
X86293999Y-87785999D01*
X84394001Y-87785999D01*
X84394001Y-84426001D01*
X86293999Y-84426001D01*
D12*
%TO.P,R1,1*%
X85344000Y-87018500D03*
D13*
%TO.P,R1,2*%
X85344000Y-85193500D03*
%TD*%
D10*
%TO.C,C1*%
%TO.CFtp,C_0805_2012Metric*%
%TO.CVal,100nF*%
%TO.CLbN,li-ion*%
%TO.CMnt,SMD*%
%TO.CRot,0*%
X99568000Y-91059000D03*
D11*
X101267999Y-90079001D02*
X101267999Y-92038999D01*
X97868001Y-92038999D01*
X97868001Y-90079001D01*
X101267999Y-90079001D01*
D12*
%TO.P,C1,1*%
X98618000Y-91059000D03*
D13*
%TO.P,C1,2*%
X100518000Y-91059000D03*
%TD*%
D10*
%TO.C,C3*%
%TO.CFtp,C_1812_4532Metric_Pad1.57x3.40mm_HandSolder*%
%TO.CVal,10uF*%
%TO.CLbN,li-ion*%
%TO.CMnt,SMD*%
%TO.CRot,180*%
X94869000Y-85090000D03*
D11*
X98048999Y-83140001D02*
X98048999Y-87039999D01*
X91689001Y-87039999D01*
X91689001Y-83140001D01*
X98048999Y-83140001D01*
D12*
%TO.P,C3,1*%
X97006500Y-85090000D03*
D13*
%TO.P,C3,2*%
X92731500Y-85090000D03*
%TD*%
D10*
%TO.C,Q100*%
%TO.CFtp,ST23GDS*%
%TO.CVal,IRLML5103*%
%TO.CLbN,li-ion*%
%TO.CMnt,SMD*%
%TO.CRot,90*%
X56896000Y-67818000D03*
D11*
X58670999Y-66293001D02*
X58670999Y-69367999D01*
X55021001Y-69367999D01*
X55021001Y-66293001D01*
X58670999Y-66293001D01*
D12*
%TO.P,Q100,1,G*%
X55935500Y-68837500D03*
D13*
%TO.P,Q100,2,D*%
X56888000Y-66932500D03*
%TO.P,Q100,3,S*%
X57840500Y-68837500D03*
%TD*%
D10*
%TO.C,R100*%
%TO.CFtp,R_0805_2012Metric*%
%TO.CVal,56*%
%TO.CLbN,li-ion*%
%TO.CMnt,SMD*%
%TO.CRot,0*%
X56896000Y-64770000D03*
D11*
X58575999Y-63820001D02*
X58575999Y-65719999D01*
X55216001Y-65719999D01*
X55216001Y-63820001D01*
X58575999Y-63820001D01*
D12*
%TO.P,R100,1*%
X55983500Y-64770000D03*
D13*
%TO.P,R100,2*%
X57808500Y-64770000D03*
%TD*%
D10*
%TO.C,R122*%
%TO.CFtp,R_1210_3225Metric_Pad1.30x2.65mm_HandSolder*%
%TO.CVal,0\u002C05*%
%TO.CLbN,li-ion*%
%TO.CMnt,SMD*%
%TO.CRot,90*%
X116713000Y-69215000D03*
D11*
X118292999Y-66765001D02*
X118292999Y-71664999D01*
X115133001Y-71664999D01*
X115133001Y-66765001D01*
X118292999Y-66765001D01*
D12*
%TO.P,R122,1*%
X116713000Y-70765000D03*
D13*
%TO.P,R122,2*%
X116713000Y-67665000D03*
%TD*%
D10*
%TO.C,Q121*%
%TO.CFtp,TO-252-2*%
%TO.CVal,FDD4685*%
%TO.CLbN,li-ion*%
%TO.CMnt,SMD*%
%TO.CRot,90*%
X128180000Y-58860000D03*
D11*
X131679999Y-54150001D02*
X131679999Y-65249999D01*
X124680001Y-65249999D01*
X124680001Y-54150001D01*
X131679999Y-54150001D01*
D12*
%TO.P,Q121,1,G*%
X125900000Y-63900000D03*
D13*
%TO.P,Q121,2,D*%
X128180000Y-57600000D03*
%TO.P,Q121,3,S*%
X130460000Y-63900000D03*
%TD*%
D10*
%TO.C,C124*%
%TO.CFtp,C_1210_3225Metric*%
%TO.CVal,10uF*%
%TO.CLbN,li-ion*%
%TO.CMnt,SMD*%
%TO.CRot,0*%
X112268000Y-60261500D03*
D11*
X114567999Y-58661501D02*
X114567999Y-61861499D01*
X109968001Y-61861499D01*
X109968001Y-58661501D01*
X114567999Y-58661501D01*
D12*
%TO.P,C124,1*%
X110793000Y-60261500D03*
D13*
%TO.P,C124,2*%
X113743000Y-60261500D03*
%TD*%
D10*
%TO.C,Q122*%
%TO.CFtp,SO-8_3.9x4.9mm_P1.27mm*%
%TO.CVal,Si4456DY*%
%TO.CLbN,li-ion*%
%TO.CMnt,SMD*%
%TO.CRot,0*%
X119253000Y-62166500D03*
D11*
X122952999Y-59466501D02*
X122952999Y-64866499D01*
X115553001Y-64866499D01*
X115553001Y-59466501D01*
X122952999Y-59466501D01*
D12*
%TO.P,Q122,1,S*%
X116678000Y-60261500D03*
D13*
%TO.P,Q122,2,S*%
X116678000Y-61531500D03*
%TO.P,Q122,3,S*%
X116678000Y-62801500D03*
%TO.P,Q122,4,G*%
X116678000Y-64071500D03*
%TO.P,Q122,5,D*%
X121828000Y-64071500D03*
%TO.P,Q122,6,D*%
X121828000Y-62801500D03*
%TO.P,Q122,7,D*%
X121828000Y-61531500D03*
%TO.P,Q122,8,D*%
X121828000Y-60261500D03*
%TD*%
D10*
%TO.C,D120*%
%TO.CFtp,DO_214AA*%
%TO.CVal,SS24*%
%TO.CLbN,li-ion*%
%TO.CMnt,SMD*%
%TO.CRot,180*%
X119253000Y-55816500D03*
D11*
X122252999Y-53491501D02*
X122252999Y-58066499D01*
X116253001Y-58066499D01*
X116253001Y-53491501D01*
X122252999Y-53491501D01*
D12*
%TO.P,D120,1,K*%
X121285000Y-55816500D03*
D13*
%TO.P,D120,2,A*%
X117221000Y-55816500D03*
%TD*%
D10*
%TO.C,L120*%
%TO.CFtp,SELF.WEPD*%
%TO.CVal,22uH/5\u002C3A*%
%TO.CLbN,li-ion*%
%TO.CMnt,SMD*%
%TO.CRot,90*%
X139700000Y-61595000D03*
D11*
X144749999Y-55170001D02*
X145749999Y-56170001D01*
X145749999Y-67044999D01*
X144749999Y-68044999D01*
X134600001Y-68044999D01*
X133600001Y-67044999D01*
X133600001Y-56170001D01*
X134600001Y-55170001D01*
X144749999Y-55170001D01*
D12*
%TO.P,L120,1,1*%
X139700000Y-56515000D03*
D13*
%TO.P,L120,2,2*%
X139700000Y-66675000D03*
%TD*%
D10*
%TO.C,R123*%
%TO.CFtp,R_0603_1608Metric*%
%TO.CVal,3K01-1\u0025*%
%TO.CLbN,li-ion*%
%TO.CMnt,SMD*%
%TO.CRot,90*%
X144907000Y-74295000D03*
D11*
X145636999Y-72815001D02*
X145636999Y-75774999D01*
X144177001Y-75774999D01*
X144177001Y-72815001D01*
X145636999Y-72815001D01*
D12*
%TO.P,R123,1*%
X144907000Y-75120000D03*
D13*
%TO.P,R123,2*%
X144907000Y-73470000D03*
%TD*%
D10*
%TO.C,R124*%
%TO.CFtp,R_0603_1608Metric*%
%TO.CVal,3K01-1\u0025*%
%TO.CLbN,li-ion*%
%TO.CMnt,SMD*%
%TO.CRot,90*%
X142875000Y-74295000D03*
D11*
X143604999Y-72815001D02*
X143604999Y-75774999D01*
X142145001Y-75774999D01*
X142145001Y-72815001D01*
X143604999Y-72815001D01*
D12*
%TO.P,R124,1*%
X142875000Y-75120000D03*
D13*
%TO.P,R124,2*%
X142875000Y-73470000D03*
%TD*%
D10*
%TO.C,R125*%
%TO.CFtp,R_1210_3225Metric_Pad1.30x2.65mm_HandSolder*%
%TO.CVal,0\u002C05*%
%TO.CLbN,li-ion*%
%TO.CMnt,SMD*%
%TO.CRot,90*%
X152400000Y-79502000D03*
D11*
X153979999Y-77052001D02*
X153979999Y-81951999D01*
X150820001Y-81951999D01*
X150820001Y-77052001D01*
X153979999Y-77052001D01*
D12*
%TO.P,R125,1*%
X152400000Y-81052000D03*
D13*
%TO.P,R125,2*%
X152400000Y-77952000D03*
%TD*%
D10*
%TO.C,C121*%
%TO.CFtp,C_0805_2012Metric*%
%TO.CVal,100nF*%
%TO.CLbN,li-ion*%
%TO.CMnt,SMD*%
%TO.CRot,0*%
X127127000Y-85026500D03*
D11*
X128826999Y-84046501D02*
X128826999Y-86006499D01*
X125427001Y-86006499D01*
X125427001Y-84046501D01*
X128826999Y-84046501D01*
D12*
%TO.P,C121,1*%
X126177000Y-85026500D03*
D13*
%TO.P,C121,2*%
X128077000Y-85026500D03*
%TD*%
D10*
%TO.C,C120*%
%TO.CFtp,C_1812_4532Metric_Pad1.57x3.40mm_HandSolder*%
%TO.CVal,10uF*%
%TO.CLbN,li-ion*%
%TO.CMnt,SMD*%
%TO.CRot,0*%
X127508000Y-81216500D03*
D11*
X130687999Y-79266501D02*
X130687999Y-83166499D01*
X124328001Y-83166499D01*
X124328001Y-79266501D01*
X130687999Y-79266501D01*
D12*
%TO.P,C120,1*%
X125370500Y-81216500D03*
D13*
%TO.P,C120,2*%
X129645500Y-81216500D03*
%TD*%
D10*
%TO.C,Q101*%
%TO.CFtp,ST23GDS*%
%TO.CVal,IRLML5103*%
%TO.CLbN,li-ion*%
%TO.CMnt,SMD*%
%TO.CRot,90*%
X53086000Y-67818000D03*
D11*
X54860999Y-66293001D02*
X54860999Y-69367999D01*
X51211001Y-69367999D01*
X51211001Y-66293001D01*
X54860999Y-66293001D01*
D12*
%TO.P,Q101,1,G*%
X52125500Y-68837500D03*
D13*
%TO.P,Q101,2,D*%
X53078000Y-66932500D03*
%TO.P,Q101,3,S*%
X54030500Y-68837500D03*
%TD*%
D10*
%TO.C,R101*%
%TO.CFtp,R_0805_2012Metric*%
%TO.CVal,75*%
%TO.CLbN,li-ion*%
%TO.CMnt,SMD*%
%TO.CRot,180*%
X53086000Y-64770000D03*
D11*
X54765999Y-63820001D02*
X54765999Y-65719999D01*
X51406001Y-65719999D01*
X51406001Y-63820001D01*
X54765999Y-63820001D01*
D12*
%TO.P,R101,1*%
X53998500Y-64770000D03*
D13*
%TO.P,R101,2*%
X52173500Y-64770000D03*
%TD*%
D10*
%TO.C,R110*%
%TO.CFtp,R_0805_2012Metric*%
%TO.CVal,100K*%
%TO.CLbN,li-ion*%
%TO.CMnt,SMD*%
%TO.CRot,180*%
X56896000Y-70993000D03*
D11*
X58575999Y-70043001D02*
X58575999Y-71942999D01*
X55216001Y-71942999D01*
X55216001Y-70043001D01*
X58575999Y-70043001D01*
D12*
%TO.P,R110,1*%
X57808500Y-70993000D03*
D13*
%TO.P,R110,2*%
X55983500Y-70993000D03*
%TD*%
D10*
%TO.C,R111*%
%TO.CFtp,R_0805_2012Metric*%
%TO.CVal,100K*%
%TO.CLbN,li-ion*%
%TO.CMnt,SMD*%
%TO.CRot,180*%
X53086000Y-70993000D03*
D11*
X54765999Y-70043001D02*
X54765999Y-71942999D01*
X51406001Y-71942999D01*
X51406001Y-70043001D01*
X54765999Y-70043001D01*
D12*
%TO.P,R111,1*%
X53998500Y-70993000D03*
D13*
%TO.P,R111,2*%
X52173500Y-70993000D03*
%TD*%
D10*
%TO.C,FI120*%
%TO.CFtp,FI3BR_2*%
%TO.CVal,FI6A*%
%TO.CLbN,li-ion*%
%TO.CMnt,SMD*%
%TO.CRot,-90*%
X141605000Y-82105500D03*
D14*
X142875000Y-80010000D02*
X140335000Y-80010000D01*
X140335000Y-84201000D01*
X142875000Y-84201000D01*
X142875000Y-80010000D01*
D12*
%TO.P,FI120,1,1*%
X141605000Y-80581500D03*
D13*
%TO.P,FI120,2,2*%
X141605000Y-82105500D03*
%TO.P,FI120,3,3*%
X141605000Y-83629500D03*
%TD*%
D10*
%TO.C,FI121*%
%TO.CFtp,FI3BR_2*%
%TO.CVal,FI6A*%
%TO.CLbN,li-ion*%
%TO.CMnt,SMD*%
%TO.CRot,180*%
X164846000Y-72517000D03*
D14*
X166941500Y-73787000D02*
X166941500Y-71247000D01*
X162750500Y-71247000D01*
X162750500Y-73787000D01*
X166941500Y-73787000D01*
D12*
%TO.P,FI121,1,1*%
X166370000Y-72517000D03*
D13*
%TO.P,FI121,2,2*%
X164846000Y-72517000D03*
%TO.P,FI121,3,3*%
X163322000Y-72517000D03*
%TD*%
D10*
%TO.C,VR120*%
%TO.CFtp,SM0805VR*%
%TO.CVal,28V*%
%TO.CLbN,li-ion*%
%TO.CMnt,SMD*%
%TO.CRot,0*%
X164084000Y-69596000D03*
D14*
X162280600Y-68846700D02*
X162280600Y-70345300D01*
X165887400Y-70345300D01*
X165887400Y-68846700D01*
X162280600Y-68846700D01*
D12*
%TO.P,VR120,1*%
X162877500Y-69596000D03*
D13*
%TO.P,VR120,2*%
X165290500Y-69596000D03*
%TD*%
D10*
%TO.C,R130*%
%TO.CFtp,R_0603_1608Metric*%
%TO.CVal,100K*%
%TO.CLbN,li-ion*%
%TO.CMnt,SMD*%
%TO.CRot,-90*%
X168402000Y-72517000D03*
D11*
X169131999Y-71037001D02*
X169131999Y-73996999D01*
X167672001Y-73996999D01*
X167672001Y-71037001D01*
X169131999Y-71037001D01*
D12*
%TO.P,R130,1*%
X168402000Y-71692000D03*
D13*
%TO.P,R130,2*%
X168402000Y-73342000D03*
%TD*%
D10*
%TO.C,D121*%
%TO.CFtp,SOT-23*%
%TO.CVal,BAT54*%
%TO.CLbN,li-ion*%
%TO.CMnt,SMD*%
%TO.CRot,90*%
X173101000Y-72263000D03*
D11*
X174800999Y-70343001D02*
X174800999Y-74182999D01*
X171401001Y-74182999D01*
X171401001Y-70343001D01*
X174800999Y-70343001D01*
D12*
%TO.P,D121,1,A*%
X172151000Y-73200500D03*
D13*
%TO.P,D121,2*%
X174051000Y-73200500D03*
%TO.P,D121,3,K*%
X173101000Y-71325500D03*
%TD*%
D10*
%TO.C,C128*%
%TO.CFtp,C_1210_3225Metric*%
%TO.CVal,10uF*%
%TO.CLbN,li-ion*%
%TO.CMnt,SMD*%
%TO.CRot,90*%
X138938000Y-76136500D03*
D11*
X140537999Y-73836501D02*
X140537999Y-78436499D01*
X137338001Y-78436499D01*
X137338001Y-73836501D01*
X140537999Y-73836501D01*
D12*
%TO.P,C128,1*%
X138938000Y-77611500D03*
D13*
%TO.P,C128,2*%
X138938000Y-74661500D03*
%TD*%
D10*
%TO.C,W120*%
%TO.CFtp,PinHeader_1x02_P2.54mm_Vertical*%
%TO.CVal,TEST*%
%TO.CLbN,li-ion*%
%TO.CMnt,TH*%
%TO.CRot,0*%
X144900000Y-81060000D03*
D11*
X146699999Y-79260001D02*
X146699999Y-85409999D01*
X143100001Y-85409999D01*
X143100001Y-79260001D01*
X146699999Y-79260001D01*
D12*
%TO.P,W120,1,1*%
X144900000Y-81060000D03*
D13*
%TO.P,W120,2,2*%
X144900000Y-83600000D03*
%TD*%
D10*
%TO.C,U220*%
%TO.CFtp,SSOP-24_3.9x8.7mm_P0.635mm*%
%TO.CVal,LTC4007*%
%TO.CLbN,li-ion*%
%TO.CMnt,SMD*%
%TO.CRot,90*%
X128143000Y-111442500D03*
D11*
X132792999Y-107992501D02*
X132792999Y-114892499D01*
X123493001Y-114892499D01*
X123493001Y-107992501D01*
X132792999Y-107992501D01*
D12*
%TO.P,U220,1,DCIN*%
X124650500Y-114042500D03*
D13*
%TO.P,U220,2,/CHG*%
X125285500Y-114042500D03*
%TO.P,U220,3,ACP*%
X125920500Y-114042500D03*
%TO.P,U220,4,RT*%
X126555500Y-114042500D03*
%TO.P,U220,5,/FAULT*%
X127190500Y-114042500D03*
%TO.P,U220,6,GND*%
X127825500Y-114042500D03*
%TO.P,U220,7,3C4C*%
X128460500Y-114042500D03*
%TO.P,U220,8,/LOBAT*%
X129095500Y-114042500D03*
%TO.P,U220,9,NTC*%
X129730500Y-114042500D03*
%TO.P,U220,10,ITH*%
X130365500Y-114042500D03*
%TO.P,U220,11,PROG*%
X131000500Y-114042500D03*
%TO.P,U220,12*%
X131635500Y-114042500D03*
%TO.P,U220,13,/ICL*%
X131635500Y-108842500D03*
%TO.P,U220,14,CSP*%
X131000500Y-108842500D03*
%TO.P,U220,15,BAT*%
X130365500Y-108842500D03*
%TO.P,U220,16,CHEM*%
X129730500Y-108842500D03*
%TO.P,U220,17,/FLAG*%
X129095500Y-108842500D03*
%TO.P,U220,18,CLP*%
X128460500Y-108842500D03*
%TO.P,U220,19,CLN*%
X127825500Y-108842500D03*
%TO.P,U220,20,TGATE*%
X127190500Y-108842500D03*
%TO.P,U220,21,PGND*%
X126555500Y-108842500D03*
%TO.P,U220,22,BGATE*%
X125920500Y-108842500D03*
%TO.P,U220,23,INFET*%
X125285500Y-108842500D03*
%TO.P,U220,24,SHDN*%
X124650500Y-108842500D03*
%TD*%
D10*
%TO.C,Q200*%
%TO.CFtp,ST23GDS*%
%TO.CVal,IRLML5103*%
%TO.CLbN,li-ion*%
%TO.CMnt,SMD*%
%TO.CRot,-90*%
X67800000Y-111000000D03*
D11*
X69674999Y-109450001D02*
X69674999Y-112524999D01*
X66025001Y-112524999D01*
X66025001Y-109450001D01*
X69674999Y-109450001D01*
D12*
%TO.P,Q200,1,G*%
X68760500Y-109980500D03*
D13*
%TO.P,Q200,2,D*%
X67808000Y-111885500D03*
%TO.P,Q200,3,S*%
X66855500Y-109980500D03*
%TD*%
D10*
%TO.C,R200*%
%TO.CFtp,R_0805_2012Metric*%
%TO.CVal,56*%
%TO.CLbN,li-ion*%
%TO.CMnt,SMD*%
%TO.CRot,0*%
X67818000Y-114046000D03*
D11*
X69497999Y-113096001D02*
X69497999Y-114995999D01*
X66138001Y-114995999D01*
X66138001Y-113096001D01*
X69497999Y-113096001D01*
D12*
%TO.P,R200,1*%
X66905500Y-114046000D03*
D13*
%TO.P,R200,2*%
X68730500Y-114046000D03*
%TD*%
D10*
%TO.C,R222*%
%TO.CFtp,R_1210_3225Metric_Pad1.30x2.65mm_HandSolder*%
%TO.CVal,0\u002C05*%
%TO.CLbN,li-ion*%
%TO.CMnt,SMD*%
%TO.CRot,90*%
X116713000Y-106362500D03*
D11*
X118292999Y-103912501D02*
X118292999Y-108812499D01*
X115133001Y-108812499D01*
X115133001Y-103912501D01*
X118292999Y-103912501D01*
D12*
%TO.P,R222,1*%
X116713000Y-107912500D03*
D13*
%TO.P,R222,2*%
X116713000Y-104812500D03*
%TD*%
D10*
%TO.C,Q221*%
%TO.CFtp,TO-252-2*%
%TO.CVal,FDD4685*%
%TO.CLbN,li-ion*%
%TO.CMnt,SMD*%
%TO.CRot,90*%
X128143000Y-96160000D03*
D11*
X131642999Y-91450001D02*
X131642999Y-102549999D01*
X124643001Y-102549999D01*
X124643001Y-91450001D01*
X131642999Y-91450001D01*
D12*
%TO.P,Q221,1,G*%
X125863000Y-101200000D03*
D13*
%TO.P,Q221,2,D*%
X128143000Y-94900000D03*
%TO.P,Q221,3,S*%
X130423000Y-101200000D03*
%TD*%
D10*
%TO.C,C224*%
%TO.CFtp,C_1210_3225Metric*%
%TO.CVal,10uF*%
%TO.CLbN,li-ion*%
%TO.CMnt,SMD*%
%TO.CRot,0*%
X112268000Y-97409000D03*
D11*
X114567999Y-95809001D02*
X114567999Y-99008999D01*
X109968001Y-99008999D01*
X109968001Y-95809001D01*
X114567999Y-95809001D01*
D12*
%TO.P,C224,1*%
X110793000Y-97409000D03*
D13*
%TO.P,C224,2*%
X113743000Y-97409000D03*
%TD*%
D10*
%TO.C,Q222*%
%TO.CFtp,SO-8_3.9x4.9mm_P1.27mm*%
%TO.CVal,Si4456DY*%
%TO.CLbN,li-ion*%
%TO.CMnt,SMD*%
%TO.CRot,0*%
X119253000Y-99377500D03*
D11*
X122952999Y-96677501D02*
X122952999Y-102077499D01*
X115553001Y-102077499D01*
X115553001Y-96677501D01*
X122952999Y-96677501D01*
D12*
%TO.P,Q222,1,S*%
X116678000Y-97472500D03*
D13*
%TO.P,Q222,2,S*%
X116678000Y-98742500D03*
%TO.P,Q222,3,S*%
X116678000Y-100012500D03*
%TO.P,Q222,4,G*%
X116678000Y-101282500D03*
%TO.P,Q222,5,D*%
X121828000Y-101282500D03*
%TO.P,Q222,6,D*%
X121828000Y-100012500D03*
%TO.P,Q222,7,D*%
X121828000Y-98742500D03*
%TO.P,Q222,8,D*%
X121828000Y-97472500D03*
%TD*%
D10*
%TO.C,D220*%
%TO.CFtp,DO_214AA*%
%TO.CVal,SS24*%
%TO.CLbN,li-ion*%
%TO.CMnt,SMD*%
%TO.CRot,180*%
X119253000Y-93027500D03*
D11*
X122252999Y-90702501D02*
X122252999Y-95277499D01*
X116253001Y-95277499D01*
X116253001Y-90702501D01*
X122252999Y-90702501D01*
D12*
%TO.P,D220,1,K*%
X121285000Y-93027500D03*
D13*
%TO.P,D220,2,A*%
X117221000Y-93027500D03*
%TD*%
D10*
%TO.C,R223*%
%TO.CFtp,R_0603_1608Metric*%
%TO.CVal,3K01-1\u0025*%
%TO.CLbN,li-ion*%
%TO.CMnt,SMD*%
%TO.CRot,90*%
X144907000Y-111760000D03*
D11*
X145636999Y-110280001D02*
X145636999Y-113239999D01*
X144177001Y-113239999D01*
X144177001Y-110280001D01*
X145636999Y-110280001D01*
D12*
%TO.P,R223,1*%
X144907000Y-112585000D03*
D13*
%TO.P,R223,2*%
X144907000Y-110935000D03*
%TD*%
D10*
%TO.C,R224*%
%TO.CFtp,R_0603_1608Metric*%
%TO.CVal,3K01-1\u0025*%
%TO.CLbN,li-ion*%
%TO.CMnt,SMD*%
%TO.CRot,90*%
X142875000Y-111760000D03*
D11*
X143604999Y-110280001D02*
X143604999Y-113239999D01*
X142145001Y-113239999D01*
X142145001Y-110280001D01*
X143604999Y-110280001D01*
D12*
%TO.P,R224,1*%
X142875000Y-112585000D03*
D13*
%TO.P,R224,2*%
X142875000Y-110935000D03*
%TD*%
D10*
%TO.C,R225*%
%TO.CFtp,R_1210_3225Metric_Pad1.30x2.65mm_HandSolder*%
%TO.CVal,0\u002C05*%
%TO.CLbN,li-ion*%
%TO.CMnt,SMD*%
%TO.CRot,90*%
X152400000Y-117348000D03*
D11*
X153979999Y-114898001D02*
X153979999Y-119797999D01*
X150820001Y-119797999D01*
X150820001Y-114898001D01*
X153979999Y-114898001D01*
D12*
%TO.P,R225,1*%
X152400000Y-118898000D03*
D13*
%TO.P,R225,2*%
X152400000Y-115798000D03*
%TD*%
D10*
%TO.C,C221*%
%TO.CFtp,C_0805_2012Metric*%
%TO.CVal,100nF*%
%TO.CLbN,li-ion*%
%TO.CMnt,SMD*%
%TO.CRot,0*%
X127127000Y-122428000D03*
D11*
X128826999Y-121448001D02*
X128826999Y-123407999D01*
X125427001Y-123407999D01*
X125427001Y-121448001D01*
X128826999Y-121448001D01*
D12*
%TO.P,C221,1*%
X126177000Y-122428000D03*
D13*
%TO.P,C221,2*%
X128077000Y-122428000D03*
%TD*%
D10*
%TO.C,C220*%
%TO.CFtp,C_1812_4532Metric_Pad1.57x3.40mm_HandSolder*%
%TO.CVal,10uF*%
%TO.CLbN,li-ion*%
%TO.CMnt,SMD*%
%TO.CRot,0*%
X127508000Y-118427500D03*
D11*
X130687999Y-116477501D02*
X130687999Y-120377499D01*
X124328001Y-120377499D01*
X124328001Y-116477501D01*
X130687999Y-116477501D01*
D12*
%TO.P,C220,1*%
X125370500Y-118427500D03*
D13*
%TO.P,C220,2*%
X129645500Y-118427500D03*
%TD*%
D10*
%TO.C,Q201*%
%TO.CFtp,ST23GDS*%
%TO.CVal,IRLML5103*%
%TO.CLbN,li-ion*%
%TO.CMnt,SMD*%
%TO.CRot,-90*%
X64000000Y-111000000D03*
D11*
X65874999Y-109450001D02*
X65874999Y-112524999D01*
X62225001Y-112524999D01*
X62225001Y-109450001D01*
X65874999Y-109450001D01*
D12*
%TO.P,Q201,1,G*%
X64960500Y-109980500D03*
D13*
%TO.P,Q201,2,D*%
X64008000Y-111885500D03*
%TO.P,Q201,3,S*%
X63055500Y-109980500D03*
%TD*%
D10*
%TO.C,R201*%
%TO.CFtp,R_0805_2012Metric*%
%TO.CVal,75*%
%TO.CLbN,li-ion*%
%TO.CMnt,SMD*%
%TO.CRot,0*%
X64008000Y-114046000D03*
D11*
X65687999Y-113096001D02*
X65687999Y-114995999D01*
X62328001Y-114995999D01*
X62328001Y-113096001D01*
X65687999Y-113096001D01*
D12*
%TO.P,R201,1*%
X63095500Y-114046000D03*
D13*
%TO.P,R201,2*%
X64920500Y-114046000D03*
%TD*%
D10*
%TO.C,R210*%
%TO.CFtp,R_0805_2012Metric*%
%TO.CVal,100K*%
%TO.CLbN,li-ion*%
%TO.CMnt,SMD*%
%TO.CRot,0*%
X67818000Y-107696000D03*
D11*
X69497999Y-106746001D02*
X69497999Y-108645999D01*
X66138001Y-108645999D01*
X66138001Y-106746001D01*
X69497999Y-106746001D01*
D12*
%TO.P,R210,1*%
X66905500Y-107696000D03*
D13*
%TO.P,R210,2*%
X68730500Y-107696000D03*
%TD*%
D10*
%TO.C,R211*%
%TO.CFtp,R_0805_2012Metric*%
%TO.CVal,100K*%
%TO.CLbN,li-ion*%
%TO.CMnt,SMD*%
%TO.CRot,0*%
X64008000Y-107696000D03*
D11*
X65687999Y-106746001D02*
X65687999Y-108645999D01*
X62328001Y-108645999D01*
X62328001Y-106746001D01*
X65687999Y-106746001D01*
D12*
%TO.P,R211,1*%
X63095500Y-107696000D03*
D13*
%TO.P,R211,2*%
X64920500Y-107696000D03*
%TD*%
D10*
%TO.C,FI220*%
%TO.CFtp,FI3BR_2*%
%TO.CVal,FI6A*%
%TO.CLbN,li-ion*%
%TO.CMnt,SMD*%
%TO.CRot,-90*%
X141605000Y-120015000D03*
D14*
X142875000Y-117919500D02*
X140335000Y-117919500D01*
X140335000Y-122110500D01*
X142875000Y-122110500D01*
X142875000Y-117919500D01*
D12*
%TO.P,FI220,1,1*%
X141605000Y-118491000D03*
D13*
%TO.P,FI220,2,2*%
X141605000Y-120015000D03*
%TO.P,FI220,3,3*%
X141605000Y-121539000D03*
%TD*%
D10*
%TO.C,FI221*%
%TO.CFtp,FI3BR_2*%
%TO.CVal,FI6A*%
%TO.CLbN,li-ion*%
%TO.CMnt,SMD*%
%TO.CRot,180*%
X164846000Y-99060000D03*
D14*
X166941500Y-100330000D02*
X166941500Y-97790000D01*
X162750500Y-97790000D01*
X162750500Y-100330000D01*
X166941500Y-100330000D01*
D12*
%TO.P,FI221,1,1*%
X166370000Y-99060000D03*
D13*
%TO.P,FI221,2,2*%
X164846000Y-99060000D03*
%TO.P,FI221,3,3*%
X163322000Y-99060000D03*
%TD*%
D10*
%TO.C,VR220*%
%TO.CFtp,SM0805VR*%
%TO.CVal,28V*%
%TO.CLbN,li-ion*%
%TO.CMnt,SMD*%
%TO.CRot,0*%
X164084000Y-96139000D03*
D14*
X162280600Y-95389700D02*
X162280600Y-96888300D01*
X165887400Y-96888300D01*
X165887400Y-95389700D01*
X162280600Y-95389700D01*
D12*
%TO.P,VR220,1*%
X162877500Y-96139000D03*
D13*
%TO.P,VR220,2*%
X165290500Y-96139000D03*
%TD*%
D10*
%TO.C,R230*%
%TO.CFtp,R_0603_1608Metric*%
%TO.CVal,100K*%
%TO.CLbN,li-ion*%
%TO.CMnt,SMD*%
%TO.CRot,-90*%
X168402000Y-99060000D03*
D11*
X169131999Y-97580001D02*
X169131999Y-100539999D01*
X167672001Y-100539999D01*
X167672001Y-97580001D01*
X169131999Y-97580001D01*
D12*
%TO.P,R230,1*%
X168402000Y-98235000D03*
D13*
%TO.P,R230,2*%
X168402000Y-99885000D03*
%TD*%
D10*
%TO.C,D221*%
%TO.CFtp,SOT-23*%
%TO.CVal,BAT54*%
%TO.CLbN,li-ion*%
%TO.CMnt,SMD*%
%TO.CRot,90*%
X173101000Y-98806000D03*
D11*
X174800999Y-96886001D02*
X174800999Y-100725999D01*
X171401001Y-100725999D01*
X171401001Y-96886001D01*
X174800999Y-96886001D01*
D12*
%TO.P,D221,1,A*%
X172151000Y-99743500D03*
D13*
%TO.P,D221,2*%
X174051000Y-99743500D03*
%TO.P,D221,3,K*%
X173101000Y-97868500D03*
%TD*%
D10*
%TO.C,C228*%
%TO.CFtp,C_1210_3225Metric*%
%TO.CVal,10uF*%
%TO.CLbN,li-ion*%
%TO.CMnt,SMD*%
%TO.CRot,90*%
X138938000Y-113982500D03*
D11*
X140537999Y-111682501D02*
X140537999Y-116282499D01*
X137338001Y-116282499D01*
X137338001Y-111682501D01*
X140537999Y-111682501D01*
D12*
%TO.P,C228,1*%
X138938000Y-115457500D03*
D13*
%TO.P,C228,2*%
X138938000Y-112507500D03*
%TD*%
D10*
%TO.C,W220*%
%TO.CFtp,PinHeader_1x02_P2.54mm_Vertical*%
%TO.CVal,TEST*%
%TO.CLbN,li-ion*%
%TO.CMnt,TH*%
%TO.CRot,0*%
X144907000Y-119000000D03*
D11*
X146706999Y-117200001D02*
X146706999Y-123349999D01*
X143107001Y-123349999D01*
X143107001Y-117200001D01*
X146706999Y-117200001D01*
D12*
%TO.P,W220,1,1*%
X144907000Y-119000000D03*
D13*
%TO.P,W220,2,2*%
X144907000Y-121540000D03*
%TD*%
D10*
%TO.C,P121*%
%TO.CFtp,PinHeader_1x01_P2.54mm_Vertical*%
%TO.CVal,DCIN*%
%TO.CLbN,li-ion*%
%TO.CMnt,TH*%
%TO.CRot,0*%
X112900000Y-83800000D03*
D11*
X114699999Y-82000001D02*
X114699999Y-85599999D01*
X111100001Y-85599999D01*
X111100001Y-82000001D01*
X114699999Y-82000001D01*
D12*
%TO.P,P121,1*%
X112900000Y-83800000D03*
%TD*%
D10*
%TO.C,P221*%
%TO.CFtp,PinHeader_1x01_P2.54mm_Vertical*%
%TO.CVal,DCIN*%
%TO.CLbN,li-ion*%
%TO.CMnt,TH*%
%TO.CRot,0*%
X112600000Y-121600000D03*
D11*
X114399999Y-119800001D02*
X114399999Y-123399999D01*
X110800001Y-123399999D01*
X110800001Y-119800001D01*
X114399999Y-119800001D01*
D12*
%TO.P,P221,1*%
X112600000Y-121600000D03*
%TD*%
D10*
%TO.C,P120*%
%TO.CFtp,PinHeader_1x01_P2.54mm_Vertical*%
%TO.CVal,GND*%
%TO.CLbN,li-ion*%
%TO.CMnt,TH*%
%TO.CRot,180*%
X101900000Y-87500000D03*
D11*
X103699999Y-85700001D02*
X103699999Y-89299999D01*
X100100001Y-89299999D01*
X100100001Y-85700001D01*
X103699999Y-85700001D01*
D12*
%TO.P,P120,1*%
X101900000Y-87500000D03*
%TD*%
D10*
%TO.C,P220*%
%TO.CFtp,PinHeader_1x01_P2.54mm_Vertical*%
%TO.CVal,GND*%
%TO.CLbN,li-ion*%
%TO.CMnt,TH*%
%TO.CRot,0*%
X101400000Y-111760000D03*
D11*
X103199999Y-109960001D02*
X103199999Y-113559999D01*
X99600001Y-113559999D01*
X99600001Y-109960001D01*
X103199999Y-109960001D01*
D12*
%TO.P,P220,1*%
X101400000Y-111760000D03*
%TD*%
D10*
%TO.C,C129*%
%TO.CFtp,C_1210_3225Metric*%
%TO.CVal,10uF*%
%TO.CLbN,li-ion*%
%TO.CMnt,SMD*%
%TO.CRot,0*%
X112268000Y-55816500D03*
D11*
X114567999Y-54216501D02*
X114567999Y-57416499D01*
X109968001Y-57416499D01*
X109968001Y-54216501D01*
X114567999Y-54216501D01*
D12*
%TO.P,C129,1*%
X110793000Y-55816500D03*
D13*
%TO.P,C129,2*%
X113743000Y-55816500D03*
%TD*%
D10*
%TO.C,C130*%
%TO.CFtp,C_1210_3225Metric*%
%TO.CVal,10uF*%
%TO.CLbN,li-ion*%
%TO.CMnt,SMD*%
%TO.CRot,90*%
X135128000Y-76136500D03*
D11*
X136727999Y-73836501D02*
X136727999Y-78436499D01*
X133528001Y-78436499D01*
X133528001Y-73836501D01*
X136727999Y-73836501D01*
D12*
%TO.P,C130,1*%
X135128000Y-77611500D03*
D13*
%TO.P,C130,2*%
X135128000Y-74661500D03*
%TD*%
D10*
%TO.C,C230*%
%TO.CFtp,C_1210_3225Metric*%
%TO.CVal,10uF*%
%TO.CLbN,li-ion*%
%TO.CMnt,SMD*%
%TO.CRot,90*%
X135128000Y-113982500D03*
D11*
X136727999Y-111682501D02*
X136727999Y-116282499D01*
X133528001Y-116282499D01*
X133528001Y-111682501D01*
X136727999Y-111682501D01*
D12*
%TO.P,C230,1*%
X135128000Y-115457500D03*
D13*
%TO.P,C230,2*%
X135128000Y-112507500D03*
%TD*%
D10*
%TO.C,C229*%
%TO.CFtp,C_1210_3225Metric*%
%TO.CVal,10uF*%
%TO.CLbN,li-ion*%
%TO.CMnt,SMD*%
%TO.CRot,0*%
X112268000Y-93027500D03*
D11*
X114567999Y-91427501D02*
X114567999Y-94627499D01*
X109968001Y-94627499D01*
X109968001Y-91427501D01*
X114567999Y-91427501D01*
D12*
%TO.P,C229,1*%
X110793000Y-93027500D03*
D13*
%TO.P,C229,2*%
X113743000Y-93027500D03*
%TD*%
D10*
%TO.C,JP120*%
%TO.CFtp,TerminalBlock_Phoenix_PT-1\u002C5-3-3.5-H_1x03_P3.50mm_Horizontal*%
%TO.CVal,XLR4*%
%TO.CLbN,li-ion*%
%TO.CMnt,TH*%
%TO.CRot,90*%
X167800000Y-84100000D03*
D11*
X172799999Y-74850001D02*
X172799999Y-86349999D01*
X164200001Y-86349999D01*
X164200001Y-74850001D01*
X172799999Y-74850001D01*
D12*
%TO.P,JP120,1,P1*%
X167800000Y-84100000D03*
D13*
%TO.P,JP120,2,PM*%
X167800000Y-80600000D03*
%TO.P,JP120,3,P3*%
X167800000Y-77100000D03*
%TD*%
D10*
%TO.C,JP220*%
%TO.CFtp,TerminalBlock_Phoenix_PT-1\u002C5-3-3.5-H_1x03_P3.50mm_Horizontal*%
%TO.CVal,XLR4*%
%TO.CLbN,li-ion*%
%TO.CMnt,TH*%
%TO.CRot,90*%
X167700000Y-110500000D03*
D11*
X172699999Y-101250001D02*
X172699999Y-112749999D01*
X164100001Y-112749999D01*
X164100001Y-101250001D01*
X172699999Y-101250001D01*
D12*
%TO.P,JP220,1,P1*%
X167700000Y-110500000D03*
D13*
%TO.P,JP220,2,PM*%
X167700000Y-107000000D03*
%TO.P,JP220,3,P3*%
X167700000Y-103500000D03*
%TD*%
D10*
%TO.C,R231*%
%TO.CFtp,R_0603_1608Metric*%
%TO.CVal,47K*%
%TO.CLbN,li-ion*%
%TO.CMnt,SMD*%
%TO.CRot,90*%
X170307000Y-99060000D03*
D11*
X171036999Y-97580001D02*
X171036999Y-100539999D01*
X169577001Y-100539999D01*
X169577001Y-97580001D01*
X171036999Y-97580001D01*
D12*
%TO.P,R231,1*%
X170307000Y-99885000D03*
D13*
%TO.P,R231,2*%
X170307000Y-98235000D03*
%TD*%
D10*
%TO.C,R131*%
%TO.CFtp,R_0603_1608Metric*%
%TO.CVal,47K*%
%TO.CLbN,li-ion*%
%TO.CMnt,SMD*%
%TO.CRot,90*%
X170307000Y-72517000D03*
D11*
X171036999Y-71037001D02*
X171036999Y-73996999D01*
X169577001Y-73996999D01*
X169577001Y-71037001D01*
X171036999Y-71037001D01*
D12*
%TO.P,R131,1*%
X170307000Y-73342000D03*
D13*
%TO.P,R131,2*%
X170307000Y-71692000D03*
%TD*%
D10*
%TO.C,Q120*%
%TO.CFtp,TO-252-2*%
%TO.CVal,FDD4685*%
%TO.CLbN,li-ion*%
%TO.CMnt,SMD*%
%TO.CRot,-90*%
X118620000Y-80140000D03*
D11*
X122119999Y-73750001D02*
X122119999Y-84849999D01*
X115120001Y-84849999D01*
X115120001Y-73750001D01*
X122119999Y-73750001D01*
D12*
%TO.P,Q120,1,G*%
X120900000Y-75100000D03*
D13*
%TO.P,Q120,2,D*%
X118620000Y-81400000D03*
%TO.P,Q120,3,S*%
X116340000Y-75100000D03*
%TD*%
D10*
%TO.C,Q220*%
%TO.CFtp,TO-252-2*%
%TO.CVal,FDD4685*%
%TO.CLbN,li-ion*%
%TO.CMnt,SMD*%
%TO.CRot,-90*%
X118720000Y-117140000D03*
D11*
X122219999Y-110750001D02*
X122219999Y-121849999D01*
X115220001Y-121849999D01*
X115220001Y-110750001D01*
X122219999Y-110750001D01*
D12*
%TO.P,Q220,1,G*%
X121000000Y-112100000D03*
D13*
%TO.P,Q220,2,D*%
X118720000Y-118400000D03*
%TO.P,Q220,3,S*%
X116440000Y-112100000D03*
%TD*%
D10*
%TO.C,X1*%
%TO.CFtp,Crystal_HC49-4H_Vertical*%
%TO.CVal,8MHz*%
%TO.CLbN,li-ion*%
%TO.CMnt,TH*%
%TO.CRot,0*%
X64250000Y-80400000D03*
D11*
X72749999Y-77600001D02*
X72749999Y-83199999D01*
X60650001Y-83199999D01*
X60650001Y-77600001D01*
X72749999Y-77600001D01*
D12*
%TO.P,X1,1,1*%
X64250000Y-80400000D03*
D13*
%TO.P,X1,2,2*%
X69130000Y-80400000D03*
%TD*%
D10*
%TO.C,U1*%
%TO.CFtp,SSOP17*%
%TO.CVal,LT3430*%
%TO.CLbN,li-ion*%
%TO.CMnt,SMD*%
%TO.CRot,180*%
X92329000Y-91186000D03*
D11*
X95778999Y-88436001D02*
X95778999Y-93885999D01*
X88904001Y-93885999D01*
X88904001Y-88436001D01*
X95778999Y-88436001D01*
D12*
%TO.P,U1,1,GND*%
X95123000Y-93446600D03*
D13*
%TO.P,U1,2,SW*%
X95123000Y-92811600D03*
%TO.P,U1,3,VIN*%
X95123000Y-92151200D03*
%TO.P,U1,4,VIN*%
X95123000Y-91516200D03*
%TO.P,U1,5,SW*%
X95123000Y-90855800D03*
%TO.P,U1,6,BOOST*%
X95123000Y-90208100D03*
%TO.P,U1,7*%
X95123000Y-89560400D03*
%TO.P,U1,8,GND*%
X95123000Y-88912700D03*
%TO.P,U1,9,GND*%
X89535000Y-88912700D03*
%TO.P,U1,10,Bias*%
X89535000Y-89560400D03*
%TO.P,U1,11,COMP*%
X89535000Y-90208100D03*
%TO.P,U1,12,FB(1.22V)*%
X89535000Y-90855800D03*
%TO.P,U1,13*%
X89535000Y-91516200D03*
%TO.P,U1,14,SYNC*%
X89535000Y-92163900D03*
%TO.P,U1,15,SHDN*%
X89535000Y-92811600D03*
%TO.P,U1,16,GND*%
X89535000Y-93459300D03*
%TO.P,U1,17,GND*%
X92329000Y-91186000D03*
%TD*%
D10*
%TO.C,C2*%
%TO.CFtp,C_0805_2012Metric*%
%TO.CVal,22nF*%
%TO.CLbN,li-ion*%
%TO.CMnt,SMD*%
%TO.CRot,180*%
X86106000Y-89027000D03*
D11*
X87805999Y-88047001D02*
X87805999Y-90006999D01*
X84406001Y-90006999D01*
X84406001Y-88047001D01*
X87805999Y-88047001D01*
D12*
%TO.P,C2,1*%
X87056000Y-89027000D03*
D13*
%TO.P,C2,2*%
X85156000Y-89027000D03*
%TD*%
D10*
%TO.C,C6*%
%TO.CFtp,C_0805_2012Metric*%
%TO.CVal,220nF*%
%TO.CLbN,li-ion*%
%TO.CMnt,SMD*%
%TO.CRot,0*%
X94234000Y-95504000D03*
D11*
X95933999Y-94524001D02*
X95933999Y-96483999D01*
X92534001Y-96483999D01*
X92534001Y-94524001D01*
X95933999Y-94524001D01*
D12*
%TO.P,C6,1*%
X93284000Y-95504000D03*
D13*
%TO.P,C6,2*%
X95184000Y-95504000D03*
%TD*%
D10*
%TO.C,C7*%
%TO.CFtp,C_0805_2012Metric*%
%TO.CVal,470nF*%
%TO.CLbN,li-ion*%
%TO.CMnt,SMD*%
%TO.CRot,0*%
X94234000Y-97790000D03*
D11*
X95933999Y-96810001D02*
X95933999Y-98769999D01*
X92534001Y-98769999D01*
X92534001Y-96810001D01*
X95933999Y-96810001D01*
D12*
%TO.P,C7,1*%
X93284000Y-97790000D03*
D13*
%TO.P,C7,2*%
X95184000Y-97790000D03*
%TD*%
D10*
%TO.C,D1*%
%TO.CFtp,SOT-23*%
%TO.CVal,BAS21*%
%TO.CLbN,li-ion*%
%TO.CMnt,SMD*%
%TO.CRot,90*%
X90551000Y-96393000D03*
D11*
X92250999Y-94473001D02*
X92250999Y-98312999D01*
X88851001Y-98312999D01*
X88851001Y-94473001D01*
X92250999Y-94473001D01*
D12*
%TO.P,D1,1,A*%
X89601000Y-97330500D03*
D13*
%TO.P,D1,2*%
X91501000Y-97330500D03*
%TO.P,D1,3,K*%
X90551000Y-95455500D03*
%TD*%
D10*
%TO.C,L1*%
%TO.CFtp,self_cms_we-pd3*%
%TO.CVal,22uH*%
%TO.CLbN,li-ion*%
%TO.CMnt,SMD*%
%TO.CRot,180*%
X92710000Y-104013000D03*
D14*
X99289870Y-105512870D02*
X99289870Y-102513130D01*
X86130130Y-102513130D01*
X86130130Y-105512870D01*
X99289870Y-105512870D01*
D12*
%TO.P,L1,1,1*%
X97790000Y-104013000D03*
D13*
%TO.P,L1,2,2*%
X87630000Y-104013000D03*
%TD*%
D10*
%TO.C,R2*%
%TO.CFtp,R_0805_2012Metric*%
%TO.CVal,15K*%
%TO.CLbN,li-ion*%
%TO.CMnt,SMD*%
%TO.CRot,180*%
X86106000Y-96266000D03*
D11*
X87785999Y-95316001D02*
X87785999Y-97215999D01*
X84426001Y-97215999D01*
X84426001Y-95316001D01*
X87785999Y-95316001D01*
D12*
%TO.P,R2,1*%
X87018500Y-96266000D03*
D13*
%TO.P,R2,2*%
X85193500Y-96266000D03*
%TD*%
D10*
%TO.C,R3*%
%TO.CFtp,R_0805_2012Metric*%
%TO.CVal,1K5*%
%TO.CLbN,li-ion*%
%TO.CMnt,SMD*%
%TO.CRot,0*%
X86106000Y-93853000D03*
D11*
X87785999Y-92903001D02*
X87785999Y-94802999D01*
X84426001Y-94802999D01*
X84426001Y-92903001D01*
X87785999Y-92903001D01*
D12*
%TO.P,R3,1*%
X85193500Y-93853000D03*
D13*
%TO.P,R3,2*%
X87018500Y-93853000D03*
%TD*%
D10*
%TO.C,R4*%
%TO.CFtp,R_0805_2012Metric*%
%TO.CVal,10K*%
%TO.CLbN,li-ion*%
%TO.CMnt,SMD*%
%TO.CRot,180*%
X86106000Y-91440000D03*
D11*
X87785999Y-90490001D02*
X87785999Y-92389999D01*
X84426001Y-92389999D01*
X84426001Y-90490001D01*
X87785999Y-90490001D01*
D12*
%TO.P,R4,1*%
X87018500Y-91440000D03*
D13*
%TO.P,R4,2*%
X85193500Y-91440000D03*
%TD*%
D10*
%TO.C,D2*%
%TO.CFtp,DO_214AA*%
%TO.CVal,SS24*%
%TO.CLbN,li-ion*%
%TO.CMnt,SMD*%
%TO.CRot,0*%
X99822000Y-96647000D03*
D11*
X102821999Y-94397001D02*
X102821999Y-98971999D01*
X96822001Y-98971999D01*
X96822001Y-94397001D01*
X102821999Y-94397001D01*
D12*
%TO.P,D2,1,K*%
X97790000Y-96647000D03*
D13*
%TO.P,D2,2,A*%
X101854000Y-96647000D03*
%TD*%
D10*
%TO.C,W1*%
%TO.CFtp,PinHeader_1x02_P2.54mm_Vertical*%
%TO.CVal,3V3*%
%TO.CLbN,li-ion*%
%TO.CMnt,TH*%
%TO.CRot,-90*%
X96400000Y-123000000D03*
D11*
X98199999Y-121200001D02*
X98199999Y-124799999D01*
X92050001Y-124799999D01*
X92050001Y-121200001D01*
X98199999Y-121200001D01*
D12*
%TO.P,W1,1,1*%
X96400000Y-123000000D03*
D13*
%TO.P,W1,2,2*%
X93860000Y-123000000D03*
%TD*%
D10*
%TO.C,C5*%
%TO.CFtp,C_0805_2012Metric*%
%TO.CVal,220pF*%
%TO.CLbN,li-ion*%
%TO.CMnt,SMD*%
%TO.CRot,90*%
X87884000Y-86106000D03*
D11*
X88863999Y-84406001D02*
X88863999Y-87805999D01*
X86904001Y-87805999D01*
X86904001Y-84406001D01*
X88863999Y-84406001D01*
D12*
%TO.P,C5,1*%
X87884000Y-87056000D03*
D13*
%TO.P,C5,2*%
X87884000Y-85156000D03*
%TD*%
D10*
%TO.C,R10*%
%TO.CFtp,R_0805_2012Metric*%
%TO.CVal,4K7*%
%TO.CLbN,li-ion*%
%TO.CMnt,SMD*%
%TO.CRot,0*%
X56515000Y-77470000D03*
D11*
X58194999Y-76520001D02*
X58194999Y-78419999D01*
X54835001Y-78419999D01*
X54835001Y-76520001D01*
X58194999Y-76520001D01*
D12*
%TO.P,R10,1*%
X55602500Y-77470000D03*
D13*
%TO.P,R10,2*%
X57427500Y-77470000D03*
%TD*%
D10*
%TO.C,R12*%
%TO.CFtp,R_0805_2012Metric*%
%TO.CVal,4K7*%
%TO.CLbN,li-ion*%
%TO.CMnt,SMD*%
%TO.CRot,90*%
X52324000Y-114935000D03*
D11*
X53273999Y-113255001D02*
X53273999Y-116614999D01*
X51374001Y-116614999D01*
X51374001Y-113255001D01*
X53273999Y-113255001D01*
D12*
%TO.P,R12,1*%
X52324000Y-115847500D03*
D13*
%TO.P,R12,2*%
X52324000Y-114022500D03*
%TD*%
D10*
%TO.C,R13*%
%TO.CFtp,R_0805_2012Metric*%
%TO.CVal,4K7*%
%TO.CLbN,li-ion*%
%TO.CMnt,SMD*%
%TO.CRot,-90*%
X85979000Y-110998000D03*
D11*
X86928999Y-109318001D02*
X86928999Y-112677999D01*
X85029001Y-112677999D01*
X85029001Y-109318001D01*
X86928999Y-109318001D01*
D12*
%TO.P,R13,1*%
X85979000Y-110085500D03*
D13*
%TO.P,R13,2*%
X85979000Y-111910500D03*
%TD*%
D10*
%TO.C,R14*%
%TO.CFtp,R_0805_2012Metric*%
%TO.CVal,4K7*%
%TO.CLbN,li-ion*%
%TO.CMnt,SMD*%
%TO.CRot,90*%
X54483000Y-114935000D03*
D11*
X55432999Y-113255001D02*
X55432999Y-116614999D01*
X53533001Y-116614999D01*
X53533001Y-113255001D01*
X55432999Y-113255001D01*
D12*
%TO.P,R14,1*%
X54483000Y-115847500D03*
D13*
%TO.P,R14,2*%
X54483000Y-114022500D03*
%TD*%
D10*
%TO.C,R15*%
%TO.CFtp,R_0805_2012Metric*%
%TO.CVal,4K7*%
%TO.CLbN,li-ion*%
%TO.CMnt,SMD*%
%TO.CRot,90*%
X58801000Y-114935000D03*
D11*
X59750999Y-113255001D02*
X59750999Y-116614999D01*
X57851001Y-116614999D01*
X57851001Y-113255001D01*
X59750999Y-113255001D01*
D12*
%TO.P,R15,1*%
X58801000Y-115847500D03*
D13*
%TO.P,R15,2*%
X58801000Y-114022500D03*
%TD*%
D10*
%TO.C,R23*%
%TO.CFtp,R_0805_2012Metric*%
%TO.CVal,4K7*%
%TO.CLbN,li-ion*%
%TO.CMnt,SMD*%
%TO.CRot,-90*%
X79502000Y-110998000D03*
D11*
X80451999Y-109318001D02*
X80451999Y-112677999D01*
X78552001Y-112677999D01*
X78552001Y-109318001D01*
X80451999Y-109318001D01*
D12*
%TO.P,R23,1*%
X79502000Y-110085500D03*
D13*
%TO.P,R23,2*%
X79502000Y-111910500D03*
%TD*%
D10*
%TO.C,R16*%
%TO.CFtp,R_0805_2012Metric*%
%TO.CVal,4K7*%
%TO.CLbN,li-ion*%
%TO.CMnt,SMD*%
%TO.CRot,-90*%
X83820000Y-110998000D03*
D11*
X84769999Y-109318001D02*
X84769999Y-112677999D01*
X82870001Y-112677999D01*
X82870001Y-109318001D01*
X84769999Y-109318001D01*
D12*
%TO.P,R16,1*%
X83820000Y-110085500D03*
D13*
%TO.P,R16,2*%
X83820000Y-111910500D03*
%TD*%
D10*
%TO.C,R17*%
%TO.CFtp,R_0805_2012Metric*%
%TO.CVal,4K7*%
%TO.CLbN,li-ion*%
%TO.CMnt,SMD*%
%TO.CRot,90*%
X56642000Y-114935000D03*
D11*
X57591999Y-113255001D02*
X57591999Y-116614999D01*
X55692001Y-116614999D01*
X55692001Y-113255001D01*
X57591999Y-113255001D01*
D12*
%TO.P,R17,1*%
X56642000Y-115847500D03*
D13*
%TO.P,R17,2*%
X56642000Y-114022500D03*
%TD*%
D10*
%TO.C,R26*%
%TO.CFtp,R_0805_2012Metric*%
%TO.CVal,4K7*%
%TO.CLbN,li-ion*%
%TO.CMnt,SMD*%
%TO.CRot,-90*%
X81661000Y-110998000D03*
D11*
X82610999Y-109318001D02*
X82610999Y-112677999D01*
X80711001Y-112677999D01*
X80711001Y-109318001D01*
X82610999Y-109318001D01*
D12*
%TO.P,R26,1*%
X81661000Y-110085500D03*
D13*
%TO.P,R26,2*%
X81661000Y-111910500D03*
%TD*%
D10*
%TO.C,LED1*%
%TO.CFtp,CONN-3-LED*%
%TO.CVal,LEDBI*%
%TO.CLbN,li-ion*%
%TO.CMnt,Other*%
%TO.CRot,0*%
X64900000Y-60100000D03*
D11*
X71499999Y-57100001D02*
X71499999Y-63299999D01*
X63400001Y-63299999D01*
X63400001Y-57100001D01*
X71499999Y-57100001D01*
D12*
%TO.P,LED1,1,A1*%
X64900000Y-60100000D03*
D13*
%TO.P,LED1,2,K*%
X67440000Y-60100000D03*
%TO.P,LED1,3,A2*%
X69980000Y-60100000D03*
%TD*%
D10*
%TO.C,LED2*%
%TO.CFtp,CONN-3-LED*%
%TO.CVal,LEDBI*%
%TO.CLbN,li-ion*%
%TO.CMnt,Other*%
%TO.CRot,0*%
X64900000Y-118400000D03*
D11*
X71499999Y-115400001D02*
X71499999Y-121599999D01*
X63400001Y-121599999D01*
X63400001Y-115400001D01*
X71499999Y-115400001D01*
D12*
%TO.P,LED2,1,A1*%
X64900000Y-118400000D03*
D13*
%TO.P,LED2,2,K*%
X67440000Y-118400000D03*
%TO.P,LED2,3,A2*%
X69980000Y-118400000D03*
%TD*%
D10*
%TO.C,W2*%
%TO.CFtp,PinHeader_1x02_P2.54mm_Vertical*%
%TO.CVal,GND*%
%TO.CLbN,li-ion*%
%TO.CMnt,TH*%
%TO.CRot,-90*%
X69775000Y-124400000D03*
D11*
X71574999Y-122600001D02*
X71574999Y-126199999D01*
X65425001Y-126199999D01*
X65425001Y-122600001D01*
X71574999Y-122600001D01*
D12*
%TO.P,W2,1,1*%
X69775000Y-124400000D03*
D13*
%TO.P,W2,2,2*%
X67235000Y-124400000D03*
%TD*%
D10*
%TO.C,W100*%
%TO.CFtp,PinHeader_1x02_P2.54mm_Vertical*%
%TO.CVal,TEST*%
%TO.CLbN,li-ion*%
%TO.CMnt,TH*%
%TO.CRot,0*%
X160600000Y-77700000D03*
D11*
X162399999Y-75900001D02*
X162399999Y-82049999D01*
X158800001Y-82049999D01*
X158800001Y-75900001D01*
X162399999Y-75900001D01*
D12*
%TO.P,W100,1,1*%
X160600000Y-77700000D03*
D13*
%TO.P,W100,2,2*%
X160600000Y-80240000D03*
%TD*%
D10*
%TO.C,W200*%
%TO.CFtp,PinHeader_1x02_P2.54mm_Vertical*%
%TO.CVal,TEST*%
%TO.CLbN,li-ion*%
%TO.CMnt,TH*%
%TO.CRot,0*%
X160800000Y-104225000D03*
D11*
X162599999Y-102425001D02*
X162599999Y-108574999D01*
X159000001Y-108574999D01*
X159000001Y-102425001D01*
X162599999Y-102425001D01*
D12*
%TO.P,W200,1,1*%
X160800000Y-104225000D03*
D13*
%TO.P,W200,2,2*%
X160800000Y-106765000D03*
%TD*%
D10*
%TO.C,R233*%
%TO.CFtp,R_0603_1608Metric*%
%TO.CVal,1K*%
%TO.CLbN,li-ion*%
%TO.CMnt,SMD*%
%TO.CRot,90*%
X161290000Y-99060000D03*
D11*
X162019999Y-97580001D02*
X162019999Y-100539999D01*
X160560001Y-100539999D01*
X160560001Y-97580001D01*
X162019999Y-97580001D01*
D12*
%TO.P,R233,1*%
X161290000Y-99885000D03*
D13*
%TO.P,R233,2*%
X161290000Y-98235000D03*
%TD*%
D10*
%TO.C,R133*%
%TO.CFtp,R_0603_1608Metric*%
%TO.CVal,1K*%
%TO.CLbN,li-ion*%
%TO.CMnt,SMD*%
%TO.CRot,90*%
X161290000Y-72517000D03*
D11*
X162019999Y-71037001D02*
X162019999Y-73996999D01*
X160560001Y-73996999D01*
X160560001Y-71037001D01*
X162019999Y-71037001D01*
D12*
%TO.P,R133,1*%
X161290000Y-73342000D03*
D13*
%TO.P,R133,2*%
X161290000Y-71692000D03*
%TD*%
D10*
%TO.C,L121*%
%TO.CFtp,SELF.WEPD*%
%TO.CVal,22uH/5\u002C3A*%
%TO.CLbN,li-ion*%
%TO.CMnt,SMD*%
%TO.CRot,90*%
X152400000Y-69215000D03*
D11*
X157449999Y-62790001D02*
X158449999Y-63790001D01*
X158449999Y-74664999D01*
X157449999Y-75664999D01*
X147300001Y-75664999D01*
X146300001Y-74664999D01*
X146300001Y-63790001D01*
X147300001Y-62790001D01*
X157449999Y-62790001D01*
D12*
%TO.P,L121,1,1*%
X152400000Y-64135000D03*
D13*
%TO.P,L121,2,2*%
X152400000Y-74295000D03*
%TD*%
D10*
%TO.C,L220*%
%TO.CFtp,SELF.WEPD*%
%TO.CVal,22uH/5\u002C3A*%
%TO.CLbN,li-ion*%
%TO.CMnt,SMD*%
%TO.CRot,90*%
X139700000Y-99060000D03*
D11*
X144749999Y-92635001D02*
X145749999Y-93635001D01*
X145749999Y-104509999D01*
X144749999Y-105509999D01*
X134600001Y-105509999D01*
X133600001Y-104509999D01*
X133600001Y-93635001D01*
X134600001Y-92635001D01*
X144749999Y-92635001D01*
D12*
%TO.P,L220,1,1*%
X139700000Y-93980000D03*
D13*
%TO.P,L220,2,2*%
X139700000Y-104140000D03*
%TD*%
D10*
%TO.C,L221*%
%TO.CFtp,SELF.WEPD*%
%TO.CVal,22uH/5\u002C3A*%
%TO.CLbN,li-ion*%
%TO.CMnt,SMD*%
%TO.CRot,90*%
X152400000Y-106680000D03*
D11*
X157449999Y-100255001D02*
X158449999Y-101255001D01*
X158449999Y-112129999D01*
X157449999Y-113129999D01*
X147300001Y-113129999D01*
X146300001Y-112129999D01*
X146300001Y-101255001D01*
X147300001Y-100255001D01*
X157449999Y-100255001D01*
D12*
%TO.P,L221,1,1*%
X152400000Y-101600000D03*
D13*
%TO.P,L221,2,2*%
X152400000Y-111760000D03*
%TD*%
D10*
%TO.C,C54*%
%TO.CFtp,C_2220_5650Metric_Pad1.97x5.40mm_HandSolder*%
%TO.CVal,100uF/16V*%
%TO.CLbN,Capacitor_SMD*%
%TO.CMnt,SMD*%
%TO.CRot,180*%
X103378000Y-65024000D03*
D11*
X107257999Y-62074001D02*
X107257999Y-67973999D01*
X99498001Y-67973999D01*
X99498001Y-62074001D01*
X107257999Y-62074001D01*
D12*
%TO.P,C54,1*%
X106015500Y-65024000D03*
D13*
%TO.P,C54,2*%
X100740500Y-65024000D03*
%TD*%
D10*
%TO.C,R51*%
%TO.CFtp,R_0805_2012Metric*%
%TO.CVal,100K*%
%TO.CLbN,li-ion*%
%TO.CMnt,SMD*%
%TO.CRot,180*%
X80772000Y-66675000D03*
D11*
X82451999Y-65725001D02*
X82451999Y-67624999D01*
X79092001Y-67624999D01*
X79092001Y-65725001D01*
X82451999Y-65725001D01*
D12*
%TO.P,R51,1*%
X81684500Y-66675000D03*
D13*
%TO.P,R51,2*%
X79859500Y-66675000D03*
%TD*%
D10*
%TO.C,C53*%
%TO.CFtp,C_1812_4532Metric_Pad1.57x3.40mm_HandSolder*%
%TO.CVal,10uF/35V*%
%TO.CLbN,li-ion*%
%TO.CMnt,SMD*%
%TO.CRot,-90*%
X80264000Y-57023000D03*
D11*
X82213999Y-53843001D02*
X82213999Y-60202999D01*
X78314001Y-60202999D01*
X78314001Y-53843001D01*
X82213999Y-53843001D01*
D12*
%TO.P,C53,1*%
X80264000Y-54885500D03*
D13*
%TO.P,C53,2*%
X80264000Y-59160500D03*
%TD*%
D10*
%TO.C,U51*%
%TO.CFtp,SSOP17*%
%TO.CVal,LT3430*%
%TO.CLbN,li-ion*%
%TO.CMnt,SMD*%
%TO.CRot,-90*%
X85852000Y-59690000D03*
D11*
X88551999Y-56240001D02*
X88551999Y-63114999D01*
X83102001Y-63114999D01*
X83102001Y-56240001D01*
X88551999Y-56240001D01*
D12*
%TO.P,U51,1,GND*%
X88112600Y-56896000D03*
D13*
%TO.P,U51,2,SW*%
X87477600Y-56896000D03*
%TO.P,U51,3,VIN*%
X86817200Y-56896000D03*
%TO.P,U51,4,VIN*%
X86182200Y-56896000D03*
%TO.P,U51,5,SW*%
X85521800Y-56896000D03*
%TO.P,U51,6,BOOST*%
X84874100Y-56896000D03*
%TO.P,U51,7*%
X84226400Y-56896000D03*
%TO.P,U51,8,GND*%
X83578700Y-56896000D03*
%TO.P,U51,9,GND*%
X83578700Y-62484000D03*
%TO.P,U51,10,Bias*%
X84226400Y-62484000D03*
%TO.P,U51,11,COMP*%
X84874100Y-62484000D03*
%TO.P,U51,12,FB(1.22V)*%
X85521800Y-62484000D03*
%TO.P,U51,13*%
X86182200Y-62484000D03*
%TO.P,U51,14,SYNC*%
X86829900Y-62484000D03*
%TO.P,U51,15,SHDN*%
X87477600Y-62484000D03*
%TO.P,U51,16,GND*%
X88125300Y-62484000D03*
%TO.P,U51,17,GND*%
X85852000Y-59690000D03*
%TD*%
D10*
%TO.C,C52*%
%TO.CFtp,C_0805_2012Metric*%
%TO.CVal,22nF*%
%TO.CLbN,li-ion*%
%TO.CMnt,SMD*%
%TO.CRot,-90*%
X83693000Y-65913000D03*
D11*
X84672999Y-64213001D02*
X84672999Y-67612999D01*
X82713001Y-67612999D01*
X82713001Y-64213001D01*
X84672999Y-64213001D01*
D12*
%TO.P,C52,1*%
X83693000Y-64963000D03*
D13*
%TO.P,C52,2*%
X83693000Y-66863000D03*
%TD*%
D10*
%TO.C,C56*%
%TO.CFtp,C_0805_2012Metric*%
%TO.CVal,220nF*%
%TO.CLbN,li-ion*%
%TO.CMnt,SMD*%
%TO.CRot,90*%
X90678000Y-61849000D03*
D11*
X91657999Y-60149001D02*
X91657999Y-63548999D01*
X89698001Y-63548999D01*
X89698001Y-60149001D01*
X91657999Y-60149001D01*
D12*
%TO.P,C56,1*%
X90678000Y-62799000D03*
D13*
%TO.P,C56,2*%
X90678000Y-60899000D03*
%TD*%
D10*
%TO.C,C57*%
%TO.CFtp,C_0805_2012Metric*%
%TO.CVal,470nF*%
%TO.CLbN,li-ion*%
%TO.CMnt,SMD*%
%TO.CRot,90*%
X92964000Y-61849000D03*
D11*
X93943999Y-60149001D02*
X93943999Y-63548999D01*
X91984001Y-63548999D01*
X91984001Y-60149001D01*
X93943999Y-60149001D01*
D12*
%TO.P,C57,1*%
X92964000Y-62799000D03*
D13*
%TO.P,C57,2*%
X92964000Y-60899000D03*
%TD*%
D10*
%TO.C,D51*%
%TO.CFtp,SOT-23*%
%TO.CVal,BAS21*%
%TO.CLbN,li-ion*%
%TO.CMnt,SMD*%
%TO.CRot,180*%
X91567000Y-65913000D03*
D11*
X93486999Y-64213001D02*
X93486999Y-67612999D01*
X89647001Y-67612999D01*
X89647001Y-64213001D01*
X93486999Y-64213001D01*
D12*
%TO.P,D51,1,A*%
X92504500Y-66863000D03*
D13*
%TO.P,D51,2*%
X92504500Y-64963000D03*
%TO.P,D51,3,K*%
X90629500Y-65913000D03*
%TD*%
D10*
%TO.C,L51*%
%TO.CFtp,self_cms_we-pd3*%
%TO.CVal,22uH*%
%TO.CLbN,li-ion*%
%TO.CMnt,SMD*%
%TO.CRot,0*%
X100965000Y-56515000D03*
D14*
X94385130Y-55015130D02*
X94385130Y-58014870D01*
X107544870Y-58014870D01*
X107544870Y-55015130D01*
X94385130Y-55015130D01*
D12*
%TO.P,L51,1,1*%
X95885000Y-56515000D03*
D13*
%TO.P,L51,2,2*%
X106045000Y-56515000D03*
%TD*%
D10*
%TO.C,R52*%
%TO.CFtp,R_0805_2012Metric*%
%TO.CVal,10K*%
%TO.CLbN,li-ion*%
%TO.CMnt,SMD*%
%TO.CRot,90*%
X88392000Y-65913000D03*
D11*
X89341999Y-64233001D02*
X89341999Y-67592999D01*
X87442001Y-67592999D01*
X87442001Y-64233001D01*
X89341999Y-64233001D01*
D12*
%TO.P,R52,1*%
X88392000Y-66825500D03*
D13*
%TO.P,R52,2*%
X88392000Y-65000500D03*
%TD*%
D10*
%TO.C,R54*%
%TO.CFtp,R_0805_2012Metric*%
%TO.CVal,1K2*%
%TO.CLbN,li-ion*%
%TO.CMnt,SMD*%
%TO.CRot,-90*%
X65659000Y-65405000D03*
D11*
X66608999Y-63725001D02*
X66608999Y-67084999D01*
X64709001Y-67084999D01*
X64709001Y-63725001D01*
X66608999Y-63725001D01*
D12*
%TO.P,R54,1*%
X65659000Y-64492500D03*
D13*
%TO.P,R54,2*%
X65659000Y-66317500D03*
%TD*%
D10*
%TO.C,D52*%
%TO.CFtp,DO_214AA*%
%TO.CVal,SS24*%
%TO.CLbN,li-ion*%
%TO.CMnt,SMD*%
%TO.CRot,-90*%
X91313000Y-56515000D03*
D11*
X93562999Y-53515001D02*
X93562999Y-59514999D01*
X88988001Y-59514999D01*
X88988001Y-53515001D01*
X93562999Y-53515001D01*
D12*
%TO.P,D52,1,K*%
X91313000Y-54483000D03*
D13*
%TO.P,D52,2,A*%
X91313000Y-58547000D03*
%TD*%
D10*
%TO.C,C55*%
%TO.CFtp,C_0805_2012Metric*%
%TO.CVal,220pF*%
%TO.CLbN,li-ion*%
%TO.CMnt,SMD*%
%TO.CRot,180*%
X80772000Y-64135000D03*
D11*
X82471999Y-63155001D02*
X82471999Y-65114999D01*
X79072001Y-65114999D01*
X79072001Y-63155001D01*
X82471999Y-63155001D01*
D12*
%TO.P,C55,1*%
X81722000Y-64135000D03*
D13*
%TO.P,C55,2*%
X79822000Y-64135000D03*
%TD*%
D10*
%TO.C,P50*%
%TO.CFtp,TerminalBlock_Phoenix_PT-1\u002C5-2-3.5-H_1x02_P3.50mm_Horizontal*%
%TO.CVal,CONN_2*%
%TO.CLbN,li-ion*%
%TO.CMnt,TH*%
%TO.CRot,90*%
X168100000Y-92800000D03*
D11*
X173099999Y-87050001D02*
X173099999Y-95049999D01*
X164500001Y-95049999D01*
X164500001Y-87050001D01*
X173099999Y-87050001D01*
D12*
%TO.P,P50,1,P1*%
X168100000Y-92800000D03*
D13*
%TO.P,P50,2,PM*%
X168100000Y-89300000D03*
%TD*%
D10*
%TO.C,TH1*%
%TO.CFtp,CNT-2-127*%
%TO.CVal,10K*%
%TO.CLbN,li-ion*%
%TO.CMnt,Other*%
%TO.CRot,-90*%
X93345000Y-118745000D03*
D14*
X93980000Y-117703600D02*
X92710000Y-117703600D01*
X92710000Y-119786400D01*
X93980000Y-119786400D01*
X93980000Y-117703600D01*
D12*
%TO.P,TH1,1*%
X93345000Y-118110000D03*
D13*
%TO.P,TH1,2*%
X93345000Y-119380000D03*
%TD*%
D10*
%TO.C,R6*%
%TO.CFtp,R_0805_2012Metric*%
%TO.CVal,10K*%
%TO.CLbN,li-ion*%
%TO.CMnt,SMD*%
%TO.CRot,90*%
X95885000Y-118745000D03*
D11*
X96834999Y-117065001D02*
X96834999Y-120424999D01*
X94935001Y-120424999D01*
X94935001Y-117065001D01*
X96834999Y-117065001D01*
D12*
%TO.P,R6,1*%
X95885000Y-119657500D03*
D13*
%TO.P,R6,2*%
X95885000Y-117832500D03*
%TD*%
D10*
%TO.C,R53*%
%TO.CFtp,R_0805_2012Metric*%
%TO.CVal,8K2*%
%TO.CLbN,li-ion*%
%TO.CMnt,SMD*%
%TO.CRot,-90*%
X86106000Y-65913000D03*
D11*
X87055999Y-64233001D02*
X87055999Y-67592999D01*
X85156001Y-67592999D01*
X85156001Y-64233001D01*
X87055999Y-64233001D01*
D12*
%TO.P,R53,1*%
X86106000Y-65000500D03*
D13*
%TO.P,R53,2*%
X86106000Y-66825500D03*
%TD*%
D10*
%TO.C,P51*%
%TO.CFtp,PinHeader_1x01_P2.54mm_Vertical*%
%TO.CVal,TST*%
%TO.CLbN,li-ion*%
%TO.CMnt,TH*%
%TO.CRot,0*%
X74900000Y-55600000D03*
D11*
X76699999Y-53800001D02*
X76699999Y-57399999D01*
X73100001Y-57399999D01*
X73100001Y-53800001D01*
X76699999Y-53800001D01*
D12*
%TO.P,P51,1*%
X74900000Y-55600000D03*
%TD*%
D10*
%TO.C,P52*%
%TO.CFtp,PinHeader_1x01_P2.54mm_Vertical*%
%TO.CVal,TST*%
%TO.CLbN,li-ion*%
%TO.CMnt,TH*%
%TO.CRot,0*%
X97100000Y-65100000D03*
D11*
X98899999Y-63300001D02*
X98899999Y-66899999D01*
X95300001Y-66899999D01*
X95300001Y-63300001D01*
X98899999Y-63300001D01*
D12*
%TO.P,P52,1*%
X97100000Y-65100000D03*
%TD*%
D10*
%TO.C,R50*%
%TO.CFtp,R_0805_2012Metric*%
%TO.CVal,10*%
%TO.CLbN,li-ion*%
%TO.CMnt,SMD*%
%TO.CRot,180*%
X162179000Y-89535000D03*
D11*
X163858999Y-88585001D02*
X163858999Y-90484999D01*
X160499001Y-90484999D01*
X160499001Y-88585001D01*
X163858999Y-88585001D01*
D12*
%TO.P,R50,1*%
X163091500Y-89535000D03*
D13*
%TO.P,R50,2*%
X161266500Y-89535000D03*
%TD*%
D10*
%TO.C,D50*%
%TO.CFtp,DO_214AA*%
%TO.CVal,SS24*%
%TO.CLbN,li-ion*%
%TO.CMnt,SMD*%
%TO.CRot,0*%
X161290000Y-92837000D03*
D11*
X164289999Y-90587001D02*
X164289999Y-95161999D01*
X158290001Y-95161999D01*
X158290001Y-90587001D01*
X164289999Y-90587001D01*
D12*
%TO.P,D50,1,K*%
X159258000Y-92837000D03*
D13*
%TO.P,D50,2,A*%
X163322000Y-92837000D03*
%TD*%
D10*
%TO.C,P2*%
%TO.CFtp,HE10-26D*%
%TO.CVal,CONN_13X2*%
%TO.CLbN,li-ion*%
%TO.CMnt,TH*%
%TO.CRot,180*%
X55900000Y-111100000D03*
D14*
X56598500Y-111798500D02*
X56598500Y-79921500D01*
X52661500Y-79921500D01*
X52661500Y-111798500D01*
X56598500Y-111798500D01*
D12*
%TO.P,P2,1,P1*%
X55900000Y-111100000D03*
D13*
%TO.P,P2,2,P2*%
X53360000Y-111100000D03*
%TO.P,P2,3,P3*%
X55900000Y-108560000D03*
%TO.P,P2,4,P4*%
X53360000Y-108560000D03*
%TO.P,P2,5,P5*%
X55900000Y-106020000D03*
%TO.P,P2,6,P6*%
X53360000Y-106020000D03*
%TO.P,P2,7,P7*%
X55900000Y-103480000D03*
%TO.P,P2,8,P8*%
X53360000Y-103480000D03*
%TO.P,P2,9,P9*%
X55900000Y-100940000D03*
%TO.P,P2,10,P10*%
X53360000Y-100940000D03*
%TO.P,P2,11,P11*%
X55900000Y-98400000D03*
%TO.P,P2,12,P12*%
X53360000Y-98400000D03*
%TO.P,P2,13,P13*%
X55900000Y-95860000D03*
%TO.P,P2,14,P14*%
X53360000Y-95860000D03*
%TO.P,P2,15,P15*%
X55900000Y-93320000D03*
%TO.P,P2,16,P16*%
X53360000Y-93320000D03*
%TO.P,P2,17,P17*%
X55900000Y-90780000D03*
%TO.P,P2,18,P18*%
X53360000Y-90780000D03*
%TO.P,P2,19,P19*%
X55900000Y-88240000D03*
%TO.P,P2,20,P20*%
X53360000Y-88240000D03*
%TO.P,P2,21,P21*%
X55900000Y-85700000D03*
%TO.P,P2,22,P22*%
X53360000Y-85700000D03*
%TO.P,P2,23,P23*%
X55900000Y-83160000D03*
%TO.P,P2,24,P20*%
X53360000Y-83160000D03*
%TO.P,P2,25,P24*%
X55900000Y-80620000D03*
%TO.P,P2,26,P22*%
X53360000Y-80620000D03*
%TD*%
D10*
%TO.C,K1*%
%TO.CFtp,SIL-3*%
%TO.CVal,CONN_3*%
%TO.CLbN,li-ion*%
%TO.CMnt,Other*%
%TO.CRot,90*%
X59563000Y-111100000D03*
D14*
X58864500Y-111798500D02*
X60261500Y-111798500D01*
X60261500Y-105321500D01*
X58864500Y-105321500D01*
X58864500Y-111798500D01*
D12*
%TO.P,K1,1,P1*%
X59563000Y-111100000D03*
D13*
%TO.P,K1,2,PM*%
X59563000Y-108560000D03*
%TO.P,K1,3,P3*%
X59563000Y-106020000D03*
%TD*%
D10*
%TO.C,C18*%
%TO.CFtp,C_0805_2012Metric*%
%TO.CVal,22nF*%
%TO.CLbN,li-ion*%
%TO.CMnt,SMD*%
%TO.CRot,90*%
X75057000Y-116840000D03*
D11*
X76036999Y-115140001D02*
X76036999Y-118539999D01*
X74077001Y-118539999D01*
X74077001Y-115140001D01*
X76036999Y-115140001D01*
D12*
%TO.P,C18,1*%
X75057000Y-117790000D03*
D13*
%TO.P,C18,2*%
X75057000Y-115890000D03*
%TD*%
D10*
%TO.C,R59*%
%TO.CFtp,R_0805_2012Metric*%
%TO.CVal,6K8*%
%TO.CLbN,li-ion*%
%TO.CMnt,SMD*%
%TO.CRot,-90*%
X67818000Y-65405000D03*
D11*
X68767999Y-63725001D02*
X68767999Y-67084999D01*
X66868001Y-67084999D01*
X66868001Y-63725001D01*
X68767999Y-63725001D01*
D12*
%TO.P,R59,1*%
X67818000Y-64492500D03*
D13*
%TO.P,R59,2*%
X67818000Y-66317500D03*
%TD*%
D10*
%TO.C,R58*%
%TO.CFtp,R_0805_2012Metric*%
%TO.CVal,4K7*%
%TO.CLbN,li-ion*%
%TO.CMnt,SMD*%
%TO.CRot,-90*%
X71247000Y-65405000D03*
D11*
X72196999Y-63725001D02*
X72196999Y-67084999D01*
X70297001Y-67084999D01*
X70297001Y-63725001D01*
X72196999Y-63725001D01*
D12*
%TO.P,R58,1*%
X71247000Y-64492500D03*
D13*
%TO.P,R58,2*%
X71247000Y-66317500D03*
%TD*%
D10*
%TO.C,R57*%
%TO.CFtp,R_0805_2012Metric*%
%TO.CVal,3K3*%
%TO.CLbN,li-ion*%
%TO.CMnt,SMD*%
%TO.CRot,-90*%
X63500000Y-65405000D03*
D11*
X64449999Y-63725001D02*
X64449999Y-67084999D01*
X62550001Y-67084999D01*
X62550001Y-63725001D01*
X64449999Y-63725001D01*
D12*
%TO.P,R57,1*%
X63500000Y-64492500D03*
D13*
%TO.P,R57,2*%
X63500000Y-66317500D03*
%TD*%
D10*
%TO.C,R56*%
%TO.CFtp,R_0805_2012Metric*%
%TO.CVal,2K2*%
%TO.CLbN,li-ion*%
%TO.CMnt,SMD*%
%TO.CRot,-90*%
X75565000Y-65405000D03*
D11*
X76514999Y-63725001D02*
X76514999Y-67084999D01*
X74615001Y-67084999D01*
X74615001Y-63725001D01*
X76514999Y-63725001D01*
D12*
%TO.P,R56,1*%
X75565000Y-64492500D03*
D13*
%TO.P,R56,2*%
X75565000Y-66317500D03*
%TD*%
D10*
%TO.C,R55*%
%TO.CFtp,R_0805_2012Metric*%
%TO.CVal,1K5*%
%TO.CLbN,li-ion*%
%TO.CMnt,SMD*%
%TO.CRot,-90*%
X73406000Y-65405000D03*
D11*
X74355999Y-63725001D02*
X74355999Y-67084999D01*
X72456001Y-67084999D01*
X72456001Y-63725001D01*
X74355999Y-63725001D01*
D12*
%TO.P,R55,1*%
X73406000Y-64492500D03*
D13*
%TO.P,R55,2*%
X73406000Y-66317500D03*
%TD*%
D10*
%TO.C,R20*%
%TO.CFtp,R_0805_2012Metric*%
%TO.CVal,10K*%
%TO.CLbN,li-ion*%
%TO.CMnt,SMD*%
%TO.CRot,-90*%
X75057000Y-120650000D03*
D11*
X76006999Y-118970001D02*
X76006999Y-122329999D01*
X74107001Y-122329999D01*
X74107001Y-118970001D01*
X76006999Y-118970001D01*
D12*
%TO.P,R20,1*%
X75057000Y-119737500D03*
D13*
%TO.P,R20,2*%
X75057000Y-121562500D03*
%TD*%
D10*
%TO.C,C17*%
%TO.CFtp,C_0805_2012Metric*%
%TO.CVal,100nF*%
%TO.CLbN,li-ion*%
%TO.CMnt,SMD*%
%TO.CRot,-90*%
X83947000Y-116840000D03*
D11*
X84926999Y-115140001D02*
X84926999Y-118539999D01*
X82967001Y-118539999D01*
X82967001Y-115140001D01*
X84926999Y-115140001D01*
D12*
%TO.P,C17,1*%
X83947000Y-115890000D03*
D13*
%TO.P,C17,2*%
X83947000Y-117790000D03*
%TD*%
D10*
%TO.C,R18*%
%TO.CFtp,R_0805_2012Metric*%
%TO.CVal,3K9*%
%TO.CLbN,li-ion*%
%TO.CMnt,SMD*%
%TO.CRot,90*%
X83947000Y-120650000D03*
D11*
X84896999Y-118970001D02*
X84896999Y-122329999D01*
X82997001Y-122329999D01*
X82997001Y-118970001D01*
X84896999Y-118970001D01*
D12*
%TO.P,R18,1*%
X83947000Y-121562500D03*
D13*
%TO.P,R18,2*%
X83947000Y-119737500D03*
%TD*%
D10*
%TO.C,R9*%
%TO.CFtp,R_0805_2012Metric*%
%TO.CVal,4K7*%
%TO.CLbN,li-ion*%
%TO.CMnt,SMD*%
%TO.CRot,180*%
X76708000Y-105918000D03*
D11*
X78387999Y-104968001D02*
X78387999Y-106867999D01*
X75028001Y-106867999D01*
X75028001Y-104968001D01*
X78387999Y-104968001D01*
D12*
%TO.P,R9,1*%
X77620500Y-105918000D03*
D13*
%TO.P,R9,2*%
X75795500Y-105918000D03*
%TD*%
D10*
%TO.C,R5*%
%TO.CFtp,R_0805_2012Metric*%
%TO.CVal,470*%
%TO.CLbN,li-ion*%
%TO.CMnt,SMD*%
%TO.CRot,-90*%
X60325000Y-69342000D03*
D11*
X61274999Y-67662001D02*
X61274999Y-71021999D01*
X59375001Y-71021999D01*
X59375001Y-67662001D01*
X61274999Y-67662001D01*
D12*
%TO.P,R5,1*%
X60325000Y-68429500D03*
D13*
%TO.P,R5,2*%
X60325000Y-70254500D03*
%TD*%
D10*
%TO.C,C8*%
%TO.CFtp,C_0805_2012Metric*%
%TO.CVal,100nF*%
%TO.CLbN,li-ion*%
%TO.CMnt,SMD*%
%TO.CRot,90*%
X98425000Y-118745000D03*
D11*
X99404999Y-117045001D02*
X99404999Y-120444999D01*
X97445001Y-120444999D01*
X97445001Y-117045001D01*
X99404999Y-117045001D01*
D12*
%TO.P,C8,1*%
X98425000Y-119695000D03*
D13*
%TO.P,C8,2*%
X98425000Y-117795000D03*
%TD*%
D10*
%TO.C,R19*%
%TO.CFtp,R_0805_2012Metric*%
%TO.CVal,22K*%
%TO.CLbN,li-ion*%
%TO.CMnt,SMD*%
%TO.CRot,90*%
X86487000Y-118745000D03*
D11*
X87436999Y-117065001D02*
X87436999Y-120424999D01*
X85537001Y-120424999D01*
X85537001Y-117065001D01*
X87436999Y-117065001D01*
D12*
%TO.P,R19,1*%
X86487000Y-119657500D03*
D13*
%TO.P,R19,2*%
X86487000Y-117832500D03*
%TD*%
D10*
%TO.C,LED3*%
%TO.CFtp,LED_0805_2012Metric*%
%TO.CVal,LED*%
%TO.CLbN,li-ion*%
%TO.CMnt,SMD*%
%TO.CRot,90*%
X60325000Y-65405000D03*
D11*
X61274999Y-63725001D02*
X61274999Y-67084999D01*
X59375001Y-67084999D01*
X59375001Y-63725001D01*
X61274999Y-63725001D01*
D12*
%TO.P,LED3,1,A*%
X60325000Y-66342500D03*
D13*
%TO.P,LED3,2,K*%
X60325000Y-64467500D03*
%TD*%
D10*
%TO.C,C19*%
%TO.CFtp,C_1206_3216Metric*%
%TO.CVal,10uF*%
%TO.CLbN,li-ion*%
%TO.CMnt,SMD*%
%TO.CRot,90*%
X82550000Y-94678500D03*
D11*
X83699999Y-92378501D02*
X83699999Y-96978499D01*
X81400001Y-96978499D01*
X81400001Y-92378501D01*
X83699999Y-92378501D01*
D12*
%TO.P,C19,1*%
X82550000Y-96153500D03*
D13*
%TO.P,C19,2*%
X82550000Y-93203500D03*
%TD*%
D10*
%TO.C,C21*%
%TO.CFtp,C_1206_3216Metric*%
%TO.CVal,10uF*%
%TO.CLbN,li-ion*%
%TO.CMnt,SMD*%
%TO.CRot,0*%
X80264000Y-86995000D03*
D11*
X82563999Y-85845001D02*
X82563999Y-88144999D01*
X77964001Y-88144999D01*
X77964001Y-85845001D01*
X82563999Y-85845001D01*
D12*
%TO.P,C21,1*%
X78789000Y-86995000D03*
D13*
%TO.P,C21,2*%
X81739000Y-86995000D03*
%TD*%
D10*
%TO.C,C25*%
%TO.CFtp,C_1206_3216Metric*%
%TO.CVal,10uF*%
%TO.CLbN,li-ion*%
%TO.CMnt,SMD*%
%TO.CRot,90*%
X59309000Y-82423000D03*
D11*
X60458999Y-80123001D02*
X60458999Y-84722999D01*
X58159001Y-84722999D01*
X58159001Y-80123001D01*
X60458999Y-80123001D01*
D12*
%TO.P,C25,1*%
X59309000Y-83898000D03*
D13*
%TO.P,C25,2*%
X59309000Y-80948000D03*
%TD*%
D10*
%TO.C,L20*%
%TO.CFtp,SMD-M*%
%TO.CVal,10uH*%
%TO.CLbN,li-ion*%
%TO.CMnt,SMD*%
%TO.CRot,-90*%
X79248000Y-83185000D03*
D14*
X80645000Y-81280000D02*
X77851000Y-81280000D01*
X77851000Y-85090000D01*
X80645000Y-85090000D01*
X80645000Y-81280000D01*
D12*
%TO.P,L20,1,1*%
X79248000Y-81915000D03*
D13*
%TO.P,L20,2,2*%
X79248000Y-84455000D03*
%TD*%
D10*
%TO.C,L21*%
%TO.CFtp,SMD-M*%
%TO.CVal,10uH*%
%TO.CLbN,li-ion*%
%TO.CMnt,SMD*%
%TO.CRot,0*%
X60579000Y-87376000D03*
D14*
X58674000Y-85979000D02*
X58674000Y-88773000D01*
X62484000Y-88773000D01*
X62484000Y-85979000D01*
X58674000Y-85979000D01*
D12*
%TO.P,L21,1,1*%
X59309000Y-87376000D03*
D13*
%TO.P,L21,2,2*%
X61849000Y-87376000D03*
%TD*%
D10*
%TO.C,U50*%
%TO.CFtp,SO-16_3.9x9.9mm_P1.27mm*%
%TO.CVal,74HC4051*%
%TO.CLbN,li-ion*%
%TO.CMnt,SMD*%
%TO.CRot,-90*%
X67945000Y-71755000D03*
D11*
X73144999Y-68055001D02*
X73144999Y-75454999D01*
X62745001Y-75454999D01*
X62745001Y-68055001D01*
X73144999Y-68055001D01*
D12*
%TO.P,U50,1,X4*%
X72390000Y-69180000D03*
D13*
%TO.P,U50,2,X6*%
X71120000Y-69180000D03*
%TO.P,U50,3,X*%
X69850000Y-69180000D03*
%TO.P,U50,4,X7*%
X68580000Y-69180000D03*
%TO.P,U50,5,X5*%
X67310000Y-69180000D03*
%TO.P,U50,6,Inh*%
X66040000Y-69180000D03*
%TO.P,U50,7,VEE*%
X64770000Y-69180000D03*
%TO.P,U50,8,VSS*%
X63500000Y-69180000D03*
%TO.P,U50,9,C*%
X63500000Y-74330000D03*
%TO.P,U50,10,B*%
X64770000Y-74330000D03*
%TO.P,U50,11,A*%
X66040000Y-74330000D03*
%TO.P,U50,12,X3*%
X67310000Y-74330000D03*
%TO.P,U50,13,X0*%
X68580000Y-74330000D03*
%TO.P,U50,14,X1*%
X69850000Y-74330000D03*
%TO.P,U50,15,X2*%
X71120000Y-74330000D03*
%TO.P,U50,16,VDD*%
X72390000Y-74330000D03*
%TD*%
D10*
%TO.C,U10*%
%TO.CFtp,VQFP100*%
%TO.CVal,MCF5213-LQFP100*%
%TO.CLbN,li-ion*%
%TO.CMnt,SMD*%
%TO.CRot,90*%
X70400000Y-95800000D03*
D11*
X77149999Y-87075001D02*
X77149999Y-88575000D01*
X77650000Y-89075001D01*
X79199999Y-89075001D01*
X79199999Y-102499999D01*
X77675000Y-102499999D01*
X77174999Y-103000000D01*
X77174999Y-104499999D01*
X63750001Y-104499999D01*
X63750001Y-103000000D01*
X63250000Y-102499999D01*
X61750001Y-102499999D01*
X61750001Y-89075001D01*
X63275000Y-89075001D01*
X63775001Y-88575000D01*
X63775001Y-87075001D01*
X77149999Y-87075001D01*
D12*
%TO.P,U10,1,VCC*%
X64480600Y-103622000D03*
D13*
%TO.P,U10,2,VCC*%
X64988600Y-103622000D03*
%TO.P,U10,3,GND*%
X65471200Y-103622000D03*
%TO.P,U10,4,~{URTS1}/SYNCB/UTXD2/PUB2*%
X65979200Y-103622000D03*
%TO.P,U10,5,TEST*%
X66487200Y-103622000D03*
%TO.P,U10,6,~{UCTS0}/CANRTX/PUA3*%
X66969800Y-103622000D03*
%TO.P,U10,7,URXD0/PUA1*%
X67477800Y-103622000D03*
%TO.P,U10,8,UTXD0/PUA0*%
X67985800Y-103622000D03*
%TO.P,U10,9,~{URTS0}/CANTX/PUA2*%
X68468400Y-103622000D03*
%TO.P,U10,10,SCL/PAS0/UTxD2*%
X68976400Y-103622000D03*
%TO.P,U10,11,SDA/PAS1/URxD2*%
X69484400Y-103622000D03*
%TO.P,U10,12,QSPI_CS3/SYNCA/SYNCB/PQS6*%
X69992400Y-103622000D03*
%TO.P,U10,13,QSPI_CS2/PQS5*%
X70475000Y-103622000D03*
%TO.P,U10,14,VCC*%
X70983000Y-103622000D03*
%TO.P,U10,15,GND*%
X71491000Y-103622000D03*
%TO.P,U10,16,QSPI_DIN/EZPD/CANRX/RXD1/PQS1*%
X71973600Y-103622000D03*
%TO.P,U10,17,QSPI_DOUT/EZPQ/CANTX/RXD0/PQS0*%
X72481600Y-103622000D03*
%TO.P,U10,18,QSPI_CLK/EZPCK/SCL/RTS1/PQS2*%
X72989600Y-103622000D03*
%TO.P,U10,19,QSPI_CS1/PQS4*%
X73472200Y-103622000D03*
%TO.P,U10,20,QSPI_CS0/SDA/CTS1/PQS3*%
X73980200Y-103622000D03*
%TO.P,U10,21,RCON/EZPCS*%
X74488200Y-103622000D03*
%TO.P,U10,22,VCC*%
X74970800Y-103622000D03*
%TO.P,U10,23,VCC*%
X75478800Y-103622000D03*
%TO.P,U10,24,GND*%
X75986800Y-103622000D03*
%TO.P,U10,25,GND*%
X76469400Y-103622000D03*
%TO.P,U10,26,JTAG_EN*%
X78222000Y-101869400D03*
%TO.P,U10,27,~{UCTS2}/PUC3*%
X78222000Y-101361400D03*
%TO.P,U10,28,URXD2/PUC1*%
X78222000Y-100878800D03*
%TO.P,U10,29,UTXD2/PUC0*%
X78222000Y-100370800D03*
%TO.P,U10,30,~{URTS2}/PUC2*%
X78222000Y-99862800D03*
%TO.P,U10,31,DTIN2/DTOUT2/PWM4/PTC2*%
X78222000Y-99380200D03*
%TO.P,U10,32,DTIN3/DTOUT3/PWM6/PTC3*%
X78222000Y-98872200D03*
%TO.P,U10,33,PWM3/PTD1*%
X78222000Y-98364200D03*
%TO.P,U10,34,VCC*%
X78222000Y-97881600D03*
%TO.P,U10,35,GND*%
X78222000Y-97373600D03*
%TO.P,U10,36,DTIN0/DTOUT0/PWM0/PTC0*%
X78222000Y-96865600D03*
%TO.P,U10,37,DTIN1/DTOUT1/PWM2/PTC1*%
X78222000Y-96357600D03*
%TO.P,U10,38,PWM1/PTD0*%
X78222000Y-95875000D03*
%TO.P,U10,39,CLKMOD1*%
X78222000Y-95367000D03*
%TO.P,U10,40,CLKMOD0*%
X78222000Y-94859000D03*
%TO.P,U10,41,VCC*%
X78222000Y-94376400D03*
%TO.P,U10,42,GND*%
X78222000Y-93868400D03*
%TO.P,U10,43,AN0/PAN0*%
X78222000Y-93360400D03*
%TO.P,U10,44,AN1/PAN1*%
X78222000Y-92877800D03*
%TO.P,U10,45,AN2/PAN2*%
X78222000Y-92369800D03*
%TO.P,U10,46,AN3/PAN3*%
X78222000Y-91861800D03*
%TO.P,U10,47,GNDA*%
X78222000Y-91379200D03*
%TO.P,U10,48,VRL*%
X78222000Y-90871200D03*
%TO.P,U10,49,VRH*%
X78222000Y-90363200D03*
%TO.P,U10,50,VCCA*%
X78222000Y-89880600D03*
%TO.P,U10,51,AN7/PAN7*%
X76469400Y-88128000D03*
%TO.P,U10,52,AN6/PAN6*%
X75961400Y-88128000D03*
%TO.P,U10,53,AN5/PAN5*%
X75478800Y-88128000D03*
%TO.P,U10,54,AN4/PAN4*%
X74970800Y-88128000D03*
%TO.P,U10,55,VSTBY*%
X74462800Y-88128000D03*
%TO.P,U10,56,GND*%
X73980200Y-88128000D03*
%TO.P,U10,57,VCC*%
X73472200Y-88128000D03*
%TO.P,U10,58,GPT0/PWM1/PTA0*%
X72964200Y-88128000D03*
%TO.P,U10,59,GPT1/PWM3/PTA1*%
X72481600Y-88128000D03*
%TO.P,U10,60,PWM5/PTD2*%
X71973600Y-88128000D03*
%TO.P,U10,61,GPT2PWM5//PTA2*%
X71465600Y-88128000D03*
%TO.P,U10,62,GPT3/PWM7/PTA3*%
X70957600Y-88128000D03*
%TO.P,U10,63,PWM7/PTD3*%
X70475000Y-88128000D03*
%TO.P,U10,64,TCLK/PSTCLK/CLKOUT*%
X69967000Y-88128000D03*
%TO.P,U10,65,PST0/PDD0*%
X69459000Y-88128000D03*
%TO.P,U10,66,PST1/PDD1*%
X68976400Y-88128000D03*
%TO.P,U10,67,GND*%
X68468400Y-88128000D03*
%TO.P,U10,68,VCC*%
X67960400Y-88128000D03*
%TO.P,U10,69,PST2/PDD2*%
X67477800Y-88128000D03*
%TO.P,U10,70,PST3/PDD3*%
X66969800Y-88128000D03*
%TO.P,U10,71,GNDPLL*%
X66461800Y-88128000D03*
%TO.P,U10,72,XTAL*%
X65979200Y-88128000D03*
%TO.P,U10,73,CLKIN/EXTAL*%
X65471200Y-88128000D03*
%TO.P,U10,74,VCCPLL*%
X64963200Y-88128000D03*
%TO.P,U10,75,GND*%
X64480600Y-88128000D03*
%TO.P,U10,76,~{BKPT}/TMS*%
X62728000Y-89880600D03*
%TO.P,U10,77,DDATA0/PDD4*%
X62728000Y-90388600D03*
%TO.P,U10,78,DDATA1/PDD5*%
X62728000Y-90871200D03*
%TO.P,U10,79,DSI/TDI*%
X62728000Y-91379200D03*
%TO.P,U10,80,DSO/TDO*%
X62728000Y-91887200D03*
%TO.P,U10,81,VCC*%
X62728000Y-92369800D03*
%TO.P,U10,82,GND*%
X62728000Y-92877800D03*
%TO.P,U10,83,DDATA2/PDD6*%
X62728000Y-93385800D03*
%TO.P,U10,84,DDATA3/PDD7*%
X62728000Y-93868400D03*
%TO.P,U10,85,DSCLK/~{TRST}*%
X62728000Y-94376400D03*
%TO.P,U10,86,ALLPST*%
X62728000Y-94884400D03*
%TO.P,U10,87,~{IRQ1}/PNQ1/SYNCA/PWM1*%
X62728000Y-95392400D03*
%TO.P,U10,88,IRQ2\u002A/PNQ2*%
X62728000Y-95875000D03*
%TO.P,U10,89,IRQ3\u002A/PNQ3*%
X62728000Y-96383000D03*
%TO.P,U10,90,IRQ4\u002A/PNQ4*%
X62728000Y-96891000D03*
%TO.P,U10,91,IRQ5\u002A/PNQ5*%
X62728000Y-97373600D03*
%TO.P,U10,92,GND*%
X62728000Y-97881600D03*
%TO.P,U10,93,VCC*%
X62728000Y-98389600D03*
%TO.P,U10,94,IRQ6\u002A/PNQ6*%
X62728000Y-98872200D03*
%TO.P,U10,95,IRQ7\u002A/PNQ7*%
X62728000Y-99380200D03*
%TO.P,U10,96,RSTI*%
X62728000Y-99888200D03*
%TO.P,U10,97,RSTO*%
X62728000Y-100370800D03*
%TO.P,U10,98,~{UCTS1}/SYNCA/URXD2/PUB3*%
X62728000Y-100878800D03*
%TO.P,U10,99,UTXD1/PUB0*%
X62728000Y-101386800D03*
%TO.P,U10,100,URXD1/PUB1*%
X62728000Y-101869400D03*
%TD*%
D10*
%TO.C,U11*%
%TO.CFtp,SO-8_3.9x4.9mm_P1.27mm*%
%TO.CVal,TL7702BID*%
%TO.CLbN,li-ion*%
%TO.CMnt,SMD*%
%TO.CRot,-90*%
X79502000Y-118745000D03*
D11*
X82201999Y-115045001D02*
X82201999Y-122444999D01*
X76802001Y-122444999D01*
X76802001Y-115045001D01*
X82201999Y-115045001D01*
D12*
%TO.P,U11,1,2.53V*%
X81407000Y-116170000D03*
D13*
%TO.P,U11,2,Resin*%
X80137000Y-116170000D03*
%TO.P,U11,3,Ct*%
X78867000Y-116170000D03*
%TO.P,U11,4,GND*%
X77597000Y-116170000D03*
%TO.P,U11,5,RESET*%
X77597000Y-121320000D03*
%TO.P,U11,6,RESET*%
X78867000Y-121320000D03*
%TO.P,U11,7,Sense*%
X80137000Y-121320000D03*
%TO.P,U11,8,VCC*%
X81407000Y-121320000D03*
%TD*%
D15*
X176276000Y-50927000D02*
X176276000Y-127127000D01*
X50546000Y-127127000D02*
X50546000Y-50927000D01*
X50546000Y-50927000D02*
X176276000Y-50927000D01*
X176276000Y-127127000D02*
X50546000Y-127127000D01*
M02*
