%TF.GenerationSoftware,KiCad,Pcbnew,8.99.0-365-g44b970c8f2-dirty*%
%TF.CreationDate,2024-03-12T13:01:39+01:00*%
%TF.ProjectId,li-ion_charger,6c692d69-6f6e-45f6-9368-61726765722e,04*%
%TF.SameCoordinates,Original*%
%TF.FileFunction,Soldermask,Bot*%
%TF.FilePolarity,Negative*%
%FSLAX46Y46*%
G04 Gerber Fmt 4.6, Leading zero omitted, Abs format (unit mm)*
G04 Created by KiCad (PCBNEW 8.99.0-365-g44b970c8f2-dirty) date 2024-03-12 13:01:39*
%MOMM*%
%LPD*%
G01*
G04 APERTURE LIST*
G04 Aperture macros list*
%AMRoundRect*
0 Rectangle with rounded corners*
0 $1 Rounding radius*
0 $2 $3 $4 $5 $6 $7 $8 $9 X,Y pos of 4 corners*
0 Add a 4 corners polygon primitive as box body*
4,1,4,$2,$3,$4,$5,$6,$7,$8,$9,$2,$3,0*
0 Add four circle primitives for the rounded corners*
1,1,$1+$1,$2,$3*
1,1,$1+$1,$4,$5*
1,1,$1+$1,$6,$7*
1,1,$1+$1,$8,$9*
0 Add four rect primitives between the rounded corners*
20,1,$1+$1,$2,$3,$4,$5,0*
20,1,$1+$1,$4,$5,$6,$7,0*
20,1,$1+$1,$6,$7,$8,$9,0*
20,1,$1+$1,$8,$9,$2,$3,0*%
G04 Aperture macros list end*
%ADD10R,2.400000X2.400000*%
%ADD11C,2.400000*%
%ADD12R,1.700000X1.700000*%
%ADD13O,1.700000X1.700000*%
%ADD14C,1.500000*%
%ADD15RoundRect,0.250000X-0.448500X-0.448500X0.448500X-0.448500X0.448500X0.448500X-0.448500X0.448500X0*%
%ADD16C,1.397000*%
%ADD17O,1.270000X0.812800*%
%ADD18R,1.397000X1.397000*%
%ADD19RoundRect,0.250000X0.448500X-0.448500X0.448500X0.448500X-0.448500X0.448500X-0.448500X-0.448500X0*%
%ADD20C,3.500000*%
%ADD21RoundRect,0.200000X-0.275000X0.200000X-0.275000X-0.200000X0.275000X-0.200000X0.275000X0.200000X0*%
%ADD22RoundRect,0.250000X-0.475000X0.250000X-0.475000X-0.250000X0.475000X-0.250000X0.475000X0.250000X0*%
%ADD23RoundRect,0.200000X-0.200000X-0.275000X0.200000X-0.275000X0.200000X0.275000X-0.200000X0.275000X0*%
%ADD24RoundRect,0.200000X0.275000X-0.200000X0.275000X0.200000X-0.275000X0.200000X-0.275000X-0.200000X0*%
%ADD25R,0.914400X0.914400*%
%ADD26RoundRect,0.250000X0.475000X-0.250000X0.475000X0.250000X-0.475000X0.250000X-0.475000X-0.250000X0*%
%ADD27RoundRect,0.250000X-0.250000X-0.475000X0.250000X-0.475000X0.250000X0.475000X-0.250000X0.475000X0*%
%ADD28RoundRect,0.250000X0.262500X0.450000X-0.262500X0.450000X-0.262500X-0.450000X0.262500X-0.450000X0*%
%ADD29RoundRect,0.250000X0.250000X0.475000X-0.250000X0.475000X-0.250000X-0.475000X0.250000X-0.475000X0*%
%ADD30RoundRect,0.250000X-0.625000X0.312500X-0.625000X-0.312500X0.625000X-0.312500X0.625000X0.312500X0*%
G04 APERTURE END LIST*
D10*
%TO.C,P1*%
X83420000Y-71770000D03*
D11*
X83420000Y-75270000D03*
%TD*%
D12*
%TO.C,W120*%
X144900000Y-81060000D03*
D13*
X144900000Y-83600000D03*
%TD*%
D12*
%TO.C,W220*%
X144907000Y-119000000D03*
D13*
X144907000Y-121540000D03*
%TD*%
D12*
%TO.C,P121*%
X112900000Y-83800000D03*
%TD*%
%TO.C,P221*%
X112600000Y-121600000D03*
%TD*%
%TO.C,P120*%
X101900000Y-87500000D03*
%TD*%
%TO.C,P220*%
X101400000Y-111760000D03*
%TD*%
D10*
%TO.C,JP120*%
X167800000Y-84100000D03*
D11*
X167800000Y-80600000D03*
X167800000Y-77100000D03*
%TD*%
D10*
%TO.C,JP220*%
X167700000Y-110500000D03*
D11*
X167700000Y-107000000D03*
X167700000Y-103500000D03*
%TD*%
D14*
%TO.C,X1*%
X64250000Y-80400000D03*
X69130000Y-80400000D03*
%TD*%
D12*
%TO.C,W1*%
X96400000Y-123000000D03*
D13*
X93860000Y-123000000D03*
%TD*%
D15*
%TO.C,LED1*%
X64900000Y-60100000D03*
D16*
X67440000Y-60100000D03*
X69980000Y-60100000D03*
%TD*%
D15*
%TO.C,LED2*%
X64900000Y-118400000D03*
D16*
X67440000Y-118400000D03*
X69980000Y-118400000D03*
%TD*%
D12*
%TO.C,W2*%
X69775000Y-124400000D03*
D13*
X67235000Y-124400000D03*
%TD*%
D12*
%TO.C,W100*%
X160600000Y-77700000D03*
D13*
X160600000Y-80240000D03*
%TD*%
D12*
%TO.C,W200*%
X160800000Y-104225000D03*
D13*
X160800000Y-106765000D03*
%TD*%
D10*
%TO.C,P50*%
X168100000Y-92800000D03*
D11*
X168100000Y-89300000D03*
%TD*%
D17*
%TO.C,TH1*%
X93345000Y-118110000D03*
X93345000Y-119380000D03*
%TD*%
D12*
%TO.C,P51*%
X74900000Y-55600000D03*
%TD*%
%TO.C,P52*%
X97100000Y-65100000D03*
%TD*%
D18*
%TO.C,P2*%
X55900000Y-111100000D03*
D16*
X53360000Y-111100000D03*
X55900000Y-108560000D03*
X53360000Y-108560000D03*
X55900000Y-106020000D03*
X53360000Y-106020000D03*
X55900000Y-103480000D03*
X53360000Y-103480000D03*
X55900000Y-100940000D03*
X53360000Y-100940000D03*
X55900000Y-98400000D03*
X53360000Y-98400000D03*
X55900000Y-95860000D03*
X53360000Y-95860000D03*
X55900000Y-93320000D03*
X53360000Y-93320000D03*
X55900000Y-90780000D03*
X53360000Y-90780000D03*
X55900000Y-88240000D03*
X53360000Y-88240000D03*
X55900000Y-85700000D03*
X53360000Y-85700000D03*
X55900000Y-83160000D03*
X53360000Y-83160000D03*
X55900000Y-80620000D03*
X53360000Y-80620000D03*
%TD*%
D19*
%TO.C,K1*%
X59563000Y-111100000D03*
D16*
X59563000Y-108560000D03*
X59563000Y-106020000D03*
%TD*%
D20*
%TO.C,REF\u002A\u002A*%
X172000000Y-55000000D03*
%TD*%
%TO.C,REF\u002A\u002A*%
X55000000Y-122000000D03*
%TD*%
%TO.C,REF\u002A\u002A*%
X55000000Y-55000000D03*
%TD*%
%TO.C,REF\u002A\u002A*%
X172000000Y-122000000D03*
%TD*%
D21*
%TO.C,R126*%
X130048000Y-79121500D03*
X130048000Y-80771500D03*
%TD*%
D22*
%TO.C,C126*%
X130048000Y-82250000D03*
X130048000Y-84150000D03*
%TD*%
D23*
%TO.C,R129*%
X126556000Y-80010000D03*
X128206000Y-80010000D03*
%TD*%
D24*
%TO.C,R127*%
X131953000Y-80771500D03*
X131953000Y-79121500D03*
%TD*%
D21*
%TO.C,R128*%
X131953000Y-82423500D03*
X131953000Y-84073500D03*
%TD*%
D22*
%TO.C,C127*%
X134493000Y-80647500D03*
X134493000Y-82547500D03*
%TD*%
D25*
%TO.C,Q123*%
X138560500Y-80637000D03*
X136655500Y-81589500D03*
X138560500Y-82542000D03*
%TD*%
D23*
%TO.C,R121*%
X118936000Y-69596000D03*
X120586000Y-69596000D03*
%TD*%
D26*
%TO.C,C123*%
X122300000Y-69350000D03*
X122300000Y-67450000D03*
%TD*%
D27*
%TO.C,C122*%
X124653000Y-74803000D03*
X126553000Y-74803000D03*
%TD*%
D23*
%TO.C,R120*%
X124524000Y-76835000D03*
X126174000Y-76835000D03*
%TD*%
D21*
%TO.C,R226*%
X130048000Y-116269000D03*
X130048000Y-117919000D03*
%TD*%
D22*
%TO.C,C226*%
X130048000Y-119450000D03*
X130048000Y-121350000D03*
%TD*%
D23*
%TO.C,R229*%
X126556000Y-117221000D03*
X128206000Y-117221000D03*
%TD*%
D24*
%TO.C,R227*%
X131953000Y-117919000D03*
X131953000Y-116269000D03*
%TD*%
D21*
%TO.C,R228*%
X131953000Y-119571000D03*
X131953000Y-121221000D03*
%TD*%
D22*
%TO.C,C227*%
X134493000Y-117795000D03*
X134493000Y-119695000D03*
%TD*%
D25*
%TO.C,Q223*%
X138560500Y-117784500D03*
X136655500Y-118737000D03*
X138560500Y-119689500D03*
%TD*%
D23*
%TO.C,R221*%
X118936000Y-106807000D03*
X120586000Y-106807000D03*
%TD*%
D26*
%TO.C,C223*%
X122300000Y-106614000D03*
X122300000Y-104714000D03*
%TD*%
D27*
%TO.C,C222*%
X124653000Y-112077500D03*
X126553000Y-112077500D03*
%TD*%
D23*
%TO.C,R220*%
X124524000Y-114046000D03*
X126174000Y-114046000D03*
%TD*%
D28*
%TO.C,R11*%
X67587500Y-82169000D03*
X65762500Y-82169000D03*
%TD*%
D27*
%TO.C,C15*%
X63947000Y-78486000D03*
X65847000Y-78486000D03*
%TD*%
D29*
%TO.C,C16*%
X69403000Y-78486000D03*
X67503000Y-78486000D03*
%TD*%
D27*
%TO.C,C14*%
X72150000Y-88100000D03*
X74050000Y-88100000D03*
%TD*%
%TO.C,C10*%
X70297000Y-103632000D03*
X72197000Y-103632000D03*
%TD*%
%TO.C,C11*%
X74742000Y-103632000D03*
X76642000Y-103632000D03*
%TD*%
D26*
%TO.C,C12*%
X78232000Y-98613000D03*
X78232000Y-96713000D03*
%TD*%
%TO.C,C13*%
X78232000Y-95057000D03*
X78232000Y-93157000D03*
%TD*%
D27*
%TO.C,C9*%
X64328000Y-103632000D03*
X66228000Y-103632000D03*
%TD*%
D26*
%TO.C,C20*%
X75946000Y-91628000D03*
X75946000Y-89728000D03*
%TD*%
D28*
%TO.C,R8*%
X82954500Y-97028000D03*
X81129500Y-97028000D03*
%TD*%
%TO.C,R7*%
X82954500Y-94869000D03*
X81129500Y-94869000D03*
%TD*%
D22*
%TO.C,C22*%
X78232000Y-89728000D03*
X78232000Y-91628000D03*
%TD*%
D29*
%TO.C,C23*%
X66609000Y-90678000D03*
X64709000Y-90678000D03*
%TD*%
D27*
%TO.C,C24*%
X64550000Y-88138000D03*
X66450000Y-88138000D03*
%TD*%
D26*
%TO.C,C50*%
X72390000Y-72451000D03*
X72390000Y-70551000D03*
%TD*%
%TO.C,C27*%
X62738000Y-99121000D03*
X62738000Y-97221000D03*
%TD*%
D22*
%TO.C,C26*%
X62738000Y-92014000D03*
X62738000Y-93914000D03*
%TD*%
D27*
%TO.C,C28*%
X68011000Y-88138000D03*
X69911000Y-88138000D03*
%TD*%
D30*
%TO.C,R134*%
X132080000Y-59243500D03*
X132080000Y-62168500D03*
%TD*%
%TO.C,R234*%
X132080000Y-96708500D03*
X132080000Y-99633500D03*
%TD*%
M02*
