G04 --- HEADER BEGIN --- *
G04 #@! TF.GenerationSoftware,LibrePCB,LibrePCB,0.2.0-unstable*
G04 #@! TF.CreationDate,2023-07-28T15:28:54*
G04 #@! TF.ProjectId,Hydro Battery Charger,71762d7e-e7f1-403c-8020-db9670c01e9b,v4*
G04 #@! TF.Part,Single*
G04 #@! TF.SameCoordinates*
G04 #@! TF.FileFunction,Component,L1,Top*
%FSLAX66Y66*%
%MOMM*%
G01*
G75*
G04 --- HEADER END --- *
G04 --- APERTURE LIST BEGIN --- *
G04 #@! TA.AperFunction,Profile*
%ADD10C,0.001*%
G04 #@! TA.AperFunction,ComponentMain*
%ADD11C,0.3*%
G04 #@! TA.AperFunction,ComponentOutline,Body*
%ADD12C,0.1*%
G04 #@! TA.AperFunction,ComponentPin*
%ADD13C,0*%
%ADD14P,0.36X4X0.0*%
G04 #@! TD*
G04 --- APERTURE LIST END --- *
G04 --- BOARD BEGIN --- *
D10*
X0Y0D02*
X120000000Y0D01*
X120000000Y10000000D01*
G02*
X117300000Y12700000I0J2700000D01*
G01*
X117300000Y33300000D01*
G02*
X120000000Y36000000I2700000J0D01*
G01*
X120000000Y100000000D01*
X0Y100000000D01*
X0Y0D01*
D11*
G04 #@! TO.C,LED1*
G04 #@! TO.CVal,LED 3mm Green*
G04 #@! TO.CMnt,TH*
G04 #@! TO.CFtp,LED 3mm*
G04 #@! TO.CRot,-90.0*
X81500000Y50000000D03*
D12*
X80230000Y51270000D02*
X80230000Y48730000D01*
G03*
X80230000Y51270000I1270000J1270000D01*
G01*
D13*
G04 #@! TO.P,LED1,C,C*
X80230000Y50000000D03*
G04 #@! TO.P,LED1,A,A*
X82770000Y50000000D03*
D11*
G04 #@! TD.P*
G04 #@! TO.C,S2*
G04 #@! TO.CVal,3-1825910-1*
G04 #@! TO.CMPN,3-1825910-1*
G04 #@! TO.CFtp,TE FSMCDA*
X89500000Y45000000D03*
D12*
X92400000Y47900000D02*
X92400000Y42100000D01*
X86600000Y42100000D01*
X86600000Y47900000D01*
X92400000Y47900000D01*
X90800000Y46300000D02*
X90800000Y43700000D01*
X88200000Y43700000D01*
X88200000Y46300000D01*
X90800000Y46300000D01*
D13*
G04 #@! TO.P,S2,2A,2*
X92750000Y42755000D03*
G04 #@! TO.P,S2,1B,1*
X86250000Y47245000D03*
G04 #@! TO.P,S2,1A,1*
X92750000Y47245000D03*
G04 #@! TO.P,S2,2B,2*
X86250000Y42755000D03*
D11*
G04 #@! TD.P*
G04 #@! TD.CMPN*
G04 #@! TO.C,LED3*
G04 #@! TO.CVal,LED 3mm Blue*
G04 #@! TO.CFtp,LED 3mm*
X81500000Y60000000D03*
D12*
X80230000Y61270000D02*
X80230000Y58730000D01*
G03*
X80230000Y61270000I1270000J1270000D01*
G01*
D13*
G04 #@! TO.P,LED3,C,C*
X80230000Y60000000D03*
G04 #@! TO.P,LED3,A,A*
X82770000Y60000000D03*
D11*
G04 #@! TD.P*
G04 #@! TO.C,U7*
G04 #@! TO.CVal,NHD-0420AZ-FSW-GBW-33V3*
G04 #@! TO.CMPN,NHD-0420AZ-FSW-GBW-33V3*
G04 #@! TO.CFtp,NHD-0420AZ-FSW-GBW-33V3*
G04 #@! TO.CRot,0.0*
X39500000Y50000000D03*
D12*
X1200000Y26700000D02*
X1200000Y73300000D01*
X77800000Y73300000D01*
X77800000Y26700000D01*
X1200000Y26700000D01*
X9500000Y61000000D02*
X69500000Y61000000D01*
X69500000Y39000000D01*
X9500000Y39000000D01*
X9500000Y61000000D01*
D13*
G04 #@! TO.P,U7,5,R/W*
X21160000Y71000000D03*
G04 #@! TO.P,U7,9,DB2*
X31320000Y71000000D03*
G04 #@! TO.P,U7,10,DB3*
X33860000Y71000000D03*
G04 #@! TO.P,U7,3,V0*
X16080000Y71000000D03*
G04 #@! TO.P,U7,11,DB4*
X36400000Y71000000D03*
G04 #@! TO.P,U7,14,DB7*
X44020000Y71000000D03*
G04 #@! TO.P,U7,15,LED+*
X46560000Y71000000D03*
G04 #@! TO.P,U7,8,DB1*
X28780000Y71000000D03*
G04 #@! TO.P,U7,4,RS*
X18620000Y71000000D03*
G04 #@! TO.P,U7,6,E*
X23700000Y71000000D03*
G04 #@! TO.P,U7,2,VDD*
X13540000Y71000000D03*
G04 #@! TO.P,U7,12,DB5*
X38940000Y71000000D03*
G04 #@! TO.P,U7,16,LED-*
X49100000Y71000000D03*
G04 #@! TO.P,U7,13,DB6*
X41480000Y71000000D03*
D14*
G04 #@! TO.P,U7,1,VSS*
X11000000Y71000000D03*
D13*
G04 #@! TO.P,U7,7,DB0*
X26240000Y71000000D03*
D11*
G04 #@! TD.P*
G04 #@! TD.CMPN*
G04 #@! TO.C,LED2*
G04 #@! TO.CVal,LED 3mm Yellow*
G04 #@! TO.CFtp,LED 3mm*
G04 #@! TO.CRot,-90.0*
X81500000Y40000000D03*
D12*
X80230000Y41270000D02*
X80230000Y38730000D01*
G03*
X80230000Y41270000I1270000J1270000D01*
G01*
D13*
G04 #@! TO.P,LED2,C,C*
X80230000Y40000000D03*
G04 #@! TO.P,LED2,A,A*
X82770000Y40000000D03*
D11*
G04 #@! TD.P*
G04 #@! TO.C,S1*
G04 #@! TO.CVal,3-1825910-1*
G04 #@! TO.CMPN,3-1825910-1*
G04 #@! TO.CFtp,TE FSMCDA*
G04 #@! TO.CRot,90.0*
X89500000Y55000000D03*
D12*
X86600000Y52100000D02*
X86600000Y57900000D01*
X92400000Y57900000D01*
X92400000Y52100000D01*
X86600000Y52100000D01*
X88200000Y53700000D02*
X88200000Y56300000D01*
X90800000Y56300000D01*
X90800000Y53700000D01*
X88200000Y53700000D01*
D13*
G04 #@! TO.P,S1,2A,2*
X86250000Y57245000D03*
G04 #@! TO.P,S1,1B,1*
X92750000Y52755000D03*
G04 #@! TO.P,S1,1A,1*
X86250000Y52755000D03*
G04 #@! TO.P,S1,2B,2*
X92750000Y57245000D03*
G04 --- BOARD END --- *
G04 #@! TF.MD5,5b7ac702baafa40080b6f402511b50b3*
M02*
