M48
METRIC,LZ,000.000
;FILE_FORMAT=3:3
;TYPE=PLATED
;Layer: PTH_Through
;EasyEDA v6.5.22, 2023-01-27 10:19:15
;97612568c13546d9aa68a280acc3fae8,65e8c398ba41445d9ff66b3c76c563e1,10
;Gerber Generator version 0.2
;Holesize 1 = 1.000 mm
T01C1.000
;Holesize 2 = 1.101 mm
T02C1.101
%
G05
G90
T01
X068836Y017975
X071376Y017975
X073916Y017975
X076456Y017975
X078996Y017975
X081536Y017975
X084076Y017975
X086616Y017975
X089156Y017975
X091696Y017975
X094236Y017975
X096776Y017975
X099316Y017975
X101856Y017975
X104396Y017975
X068836Y043375
X071376Y043375
X073916Y043375
X076456Y043375
X078996Y043375
X081536Y043375
X084076Y043375
X086616Y043375
X089156Y043375
X091696Y043375
X094236Y043375
X096776Y043375
X099316Y043375
X101856Y043375
X104396Y043375
T02
X058320Y043520
X058320Y040980
X058320Y038440
X058293Y018034
X058293Y020574
X058293Y023114
X058293Y025654
X058293Y028194
X058293Y030734
X058293Y033274
X063500Y047879
X066040Y047879
X068580Y047879
X063373Y013462
X065913Y013462
X068453Y013462
M30
