G04 Layer: BottomLayer*
G04 EasyEDA v6.5.22, 2023-01-27 10:19:15*
G04 97612568c13546d9aa68a280acc3fae8,65e8c398ba41445d9ff66b3c76c563e1,10*
G04 Gerber Generator version 0.2*
G04 Scale: 100 percent, Rotated: No, Reflected: No *
G04 Dimensions in millimeters *
G04 leading zeros omitted , absolute positions ,4 integer and 5 decimal *
%FSLAX45Y45*%
%MOMM*%

%ADD10C,0.5000*%
%ADD11C,0.2540*%
%ADD12R,1.7000X1.7000*%
%ADD13C,1.7000*%
%ADD14C,1.6000*%
%ADD15R,1.6000X1.5748*%
%ADD16C,1.0000*%
%ADD17C,0.0112*%

%LPD*%
G36*
X10097058Y1167485D02*
G01*
X10092436Y1167892D01*
X6071768Y1169873D01*
X6032855Y1170787D01*
X5994095Y1173581D01*
X5955538Y1178204D01*
X5917184Y1184706D01*
X5879236Y1192987D01*
X5841695Y1203096D01*
X5804712Y1214983D01*
X5768289Y1228598D01*
X5732576Y1243990D01*
X5697677Y1261008D01*
X5663590Y1279702D01*
X5630418Y1300022D01*
X5598261Y1321866D01*
X5567222Y1345234D01*
X5537301Y1370025D01*
X5508599Y1396238D01*
X5481218Y1423822D01*
X5455158Y1452676D01*
X5430520Y1482699D01*
X5407304Y1513890D01*
X5385612Y1546148D01*
X5365496Y1579422D01*
X5347004Y1613611D01*
X5330139Y1648612D01*
X5315000Y1684426D01*
X5301589Y1720900D01*
X5289905Y1757934D01*
X5279999Y1795525D01*
X5271922Y1833575D01*
X5265623Y1871929D01*
X5261203Y1910537D01*
X5258663Y1949297D01*
X5258308Y1977339D01*
X5258308Y2360828D01*
X5259070Y2364740D01*
X5261254Y2368042D01*
X5264556Y2370226D01*
X5268468Y2370988D01*
X5718810Y2370988D01*
X5722620Y2370226D01*
X5725922Y2368143D01*
X5728106Y2364943D01*
X5728970Y2361133D01*
X5728360Y2357272D01*
X5722975Y2342946D01*
X5719826Y2329078D01*
X5718454Y2314956D01*
X5718911Y2300732D01*
X5721197Y2286711D01*
X5725261Y2273096D01*
X5731002Y2260092D01*
X5738368Y2247950D01*
X5747207Y2236825D01*
X5757418Y2226970D01*
X5768797Y2218486D01*
X5781192Y2211476D01*
X5794349Y2206142D01*
X5808116Y2202535D01*
X5822188Y2200757D01*
X5836412Y2200757D01*
X5850483Y2202535D01*
X5864250Y2206142D01*
X5877407Y2211476D01*
X5889802Y2218486D01*
X5901182Y2226970D01*
X5911392Y2236825D01*
X5920232Y2247950D01*
X5924854Y2255621D01*
X5927140Y2258212D01*
X5930138Y2259888D01*
X5933541Y2260498D01*
X5965291Y2260498D01*
X5969152Y2259736D01*
X5972454Y2257501D01*
X6672834Y1557172D01*
X6676288Y1554022D01*
X6679793Y1551279D01*
X6683552Y1548892D01*
X6687464Y1546860D01*
X6691579Y1545183D01*
X6695795Y1543812D01*
X6700164Y1542846D01*
X6704533Y1542288D01*
X6709206Y1542084D01*
X7694930Y1542084D01*
X7699603Y1542288D01*
X7703972Y1542846D01*
X7708341Y1543812D01*
X7712557Y1545183D01*
X7716672Y1546860D01*
X7720584Y1548892D01*
X7724343Y1551279D01*
X7727848Y1554022D01*
X7731302Y1557172D01*
X7866024Y1691843D01*
X7868716Y1693773D01*
X7871866Y1694738D01*
X7875168Y1694637D01*
X7885785Y1692503D01*
X7899603Y1691639D01*
X7913420Y1692503D01*
X7926984Y1695246D01*
X7940141Y1699666D01*
X7952536Y1705813D01*
X7964068Y1713484D01*
X7974482Y1722628D01*
X7983626Y1733042D01*
X7991297Y1744573D01*
X7997444Y1756968D01*
X8001863Y1770125D01*
X8004606Y1783689D01*
X8005470Y1797507D01*
X8004606Y1811324D01*
X8001863Y1824888D01*
X7997444Y1838045D01*
X7991297Y1850440D01*
X7983626Y1861972D01*
X7974482Y1872386D01*
X7964068Y1881530D01*
X7952536Y1889201D01*
X7940141Y1895348D01*
X7926984Y1899767D01*
X7913420Y1902510D01*
X7899603Y1903374D01*
X7885785Y1902510D01*
X7872222Y1899767D01*
X7859064Y1895348D01*
X7846669Y1889201D01*
X7835138Y1881530D01*
X7824724Y1872386D01*
X7815580Y1861972D01*
X7807909Y1850440D01*
X7801762Y1838045D01*
X7797342Y1824888D01*
X7794599Y1811324D01*
X7793736Y1797507D01*
X7794599Y1783689D01*
X7796733Y1772970D01*
X7796885Y1769668D01*
X7795920Y1766519D01*
X7793990Y1763826D01*
X7677048Y1646885D01*
X7673746Y1644700D01*
X7669834Y1643888D01*
X6734302Y1643888D01*
X6730390Y1644700D01*
X6727088Y1646885D01*
X6026759Y2347264D01*
X6023305Y2350414D01*
X6020206Y2352751D01*
X6017463Y2355951D01*
X6016244Y2359964D01*
X6016752Y2364079D01*
X6018885Y2367686D01*
X6022289Y2370124D01*
X6026353Y2370988D01*
X6204813Y2370988D01*
X6208674Y2370226D01*
X6211976Y2368042D01*
X6622948Y1957019D01*
X6626402Y1953869D01*
X6629908Y1951177D01*
X6633667Y1948789D01*
X6637629Y1946757D01*
X6641693Y1945030D01*
X6645960Y1943709D01*
X6650278Y1942744D01*
X6654698Y1942185D01*
X6659321Y1941982D01*
X7424826Y1941982D01*
X7428687Y1941220D01*
X7431989Y1938985D01*
X7539939Y1831187D01*
X7541869Y1828495D01*
X7542834Y1825294D01*
X7542733Y1821992D01*
X7540599Y1811324D01*
X7539736Y1797507D01*
X7540599Y1783689D01*
X7543342Y1770125D01*
X7547762Y1756968D01*
X7553909Y1744573D01*
X7561580Y1733042D01*
X7570724Y1722628D01*
X7581138Y1713484D01*
X7592669Y1705813D01*
X7605064Y1699666D01*
X7618222Y1695246D01*
X7631785Y1692503D01*
X7645603Y1691639D01*
X7659420Y1692503D01*
X7672984Y1695246D01*
X7686141Y1699666D01*
X7698536Y1705813D01*
X7710068Y1713484D01*
X7720482Y1722628D01*
X7729626Y1733042D01*
X7737297Y1744573D01*
X7743444Y1756968D01*
X7747863Y1770125D01*
X7750606Y1783689D01*
X7751470Y1797507D01*
X7750606Y1811324D01*
X7747863Y1824888D01*
X7743444Y1838045D01*
X7737297Y1850440D01*
X7729626Y1861972D01*
X7720482Y1872386D01*
X7710068Y1881530D01*
X7698536Y1889201D01*
X7686141Y1895348D01*
X7672984Y1899767D01*
X7659420Y1902510D01*
X7645603Y1903374D01*
X7631785Y1902510D01*
X7621117Y1900377D01*
X7617815Y1900275D01*
X7614666Y1901240D01*
X7611973Y1903120D01*
X7486192Y2028748D01*
X7482789Y2031847D01*
X7479233Y2034590D01*
X7475524Y2036978D01*
X7471562Y2039010D01*
X7467498Y2040686D01*
X7463231Y2042058D01*
X7458913Y2043023D01*
X7454493Y2043582D01*
X7449870Y2043785D01*
X7344664Y2043785D01*
X7340904Y2044496D01*
X7337704Y2046528D01*
X7335469Y2049627D01*
X7334503Y2053285D01*
X7334961Y2057095D01*
X7336790Y2060397D01*
X7340041Y2064359D01*
X7345984Y2074316D01*
X7350353Y2085086D01*
X7352995Y2096414D01*
X7353858Y2107996D01*
X7352995Y2119579D01*
X7350353Y2130907D01*
X7345984Y2141677D01*
X7340041Y2151634D01*
X7332675Y2160625D01*
X7323988Y2168347D01*
X7314234Y2174646D01*
X7303617Y2179421D01*
X7292441Y2182469D01*
X7280909Y2183841D01*
X7278827Y2183739D01*
X7274763Y2184450D01*
X7271258Y2186686D01*
X7104329Y2353665D01*
X7102144Y2356967D01*
X7101331Y2360828D01*
X7102144Y2364740D01*
X7104329Y2368042D01*
X7107631Y2370226D01*
X7111492Y2370988D01*
X7800390Y2370988D01*
X7804251Y2370226D01*
X7807502Y2368042D01*
X7809738Y2364790D01*
X7810550Y2360980D01*
X7809839Y2357120D01*
X7807706Y2353767D01*
X7800441Y2346248D01*
X7793786Y2336749D01*
X7788605Y2326335D01*
X7785100Y2315260D01*
X7783322Y2303780D01*
X7783322Y2292197D01*
X7785100Y2280716D01*
X7788605Y2269642D01*
X7793786Y2259228D01*
X7800441Y2249728D01*
X7808518Y2241346D01*
X7817764Y2234285D01*
X7827924Y2228748D01*
X7838897Y2224836D01*
X7850276Y2222601D01*
X7861909Y2222144D01*
X7873441Y2223516D01*
X7884617Y2226564D01*
X7893354Y2230475D01*
X7897317Y2231390D01*
X7901330Y2230628D01*
X7904734Y2228392D01*
X8301939Y1831136D01*
X8303869Y1828444D01*
X8304834Y1825294D01*
X8304733Y1821992D01*
X8302599Y1811324D01*
X8301736Y1797507D01*
X8302599Y1783689D01*
X8305342Y1770125D01*
X8309762Y1756968D01*
X8315909Y1744573D01*
X8323580Y1733042D01*
X8332724Y1722628D01*
X8343138Y1713484D01*
X8354669Y1705813D01*
X8367064Y1699666D01*
X8380222Y1695246D01*
X8393480Y1692554D01*
X8407603Y1691639D01*
X8421420Y1692503D01*
X8434984Y1695246D01*
X8448141Y1699666D01*
X8460536Y1705813D01*
X8472068Y1713484D01*
X8482482Y1722628D01*
X8491626Y1733042D01*
X8499297Y1744573D01*
X8505444Y1756968D01*
X8509863Y1770125D01*
X8512606Y1783689D01*
X8513470Y1797507D01*
X8512606Y1811324D01*
X8509863Y1824888D01*
X8505444Y1838045D01*
X8499297Y1850440D01*
X8491626Y1861972D01*
X8482482Y1872386D01*
X8472068Y1881530D01*
X8460536Y1889201D01*
X8448141Y1895348D01*
X8434984Y1899767D01*
X8421420Y1902510D01*
X8407603Y1903374D01*
X8393125Y1902358D01*
X8383117Y1900377D01*
X8379815Y1900275D01*
X8376666Y1901240D01*
X8373973Y1903171D01*
X7943291Y2333853D01*
X7939836Y2337003D01*
X7936331Y2339695D01*
X7932572Y2342083D01*
X7928609Y2344115D01*
X7924647Y2345740D01*
X7918602Y2347468D01*
X7914538Y2349703D01*
X7910575Y2353310D01*
X7908188Y2356561D01*
X7907223Y2360472D01*
X7907883Y2364486D01*
X7910068Y2367889D01*
X7913420Y2370175D01*
X7917383Y2370988D01*
X8382000Y2370988D01*
X8382000Y3250590D01*
X8382762Y3254502D01*
X8384946Y3257803D01*
X8388248Y3259988D01*
X8392160Y3260750D01*
X8396020Y3259988D01*
X8399322Y3257803D01*
X9825939Y1831136D01*
X9827869Y1828444D01*
X9828834Y1825294D01*
X9828733Y1821992D01*
X9826599Y1811324D01*
X9825736Y1797507D01*
X9826599Y1783689D01*
X9829342Y1770125D01*
X9833762Y1756968D01*
X9839909Y1744573D01*
X9847580Y1733042D01*
X9856724Y1722628D01*
X9867138Y1713484D01*
X9878669Y1705813D01*
X9891064Y1699666D01*
X9904222Y1695246D01*
X9917785Y1692503D01*
X9931603Y1691639D01*
X9945420Y1692503D01*
X9958984Y1695246D01*
X9972141Y1699666D01*
X9984536Y1705813D01*
X9996068Y1713484D01*
X10006482Y1722628D01*
X10015626Y1733042D01*
X10023297Y1744573D01*
X10029444Y1756968D01*
X10033863Y1770125D01*
X10036606Y1783689D01*
X10037470Y1797507D01*
X10036606Y1811324D01*
X10033863Y1824888D01*
X10029444Y1838045D01*
X10023297Y1850440D01*
X10015626Y1861972D01*
X10006482Y1872386D01*
X9996068Y1881530D01*
X9984536Y1889201D01*
X9972141Y1895348D01*
X9958984Y1899767D01*
X9945420Y1902510D01*
X9931603Y1903374D01*
X9917785Y1902510D01*
X9907117Y1900377D01*
X9903815Y1900275D01*
X9900666Y1901240D01*
X9897973Y1903171D01*
X8384946Y3416147D01*
X8382762Y3419449D01*
X8382000Y3423310D01*
X8382000Y3932986D01*
X7872323Y3932986D01*
X7868412Y3933748D01*
X7865109Y3935984D01*
X7619288Y4181856D01*
X7615834Y4185005D01*
X7612329Y4187698D01*
X7608570Y4190085D01*
X7604607Y4192117D01*
X7600543Y4193844D01*
X7596276Y4195165D01*
X7591958Y4196130D01*
X7587538Y4196689D01*
X7582916Y4196892D01*
X6848297Y4196892D01*
X6844385Y4197654D01*
X6841083Y4199890D01*
X6744868Y4296105D01*
X6742684Y4299407D01*
X6741871Y4303268D01*
X6741871Y4609693D01*
X6742684Y4613605D01*
X6744868Y4616856D01*
X6809333Y4681372D01*
X6812330Y4683404D01*
X6815836Y4684318D01*
X6819442Y4683912D01*
X6833311Y4679797D01*
X6847331Y4677511D01*
X6861556Y4677054D01*
X6875678Y4678426D01*
X6889546Y4681575D01*
X6902907Y4686503D01*
X6915505Y4693056D01*
X6927138Y4701184D01*
X6937654Y4710734D01*
X6946849Y4721555D01*
X6954621Y4733493D01*
X6960768Y4746294D01*
X6965238Y4759756D01*
X6967981Y4773726D01*
X6968896Y4787900D01*
X6967981Y4802073D01*
X6965238Y4816043D01*
X6960768Y4829505D01*
X6954621Y4842306D01*
X6946849Y4854244D01*
X6937654Y4865065D01*
X6927138Y4874615D01*
X6915505Y4882743D01*
X6902907Y4889296D01*
X6889546Y4894224D01*
X6875678Y4897374D01*
X6861556Y4898745D01*
X6847331Y4898288D01*
X6833311Y4896002D01*
X6819696Y4891938D01*
X6806692Y4886198D01*
X6794550Y4878832D01*
X6783425Y4869992D01*
X6773570Y4859782D01*
X6765086Y4848402D01*
X6758076Y4836007D01*
X6752742Y4822850D01*
X6749135Y4809083D01*
X6747357Y4795012D01*
X6747357Y4780788D01*
X6748678Y4770272D01*
X6748627Y4767224D01*
X6747611Y4764278D01*
X6745782Y4761788D01*
X6725462Y4741468D01*
X6721652Y4739030D01*
X6717182Y4738522D01*
X6712915Y4739995D01*
X6709714Y4743145D01*
X6708190Y4747361D01*
X6708648Y4751832D01*
X6711238Y4759756D01*
X6713981Y4773726D01*
X6714896Y4787900D01*
X6713981Y4802073D01*
X6711238Y4816043D01*
X6706768Y4829505D01*
X6700621Y4842306D01*
X6692849Y4854244D01*
X6683654Y4865065D01*
X6673138Y4874615D01*
X6661505Y4882743D01*
X6648907Y4889296D01*
X6635546Y4894224D01*
X6621678Y4897374D01*
X6607556Y4898745D01*
X6593331Y4898288D01*
X6579311Y4896002D01*
X6565696Y4891938D01*
X6552692Y4886198D01*
X6540550Y4878832D01*
X6529425Y4869992D01*
X6519570Y4859782D01*
X6511086Y4848402D01*
X6504076Y4836007D01*
X6498742Y4822850D01*
X6495135Y4809083D01*
X6493357Y4795012D01*
X6493357Y4780788D01*
X6495135Y4766716D01*
X6498742Y4752949D01*
X6504076Y4739792D01*
X6511086Y4727397D01*
X6519570Y4716018D01*
X6529425Y4705807D01*
X6540550Y4696968D01*
X6552692Y4689602D01*
X6565696Y4683810D01*
X6579311Y4679797D01*
X6593331Y4677511D01*
X6607556Y4677054D01*
X6621678Y4678426D01*
X6635546Y4681575D01*
X6640372Y4683353D01*
X6644690Y4683963D01*
X6648805Y4682744D01*
X6652056Y4679848D01*
X6653834Y4675886D01*
X6653784Y4671568D01*
X6651955Y4667656D01*
X6649313Y4664202D01*
X6646925Y4660442D01*
X6644843Y4656480D01*
X6643166Y4652416D01*
X6641846Y4648149D01*
X6640880Y4643831D01*
X6640271Y4639411D01*
X6640068Y4634788D01*
X6640068Y4278223D01*
X6640271Y4273550D01*
X6640880Y4269130D01*
X6641846Y4264812D01*
X6643166Y4260596D01*
X6644843Y4256481D01*
X6646925Y4252518D01*
X6649313Y4248810D01*
X6652006Y4245254D01*
X6655155Y4241850D01*
X6786829Y4110126D01*
X6790283Y4106976D01*
X6793788Y4104284D01*
X6797548Y4101896D01*
X6801459Y4099864D01*
X6805574Y4098137D01*
X6809790Y4096816D01*
X6814159Y4095851D01*
X6818528Y4095292D01*
X6823202Y4095089D01*
X7557820Y4095089D01*
X7561732Y4094327D01*
X7564983Y4092092D01*
X7706766Y3950360D01*
X7709001Y3947058D01*
X7709763Y3943146D01*
X7709001Y3939286D01*
X7706766Y3935984D01*
X7703464Y3933748D01*
X7699603Y3932986D01*
X5901131Y3932986D01*
X5897930Y3933494D01*
X5895035Y3935018D01*
X5892495Y3936949D01*
X5880862Y3943502D01*
X5880049Y3939286D01*
X5877864Y3935984D01*
X5874562Y3933748D01*
X5870702Y3932986D01*
X5793282Y3932986D01*
X5789422Y3933748D01*
X5786120Y3935984D01*
X5783935Y3939286D01*
X5783122Y3943502D01*
X5771489Y3936949D01*
X5768949Y3935018D01*
X5766054Y3933494D01*
X5762853Y3932986D01*
X5268468Y3932986D01*
X5264556Y3933748D01*
X5261254Y3935984D01*
X5259070Y3939286D01*
X5258308Y3943146D01*
X5258308Y4216400D01*
X5259324Y4256582D01*
X5262270Y4296410D01*
X5267147Y4336084D01*
X5274005Y4375454D01*
X5282793Y4414418D01*
X5293461Y4452924D01*
X5305958Y4490872D01*
X5320385Y4528159D01*
X5336590Y4564684D01*
X5354574Y4600346D01*
X5374284Y4635144D01*
X5395671Y4668875D01*
X5418683Y4701540D01*
X5443270Y4733036D01*
X5469382Y4763262D01*
X5496915Y4792218D01*
X5525871Y4819751D01*
X5556148Y4845862D01*
X5587644Y4870399D01*
X5620308Y4893411D01*
X5654090Y4914798D01*
X5688838Y4934458D01*
X5724550Y4952390D01*
X5761075Y4968595D01*
X5798362Y4982972D01*
X5836310Y4995468D01*
X5874816Y5006136D01*
X5913831Y5014874D01*
X5953201Y5021681D01*
X5992825Y5026558D01*
X6032703Y5029504D01*
X6056782Y5030114D01*
X10085374Y5042204D01*
X10123068Y5041290D01*
X10162946Y5038344D01*
X10202570Y5033416D01*
X10241940Y5026558D01*
X10280954Y5017820D01*
X10319461Y5007152D01*
X10357358Y4994605D01*
X10394645Y4980228D01*
X10431170Y4964023D01*
X10466882Y4946040D01*
X10501630Y4926330D01*
X10535361Y4904943D01*
X10568025Y4881930D01*
X10599521Y4857343D01*
X10629747Y4831232D01*
X10658703Y4803648D01*
X10686237Y4774692D01*
X10712348Y4744466D01*
X10736884Y4712919D01*
X10759897Y4680254D01*
X10781284Y4646523D01*
X10800943Y4611725D01*
X10818926Y4576013D01*
X10835081Y4539488D01*
X10849457Y4502200D01*
X10862005Y4464253D01*
X10872622Y4425746D01*
X10881360Y4386783D01*
X10888167Y4347413D01*
X10893044Y4307738D01*
X10895990Y4267911D01*
X10897057Y4226407D01*
X10896092Y1981606D01*
X10895076Y1941017D01*
X10892129Y1901139D01*
X10887202Y1861515D01*
X10880344Y1822145D01*
X10871606Y1783130D01*
X10860938Y1744624D01*
X10848390Y1706727D01*
X10834014Y1669440D01*
X10817809Y1632915D01*
X10799826Y1597202D01*
X10780115Y1562455D01*
X10758728Y1528724D01*
X10735716Y1496060D01*
X10711129Y1464564D01*
X10685018Y1434287D01*
X10657433Y1405382D01*
X10628477Y1377848D01*
X10598251Y1351737D01*
X10566704Y1327150D01*
X10534040Y1304188D01*
X10500309Y1282801D01*
X10465511Y1263142D01*
X10429798Y1245158D01*
X10393273Y1229004D01*
X10355986Y1214628D01*
X10318038Y1202080D01*
X10279532Y1191463D01*
X10240568Y1182725D01*
X10201198Y1175867D01*
X10161524Y1170990D01*
X10121696Y1168095D01*
G37*

%LPC*%
G36*
X8763558Y1217574D02*
G01*
X8781796Y1218946D01*
X8799779Y1222248D01*
X8817305Y1227328D01*
X8834221Y1234236D01*
X8850376Y1242822D01*
X8865514Y1253032D01*
X8879535Y1264716D01*
X8892286Y1277823D01*
X8903665Y1292148D01*
X8913469Y1307592D01*
X8921648Y1323898D01*
X8928049Y1341018D01*
X8932722Y1358696D01*
X8935516Y1376730D01*
X8936482Y1394968D01*
X8935516Y1413256D01*
X8932722Y1431290D01*
X8928049Y1448968D01*
X8921648Y1466088D01*
X8913469Y1482394D01*
X8903665Y1497838D01*
X8892286Y1512163D01*
X8879535Y1525270D01*
X8865311Y1537106D01*
X8862771Y1540357D01*
X8861704Y1544320D01*
X8862263Y1548384D01*
X8864447Y1551889D01*
X8867800Y1554276D01*
X8871813Y1555089D01*
X9485934Y1555089D01*
X9490608Y1555292D01*
X9494977Y1555851D01*
X9499346Y1556816D01*
X9503562Y1558188D01*
X9507677Y1559864D01*
X9511588Y1561896D01*
X9515348Y1564284D01*
X9518853Y1567027D01*
X9522307Y1570177D01*
X9644024Y1691843D01*
X9646716Y1693773D01*
X9649866Y1694738D01*
X9653168Y1694637D01*
X9663785Y1692503D01*
X9677603Y1691639D01*
X9691420Y1692503D01*
X9704984Y1695246D01*
X9718141Y1699666D01*
X9730536Y1705813D01*
X9742068Y1713484D01*
X9752482Y1722628D01*
X9761626Y1733042D01*
X9769297Y1744573D01*
X9775444Y1756968D01*
X9779863Y1770125D01*
X9782606Y1783689D01*
X9783470Y1797507D01*
X9782606Y1811324D01*
X9779863Y1824888D01*
X9775444Y1838045D01*
X9769297Y1850440D01*
X9761626Y1861972D01*
X9752482Y1872386D01*
X9742068Y1881530D01*
X9730536Y1889201D01*
X9718141Y1895348D01*
X9704984Y1899767D01*
X9691420Y1902510D01*
X9677603Y1903374D01*
X9663785Y1902510D01*
X9650222Y1899767D01*
X9637064Y1895348D01*
X9624669Y1889201D01*
X9613138Y1881530D01*
X9602724Y1872386D01*
X9593580Y1861972D01*
X9585909Y1850440D01*
X9579762Y1838045D01*
X9575342Y1824888D01*
X9572599Y1811324D01*
X9571736Y1797507D01*
X9572599Y1783689D01*
X9574733Y1772970D01*
X9574885Y1769668D01*
X9573920Y1766519D01*
X9571990Y1763826D01*
X9468053Y1659889D01*
X9464751Y1657654D01*
X9460839Y1656892D01*
X8055203Y1656892D01*
X8050530Y1656689D01*
X8046161Y1656130D01*
X8041792Y1655165D01*
X8037575Y1653844D01*
X8033461Y1652117D01*
X8029549Y1650085D01*
X8025790Y1647698D01*
X8022285Y1645005D01*
X8018830Y1641856D01*
X7777073Y1400098D01*
X7773771Y1397863D01*
X7769910Y1397101D01*
X6949694Y1397101D01*
X6946392Y1397660D01*
X6943445Y1399235D01*
X6941210Y1401724D01*
X6934149Y1412544D01*
X6924954Y1423365D01*
X6914438Y1432915D01*
X6902805Y1441043D01*
X6890207Y1447596D01*
X6876846Y1452524D01*
X6862978Y1455674D01*
X6848856Y1457045D01*
X6834631Y1456588D01*
X6820611Y1454302D01*
X6806996Y1450238D01*
X6793992Y1444498D01*
X6781850Y1437132D01*
X6770725Y1428292D01*
X6760870Y1418082D01*
X6752386Y1406702D01*
X6745376Y1394307D01*
X6740042Y1381150D01*
X6736435Y1367383D01*
X6734657Y1353312D01*
X6734657Y1339088D01*
X6736435Y1325016D01*
X6740042Y1311249D01*
X6745376Y1298092D01*
X6752386Y1285697D01*
X6760870Y1274318D01*
X6770725Y1264107D01*
X6781850Y1255268D01*
X6793992Y1247902D01*
X6806996Y1242110D01*
X6820611Y1238097D01*
X6834631Y1235811D01*
X6848856Y1235354D01*
X6862978Y1236726D01*
X6876846Y1239875D01*
X6890207Y1244803D01*
X6902805Y1251356D01*
X6914438Y1259484D01*
X6924954Y1269034D01*
X6934149Y1279855D01*
X6941210Y1290675D01*
X6943445Y1293164D01*
X6946392Y1294739D01*
X6949694Y1295298D01*
X7794955Y1295298D01*
X7799628Y1295501D01*
X7804048Y1296060D01*
X7808366Y1297025D01*
X7812582Y1298346D01*
X7816697Y1300073D01*
X7820659Y1302105D01*
X7824368Y1304493D01*
X7827924Y1307185D01*
X7831328Y1310335D01*
X8073085Y1552092D01*
X8076387Y1554327D01*
X8080298Y1555089D01*
X8646515Y1555089D01*
X8650630Y1554226D01*
X8654034Y1551787D01*
X8656167Y1548130D01*
X8656624Y1543964D01*
X8655405Y1539951D01*
X8652611Y1536801D01*
X8645296Y1531264D01*
X8631885Y1518869D01*
X8619794Y1505153D01*
X8609228Y1490268D01*
X8600236Y1474368D01*
X8592921Y1457604D01*
X8587333Y1440180D01*
X8583625Y1422298D01*
X8581745Y1404112D01*
X8581745Y1385874D01*
X8583625Y1367688D01*
X8587333Y1349806D01*
X8592921Y1332382D01*
X8600236Y1315618D01*
X8609228Y1299718D01*
X8619794Y1284833D01*
X8631885Y1271117D01*
X8645296Y1258722D01*
X8659926Y1247749D01*
X8675573Y1238300D01*
X8692134Y1230579D01*
X8709355Y1224584D01*
X8727186Y1220368D01*
X8745270Y1218031D01*
G37*
G36*
X6386169Y1235303D02*
G01*
X6421729Y1235303D01*
X6428028Y1236014D01*
X6433515Y1237894D01*
X6438392Y1240993D01*
X6442506Y1245108D01*
X6445605Y1249984D01*
X6447485Y1255471D01*
X6448196Y1261770D01*
X6448196Y1297330D01*
X6386169Y1297330D01*
G37*
G36*
X6252870Y1235303D02*
G01*
X6288430Y1235303D01*
X6288430Y1297330D01*
X6226403Y1297330D01*
X6226403Y1261770D01*
X6227114Y1255471D01*
X6228994Y1249984D01*
X6232093Y1245108D01*
X6236208Y1240993D01*
X6241084Y1237894D01*
X6246571Y1236014D01*
G37*
G36*
X6594856Y1235354D02*
G01*
X6608978Y1236726D01*
X6622846Y1239875D01*
X6636207Y1244803D01*
X6648805Y1251356D01*
X6660438Y1259484D01*
X6670954Y1269034D01*
X6680149Y1279855D01*
X6687921Y1291793D01*
X6694068Y1304594D01*
X6698538Y1318056D01*
X6701281Y1332026D01*
X6702196Y1346200D01*
X6701281Y1360373D01*
X6698538Y1374343D01*
X6694068Y1387805D01*
X6687921Y1400606D01*
X6680149Y1412544D01*
X6670954Y1423365D01*
X6660438Y1432915D01*
X6648805Y1441043D01*
X6636207Y1447596D01*
X6622846Y1452524D01*
X6608978Y1455674D01*
X6594856Y1457045D01*
X6580631Y1456588D01*
X6566611Y1454302D01*
X6552996Y1450238D01*
X6539992Y1444498D01*
X6527850Y1437132D01*
X6516725Y1428292D01*
X6506870Y1418082D01*
X6498386Y1406702D01*
X6491376Y1394307D01*
X6486042Y1381150D01*
X6482435Y1367383D01*
X6480657Y1353312D01*
X6480657Y1339088D01*
X6482435Y1325016D01*
X6486042Y1311249D01*
X6491376Y1298092D01*
X6498386Y1285697D01*
X6506870Y1274318D01*
X6516725Y1264107D01*
X6527850Y1255268D01*
X6539992Y1247902D01*
X6552996Y1242110D01*
X6566611Y1238097D01*
X6580631Y1235811D01*
G37*
G36*
X6386169Y1395069D02*
G01*
X6448196Y1395069D01*
X6448196Y1430629D01*
X6447485Y1436928D01*
X6445605Y1442415D01*
X6442506Y1447292D01*
X6438392Y1451406D01*
X6433515Y1454505D01*
X6428028Y1456385D01*
X6421729Y1457096D01*
X6386169Y1457096D01*
G37*
G36*
X6226403Y1395069D02*
G01*
X6288430Y1395069D01*
X6288430Y1457096D01*
X6252870Y1457096D01*
X6246571Y1456385D01*
X6241084Y1454505D01*
X6236208Y1451406D01*
X6232093Y1447292D01*
X6228994Y1442415D01*
X6227114Y1436928D01*
X6226403Y1430629D01*
G37*
G36*
X7137603Y1691639D02*
G01*
X7151420Y1692503D01*
X7164984Y1695246D01*
X7178141Y1699666D01*
X7190536Y1705813D01*
X7202068Y1713484D01*
X7212482Y1722628D01*
X7221626Y1733042D01*
X7229297Y1744573D01*
X7235444Y1756968D01*
X7239863Y1770125D01*
X7242606Y1783689D01*
X7243470Y1797507D01*
X7242606Y1811324D01*
X7239863Y1824888D01*
X7235444Y1838045D01*
X7229297Y1850440D01*
X7221626Y1861972D01*
X7212482Y1872386D01*
X7202068Y1881530D01*
X7190536Y1889201D01*
X7178141Y1895348D01*
X7164984Y1899767D01*
X7151420Y1902510D01*
X7137603Y1903374D01*
X7123785Y1902510D01*
X7110222Y1899767D01*
X7097064Y1895348D01*
X7084669Y1889201D01*
X7073138Y1881530D01*
X7062724Y1872386D01*
X7053580Y1861972D01*
X7045909Y1850440D01*
X7039762Y1838045D01*
X7035342Y1824888D01*
X7032599Y1811324D01*
X7031736Y1797507D01*
X7032599Y1783689D01*
X7035342Y1770125D01*
X7039762Y1756968D01*
X7045909Y1744573D01*
X7053580Y1733042D01*
X7062724Y1722628D01*
X7073138Y1713484D01*
X7084669Y1705813D01*
X7097064Y1699666D01*
X7110222Y1695246D01*
X7123785Y1692503D01*
G37*
G36*
X7391603Y1691639D02*
G01*
X7405420Y1692503D01*
X7418984Y1695246D01*
X7432141Y1699666D01*
X7444536Y1705813D01*
X7456068Y1713484D01*
X7466482Y1722628D01*
X7475626Y1733042D01*
X7483297Y1744573D01*
X7489444Y1756968D01*
X7493863Y1770125D01*
X7496606Y1783689D01*
X7497470Y1797507D01*
X7496606Y1811324D01*
X7493863Y1824888D01*
X7489444Y1838045D01*
X7483297Y1850440D01*
X7475626Y1861972D01*
X7466482Y1872386D01*
X7456068Y1881530D01*
X7444536Y1889201D01*
X7432141Y1895348D01*
X7418984Y1899767D01*
X7405420Y1902510D01*
X7391603Y1903374D01*
X7377785Y1902510D01*
X7364222Y1899767D01*
X7351064Y1895348D01*
X7338669Y1889201D01*
X7327138Y1881530D01*
X7316724Y1872386D01*
X7307580Y1861972D01*
X7299909Y1850440D01*
X7293762Y1838045D01*
X7289342Y1824888D01*
X7286599Y1811324D01*
X7285736Y1797507D01*
X7286599Y1783689D01*
X7289342Y1770125D01*
X7293762Y1756968D01*
X7299909Y1744573D01*
X7307580Y1733042D01*
X7316724Y1722628D01*
X7327138Y1713484D01*
X7338669Y1705813D01*
X7351064Y1699666D01*
X7364222Y1695246D01*
X7377785Y1692503D01*
G37*
G36*
X6883603Y1691639D02*
G01*
X6897420Y1692503D01*
X6910984Y1695246D01*
X6924141Y1699666D01*
X6936536Y1705813D01*
X6948068Y1713484D01*
X6958482Y1722628D01*
X6967626Y1733042D01*
X6975297Y1744573D01*
X6981444Y1756968D01*
X6985863Y1770125D01*
X6988606Y1783689D01*
X6989470Y1797507D01*
X6988606Y1811324D01*
X6985863Y1824888D01*
X6981444Y1838045D01*
X6975297Y1850440D01*
X6967626Y1861972D01*
X6958482Y1872386D01*
X6948068Y1881530D01*
X6936536Y1889201D01*
X6924141Y1895348D01*
X6910984Y1899767D01*
X6897420Y1902510D01*
X6883603Y1903374D01*
X6869785Y1902510D01*
X6856222Y1899767D01*
X6843064Y1895348D01*
X6830669Y1889201D01*
X6819138Y1881530D01*
X6808724Y1872386D01*
X6799580Y1861972D01*
X6791909Y1850440D01*
X6785762Y1838045D01*
X6781342Y1824888D01*
X6778599Y1811324D01*
X6777736Y1797507D01*
X6778599Y1783689D01*
X6781342Y1770125D01*
X6785762Y1756968D01*
X6791909Y1744573D01*
X6799580Y1733042D01*
X6808724Y1722628D01*
X6819138Y1713484D01*
X6830669Y1705813D01*
X6843064Y1699666D01*
X6856222Y1695246D01*
X6869785Y1692503D01*
G37*
G36*
X8153603Y1691639D02*
G01*
X8167420Y1692503D01*
X8180984Y1695246D01*
X8194141Y1699666D01*
X8206536Y1705813D01*
X8218068Y1713484D01*
X8228482Y1722628D01*
X8237626Y1733042D01*
X8245297Y1744573D01*
X8251444Y1756968D01*
X8255863Y1770125D01*
X8258606Y1783689D01*
X8259470Y1797507D01*
X8258606Y1811324D01*
X8255863Y1824888D01*
X8251444Y1838045D01*
X8245297Y1850440D01*
X8237626Y1861972D01*
X8228482Y1872386D01*
X8218068Y1881530D01*
X8206536Y1889201D01*
X8194141Y1895348D01*
X8180984Y1899767D01*
X8167420Y1902510D01*
X8153603Y1903374D01*
X8139785Y1902510D01*
X8126222Y1899767D01*
X8113064Y1895348D01*
X8100669Y1889201D01*
X8089138Y1881530D01*
X8078724Y1872386D01*
X8069580Y1861972D01*
X8061909Y1850440D01*
X8055762Y1838045D01*
X8051342Y1824888D01*
X8048599Y1811324D01*
X8047736Y1797507D01*
X8048599Y1783689D01*
X8051342Y1770125D01*
X8055762Y1756968D01*
X8061909Y1744573D01*
X8069580Y1733042D01*
X8078724Y1722628D01*
X8089138Y1713484D01*
X8100669Y1705813D01*
X8113064Y1699666D01*
X8126222Y1695246D01*
X8139785Y1692503D01*
G37*
G36*
X9169603Y1691639D02*
G01*
X9183420Y1692503D01*
X9196984Y1695246D01*
X9210141Y1699666D01*
X9222536Y1705813D01*
X9234068Y1713484D01*
X9244482Y1722628D01*
X9253626Y1733042D01*
X9261297Y1744573D01*
X9267444Y1756968D01*
X9271863Y1770125D01*
X9274606Y1783689D01*
X9275470Y1797507D01*
X9274606Y1811324D01*
X9271863Y1824888D01*
X9267444Y1838045D01*
X9261297Y1850440D01*
X9253626Y1861972D01*
X9244482Y1872386D01*
X9234068Y1881530D01*
X9222536Y1889201D01*
X9210141Y1895348D01*
X9196984Y1899767D01*
X9183420Y1902510D01*
X9169603Y1903374D01*
X9155785Y1902510D01*
X9142222Y1899767D01*
X9129064Y1895348D01*
X9116669Y1889201D01*
X9105138Y1881530D01*
X9094724Y1872386D01*
X9085580Y1861972D01*
X9077909Y1850440D01*
X9071762Y1838045D01*
X9067342Y1824888D01*
X9064599Y1811324D01*
X9063736Y1797507D01*
X9064599Y1783689D01*
X9067342Y1770125D01*
X9071762Y1756968D01*
X9077909Y1744573D01*
X9085580Y1733042D01*
X9094724Y1722628D01*
X9105138Y1713484D01*
X9116669Y1705813D01*
X9129064Y1699666D01*
X9142222Y1695246D01*
X9155785Y1692503D01*
G37*
G36*
X8915603Y1691639D02*
G01*
X8929420Y1692503D01*
X8942984Y1695246D01*
X8956141Y1699666D01*
X8968536Y1705813D01*
X8980068Y1713484D01*
X8990482Y1722628D01*
X8999626Y1733042D01*
X9007297Y1744573D01*
X9013444Y1756968D01*
X9017863Y1770125D01*
X9020606Y1783689D01*
X9021470Y1797507D01*
X9020606Y1811324D01*
X9017863Y1824888D01*
X9013444Y1838045D01*
X9007297Y1850440D01*
X8999626Y1861972D01*
X8990482Y1872386D01*
X8980068Y1881530D01*
X8968536Y1889201D01*
X8956141Y1895348D01*
X8942984Y1899767D01*
X8929420Y1902510D01*
X8915603Y1903374D01*
X8901785Y1902510D01*
X8888222Y1899767D01*
X8875064Y1895348D01*
X8862669Y1889201D01*
X8851138Y1881530D01*
X8840724Y1872386D01*
X8831580Y1861972D01*
X8823909Y1850440D01*
X8817762Y1838045D01*
X8813342Y1824888D01*
X8810599Y1811324D01*
X8809736Y1797507D01*
X8810599Y1783689D01*
X8813342Y1770125D01*
X8817762Y1756968D01*
X8823909Y1744573D01*
X8831580Y1733042D01*
X8840724Y1722628D01*
X8851138Y1713484D01*
X8862669Y1705813D01*
X8875064Y1699666D01*
X8888222Y1695246D01*
X8901785Y1692503D01*
G37*
G36*
X8661603Y1691639D02*
G01*
X8675420Y1692503D01*
X8688984Y1695246D01*
X8702141Y1699666D01*
X8714536Y1705813D01*
X8726068Y1713484D01*
X8736482Y1722628D01*
X8745626Y1733042D01*
X8753297Y1744573D01*
X8759444Y1756968D01*
X8763863Y1770125D01*
X8766606Y1783689D01*
X8767470Y1797507D01*
X8766606Y1811324D01*
X8763863Y1824888D01*
X8759444Y1838045D01*
X8753297Y1850440D01*
X8745626Y1861972D01*
X8736482Y1872386D01*
X8726068Y1881530D01*
X8714536Y1889201D01*
X8702141Y1895348D01*
X8688984Y1899767D01*
X8675420Y1902510D01*
X8661603Y1903374D01*
X8647785Y1902510D01*
X8634222Y1899767D01*
X8621064Y1895348D01*
X8608669Y1889201D01*
X8597138Y1881530D01*
X8586724Y1872386D01*
X8577580Y1861972D01*
X8569909Y1850440D01*
X8563762Y1838045D01*
X8559342Y1824888D01*
X8556599Y1811324D01*
X8555736Y1797507D01*
X8556599Y1783689D01*
X8559342Y1770125D01*
X8563762Y1756968D01*
X8569909Y1744573D01*
X8577580Y1733042D01*
X8586724Y1722628D01*
X8597138Y1713484D01*
X8608669Y1705813D01*
X8621064Y1699666D01*
X8634222Y1695246D01*
X8647785Y1692503D01*
G37*
G36*
X10185603Y1691639D02*
G01*
X10199420Y1692503D01*
X10212984Y1695246D01*
X10226141Y1699666D01*
X10238536Y1705813D01*
X10250068Y1713484D01*
X10260482Y1722628D01*
X10269626Y1733042D01*
X10277297Y1744573D01*
X10283444Y1756968D01*
X10287863Y1770125D01*
X10290606Y1783689D01*
X10291470Y1797507D01*
X10290606Y1811324D01*
X10287863Y1824888D01*
X10283444Y1838045D01*
X10277297Y1850440D01*
X10269626Y1861972D01*
X10260482Y1872386D01*
X10250068Y1881530D01*
X10238536Y1889201D01*
X10226141Y1895348D01*
X10212984Y1899767D01*
X10199420Y1902510D01*
X10185603Y1903374D01*
X10171785Y1902510D01*
X10158222Y1899767D01*
X10145064Y1895348D01*
X10132669Y1889201D01*
X10121138Y1881530D01*
X10110724Y1872386D01*
X10101580Y1861972D01*
X10093909Y1850440D01*
X10087762Y1838045D01*
X10083342Y1824888D01*
X10080599Y1811324D01*
X10079736Y1797507D01*
X10080599Y1783689D01*
X10083342Y1770125D01*
X10087762Y1756968D01*
X10093909Y1744573D01*
X10101580Y1733042D01*
X10110724Y1722628D01*
X10121138Y1713484D01*
X10132669Y1705813D01*
X10145064Y1699666D01*
X10158222Y1695246D01*
X10171785Y1692503D01*
G37*
G36*
X9423603Y1691639D02*
G01*
X9437420Y1692503D01*
X9450984Y1695246D01*
X9464141Y1699666D01*
X9476536Y1705813D01*
X9488068Y1713484D01*
X9498482Y1722628D01*
X9507626Y1733042D01*
X9515297Y1744573D01*
X9521444Y1756968D01*
X9525863Y1770125D01*
X9528606Y1783689D01*
X9529470Y1797507D01*
X9528606Y1811324D01*
X9525863Y1824888D01*
X9521444Y1838045D01*
X9515297Y1850440D01*
X9507626Y1861972D01*
X9498482Y1872386D01*
X9488068Y1881530D01*
X9476536Y1889201D01*
X9464141Y1895348D01*
X9450984Y1899767D01*
X9437420Y1902510D01*
X9423603Y1903374D01*
X9409785Y1902510D01*
X9396222Y1899767D01*
X9383064Y1895348D01*
X9370669Y1889201D01*
X9359138Y1881530D01*
X9348724Y1872386D01*
X9339580Y1861972D01*
X9331909Y1850440D01*
X9325762Y1838045D01*
X9321342Y1824888D01*
X9318599Y1811324D01*
X9317736Y1797507D01*
X9318599Y1783689D01*
X9321342Y1770125D01*
X9325762Y1756968D01*
X9331909Y1744573D01*
X9339580Y1733042D01*
X9348724Y1722628D01*
X9359138Y1713484D01*
X9370669Y1705813D01*
X9383064Y1699666D01*
X9396222Y1695246D01*
X9409785Y1692503D01*
G37*
G36*
X5744870Y1692503D02*
G01*
X5913729Y1692503D01*
X5920028Y1693214D01*
X5925515Y1695094D01*
X5930392Y1698193D01*
X5934506Y1702307D01*
X5937605Y1707184D01*
X5939485Y1712671D01*
X5940196Y1718970D01*
X5940196Y1887829D01*
X5939485Y1894128D01*
X5937605Y1899615D01*
X5934506Y1904492D01*
X5930392Y1908606D01*
X5925515Y1911705D01*
X5920028Y1913585D01*
X5913729Y1914296D01*
X5744870Y1914296D01*
X5738571Y1913585D01*
X5733084Y1911705D01*
X5728208Y1908606D01*
X5724093Y1904492D01*
X5720994Y1899615D01*
X5719114Y1894128D01*
X5718403Y1887829D01*
X5718403Y1718970D01*
X5719114Y1712671D01*
X5720994Y1707184D01*
X5724093Y1702307D01*
X5728208Y1698193D01*
X5733084Y1695094D01*
X5738571Y1693214D01*
G37*
G36*
X10360152Y1692859D02*
G01*
X10519054Y1692859D01*
X10525353Y1693570D01*
X10530840Y1695500D01*
X10535716Y1698548D01*
X10539831Y1702663D01*
X10542879Y1707540D01*
X10544810Y1713026D01*
X10545521Y1719325D01*
X10545521Y1875688D01*
X10544810Y1881987D01*
X10542879Y1887474D01*
X10539831Y1892350D01*
X10535716Y1896465D01*
X10530840Y1899513D01*
X10525353Y1901443D01*
X10519054Y1902155D01*
X10360152Y1902155D01*
X10353852Y1901443D01*
X10348366Y1899513D01*
X10343489Y1896465D01*
X10339374Y1892350D01*
X10336326Y1887474D01*
X10334396Y1881987D01*
X10333685Y1875688D01*
X10333685Y1719325D01*
X10334396Y1713026D01*
X10336326Y1707540D01*
X10339374Y1702663D01*
X10343489Y1698548D01*
X10348366Y1695500D01*
X10353852Y1693570D01*
G37*
G36*
X5878169Y1957933D02*
G01*
X5889802Y1964486D01*
X5901182Y1972970D01*
X5911392Y1982825D01*
X5920232Y1993950D01*
X5927598Y2006092D01*
X5928715Y2008530D01*
X5878169Y2008530D01*
G37*
G36*
X5780430Y1957933D02*
G01*
X5780430Y2008530D01*
X5729884Y2008530D01*
X5731002Y2006092D01*
X5738368Y1993950D01*
X5747207Y1982825D01*
X5757418Y1972970D01*
X5768797Y1964486D01*
G37*
G36*
X5729986Y2106269D02*
G01*
X5780430Y2106269D01*
X5780430Y2156714D01*
X5774893Y2154021D01*
X5762955Y2146249D01*
X5752134Y2137054D01*
X5742584Y2126538D01*
X5734456Y2114905D01*
G37*
G36*
X5878169Y2106269D02*
G01*
X5928614Y2106269D01*
X5924143Y2114905D01*
X5916015Y2126538D01*
X5906465Y2137054D01*
X5895644Y2146249D01*
X5883706Y2154021D01*
X5878169Y2156714D01*
G37*
G36*
X5831992Y3987088D02*
G01*
X5846165Y3988003D01*
X5860135Y3990746D01*
X5873597Y3995216D01*
X5886399Y4001363D01*
X5898286Y4009136D01*
X5909106Y4018330D01*
X5918657Y4028846D01*
X5926836Y4040530D01*
X5933389Y4053128D01*
X5938266Y4066438D01*
X5941466Y4080306D01*
X5942838Y4094429D01*
X5942380Y4108653D01*
X5940094Y4122674D01*
X5936030Y4136288D01*
X5930290Y4149293D01*
X5922924Y4161434D01*
X5914085Y4172559D01*
X5903874Y4182414D01*
X5892495Y4190949D01*
X5880100Y4197908D01*
X5866942Y4203242D01*
X5853176Y4206849D01*
X5839104Y4208627D01*
X5824880Y4208627D01*
X5810808Y4206849D01*
X5797042Y4203242D01*
X5783884Y4197908D01*
X5771489Y4190949D01*
X5760110Y4182414D01*
X5749899Y4172559D01*
X5741060Y4161434D01*
X5733694Y4149293D01*
X5727903Y4136288D01*
X5723890Y4122674D01*
X5721604Y4108653D01*
X5721146Y4094429D01*
X5722518Y4080306D01*
X5725668Y4066438D01*
X5730595Y4053128D01*
X5737148Y4040530D01*
X5745276Y4028846D01*
X5754827Y4018330D01*
X5765647Y4009136D01*
X5777585Y4001363D01*
X5790387Y3995216D01*
X5803849Y3990746D01*
X5817819Y3988003D01*
G37*
G36*
X7137603Y4231640D02*
G01*
X7151420Y4232503D01*
X7164984Y4235246D01*
X7178141Y4239666D01*
X7190536Y4245813D01*
X7202068Y4253484D01*
X7212482Y4262628D01*
X7221626Y4273042D01*
X7229297Y4284573D01*
X7235444Y4296968D01*
X7239863Y4310126D01*
X7242606Y4323689D01*
X7243470Y4337507D01*
X7242606Y4351324D01*
X7239863Y4364888D01*
X7235444Y4378045D01*
X7229297Y4390440D01*
X7221626Y4401972D01*
X7212482Y4412386D01*
X7202068Y4421530D01*
X7190536Y4429201D01*
X7178141Y4435348D01*
X7164984Y4439767D01*
X7151420Y4442510D01*
X7137603Y4443374D01*
X7123785Y4442510D01*
X7110222Y4439767D01*
X7097064Y4435348D01*
X7084669Y4429201D01*
X7073138Y4421530D01*
X7062724Y4412386D01*
X7053580Y4401972D01*
X7045909Y4390440D01*
X7039762Y4378045D01*
X7035342Y4364888D01*
X7032599Y4351324D01*
X7031736Y4337507D01*
X7032599Y4323689D01*
X7035342Y4310126D01*
X7039762Y4296968D01*
X7045909Y4284573D01*
X7053580Y4273042D01*
X7062724Y4262628D01*
X7073138Y4253484D01*
X7084669Y4245813D01*
X7097064Y4239666D01*
X7110222Y4235246D01*
X7123785Y4232503D01*
G37*
G36*
X9677603Y4231640D02*
G01*
X9691420Y4232503D01*
X9704984Y4235246D01*
X9718141Y4239666D01*
X9730536Y4245813D01*
X9742068Y4253484D01*
X9752482Y4262628D01*
X9761626Y4273042D01*
X9769297Y4284573D01*
X9775444Y4296968D01*
X9779863Y4310126D01*
X9782606Y4323689D01*
X9783470Y4337507D01*
X9782606Y4351324D01*
X9779863Y4364888D01*
X9775444Y4378045D01*
X9769297Y4390440D01*
X9761626Y4401972D01*
X9752482Y4412386D01*
X9742068Y4421530D01*
X9730536Y4429201D01*
X9718141Y4435348D01*
X9704984Y4439767D01*
X9691420Y4442510D01*
X9677603Y4443374D01*
X9663785Y4442510D01*
X9650222Y4439767D01*
X9637064Y4435348D01*
X9624669Y4429201D01*
X9613138Y4421530D01*
X9602724Y4412386D01*
X9593580Y4401972D01*
X9585909Y4390440D01*
X9579762Y4378045D01*
X9575342Y4364888D01*
X9572599Y4351324D01*
X9571736Y4337507D01*
X9572599Y4323689D01*
X9575342Y4310126D01*
X9579762Y4296968D01*
X9585909Y4284573D01*
X9593580Y4273042D01*
X9602724Y4262628D01*
X9613138Y4253484D01*
X9624669Y4245813D01*
X9637064Y4239666D01*
X9650222Y4235246D01*
X9663785Y4232503D01*
G37*
G36*
X9423603Y4231640D02*
G01*
X9437420Y4232503D01*
X9450984Y4235246D01*
X9464141Y4239666D01*
X9476536Y4245813D01*
X9488068Y4253484D01*
X9498482Y4262628D01*
X9507626Y4273042D01*
X9515297Y4284573D01*
X9521444Y4296968D01*
X9525863Y4310126D01*
X9528606Y4323689D01*
X9529470Y4337507D01*
X9528606Y4351324D01*
X9525863Y4364888D01*
X9521444Y4378045D01*
X9515297Y4390440D01*
X9507626Y4401972D01*
X9498482Y4412386D01*
X9488068Y4421530D01*
X9476536Y4429201D01*
X9464141Y4435348D01*
X9450984Y4439767D01*
X9437420Y4442510D01*
X9423603Y4443374D01*
X9409785Y4442510D01*
X9396222Y4439767D01*
X9383064Y4435348D01*
X9370669Y4429201D01*
X9359138Y4421530D01*
X9348724Y4412386D01*
X9339580Y4401972D01*
X9331909Y4390440D01*
X9325762Y4378045D01*
X9321342Y4364888D01*
X9318599Y4351324D01*
X9317736Y4337507D01*
X9318599Y4323689D01*
X9321342Y4310126D01*
X9325762Y4296968D01*
X9331909Y4284573D01*
X9339580Y4273042D01*
X9348724Y4262628D01*
X9359138Y4253484D01*
X9370669Y4245813D01*
X9383064Y4239666D01*
X9396222Y4235246D01*
X9409785Y4232503D01*
G37*
G36*
X7391603Y4231640D02*
G01*
X7405420Y4232503D01*
X7418984Y4235246D01*
X7432141Y4239666D01*
X7444536Y4245813D01*
X7456068Y4253484D01*
X7466482Y4262628D01*
X7475626Y4273042D01*
X7483297Y4284573D01*
X7489444Y4296968D01*
X7493863Y4310126D01*
X7496606Y4323689D01*
X7497470Y4337507D01*
X7496606Y4351324D01*
X7493863Y4364888D01*
X7489444Y4378045D01*
X7483297Y4390440D01*
X7475626Y4401972D01*
X7466482Y4412386D01*
X7456068Y4421530D01*
X7444536Y4429201D01*
X7432141Y4435348D01*
X7418984Y4439767D01*
X7405420Y4442510D01*
X7391603Y4443374D01*
X7377785Y4442510D01*
X7364222Y4439767D01*
X7351064Y4435348D01*
X7338669Y4429201D01*
X7327138Y4421530D01*
X7316724Y4412386D01*
X7307580Y4401972D01*
X7299909Y4390440D01*
X7293762Y4378045D01*
X7289342Y4364888D01*
X7286599Y4351324D01*
X7285736Y4337507D01*
X7286599Y4323689D01*
X7289342Y4310126D01*
X7293762Y4296968D01*
X7299909Y4284573D01*
X7307580Y4273042D01*
X7316724Y4262628D01*
X7327138Y4253484D01*
X7338669Y4245813D01*
X7351064Y4239666D01*
X7364222Y4235246D01*
X7377785Y4232503D01*
G37*
G36*
X9169603Y4231640D02*
G01*
X9183420Y4232503D01*
X9196984Y4235246D01*
X9210141Y4239666D01*
X9222536Y4245813D01*
X9234068Y4253484D01*
X9244482Y4262628D01*
X9253626Y4273042D01*
X9261297Y4284573D01*
X9267444Y4296968D01*
X9271863Y4310126D01*
X9274606Y4323689D01*
X9275470Y4337507D01*
X9274606Y4351324D01*
X9271863Y4364888D01*
X9267444Y4378045D01*
X9261297Y4390440D01*
X9253626Y4401972D01*
X9244482Y4412386D01*
X9234068Y4421530D01*
X9222536Y4429201D01*
X9210141Y4435348D01*
X9196984Y4439767D01*
X9183420Y4442510D01*
X9169603Y4443374D01*
X9155785Y4442510D01*
X9142222Y4439767D01*
X9129064Y4435348D01*
X9116669Y4429201D01*
X9105138Y4421530D01*
X9094724Y4412386D01*
X9085580Y4401972D01*
X9077909Y4390440D01*
X9071762Y4378045D01*
X9067342Y4364888D01*
X9064599Y4351324D01*
X9063736Y4337507D01*
X9064599Y4323689D01*
X9067342Y4310126D01*
X9071762Y4296968D01*
X9077909Y4284573D01*
X9085580Y4273042D01*
X9094724Y4262628D01*
X9105138Y4253484D01*
X9116669Y4245813D01*
X9129064Y4239666D01*
X9142222Y4235246D01*
X9155785Y4232503D01*
G37*
G36*
X7645603Y4231640D02*
G01*
X7659420Y4232503D01*
X7672984Y4235246D01*
X7686141Y4239666D01*
X7698536Y4245813D01*
X7710068Y4253484D01*
X7720482Y4262628D01*
X7729626Y4273042D01*
X7737297Y4284573D01*
X7743444Y4296968D01*
X7747863Y4310126D01*
X7750606Y4323689D01*
X7751470Y4337507D01*
X7750606Y4351324D01*
X7747863Y4364888D01*
X7743444Y4378045D01*
X7737297Y4390440D01*
X7729626Y4401972D01*
X7720482Y4412386D01*
X7710068Y4421530D01*
X7698536Y4429201D01*
X7686141Y4435348D01*
X7672984Y4439767D01*
X7659420Y4442510D01*
X7645603Y4443374D01*
X7631785Y4442510D01*
X7618222Y4439767D01*
X7605064Y4435348D01*
X7592669Y4429201D01*
X7581138Y4421530D01*
X7570724Y4412386D01*
X7561580Y4401972D01*
X7553909Y4390440D01*
X7547762Y4378045D01*
X7543342Y4364888D01*
X7540599Y4351324D01*
X7539736Y4337507D01*
X7540599Y4323689D01*
X7543342Y4310126D01*
X7547762Y4296968D01*
X7553909Y4284573D01*
X7561580Y4273042D01*
X7570724Y4262628D01*
X7581138Y4253484D01*
X7592669Y4245813D01*
X7605064Y4239666D01*
X7618222Y4235246D01*
X7631785Y4232503D01*
G37*
G36*
X9931603Y4231640D02*
G01*
X9945420Y4232503D01*
X9958984Y4235246D01*
X9972141Y4239666D01*
X9984536Y4245813D01*
X9996068Y4253484D01*
X10006482Y4262628D01*
X10015626Y4273042D01*
X10023297Y4284573D01*
X10029444Y4296968D01*
X10033863Y4310126D01*
X10036606Y4323689D01*
X10037470Y4337507D01*
X10036606Y4351324D01*
X10033863Y4364888D01*
X10029444Y4378045D01*
X10023297Y4390440D01*
X10015626Y4401972D01*
X10006482Y4412386D01*
X9996068Y4421530D01*
X9984536Y4429201D01*
X9972141Y4435348D01*
X9958984Y4439767D01*
X9945420Y4442510D01*
X9931603Y4443374D01*
X9917785Y4442510D01*
X9904222Y4439767D01*
X9891064Y4435348D01*
X9878669Y4429201D01*
X9867138Y4421530D01*
X9856724Y4412386D01*
X9847580Y4401972D01*
X9839909Y4390440D01*
X9833762Y4378045D01*
X9829342Y4364888D01*
X9826599Y4351324D01*
X9825736Y4337507D01*
X9826599Y4323689D01*
X9829342Y4310126D01*
X9833762Y4296968D01*
X9839909Y4284573D01*
X9847580Y4273042D01*
X9856724Y4262628D01*
X9867138Y4253484D01*
X9878669Y4245813D01*
X9891064Y4239666D01*
X9904222Y4235246D01*
X9917785Y4232503D01*
G37*
G36*
X8915603Y4231640D02*
G01*
X8929420Y4232503D01*
X8942984Y4235246D01*
X8956141Y4239666D01*
X8968536Y4245813D01*
X8980068Y4253484D01*
X8990482Y4262628D01*
X8999626Y4273042D01*
X9007297Y4284573D01*
X9013444Y4296968D01*
X9017863Y4310126D01*
X9020606Y4323689D01*
X9021470Y4337507D01*
X9020606Y4351324D01*
X9017863Y4364888D01*
X9013444Y4378045D01*
X9007297Y4390440D01*
X8999626Y4401972D01*
X8990482Y4412386D01*
X8980068Y4421530D01*
X8968536Y4429201D01*
X8956141Y4435348D01*
X8942984Y4439767D01*
X8929420Y4442510D01*
X8915603Y4443374D01*
X8901785Y4442510D01*
X8888222Y4439767D01*
X8875064Y4435348D01*
X8862669Y4429201D01*
X8851138Y4421530D01*
X8840724Y4412386D01*
X8831580Y4401972D01*
X8823909Y4390440D01*
X8817762Y4378045D01*
X8813342Y4364888D01*
X8810599Y4351324D01*
X8809736Y4337507D01*
X8810599Y4323689D01*
X8813342Y4310126D01*
X8817762Y4296968D01*
X8823909Y4284573D01*
X8831580Y4273042D01*
X8840724Y4262628D01*
X8851138Y4253484D01*
X8862669Y4245813D01*
X8875064Y4239666D01*
X8888222Y4235246D01*
X8901785Y4232503D01*
G37*
G36*
X7899603Y4231640D02*
G01*
X7913420Y4232503D01*
X7926984Y4235246D01*
X7940141Y4239666D01*
X7952536Y4245813D01*
X7964068Y4253484D01*
X7974482Y4262628D01*
X7983626Y4273042D01*
X7991297Y4284573D01*
X7997444Y4296968D01*
X8001863Y4310126D01*
X8004606Y4323689D01*
X8005470Y4337507D01*
X8004606Y4351324D01*
X8001863Y4364888D01*
X7997444Y4378045D01*
X7991297Y4390440D01*
X7983626Y4401972D01*
X7974482Y4412386D01*
X7964068Y4421530D01*
X7952536Y4429201D01*
X7940141Y4435348D01*
X7926984Y4439767D01*
X7913420Y4442510D01*
X7899603Y4443374D01*
X7885785Y4442510D01*
X7872222Y4439767D01*
X7859064Y4435348D01*
X7846669Y4429201D01*
X7835138Y4421530D01*
X7824724Y4412386D01*
X7815580Y4401972D01*
X7807909Y4390440D01*
X7801762Y4378045D01*
X7797342Y4364888D01*
X7794599Y4351324D01*
X7793736Y4337507D01*
X7794599Y4323689D01*
X7797342Y4310126D01*
X7801762Y4296968D01*
X7807909Y4284573D01*
X7815580Y4273042D01*
X7824724Y4262628D01*
X7835138Y4253484D01*
X7846669Y4245813D01*
X7859064Y4239666D01*
X7872222Y4235246D01*
X7885785Y4232503D01*
G37*
G36*
X8661603Y4231640D02*
G01*
X8675420Y4232503D01*
X8688984Y4235246D01*
X8702141Y4239666D01*
X8714536Y4245813D01*
X8726068Y4253484D01*
X8736482Y4262628D01*
X8745626Y4273042D01*
X8753297Y4284573D01*
X8759444Y4296968D01*
X8763863Y4310126D01*
X8766606Y4323689D01*
X8767470Y4337507D01*
X8766606Y4351324D01*
X8763863Y4364888D01*
X8759444Y4378045D01*
X8753297Y4390440D01*
X8745626Y4401972D01*
X8736482Y4412386D01*
X8726068Y4421530D01*
X8714536Y4429201D01*
X8702141Y4435348D01*
X8688984Y4439767D01*
X8675420Y4442510D01*
X8661603Y4443374D01*
X8647785Y4442510D01*
X8634222Y4439767D01*
X8621064Y4435348D01*
X8608669Y4429201D01*
X8597138Y4421530D01*
X8586724Y4412386D01*
X8577580Y4401972D01*
X8569909Y4390440D01*
X8563762Y4378045D01*
X8559342Y4364888D01*
X8556599Y4351324D01*
X8555736Y4337507D01*
X8556599Y4323689D01*
X8559342Y4310126D01*
X8563762Y4296968D01*
X8569909Y4284573D01*
X8577580Y4273042D01*
X8586724Y4262628D01*
X8597138Y4253484D01*
X8608669Y4245813D01*
X8621064Y4239666D01*
X8634222Y4235246D01*
X8647785Y4232503D01*
G37*
G36*
X8153603Y4231640D02*
G01*
X8167420Y4232503D01*
X8180984Y4235246D01*
X8194141Y4239666D01*
X8206536Y4245813D01*
X8218068Y4253484D01*
X8228482Y4262628D01*
X8237626Y4273042D01*
X8245297Y4284573D01*
X8251444Y4296968D01*
X8255863Y4310126D01*
X8258606Y4323689D01*
X8259470Y4337507D01*
X8258606Y4351324D01*
X8255863Y4364888D01*
X8251444Y4378045D01*
X8245297Y4390440D01*
X8237626Y4401972D01*
X8228482Y4412386D01*
X8218068Y4421530D01*
X8206536Y4429201D01*
X8194141Y4435348D01*
X8180984Y4439767D01*
X8167420Y4442510D01*
X8153603Y4443374D01*
X8139785Y4442510D01*
X8126222Y4439767D01*
X8113064Y4435348D01*
X8100669Y4429201D01*
X8089138Y4421530D01*
X8078724Y4412386D01*
X8069580Y4401972D01*
X8061909Y4390440D01*
X8055762Y4378045D01*
X8051342Y4364888D01*
X8048599Y4351324D01*
X8047736Y4337507D01*
X8048599Y4323689D01*
X8051342Y4310126D01*
X8055762Y4296968D01*
X8061909Y4284573D01*
X8069580Y4273042D01*
X8078724Y4262628D01*
X8089138Y4253484D01*
X8100669Y4245813D01*
X8113064Y4239666D01*
X8126222Y4235246D01*
X8139785Y4232503D01*
G37*
G36*
X8407603Y4231640D02*
G01*
X8421420Y4232503D01*
X8434984Y4235246D01*
X8448141Y4239666D01*
X8460536Y4245813D01*
X8472068Y4253484D01*
X8482482Y4262628D01*
X8491626Y4273042D01*
X8499297Y4284573D01*
X8505444Y4296968D01*
X8509863Y4310126D01*
X8512606Y4323689D01*
X8513470Y4337507D01*
X8512606Y4351324D01*
X8509863Y4364888D01*
X8505444Y4378045D01*
X8499297Y4390440D01*
X8491626Y4401972D01*
X8482482Y4412386D01*
X8472068Y4421530D01*
X8460536Y4429201D01*
X8448141Y4435348D01*
X8434984Y4439767D01*
X8421420Y4442510D01*
X8407603Y4443374D01*
X8393125Y4442358D01*
X8380222Y4439767D01*
X8367064Y4435348D01*
X8354669Y4429201D01*
X8343138Y4421530D01*
X8332724Y4412386D01*
X8323580Y4401972D01*
X8315909Y4390440D01*
X8309762Y4378045D01*
X8305342Y4364888D01*
X8302599Y4351324D01*
X8301736Y4337507D01*
X8302599Y4323689D01*
X8305342Y4310126D01*
X8309762Y4296968D01*
X8315909Y4284573D01*
X8323580Y4273042D01*
X8332724Y4262628D01*
X8343138Y4253484D01*
X8354669Y4245813D01*
X8367064Y4239666D01*
X8380222Y4235246D01*
X8393480Y4232554D01*
G37*
G36*
X6883603Y4231640D02*
G01*
X6897420Y4232503D01*
X6910984Y4235246D01*
X6924141Y4239666D01*
X6936536Y4245813D01*
X6948068Y4253484D01*
X6958482Y4262628D01*
X6967626Y4273042D01*
X6975297Y4284573D01*
X6981444Y4296968D01*
X6985863Y4310126D01*
X6988606Y4323689D01*
X6989470Y4337507D01*
X6988606Y4351324D01*
X6985863Y4364888D01*
X6981444Y4378045D01*
X6975297Y4390440D01*
X6967626Y4401972D01*
X6958482Y4412386D01*
X6948068Y4421530D01*
X6936536Y4429201D01*
X6924141Y4435348D01*
X6910984Y4439767D01*
X6897420Y4442510D01*
X6883603Y4443374D01*
X6869785Y4442510D01*
X6856222Y4439767D01*
X6843064Y4435348D01*
X6830669Y4429201D01*
X6819138Y4421530D01*
X6808724Y4412386D01*
X6799580Y4401972D01*
X6791909Y4390440D01*
X6785762Y4378045D01*
X6781342Y4364888D01*
X6778599Y4351324D01*
X6777736Y4337507D01*
X6778599Y4323689D01*
X6781342Y4310126D01*
X6785762Y4296968D01*
X6791909Y4284573D01*
X6799580Y4273042D01*
X6808724Y4262628D01*
X6819138Y4253484D01*
X6830669Y4245813D01*
X6843064Y4239666D01*
X6856222Y4235246D01*
X6869785Y4232503D01*
G37*
G36*
X10360152Y4232859D02*
G01*
X10519054Y4232859D01*
X10525353Y4233570D01*
X10530840Y4235500D01*
X10535716Y4238548D01*
X10539831Y4242663D01*
X10542879Y4247540D01*
X10544810Y4253026D01*
X10545521Y4259326D01*
X10545521Y4415688D01*
X10544810Y4421987D01*
X10542879Y4427474D01*
X10539831Y4432350D01*
X10535716Y4436465D01*
X10530840Y4439513D01*
X10525353Y4441444D01*
X10519054Y4442155D01*
X10360152Y4442155D01*
X10353852Y4441444D01*
X10348366Y4439513D01*
X10343489Y4436465D01*
X10339374Y4432350D01*
X10336326Y4427474D01*
X10334396Y4421987D01*
X10333685Y4415688D01*
X10333685Y4259326D01*
X10334396Y4253026D01*
X10336326Y4247540D01*
X10339374Y4242663D01*
X10343489Y4238548D01*
X10348366Y4235500D01*
X10353852Y4233570D01*
G37*
G36*
X5747562Y4241088D02*
G01*
X5783122Y4241088D01*
X5783122Y4303166D01*
X5721096Y4303166D01*
X5721096Y4267555D01*
X5721807Y4261256D01*
X5723686Y4255770D01*
X5726785Y4250893D01*
X5730849Y4246778D01*
X5735777Y4243730D01*
X5741212Y4241800D01*
G37*
G36*
X5880862Y4241088D02*
G01*
X5916422Y4241088D01*
X5922721Y4241800D01*
X5928207Y4243730D01*
X5933084Y4246778D01*
X5937199Y4250893D01*
X5940247Y4255770D01*
X5942177Y4261256D01*
X5942888Y4267555D01*
X5942888Y4303166D01*
X5880862Y4303166D01*
G37*
G36*
X10231932Y4242562D02*
G01*
X10238536Y4245813D01*
X10250068Y4253484D01*
X10260482Y4262628D01*
X10269626Y4273042D01*
X10277297Y4284573D01*
X10280548Y4291177D01*
X10231932Y4291177D01*
G37*
G36*
X10139273Y4242562D02*
G01*
X10139273Y4291177D01*
X10090658Y4291177D01*
X10093909Y4284573D01*
X10101580Y4273042D01*
X10110724Y4262628D01*
X10121138Y4253484D01*
X10132669Y4245813D01*
G37*
G36*
X10090658Y4383836D02*
G01*
X10139273Y4383836D01*
X10139273Y4432452D01*
X10132669Y4429201D01*
X10121138Y4421530D01*
X10110724Y4412386D01*
X10101580Y4401972D01*
X10093909Y4390440D01*
G37*
G36*
X10231932Y4383836D02*
G01*
X10280548Y4383836D01*
X10277297Y4390440D01*
X10269626Y4401972D01*
X10260482Y4412386D01*
X10250068Y4421530D01*
X10238536Y4429201D01*
X10231932Y4432452D01*
G37*
G36*
X5721096Y4400854D02*
G01*
X5783122Y4400854D01*
X5783122Y4462881D01*
X5747562Y4462881D01*
X5741212Y4462170D01*
X5735777Y4460290D01*
X5730849Y4457192D01*
X5726785Y4453128D01*
X5723686Y4448200D01*
X5721807Y4442764D01*
X5721096Y4436414D01*
G37*
G36*
X5880862Y4400854D02*
G01*
X5942888Y4400854D01*
X5942888Y4436414D01*
X5942177Y4442764D01*
X5940247Y4448200D01*
X5937199Y4453128D01*
X5933084Y4457192D01*
X5928207Y4460290D01*
X5922721Y4462170D01*
X5916422Y4462881D01*
X5880862Y4462881D01*
G37*
G36*
X8765540Y4596536D02*
G01*
X8783777Y4597958D01*
X8801760Y4601210D01*
X8819286Y4606340D01*
X8836253Y4613198D01*
X8852357Y4621834D01*
X8867546Y4631994D01*
X8881567Y4643729D01*
X8894318Y4656785D01*
X8905646Y4671161D01*
X8915450Y4686554D01*
X8923629Y4702911D01*
X8930081Y4719980D01*
X8934754Y4737658D01*
X8937548Y4755743D01*
X8938463Y4773980D01*
X8937548Y4792218D01*
X8934754Y4810302D01*
X8930081Y4827981D01*
X8923629Y4845050D01*
X8915450Y4861407D01*
X8905646Y4876800D01*
X8894318Y4891176D01*
X8881567Y4904232D01*
X8867546Y4915966D01*
X8852357Y4926126D01*
X8836253Y4934762D01*
X8819286Y4941620D01*
X8801760Y4946751D01*
X8783777Y4950002D01*
X8765540Y4951425D01*
X8747302Y4950968D01*
X8729167Y4948580D01*
X8711387Y4944414D01*
X8694115Y4938420D01*
X8677554Y4930648D01*
X8661908Y4921250D01*
X8647277Y4910277D01*
X8633866Y4897882D01*
X8621826Y4884115D01*
X8611209Y4869230D01*
X8602218Y4853330D01*
X8594902Y4836617D01*
X8589365Y4819192D01*
X8585606Y4801311D01*
X8583726Y4783124D01*
X8583726Y4764836D01*
X8585606Y4746650D01*
X8589365Y4728768D01*
X8594902Y4711344D01*
X8602218Y4694631D01*
X8611209Y4678730D01*
X8621826Y4663846D01*
X8633866Y4650079D01*
X8647277Y4637684D01*
X8661908Y4626711D01*
X8677554Y4617313D01*
X8694115Y4609541D01*
X8711387Y4603546D01*
X8729167Y4599381D01*
X8747302Y4596993D01*
G37*
G36*
X6398869Y4677003D02*
G01*
X6434429Y4677003D01*
X6440728Y4677714D01*
X6446215Y4679594D01*
X6451092Y4682693D01*
X6455206Y4686808D01*
X6458305Y4691684D01*
X6460185Y4697171D01*
X6460896Y4703470D01*
X6460896Y4739030D01*
X6398869Y4739030D01*
G37*
G36*
X6265570Y4677003D02*
G01*
X6301130Y4677003D01*
X6301130Y4739030D01*
X6239103Y4739030D01*
X6239103Y4703470D01*
X6239814Y4697171D01*
X6241694Y4691684D01*
X6244793Y4686808D01*
X6248908Y4682693D01*
X6253784Y4679594D01*
X6259271Y4677714D01*
G37*
G36*
X6239103Y4836769D02*
G01*
X6301130Y4836769D01*
X6301130Y4898796D01*
X6265570Y4898796D01*
X6259271Y4898085D01*
X6253784Y4896205D01*
X6248908Y4893106D01*
X6244793Y4888992D01*
X6241694Y4884115D01*
X6239814Y4878628D01*
X6239103Y4872329D01*
G37*
G36*
X6398869Y4836769D02*
G01*
X6460896Y4836769D01*
X6460896Y4872329D01*
X6460185Y4878628D01*
X6458305Y4884115D01*
X6455206Y4888992D01*
X6451092Y4893106D01*
X6446215Y4896205D01*
X6440728Y4898085D01*
X6434429Y4898796D01*
X6398869Y4898796D01*
G37*

%LPD*%
D10*
X9677631Y1797474D02*
G01*
X9486153Y1605996D01*
X8054985Y1605996D01*
X7795188Y1346200D01*
X6845300Y1346200D01*
X5829300Y4330700D02*
G01*
X6097005Y4062989D01*
X6105984Y4062989D01*
X5886980Y3843985D01*
X5831992Y3843985D01*
X5829300Y2311400D02*
G01*
X5990582Y2311400D01*
X6708985Y1592996D01*
X7695153Y1592996D01*
X7899631Y1797474D01*
X9931631Y1797474D02*
G01*
X7583114Y4145991D01*
X6822986Y4145991D01*
X6690987Y4277989D01*
X6690987Y4634989D01*
X6843897Y4787900D01*
X6858000Y4787900D01*
X6350000Y4787900D02*
G01*
X6489090Y4926990D01*
X7461984Y4926990D01*
X7828983Y4559990D01*
X9963132Y4559990D01*
X10185615Y4337507D01*
X6350000Y4787900D02*
G01*
X5914085Y4351985D01*
X5831992Y4351985D01*
X5829300Y2057400D02*
G01*
X6337300Y1549400D01*
X6337300Y1346200D01*
X5831992Y3843985D02*
G01*
X5831992Y3602992D01*
X5671987Y3442990D01*
X5671987Y2214712D01*
X5829300Y2057400D01*
D11*
X6350010Y4787905D02*
G01*
X6237107Y4787905D01*
X5956310Y1930430D02*
G01*
X5829310Y2057405D01*
D10*
X7858983Y2297996D02*
G01*
X7907113Y2297996D01*
X8407628Y1797481D01*
X5829300Y3073400D02*
G01*
X6002020Y2900679D01*
X6002020Y2649981D01*
X6659118Y1992884D01*
X7450074Y1992884D01*
X7645654Y1797557D01*
X5829300Y3327400D02*
G01*
X6058583Y3327400D01*
X7277986Y2107996D01*
D12*
G01*
X5831992Y4351985D03*
D13*
G01*
X5831992Y4097985D03*
G01*
X5831992Y3843985D03*
D12*
G01*
X5829300Y1803400D03*
D13*
G01*
X5829300Y2057400D03*
G01*
X5829300Y2311400D03*
G01*
X5829300Y2565400D03*
G01*
X5829300Y2819400D03*
G01*
X5829300Y3073400D03*
G01*
X5829300Y3327400D03*
D12*
G01*
X6350000Y4787900D03*
D13*
G01*
X6604000Y4787900D03*
G01*
X6858000Y4787900D03*
D12*
G01*
X6337300Y1346200D03*
D13*
G01*
X6591300Y1346200D03*
G01*
X6845300Y1346200D03*
D14*
G01*
X6883628Y1797481D03*
G01*
X7137628Y1797481D03*
G01*
X7391628Y1797481D03*
G01*
X7645628Y1797481D03*
G01*
X7899628Y1797481D03*
G01*
X8153628Y1797481D03*
G01*
X8407628Y1797481D03*
G01*
X8661628Y1797481D03*
G01*
X8915628Y1797481D03*
G01*
X9169628Y1797481D03*
G01*
X9423628Y1797481D03*
G01*
X9677628Y1797481D03*
G01*
X9931628Y1797481D03*
G01*
X10185628Y1797481D03*
D15*
G01*
X10439628Y1797481D03*
D14*
G01*
X6883628Y4337507D03*
G01*
X7137628Y4337507D03*
G01*
X7391628Y4337507D03*
G01*
X7645628Y4337507D03*
G01*
X7899628Y4337507D03*
G01*
X8153628Y4337507D03*
G01*
X8407628Y4337507D03*
G01*
X8661628Y4337507D03*
G01*
X8915628Y4337507D03*
G01*
X9169628Y4337507D03*
G01*
X9423628Y4337507D03*
G01*
X9677628Y4337507D03*
G01*
X9931628Y4337507D03*
G01*
X10185628Y4337507D03*
D15*
G01*
X10439603Y4337507D03*
D16*
G01*
X7858988Y2297988D03*
G01*
X7277988Y2107996D03*
M02*
