G04 Layer: TopSolderMaskLayer*
G04 EasyEDA v6.5.22, 2023-01-27 10:19:15*
G04 97612568c13546d9aa68a280acc3fae8,65e8c398ba41445d9ff66b3c76c563e1,10*
G04 Gerber Generator version 0.2*
G04 Scale: 100 percent, Rotated: No, Reflected: No *
G04 Dimensions in millimeters *
G04 leading zeros omitted , absolute positions ,4 integer and 5 decimal *
%FSLAX45Y45*%
%MOMM*%

%AMMACRO1*1,1,$1,$2,$3*1,1,$1,$4,$5*1,1,$1,0-$2,0-$3*1,1,$1,0-$4,0-$5*20,1,$1,$2,$3,$4,$5,0*20,1,$1,$4,$5,0-$2,0-$3,0*20,1,$1,0-$2,0-$3,0-$4,0-$5,0*20,1,$1,0-$4,0-$5,$2,$3,0*4,1,4,$2,$3,$4,$5,0-$2,0-$3,0-$4,0-$5,$2,$3,0*%
%ADD10MACRO1,0.1016X0.85X0.85X0.85X-0.85*%
%ADD11C,1.8016*%
%ADD12MACRO1,0.1016X-0.85X-0.85X-0.85X0.85*%
%ADD13MACRO1,0.1016X-0.85X0.85X0.85X0.85*%
%ADD14C,1.7016*%
%ADD15MACRO1,0.1016X0.8X-0.7873X-0.8X-0.7873*%
%ADD16MACRO1,0.1016X0.8X-0.7874X-0.8X-0.7874*%

%LPD*%
D10*
G01*
X5831987Y4351992D03*
D11*
G01*
X5831992Y4097985D03*
G01*
X5831992Y3843985D03*
D12*
G01*
X5829300Y1803400D03*
D11*
G01*
X5829300Y2057400D03*
G01*
X5829300Y2311400D03*
G01*
X5829300Y2565400D03*
G01*
X5829300Y2819400D03*
G01*
X5829300Y3073400D03*
G01*
X5829300Y3327400D03*
D13*
G01*
X6350000Y4787900D03*
D11*
G01*
X6604000Y4787900D03*
G01*
X6858000Y4787900D03*
D13*
G01*
X6337300Y1346200D03*
D11*
G01*
X6591300Y1346200D03*
G01*
X6845300Y1346200D03*
D14*
G01*
X6883628Y1797481D03*
G01*
X7137628Y1797481D03*
G01*
X7391628Y1797481D03*
G01*
X7645628Y1797481D03*
G01*
X7899628Y1797481D03*
G01*
X8153628Y1797481D03*
G01*
X8407628Y1797481D03*
G01*
X8661628Y1797481D03*
G01*
X8915628Y1797481D03*
G01*
X9169628Y1797481D03*
G01*
X9423628Y1797481D03*
G01*
X9677628Y1797481D03*
G01*
X9931628Y1797481D03*
G01*
X10185628Y1797481D03*
D15*
G01*
X10439626Y1797472D03*
D14*
G01*
X6883628Y4337507D03*
G01*
X7137628Y4337507D03*
G01*
X7391628Y4337507D03*
G01*
X7645628Y4337507D03*
G01*
X7899628Y4337507D03*
G01*
X8153628Y4337507D03*
G01*
X8407628Y4337507D03*
G01*
X8661628Y4337507D03*
G01*
X8915628Y4337507D03*
G01*
X9169628Y4337507D03*
G01*
X9423628Y4337507D03*
G01*
X9677628Y4337507D03*
G01*
X9931628Y4337507D03*
G01*
X10185628Y4337507D03*
D16*
G01*
X10439614Y4337507D03*
M02*
