M48
; #@! TF.CreationDate,2021-03-09T18:11:31+01:00
; #@! TF.GenerationSoftware,xxxx,yyyy,zzzz
; #@! TF.FileFunction,Plated,1,4,PTH
FMAT,2
METRIC
; #@! TA.AperFunction,ViaDrill
T1C0.400
; #@! TA.AperFunction,ComponentDrill
T2C0.600
; #@! TA.AperFunction,ComponentDrill
T3C0.800
; #@! TA.AperFunction,ComponentDrill
T4C0.813
; #@! TA.AperFunction,ComponentDrill
T5C1.000
; #@! TA.AperFunction,ComponentDrill
T6C1.016
; #@! TA.AperFunction,ComponentDrill
T7C1.200
; #@! TA.AperFunction,ComponentDrill
T8C1.500
; #@! TA.AperFunction,ComponentDrill
T9C1.600
; #@! TA.AperFunction,ComponentDrill
T10C3.048
%
G90
G05
T1
; via hole
X80.264Y-108.585
X81.788Y-108.585
X83.312Y-115.316
X83.82Y-108.585
X84.582Y-102.235
X84.836Y-108.585
X85.09Y-119.126
X86.741Y-131.241
X87.63Y-112.141
X95.758Y-115.062
X95.758Y-117.602
X97.155Y-88.5
X97.282Y-90.043
X97.409Y-112.141
X98.298Y-100.584
X100.838Y-113.03
X100.965Y-139.827
X101.092Y-115.062
X101.092Y-118.872
X102.87Y-100.711
X103.0Y-85.5
X103.0Y-95.0
X103.378Y-112.522
X104.0Y-75.5
X104.013Y-100.711
X104.013Y-101.6
X104.013Y-102.489
X104.013Y-103.378
X106.68Y-90.424
X107.823Y-83.185
X111.252Y-83.82
X112.014Y-71.628
X116.5Y-70.5
X117.729Y-75.184
X117.729Y-116.332
X118.872Y-105.029
X120.269Y-85.598
X121.158Y-102.616
X121.666Y-98.425
X121.793Y-85.598
X122.174Y-93.98
X122.428Y-115.316
X122.936Y-90.043
X123.063Y-93.98
X123.19Y-85.598
X123.444Y-105.283
X123.571Y-99.06
X123.571Y-110.363
X123.952Y-93.98
X124.587Y-85.852
X124.841Y-93.98
X125.222Y-71.247
X125.222Y-74.676
X125.476Y-92.964
X127.0Y-76.0
X128.397Y-113.665
X129.032Y-89.789
X129.159Y-95.25
X129.159Y-99.06
X129.159Y-112.014
X129.54Y-105.41
X129.54Y-106.299
X130.048Y-95.25
X130.048Y-107.188
X130.429Y-104.902
X130.937Y-89.916
X130.937Y-95.25
X131.064Y-106.426
X131.318Y-104.902
X131.572Y-71.247
X131.699Y-82.804
X131.699Y-102.87
X131.826Y-96.393
X132.08Y-91.313
X132.461Y-92.075
X132.588Y-95.25
X132.588Y-102.87
X132.715Y-75.438
X132.715Y-135.001
X133.35Y-96.012
X133.604Y-135.001
X133.731Y-89.535
X133.985Y-104.267
X134.112Y-97.028
X134.112Y-105.156
X134.112Y-106.045
X134.112Y-106.934
X134.239Y-110.871
X134.366Y-82.55
X134.493Y-135.001
X134.747Y-85.217
X135.001Y-106.934
X135.128Y-110.871
X135.382Y-135.001
X135.636Y-88.646
X135.7Y-105.6
X135.89Y-96.139
X136.017Y-85.344
X136.271Y-97.282
X136.271Y-135.001
X136.525Y-88.646
X136.652Y-120.396
X136.906Y-105.918
X137.16Y-85.344
X137.16Y-135.001
X137.287Y-113.538
X138.049Y-135.001
X138.176Y-85.598
X138.7Y-106.5
X138.8Y-113.2
X138.811Y-96.266
X138.811Y-98.933
X138.938Y-135.001
X139.065Y-85.598
X139.065Y-107.442
X139.446Y-116.205
X139.827Y-102.743
X139.954Y-85.598
X140.208Y-82.169
X140.335Y-96.139
X140.97Y-101.854
X140.97Y-103.124
X141.478Y-82.423
X141.478Y-105.283
X141.478Y-106.426
X141.605Y-89.027
X141.605Y-96.266
X142.24Y-108.839
X142.621Y-116.205
X143.1Y-94.0
X145.415Y-112.903
X146.558Y-106.68
X146.558Y-107.95
X146.685Y-109.855
X146.812Y-98.679
X146.812Y-100.076
X146.812Y-103.886
X146.812Y-105.41
X147.574Y-95.25
X148.463Y-95.25
X148.5Y-118.0
X148.844Y-84.836
X149.352Y-95.25
X149.86Y-84.201
X150.495Y-95.25
X150.495Y-96.393
X150.495Y-97.282
X150.495Y-98.171
X150.495Y-99.06
X150.622Y-88.9
X150.876Y-75.311
X151.511Y-83.947
X151.75Y-118.0
X152.4Y-84.836
X153.035Y-88.392
X153.035Y-92.71
X154.432Y-91.948
X154.813Y-87.757
X155.829Y-88.138
X157.099Y-89.662
X157.099Y-90.551
X157.226Y-87.884
X157.734Y-97.536
X158.242Y-74.676
X159.253Y-71.247
X159.512Y-115.697
X161.163Y-92.329
X162.306Y-106.807
X163.068Y-75.311
X163.322Y-93.472
X163.449Y-100.33
X164.592Y-71.247
X166.751Y-105.791
X168.275Y-115.062
X172.466Y-92.964
X174.625Y-106.045
X174.752Y-89.408
X177.038Y-89.408
X177.165Y-77.089
X178.054Y-105.664
X178.054Y-110.363
X178.308Y-87.884
X178.308Y-88.773
X178.689Y-118.872
X179.197Y-86.487
X179.197Y-93.726
X179.705Y-92.202
X179.705Y-102.87
X179.959Y-91.059
X180.721Y-111.458
X181.61Y-104.013
X181.61Y-104.902
X181.61Y-107.569
X181.61Y-108.458
X181.61Y-109.347
X181.61Y-110.236
X181.61Y-118.999
X181.991Y-90.17
X184.531Y-118.872
X187.5Y-76.0
X188.374Y-108.021
X188.798Y-105.321
X189.156Y-116.51
X189.438Y-110.503
X190.048Y-101.206
X191.008Y-73.025
X191.153Y-96.906
X192.0Y-76.5
X192.334Y-123.845
X193.126Y-108.455
X193.167Y-113.538
X193.294Y-105.41
X193.675Y-109.855
X193.904Y-107.112
X193.929Y-83.947
X194.678Y-99.253
X194.691Y-73.406
X194.691Y-125.222
X197.104Y-98.679
X199.009Y-102.977
X199.174Y-124.272
X199.39Y-96.139
X199.644Y-97.536
X200.66Y-120.269
X202.481Y-102.997
X203.454Y-98.674
X203.794Y-124.617
X204.145Y-116.954
X204.216Y-120.777
X204.567Y-85.212
X205.613Y-120.777
X205.661Y-78.74
X206.502Y-126.238
X206.835Y-109.987
X207.62Y-102.565
X209.166Y-124.264
X209.38Y-113.861
X209.677Y-98.694
X209.733Y-118.095
X209.748Y-112.009
X210.073Y-125.275
X210.431Y-103.477
X210.82Y-109.982
X210.947Y-113.538
X211.074Y-107.442
X211.414Y-102.568
X212.194Y-80.645
X212.237Y-76.248
X214.455Y-110.503
X214.914Y-108.006
X216.69Y-115.28
X218.5Y-70.5
X220.002Y-115.755
T2
; pad hole
X186.69Y-89.408
X187.96Y-88.138
X189.23Y-89.408
T3
X88.9Y-82.63
X88.9Y-87.63
X88.9Y-95.33
X88.9Y-100.33
X123.444Y-120.777
X123.444Y-125.677
X207.01Y-134.62
X217.17Y-134.62
T4
X168.529Y-87.249
X168.529Y-92.329
X168.529Y-97.79
X168.529Y-102.87
X168.529Y-108.077
X168.529Y-113.157
X168.656Y-119.761
X168.656Y-124.841
X176.149Y-87.249
X176.149Y-92.329
X176.149Y-97.79
X176.149Y-102.87
X176.149Y-108.077
X176.149Y-113.157
X176.276Y-119.761
X176.276Y-124.841
T5
X76.327Y-106.299
X76.327Y-108.839
X76.327Y-111.379
X76.327Y-113.919
X76.327Y-116.459
X76.327Y-118.999
X76.327Y-121.539
X76.327Y-124.079
X76.327Y-126.619
X76.327Y-129.159
X76.327Y-131.699
X76.327Y-134.239
X76.327Y-136.779
X78.867Y-106.299
X78.867Y-108.839
X78.867Y-111.379
X78.867Y-113.919
X78.867Y-116.459
X78.867Y-118.999
X78.867Y-121.539
X78.867Y-124.079
X78.867Y-126.619
X78.867Y-129.159
X78.867Y-131.699
X78.867Y-134.239
X78.867Y-136.779
X83.439Y-134.239
X83.439Y-138.557
X88.9Y-134.62
X89.535Y-140.97
X90.5Y-113.0
X91.44Y-134.62
X93.04Y-113.0
X95.0Y-86.5
X96.647Y-93.218
X96.647Y-95.758
X100.457Y-95.758
X107.0Y-73.533
X107.0Y-76.073
X107.0Y-78.613
X110.744Y-73.533
X110.744Y-76.073
X110.744Y-78.613
X110.744Y-136.906
X110.744Y-139.446
X112.014Y-108.458
X112.522Y-86.233
X112.522Y-88.773
X112.522Y-93.345
X112.522Y-95.885
X112.522Y-98.425
X113.284Y-136.906
X113.284Y-139.446
X114.5Y-73.533
X114.5Y-76.073
X114.5Y-78.613
X114.554Y-108.458
X115.062Y-86.233
X115.062Y-88.773
X115.062Y-93.345
X115.062Y-95.885
X115.062Y-98.425
X115.824Y-136.906
X115.824Y-139.446
X118.364Y-136.906
X118.364Y-139.446
X120.904Y-136.906
X120.904Y-139.446
X123.444Y-136.906
X123.444Y-139.446
X125.984Y-136.906
X125.984Y-139.446
X128.524Y-136.906
X128.524Y-139.446
X131.064Y-136.906
X131.064Y-139.446
X133.604Y-136.906
X133.604Y-139.446
X135.763Y-74.549
X135.763Y-77.089
X135.763Y-79.629
X135.763Y-82.169
X136.144Y-136.906
X136.144Y-139.446
X138.303Y-74.549
X138.303Y-77.089
X138.303Y-79.629
X138.303Y-82.169
X138.684Y-136.906
X138.684Y-139.446
X141.224Y-136.906
X141.224Y-139.446
X143.764Y-136.906
X143.764Y-139.446
X146.304Y-136.906
X146.304Y-139.446
X148.844Y-136.906
X148.844Y-139.446
X151.384Y-136.906
X151.384Y-139.446
X152.019Y-102.489
X153.924Y-136.906
X153.924Y-139.446
X156.464Y-136.906
X156.464Y-139.446
X157.607Y-117.983
X157.607Y-120.523
X159.004Y-136.906
X159.004Y-139.446
X160.147Y-117.983
X160.147Y-120.523
X161.544Y-136.906
X161.544Y-139.446
X162.687Y-117.983
X162.687Y-120.523
X164.084Y-136.906
X164.084Y-139.446
X165.227Y-117.983
X165.227Y-120.523
X166.624Y-136.906
X166.624Y-139.446
X169.164Y-136.906
X169.164Y-139.446
X169.545Y-74.549
X169.545Y-77.089
X169.545Y-79.629
X169.545Y-82.169
X171.704Y-136.906
X171.704Y-139.446
X172.085Y-74.549
X172.085Y-77.089
X172.085Y-79.629
X172.085Y-82.169
X174.244Y-136.906
X174.244Y-139.446
X176.784Y-136.906
X176.784Y-139.446
X179.324Y-136.906
X179.324Y-139.446
X181.864Y-130.302
X181.864Y-136.906
X181.864Y-139.446
X184.404Y-130.302
X184.404Y-136.906
X184.404Y-139.446
X197.485Y-74.549
X197.485Y-77.089
X197.485Y-79.629
X197.485Y-82.169
X197.5Y-87.0
X197.5Y-89.54
X200.025Y-74.549
X200.025Y-77.089
X200.025Y-79.629
X200.025Y-82.169
X200.04Y-87.0
X200.04Y-89.54
X222.25Y-88.9
X222.25Y-91.44
X222.25Y-93.98
X222.25Y-96.52
X222.25Y-99.06
X222.25Y-101.6
X222.25Y-104.14
X222.25Y-106.68
X222.25Y-109.22
X222.25Y-111.76
X222.25Y-114.3
X222.25Y-116.84
X222.25Y-119.38
X222.25Y-121.92
X222.25Y-124.46
X222.25Y-127.0
X222.25Y-129.54
X222.25Y-132.08
X222.25Y-134.62
X222.25Y-137.16
X223.52Y-63.5
X223.52Y-66.04
X223.52Y-68.58
X223.52Y-71.12
X223.52Y-73.66
X223.52Y-76.2
X224.79Y-88.9
X224.79Y-91.44
X224.79Y-93.98
X224.79Y-96.52
X224.79Y-99.06
X224.79Y-101.6
X224.79Y-104.14
X224.79Y-106.68
X224.79Y-109.22
X224.79Y-111.76
X224.79Y-114.3
X224.79Y-116.84
X224.79Y-119.38
X224.79Y-121.92
X224.79Y-124.46
X224.79Y-127.0
X224.79Y-129.54
X224.79Y-132.08
X224.79Y-134.62
X224.79Y-137.16
T6
X122.855Y-68.58
X124.252Y-66.04
X125.649Y-68.58
X127.046Y-66.04
X128.316Y-68.58
X129.713Y-66.04
X131.11Y-68.58
X132.507Y-66.04
X133.904Y-68.58
X156.383Y-68.58
X157.78Y-66.04
X159.177Y-68.58
X160.574Y-66.04
X161.844Y-68.58
X163.241Y-66.04
X164.638Y-68.58
X166.035Y-66.04
X167.432Y-68.58
X189.911Y-68.58
X191.308Y-66.04
X192.705Y-68.58
X194.102Y-66.04
X195.372Y-68.58
X196.769Y-66.04
X198.166Y-68.58
X199.563Y-66.04
X200.96Y-68.58
T7
X82.3Y-77.0
X95.0Y-77.0
T8
X76.0Y-65.5
X76.0Y-70.5
T9
X84.42Y-71.374
X89.5Y-71.374
X94.58Y-71.374
T10
X115.743Y-66.04
X141.143Y-66.04
X149.271Y-66.04
X174.671Y-66.04
X182.799Y-66.04
X208.199Y-66.04
T6
; pad hole
G00X98.3Y-62.338
M15
G01X98.3Y-63.862
M16
G05
G00X105.162Y-67.9
M15
G01X103.638Y-67.9
M16
G05
G00X105.262Y-60.0
M15
G01X103.738Y-60.0
M16
G05
T0
M30
