%TF.GenerationSoftware,KiCad,Pcbnew,8.99.0-344-gfbc433deaa-dirty*%
%TF.CreationDate,2024-03-11T18:49:53+01:00*%
%TF.ProjectId,StickHub,53746963-6b48-4756-922e-6b696361645f,rev?*%
%TF.SameCoordinates,Original*%
%TF.FileFunction,Copper,L2,Bot*%
%TF.FilePolarity,Positive*%
%FSLAX46Y46*%
G04 Gerber Fmt 4.6, Leading zero omitted, Abs format (unit mm)*
G04 Created by KiCad (PCBNEW 8.99.0-344-gfbc433deaa-dirty) date 2024-03-11 18:49:53*
%MOMM*%
%LPD*%
G01*
G04 APERTURE LIST*
G04 Aperture macros list*
%AMRoundRect*
0 Rectangle with rounded corners*
0 $1 Rounding radius*
0 $2 $3 $4 $5 $6 $7 $8 $9 X,Y pos of 4 corners*
0 Add a 4 corners polygon primitive as box body*
4,1,4,$2,$3,$4,$5,$6,$7,$8,$9,$2,$3,0*
0 Add four circle primitives for the rounded corners*
1,1,$1+$1,$2,$3*
1,1,$1+$1,$4,$5*
1,1,$1+$1,$6,$7*
1,1,$1+$1,$8,$9*
0 Add four rect primitives between the rounded corners*
20,1,$1+$1,$2,$3,$4,$5,0*
20,1,$1+$1,$4,$5,$6,$7,0*
20,1,$1+$1,$6,$7,$8,$9,0*
20,1,$1+$1,$8,$9,$2,$3,0*%
%AMFreePoly0*
4,1,14,0.650000,0.750000,0.750000,0.750000,0.750000,-0.750000,-0.750000,-0.750000,-0.750000,0.750000,-0.650000,0.750000,-0.500000,1.049999,-0.350000,0.750000,-0.150000,0.750000,-0.000001,1.050000,0.150000,0.750000,0.350000,0.750000,0.500000,1.050000,0.650000,0.750000,0.650000,0.750000,$1*%
%AMFreePoly1*
4,1,11,0.750000,-0.750000,0.399999,-0.750000,0.250006,-1.049999,0.100002,-0.750000,-0.100002,-0.750000,-0.249994,-1.050000,-0.399998,-0.750000,-0.750000,-0.750000,-0.750000,0.750000,0.750000,0.750000,0.750000,-0.750000,0.750000,-0.750000,$1*%
G04 Aperture macros list end*
%TA.AperFunction,SMDPad,CuDef*%
%ADD10RoundRect,0.055000X0.088388X-0.399515X0.399515X-0.088388X-0.088388X0.399515X-0.399515X0.088388X0*%
%TD*%
%TA.AperFunction,SMDPad,CuDef*%
%ADD11RoundRect,0.040000X-0.035355X0.261630X-0.261630X0.035355X0.035355X-0.261630X0.261630X-0.035355X0*%
%TD*%
%TA.AperFunction,SMDPad,CuDef*%
%ADD12RoundRect,0.055000X0.345000X-0.220000X0.345000X0.220000X-0.345000X0.220000X-0.345000X-0.220000X0*%
%TD*%
%TA.AperFunction,SMDPad,CuDef*%
%ADD13RoundRect,0.050000X-0.250000X0.150000X-0.250000X-0.150000X0.250000X-0.150000X0.250000X0.150000X0*%
%TD*%
%TA.AperFunction,SMDPad,CuDef*%
%ADD14RoundRect,0.050000X0.035355X-0.247487X0.247487X-0.035355X-0.035355X0.247487X-0.247487X0.035355X0*%
%TD*%
%TA.AperFunction,SMDPad,CuDef*%
%ADD15RoundRect,0.040000X-0.261630X-0.035355X-0.035355X-0.261630X0.261630X0.035355X0.035355X0.261630X0*%
%TD*%
%TA.AperFunction,SMDPad,CuDef*%
%ADD16RoundRect,0.062500X0.141421X0.229810X-0.229810X-0.141421X-0.141421X-0.229810X0.229810X0.141421X0*%
%TD*%
%TA.AperFunction,SMDPad,CuDef*%
%ADD17RoundRect,0.049600X0.005303X0.500844X-0.500844X-0.005303X-0.005303X-0.500844X0.500844X0.005303X0*%
%TD*%
%TA.AperFunction,ConnectorPad*%
%ADD18RoundRect,0.100500X-0.649500X-0.649500X0.649500X-0.649500X0.649500X0.649500X-0.649500X0.649500X0*%
%TD*%
%TA.AperFunction,SMDPad,CuDef*%
%ADD19RoundRect,0.050000X-0.035355X0.247487X-0.247487X0.035355X0.035355X-0.247487X0.247487X-0.035355X0*%
%TD*%
%TA.AperFunction,SMDPad,CuDef*%
%ADD20RoundRect,0.050000X0.247487X0.035355X0.035355X0.247487X-0.247487X-0.035355X-0.035355X-0.247487X0*%
%TD*%
%TA.AperFunction,SMDPad,CuDef*%
%ADD21RoundRect,0.050000X0.070711X-0.282843X0.282843X-0.070711X-0.070711X0.282843X-0.282843X0.070711X0*%
%TD*%
%TA.AperFunction,SMDPad,CuDef*%
%ADD22RoundRect,0.040000X0.261630X0.035355X0.035355X0.261630X-0.261630X-0.035355X-0.035355X-0.261630X0*%
%TD*%
%TA.AperFunction,SMDPad,CuDef*%
%ADD23RoundRect,0.050000X0.150000X0.200000X-0.150000X0.200000X-0.150000X-0.200000X0.150000X-0.200000X0*%
%TD*%
%TA.AperFunction,SMDPad,CuDef*%
%ADD24RoundRect,0.055000X0.399515X0.088388X0.088388X0.399515X-0.399515X-0.088388X-0.088388X-0.399515X0*%
%TD*%
%TA.AperFunction,SMDPad,CuDef*%
%ADD25RoundRect,0.055000X-0.088388X0.399515X-0.399515X0.088388X0.088388X-0.399515X0.399515X-0.088388X0*%
%TD*%
%TA.AperFunction,SMDPad,CuDef*%
%ADD26RoundRect,0.110000X0.035355X0.657609X-0.657609X-0.035355X-0.035355X-0.657609X0.657609X0.035355X0*%
%TD*%
%TA.AperFunction,SMDPad,CuDef*%
%ADD27RoundRect,0.055000X-0.345000X0.220000X-0.345000X-0.220000X0.345000X-0.220000X0.345000X0.220000X0*%
%TD*%
%TA.AperFunction,SMDPad,CuDef*%
%ADD28RoundRect,0.075000X0.415425X0.521491X-0.521491X-0.415425X-0.415425X-0.521491X0.521491X0.415425X0*%
%TD*%
%TA.AperFunction,SMDPad,CuDef*%
%ADD29RoundRect,0.075000X-0.415425X0.521491X-0.521491X0.415425X0.415425X-0.521491X0.521491X-0.415425X0*%
%TD*%
%TA.AperFunction,ConnectorPad*%
%ADD30FreePoly0,0.000000*%
%TD*%
%TA.AperFunction,ConnectorPad*%
%ADD31FreePoly1,0.000000*%
%TD*%
%TA.AperFunction,ConnectorPad*%
%ADD32RoundRect,0.499500X0.250500X1.500500X-0.250500X1.500500X-0.250500X-1.500500X0.250500X-1.500500X0*%
%TD*%
%TA.AperFunction,SMDPad,CuDef*%
%ADD33RoundRect,0.050000X-0.247487X-0.035355X-0.035355X-0.247487X0.247487X0.035355X0.035355X0.247487X0*%
%TD*%
%TA.AperFunction,SMDPad,CuDef*%
%ADD34RoundRect,0.050000X-0.200000X0.150000X-0.200000X-0.150000X0.200000X-0.150000X0.200000X0.150000X0*%
%TD*%
%TA.AperFunction,SMDPad,CuDef*%
%ADD35RoundRect,0.065000X0.535000X-0.260000X0.535000X0.260000X-0.535000X0.260000X-0.535000X-0.260000X0*%
%TD*%
%TA.AperFunction,ViaPad*%
%ADD36C,0.500000*%
%TD*%
%TA.AperFunction,ViaPad*%
%ADD37C,0.600000*%
%TD*%
%TA.AperFunction,Conductor*%
%ADD38C,0.250000*%
%TD*%
%TA.AperFunction,Conductor*%
%ADD39C,0.400000*%
%TD*%
%TA.AperFunction,Conductor*%
%ADD40C,0.150000*%
%TD*%
%TA.AperFunction,Conductor*%
%ADD41C,0.300000*%
%TD*%
%TA.AperFunction,Conductor*%
%ADD42C,0.500000*%
%TD*%
%TA.AperFunction,Conductor*%
%ADD43C,0.600000*%
%TD*%
%TA.AperFunction,Conductor*%
%ADD44C,0.200000*%
%TD*%
%TA.AperFunction,Profile*%
%ADD45C,0.100000*%
%TD*%
G04 APERTURE END LIST*
D10*
%TO.P,C36,1*%
%TO.N,+5V*%
X150915596Y-88820190D03*
%TO.P,C36,2*%
%TO.N,GND*%
X151870190Y-87865596D03*
%TD*%
D11*
%TO.P,R7,1*%
%TO.N,Net-(D15-1)*%
X153689518Y-92024948D03*
%TO.P,R7,2*%
%TO.N,/LED1*%
X153053122Y-92661344D03*
%TD*%
D12*
%TO.P,C32,1*%
%TO.N,+5V*%
X142650000Y-105275000D03*
%TO.P,C32,2*%
%TO.N,GND*%
X142650000Y-103925000D03*
%TD*%
D13*
%TO.P,D23,1,A1*%
%TO.N,GND*%
X146250000Y-106750000D03*
%TO.P,D23,2,A2*%
%TO.N,/D+*%
X146250000Y-107650000D03*
%TD*%
D10*
%TO.P,C37,1*%
%TO.N,+5V*%
X150208489Y-88113083D03*
%TO.P,C37,2*%
%TO.N,GND*%
X151163083Y-87158489D03*
%TD*%
D14*
%TO.P,C11,1*%
%TO.N,+1V8*%
X154644112Y-94252334D03*
%TO.P,C11,2*%
%TO.N,GND*%
X155280508Y-93615938D03*
%TD*%
D15*
%TO.P,R13,1*%
%TO.N,Net-(D21-1)*%
X147573044Y-92555278D03*
%TO.P,R13,2*%
%TO.N,/LED7*%
X148209440Y-93191674D03*
%TD*%
D16*
%TO.P,U2,1,VDD*%
%TO.N,VIN*%
X154811612Y-104877728D03*
%TO.P,U2,2,ON*%
X155165165Y-105231282D03*
D17*
%TO.P,U2,3,D*%
X155637159Y-105819948D03*
%TO.P,U2,5,S*%
%TO.N,+5V*%
X154869948Y-106587159D03*
D16*
%TO.P,U2,7,CAP*%
%TO.N,Net-(U2-CAP)*%
X154281282Y-106115165D03*
%TO.P,U2,8,GND*%
%TO.N,GND*%
X153927728Y-105761612D03*
%TD*%
D18*
%TO.P,J9,1,Pin_1*%
%TO.N,GND*%
X157250000Y-100250000D03*
%TD*%
D15*
%TO.P,R4,1*%
%TO.N,+3V3*%
X147042714Y-93085608D03*
%TO.P,R4,2*%
%TO.N,Net-(U1-TEST3#)*%
X147679110Y-93722004D03*
%TD*%
D14*
%TO.P,C8,1*%
%TO.N,+3V3*%
X155431802Y-101918198D03*
%TO.P,C8,2*%
%TO.N,GND*%
X156068198Y-101281802D03*
%TD*%
D15*
%TO.P,R11,1*%
%TO.N,Net-(D19-1)*%
X148633704Y-91494618D03*
%TO.P,R11,2*%
%TO.N,/LED5*%
X149270100Y-92131014D03*
%TD*%
D19*
%TO.P,C6,1*%
%TO.N,+3V3*%
X146368198Y-102231802D03*
%TO.P,C6,2*%
%TO.N,GND*%
X145731802Y-102868198D03*
%TD*%
D20*
%TO.P,C2,1*%
%TO.N,Net-(U1-VBUS_SENSE)*%
X144497130Y-96903985D03*
%TO.P,C2,2*%
%TO.N,GND*%
X143860734Y-96267589D03*
%TD*%
D11*
%TO.P,R6,1*%
%TO.N,Net-(U1-REXT)*%
X148118198Y-103981802D03*
%TO.P,R6,2*%
%TO.N,GND*%
X147481802Y-104618198D03*
%TD*%
D19*
%TO.P,C4,1*%
%TO.N,+1V8*%
X149118198Y-104981802D03*
%TO.P,C4,2*%
%TO.N,GND*%
X148481802Y-105618198D03*
%TD*%
D13*
%TO.P,D24,1,A1*%
%TO.N,GND*%
X155900000Y-102650000D03*
%TO.P,D24,2,A2*%
%TO.N,VIN*%
X155900000Y-103550000D03*
%TD*%
D21*
%TO.P,D25,1,A1*%
%TO.N,GND*%
X148831802Y-87968198D03*
%TO.P,D25,2,A2*%
%TO.N,+5V*%
X149468198Y-87331802D03*
%TD*%
D11*
%TO.P,R10,1*%
%TO.N,Net-(D18-1)*%
X155810838Y-94146268D03*
%TO.P,R10,2*%
%TO.N,/LED4*%
X155174442Y-94782664D03*
%TD*%
D22*
%TO.P,R2,1*%
%TO.N,Net-(U1-VBUS_SENSE)*%
X145027460Y-96373654D03*
%TO.P,R2,2*%
%TO.N,GND*%
X144391064Y-95737258D03*
%TD*%
D11*
%TO.P,R8,1*%
%TO.N,Net-(D16-1)*%
X154219848Y-92555278D03*
%TO.P,R8,2*%
%TO.N,/LED2*%
X153583452Y-93191674D03*
%TD*%
D23*
%TO.P,C28,1*%
%TO.N,Net-(U2-CAP)*%
X152950000Y-107750000D03*
%TO.P,C28,2*%
%TO.N,GND*%
X152050000Y-107750000D03*
%TD*%
D14*
%TO.P,C3,1*%
%TO.N,+3V3*%
X156235102Y-95843324D03*
%TO.P,C3,2*%
%TO.N,GND*%
X156871498Y-95206928D03*
%TD*%
D19*
%TO.P,C5,1*%
%TO.N,+3V3*%
X148618198Y-104481802D03*
%TO.P,C5,2*%
%TO.N,GND*%
X147981802Y-105118198D03*
%TD*%
D24*
%TO.P,C22,1*%
%TO.N,+5V*%
X154227297Y-107477297D03*
%TO.P,C22,2*%
%TO.N,GND*%
X153272703Y-106522703D03*
%TD*%
D25*
%TO.P,C26,1*%
%TO.N,+5V*%
X151677297Y-90872703D03*
%TO.P,C26,2*%
%TO.N,GND*%
X150722703Y-91827297D03*
%TD*%
%TO.P,C25,1*%
%TO.N,+5V*%
X150970190Y-90165596D03*
%TO.P,C25,2*%
%TO.N,GND*%
X150015596Y-91120190D03*
%TD*%
D26*
%TO.P,Y1,1*%
%TO.N,/XI*%
X152093503Y-105821069D03*
%TO.P,Y1,2,GND*%
%TO.N,GND*%
X150891421Y-107023151D03*
%TO.P,Y1,3*%
%TO.N,/XO*%
X149901471Y-106033201D03*
%TO.P,Y1,4,GND*%
%TO.N,GND*%
X151103553Y-104831119D03*
%TD*%
D10*
%TO.P,C34,1*%
%TO.N,+5V*%
X152329810Y-90234404D03*
%TO.P,C34,2*%
%TO.N,GND*%
X153284404Y-89279810D03*
%TD*%
D27*
%TO.P,C29,1*%
%TO.N,+5V*%
X144150000Y-106025000D03*
%TO.P,C29,2*%
%TO.N,GND*%
X144150000Y-107375000D03*
%TD*%
D15*
%TO.P,R12,1*%
%TO.N,Net-(D20-1)*%
X148103374Y-92024948D03*
%TO.P,R12,2*%
%TO.N,/LED6*%
X148739770Y-92661344D03*
%TD*%
D13*
%TO.P,D22,1,A1*%
%TO.N,GND*%
X147100000Y-106750000D03*
%TO.P,D22,2,A2*%
%TO.N,/D-*%
X147100000Y-107650000D03*
%TD*%
D28*
%TO.P,U1,1,LED_CTL*%
%TO.N,/LC*%
X151748788Y-93862124D03*
%TO.P,U1,2,TEST#/SDA*%
%TO.N,unconnected-(U1-TEST#{slash}SDA-Pad2)*%
X152102342Y-94215678D03*
%TO.P,U1,3,LED1/SCL*%
%TO.N,/LED1*%
X152455895Y-94569231D03*
%TO.P,U1,4,LED2*%
%TO.N,/LED2*%
X152809449Y-94922785D03*
%TO.P,U1,5,LED3*%
%TO.N,/LED3*%
X153163002Y-95276338D03*
%TO.P,U1,6,VCC18*%
%TO.N,+1V8*%
X153516555Y-95629891D03*
%TO.P,U1,7,LED4*%
%TO.N,/LED4*%
X153870109Y-95983445D03*
%TO.P,U1,8,VCC5*%
%TO.N,+5V*%
X154223662Y-96336998D03*
%TO.P,U1,9,3V3_OUT*%
%TO.N,+3V3*%
X154577215Y-96690551D03*
%TO.P,U1,10,GND*%
%TO.N,GND*%
X154930769Y-97044105D03*
%TO.P,U1,11,USB4D-*%
%TO.N,/U4D-*%
X155284322Y-97397658D03*
%TO.P,U1,12,USB4D+*%
%TO.N,/U4D+*%
X155637876Y-97751212D03*
D29*
%TO.P,U1,13,USB3D-*%
%TO.N,/U3D-*%
X155637876Y-99748788D03*
%TO.P,U1,14,USB3D+*%
%TO.N,/U3D+*%
X155284322Y-100102342D03*
%TO.P,U1,15,VCC33*%
%TO.N,+3V3*%
X154930769Y-100455895D03*
%TO.P,U1,16,USB2D-*%
%TO.N,/U2D-*%
X154577215Y-100809449D03*
%TO.P,U1,17,USB2D+*%
%TO.N,/U2D+*%
X154223662Y-101163002D03*
%TO.P,U1,18,USB1D-*%
%TO.N,/U1D-*%
X153870109Y-101516555D03*
%TO.P,U1,19,USB1D+*%
%TO.N,/U1D+*%
X153516555Y-101870109D03*
%TO.P,U1,20,VCC33*%
%TO.N,+3V3*%
X153163002Y-102223662D03*
%TO.P,U1,21,VCC18*%
%TO.N,+1V8*%
X152809449Y-102577215D03*
%TO.P,U1,22,XTALIN*%
%TO.N,/XI*%
X152455895Y-102930769D03*
%TO.P,U1,23,XTALOUT*%
%TO.N,/XO*%
X152102342Y-103284322D03*
%TO.P,U1,24,GND*%
%TO.N,GND*%
X151748788Y-103637876D03*
D28*
%TO.P,U1,25,1V8_OUT*%
%TO.N,+1V8*%
X149751212Y-103637876D03*
%TO.P,U1,26,VCC33*%
%TO.N,+3V3*%
X149397658Y-103284322D03*
%TO.P,U1,27,REXT*%
%TO.N,Net-(U1-REXT)*%
X149044105Y-102930769D03*
%TO.P,U1,28,VCC18*%
%TO.N,+1V8*%
X148690551Y-102577215D03*
%TO.P,U1,29,UP_D-*%
%TO.N,/D-*%
X148336998Y-102223662D03*
%TO.P,U1,30,UP_D+*%
%TO.N,/D+*%
X147983445Y-101870109D03*
%TO.P,U1,31,VCC33*%
%TO.N,+3V3*%
X147629891Y-101516555D03*
%TO.P,U1,32,USB5D-*%
%TO.N,/U5D-*%
X147276338Y-101163002D03*
%TO.P,U1,33,USB5D+*%
%TO.N,/U5D+*%
X146922785Y-100809449D03*
%TO.P,U1,34,USB6D-*%
%TO.N,/U6D-*%
X146569231Y-100455895D03*
%TO.P,U1,35,USB6D+*%
%TO.N,/U6D+*%
X146215678Y-100102342D03*
%TO.P,U1,36,VCC33*%
%TO.N,+3V3*%
X145862124Y-99748788D03*
D29*
%TO.P,U1,37,USB7D-*%
%TO.N,/U7D-*%
X145862124Y-97751212D03*
%TO.P,U1,38,USB7D+*%
%TO.N,/U7D+*%
X146215678Y-97397658D03*
%TO.P,U1,39,GND*%
%TO.N,GND*%
X146569231Y-97044105D03*
%TO.P,U1,40,EXT_RST#*%
%TO.N,Net-(U1-EXT_RST#)*%
X146922785Y-96690551D03*
%TO.P,U1,41,VBUS_SENSE*%
%TO.N,Net-(U1-VBUS_SENSE)*%
X147276338Y-96336998D03*
%TO.P,U1,42,VCC33*%
%TO.N,+3V3*%
X147629891Y-95983445D03*
%TO.P,U1,43,TEST1#*%
%TO.N,Net-(U1-TEST1#)*%
X147983445Y-95629891D03*
%TO.P,U1,44,TEST#2/DNC*%
%TO.N,unconnected-(U1-TEST#2{slash}DNC-Pad44)*%
X148336998Y-95276338D03*
%TO.P,U1,45,TEST3#*%
%TO.N,Net-(U1-TEST3#)*%
X148690551Y-94922785D03*
%TO.P,U1,46,LED7*%
%TO.N,/LED7*%
X149044105Y-94569231D03*
%TO.P,U1,47,LED6*%
%TO.N,/LED6*%
X149397658Y-94215678D03*
%TO.P,U1,48,LED5*%
%TO.N,/LED5*%
X149751212Y-93862124D03*
%TD*%
D30*
%TO.P,JP1,1,1*%
%TO.N,Net-(J1-Pin_1)*%
X157300000Y-106875000D03*
D31*
%TO.P,JP1,2,2*%
%TO.N,VIN*%
X157300000Y-104925000D03*
%TD*%
D15*
%TO.P,R1,1*%
%TO.N,+5V*%
X145451724Y-94676598D03*
%TO.P,R1,2*%
%TO.N,Net-(U1-VBUS_SENSE)*%
X146088120Y-95312994D03*
%TD*%
D11*
%TO.P,R9,1*%
%TO.N,Net-(D17-1)*%
X154750178Y-93085608D03*
%TO.P,R9,2*%
%TO.N,/LED3*%
X154113782Y-93722004D03*
%TD*%
D25*
%TO.P,C24,1*%
%TO.N,+5V*%
X150263082Y-89458489D03*
%TO.P,C24,2*%
%TO.N,GND*%
X149308488Y-90413083D03*
%TD*%
D10*
%TO.P,C35,1*%
%TO.N,+5V*%
X151622703Y-89527297D03*
%TO.P,C35,2*%
%TO.N,GND*%
X152577297Y-88572703D03*
%TD*%
D32*
%TO.P,C38,1,+*%
%TO.N,+5V*%
X153750000Y-82250000D03*
%TO.P,C38,2,-*%
%TO.N,GND*%
X156250000Y-82250000D03*
%TD*%
D19*
%TO.P,C7,1*%
%TO.N,+3V3*%
X144881014Y-100729899D03*
%TO.P,C7,2*%
%TO.N,GND*%
X144244618Y-101366295D03*
%TD*%
D14*
%TO.P,C1,1*%
%TO.N,+5V*%
X155704772Y-95312994D03*
%TO.P,C1,2*%
%TO.N,GND*%
X156341168Y-94676598D03*
%TD*%
D20*
%TO.P,C9,1*%
%TO.N,+3V3*%
X146618450Y-94782664D03*
%TO.P,C9,2*%
%TO.N,GND*%
X145982054Y-94146268D03*
%TD*%
D19*
%TO.P,C13,1*%
%TO.N,+1V8*%
X147618198Y-103481802D03*
%TO.P,C13,2*%
%TO.N,GND*%
X146981802Y-104118198D03*
%TD*%
D33*
%TO.P,C10,1*%
%TO.N,+3V3*%
X154320888Y-103027996D03*
%TO.P,C10,2*%
%TO.N,GND*%
X154957284Y-103664392D03*
%TD*%
D27*
%TO.P,C31,1*%
%TO.N,+5V*%
X143150000Y-106025000D03*
%TO.P,C31,2*%
%TO.N,GND*%
X143150000Y-107375000D03*
%TD*%
D34*
%TO.P,C12,1*%
%TO.N,+1V8*%
X153550000Y-103900000D03*
%TO.P,C12,2*%
%TO.N,GND*%
X153550000Y-104800000D03*
%TD*%
D15*
%TO.P,R5,1*%
%TO.N,+3V3*%
X146512384Y-93615938D03*
%TO.P,R5,2*%
%TO.N,Net-(U1-TEST1#)*%
X147148780Y-94252334D03*
%TD*%
D12*
%TO.P,C33,1*%
%TO.N,+5V*%
X143650000Y-105275000D03*
%TO.P,C33,2*%
%TO.N,GND*%
X143650000Y-103925000D03*
%TD*%
D27*
%TO.P,C30,1*%
%TO.N,+5V*%
X145150000Y-106025000D03*
%TO.P,C30,2*%
%TO.N,GND*%
X145150000Y-107375000D03*
%TD*%
D15*
%TO.P,R3,1*%
%TO.N,+3V3*%
X144921394Y-95206928D03*
%TO.P,R3,2*%
%TO.N,Net-(U1-EXT_RST#)*%
X145557790Y-95843324D03*
%TD*%
D25*
%TO.P,C27,1*%
%TO.N,+5V*%
X152384403Y-91579810D03*
%TO.P,C27,2*%
%TO.N,GND*%
X151429809Y-92534404D03*
%TD*%
%TO.P,C23,1*%
%TO.N,+5V*%
X149555976Y-88751383D03*
%TO.P,C23,2*%
%TO.N,GND*%
X148601382Y-89705977D03*
%TD*%
D35*
%TO.P,C21,1*%
%TO.N,VIN*%
X157250000Y-103325000D03*
%TO.P,C21,2*%
%TO.N,GND*%
X157250000Y-101675000D03*
%TD*%
D36*
%TO.N,GND*%
X157250000Y-102450000D03*
X151500000Y-81500000D03*
X142780000Y-93250000D03*
X150124571Y-99757687D03*
X146180031Y-93072237D03*
X157300000Y-88250000D03*
X142290000Y-100250000D03*
X142750000Y-81000000D03*
X150030000Y-92960000D03*
X148300000Y-99930000D03*
X157250000Y-98850000D03*
X148400000Y-107150000D03*
X147230000Y-88030000D03*
X157280000Y-81500000D03*
X149819271Y-107261475D03*
X157290000Y-86250000D03*
X153780000Y-86680000D03*
X143310000Y-95910000D03*
X147030000Y-106040000D03*
X147280000Y-98900000D03*
X157280000Y-93250000D03*
X142290000Y-102250000D03*
X151720000Y-95570000D03*
X155414117Y-92535883D03*
X151034229Y-103573736D03*
X146700000Y-89050000D03*
X148500000Y-87250000D03*
X153300000Y-105500000D03*
X154331365Y-98163517D03*
X150060000Y-95580000D03*
X143810000Y-85220000D03*
X157750000Y-95250000D03*
X153750000Y-85500000D03*
X143745010Y-99546626D03*
X153600000Y-90150000D03*
X151650000Y-100150000D03*
X147400000Y-80670000D03*
X144120000Y-89110000D03*
X144000000Y-102950000D03*
X145460000Y-108030000D03*
X144380000Y-97710000D03*
X154550000Y-104100000D03*
X149911324Y-86248711D03*
X146938761Y-92250000D03*
X155595010Y-88970000D03*
X145320000Y-103210000D03*
X145510000Y-90820000D03*
X151600000Y-88500000D03*
X149600000Y-84610000D03*
%TO.N,+5V*%
X149950000Y-108050000D03*
X153246511Y-96950092D03*
D37*
X153080000Y-91450000D03*
X150100000Y-87050000D03*
D36*
X144950000Y-92400000D03*
D37*
X145920000Y-106040000D03*
D36*
X148300000Y-108050000D03*
D37*
X153710000Y-107990000D03*
X153150000Y-84600000D03*
D36*
%TO.N,+1V8*%
X151590000Y-101084990D03*
X151600000Y-102160000D03*
%TO.N,Net-(D15-1)*%
X148440000Y-85970000D03*
%TO.N,Net-(D16-1)*%
X148630000Y-85090000D03*
%TO.N,Net-(D17-1)*%
X148630000Y-83740000D03*
%TO.N,Net-(D18-1)*%
X148600000Y-82290000D03*
%TO.N,Net-(D19-1)*%
X143750000Y-86250000D03*
%TO.N,Net-(D20-1)*%
X143700000Y-84370000D03*
%TO.N,Net-(D21-1)*%
X143730000Y-83000000D03*
D37*
%TO.N,Net-(J1-Pin_1)*%
X154500000Y-108500000D03*
D36*
%TO.N,/U1D-*%
X152850000Y-100550000D03*
%TO.N,/U1D+*%
X152345136Y-101002923D03*
%TO.N,/U2D-*%
X152880018Y-98230018D03*
%TO.N,/U2D+*%
X152858771Y-97580354D03*
%TO.N,/U3D-*%
X154629380Y-98839419D03*
%TO.N,/U3D+*%
X154197253Y-99324992D03*
%TO.N,/U4D-*%
X155750000Y-98500000D03*
%TO.N,/U4D+*%
X156250000Y-98000000D03*
%TO.N,/U5D-*%
X146594655Y-104644598D03*
%TO.N,/U5D+*%
X146975560Y-105171312D03*
%TO.N,/U6D-*%
X143660000Y-98150000D03*
%TO.N,/U6D+*%
X143710000Y-98840000D03*
%TO.N,/U7D-*%
X145070000Y-97740000D03*
%TO.N,/U7D+*%
X145520000Y-98240000D03*
%TO.N,/D-*%
X147150000Y-108250000D03*
X146650883Y-103250883D03*
%TO.N,/D+*%
X146947546Y-102650703D03*
X146489117Y-108260883D03*
%TO.N,/LC*%
X147750001Y-87500001D03*
%TD*%
D38*
%TO.N,GND*%
X147230000Y-88520000D02*
X146700000Y-89050000D01*
X157250000Y-102450000D02*
X157250000Y-101675000D01*
D39*
X142780000Y-95380000D02*
X142780000Y-93250000D01*
X154957284Y-103664392D02*
X154957284Y-103664394D01*
X144244618Y-101366295D02*
X143745010Y-100866687D01*
X157300000Y-93230000D02*
X157280000Y-93250000D01*
D38*
X148472313Y-99757687D02*
X148300000Y-99930000D01*
X153927728Y-105761612D02*
X153550000Y-105383884D01*
X153927728Y-105761612D02*
X153927728Y-105867678D01*
D39*
X151103553Y-103643060D02*
X151034229Y-103573736D01*
X151103553Y-104831119D02*
X151103553Y-103643060D01*
D40*
X155595010Y-88495010D02*
X153780000Y-86680000D01*
D38*
X147280000Y-97754874D02*
X147280000Y-98900000D01*
X154957284Y-103692716D02*
X154550000Y-104100000D01*
D41*
X157250000Y-101675000D02*
X157250000Y-100250000D01*
D39*
X147780152Y-104901829D02*
X147780150Y-104901829D01*
X142290000Y-102250000D02*
X142290000Y-100250000D01*
X157290000Y-86250000D02*
X157280000Y-86240000D01*
D41*
X155900000Y-102650000D02*
X156068198Y-102481802D01*
D38*
X145837097Y-94001311D02*
X145837097Y-93415171D01*
D39*
X143310000Y-95910000D02*
X142780000Y-95380000D01*
D38*
X152050000Y-107750000D02*
X152050000Y-107745406D01*
D39*
X143745010Y-100866687D02*
X143745010Y-99546626D01*
D38*
X150891421Y-107023151D02*
X151433151Y-107023151D01*
X143667589Y-96267589D02*
X143310000Y-95910000D01*
X154957284Y-103664392D02*
X154957284Y-103692716D01*
X150463622Y-107450950D02*
X148440950Y-107450950D01*
D42*
X153272703Y-105527297D02*
X153300000Y-105500000D01*
D39*
X148510034Y-87250000D02*
X148500000Y-87250000D01*
D41*
X156068198Y-102481802D02*
X156068198Y-101281802D01*
D40*
X142750000Y-81000000D02*
X147070000Y-81000000D01*
D39*
X157300000Y-88250000D02*
X157300000Y-93230000D01*
D40*
X155420000Y-88980000D02*
X155430000Y-88970000D01*
D38*
X153927728Y-105867678D02*
X153272703Y-106522703D01*
D42*
X153272703Y-106522703D02*
X153272703Y-105527297D01*
D38*
X150124571Y-99757687D02*
X148472313Y-99757687D01*
X151323151Y-107023151D02*
X152050000Y-107750000D01*
X150891421Y-107023151D02*
X150463622Y-107450950D01*
D39*
X147637841Y-105432159D02*
X147030000Y-106040000D01*
X148310482Y-105432159D02*
X147637841Y-105432159D01*
D38*
X152050000Y-107745406D02*
X153272703Y-106522703D01*
X143860734Y-96267589D02*
X143667589Y-96267589D01*
D39*
X151118270Y-107250000D02*
X150891421Y-107023151D01*
X150653097Y-107261475D02*
X149819271Y-107261475D01*
X149911324Y-86248711D02*
X149501289Y-86248711D01*
D38*
X147230000Y-88030000D02*
X147230000Y-88520000D01*
X146569231Y-97044105D02*
X147280000Y-97754874D01*
D39*
X150759999Y-93689999D02*
X150759999Y-94880001D01*
D40*
X147070000Y-81000000D02*
X147400000Y-80670000D01*
D41*
X156068198Y-101281802D02*
X156218198Y-101281802D01*
D38*
X145837097Y-93415171D02*
X146180031Y-93072237D01*
D40*
X151748788Y-103637876D02*
X151748788Y-104185884D01*
D38*
X153550000Y-105383884D02*
X153550000Y-104800000D01*
X154930769Y-97044105D02*
X155549053Y-96425821D01*
D39*
X156914570Y-95250000D02*
X157750000Y-95250000D01*
D40*
X150904090Y-107010482D02*
X150904090Y-105030582D01*
D42*
X157250000Y-100250000D02*
X157250000Y-98850000D01*
D39*
X156871498Y-95206928D02*
X156914570Y-95250000D01*
D38*
X144391064Y-95737258D02*
X144391064Y-95737259D01*
D40*
X151748788Y-104185884D02*
X151103553Y-104831119D01*
D39*
X150891421Y-107023151D02*
X150653097Y-107261475D01*
D38*
X148440950Y-107450950D02*
X147030000Y-106040000D01*
D40*
X155430000Y-88970000D02*
X155595010Y-88970000D01*
X150904090Y-105030582D02*
X151103553Y-104831119D01*
D39*
X145731802Y-102868198D02*
X145661802Y-102868198D01*
D40*
X155595010Y-88970000D02*
X155595010Y-88495010D01*
D38*
X145982054Y-94146268D02*
X145837097Y-94001311D01*
D39*
X150124571Y-99757687D02*
X151257687Y-99757687D01*
D38*
X156871498Y-95956476D02*
X156871498Y-95206928D01*
X156402153Y-96425821D02*
X156871498Y-95956476D01*
D39*
X145661802Y-102868198D02*
X145320000Y-103210000D01*
D38*
X156871498Y-95206928D02*
X156341168Y-94676598D01*
D40*
X154930769Y-97044105D02*
X154331365Y-97643509D01*
D38*
X155549053Y-96425821D02*
X156402153Y-96425821D01*
D40*
X154331365Y-97643509D02*
X154331365Y-98163517D01*
D39*
X155414117Y-93482329D02*
X155414117Y-92535883D01*
X157280000Y-86240000D02*
X157280000Y-81500000D01*
X149501289Y-86248711D02*
X148500000Y-87250000D01*
D38*
X157650000Y-95985430D02*
X156871498Y-95206928D01*
D39*
X150759999Y-94880001D02*
X150060000Y-95580000D01*
D40*
X150891421Y-107023151D02*
X150904090Y-107010482D01*
D39*
X150030000Y-92960000D02*
X150759999Y-93689999D01*
X155280508Y-93615938D02*
X155414117Y-93482329D01*
X151257687Y-99757687D02*
X151650000Y-100150000D01*
D38*
X144391064Y-95737259D02*
X143860734Y-96267589D01*
D40*
X155280508Y-93615938D02*
X155135551Y-93760895D01*
D43*
%TO.N,+5V*%
X153080000Y-91450000D02*
X152514213Y-91450000D01*
D41*
X149818198Y-87331802D02*
X150100000Y-87050000D01*
D42*
X149950000Y-108050000D02*
X148300000Y-108050000D01*
D44*
X144950000Y-93760660D02*
X144950000Y-92400000D01*
D41*
X153727725Y-96832935D02*
X154223662Y-96336998D01*
D43*
X144150000Y-106025000D02*
X143150000Y-106025000D01*
D41*
X155704772Y-95312994D02*
X155623462Y-95394304D01*
D43*
X143650000Y-105275000D02*
X143650000Y-105525000D01*
X152384403Y-91579810D02*
X149555976Y-88751383D01*
X145150000Y-106025000D02*
X144150000Y-106025000D01*
D41*
X155623462Y-95394304D02*
X155373463Y-95394304D01*
D43*
X143650000Y-105525000D02*
X144150000Y-106025000D01*
X154227297Y-107477297D02*
X154869948Y-106834646D01*
X153750000Y-82250000D02*
X153750000Y-84000000D01*
X152514213Y-91450000D02*
X152384403Y-91579810D01*
X150208489Y-88113083D02*
X152329810Y-90234404D01*
X154869948Y-106834646D02*
X154869948Y-106587159D01*
X145920000Y-106040000D02*
X145165000Y-106040000D01*
X153710000Y-107990000D02*
X153714594Y-107990000D01*
X142650000Y-105275000D02*
X142650000Y-105525000D01*
X153750000Y-84000000D02*
X153150000Y-84600000D01*
D41*
X155019910Y-95540750D02*
X154223662Y-96336998D01*
D43*
X145165000Y-106040000D02*
X145150000Y-106025000D01*
X150085786Y-87064214D02*
X150100000Y-87050000D01*
X149555976Y-88751383D02*
X149570189Y-88751383D01*
D41*
X149468198Y-87331802D02*
X149818198Y-87331802D01*
D43*
X149570189Y-88751383D02*
X150208489Y-88113083D01*
X153714594Y-107990000D02*
X154227297Y-107477297D01*
D41*
X153246511Y-96950092D02*
X153444883Y-96950092D01*
D44*
X145451724Y-94676598D02*
X145242893Y-94467767D01*
D43*
X142650000Y-105525000D02*
X143150000Y-106025000D01*
X150100000Y-88004594D02*
X150208489Y-88113083D01*
X150100000Y-87050000D02*
X150100000Y-88004594D01*
D44*
X144950000Y-93760660D02*
G75*
G03*
X145242873Y-94467787I1000000J-40D01*
G01*
D41*
X153727725Y-96832935D02*
G75*
G02*
X153444883Y-96950082I-282825J282835D01*
G01*
X155373463Y-95394304D02*
G75*
G03*
X155019929Y-95540769I37J-499996D01*
G01*
D40*
%TO.N,Net-(U1-VBUS_SENSE)*%
X144497130Y-96903984D02*
X145027460Y-96373654D01*
X144882503Y-96014034D02*
X144882503Y-96125144D01*
X144955726Y-96301920D02*
X145027460Y-96373654D01*
X146088120Y-95312994D02*
X146016387Y-95241261D01*
X147276338Y-96336998D02*
X147112124Y-96336998D01*
X145551724Y-95241260D02*
X144955727Y-95837257D01*
X145839610Y-95168037D02*
X145728500Y-95168037D01*
X147112124Y-96336998D02*
X146088120Y-95312994D01*
X144497130Y-96903985D02*
X144497130Y-96903984D01*
X146016387Y-95241261D02*
G75*
G03*
X145839610Y-95168019I-176787J-176739D01*
G01*
X145551724Y-95241260D02*
G75*
G02*
X145728500Y-95168026I176776J-176740D01*
G01*
X144882503Y-96125144D02*
G75*
G03*
X144955748Y-96301898I249997J44D01*
G01*
X144882503Y-96014034D02*
G75*
G02*
X144955710Y-95837240I249997J34D01*
G01*
D38*
%TO.N,+3V3*%
X148763155Y-104043089D02*
X148763155Y-104212581D01*
X144424998Y-92374999D02*
X144424998Y-94296318D01*
X148157839Y-98567839D02*
X148157839Y-98599629D01*
X146606074Y-94770288D02*
X146618450Y-94782664D01*
X146618450Y-94972004D02*
X146618450Y-94782664D01*
D41*
X153822893Y-97444873D02*
X154577215Y-96690551D01*
X154320888Y-103027996D02*
X154322004Y-103027996D01*
D38*
X152135126Y-101610000D02*
X151479794Y-101610000D01*
X147411682Y-99760000D02*
X147312312Y-99760000D01*
X148157839Y-100988607D02*
X148157839Y-100750502D01*
X146052690Y-92167892D02*
X146970406Y-93085608D01*
D41*
X154930769Y-100455895D02*
X154377822Y-99902948D01*
D38*
X146613407Y-94108867D02*
X146606074Y-94116200D01*
X146512384Y-93615938D02*
X147042714Y-93085608D01*
D41*
X153776502Y-99756502D02*
X153676447Y-99656447D01*
D38*
X153163002Y-102223662D02*
X152842233Y-101902893D01*
X148851023Y-103830957D02*
X149925606Y-102756374D01*
X144717891Y-95003425D02*
X144921394Y-95206928D01*
X147629891Y-95983445D02*
X146618450Y-94972004D01*
X148675287Y-104424713D02*
X148618198Y-104481802D01*
X145862124Y-99748789D02*
X144881014Y-100729899D01*
X154930769Y-100455895D02*
X155495702Y-101020828D01*
X154091600Y-103027996D02*
X154320888Y-103027996D01*
X146562140Y-94222266D02*
X146562140Y-94664222D01*
X149432680Y-103284322D02*
X149397658Y-103284322D01*
X150843398Y-101873604D02*
X149432680Y-103284322D01*
X146512384Y-93615938D02*
X146613407Y-93716961D01*
X146773153Y-99220841D02*
X148055327Y-100503015D01*
D41*
X154322004Y-103027996D02*
X155431802Y-101918198D01*
D38*
X147629891Y-101516556D02*
X148157839Y-100988607D01*
D41*
X147629891Y-101516555D02*
X147059601Y-102086845D01*
D38*
X149823094Y-102270782D02*
X148643433Y-101091121D01*
X153163002Y-102223662D02*
X153879468Y-102940128D01*
X155495702Y-101020828D02*
X155495702Y-101854298D01*
X145345583Y-91874999D02*
X144924998Y-91874999D01*
X146657341Y-93823027D02*
X146657341Y-94002801D01*
D41*
X154377822Y-99902948D02*
X154130055Y-99902948D01*
D38*
X145862124Y-99748788D02*
X145862124Y-99748789D01*
D44*
X145862124Y-99748788D02*
X146390071Y-99220841D01*
D38*
X155495702Y-101854298D02*
X155431802Y-101918198D01*
X147864946Y-99306736D02*
X147411682Y-99760000D01*
D41*
X155554382Y-95920491D02*
X156157935Y-95920491D01*
D38*
X147629891Y-95983445D02*
X148157839Y-96511393D01*
X148157839Y-96511393D02*
X148157839Y-98567839D01*
X146970406Y-93085608D02*
X147042714Y-93085608D01*
D41*
X153530000Y-99302893D02*
X153530000Y-98151980D01*
D38*
X148395945Y-100988608D02*
X148157838Y-100988608D01*
X149925606Y-102756374D02*
X149925606Y-102518269D01*
D41*
X154577215Y-96690551D02*
X155200828Y-96066938D01*
X147059601Y-102086845D02*
X146513155Y-102086845D01*
X156157935Y-95920491D02*
X156235102Y-95843324D01*
D44*
X146390071Y-99220841D02*
X146773153Y-99220841D01*
D41*
X146513155Y-102086845D02*
X146368198Y-102231802D01*
D38*
X146606074Y-94116200D02*
G75*
G03*
X146562104Y-94222266I106026J-106100D01*
G01*
X152135126Y-101610000D02*
G75*
G02*
X152842220Y-101902906I-26J-1000000D01*
G01*
X146613407Y-94108867D02*
G75*
G03*
X146657330Y-94002801I-106107J106067D01*
G01*
D41*
X153530000Y-99302893D02*
G75*
G03*
X153676444Y-99656450I500000J-7D01*
G01*
D38*
X144424998Y-94296318D02*
G75*
G03*
X144717900Y-95003416I1000002J18D01*
G01*
X148763155Y-104212581D02*
G75*
G02*
X148675287Y-104424713I-299955J-19D01*
G01*
X148157839Y-100750502D02*
G75*
G03*
X148055336Y-100503006I-350039J2D01*
G01*
X147864946Y-99306736D02*
G75*
G03*
X148157848Y-98599629I-707146J707136D01*
G01*
X145345583Y-91874999D02*
G75*
G02*
X146052698Y-92167884I17J-1000001D01*
G01*
X151479794Y-101610000D02*
G75*
G03*
X150843401Y-101873607I6J-900000D01*
G01*
X149823094Y-102270782D02*
G75*
G02*
X149925626Y-102518269I-247494J-247518D01*
G01*
X146606074Y-94770288D02*
G75*
G02*
X146562113Y-94664222I106026J106088D01*
G01*
X148763155Y-104043089D02*
G75*
G02*
X148851019Y-103830953I300045J-11D01*
G01*
D41*
X154130055Y-99902948D02*
G75*
G02*
X153776515Y-99756489I45J500048D01*
G01*
D38*
X148643433Y-101091121D02*
G75*
G03*
X148395945Y-100988574I-247533J-247479D01*
G01*
X144424998Y-92374999D02*
G75*
G02*
X144924998Y-91874998I500002J-1D01*
G01*
D41*
X153530000Y-98151980D02*
G75*
G02*
X153822903Y-97444883I1000000J-20D01*
G01*
D38*
X146613407Y-93716961D02*
G75*
G02*
X146657310Y-93823027I-106107J-106039D01*
G01*
X154091600Y-103027996D02*
G75*
G02*
X153879469Y-102940127I0J299996D01*
G01*
D41*
X155554382Y-95920491D02*
G75*
G03*
X155200835Y-96066945I18J-500009D01*
G01*
D38*
%TO.N,+1V8*%
X151590000Y-101084990D02*
X151590000Y-100970000D01*
X152182522Y-102049268D02*
X152281502Y-102049268D01*
X152055007Y-98530156D02*
X152055007Y-97712759D01*
X147785964Y-103481802D02*
X147618198Y-103481802D01*
D41*
X152809449Y-102577215D02*
X153330330Y-103098096D01*
D38*
X151590000Y-100970000D02*
X152009252Y-100550748D01*
D40*
X148655025Y-105126759D02*
X147473241Y-103944975D01*
D38*
X153516555Y-95629891D02*
X154644112Y-94502334D01*
X152184988Y-100126484D02*
X152184988Y-98825822D01*
X151251952Y-102137136D02*
X149751212Y-103637876D01*
D41*
X153550000Y-103628426D02*
X153550000Y-103900000D01*
D38*
X152126409Y-98684401D02*
X152113586Y-98671578D01*
X149200695Y-104899305D02*
X149118198Y-104981802D01*
X152182522Y-102049268D02*
X151464084Y-102049268D01*
X149200695Y-104312657D02*
X149200695Y-104899305D01*
D40*
X149118198Y-104981802D02*
X148973241Y-105126759D01*
X147473241Y-103626759D02*
X147618198Y-103481802D01*
D38*
X154644112Y-94502334D02*
X154644112Y-94252334D01*
X151600000Y-102148536D02*
X151600000Y-102160000D01*
X152281502Y-102049268D02*
X152809449Y-102577215D01*
X148690551Y-102577215D02*
X147785964Y-103481802D01*
X152494347Y-96652099D02*
X153516555Y-95629891D01*
D40*
X148973241Y-105126759D02*
X148655025Y-105126759D01*
D38*
X149751212Y-103637876D02*
X149288563Y-104100525D01*
D40*
X147473241Y-103944975D02*
X147473241Y-103626759D01*
D41*
X153330330Y-103098096D02*
G75*
G02*
X153549981Y-103628426I-530330J-530304D01*
G01*
D38*
X152055007Y-97712759D02*
G75*
G02*
X152494369Y-96652121I1499993J-41D01*
G01*
X152009252Y-100550748D02*
G75*
G03*
X152184980Y-100126484I-424252J424248D01*
G01*
X151251952Y-102137136D02*
G75*
G02*
X151464084Y-102049266I212148J-212164D01*
G01*
X152055007Y-98530156D02*
G75*
G03*
X152113566Y-98671598I199993J-44D01*
G01*
X152184988Y-98825822D02*
G75*
G03*
X152126418Y-98684392I-199988J22D01*
G01*
X149200695Y-104312657D02*
G75*
G02*
X149288583Y-104100545I300005J-43D01*
G01*
%TO.N,Net-(U2-CAP)*%
X154034494Y-106361953D02*
X154034494Y-106541242D01*
X153946626Y-106753374D02*
X152950000Y-107750000D01*
X154281282Y-106115165D02*
X154034494Y-106361953D01*
X154034494Y-106541242D02*
G75*
G02*
X153946604Y-106753352I-299994J42D01*
G01*
D40*
%TO.N,Net-(D15-1)*%
X150057230Y-85520000D02*
X149097107Y-85520000D01*
X153689518Y-92024948D02*
X153954264Y-91760202D01*
X154130000Y-91335938D02*
X154130000Y-89592770D01*
X148743554Y-85666446D02*
X148440000Y-85970000D01*
X153837107Y-88885663D02*
X150764337Y-85812893D01*
X150764337Y-85812893D02*
G75*
G03*
X150057230Y-85519978I-707137J-707107D01*
G01*
X149097107Y-85520000D02*
G75*
G03*
X148743551Y-85666443I-7J-500000D01*
G01*
X154130000Y-91335938D02*
G75*
G02*
X153954245Y-91760183I-600000J38D01*
G01*
X154130000Y-89592770D02*
G75*
G03*
X153837092Y-88885678I-1000000J-30D01*
G01*
%TO.N,Net-(D16-1)*%
X154137118Y-88761395D02*
X150953613Y-85577890D01*
X148760000Y-85220000D02*
X148630000Y-85090000D01*
X154219848Y-92555278D02*
X154371432Y-92403694D01*
X154430011Y-92262272D02*
X154430011Y-89468502D01*
X150089590Y-85220000D02*
X148760000Y-85220000D01*
X150953613Y-85577890D02*
G75*
G03*
X150089590Y-85220003I-864013J-864010D01*
G01*
X154430011Y-89468502D02*
G75*
G03*
X154137121Y-88761392I-1000011J2D01*
G01*
X154371432Y-92403694D02*
G75*
G03*
X154429988Y-92262272I-141432J141394D01*
G01*
%TO.N,Net-(D17-1)*%
X149125786Y-83740000D02*
X148630000Y-83740000D01*
X154750178Y-93085608D02*
X154756488Y-93079298D01*
X154463595Y-88663595D02*
X149832893Y-84032893D01*
X154756488Y-93079298D02*
X154756488Y-89370702D01*
X149832893Y-84032893D02*
G75*
G03*
X149125786Y-83740010I-707093J-707107D01*
G01*
X154756488Y-89370702D02*
G75*
G03*
X154463593Y-88663597I-999988J2D01*
G01*
%TO.N,Net-(D18-1)*%
X155810838Y-94146268D02*
X155955795Y-94001311D01*
X155780059Y-92230059D02*
X155412893Y-91862893D01*
X155955795Y-94001311D02*
X155955795Y-92654323D01*
X148610000Y-82290000D02*
X148600000Y-82290000D01*
X155120000Y-91155786D02*
X155120000Y-89234924D01*
X154812462Y-88492462D02*
X148610000Y-82290000D01*
X155412893Y-91862893D02*
G75*
G02*
X155120010Y-91155786I707107J707093D01*
G01*
X155120000Y-89234924D02*
G75*
G03*
X154812474Y-88492450I-1050000J24D01*
G01*
X155780059Y-92230059D02*
G75*
G02*
X155955780Y-92654323I-424259J-424241D01*
G01*
%TO.N,Net-(D19-1)*%
X148633704Y-91494618D02*
X148464618Y-91494618D01*
X143750000Y-86572893D02*
X143750000Y-86250000D01*
X148464618Y-91494618D02*
X143896447Y-86926447D01*
X143750000Y-86572893D02*
G75*
G03*
X143896444Y-86926450I500000J-7D01*
G01*
%TO.N,Net-(D20-1)*%
X148103374Y-92024948D02*
X148103374Y-91703359D01*
X148015506Y-91491227D02*
X143552904Y-87028625D01*
X143260011Y-86321518D02*
X143260011Y-85017096D01*
X143406457Y-84663543D02*
X143700000Y-84370000D01*
X148103374Y-91703359D02*
G75*
G03*
X148015480Y-91491253I-299974J-41D01*
G01*
X143552904Y-87028625D02*
G75*
G02*
X143259995Y-86321518I707096J707125D01*
G01*
X143260011Y-85017096D02*
G75*
G02*
X143406461Y-84663547I499989J-4D01*
G01*
%TO.N,Net-(D21-1)*%
X147573044Y-92555278D02*
X147573044Y-91887258D01*
X143730000Y-83422893D02*
X143730000Y-83000000D01*
X142960000Y-86501149D02*
X142960000Y-84814214D01*
X147280151Y-91180151D02*
X143213746Y-87113746D01*
X143252893Y-84107107D02*
X143583553Y-83776447D01*
X142960000Y-84814214D02*
G75*
G02*
X143252886Y-84107100I1000000J14D01*
G01*
X147573044Y-91887258D02*
G75*
G03*
X147280139Y-91180163I-1000044J-42D01*
G01*
X142960000Y-86501149D02*
G75*
G03*
X143213729Y-87113763I866300J-51D01*
G01*
X143730000Y-83422893D02*
G75*
G02*
X143583556Y-83776450I-500000J-7D01*
G01*
D43*
%TO.N,Net-(J1-Pin_1)*%
X155905330Y-107094670D02*
X154500000Y-108500000D01*
X157300000Y-106875000D02*
X156435660Y-106875000D01*
D39*
X157250000Y-106900000D02*
X156100000Y-106900000D01*
X156100000Y-106900000D02*
X154500000Y-108500000D01*
D43*
X155905330Y-107094670D02*
G75*
G02*
X156435660Y-106874972I530370J-530330D01*
G01*
D40*
%TO.N,Net-(U1-EXT_RST#)*%
X145702747Y-95988281D02*
X145557790Y-95843324D01*
X146096251Y-95988281D02*
X145702747Y-95988281D01*
X146922785Y-96690551D02*
X146308383Y-96076149D01*
X146096251Y-95988281D02*
G75*
G02*
X146308411Y-96076121I49J-300019D01*
G01*
%TO.N,Net-(U1-TEST3#)*%
X147679110Y-93911344D02*
X147679110Y-93722004D01*
X148690551Y-94922785D02*
X147679110Y-93911344D01*
%TO.N,Net-(U1-TEST1#)*%
X147983445Y-95629891D02*
X147381605Y-95028051D01*
X147293737Y-94397291D02*
X147148780Y-94252334D01*
X147293737Y-94815919D02*
X147293737Y-94397291D01*
X147381605Y-95028051D02*
G75*
G02*
X147293713Y-94815919I212095J212151D01*
G01*
D38*
%TO.N,Net-(U1-REXT)*%
X148118198Y-103856676D02*
X148118198Y-103981802D01*
X149044105Y-102930769D02*
X148118198Y-103856676D01*
D40*
%TO.N,/U1D-*%
X153816555Y-101516555D02*
X152850000Y-100550000D01*
X153870109Y-101516555D02*
X153816555Y-101516555D01*
%TO.N,/U1D+*%
X152392213Y-101050000D02*
X152345136Y-101002923D01*
X152572182Y-101050000D02*
X152392213Y-101050000D01*
X153516555Y-101870109D02*
X152784314Y-101137868D01*
X152572182Y-101050000D02*
G75*
G02*
X152784323Y-101137859I18J-300000D01*
G01*
%TO.N,/U2D-*%
X153588083Y-100160802D02*
X153319358Y-99892077D01*
X154577215Y-100809449D02*
X154045725Y-100277959D01*
X154045725Y-100277959D02*
X153870925Y-100277959D01*
X152880018Y-98831417D02*
X152880018Y-98230018D01*
X153319358Y-99892077D02*
G75*
G02*
X152880001Y-98831417I1060642J1060677D01*
G01*
X153588083Y-100160802D02*
G75*
G03*
X153870925Y-100277953I282817J282802D01*
G01*
%TO.N,/U2D+*%
X152551463Y-97855571D02*
X152826680Y-97580354D01*
X152534998Y-98786412D02*
X152534998Y-98670843D01*
X154166004Y-101163002D02*
X153062206Y-100059204D01*
X152476420Y-98529422D02*
X152463596Y-98516598D01*
X152405017Y-98375176D02*
X152405017Y-98209124D01*
X154223662Y-101163002D02*
X154166004Y-101163002D01*
X152826680Y-97580354D02*
X152858771Y-97580354D01*
X152551463Y-97855571D02*
G75*
G03*
X152405029Y-98209124I353537J-353529D01*
G01*
X152534998Y-98670843D02*
G75*
G03*
X152476441Y-98529401I-199998J43D01*
G01*
X152463596Y-98516598D02*
G75*
G02*
X152405029Y-98375176I141404J141398D01*
G01*
X152534998Y-98786412D02*
G75*
G03*
X153062211Y-100059199I1800002J12D01*
G01*
%TO.N,/U3D-*%
X154629380Y-98849380D02*
X154629380Y-98839419D01*
X155528788Y-99748788D02*
X154629380Y-98849380D01*
X155637876Y-99748788D02*
X155528788Y-99748788D01*
%TO.N,/U3D+*%
X155284322Y-100102342D02*
X154580196Y-99398216D01*
X154403419Y-99324992D02*
X154197253Y-99324992D01*
X154403419Y-99324992D02*
G75*
G02*
X154580188Y-99398224I-19J-250008D01*
G01*
%TO.N,/U4D-*%
X154806375Y-97875605D02*
X154806375Y-98163713D01*
X155284322Y-97397658D02*
X154806375Y-97875605D01*
X155667287Y-98582713D02*
X155750000Y-98500000D01*
X154894243Y-98375845D02*
X155013243Y-98494845D01*
X155225375Y-98582713D02*
X155667287Y-98582713D01*
X154806375Y-98163713D02*
G75*
G03*
X154894244Y-98375844I300025J13D01*
G01*
X155013243Y-98494845D02*
G75*
G03*
X155225375Y-98582727I212157J212145D01*
G01*
%TO.N,/U4D+*%
X155637876Y-97751212D02*
X155876948Y-97751212D01*
X156089080Y-97839080D02*
X156250000Y-98000000D01*
X155876948Y-97751212D02*
G75*
G02*
X156089054Y-97839106I-48J-299988D01*
G01*
%TO.N,/U5D-*%
X145799515Y-104200463D02*
X145831219Y-104189369D01*
X146164598Y-104644598D02*
X146564598Y-104644598D01*
X146047323Y-104588122D02*
X146071074Y-104611873D01*
X146018358Y-104527977D02*
X146029452Y-104559681D01*
X145658121Y-104611873D02*
X145681872Y-104588122D01*
X145999743Y-104270526D02*
X146010837Y-104302230D01*
X146071074Y-104611873D02*
X146099515Y-104629744D01*
X145714598Y-104335608D02*
X145718358Y-104302230D01*
X145564598Y-104644598D02*
X145597976Y-104640838D01*
X146099515Y-104629744D02*
X146131219Y-104640838D01*
X145629680Y-104629744D02*
X145658121Y-104611873D01*
X146019841Y-101807157D02*
X144991446Y-102835552D01*
X146564598Y-104644598D02*
X146594655Y-104644598D01*
X145714598Y-104494598D02*
X145714598Y-104335608D01*
X146010837Y-104302230D02*
X146014598Y-104335608D01*
X145597976Y-104640838D02*
X145629680Y-104629744D01*
X145981872Y-104242085D02*
X145999743Y-104270526D01*
X144844999Y-103189106D02*
X144844999Y-103510785D01*
X146749340Y-101690000D02*
X146302683Y-101690000D01*
X146029452Y-104559681D02*
X146047323Y-104588122D01*
X147276338Y-101163002D02*
X146749340Y-101690000D01*
X146014598Y-104335608D02*
X146014598Y-104494598D01*
X145681872Y-104588122D02*
X145699743Y-104559681D01*
X145699743Y-104559681D02*
X145710837Y-104527977D01*
X145958121Y-104218334D02*
X145981872Y-104242085D01*
X145929680Y-104200463D02*
X145958121Y-104218334D01*
X145747323Y-104242085D02*
X145771074Y-104218334D01*
X146131219Y-104640838D02*
X146164598Y-104644598D01*
X145897976Y-104189369D02*
X145929680Y-104200463D01*
X145831219Y-104189369D02*
X145864598Y-104185608D01*
X146014598Y-104494598D02*
X146018358Y-104527977D01*
X145137892Y-104217892D02*
X145564598Y-104644598D01*
X145710837Y-104527977D02*
X145714598Y-104494598D01*
X145718358Y-104302230D02*
X145729452Y-104270526D01*
X145864598Y-104185608D02*
X145897976Y-104189369D01*
X145771074Y-104218334D02*
X145799515Y-104200463D01*
X145729452Y-104270526D02*
X145747323Y-104242085D01*
X144991446Y-102835552D02*
G75*
G03*
X144845003Y-103189106I353554J-353548D01*
G01*
X146019841Y-101807157D02*
G75*
G02*
X146302683Y-101689988I282859J-282843D01*
G01*
X144844999Y-103510785D02*
G75*
G03*
X145137885Y-104217899I1000001J-15D01*
G01*
%TO.N,/U5D+*%
X146208223Y-105048223D02*
X146258088Y-105098088D01*
X144544988Y-103128775D02*
X144544988Y-103566510D01*
X146434865Y-105171312D02*
X146975560Y-105171312D01*
X146922785Y-100809449D02*
X146415469Y-101316765D01*
X146238692Y-101389989D02*
X146116283Y-101389989D01*
X144925749Y-104485749D02*
X145341776Y-104901776D01*
X145518553Y-104975000D02*
X146031447Y-104975000D01*
X145939507Y-101463212D02*
X144736644Y-102666075D01*
X144544988Y-103128775D02*
G75*
G02*
X144736645Y-102666076I654412J-25D01*
G01*
X146116283Y-101389989D02*
G75*
G03*
X145939513Y-101463218I17J-250011D01*
G01*
X146415469Y-101316765D02*
G75*
G02*
X146238692Y-101389986I-176769J176765D01*
G01*
X144544988Y-103566510D02*
G75*
G03*
X144925752Y-104485746I1300012J10D01*
G01*
X145341776Y-104901776D02*
G75*
G03*
X145518553Y-104975033I176824J176776D01*
G01*
X146208223Y-105048223D02*
G75*
G03*
X146031447Y-104974967I-176823J-176777D01*
G01*
X146258088Y-105098088D02*
G75*
G03*
X146434865Y-105171333I176812J176788D01*
G01*
%TO.N,/U6D-*%
X146569231Y-100455895D02*
X146464105Y-100455895D01*
X143399329Y-98410671D02*
X143660000Y-98150000D01*
X142959989Y-101011511D02*
X142959989Y-99471331D01*
X146464105Y-100455895D02*
X144818595Y-102101405D01*
X143511405Y-102101405D02*
X143340750Y-101930750D01*
X144182199Y-102365009D02*
X144147801Y-102365009D01*
X143511405Y-102101405D02*
G75*
G03*
X144147801Y-102365006I636395J636405D01*
G01*
X144818595Y-102101405D02*
G75*
G02*
X144182199Y-102365006I-636395J636405D01*
G01*
X142959989Y-101011511D02*
G75*
G03*
X143340753Y-101930747I1300011J11D01*
G01*
X143399329Y-98410671D02*
G75*
G03*
X142960014Y-99471331I1060671J-1060629D01*
G01*
%TO.N,/U6D+*%
X143260000Y-99497107D02*
X143260000Y-100965786D01*
X146215678Y-100224322D02*
X146215678Y-100102342D01*
X143552893Y-101672893D02*
X143689619Y-101809619D01*
X144630380Y-101809620D02*
X146215678Y-100224322D01*
X143710000Y-98840000D02*
X143406447Y-99143553D01*
X144149239Y-102000000D02*
X144170761Y-102000000D01*
X144630380Y-101809620D02*
G75*
G02*
X144170761Y-101999973I-459580J459620D01*
G01*
X143689619Y-101809619D02*
G75*
G03*
X144149239Y-101999973I459581J459619D01*
G01*
X143260000Y-100965786D02*
G75*
G03*
X143552886Y-101672900I1000000J-14D01*
G01*
X143260000Y-99497107D02*
G75*
G02*
X143406444Y-99143550I500000J7D01*
G01*
%TO.N,/U7D-*%
X145435000Y-97385000D02*
X145801212Y-97751212D01*
X145070000Y-97740000D02*
X145080000Y-97740000D01*
X145801212Y-97751212D02*
X145862124Y-97751212D01*
X145080000Y-97740000D02*
X145435000Y-97385000D01*
%TO.N,/U7D+*%
X146693625Y-98184424D02*
X146693625Y-98148850D01*
X146620402Y-97972074D02*
X146215678Y-97567350D01*
X146263553Y-98590000D02*
X146288049Y-98590000D01*
X146215678Y-97567350D02*
X146215678Y-97397658D01*
X145520000Y-98240000D02*
X145706447Y-98240000D01*
X145883223Y-98313223D02*
X146086776Y-98516776D01*
X146464825Y-98516777D02*
X146620401Y-98361201D01*
X145706447Y-98240000D02*
G75*
G02*
X145883200Y-98313246I-47J-250000D01*
G01*
X146693625Y-98184424D02*
G75*
G02*
X146620394Y-98361194I-250025J24D01*
G01*
X146288049Y-98590000D02*
G75*
G03*
X146464851Y-98516803I51J250000D01*
G01*
X146263553Y-98590000D02*
G75*
G02*
X146086799Y-98516753I47J250000D01*
G01*
X146693625Y-98148850D02*
G75*
G03*
X146620432Y-97972044I-250025J50D01*
G01*
%TO.N,/LED1*%
X152455895Y-94569231D02*
X152958944Y-94066182D01*
X153046812Y-92667654D02*
X153053122Y-92661344D01*
X153046812Y-93854050D02*
X153046812Y-92667654D01*
X152958944Y-94066182D02*
G75*
G03*
X153046773Y-93854050I-212144J212082D01*
G01*
%TO.N,/D-*%
X148197500Y-102223662D02*
X147346015Y-103075147D01*
X147150000Y-107800000D02*
X147150000Y-108250000D01*
X148336998Y-102223662D02*
X148197500Y-102223662D01*
X146921751Y-103250883D02*
X146650883Y-103250883D01*
X147000000Y-107650000D02*
X147150000Y-107800000D01*
X147346015Y-103075147D02*
G75*
G02*
X146921751Y-103250853I-424215J424247D01*
G01*
%TO.N,/D+*%
X146475000Y-108246766D02*
X146489117Y-108260883D01*
X146250000Y-107650000D02*
X146475000Y-107875000D01*
X147983445Y-101870109D02*
X147349298Y-102504256D01*
X146995744Y-102650703D02*
X146947546Y-102650703D01*
X146475000Y-107875000D02*
X146475000Y-108246766D01*
X147349298Y-102504256D02*
G75*
G02*
X146995744Y-102650733I-353598J353556D01*
G01*
%TO.N,/LED2*%
X153438495Y-93336631D02*
X153583452Y-93191674D01*
X152809449Y-94922785D02*
X153350627Y-94381607D01*
X153438495Y-94169475D02*
X153438495Y-93336631D01*
X153350627Y-94381607D02*
G75*
G03*
X153438479Y-94169475I-212127J212107D01*
G01*
%TO.N,/LED3*%
X153968825Y-93866961D02*
X154113782Y-93722004D01*
X153968825Y-94159855D02*
X153968825Y-93866961D01*
X153163002Y-95276338D02*
X153749155Y-94690185D01*
X153968825Y-94159855D02*
G75*
G02*
X153749183Y-94690213I-750025J-45D01*
G01*
%TO.N,/LED4*%
X155070890Y-94782664D02*
X155174442Y-94782664D01*
X153870109Y-95983445D02*
X155070890Y-94782664D01*
%TO.N,/LED5*%
X149751212Y-93862124D02*
X149300000Y-93410912D01*
X149300000Y-93410912D02*
X149300000Y-92160914D01*
X149300000Y-92160914D02*
X149270100Y-92131014D01*
%TO.N,/LED6*%
X148919711Y-93737731D02*
X148919711Y-92944838D01*
X149397658Y-94215678D02*
X148919711Y-93737731D01*
X148846488Y-92768062D02*
X148739770Y-92661344D01*
X148919711Y-92944838D02*
G75*
G03*
X148846509Y-92768041I-250011J38D01*
G01*
%TO.N,/LED7*%
X148354397Y-93336631D02*
X148209440Y-93191674D01*
X149044105Y-94569231D02*
X148442265Y-93967391D01*
X148354397Y-93755259D02*
X148354397Y-93336631D01*
X148442265Y-93967391D02*
G75*
G02*
X148354427Y-93755259I212135J212091D01*
G01*
%TO.N,/LC*%
X151748788Y-93862124D02*
X147896448Y-90009782D01*
X147750001Y-89656228D02*
X147750001Y-87500001D01*
X147896448Y-90009782D02*
G75*
G02*
X147749981Y-89656228I353552J353582D01*
G01*
%TO.N,/XO*%
X149901471Y-104436241D02*
X149901471Y-106033201D01*
X152102342Y-103284322D02*
X151624395Y-102806375D01*
X150970677Y-102952821D02*
X150194364Y-103729134D01*
X151624395Y-102806375D02*
X151324230Y-102806375D01*
X151324230Y-102806375D02*
G75*
G03*
X150970657Y-102952801I-30J-500025D01*
G01*
X150194364Y-103729134D02*
G75*
G03*
X149901508Y-104436241I707136J-707066D01*
G01*
%TO.N,/XI*%
X152455895Y-102930769D02*
X152933843Y-103408717D01*
X152093503Y-105156497D02*
X152093503Y-105821069D01*
X152933843Y-103408717D02*
X152933843Y-103901943D01*
X152640950Y-104609050D02*
X152093503Y-105156497D01*
X152933843Y-103901943D02*
G75*
G02*
X152640937Y-104609037I-1000043J43D01*
G01*
D43*
%TO.N,VIN*%
X155917485Y-104432515D02*
X155917485Y-103982515D01*
X155637159Y-105819948D02*
X155917485Y-105539622D01*
X155917485Y-105539622D02*
X155917485Y-104432515D01*
X156390000Y-103310000D02*
X155817485Y-103882515D01*
D38*
X154811612Y-104877728D02*
X155806825Y-103882515D01*
D43*
X157300000Y-104925000D02*
X157300000Y-103375000D01*
D38*
X155806825Y-103882515D02*
X155817485Y-103882515D01*
D44*
X155165165Y-105231282D02*
X155917485Y-104478962D01*
X155917485Y-104478962D02*
X155917485Y-104432515D01*
D43*
X155917485Y-103982515D02*
X155817485Y-103882515D01*
X157235000Y-103310000D02*
X156390000Y-103310000D01*
%TD*%
%TA.AperFunction,Conductor*%
%TO.N,+5V*%
G36*
X144078734Y-104950592D02*
G01*
X144089820Y-104952005D01*
X144107927Y-104956697D01*
X144118287Y-104960839D01*
X144126748Y-104964859D01*
X145431187Y-105689548D01*
X145450666Y-105697809D01*
X145467172Y-105700968D01*
X145471441Y-105701786D01*
X145471444Y-105701786D01*
X145471447Y-105701787D01*
X145988428Y-105744869D01*
X146007004Y-105746417D01*
X146019788Y-105748623D01*
X146034575Y-105752536D01*
X146058023Y-105763410D01*
X146070567Y-105772175D01*
X146080506Y-105780506D01*
X146215557Y-105915557D01*
X146224760Y-105926771D01*
X146234210Y-105940914D01*
X146245259Y-105967587D01*
X146248578Y-105984270D01*
X146250000Y-105998709D01*
X146250000Y-106101290D01*
X146248578Y-106115729D01*
X146245259Y-106132412D01*
X146234210Y-106159085D01*
X146224760Y-106173228D01*
X146215557Y-106184442D01*
X146084442Y-106315557D01*
X146073228Y-106324760D01*
X146059085Y-106334210D01*
X146032413Y-106345258D01*
X146015731Y-106348577D01*
X146001291Y-106350000D01*
X142809393Y-106350000D01*
X142792195Y-106347974D01*
X142772663Y-106343307D01*
X142741990Y-106327763D01*
X142732518Y-106319728D01*
X142726680Y-106314775D01*
X142714879Y-106302108D01*
X142601021Y-106146847D01*
X142222825Y-105631125D01*
X142216679Y-105621181D01*
X142210357Y-105608875D01*
X142203103Y-105586715D01*
X142200924Y-105573053D01*
X142200000Y-105561398D01*
X142200000Y-105098709D01*
X142201422Y-105084274D01*
X142204740Y-105067591D01*
X142215787Y-105040917D01*
X142225243Y-105026765D01*
X142234437Y-105015562D01*
X142265562Y-104984437D01*
X142276765Y-104975243D01*
X142290917Y-104965787D01*
X142317591Y-104954740D01*
X142334274Y-104951422D01*
X142348709Y-104950000D01*
X144069393Y-104950000D01*
X144078734Y-104950592D01*
G37*
%TD.AperFunction*%
%TD*%
%TA.AperFunction,Conductor*%
%TO.N,GND*%
G36*
X149784603Y-92216844D02*
G01*
X151324524Y-93756765D01*
X151346198Y-93809091D01*
X151324524Y-93861417D01*
X151052142Y-94133799D01*
X151052138Y-94133804D01*
X151014880Y-94189562D01*
X151014879Y-94189565D01*
X150997378Y-94277548D01*
X150997378Y-94277549D01*
X151014880Y-94365536D01*
X151043396Y-94408211D01*
X151052139Y-94421296D01*
X151189616Y-94558772D01*
X151245377Y-94596032D01*
X151299522Y-94606802D01*
X151346614Y-94638268D01*
X151357663Y-94664942D01*
X151368434Y-94719091D01*
X151401070Y-94767931D01*
X151405693Y-94774850D01*
X151543170Y-94912326D01*
X151598931Y-94949586D01*
X151653075Y-94960356D01*
X151700167Y-94991822D01*
X151711216Y-95018496D01*
X151721987Y-95072644D01*
X151758478Y-95127253D01*
X151759246Y-95128403D01*
X151896723Y-95265879D01*
X151952484Y-95303139D01*
X152006629Y-95313909D01*
X152053721Y-95345375D01*
X152064770Y-95372049D01*
X152075541Y-95426198D01*
X152112670Y-95481763D01*
X152112800Y-95481957D01*
X152250277Y-95619433D01*
X152306038Y-95656693D01*
X152360182Y-95667463D01*
X152407274Y-95698929D01*
X152418323Y-95725603D01*
X152429094Y-95779751D01*
X152466223Y-95835316D01*
X152466353Y-95835510D01*
X152603830Y-95972986D01*
X152636768Y-95994995D01*
X152668232Y-96042088D01*
X152657182Y-96097637D01*
X152647980Y-96108849D01*
X152315858Y-96440972D01*
X152299543Y-96457287D01*
X152255873Y-96500958D01*
X152255695Y-96501174D01*
X152217279Y-96539589D01*
X152075588Y-96724235D01*
X151959212Y-96925792D01*
X151959207Y-96925802D01*
X151870140Y-97140814D01*
X151870137Y-97140825D01*
X151812502Y-97355900D01*
X151809895Y-97365630D01*
X151800268Y-97438732D01*
X151779509Y-97596382D01*
X151779508Y-97653413D01*
X151779507Y-97653433D01*
X151779507Y-97657959D01*
X151779507Y-97695085D01*
X151779507Y-97712751D01*
X151779507Y-97740000D01*
X151779506Y-97769940D01*
X151779507Y-97769949D01*
X151779507Y-98584956D01*
X151779817Y-98585705D01*
X151784028Y-98599592D01*
X151797104Y-98665393D01*
X151797783Y-98668807D01*
X151827657Y-98740965D01*
X151833612Y-98755349D01*
X151837645Y-98761387D01*
X151872934Y-98814218D01*
X151879763Y-98826996D01*
X151880027Y-98827633D01*
X151880028Y-98827635D01*
X151887814Y-98835421D01*
X151909488Y-98887747D01*
X151909488Y-100071942D01*
X151909487Y-100071956D01*
X151909487Y-100121643D01*
X151908854Y-100131300D01*
X151899704Y-100200817D01*
X151894705Y-100219477D01*
X151869744Y-100279741D01*
X151860084Y-100296472D01*
X151817439Y-100352048D01*
X151811058Y-100359325D01*
X151780094Y-100390290D01*
X151780092Y-100390292D01*
X151485916Y-100684467D01*
X151467186Y-100698075D01*
X151351657Y-100756940D01*
X151261951Y-100846646D01*
X151204353Y-100959688D01*
X151184508Y-101084990D01*
X151204353Y-101210291D01*
X151204353Y-101210292D01*
X151204354Y-101210294D01*
X151231993Y-101264538D01*
X151236436Y-101321001D01*
X151199653Y-101364068D01*
X151188926Y-101368511D01*
X151028560Y-101420618D01*
X150863694Y-101504623D01*
X150863693Y-101504623D01*
X150714008Y-101613376D01*
X150679678Y-101647708D01*
X150679677Y-101647709D01*
X150183858Y-102143526D01*
X150131532Y-102165200D01*
X150079206Y-102143526D01*
X150070006Y-102132316D01*
X150061459Y-102119527D01*
X150061458Y-102119525D01*
X150061457Y-102119524D01*
X150023293Y-102081365D01*
X150023292Y-102081363D01*
X150023292Y-102081364D01*
X148840487Y-100898560D01*
X148840475Y-100898547D01*
X148827876Y-100885942D01*
X148827854Y-100885927D01*
X148794897Y-100852970D01*
X148794684Y-100852795D01*
X148794682Y-100852793D01*
X148769930Y-100836250D01*
X148692247Y-100784331D01*
X148578417Y-100737166D01*
X148485830Y-100718737D01*
X148438742Y-100687265D01*
X148427698Y-100660596D01*
X148409295Y-100568067D01*
X148409294Y-100568066D01*
X148409294Y-100568062D01*
X148362151Y-100454233D01*
X148293708Y-100351787D01*
X148293677Y-100351750D01*
X148247965Y-100306037D01*
X148247960Y-100306033D01*
X148211612Y-100269678D01*
X148211564Y-100269637D01*
X147803937Y-99862010D01*
X147782263Y-99809684D01*
X147803935Y-99757361D01*
X148014995Y-99546300D01*
X148015002Y-99546296D01*
X148025405Y-99535893D01*
X148025406Y-99535893D01*
X148059755Y-99501543D01*
X148059754Y-99501542D01*
X148081428Y-99479869D01*
X148081427Y-99479869D01*
X148098503Y-99462795D01*
X148098503Y-99462793D01*
X148104244Y-99457053D01*
X148104303Y-99456978D01*
X148130729Y-99430554D01*
X148248736Y-99268132D01*
X148339883Y-99089250D01*
X148401925Y-98898312D01*
X148433336Y-98700019D01*
X148433336Y-98665389D01*
X148433339Y-98665378D01*
X148433339Y-98564611D01*
X148433340Y-98551059D01*
X148433339Y-98551056D01*
X148433339Y-98513039D01*
X148433339Y-96456593D01*
X148432057Y-96450149D01*
X148443106Y-96394600D01*
X148481185Y-96369154D01*
X148480123Y-96366588D01*
X148486854Y-96363799D01*
X148486856Y-96363799D01*
X148542617Y-96326540D01*
X148680093Y-96189063D01*
X148717353Y-96133302D01*
X148728123Y-96079156D01*
X148759589Y-96032065D01*
X148786262Y-96021016D01*
X148840409Y-96010246D01*
X148896170Y-95972987D01*
X149033646Y-95835510D01*
X149070906Y-95779749D01*
X149081676Y-95725603D01*
X149113142Y-95678512D01*
X149139815Y-95667463D01*
X149193962Y-95656693D01*
X149249723Y-95619434D01*
X149387199Y-95481957D01*
X149424459Y-95426196D01*
X149435230Y-95372049D01*
X149466694Y-95324958D01*
X149493367Y-95313910D01*
X149547516Y-95303139D01*
X149603277Y-95265880D01*
X149740753Y-95128403D01*
X149778013Y-95072642D01*
X149788783Y-95018496D01*
X149820249Y-94971405D01*
X149846922Y-94960356D01*
X149901069Y-94949586D01*
X149956830Y-94912327D01*
X150094306Y-94774850D01*
X150131566Y-94719089D01*
X150142337Y-94664942D01*
X150173801Y-94617851D01*
X150200474Y-94606803D01*
X150254623Y-94596032D01*
X150310384Y-94558773D01*
X150447860Y-94421296D01*
X150485120Y-94365535D01*
X150502622Y-94277549D01*
X150502583Y-94277355D01*
X150494262Y-94235521D01*
X150485120Y-94189563D01*
X150482232Y-94185241D01*
X150447865Y-94133807D01*
X150447862Y-94133804D01*
X150447861Y-94133802D01*
X149547174Y-93233115D01*
X149525500Y-93180789D01*
X149525500Y-92401948D01*
X149547174Y-92349622D01*
X149611700Y-92285096D01*
X149679700Y-92217096D01*
X149679702Y-92217092D01*
X149679951Y-92216844D01*
X149732277Y-92195170D01*
X149784603Y-92216844D01*
G37*
%TD.AperFunction*%
%TA.AperFunction,Conductor*%
G36*
X145479686Y-92163704D02*
G01*
X145493900Y-92166531D01*
X145615874Y-92203529D01*
X145629271Y-92209079D01*
X145741680Y-92269162D01*
X145753741Y-92277221D01*
X145854987Y-92360309D01*
X145860368Y-92365185D01*
X146539525Y-93044343D01*
X146561199Y-93096668D01*
X146539525Y-93148994D01*
X146501639Y-93169246D01*
X146473409Y-93174862D01*
X146426302Y-93206337D01*
X146426301Y-93206339D01*
X146102785Y-93529855D01*
X146102783Y-93529856D01*
X146071308Y-93576964D01*
X146056522Y-93651293D01*
X146071307Y-93725622D01*
X146102478Y-93772272D01*
X146102784Y-93772730D01*
X146229688Y-93899634D01*
X146304716Y-93974662D01*
X146326390Y-94026988D01*
X146320750Y-94055325D01*
X146303023Y-94098089D01*
X146293001Y-94148400D01*
X146288798Y-94162251D01*
X146286641Y-94167458D01*
X146286640Y-94167465D01*
X146286640Y-94167466D01*
X146286640Y-94220736D01*
X146286640Y-94222204D01*
X146286631Y-94265689D01*
X146286628Y-94277220D01*
X146286640Y-94277355D01*
X146286640Y-94588139D01*
X146264966Y-94640464D01*
X146215229Y-94690201D01*
X146215223Y-94690208D01*
X146182096Y-94739788D01*
X146169854Y-94801330D01*
X146138388Y-94848422D01*
X146111714Y-94859471D01*
X146049146Y-94871917D01*
X146002036Y-94903395D01*
X145978177Y-94927254D01*
X145925851Y-94948927D01*
X145911413Y-94947505D01*
X145902125Y-94945657D01*
X145886454Y-94942539D01*
X145886452Y-94942538D01*
X145886429Y-94942537D01*
X145884465Y-94942537D01*
X145860119Y-94942537D01*
X145807793Y-94920863D01*
X145786119Y-94868537D01*
X145807793Y-94816211D01*
X145861323Y-94762681D01*
X145861323Y-94762680D01*
X145861324Y-94762680D01*
X145892800Y-94715572D01*
X145907586Y-94641243D01*
X145906548Y-94636027D01*
X145892800Y-94566913D01*
X145861326Y-94519809D01*
X145861324Y-94519806D01*
X145608516Y-94266998D01*
X145606557Y-94265689D01*
X145561408Y-94235521D01*
X145487079Y-94220736D01*
X145487078Y-94220736D01*
X145423624Y-94233358D01*
X145368075Y-94222309D01*
X145351983Y-94207724D01*
X145350786Y-94206265D01*
X145331441Y-94182692D01*
X145323392Y-94170645D01*
X145260999Y-94053906D01*
X145255454Y-94040519D01*
X145217036Y-93913854D01*
X145214209Y-93899643D01*
X145200855Y-93764000D01*
X145200500Y-93756751D01*
X145200500Y-93741489D01*
X145200501Y-93716500D01*
X145200500Y-93716497D01*
X145200500Y-92746544D01*
X145222174Y-92694218D01*
X145240384Y-92676008D01*
X145278050Y-92638342D01*
X145335646Y-92525304D01*
X145355492Y-92400000D01*
X145335646Y-92274696D01*
X145329888Y-92263396D01*
X145325446Y-92206937D01*
X145362229Y-92163869D01*
X145403075Y-92156160D01*
X145479686Y-92163704D01*
G37*
%TD.AperFunction*%
%TA.AperFunction,Conductor*%
G36*
X147751802Y-80000088D02*
G01*
X147756237Y-80000304D01*
X147786414Y-80001775D01*
X147811121Y-80007319D01*
X147876653Y-80034463D01*
X147900660Y-80050503D01*
X147949496Y-80099339D01*
X147965537Y-80123347D01*
X147992679Y-80188874D01*
X147998224Y-80213587D01*
X147999912Y-80248195D01*
X148000000Y-80251800D01*
X148000000Y-80500000D01*
X148002139Y-80565545D01*
X148036067Y-80692167D01*
X148101612Y-80805694D01*
X148194306Y-80898388D01*
X148307833Y-80963933D01*
X148434455Y-80997861D01*
X148500000Y-81000000D01*
X151499988Y-81000000D01*
X151500000Y-81000000D01*
X151565545Y-80997861D01*
X151692167Y-80963933D01*
X151805694Y-80898388D01*
X151898388Y-80805694D01*
X151963933Y-80692167D01*
X151997861Y-80565545D01*
X152000000Y-80500000D01*
X152000000Y-80251800D01*
X152000088Y-80248197D01*
X152000211Y-80245665D01*
X152001776Y-80213584D01*
X152007318Y-80188879D01*
X152034464Y-80123343D01*
X152050500Y-80099342D01*
X152099342Y-80050500D01*
X152123343Y-80034464D01*
X152188879Y-80007318D01*
X152213584Y-80001776D01*
X152243993Y-80000292D01*
X152248198Y-80000088D01*
X152251801Y-80000000D01*
X153229520Y-80000000D01*
X153281846Y-80021674D01*
X153303520Y-80074000D01*
X153281846Y-80126326D01*
X153250166Y-80145061D01*
X153246670Y-80146077D01*
X153239300Y-80148218D01*
X153097943Y-80231817D01*
X152981817Y-80347943D01*
X152898218Y-80489300D01*
X152852400Y-80647006D01*
X152849500Y-80683858D01*
X152849500Y-83816141D01*
X152852400Y-83852993D01*
X152898219Y-84010701D01*
X152898218Y-84010701D01*
X152944801Y-84089469D01*
X152952781Y-84145541D01*
X152933432Y-84179463D01*
X152871322Y-84241573D01*
X152859009Y-84251496D01*
X152851952Y-84256031D01*
X152821796Y-84290833D01*
X152818199Y-84294696D01*
X152789508Y-84323388D01*
X152784895Y-84331378D01*
X152776741Y-84342830D01*
X152767117Y-84353937D01*
X152767116Y-84353940D01*
X152750590Y-84390125D01*
X152747366Y-84396380D01*
X152730198Y-84426117D01*
X152726183Y-84441101D01*
X152722021Y-84452680D01*
X152713302Y-84471773D01*
X152708527Y-84504979D01*
X152706760Y-84513593D01*
X152699501Y-84540686D01*
X152699501Y-84562475D01*
X152698748Y-84573005D01*
X152694867Y-84600000D01*
X152696067Y-84608343D01*
X152698748Y-84626992D01*
X152699501Y-84637523D01*
X152699501Y-84659308D01*
X152706761Y-84686406D01*
X152708528Y-84695024D01*
X152713302Y-84728221D01*
X152713303Y-84728226D01*
X152722020Y-84747315D01*
X152726184Y-84758897D01*
X152730201Y-84773887D01*
X152730203Y-84773892D01*
X152747362Y-84803613D01*
X152750588Y-84809870D01*
X152767116Y-84846061D01*
X152776739Y-84857167D01*
X152784895Y-84868621D01*
X152789506Y-84876607D01*
X152789509Y-84876611D01*
X152789511Y-84876614D01*
X152818195Y-84905298D01*
X152818197Y-84905300D01*
X152821796Y-84909166D01*
X152845754Y-84936816D01*
X152851951Y-84943967D01*
X152859004Y-84948499D01*
X152871323Y-84958426D01*
X152873386Y-84960489D01*
X152913915Y-84983888D01*
X152916919Y-84985719D01*
X152960931Y-85014004D01*
X152962886Y-85014578D01*
X152962900Y-85014582D01*
X152971496Y-85018263D01*
X152971630Y-85017942D01*
X152976108Y-85019796D01*
X152976113Y-85019799D01*
X153027360Y-85033530D01*
X153029000Y-85033990D01*
X153085228Y-85050500D01*
X153214773Y-85050500D01*
X153246217Y-85041266D01*
X153270986Y-85033993D01*
X153272638Y-85033530D01*
X153302688Y-85025478D01*
X153323888Y-85019799D01*
X153328371Y-85017942D01*
X153328505Y-85018266D01*
X153337102Y-85014581D01*
X153339069Y-85014004D01*
X153383104Y-84985702D01*
X153386056Y-84983903D01*
X153426614Y-84960489D01*
X153428667Y-84958434D01*
X153440992Y-84948501D01*
X153448049Y-84943967D01*
X153478215Y-84909151D01*
X153481789Y-84905312D01*
X153964929Y-84422174D01*
X154017255Y-84400500D01*
X154066141Y-84400500D01*
X154066142Y-84400500D01*
X154102991Y-84397600D01*
X154260698Y-84351782D01*
X154402056Y-84268183D01*
X154518183Y-84152056D01*
X154601782Y-84010698D01*
X154647600Y-83852991D01*
X154650500Y-83816142D01*
X154650500Y-80683858D01*
X154647600Y-80647009D01*
X154601782Y-80489302D01*
X154518183Y-80347944D01*
X154402056Y-80231817D01*
X154329452Y-80188879D01*
X154260699Y-80148218D01*
X154255123Y-80146598D01*
X154249833Y-80145061D01*
X154205633Y-80109650D01*
X154199418Y-80053354D01*
X154234830Y-80009153D01*
X154270480Y-80000000D01*
X156999214Y-80000000D01*
X157000825Y-80000018D01*
X157004039Y-80000088D01*
X157103493Y-80002254D01*
X157114718Y-80003359D01*
X157317771Y-80039163D01*
X157330226Y-80042501D01*
X157523200Y-80112737D01*
X157534881Y-80118183D01*
X157657320Y-80188874D01*
X157712735Y-80220868D01*
X157723301Y-80228267D01*
X157880612Y-80360266D01*
X157889733Y-80369387D01*
X158021732Y-80526698D01*
X158029131Y-80537264D01*
X158131813Y-80715113D01*
X158137264Y-80726804D01*
X158207497Y-80919771D01*
X158210836Y-80932230D01*
X158246639Y-81135274D01*
X158247745Y-81146512D01*
X158249982Y-81249173D01*
X158250000Y-81250785D01*
X158250000Y-99276667D01*
X158228326Y-99328993D01*
X158176000Y-99350667D01*
X158123674Y-99328993D01*
X158105982Y-99311301D01*
X158000894Y-99259927D01*
X157932764Y-99250000D01*
X157500000Y-99250000D01*
X157500000Y-101250000D01*
X157932754Y-101250000D01*
X157932764Y-101249999D01*
X158000893Y-101240072D01*
X158000894Y-101240072D01*
X158105982Y-101188698D01*
X158123674Y-101171007D01*
X158176000Y-101149333D01*
X158228326Y-101171007D01*
X158250000Y-101223333D01*
X158250000Y-103983931D01*
X158228326Y-104036257D01*
X158176000Y-104057931D01*
X158137941Y-104042166D01*
X158136188Y-104045204D01*
X158127750Y-104040332D01*
X158050002Y-104019500D01*
X158050000Y-104019500D01*
X157824500Y-104019500D01*
X157772174Y-103997826D01*
X157750500Y-103945500D01*
X157750500Y-103872314D01*
X157772174Y-103819988D01*
X157810062Y-103799736D01*
X157869084Y-103787997D01*
X157940367Y-103740367D01*
X157987997Y-103669084D01*
X158000500Y-103606226D01*
X158000500Y-103043774D01*
X157987997Y-102980916D01*
X157940367Y-102909633D01*
X157869084Y-102862003D01*
X157806226Y-102849500D01*
X156693774Y-102849500D01*
X156650648Y-102858078D01*
X156636212Y-102859500D01*
X156330689Y-102859500D01*
X156216117Y-102890199D01*
X156216112Y-102890201D01*
X156192269Y-102903968D01*
X156113385Y-102949511D01*
X155885071Y-103177826D01*
X155832745Y-103199500D01*
X155630252Y-103199500D01*
X155601010Y-103205316D01*
X155571767Y-103211133D01*
X155505449Y-103255447D01*
X155505447Y-103255449D01*
X155461133Y-103321767D01*
X155449500Y-103380253D01*
X155449500Y-103599055D01*
X155439586Y-103636055D01*
X155397688Y-103708623D01*
X155397686Y-103708627D01*
X155397686Y-103708628D01*
X155371282Y-103807175D01*
X155366986Y-103823207D01*
X155366986Y-103902086D01*
X155345312Y-103954412D01*
X154416354Y-104883370D01*
X154416352Y-104883371D01*
X154381160Y-104936040D01*
X154364629Y-105019149D01*
X154381159Y-105102257D01*
X154410621Y-105146349D01*
X154416353Y-105154928D01*
X154534412Y-105272987D01*
X154587082Y-105308180D01*
X154661724Y-105323026D01*
X154708815Y-105354491D01*
X154719865Y-105381167D01*
X154730318Y-105433716D01*
X154734713Y-105455812D01*
X154769906Y-105508482D01*
X154887965Y-105626541D01*
X154923546Y-105650315D01*
X154955011Y-105697408D01*
X154946805Y-105738864D01*
X154950614Y-105740442D01*
X154947825Y-105747173D01*
X154932477Y-105824336D01*
X154901011Y-105871428D01*
X154874336Y-105882477D01*
X154797174Y-105897825D01*
X154790442Y-105900614D01*
X154788863Y-105896803D01*
X154747212Y-105904972D01*
X154700315Y-105873546D01*
X154690497Y-105858852D01*
X154676541Y-105837965D01*
X154558482Y-105719906D01*
X154549156Y-105713674D01*
X154505811Y-105684712D01*
X154422704Y-105668182D01*
X154422703Y-105668182D01*
X154339594Y-105684713D01*
X154286925Y-105719905D01*
X154286924Y-105719907D01*
X153886023Y-106120808D01*
X153886020Y-106120811D01*
X153886018Y-106120813D01*
X153886017Y-106120812D01*
X153878439Y-106128392D01*
X153878436Y-106128396D01*
X153800936Y-106205896D01*
X153758994Y-106307153D01*
X153758994Y-106520734D01*
X153737320Y-106573060D01*
X153737314Y-106573065D01*
X153713306Y-106597067D01*
X153713248Y-106597135D01*
X152982559Y-107327826D01*
X152930233Y-107349500D01*
X152780252Y-107349500D01*
X152760178Y-107353493D01*
X152721767Y-107361133D01*
X152655449Y-107405447D01*
X152655447Y-107405449D01*
X152611133Y-107471767D01*
X152609445Y-107480253D01*
X152599500Y-107530252D01*
X152599500Y-107969748D01*
X152603303Y-107988866D01*
X152611133Y-108028232D01*
X152636125Y-108065634D01*
X152655448Y-108094552D01*
X152675718Y-108108096D01*
X152721767Y-108138866D01*
X152721768Y-108138866D01*
X152721769Y-108138867D01*
X152780252Y-108150500D01*
X152780254Y-108150500D01*
X153119746Y-108150500D01*
X153119748Y-108150500D01*
X153178231Y-108138867D01*
X153182909Y-108135740D01*
X153238457Y-108124688D01*
X153285551Y-108156150D01*
X153288111Y-108160266D01*
X153290200Y-108163885D01*
X153290201Y-108163886D01*
X153303766Y-108187382D01*
X153307358Y-108193602D01*
X153310584Y-108199861D01*
X153327117Y-108236062D01*
X153336738Y-108247165D01*
X153344898Y-108258624D01*
X153349510Y-108266612D01*
X153378190Y-108295292D01*
X153381790Y-108299159D01*
X153405145Y-108326113D01*
X153411951Y-108333967D01*
X153419010Y-108338503D01*
X153431327Y-108348429D01*
X153433387Y-108350489D01*
X153467596Y-108370240D01*
X153473903Y-108373881D01*
X153476910Y-108375714D01*
X153517551Y-108401832D01*
X153520931Y-108404004D01*
X153522908Y-108404584D01*
X153531498Y-108408263D01*
X153531632Y-108407942D01*
X153536110Y-108409796D01*
X153536114Y-108409799D01*
X153587423Y-108423547D01*
X153588992Y-108423987D01*
X153628697Y-108435646D01*
X153645227Y-108440500D01*
X153645228Y-108440500D01*
X153774770Y-108440500D01*
X153774772Y-108440500D01*
X153783105Y-108438052D01*
X153784604Y-108437631D01*
X153864267Y-108416286D01*
X153864268Y-108416286D01*
X153864268Y-108416285D01*
X153888481Y-108409799D01*
X153893382Y-108406969D01*
X153898803Y-108404174D01*
X153899066Y-108404004D01*
X153899069Y-108404004D01*
X153902456Y-108401826D01*
X153905447Y-108400003D01*
X153938502Y-108380918D01*
X153994653Y-108373526D01*
X154039587Y-108408005D01*
X154049501Y-108445005D01*
X154049501Y-108462475D01*
X154048748Y-108473005D01*
X154044867Y-108499999D01*
X154048748Y-108526992D01*
X154049501Y-108537523D01*
X154049501Y-108559308D01*
X154056761Y-108586406D01*
X154058528Y-108595024D01*
X154063302Y-108628221D01*
X154063303Y-108628226D01*
X154072020Y-108647315D01*
X154076184Y-108658897D01*
X154080201Y-108673887D01*
X154080203Y-108673892D01*
X154097362Y-108703613D01*
X154100588Y-108709870D01*
X154117116Y-108746061D01*
X154126739Y-108757167D01*
X154134895Y-108768621D01*
X154139506Y-108776607D01*
X154139509Y-108776611D01*
X154139511Y-108776614D01*
X154168196Y-108805299D01*
X154168197Y-108805300D01*
X154171796Y-108809166D01*
X154201951Y-108843967D01*
X154209004Y-108848499D01*
X154221323Y-108858426D01*
X154223386Y-108860489D01*
X154263915Y-108883888D01*
X154266919Y-108885719D01*
X154310931Y-108914004D01*
X154312886Y-108914578D01*
X154312900Y-108914582D01*
X154321496Y-108918263D01*
X154321630Y-108917942D01*
X154326108Y-108919796D01*
X154326113Y-108919799D01*
X154377360Y-108933530D01*
X154379000Y-108933990D01*
X154435228Y-108950500D01*
X154564773Y-108950500D01*
X154596217Y-108941266D01*
X154620986Y-108933993D01*
X154622638Y-108933530D01*
X154652688Y-108925478D01*
X154673888Y-108919799D01*
X154678371Y-108917942D01*
X154678505Y-108918266D01*
X154687102Y-108914581D01*
X154689069Y-108914004D01*
X154733104Y-108885702D01*
X154736056Y-108883903D01*
X154776614Y-108860489D01*
X154778667Y-108858434D01*
X154790992Y-108848501D01*
X154798049Y-108843967D01*
X154828214Y-108809152D01*
X154831788Y-108805313D01*
X156176639Y-107460463D01*
X156176650Y-107460455D01*
X156181954Y-107455149D01*
X156181957Y-107455149D01*
X156220474Y-107416629D01*
X156227731Y-107410265D01*
X156275450Y-107373645D01*
X156330157Y-107358986D01*
X156379207Y-107387303D01*
X156394500Y-107432353D01*
X156394500Y-107625002D01*
X156415332Y-107702749D01*
X156415333Y-107702750D01*
X156472250Y-107759667D01*
X156549997Y-107780499D01*
X156549998Y-107780500D01*
X158006174Y-107780500D01*
X158058500Y-107802174D01*
X158080174Y-107854500D01*
X158070259Y-107891501D01*
X158029130Y-107962736D01*
X158021732Y-107973301D01*
X157889733Y-108130612D01*
X157880612Y-108139733D01*
X157723301Y-108271732D01*
X157712735Y-108279131D01*
X157534886Y-108381813D01*
X157523195Y-108387264D01*
X157330228Y-108457497D01*
X157317769Y-108460836D01*
X157114725Y-108496639D01*
X157103487Y-108497745D01*
X157000826Y-108499982D01*
X156999214Y-108500000D01*
X156100000Y-108500000D01*
X156100000Y-119926000D01*
X156078326Y-119978326D01*
X156026000Y-120000000D01*
X143974000Y-120000000D01*
X143921674Y-119978326D01*
X143900000Y-119926000D01*
X143900000Y-108500000D01*
X143000786Y-108500000D01*
X142999174Y-108499982D01*
X142896512Y-108497745D01*
X142885274Y-108496639D01*
X142682230Y-108460836D01*
X142669771Y-108457497D01*
X142476804Y-108387264D01*
X142465113Y-108381813D01*
X142451374Y-108373881D01*
X142410857Y-108350488D01*
X142287264Y-108279131D01*
X142276698Y-108271732D01*
X142119387Y-108139733D01*
X142110266Y-108130612D01*
X141978267Y-107973301D01*
X141970868Y-107962735D01*
X141911846Y-107860506D01*
X141888313Y-107819746D01*
X145799500Y-107819746D01*
X145811133Y-107878232D01*
X145829477Y-107905684D01*
X145855448Y-107944552D01*
X145888466Y-107966614D01*
X145921767Y-107988866D01*
X145921768Y-107988866D01*
X145921769Y-107988867D01*
X145980252Y-108000500D01*
X146051541Y-108000500D01*
X146103867Y-108022174D01*
X146125541Y-108074500D01*
X146117475Y-108108093D01*
X146112313Y-108118226D01*
X146103470Y-108135580D01*
X146083625Y-108260883D01*
X146103470Y-108386184D01*
X146103470Y-108386185D01*
X146103471Y-108386187D01*
X146161067Y-108499225D01*
X146250775Y-108588933D01*
X146363813Y-108646529D01*
X146489117Y-108666375D01*
X146614421Y-108646529D01*
X146727459Y-108588933D01*
X146772675Y-108543716D01*
X146824997Y-108522043D01*
X146877324Y-108543716D01*
X146911658Y-108578050D01*
X147024696Y-108635646D01*
X147150000Y-108655492D01*
X147275304Y-108635646D01*
X147388342Y-108578050D01*
X147478050Y-108488342D01*
X147535646Y-108375304D01*
X147555492Y-108250000D01*
X147535646Y-108124696D01*
X147497585Y-108049999D01*
X147894508Y-108049999D01*
X147898589Y-108075766D01*
X147899500Y-108087342D01*
X147899500Y-108102728D01*
X147906710Y-108129639D01*
X147908320Y-108137212D01*
X147914353Y-108175304D01*
X147914354Y-108175305D01*
X147920511Y-108187390D01*
X147926051Y-108201819D01*
X147926793Y-108204587D01*
X147946950Y-108239500D01*
X147948798Y-108242904D01*
X147971950Y-108288342D01*
X147976931Y-108293323D01*
X147976936Y-108293329D01*
X148058302Y-108374695D01*
X148058308Y-108374700D01*
X148061658Y-108378050D01*
X148107099Y-108401203D01*
X148110502Y-108403051D01*
X148145413Y-108423207D01*
X148148089Y-108423924D01*
X148148171Y-108423946D01*
X148162612Y-108429489D01*
X148174696Y-108435646D01*
X148212790Y-108441679D01*
X148220350Y-108443286D01*
X148237407Y-108447856D01*
X148247272Y-108450500D01*
X148247273Y-108450500D01*
X148262657Y-108450500D01*
X148274232Y-108451410D01*
X148300000Y-108455492D01*
X148325767Y-108451410D01*
X148337343Y-108450500D01*
X149912657Y-108450500D01*
X149924232Y-108451410D01*
X149950000Y-108455492D01*
X149975767Y-108451410D01*
X149987343Y-108450500D01*
X150002726Y-108450500D01*
X150002727Y-108450500D01*
X150029661Y-108443282D01*
X150037203Y-108441680D01*
X150075304Y-108435646D01*
X150087387Y-108429488D01*
X150101832Y-108423945D01*
X150104587Y-108423207D01*
X150104590Y-108423205D01*
X150104591Y-108423205D01*
X150130470Y-108408263D01*
X150139497Y-108403050D01*
X150142883Y-108401211D01*
X150188342Y-108378050D01*
X150189813Y-108376577D01*
X150189821Y-108376573D01*
X150189820Y-108376572D01*
X150195911Y-108370480D01*
X150195913Y-108370480D01*
X150270480Y-108295913D01*
X150270480Y-108295911D01*
X150276572Y-108289820D01*
X150276573Y-108289821D01*
X150276577Y-108289813D01*
X150278050Y-108288342D01*
X150301211Y-108242883D01*
X150303053Y-108239493D01*
X150305034Y-108236063D01*
X150323207Y-108204587D01*
X150323945Y-108201831D01*
X150329488Y-108187387D01*
X150335646Y-108175304D01*
X150341680Y-108137203D01*
X150343282Y-108129661D01*
X150350500Y-108102727D01*
X150350500Y-108087342D01*
X150351411Y-108075766D01*
X150355492Y-108049999D01*
X150351411Y-108024232D01*
X150350500Y-108012656D01*
X150350500Y-107997271D01*
X150346631Y-107982834D01*
X150343286Y-107970350D01*
X150341679Y-107962790D01*
X150335646Y-107924696D01*
X150329487Y-107912608D01*
X150323946Y-107898171D01*
X150323924Y-107898089D01*
X150323207Y-107895413D01*
X150303051Y-107860502D01*
X150301203Y-107857099D01*
X150278050Y-107811658D01*
X150274700Y-107808308D01*
X150274698Y-107808305D01*
X150193334Y-107726941D01*
X150193323Y-107726931D01*
X150188342Y-107721950D01*
X150142904Y-107698798D01*
X150139500Y-107696950D01*
X150104587Y-107676793D01*
X150101819Y-107676051D01*
X150087390Y-107670511D01*
X150075305Y-107664354D01*
X150075304Y-107664353D01*
X150037212Y-107658320D01*
X150029639Y-107656710D01*
X150002728Y-107649500D01*
X150002727Y-107649500D01*
X149987343Y-107649500D01*
X149975767Y-107648589D01*
X149950000Y-107644508D01*
X149924233Y-107648589D01*
X149912657Y-107649500D01*
X148337343Y-107649500D01*
X148325767Y-107648589D01*
X148300000Y-107644508D01*
X148274233Y-107648589D01*
X148262657Y-107649500D01*
X148247273Y-107649500D01*
X148225393Y-107655361D01*
X148220361Y-107656710D01*
X148212791Y-107658319D01*
X148174696Y-107664353D01*
X148162608Y-107670512D01*
X148148183Y-107676049D01*
X148145421Y-107676789D01*
X148145410Y-107676793D01*
X148110504Y-107696946D01*
X148107103Y-107698793D01*
X148061659Y-107721948D01*
X148061654Y-107721953D01*
X148054090Y-107729515D01*
X148054091Y-107729516D01*
X148054089Y-107729518D01*
X148054087Y-107729520D01*
X147979520Y-107804087D01*
X147979518Y-107804089D01*
X147979516Y-107804091D01*
X147979515Y-107804090D01*
X147971953Y-107811654D01*
X147971948Y-107811659D01*
X147948793Y-107857103D01*
X147946946Y-107860504D01*
X147926793Y-107895410D01*
X147926789Y-107895421D01*
X147926049Y-107898183D01*
X147920512Y-107912608D01*
X147914353Y-107924696D01*
X147908319Y-107962791D01*
X147906710Y-107970361D01*
X147901753Y-107988866D01*
X147899500Y-107997274D01*
X147899500Y-108012656D01*
X147898589Y-108024232D01*
X147894508Y-108049999D01*
X147497585Y-108049999D01*
X147485376Y-108026037D01*
X147480933Y-107969577D01*
X147491964Y-107951588D01*
X147490503Y-107950612D01*
X147538866Y-107878232D01*
X147538865Y-107878232D01*
X147538867Y-107878231D01*
X147550500Y-107819748D01*
X147550500Y-107480252D01*
X147538867Y-107421769D01*
X147531173Y-107410255D01*
X147515837Y-107387303D01*
X147494552Y-107355448D01*
X147457808Y-107330896D01*
X147428232Y-107311133D01*
X147428233Y-107311133D01*
X147398989Y-107305316D01*
X147369748Y-107299500D01*
X146830252Y-107299500D01*
X146806858Y-107304153D01*
X146771766Y-107311133D01*
X146716113Y-107348321D01*
X146660564Y-107359371D01*
X146633887Y-107348321D01*
X146578233Y-107311133D01*
X146548989Y-107305316D01*
X146519748Y-107299500D01*
X145980252Y-107299500D01*
X145951010Y-107305316D01*
X145921767Y-107311133D01*
X145855449Y-107355447D01*
X145855447Y-107355449D01*
X145811133Y-107421767D01*
X145799500Y-107480253D01*
X145799500Y-107819746D01*
X141888313Y-107819746D01*
X141868183Y-107784881D01*
X141862737Y-107773200D01*
X141792501Y-107580226D01*
X141789163Y-107567769D01*
X141782548Y-107530253D01*
X141753359Y-107364718D01*
X141752254Y-107353493D01*
X141750018Y-107250825D01*
X141750000Y-107249214D01*
X141750000Y-105561400D01*
X142044500Y-105561400D01*
X142044985Y-105573677D01*
X142045910Y-105585343D01*
X142047366Y-105597554D01*
X142049543Y-105611202D01*
X142049543Y-105611205D01*
X142055316Y-105635079D01*
X142055319Y-105635091D01*
X142058468Y-105644710D01*
X142062575Y-105657258D01*
X142069723Y-105674378D01*
X142072042Y-105679932D01*
X142077399Y-105690360D01*
X142078364Y-105692238D01*
X142084405Y-105702936D01*
X142090558Y-105712892D01*
X142097422Y-105723073D01*
X142589477Y-106394057D01*
X142589486Y-106394069D01*
X142601100Y-106408102D01*
X142612895Y-106420763D01*
X142612908Y-106420776D01*
X142626084Y-106433354D01*
X142641387Y-106446336D01*
X142641389Y-106446338D01*
X142641394Y-106446341D01*
X142641395Y-106446342D01*
X142671699Y-106466469D01*
X142702372Y-106482013D01*
X142736525Y-106494549D01*
X142736528Y-106494550D01*
X142744968Y-106496566D01*
X142756057Y-106499216D01*
X142774002Y-106502406D01*
X142791200Y-106504432D01*
X142809393Y-106505500D01*
X142809407Y-106505500D01*
X146001279Y-106505500D01*
X146001291Y-106505500D01*
X146016541Y-106504750D01*
X146030981Y-106503327D01*
X146032953Y-106503034D01*
X146046057Y-106501091D01*
X146046071Y-106501088D01*
X146046074Y-106501088D01*
X146062756Y-106497769D01*
X146084009Y-106491321D01*
X146091915Y-106488923D01*
X146091916Y-106488922D01*
X146091921Y-106488921D01*
X146118593Y-106477873D01*
X146145476Y-106463504D01*
X146159619Y-106454054D01*
X146171876Y-106444964D01*
X146183090Y-106435761D01*
X146194397Y-106425512D01*
X146325512Y-106294397D01*
X146335761Y-106283090D01*
X146344964Y-106271876D01*
X146354054Y-106259619D01*
X146363504Y-106245476D01*
X146377872Y-106218595D01*
X146388921Y-106191922D01*
X146397770Y-106162753D01*
X146401089Y-106146070D01*
X146403329Y-106130969D01*
X146404751Y-106116530D01*
X146405500Y-106101290D01*
X146405500Y-105998709D01*
X146404751Y-105983469D01*
X146403979Y-105975633D01*
X146403331Y-105969049D01*
X146403330Y-105969046D01*
X146403329Y-105969030D01*
X146401089Y-105953929D01*
X146400660Y-105951775D01*
X146397772Y-105937258D01*
X146397771Y-105937253D01*
X146397770Y-105937246D01*
X146388921Y-105908077D01*
X146377872Y-105881404D01*
X146363504Y-105854523D01*
X146354054Y-105840380D01*
X146344964Y-105828123D01*
X146335761Y-105816909D01*
X146325512Y-105805602D01*
X146233584Y-105713674D01*
X146229984Y-105709807D01*
X146224029Y-105702935D01*
X146218049Y-105696033D01*
X146215890Y-105694162D01*
X146206529Y-105686619D01*
X146190460Y-105670550D01*
X146187874Y-105668182D01*
X146180397Y-105661334D01*
X146175526Y-105657251D01*
X146170453Y-105652998D01*
X146159634Y-105644710D01*
X146147092Y-105635946D01*
X146123447Y-105622342D01*
X146099998Y-105611468D01*
X146099996Y-105611467D01*
X146074355Y-105602210D01*
X146074353Y-105602209D01*
X146074349Y-105602208D01*
X146059578Y-105598299D01*
X146046222Y-105595386D01*
X146033455Y-105593183D01*
X146030952Y-105592863D01*
X146019918Y-105591454D01*
X145946576Y-105585342D01*
X145512134Y-105549137D01*
X145482342Y-105540081D01*
X144428362Y-104954537D01*
X144202266Y-104828928D01*
X144202257Y-104828923D01*
X144202242Y-104828915D01*
X144193494Y-104824412D01*
X144185022Y-104820387D01*
X144176019Y-104816453D01*
X144176014Y-104816451D01*
X144165654Y-104812309D01*
X144146933Y-104806169D01*
X144146928Y-104806167D01*
X144146926Y-104806167D01*
X144128821Y-104801475D01*
X144109498Y-104797755D01*
X144103593Y-104797002D01*
X144098395Y-104796340D01*
X144098390Y-104796339D01*
X144098386Y-104796339D01*
X144095453Y-104796059D01*
X144088569Y-104795403D01*
X144079975Y-104794858D01*
X144079213Y-104794810D01*
X144069394Y-104794500D01*
X144069393Y-104794500D01*
X142348709Y-104794500D01*
X142339392Y-104794957D01*
X142333457Y-104795249D01*
X142319030Y-104796670D01*
X142319020Y-104796672D01*
X142303943Y-104798908D01*
X142287260Y-104802226D01*
X142287243Y-104802230D01*
X142258088Y-104811074D01*
X142258082Y-104811076D01*
X142231425Y-104822116D01*
X142231397Y-104822130D01*
X142204537Y-104836486D01*
X142204529Y-104836491D01*
X142190392Y-104845935D01*
X142190358Y-104845959D01*
X142178128Y-104855031D01*
X142178099Y-104855053D01*
X142166937Y-104864213D01*
X142155604Y-104874484D01*
X142124484Y-104905604D01*
X142114213Y-104916937D01*
X142105053Y-104928099D01*
X142105031Y-104928128D01*
X142095959Y-104940358D01*
X142095935Y-104940392D01*
X142086491Y-104954529D01*
X142086486Y-104954537D01*
X142072130Y-104981397D01*
X142072116Y-104981425D01*
X142061076Y-105008082D01*
X142061074Y-105008088D01*
X142052230Y-105037243D01*
X142052226Y-105037260D01*
X142048908Y-105053943D01*
X142046672Y-105069020D01*
X142046670Y-105069030D01*
X142045249Y-105083457D01*
X142044957Y-105089392D01*
X142044500Y-105098709D01*
X142044500Y-105098720D01*
X142044500Y-105561400D01*
X141750000Y-105561400D01*
X141750000Y-101111498D01*
X142734485Y-101111498D01*
X142760587Y-101309754D01*
X142760589Y-101309763D01*
X142812345Y-101502913D01*
X142812349Y-101502925D01*
X142888872Y-101687666D01*
X142888873Y-101687669D01*
X142988168Y-101859651D01*
X142988861Y-101860852D01*
X143110597Y-102019501D01*
X143110601Y-102019505D01*
X143145359Y-102054263D01*
X143145362Y-102054267D01*
X143170888Y-102079793D01*
X143170889Y-102079795D01*
X143223421Y-102132327D01*
X143223423Y-102132328D01*
X143316016Y-102224921D01*
X143316019Y-102224925D01*
X143327186Y-102236092D01*
X143327188Y-102236098D01*
X143351951Y-102260860D01*
X143351951Y-102260861D01*
X143414586Y-102323495D01*
X143557910Y-102427625D01*
X143557914Y-102427627D01*
X143715759Y-102508052D01*
X143715764Y-102508054D01*
X143884235Y-102562793D01*
X143884241Y-102562794D01*
X143884246Y-102562796D01*
X143979561Y-102577892D01*
X144059222Y-102590509D01*
X144059223Y-102590509D01*
X144234094Y-102590509D01*
X144234136Y-102590505D01*
X144270777Y-102590505D01*
X144361586Y-102576122D01*
X144416657Y-102589343D01*
X144446250Y-102637634D01*
X144439096Y-102682806D01*
X144383950Y-102791036D01*
X144341159Y-102922734D01*
X144341157Y-102922741D01*
X144319489Y-103059527D01*
X144319489Y-103079375D01*
X144319488Y-103079395D01*
X144319488Y-103128769D01*
X144319486Y-103182226D01*
X144319488Y-103182243D01*
X144319488Y-103515686D01*
X144319487Y-103515700D01*
X144319487Y-103535858D01*
X144319485Y-103535864D01*
X144319485Y-103666497D01*
X144345587Y-103864753D01*
X144345589Y-103864762D01*
X144397345Y-104057912D01*
X144397349Y-104057925D01*
X144473871Y-104242666D01*
X144473872Y-104242668D01*
X144573859Y-104415850D01*
X144580709Y-104424777D01*
X144695596Y-104574500D01*
X144695600Y-104574504D01*
X144730358Y-104609262D01*
X144730361Y-104609266D01*
X144766297Y-104645202D01*
X144808420Y-104687326D01*
X144808422Y-104687327D01*
X145215309Y-105094214D01*
X145215371Y-105094260D01*
X145215434Y-105094302D01*
X145293301Y-105146348D01*
X145378097Y-105181488D01*
X145379823Y-105182203D01*
X145379825Y-105182204D01*
X145471681Y-105200492D01*
X145471700Y-105200492D01*
X145471774Y-105200500D01*
X145473698Y-105200500D01*
X145518510Y-105200500D01*
X145518517Y-105200500D01*
X145563365Y-105200509D01*
X145563368Y-105200507D01*
X145570508Y-105200509D01*
X145570611Y-105200500D01*
X146010939Y-105200500D01*
X146063265Y-105222174D01*
X146063272Y-105222181D01*
X146085924Y-105244839D01*
X146085976Y-105244881D01*
X146131634Y-105290539D01*
X146131685Y-105290577D01*
X146131742Y-105290623D01*
X146131750Y-105290631D01*
X146180152Y-105322978D01*
X146209618Y-105342670D01*
X146209622Y-105342673D01*
X146296143Y-105378522D01*
X146296151Y-105378524D01*
X146309431Y-105381167D01*
X146388004Y-105396806D01*
X146388008Y-105396806D01*
X146388033Y-105396811D01*
X146388034Y-105396812D01*
X146434833Y-105396812D01*
X146479688Y-105396818D01*
X146479689Y-105396817D01*
X146487162Y-105396818D01*
X146487231Y-105396812D01*
X146604017Y-105396812D01*
X146656341Y-105418485D01*
X146737218Y-105499362D01*
X146850256Y-105556958D01*
X146975560Y-105576804D01*
X147100864Y-105556958D01*
X147213902Y-105499362D01*
X147303610Y-105409654D01*
X147361206Y-105296616D01*
X147381052Y-105171312D01*
X147361206Y-105046008D01*
X147303610Y-104932970D01*
X147213902Y-104843262D01*
X147100864Y-104785666D01*
X147100862Y-104785665D01*
X147100861Y-104785665D01*
X147053904Y-104778228D01*
X147005613Y-104748635D01*
X146992391Y-104693563D01*
X147000147Y-104644598D01*
X146980301Y-104519294D01*
X146922705Y-104406256D01*
X146832997Y-104316548D01*
X146719959Y-104258952D01*
X146719957Y-104258951D01*
X146719956Y-104258951D01*
X146594655Y-104239106D01*
X146469353Y-104258951D01*
X146469351Y-104258951D01*
X146469351Y-104258952D01*
X146356313Y-104316548D01*
X146356312Y-104316548D01*
X146356308Y-104316551D01*
X146354966Y-104317526D01*
X146353885Y-104317785D01*
X146351123Y-104319193D01*
X146350784Y-104318529D01*
X146299893Y-104330743D01*
X146251604Y-104301146D01*
X146241713Y-104276683D01*
X146240904Y-104276967D01*
X146235377Y-104261174D01*
X146234827Y-104259603D01*
X146231140Y-104243444D01*
X146231052Y-104242666D01*
X146229897Y-104232408D01*
X146224573Y-104222775D01*
X146216385Y-104199374D01*
X146214543Y-104188531D01*
X146208631Y-104179123D01*
X146201440Y-104164189D01*
X146197773Y-104153710D01*
X146197773Y-104153709D01*
X146190441Y-104145505D01*
X146177252Y-104124516D01*
X146173042Y-104114350D01*
X146165185Y-104106493D01*
X146154853Y-104093536D01*
X146148945Y-104084133D01*
X146148943Y-104084132D01*
X146148943Y-104084131D01*
X146139966Y-104077761D01*
X146122442Y-104060236D01*
X146116076Y-104051264D01*
X146106663Y-104045349D01*
X146093712Y-104035020D01*
X146085858Y-104027166D01*
X146085857Y-104027165D01*
X146085856Y-104027164D01*
X146075687Y-104022951D01*
X146054699Y-104009763D01*
X146046497Y-104002433D01*
X146046496Y-104002432D01*
X146036009Y-103998763D01*
X146021083Y-103991575D01*
X146011675Y-103985663D01*
X146011674Y-103985662D01*
X146011673Y-103985662D01*
X146000825Y-103983819D01*
X145977431Y-103975632D01*
X145967801Y-103970310D01*
X145967797Y-103970308D01*
X145956748Y-103969063D01*
X145940601Y-103965377D01*
X145931878Y-103962325D01*
X145930118Y-103961709D01*
X145930117Y-103961709D01*
X145930115Y-103961708D01*
X145919124Y-103962325D01*
X145894501Y-103959550D01*
X145883922Y-103956503D01*
X145872878Y-103957747D01*
X145856314Y-103957747D01*
X145845274Y-103956503D01*
X145845272Y-103956503D01*
X145834691Y-103959551D01*
X145810071Y-103962325D01*
X145799080Y-103961708D01*
X145799073Y-103961709D01*
X145788585Y-103965379D01*
X145772440Y-103969064D01*
X145761397Y-103970308D01*
X145761392Y-103970310D01*
X145751761Y-103975633D01*
X145728369Y-103983819D01*
X145717521Y-103985662D01*
X145717517Y-103985664D01*
X145708110Y-103991575D01*
X145693189Y-103998761D01*
X145682699Y-104002432D01*
X145682696Y-104002434D01*
X145674490Y-104009767D01*
X145653508Y-104022951D01*
X145643340Y-104027163D01*
X145643338Y-104027165D01*
X145635479Y-104035023D01*
X145622532Y-104045348D01*
X145613120Y-104051262D01*
X145606751Y-104060238D01*
X145589228Y-104077761D01*
X145580252Y-104084130D01*
X145574338Y-104093542D01*
X145564013Y-104106489D01*
X145556154Y-104114349D01*
X145556152Y-104114351D01*
X145551940Y-104124519D01*
X145538755Y-104145501D01*
X145531420Y-104153709D01*
X145528445Y-104158753D01*
X145483190Y-104192808D01*
X145427110Y-104184888D01*
X145412384Y-104173479D01*
X145299919Y-104061014D01*
X145295042Y-104055632D01*
X145205654Y-103946709D01*
X145197595Y-103934648D01*
X145132897Y-103813604D01*
X145127346Y-103800205D01*
X145087503Y-103668856D01*
X145084675Y-103654635D01*
X145070854Y-103514286D01*
X145070499Y-103507043D01*
X145070499Y-103489225D01*
X145070500Y-103465934D01*
X145070499Y-103465931D01*
X145070499Y-103233960D01*
X145070500Y-103233958D01*
X145070499Y-103193953D01*
X145071132Y-103184295D01*
X145072537Y-103173621D01*
X145078581Y-103127708D01*
X145083576Y-103109066D01*
X145103550Y-103060841D01*
X145113196Y-103044133D01*
X145147935Y-102998858D01*
X145154297Y-102991604D01*
X145843804Y-102302097D01*
X145896129Y-102280424D01*
X145948455Y-102302098D01*
X145957657Y-102313311D01*
X145964462Y-102323495D01*
X145964972Y-102324258D01*
X146275742Y-102635028D01*
X146325322Y-102668156D01*
X146403553Y-102683717D01*
X146467408Y-102671015D01*
X146522955Y-102682064D01*
X146554421Y-102729156D01*
X146554932Y-102732016D01*
X146561901Y-102776013D01*
X146562087Y-102776586D01*
X146562055Y-102776987D01*
X146562811Y-102781758D01*
X146561664Y-102781939D01*
X146557636Y-102833048D01*
X146525302Y-102865378D01*
X146412540Y-102922833D01*
X146322834Y-103012539D01*
X146265236Y-103125581D01*
X146245391Y-103250883D01*
X146265236Y-103376184D01*
X146265236Y-103376185D01*
X146265237Y-103376187D01*
X146322833Y-103489225D01*
X146412541Y-103578933D01*
X146525579Y-103636529D01*
X146650883Y-103656375D01*
X146776187Y-103636529D01*
X146889225Y-103578933D01*
X146975757Y-103492400D01*
X147016507Y-103471639D01*
X147096301Y-103459006D01*
X147151370Y-103472232D01*
X147180447Y-103517658D01*
X147181844Y-103524678D01*
X147182027Y-103524952D01*
X147182218Y-103525583D01*
X147184633Y-103531412D01*
X147184059Y-103531649D01*
X147194500Y-103566066D01*
X147194500Y-103960062D01*
X147196539Y-103970310D01*
X147206335Y-104019563D01*
X147206338Y-104019573D01*
X147228010Y-104071894D01*
X147263739Y-104125366D01*
X147263160Y-104125752D01*
X147274243Y-104146484D01*
X147276435Y-104153710D01*
X147281700Y-104171069D01*
X147281704Y-104171078D01*
X147292491Y-104197124D01*
X147292748Y-104197743D01*
X147296946Y-104207009D01*
X147296947Y-104207010D01*
X147296948Y-104207012D01*
X147350014Y-104267527D01*
X147350017Y-104267529D01*
X147397108Y-104298997D01*
X147397109Y-104298997D01*
X147397110Y-104298998D01*
X147453959Y-104322548D01*
X147477964Y-104338588D01*
X147765464Y-104626088D01*
X147774666Y-104637301D01*
X147784303Y-104651724D01*
X147784306Y-104651727D01*
X147784309Y-104651732D01*
X147807301Y-104678833D01*
X147807303Y-104678835D01*
X147807305Y-104678837D01*
X147823026Y-104693562D01*
X147831829Y-104701807D01*
X147860378Y-104722981D01*
X147891449Y-104740920D01*
X147906772Y-104752678D01*
X147929301Y-104775207D01*
X147940475Y-104789768D01*
X147940548Y-104789724D01*
X147941003Y-104790455D01*
X147941057Y-104790526D01*
X147941187Y-104790752D01*
X147952487Y-104807664D01*
X147964235Y-104822975D01*
X147964263Y-104823008D01*
X147977646Y-104838269D01*
X147977659Y-104838283D01*
X148259089Y-105119713D01*
X148268292Y-105130927D01*
X148292642Y-105167370D01*
X148292919Y-105167791D01*
X148292933Y-105167808D01*
X148296022Y-105170515D01*
X148302886Y-105177376D01*
X148307383Y-105182504D01*
X148307383Y-105182505D01*
X148329437Y-105207655D01*
X148330770Y-105209175D01*
X148369925Y-105241311D01*
X148369930Y-105241314D01*
X148369934Y-105241317D01*
X148421780Y-105271250D01*
X148437097Y-105283004D01*
X148476091Y-105321997D01*
X148476627Y-105322540D01*
X148479936Y-105325928D01*
X148480624Y-105326530D01*
X148493318Y-105339224D01*
X148502111Y-105342206D01*
X148540925Y-105371989D01*
X148540926Y-105371989D01*
X148540927Y-105371990D01*
X148572404Y-105385028D01*
X148593251Y-105393663D01*
X148652758Y-105405500D01*
X149033933Y-105405500D01*
X149068350Y-105415939D01*
X149068588Y-105415367D01*
X149074403Y-105417775D01*
X149075043Y-105417969D01*
X149075322Y-105418156D01*
X149153553Y-105433717D01*
X149231785Y-105418156D01*
X149281364Y-105385028D01*
X149316812Y-105349578D01*
X149322179Y-105344715D01*
X149333090Y-105335761D01*
X149344397Y-105325512D01*
X149428835Y-105241074D01*
X149442629Y-105224264D01*
X149447495Y-105218896D01*
X149521424Y-105144968D01*
X149540443Y-105116504D01*
X149587534Y-105085039D01*
X149643083Y-105096088D01*
X149674549Y-105143180D01*
X149675971Y-105157617D01*
X149675971Y-105237392D01*
X149654297Y-105289718D01*
X149041522Y-105902492D01*
X149041522Y-105902493D01*
X149041520Y-105902495D01*
X149022549Y-105930888D01*
X148998477Y-105966914D01*
X148987422Y-106022487D01*
X148978258Y-106068556D01*
X148998477Y-106170198D01*
X149041520Y-106234618D01*
X149700054Y-106893152D01*
X149764474Y-106936195D01*
X149866116Y-106956414D01*
X149967757Y-106936195D01*
X150032177Y-106893152D01*
X150761422Y-106163907D01*
X150804465Y-106099487D01*
X150824684Y-105997846D01*
X150804465Y-105896204D01*
X150761422Y-105831784D01*
X150148645Y-105219007D01*
X150126971Y-105166681D01*
X150126971Y-104489709D01*
X150126972Y-104489692D01*
X150126971Y-104481089D01*
X150126973Y-104481087D01*
X150126971Y-104439863D01*
X150127327Y-104432614D01*
X150128658Y-104419098D01*
X150141133Y-104292377D01*
X150143959Y-104278165D01*
X150183801Y-104146801D01*
X150189349Y-104133407D01*
X150254050Y-104012346D01*
X150262102Y-104000294D01*
X150351254Y-103891650D01*
X150356114Y-103886287D01*
X151126691Y-103115712D01*
X151133957Y-103109340D01*
X151179243Y-103074596D01*
X151195963Y-103064944D01*
X151244182Y-103044976D01*
X151262819Y-103039983D01*
X151319643Y-103032505D01*
X151329278Y-103031875D01*
X151369071Y-103031878D01*
X151369072Y-103031877D01*
X151376563Y-103031878D01*
X151376602Y-103031875D01*
X151394272Y-103031875D01*
X151446598Y-103053549D01*
X151910709Y-103517659D01*
X152374020Y-103980970D01*
X152429781Y-104018230D01*
X152517767Y-104035732D01*
X152589231Y-104021516D01*
X152644778Y-104032565D01*
X152676245Y-104079656D01*
X152674480Y-104115577D01*
X152651494Y-104191345D01*
X152645942Y-104204747D01*
X152581238Y-104325793D01*
X152573180Y-104337853D01*
X152483683Y-104446906D01*
X152478807Y-104452286D01*
X152449781Y-104481313D01*
X152449779Y-104481315D01*
X151989585Y-104941508D01*
X151978374Y-104950709D01*
X151962797Y-104961117D01*
X151962795Y-104961120D01*
X151233554Y-105690360D01*
X151233554Y-105690361D01*
X151233552Y-105690363D01*
X151213812Y-105719907D01*
X151190509Y-105754782D01*
X151174023Y-105837657D01*
X151170290Y-105856424D01*
X151190509Y-105958066D01*
X151233552Y-106022486D01*
X151892086Y-106681020D01*
X151956506Y-106724063D01*
X152058148Y-106744282D01*
X152159789Y-106724063D01*
X152224209Y-106681020D01*
X152953454Y-105951775D01*
X152996497Y-105887355D01*
X153016716Y-105785714D01*
X152996497Y-105684072D01*
X152953454Y-105619652D01*
X152503679Y-105169877D01*
X152482005Y-105117551D01*
X152503679Y-105065225D01*
X152629978Y-104938926D01*
X152758277Y-104810627D01*
X152758280Y-104810625D01*
X152768685Y-104800220D01*
X152768686Y-104800220D01*
X152800403Y-104768503D01*
X152800402Y-104768502D01*
X152822075Y-104746830D01*
X152822075Y-104746829D01*
X152832120Y-104736785D01*
X152832120Y-104736783D01*
X152837323Y-104731581D01*
X152837430Y-104731450D01*
X152868588Y-104700293D01*
X152868589Y-104700292D01*
X152903876Y-104651724D01*
X152981970Y-104544238D01*
X153069545Y-104372370D01*
X153111054Y-104244630D01*
X153147836Y-104201567D01*
X153204299Y-104197124D01*
X153222536Y-104205970D01*
X153271769Y-104238867D01*
X153330252Y-104250500D01*
X153330254Y-104250500D01*
X153769746Y-104250500D01*
X153769748Y-104250500D01*
X153828231Y-104238867D01*
X153894552Y-104194552D01*
X153938867Y-104128231D01*
X153950500Y-104069748D01*
X153950500Y-103730252D01*
X153938867Y-103671769D01*
X153935344Y-103666497D01*
X153915003Y-103636055D01*
X153894552Y-103605448D01*
X153882750Y-103597562D01*
X153851286Y-103550471D01*
X153850775Y-103547608D01*
X153850143Y-103543619D01*
X153824622Y-103382444D01*
X153820867Y-103370886D01*
X153825311Y-103314424D01*
X153868378Y-103277642D01*
X153919565Y-103279654D01*
X153923726Y-103281378D01*
X153923729Y-103281379D01*
X153923732Y-103281380D01*
X153923735Y-103281380D01*
X153923740Y-103281382D01*
X153968547Y-103290293D01*
X154006755Y-103297893D01*
X154044645Y-103318145D01*
X154157722Y-103431222D01*
X154207301Y-103464350D01*
X154285533Y-103479911D01*
X154363764Y-103464350D01*
X154413344Y-103431222D01*
X154724114Y-103120452D01*
X154757242Y-103070872D01*
X154766057Y-103026549D01*
X154786307Y-102988662D01*
X155387225Y-102387744D01*
X155439550Y-102366071D01*
X155453985Y-102367492D01*
X155467157Y-102370113D01*
X155545389Y-102354552D01*
X155594968Y-102321424D01*
X155835028Y-102081364D01*
X155868156Y-102031785D01*
X155883717Y-101953553D01*
X155868156Y-101875322D01*
X155835028Y-101825742D01*
X155792876Y-101783590D01*
X155771202Y-101731264D01*
X155771202Y-100966030D01*
X155771202Y-100966028D01*
X155755921Y-100929139D01*
X155755921Y-100872506D01*
X155783176Y-100839295D01*
X155787733Y-100836250D01*
X155843494Y-100798991D01*
X155980970Y-100661514D01*
X156018230Y-100605753D01*
X156029000Y-100551607D01*
X156060465Y-100504515D01*
X156087138Y-100493467D01*
X156141287Y-100482696D01*
X156141290Y-100482693D01*
X156147681Y-100480047D01*
X156204318Y-100480047D01*
X156244367Y-100520095D01*
X156250000Y-100548414D01*
X156250000Y-100932764D01*
X156259927Y-101000893D01*
X156259927Y-101000894D01*
X156311301Y-101105982D01*
X156394017Y-101188698D01*
X156499105Y-101240072D01*
X156567235Y-101249999D01*
X156567246Y-101250000D01*
X157000000Y-101250000D01*
X157000000Y-99250000D01*
X156567235Y-99250000D01*
X156499106Y-99259927D01*
X156499105Y-99259927D01*
X156394017Y-99311301D01*
X156311301Y-99394017D01*
X156259927Y-99499105D01*
X156259927Y-99499106D01*
X156250000Y-99567235D01*
X156250000Y-99757289D01*
X156228326Y-99809615D01*
X156176000Y-99831289D01*
X156123674Y-99809615D01*
X155366200Y-99052142D01*
X155366196Y-99052139D01*
X155310437Y-99014880D01*
X155310434Y-99014879D01*
X155222452Y-98997378D01*
X155222450Y-98997378D01*
X155156010Y-99010594D01*
X155100461Y-98999545D01*
X155089247Y-98990342D01*
X155048332Y-98949427D01*
X155026658Y-98897101D01*
X155027569Y-98885526D01*
X155031862Y-98858422D01*
X155061453Y-98810133D01*
X155116525Y-98796910D01*
X155119387Y-98797421D01*
X155173601Y-98808209D01*
X155173606Y-98808209D01*
X155173645Y-98808213D01*
X155225356Y-98808213D01*
X155270211Y-98808217D01*
X155270212Y-98808216D01*
X155277240Y-98808217D01*
X155277293Y-98808213D01*
X155461169Y-98808213D01*
X155505522Y-98826584D01*
X155506945Y-98824626D01*
X155511654Y-98828047D01*
X155511656Y-98828048D01*
X155511658Y-98828050D01*
X155624696Y-98885646D01*
X155750000Y-98905492D01*
X155875304Y-98885646D01*
X155988342Y-98828050D01*
X156078050Y-98738342D01*
X156135646Y-98625304D01*
X156155492Y-98500000D01*
X156153639Y-98488303D01*
X156166860Y-98433234D01*
X156215150Y-98403639D01*
X156238301Y-98403639D01*
X156250000Y-98405492D01*
X156375304Y-98385646D01*
X156488342Y-98328050D01*
X156578050Y-98238342D01*
X156635646Y-98125304D01*
X156655492Y-98000000D01*
X156635646Y-97874696D01*
X156578050Y-97761658D01*
X156488342Y-97671950D01*
X156375304Y-97614354D01*
X156375300Y-97614353D01*
X156375298Y-97614352D01*
X156375299Y-97614352D01*
X156367154Y-97613062D01*
X156318864Y-97583467D01*
X156305646Y-97528394D01*
X156326410Y-97487646D01*
X156334524Y-97479534D01*
X156371784Y-97423773D01*
X156389286Y-97335787D01*
X156389006Y-97334381D01*
X156383602Y-97307211D01*
X156371784Y-97247801D01*
X156368682Y-97243159D01*
X156353154Y-97219920D01*
X156334525Y-97192040D01*
X156197048Y-97054564D01*
X156141287Y-97017304D01*
X156141284Y-97017303D01*
X156087141Y-97006533D01*
X156040049Y-96975067D01*
X156029000Y-96948393D01*
X156018230Y-96894247D01*
X155980971Y-96838486D01*
X155843494Y-96701010D01*
X155787733Y-96663750D01*
X155787730Y-96663749D01*
X155699748Y-96646248D01*
X155699746Y-96646248D01*
X155611759Y-96663750D01*
X155556005Y-96701004D01*
X155556002Y-96701007D01*
X154587676Y-97669334D01*
X154587672Y-97669338D01*
X154550414Y-97725096D01*
X154550413Y-97725099D01*
X154532912Y-97813082D01*
X154532912Y-97813083D01*
X154550414Y-97901069D01*
X154568403Y-97927991D01*
X154580875Y-97969104D01*
X154580875Y-98111799D01*
X154580873Y-98111821D01*
X154580873Y-98133072D01*
X154580872Y-98133076D01*
X154580875Y-98182990D01*
X154580875Y-98208574D01*
X154580876Y-98215479D01*
X154580876Y-98215481D01*
X154592777Y-98275304D01*
X154601072Y-98316999D01*
X154612344Y-98344211D01*
X154612344Y-98400848D01*
X154572297Y-98440897D01*
X154555554Y-98445619D01*
X154504078Y-98453772D01*
X154391036Y-98511370D01*
X154301331Y-98601075D01*
X154243733Y-98714117D01*
X154223888Y-98839419D01*
X154223888Y-98839423D01*
X154224033Y-98840339D01*
X154223888Y-98840942D01*
X154223888Y-98845243D01*
X154222856Y-98845243D01*
X154210810Y-98895410D01*
X154162520Y-98925001D01*
X154071951Y-98939345D01*
X154071949Y-98939345D01*
X154071949Y-98939346D01*
X154021010Y-98965301D01*
X153958909Y-98996943D01*
X153956826Y-98999027D01*
X153954999Y-98999783D01*
X153954198Y-99000366D01*
X153954058Y-99000173D01*
X153904500Y-99020701D01*
X153852174Y-98999027D01*
X153830500Y-98946701D01*
X153830500Y-98155627D01*
X153830856Y-98148373D01*
X153834410Y-98112293D01*
X153843229Y-98022761D01*
X153846056Y-98008556D01*
X153881637Y-97891267D01*
X153887180Y-97877886D01*
X153944962Y-97769787D01*
X153953014Y-97757739D01*
X154033182Y-97660057D01*
X154038045Y-97654693D01*
X154074334Y-97618405D01*
X154074345Y-97618390D01*
X154817675Y-96875062D01*
X155374345Y-96318390D01*
X155374360Y-96318379D01*
X155393553Y-96299186D01*
X155409890Y-96282847D01*
X155417150Y-96276479D01*
X155446915Y-96253639D01*
X155463631Y-96243987D01*
X155493755Y-96231509D01*
X155512409Y-96226509D01*
X155549510Y-96221623D01*
X155559171Y-96220991D01*
X156086435Y-96220991D01*
X156138761Y-96242665D01*
X156142646Y-96246550D01*
X156192226Y-96279678D01*
X156270457Y-96295239D01*
X156348689Y-96279678D01*
X156398268Y-96246550D01*
X156638328Y-96006490D01*
X156671456Y-95956911D01*
X156687017Y-95878679D01*
X156671456Y-95800448D01*
X156638328Y-95750868D01*
X156327558Y-95440098D01*
X156277978Y-95406970D01*
X156212324Y-95393910D01*
X156165233Y-95362443D01*
X156154184Y-95335770D01*
X156141126Y-95270118D01*
X156107998Y-95220538D01*
X155797228Y-94909768D01*
X155747648Y-94876640D01*
X155723904Y-94871917D01*
X155686105Y-94864398D01*
X155639013Y-94832932D01*
X155627964Y-94806257D01*
X155623924Y-94785950D01*
X155615518Y-94743690D01*
X155584042Y-94696582D01*
X155260524Y-94373064D01*
X155249258Y-94365536D01*
X155213415Y-94341587D01*
X155150847Y-94329141D01*
X155103755Y-94297674D01*
X155092707Y-94270999D01*
X155090956Y-94262198D01*
X155080466Y-94209458D01*
X155047338Y-94159878D01*
X154736568Y-93849108D01*
X154733754Y-93847228D01*
X154720115Y-93838114D01*
X154686988Y-93815980D01*
X154663249Y-93811258D01*
X154625445Y-93803738D01*
X154578353Y-93772272D01*
X154567304Y-93745597D01*
X154560309Y-93710435D01*
X154554858Y-93683030D01*
X154523382Y-93635922D01*
X154199864Y-93312404D01*
X154185717Y-93302951D01*
X154152755Y-93280927D01*
X154094297Y-93269299D01*
X154047205Y-93237833D01*
X154036157Y-93211161D01*
X154024528Y-93152700D01*
X153993052Y-93105592D01*
X153669534Y-92782074D01*
X153622426Y-92750598D01*
X153622425Y-92750597D01*
X153563967Y-92738969D01*
X153516875Y-92707503D01*
X153505827Y-92680831D01*
X153494198Y-92622370D01*
X153462722Y-92575262D01*
X153139204Y-92251744D01*
X153092096Y-92220268D01*
X153017767Y-92205482D01*
X153017766Y-92205482D01*
X152943437Y-92220267D01*
X152896333Y-92251741D01*
X152643519Y-92504555D01*
X152612045Y-92551659D01*
X152597980Y-92622370D01*
X152597260Y-92625989D01*
X152612046Y-92700318D01*
X152622452Y-92715892D01*
X152643521Y-92747425D01*
X152799638Y-92903542D01*
X152821312Y-92955868D01*
X152821312Y-93500176D01*
X152799638Y-93552502D01*
X152747312Y-93574176D01*
X152694987Y-93552503D01*
X152678828Y-93536344D01*
X152661514Y-93519030D01*
X152605753Y-93481770D01*
X152605750Y-93481769D01*
X152551607Y-93470999D01*
X152504515Y-93439533D01*
X152493466Y-93412858D01*
X152482696Y-93358713D01*
X152445437Y-93302952D01*
X152307960Y-93165476D01*
X152252199Y-93128216D01*
X152252196Y-93128215D01*
X152164214Y-93110714D01*
X152164212Y-93110714D01*
X152076225Y-93128216D01*
X152020471Y-93165470D01*
X151748081Y-93437860D01*
X151695755Y-93459534D01*
X151643429Y-93437860D01*
X150780831Y-92575262D01*
X148092930Y-89887359D01*
X148092918Y-89887344D01*
X148087612Y-89882039D01*
X148087612Y-89882038D01*
X148059317Y-89853746D01*
X148052951Y-89846487D01*
X148018196Y-89801198D01*
X148008537Y-89784470D01*
X147988564Y-89736256D01*
X147983567Y-89717607D01*
X147976135Y-89661178D01*
X147975501Y-89651516D01*
X147975501Y-87871544D01*
X147997174Y-87819219D01*
X148078051Y-87738343D01*
X148135647Y-87625305D01*
X148155493Y-87500001D01*
X148135647Y-87374697D01*
X148078051Y-87261659D01*
X147988343Y-87171951D01*
X147875305Y-87114355D01*
X147875303Y-87114354D01*
X147875302Y-87114354D01*
X147750001Y-87094509D01*
X147624699Y-87114354D01*
X147511657Y-87171952D01*
X147421952Y-87261657D01*
X147364354Y-87374699D01*
X147344509Y-87500001D01*
X147364354Y-87625302D01*
X147364354Y-87625303D01*
X147364355Y-87625305D01*
X147421951Y-87738343D01*
X147502827Y-87819219D01*
X147524501Y-87871544D01*
X147524501Y-89604718D01*
X147524498Y-89604752D01*
X147524499Y-89625567D01*
X147524479Y-89625616D01*
X147524484Y-89727698D01*
X147552372Y-89867855D01*
X147552373Y-89867858D01*
X147552374Y-89867861D01*
X147607070Y-89999892D01*
X147686473Y-90118716D01*
X147734199Y-90166438D01*
X148547874Y-90980114D01*
X148569548Y-91032439D01*
X148547874Y-91084765D01*
X148513098Y-91119541D01*
X148460772Y-91141215D01*
X148408446Y-91119541D01*
X144059328Y-86770423D01*
X144052952Y-86763153D01*
X144018203Y-86717866D01*
X144008553Y-86701151D01*
X143988582Y-86652935D01*
X143983585Y-86634280D01*
X143982360Y-86624972D01*
X143997021Y-86570265D01*
X144003393Y-86562998D01*
X144078050Y-86488342D01*
X144135646Y-86375304D01*
X144155492Y-86250000D01*
X144135646Y-86124696D01*
X144078050Y-86011658D01*
X144036392Y-85970000D01*
X148034508Y-85970000D01*
X148054353Y-86095301D01*
X148054353Y-86095302D01*
X148054354Y-86095304D01*
X148111950Y-86208342D01*
X148201658Y-86298050D01*
X148314696Y-86355646D01*
X148440000Y-86375492D01*
X148565304Y-86355646D01*
X148678342Y-86298050D01*
X148768050Y-86208342D01*
X148825646Y-86095304D01*
X148845492Y-85970000D01*
X148839551Y-85932491D01*
X148852772Y-85877420D01*
X148860314Y-85868590D01*
X148864551Y-85864353D01*
X148899578Y-85829326D01*
X148906837Y-85822960D01*
X148952135Y-85788202D01*
X148968845Y-85778555D01*
X149017066Y-85758581D01*
X149035714Y-85753586D01*
X149092334Y-85746132D01*
X149101989Y-85745500D01*
X149141959Y-85745501D01*
X149141961Y-85745500D01*
X150053592Y-85745500D01*
X150060846Y-85745856D01*
X150190028Y-85758584D01*
X150201062Y-85759671D01*
X150215290Y-85762501D01*
X150266613Y-85778071D01*
X150346635Y-85802347D01*
X150360034Y-85807898D01*
X150481078Y-85872602D01*
X150493134Y-85880657D01*
X150575306Y-85948097D01*
X150602221Y-85970186D01*
X150607602Y-85975064D01*
X150642679Y-86010143D01*
X150642693Y-86010154D01*
X153641717Y-89009178D01*
X153641736Y-89009200D01*
X153675077Y-89042539D01*
X153679955Y-89047920D01*
X153769359Y-89156854D01*
X153777418Y-89168915D01*
X153842120Y-89289956D01*
X153847672Y-89303358D01*
X153887519Y-89434704D01*
X153890349Y-89448931D01*
X153904143Y-89588938D01*
X153904500Y-89596194D01*
X153904500Y-91331074D01*
X153903866Y-91340738D01*
X153893006Y-91423187D01*
X153888006Y-91441845D01*
X153858045Y-91514167D01*
X153848385Y-91530896D01*
X153823065Y-91563890D01*
X153774014Y-91592206D01*
X153736549Y-91583462D01*
X153735225Y-91586661D01*
X153728492Y-91583872D01*
X153712546Y-91580700D01*
X153654163Y-91569086D01*
X153654162Y-91569086D01*
X153618937Y-91576093D01*
X153563388Y-91565044D01*
X153531922Y-91517952D01*
X153530500Y-91503515D01*
X153530500Y-91487516D01*
X153531253Y-91476985D01*
X153535133Y-91450000D01*
X153531253Y-91423012D01*
X153530500Y-91412482D01*
X153530500Y-91390691D01*
X153523233Y-91363573D01*
X153521468Y-91354964D01*
X153518890Y-91337032D01*
X153516697Y-91321774D01*
X153513083Y-91313860D01*
X153507980Y-91302686D01*
X153503815Y-91291103D01*
X153499799Y-91276114D01*
X153482632Y-91246382D01*
X153479412Y-91240134D01*
X153462882Y-91203937D01*
X153453259Y-91192832D01*
X153445097Y-91181369D01*
X153440491Y-91173390D01*
X153440487Y-91173385D01*
X153411808Y-91144706D01*
X153408207Y-91140838D01*
X153392895Y-91123166D01*
X153382064Y-91106636D01*
X153354563Y-91049133D01*
X152949026Y-90201191D01*
X152946060Y-90195312D01*
X152943124Y-90189787D01*
X152939900Y-90184019D01*
X152936085Y-90177522D01*
X152928927Y-90166438D01*
X152928919Y-90166425D01*
X152921699Y-90156223D01*
X152921694Y-90156217D01*
X152921688Y-90156208D01*
X152913624Y-90145779D01*
X152908778Y-90140033D01*
X152904426Y-90135090D01*
X152904421Y-90135084D01*
X152903240Y-90133798D01*
X152900184Y-90130472D01*
X152895621Y-90125711D01*
X151513321Y-88743411D01*
X151513320Y-88743410D01*
X151513316Y-88743406D01*
X151494779Y-88727574D01*
X151494776Y-88727571D01*
X151494766Y-88727563D01*
X151494760Y-88727559D01*
X151494747Y-88727548D01*
X151476042Y-88713959D01*
X151476038Y-88713957D01*
X151476036Y-88713955D01*
X151461389Y-88704980D01*
X151447729Y-88694211D01*
X151405789Y-88652271D01*
X151395018Y-88638608D01*
X151388025Y-88627196D01*
X151386045Y-88623964D01*
X151386040Y-88623957D01*
X151386040Y-88623956D01*
X151372451Y-88605252D01*
X151372442Y-88605241D01*
X151372437Y-88605234D01*
X151359125Y-88589648D01*
X151356593Y-88586683D01*
X151337305Y-88567395D01*
X151323045Y-88547353D01*
X151237453Y-88370819D01*
X150542158Y-86936774D01*
X150537740Y-86925329D01*
X150536696Y-86921772D01*
X150527979Y-86902684D01*
X150523815Y-86891103D01*
X150519799Y-86876113D01*
X150502630Y-86846375D01*
X150499410Y-86840129D01*
X150482882Y-86803937D01*
X150473263Y-86792836D01*
X150465105Y-86781380D01*
X150461352Y-86774880D01*
X150460952Y-86774178D01*
X150453376Y-86760719D01*
X150445647Y-86748442D01*
X150444182Y-86746350D01*
X150436897Y-86735947D01*
X150426470Y-86722512D01*
X150409701Y-86704804D01*
X150405510Y-86700379D01*
X150405509Y-86700378D01*
X150383696Y-86681460D01*
X150358820Y-86663841D01*
X150358813Y-86663837D01*
X150344059Y-86655426D01*
X150344029Y-86655410D01*
X150330436Y-86648522D01*
X150317201Y-86642612D01*
X150317184Y-86642605D01*
X150311090Y-86640235D01*
X150302966Y-86637076D01*
X150260166Y-86622809D01*
X150217347Y-86608537D01*
X150211400Y-86606686D01*
X150205755Y-86605054D01*
X150204215Y-86604642D01*
X150199678Y-86603428D01*
X150199676Y-86603427D01*
X150199648Y-86603420D01*
X150192728Y-86601717D01*
X150180471Y-86599219D01*
X150168754Y-86597319D01*
X150156365Y-86595817D01*
X150156356Y-86595816D01*
X150156354Y-86595816D01*
X150149227Y-86595241D01*
X150149222Y-86595240D01*
X150149201Y-86595239D01*
X150142932Y-86594860D01*
X150137004Y-86594624D01*
X150130798Y-86594500D01*
X150130792Y-86594500D01*
X150070494Y-86594500D01*
X150063861Y-86594642D01*
X150058835Y-86594856D01*
X150057512Y-86594913D01*
X150050863Y-86595340D01*
X150043273Y-86595993D01*
X150043267Y-86595993D01*
X150043264Y-86595994D01*
X150030057Y-86597702D01*
X150017578Y-86599863D01*
X150017571Y-86599864D01*
X150017568Y-86599865D01*
X150004535Y-86602703D01*
X149997168Y-86604642D01*
X149990747Y-86606479D01*
X149984753Y-86608334D01*
X149978406Y-86610448D01*
X149322715Y-86844624D01*
X149314702Y-86847738D01*
X149307179Y-86850905D01*
X149299353Y-86854456D01*
X149290598Y-86858724D01*
X149290538Y-86858755D01*
X149275561Y-86867113D01*
X149275559Y-86867114D01*
X149261757Y-86875850D01*
X149261742Y-86875859D01*
X149247784Y-86885813D01*
X149240126Y-86891941D01*
X149233618Y-86897449D01*
X149227488Y-86902935D01*
X149221271Y-86908817D01*
X149012870Y-87117218D01*
X149002623Y-87128524D01*
X149002612Y-87128537D01*
X148993412Y-87139748D01*
X148984339Y-87151983D01*
X148984334Y-87151990D01*
X148983489Y-87153255D01*
X148983473Y-87153281D01*
X148969126Y-87180113D01*
X148969125Y-87180115D01*
X148958074Y-87206777D01*
X148949213Y-87235989D01*
X148949208Y-87236006D01*
X148948993Y-87237090D01*
X148946273Y-87258366D01*
X148945086Y-87278766D01*
X148945086Y-87278779D01*
X148945325Y-87300273D01*
X148945325Y-87300277D01*
X148945681Y-87304689D01*
X148945814Y-87306339D01*
X148947319Y-87318752D01*
X148949221Y-87330475D01*
X148949223Y-87330488D01*
X148949224Y-87330490D01*
X148951720Y-87342739D01*
X148953433Y-87349696D01*
X148955041Y-87355706D01*
X148956678Y-87361367D01*
X148958539Y-87367349D01*
X149175305Y-88017651D01*
X149173410Y-88069513D01*
X149034042Y-88403998D01*
X148965960Y-88567395D01*
X148965540Y-88568402D01*
X148962775Y-88575530D01*
X148960308Y-88582387D01*
X148957891Y-88589663D01*
X148955348Y-88597998D01*
X148955346Y-88598004D01*
X148955345Y-88598010D01*
X148951595Y-88612900D01*
X148951591Y-88612915D01*
X148951591Y-88612919D01*
X148948738Y-88627187D01*
X148948731Y-88627230D01*
X148946476Y-88642352D01*
X148946475Y-88642361D01*
X148946036Y-88646792D01*
X148946036Y-88646795D01*
X148946736Y-88656336D01*
X148946934Y-88661718D01*
X148946934Y-88664003D01*
X148947730Y-88669863D01*
X148949931Y-88699858D01*
X148949931Y-88699859D01*
X148949932Y-88699861D01*
X148960828Y-88743406D01*
X148962044Y-88748266D01*
X148983596Y-88796902D01*
X148984337Y-88798012D01*
X148984347Y-88798026D01*
X148993420Y-88810260D01*
X148993423Y-88810264D01*
X149002626Y-88821478D01*
X149012875Y-88832785D01*
X149116340Y-88936250D01*
X149171386Y-88991296D01*
X149183145Y-89006621D01*
X149184634Y-89009200D01*
X149195487Y-89027997D01*
X152107789Y-91940300D01*
X152129164Y-91952640D01*
X152144489Y-91964399D01*
X152312719Y-92132629D01*
X152363167Y-92166337D01*
X152415493Y-92188011D01*
X152454703Y-92198518D01*
X152534507Y-92188011D01*
X152586833Y-92166337D01*
X152637281Y-92132629D01*
X152842736Y-91927174D01*
X152895062Y-91905500D01*
X153101279Y-91905500D01*
X153101291Y-91905500D01*
X153116541Y-91904750D01*
X153130981Y-91903327D01*
X153132953Y-91903034D01*
X153146057Y-91901091D01*
X153146067Y-91901089D01*
X153146066Y-91901089D01*
X153146074Y-91901088D01*
X153146943Y-91900915D01*
X153202497Y-91911942D01*
X153233981Y-91959021D01*
X153233988Y-91987917D01*
X153233656Y-91989586D01*
X153233656Y-91989592D01*
X153233656Y-91989593D01*
X153237205Y-92007434D01*
X153248441Y-92063919D01*
X153248441Y-92063921D01*
X153274819Y-92103398D01*
X153279918Y-92111030D01*
X153603436Y-92434548D01*
X153650544Y-92466024D01*
X153709003Y-92477653D01*
X153756094Y-92509118D01*
X153767143Y-92535793D01*
X153778771Y-92594251D01*
X153799978Y-92625989D01*
X153810248Y-92641360D01*
X154133766Y-92964878D01*
X154180874Y-92996354D01*
X154239333Y-93007983D01*
X154286424Y-93039448D01*
X154297473Y-93066123D01*
X154309101Y-93124581D01*
X154330308Y-93156319D01*
X154340578Y-93171690D01*
X154664096Y-93495208D01*
X154711204Y-93526684D01*
X154785533Y-93541470D01*
X154859863Y-93526684D01*
X154906970Y-93495208D01*
X155159778Y-93242400D01*
X155191254Y-93195293D01*
X155206040Y-93120963D01*
X155191254Y-93046634D01*
X155159778Y-92999526D01*
X155003662Y-92843410D01*
X154981988Y-92791084D01*
X154981988Y-91902136D01*
X155003662Y-91849810D01*
X155055988Y-91828136D01*
X155108314Y-91849810D01*
X155115854Y-91858639D01*
X155126802Y-91873707D01*
X155185236Y-91954137D01*
X155185238Y-91954139D01*
X155185241Y-91954143D01*
X155211280Y-91980182D01*
X155215630Y-91984533D01*
X155215636Y-91984540D01*
X155221722Y-91990626D01*
X155221723Y-91990628D01*
X155242929Y-92011834D01*
X155253439Y-92022344D01*
X155269986Y-92038892D01*
X155295563Y-92064469D01*
X155295565Y-92064470D01*
X155617174Y-92386079D01*
X155623550Y-92393349D01*
X155674185Y-92459342D01*
X155683841Y-92476068D01*
X155713795Y-92548389D01*
X155718794Y-92567050D01*
X155729661Y-92649620D01*
X155730294Y-92659278D01*
X155730293Y-92707774D01*
X155730295Y-92707791D01*
X155730295Y-93646166D01*
X155708621Y-93698492D01*
X155697407Y-93707695D01*
X155654049Y-93736665D01*
X155401235Y-93989479D01*
X155369761Y-94036583D01*
X155355696Y-94107294D01*
X155354976Y-94110913D01*
X155369762Y-94185242D01*
X155401238Y-94232350D01*
X155724756Y-94555868D01*
X155771864Y-94587344D01*
X155846193Y-94602130D01*
X155920523Y-94587344D01*
X155967630Y-94555868D01*
X156220438Y-94303060D01*
X156251914Y-94255953D01*
X156266700Y-94181623D01*
X156251914Y-94107294D01*
X156220438Y-94060186D01*
X156202969Y-94042717D01*
X156181295Y-93990391D01*
X156181295Y-92602368D01*
X156181282Y-92602237D01*
X156181283Y-92589364D01*
X156160961Y-92461026D01*
X156120812Y-92337448D01*
X156061826Y-92221673D01*
X156052676Y-92209079D01*
X155985459Y-92116557D01*
X155985454Y-92116550D01*
X155981637Y-92112733D01*
X155981637Y-92112732D01*
X155932824Y-92063919D01*
X155903592Y-92034684D01*
X155903572Y-92034667D01*
X155574917Y-91706012D01*
X155570040Y-91700630D01*
X155480654Y-91591710D01*
X155472594Y-91579649D01*
X155407893Y-91458598D01*
X155402345Y-91445201D01*
X155398598Y-91432848D01*
X155362504Y-91313855D01*
X155359676Y-91299638D01*
X155345855Y-91159298D01*
X155345500Y-91152052D01*
X155345500Y-91140838D01*
X155345501Y-91110934D01*
X155345500Y-91110931D01*
X155345500Y-89190069D01*
X155345500Y-89182638D01*
X155345482Y-89182463D01*
X155345484Y-89134546D01*
X155314082Y-88936250D01*
X155252045Y-88745308D01*
X155252042Y-88745302D01*
X155252042Y-88745301D01*
X155191884Y-88627230D01*
X155160902Y-88566422D01*
X155160901Y-88566421D01*
X155160902Y-88566421D01*
X155042898Y-88403998D01*
X155042897Y-88403996D01*
X155042891Y-88403990D01*
X155042886Y-88403984D01*
X155009725Y-88370821D01*
X155009723Y-88370819D01*
X155003632Y-88364728D01*
X155003632Y-88364727D01*
X154970489Y-88331584D01*
X154970488Y-88331582D01*
X154935998Y-88297090D01*
X154935976Y-88297071D01*
X149021681Y-82382776D01*
X149000007Y-82330450D01*
X149000917Y-82318883D01*
X149005492Y-82290000D01*
X148985646Y-82164696D01*
X148928050Y-82051658D01*
X148838342Y-81961950D01*
X148725304Y-81904354D01*
X148725302Y-81904353D01*
X148725301Y-81904353D01*
X148600000Y-81884508D01*
X148474698Y-81904353D01*
X148361656Y-81961951D01*
X148271951Y-82051656D01*
X148214353Y-82164698D01*
X148194508Y-82290000D01*
X148214353Y-82415301D01*
X148214353Y-82415302D01*
X148214354Y-82415304D01*
X148271950Y-82528342D01*
X148361658Y-82618050D01*
X148474696Y-82675646D01*
X148600000Y-82695492D01*
X148646139Y-82688183D01*
X148701209Y-82701404D01*
X148710041Y-82708946D01*
X149409757Y-83408662D01*
X149431431Y-83460988D01*
X149409757Y-83513314D01*
X149357431Y-83534988D01*
X149345856Y-83534077D01*
X149222234Y-83514499D01*
X149222232Y-83514499D01*
X149125783Y-83514500D01*
X149001543Y-83514500D01*
X148949218Y-83492826D01*
X148868342Y-83411950D01*
X148755304Y-83354354D01*
X148755302Y-83354353D01*
X148755301Y-83354353D01*
X148630000Y-83334508D01*
X148504698Y-83354353D01*
X148391656Y-83411951D01*
X148301951Y-83501656D01*
X148244353Y-83614698D01*
X148224508Y-83740000D01*
X148244353Y-83865301D01*
X148244353Y-83865302D01*
X148244354Y-83865304D01*
X148301950Y-83978342D01*
X148391658Y-84068050D01*
X148504696Y-84125646D01*
X148630000Y-84145492D01*
X148755304Y-84125646D01*
X148868342Y-84068050D01*
X148949218Y-83987173D01*
X149001543Y-83965500D01*
X149080932Y-83965500D01*
X149080934Y-83965501D01*
X149122152Y-83965500D01*
X149129404Y-83965856D01*
X149269640Y-83979666D01*
X149283857Y-83982494D01*
X149415205Y-84022336D01*
X149428603Y-84027885D01*
X149503745Y-84068048D01*
X149549659Y-84092589D01*
X149561720Y-84100649D01*
X149670554Y-84189964D01*
X149675936Y-84194841D01*
X150365585Y-84884490D01*
X150387259Y-84936816D01*
X150365585Y-84989142D01*
X150313259Y-85010816D01*
X150303601Y-85010183D01*
X150227882Y-85000215D01*
X150184457Y-84994499D01*
X150184455Y-84994499D01*
X150089588Y-84994500D01*
X149076179Y-84994500D01*
X149023853Y-84972826D01*
X149010245Y-84954095D01*
X148958051Y-84851659D01*
X148868343Y-84761951D01*
X148868342Y-84761950D01*
X148755304Y-84704354D01*
X148755302Y-84704353D01*
X148755301Y-84704353D01*
X148630000Y-84684508D01*
X148504698Y-84704353D01*
X148391656Y-84761951D01*
X148301951Y-84851656D01*
X148244353Y-84964698D01*
X148224508Y-85090000D01*
X148244353Y-85215301D01*
X148244353Y-85215302D01*
X148244354Y-85215304D01*
X148301950Y-85328342D01*
X148301951Y-85328343D01*
X148391659Y-85418051D01*
X148419473Y-85432223D01*
X148456256Y-85475290D01*
X148451812Y-85531752D01*
X148408745Y-85568535D01*
X148397454Y-85571246D01*
X148314698Y-85584353D01*
X148201656Y-85641951D01*
X148111951Y-85731656D01*
X148054353Y-85844698D01*
X148034508Y-85970000D01*
X144036392Y-85970000D01*
X143988342Y-85921950D01*
X143875304Y-85864354D01*
X143875302Y-85864353D01*
X143875301Y-85864353D01*
X143750000Y-85844508D01*
X143624696Y-85864353D01*
X143593105Y-85880450D01*
X143536642Y-85884893D01*
X143493576Y-85848109D01*
X143485511Y-85814515D01*
X143485511Y-85021950D01*
X143486144Y-85012290D01*
X143489642Y-84985723D01*
X143493593Y-84955711D01*
X143498592Y-84937056D01*
X143518561Y-84888849D01*
X143528217Y-84872125D01*
X143562996Y-84826801D01*
X143569362Y-84819543D01*
X143597624Y-84791282D01*
X143597624Y-84791280D01*
X143598592Y-84790313D01*
X143650918Y-84768640D01*
X143662486Y-84769550D01*
X143700000Y-84775492D01*
X143825304Y-84755646D01*
X143938342Y-84698050D01*
X144028050Y-84608342D01*
X144085646Y-84495304D01*
X144105492Y-84370000D01*
X144085646Y-84244696D01*
X144028050Y-84131658D01*
X143938342Y-84041950D01*
X143938340Y-84041948D01*
X143826465Y-83984945D01*
X143789682Y-83941878D01*
X143794126Y-83885416D01*
X143798531Y-83877899D01*
X143872933Y-83766546D01*
X143927622Y-83634512D01*
X143955501Y-83494346D01*
X143955500Y-83422890D01*
X143955500Y-83378035D01*
X143955500Y-83371543D01*
X143977173Y-83319218D01*
X144058050Y-83238342D01*
X144115646Y-83125304D01*
X144135492Y-83000000D01*
X144115646Y-82874696D01*
X144058050Y-82761658D01*
X143968342Y-82671950D01*
X143855304Y-82614354D01*
X143855302Y-82614353D01*
X143855301Y-82614353D01*
X143730000Y-82594508D01*
X143604698Y-82614353D01*
X143491656Y-82671951D01*
X143401951Y-82761656D01*
X143344353Y-82874698D01*
X143324508Y-83000000D01*
X143344353Y-83125301D01*
X143344353Y-83125302D01*
X143344354Y-83125304D01*
X143401950Y-83238342D01*
X143482826Y-83319218D01*
X143504500Y-83371543D01*
X143504500Y-83372070D01*
X143504499Y-83372084D01*
X143504499Y-83418048D01*
X143503866Y-83427705D01*
X143496419Y-83484281D01*
X143491419Y-83502942D01*
X143471453Y-83551145D01*
X143461794Y-83567876D01*
X143427072Y-83613126D01*
X143420690Y-83620403D01*
X143224953Y-83816141D01*
X143125157Y-83915937D01*
X143125156Y-83915938D01*
X143115118Y-83925975D01*
X143115094Y-83925985D01*
X143025237Y-84015845D01*
X143025231Y-84015852D01*
X142911853Y-84171907D01*
X142824280Y-84343782D01*
X142764674Y-84527240D01*
X142764672Y-84527247D01*
X142734499Y-84717765D01*
X142734500Y-84769359D01*
X142734500Y-86553149D01*
X142734520Y-86553359D01*
X142734519Y-86578050D01*
X142734519Y-86587066D01*
X142761396Y-86756810D01*
X142761396Y-86756813D01*
X142814496Y-86920259D01*
X142814498Y-86920264D01*
X142892516Y-87073393D01*
X142892518Y-87073397D01*
X142964120Y-87171951D01*
X142993532Y-87212435D01*
X143019992Y-87238895D01*
X143019998Y-87238903D01*
X143043883Y-87262788D01*
X143043884Y-87262790D01*
X143096416Y-87315322D01*
X143096418Y-87315323D01*
X147118127Y-91337032D01*
X147123004Y-91342413D01*
X147212396Y-91451337D01*
X147220455Y-91463398D01*
X147285159Y-91584447D01*
X147290710Y-91597848D01*
X147330557Y-91729194D01*
X147333387Y-91743420D01*
X147337394Y-91784084D01*
X147344740Y-91858641D01*
X147347187Y-91883469D01*
X147347544Y-91890726D01*
X147347544Y-92254444D01*
X147325870Y-92306770D01*
X147163445Y-92469195D01*
X147163443Y-92469196D01*
X147131968Y-92516304D01*
X147120339Y-92574763D01*
X147088872Y-92621854D01*
X147062199Y-92632903D01*
X147003739Y-92644532D01*
X147003400Y-92644759D01*
X147002999Y-92644838D01*
X146997007Y-92647321D01*
X146996512Y-92646128D01*
X146947850Y-92655804D01*
X146909966Y-92635553D01*
X146287940Y-92013527D01*
X146287932Y-92013517D01*
X146269179Y-91994765D01*
X146269166Y-91994734D01*
X146238830Y-91964399D01*
X146176520Y-91902091D01*
X146176516Y-91902088D01*
X146176514Y-91902086D01*
X146014093Y-91784084D01*
X145835209Y-91692942D01*
X145835196Y-91692936D01*
X145644274Y-91630904D01*
X145644262Y-91630901D01*
X145644261Y-91630901D01*
X145644259Y-91630900D01*
X145644256Y-91630900D01*
X145445964Y-91599497D01*
X145445963Y-91599497D01*
X145345578Y-91599499D01*
X144955649Y-91599499D01*
X144955646Y-91599498D01*
X144848617Y-91599498D01*
X144698798Y-91629299D01*
X144698791Y-91629301D01*
X144557661Y-91687759D01*
X144430649Y-91772626D01*
X144322625Y-91880650D01*
X144237756Y-92007666D01*
X144179301Y-92148791D01*
X144179299Y-92148798D01*
X144149498Y-92298618D01*
X144149498Y-94241774D01*
X144149497Y-94241788D01*
X144149497Y-94265659D01*
X144149485Y-94265689D01*
X144149487Y-94396708D01*
X144179685Y-94587344D01*
X144180898Y-94595003D01*
X144238112Y-94771079D01*
X144242942Y-94785944D01*
X144242944Y-94785950D01*
X144334091Y-94964828D01*
X144452102Y-95127253D01*
X144454420Y-95129571D01*
X144476094Y-95181897D01*
X144474672Y-95196334D01*
X144465532Y-95242282D01*
X144465532Y-95242283D01*
X144480317Y-95316612D01*
X144511791Y-95363716D01*
X144511794Y-95363720D01*
X144758916Y-95610842D01*
X144780590Y-95663167D01*
X144764699Y-95707598D01*
X144765149Y-95707899D01*
X144763951Y-95709692D01*
X144763807Y-95710095D01*
X144763133Y-95710916D01*
X144711097Y-95788808D01*
X144711093Y-95788816D01*
X144675260Y-95875353D01*
X144656996Y-95967230D01*
X144657003Y-96010245D01*
X144657003Y-96073231D01*
X144656994Y-96073325D01*
X144656997Y-96094500D01*
X144656967Y-96094574D01*
X144656972Y-96125184D01*
X144656979Y-96171733D01*
X144656980Y-96172021D01*
X144661945Y-96196964D01*
X144650903Y-96252514D01*
X144641696Y-96263735D01*
X144617861Y-96287570D01*
X144586383Y-96334680D01*
X144573937Y-96397249D01*
X144542470Y-96444341D01*
X144515796Y-96455389D01*
X144454254Y-96467631D01*
X144404674Y-96500758D01*
X144404673Y-96500760D01*
X144093905Y-96811528D01*
X144093903Y-96811529D01*
X144060776Y-96861108D01*
X144054185Y-96894245D01*
X144045215Y-96939340D01*
X144060776Y-97017572D01*
X144071517Y-97033647D01*
X144085493Y-97054564D01*
X144093904Y-97067151D01*
X144333964Y-97307211D01*
X144383543Y-97340339D01*
X144461775Y-97355900D01*
X144540006Y-97340339D01*
X144589586Y-97307211D01*
X144900356Y-96996441D01*
X144933484Y-96946861D01*
X144945725Y-96885316D01*
X144977190Y-96838226D01*
X145003864Y-96827176D01*
X145066434Y-96814730D01*
X145113542Y-96783254D01*
X145437060Y-96459736D01*
X145468536Y-96412628D01*
X145480165Y-96354168D01*
X145511630Y-96307077D01*
X145538302Y-96296029D01*
X145596764Y-96284400D01*
X145643872Y-96252924D01*
X145661341Y-96235455D01*
X145713667Y-96213781D01*
X146044001Y-96213781D01*
X146044091Y-96213789D01*
X146051430Y-96213787D01*
X146051433Y-96213789D01*
X146091452Y-96213781D01*
X146101074Y-96214410D01*
X146105905Y-96215045D01*
X146141307Y-96229710D01*
X146142397Y-96230546D01*
X146144041Y-96231808D01*
X146171562Y-96276071D01*
X146188877Y-96363114D01*
X146226131Y-96418867D01*
X146226133Y-96418869D01*
X146226136Y-96418873D01*
X147194463Y-97387199D01*
X147250224Y-97424459D01*
X147308881Y-97436127D01*
X147338209Y-97441961D01*
X147338210Y-97441961D01*
X147338211Y-97441961D01*
X147355713Y-97438479D01*
X147426196Y-97424459D01*
X147481957Y-97387200D01*
X147619433Y-97249723D01*
X147656693Y-97193962D01*
X147667463Y-97139816D01*
X147698929Y-97092725D01*
X147725602Y-97081676D01*
X147779749Y-97070906D01*
X147779755Y-97070901D01*
X147780017Y-97070794D01*
X147780311Y-97070793D01*
X147786897Y-97069484D01*
X147787157Y-97070793D01*
X147836654Y-97070791D01*
X147876705Y-97110838D01*
X147882339Y-97139160D01*
X147882339Y-98595989D01*
X147881982Y-98603245D01*
X147869128Y-98733712D01*
X147866298Y-98747938D01*
X147829300Y-98869899D01*
X147823749Y-98883301D01*
X147763666Y-98995705D01*
X147755607Y-99007766D01*
X147672376Y-99109185D01*
X147667499Y-99114566D01*
X147414322Y-99367743D01*
X147361996Y-99389417D01*
X147309670Y-99367743D01*
X146929212Y-98987285D01*
X146929208Y-98987282D01*
X146827953Y-98945342D01*
X146718353Y-98945342D01*
X146671598Y-98964708D01*
X146643280Y-98970341D01*
X146340243Y-98970341D01*
X146279320Y-98995575D01*
X146265440Y-98999786D01*
X146189561Y-99014880D01*
X146133807Y-99052134D01*
X146133804Y-99052137D01*
X145165478Y-100020464D01*
X145165477Y-100020464D01*
X145128215Y-100076227D01*
X145125428Y-100082958D01*
X145124496Y-100082572D01*
X145108159Y-100113137D01*
X144955079Y-100266217D01*
X144902753Y-100287891D01*
X144888316Y-100286469D01*
X144845659Y-100277984D01*
X144767427Y-100293545D01*
X144717851Y-100326670D01*
X144477785Y-100566736D01*
X144444660Y-100616312D01*
X144431056Y-100684707D01*
X144429099Y-100694544D01*
X144429816Y-100698149D01*
X144444660Y-100772775D01*
X144477787Y-100822354D01*
X144788558Y-101133125D01*
X144833123Y-101162902D01*
X144864589Y-101209994D01*
X144853540Y-101265543D01*
X144844337Y-101276757D01*
X144481049Y-101640046D01*
X144481045Y-101640049D01*
X144473510Y-101647583D01*
X144468131Y-101652459D01*
X144412240Y-101698324D01*
X144400176Y-101706383D01*
X144339646Y-101738732D01*
X144326245Y-101744282D01*
X144260559Y-101764205D01*
X144246329Y-101767035D01*
X144174121Y-101774142D01*
X144166873Y-101774498D01*
X144152845Y-101774498D01*
X144145597Y-101774142D01*
X144073664Y-101767062D01*
X144059434Y-101764233D01*
X143993743Y-101744309D01*
X143980341Y-101738758D01*
X143919803Y-101706404D01*
X143907745Y-101698348D01*
X143852060Y-101652652D01*
X143846689Y-101647784D01*
X143714917Y-101516012D01*
X143710040Y-101510630D01*
X143620654Y-101401710D01*
X143612594Y-101389649D01*
X143547893Y-101268598D01*
X143542345Y-101255201D01*
X143502504Y-101123855D01*
X143499676Y-101109638D01*
X143485855Y-100969298D01*
X143485500Y-100962052D01*
X143485500Y-100943653D01*
X143485501Y-100920934D01*
X143485500Y-100920931D01*
X143485500Y-99541961D01*
X143485501Y-99541959D01*
X143485500Y-99501951D01*
X143486133Y-99492294D01*
X143493580Y-99435715D01*
X143498580Y-99417057D01*
X143518546Y-99368854D01*
X143528204Y-99352125D01*
X143545953Y-99328993D01*
X143562927Y-99306871D01*
X143569301Y-99299602D01*
X143608590Y-99260313D01*
X143660915Y-99238640D01*
X143672488Y-99239550D01*
X143710000Y-99245492D01*
X143835304Y-99225646D01*
X143948342Y-99168050D01*
X144038050Y-99078342D01*
X144095646Y-98965304D01*
X144115492Y-98840000D01*
X144095646Y-98714696D01*
X144038050Y-98601658D01*
X143958718Y-98522326D01*
X143937044Y-98470000D01*
X143958718Y-98417674D01*
X143972753Y-98403639D01*
X143988050Y-98388342D01*
X144045646Y-98275304D01*
X144065492Y-98150000D01*
X144045646Y-98024696D01*
X143988050Y-97911658D01*
X143898342Y-97821950D01*
X143785304Y-97764354D01*
X143785302Y-97764353D01*
X143785301Y-97764353D01*
X143660000Y-97744508D01*
X143534698Y-97764353D01*
X143421656Y-97821951D01*
X143331951Y-97911656D01*
X143274353Y-98024698D01*
X143254508Y-98150000D01*
X143260443Y-98187477D01*
X143247220Y-98242549D01*
X143239681Y-98251377D01*
X143159887Y-98331174D01*
X143022198Y-98510622D01*
X143022195Y-98510626D01*
X142909100Y-98706521D01*
X142822545Y-98915493D01*
X142822544Y-98915497D01*
X142764006Y-99133979D01*
X142764005Y-99133986D01*
X142734487Y-99358240D01*
X142734489Y-99443071D01*
X142734489Y-100960687D01*
X142734488Y-100960701D01*
X142734488Y-100980858D01*
X142734485Y-100980866D01*
X142734485Y-101111498D01*
X141750000Y-101111498D01*
X141750000Y-97740000D01*
X144664508Y-97740000D01*
X144684353Y-97865301D01*
X144684353Y-97865302D01*
X144684354Y-97865304D01*
X144741950Y-97978342D01*
X144831658Y-98068050D01*
X144944696Y-98125646D01*
X145054931Y-98143105D01*
X145103222Y-98172698D01*
X145116445Y-98227765D01*
X145114508Y-98239999D01*
X145134353Y-98365301D01*
X145134353Y-98365302D01*
X145134354Y-98365304D01*
X145191950Y-98478342D01*
X145281658Y-98568050D01*
X145394696Y-98625646D01*
X145520000Y-98645492D01*
X145645304Y-98625646D01*
X145750717Y-98571934D01*
X145807179Y-98567491D01*
X145836637Y-98585542D01*
X145905523Y-98654429D01*
X145960288Y-98709194D01*
X145960429Y-98709299D01*
X145968504Y-98714696D01*
X146038301Y-98761348D01*
X146038302Y-98761348D01*
X146038303Y-98761349D01*
X146124823Y-98797203D01*
X146124825Y-98797204D01*
X146216681Y-98815492D01*
X146216700Y-98815492D01*
X146216774Y-98815500D01*
X146218698Y-98815500D01*
X146263510Y-98815500D01*
X146263517Y-98815500D01*
X146308365Y-98815509D01*
X146308368Y-98815507D01*
X146315508Y-98815509D01*
X146315611Y-98815500D01*
X146334700Y-98815500D01*
X146371394Y-98808208D01*
X146426704Y-98797217D01*
X146426705Y-98797216D01*
X146426707Y-98797216D01*
X146452002Y-98786743D01*
X146513245Y-98761388D01*
X146591133Y-98709363D01*
X146591136Y-98709359D01*
X146591167Y-98709339D01*
X146592558Y-98707947D01*
X146592560Y-98707947D01*
X146624460Y-98676047D01*
X146655976Y-98644541D01*
X146655976Y-98644538D01*
X146661382Y-98639135D01*
X146661429Y-98639076D01*
X146737728Y-98562778D01*
X146737731Y-98562776D01*
X146748136Y-98552371D01*
X146748137Y-98552371D01*
X146779854Y-98520654D01*
X146779853Y-98520653D01*
X146801526Y-98498981D01*
X146801526Y-98498980D01*
X146811571Y-98488936D01*
X146811571Y-98488934D01*
X146812935Y-98487571D01*
X146812957Y-98487537D01*
X146812961Y-98487534D01*
X146864997Y-98409661D01*
X146900843Y-98323133D01*
X146919121Y-98231275D01*
X146919125Y-98231257D01*
X146919125Y-98182990D01*
X146919127Y-98163723D01*
X146919129Y-98139591D01*
X146919128Y-98139589D01*
X146919129Y-98132561D01*
X146919125Y-98132509D01*
X146919125Y-98102231D01*
X146917590Y-98094508D01*
X146901268Y-98012368D01*
X146912321Y-97956835D01*
X146912321Y-97956834D01*
X146912326Y-97956830D01*
X146949586Y-97901069D01*
X146967088Y-97813083D01*
X146949586Y-97725097D01*
X146949585Y-97725095D01*
X146912331Y-97669341D01*
X146912328Y-97669338D01*
X146912327Y-97669336D01*
X145944000Y-96701010D01*
X145888239Y-96663750D01*
X145888236Y-96663749D01*
X145800254Y-96646248D01*
X145800252Y-96646248D01*
X145712265Y-96663750D01*
X145656508Y-96701007D01*
X145656505Y-96701009D01*
X145519030Y-96838486D01*
X145519026Y-96838491D01*
X145481770Y-96894246D01*
X145481769Y-96894249D01*
X145470999Y-96948393D01*
X145439532Y-96995484D01*
X145412859Y-97006533D01*
X145358710Y-97017304D01*
X145302954Y-97054561D01*
X145302951Y-97054563D01*
X145165476Y-97192040D01*
X145165472Y-97192045D01*
X145128216Y-97247800D01*
X145128215Y-97247803D01*
X145122362Y-97277226D01*
X145090894Y-97324317D01*
X145061360Y-97335876D01*
X144944698Y-97354353D01*
X144831656Y-97411951D01*
X144741951Y-97501656D01*
X144741950Y-97501658D01*
X144693686Y-97596382D01*
X144684353Y-97614698D01*
X144664508Y-97740000D01*
X141750000Y-97740000D01*
X141750000Y-81250785D01*
X141750018Y-81249174D01*
X141750037Y-81248299D01*
X141752254Y-81146505D01*
X141753359Y-81135282D01*
X141789164Y-80932225D01*
X141792502Y-80919771D01*
X141800285Y-80898388D01*
X141862739Y-80726795D01*
X141868181Y-80715122D01*
X141970870Y-80537259D01*
X141978263Y-80526702D01*
X142110271Y-80369381D01*
X142119381Y-80360271D01*
X142276702Y-80228263D01*
X142287259Y-80220870D01*
X142465122Y-80118181D01*
X142476795Y-80112739D01*
X142669775Y-80042500D01*
X142682225Y-80039164D01*
X142885282Y-80003359D01*
X142896505Y-80002254D01*
X142995961Y-80000088D01*
X142999175Y-80000018D01*
X143000786Y-80000000D01*
X147748199Y-80000000D01*
X147751802Y-80000088D01*
G37*
%TD.AperFunction*%
%TD*%
%TA.AperFunction,Conductor*%
%TO.N,+5V*%
G36*
X150136722Y-86750237D02*
G01*
X150143849Y-86750812D01*
X150155572Y-86752714D01*
X150162526Y-86754425D01*
X150168189Y-86756063D01*
X150253794Y-86784597D01*
X150267033Y-86790509D01*
X150281813Y-86798934D01*
X150303626Y-86817852D01*
X150314053Y-86831287D01*
X150321781Y-86843563D01*
X150399727Y-86999455D01*
X150399998Y-87000001D01*
X150400266Y-87000549D01*
X150551513Y-87312495D01*
X151192647Y-88634835D01*
X151201146Y-88649177D01*
X151201153Y-88649187D01*
X151211914Y-88661914D01*
X151246634Y-88696634D01*
X151260242Y-88715364D01*
X151271950Y-88738342D01*
X151361658Y-88828050D01*
X151384636Y-88839758D01*
X151403366Y-88853366D01*
X152785666Y-90235666D01*
X152789908Y-90240284D01*
X152794754Y-90246030D01*
X152801993Y-90256260D01*
X152805808Y-90262757D01*
X152808744Y-90268282D01*
X153338430Y-91375810D01*
X153341567Y-91383435D01*
X153344800Y-91392733D01*
X153348445Y-91408796D01*
X153349540Y-91418580D01*
X153350000Y-91426809D01*
X153350000Y-91501290D01*
X153348578Y-91515729D01*
X153345259Y-91532412D01*
X153334210Y-91559085D01*
X153324760Y-91573228D01*
X153315557Y-91584442D01*
X153184442Y-91715557D01*
X153173228Y-91724760D01*
X153159085Y-91734210D01*
X153132413Y-91745258D01*
X153115731Y-91748577D01*
X153101291Y-91750000D01*
X152841421Y-91750000D01*
X152815909Y-91755074D01*
X152803152Y-91757612D01*
X152770711Y-91779288D01*
X152770710Y-91779290D01*
X152527326Y-92022674D01*
X152475000Y-92044348D01*
X152422674Y-92022674D01*
X149122830Y-88722830D01*
X149113627Y-88711616D01*
X149112892Y-88710516D01*
X149100781Y-88662115D01*
X149101220Y-88657680D01*
X149104078Y-88643384D01*
X149106629Y-88635022D01*
X149109087Y-88628188D01*
X149335599Y-88084563D01*
X149343224Y-88049752D01*
X149338159Y-88014478D01*
X149106064Y-87318192D01*
X149104425Y-87312522D01*
X149102714Y-87305572D01*
X149100812Y-87293849D01*
X149100324Y-87287793D01*
X149101511Y-87267399D01*
X149101727Y-87266312D01*
X149112773Y-87239662D01*
X149113629Y-87238381D01*
X149122825Y-87227174D01*
X149331211Y-87018788D01*
X149337294Y-87013344D01*
X149344921Y-87007242D01*
X149358716Y-86998511D01*
X149367504Y-86994227D01*
X149375019Y-86991064D01*
X150030709Y-86756889D01*
X150036735Y-86755024D01*
X150044111Y-86753083D01*
X150056590Y-86750922D01*
X150064170Y-86750270D01*
X150070494Y-86750000D01*
X150130792Y-86750000D01*
X150136722Y-86750237D01*
G37*
%TD.AperFunction*%
%TD*%
%TA.AperFunction,Conductor*%
%TO.N,+1V8*%
G36*
X147607114Y-103265079D02*
G01*
X147631119Y-103281119D01*
X147889478Y-103539478D01*
X147911152Y-103591804D01*
X147889478Y-103644130D01*
X147708595Y-103825013D01*
X147677121Y-103872117D01*
X147662336Y-103946446D01*
X147662336Y-103946447D01*
X147677122Y-104020776D01*
X147708598Y-104067884D01*
X148032116Y-104391402D01*
X148079224Y-104422878D01*
X148116493Y-104430291D01*
X148163584Y-104461756D01*
X148174634Y-104488432D01*
X148181844Y-104524678D01*
X148214972Y-104574258D01*
X148525742Y-104885028D01*
X148575322Y-104918156D01*
X148653553Y-104933717D01*
X148731785Y-104918156D01*
X148781364Y-104885028D01*
X148955872Y-104710519D01*
X149008195Y-104688847D01*
X149060521Y-104710521D01*
X149318880Y-104968880D01*
X149334921Y-104992887D01*
X149346848Y-105021681D01*
X149346848Y-105078320D01*
X149334921Y-105107113D01*
X149318880Y-105131119D01*
X149234442Y-105215557D01*
X149223228Y-105224760D01*
X149209085Y-105234210D01*
X149182413Y-105245258D01*
X149165731Y-105248577D01*
X149151291Y-105250000D01*
X148652758Y-105250000D01*
X148600432Y-105228326D01*
X148594375Y-105220431D01*
X148593903Y-105220794D01*
X148590952Y-105216948D01*
X148571401Y-105197397D01*
X148525694Y-105151690D01*
X148525691Y-105151688D01*
X148525690Y-105151687D01*
X148447684Y-105106650D01*
X148424299Y-105079982D01*
X148422205Y-105081382D01*
X148385028Y-105025742D01*
X148087615Y-104728329D01*
X148075855Y-104713002D01*
X148060624Y-104686622D01*
X148060624Y-104686621D01*
X148060622Y-104686619D01*
X148060621Y-104686617D01*
X147995364Y-104621360D01*
X147938130Y-104588315D01*
X147913602Y-104565341D01*
X147891405Y-104532120D01*
X147891401Y-104532115D01*
X147567883Y-104208597D01*
X147520776Y-104177122D01*
X147483504Y-104169707D01*
X147436413Y-104138239D01*
X147425365Y-104111565D01*
X147418156Y-104075322D01*
X147385028Y-104025742D01*
X147371674Y-104012388D01*
X147350000Y-103960062D01*
X147350000Y-103448709D01*
X147351422Y-103434274D01*
X147354740Y-103417591D01*
X147365787Y-103390917D01*
X147375243Y-103376765D01*
X147384437Y-103365562D01*
X147468883Y-103281116D01*
X147492885Y-103265079D01*
X147521682Y-103253151D01*
X147578318Y-103253151D01*
X147607114Y-103265079D01*
G37*
%TD.AperFunction*%
%TD*%
D45*
X152250000Y-80000000D02*
X157000000Y-80000000D01*
X148500000Y-81000000D02*
X151500000Y-81000000D01*
X157000000Y-108500000D02*
X156100000Y-108500000D01*
X141750000Y-107250000D02*
X141750000Y-81250000D01*
X156100000Y-120000000D02*
X156100000Y-108500000D01*
X148000000Y-80250000D02*
X148000000Y-80500000D01*
X152000000Y-80250000D02*
G75*
G02*
X152250000Y-80000000I250000J0D01*
G01*
X143900000Y-120000000D02*
X143900000Y-108500000D01*
X141750000Y-81250000D02*
G75*
G02*
X143000000Y-80000000I1250000J0D01*
G01*
X147750000Y-80000000D02*
G75*
G02*
X148000000Y-80250000I0J-250000D01*
G01*
X143000000Y-108500000D02*
G75*
G02*
X141750000Y-107250000I0J1250000D01*
G01*
X143900000Y-120000000D02*
X156100000Y-120000000D01*
X158250000Y-81250000D02*
X158250000Y-107250000D01*
X143000000Y-80000000D02*
X147750000Y-80000000D01*
X158250000Y-107250000D02*
G75*
G02*
X157000000Y-108500000I-1250000J0D01*
G01*
X157000000Y-80000000D02*
G75*
G02*
X158250000Y-81250000I0J-1250000D01*
G01*
X148500000Y-81000000D02*
G75*
G02*
X148000000Y-80500000I0J500000D01*
G01*
X143900000Y-108500000D02*
X143000000Y-108500000D01*
X152000000Y-80500000D02*
G75*
G02*
X151500000Y-81000000I-500000J0D01*
G01*
X152000000Y-80500000D02*
X152000000Y-80250000D01*
M02*
