%TF.GenerationSoftware,KiCad,Pcbnew,8.99.0-344-gfbc433deaa-dirty*%
%TF.CreationDate,2024-03-11T18:50:45+01:00*%
%TF.ProjectId,StickHub,53746963-6b48-4756-922e-6b696361645f,rev?*%
%TF.SameCoordinates,Original*%
%TF.FileFunction,Component,L2,Bot*%
%TF.FilePolarity,Positive*%
%FSLAX46Y46*%
G04 Gerber Fmt 4.6, Leading zero omitted, Abs format (unit mm)*
G04 Created by KiCad (PCBNEW 8.99.0-344-gfbc433deaa-dirty) date 2024-03-11 18:50:45*
%MOMM*%
%LPD*%
G01*
G04 APERTURE LIST*
%TA.AperFunction,ComponentMain*%
%ADD10C,0.300000*%
%TD*%
%TA.AperFunction,ComponentOutline,Courtyard*%
%ADD11C,0.100000*%
%TD*%
%TA.AperFunction,ComponentPin*%
%ADD12P,0.360000X4X0.000000*%
%TD*%
%TA.AperFunction,ComponentPin*%
%ADD13C,0.100000*%
%TD*%
%TA.AperFunction,ComponentOutline,Footprint*%
%ADD14C,0.100000*%
%TD*%
%TA.AperFunction,Profile*%
%ADD15C,0.100000*%
%TD*%
G04 APERTURE END LIST*
D10*
%TO.C,C36*%
%TO.CFtp,1608_C*%
%TO.CVal,22uF 10V*%
%TO.CLbN,Capacitor_SMD*%
%TO.CMnt,SMD*%
%TO.CRot,-135*%
X151392893Y-88342893D03*
D11*
X151781802Y-87296016D02*
X151845620Y-87313116D01*
X151845620Y-87313117D01*
X151870189Y-87335267D01*
X152400519Y-87865597D01*
X152422293Y-87890385D01*
X152439338Y-87953989D01*
X152422304Y-88017596D01*
X152400519Y-88042372D01*
X151092372Y-89350519D01*
X151067803Y-89372670D01*
X151003984Y-89389771D01*
X150940164Y-89372670D01*
X150940165Y-89372670D01*
X150915597Y-89350519D01*
X150385267Y-88820189D01*
X150363498Y-88795401D01*
X150346462Y-88731801D01*
X150363497Y-88668201D01*
X150385267Y-88643414D01*
X151693414Y-87335267D01*
X151717983Y-87313117D01*
X151717982Y-87313116D01*
X151781802Y-87296016D01*
D12*
%TO.P,C36,1*%
X150915596Y-88820190D03*
D13*
%TO.P,C36,2*%
X151870190Y-87865596D03*
%TD*%
D10*
%TO.C,R7*%
%TO.CFtp,1005_C*%
%TO.CVal,470*%
%TO.CLbN,Resistor_SMD*%
%TO.CMnt,SMD*%
%TO.CRot,45*%
X153371320Y-92343146D03*
D11*
X153654163Y-91614466D02*
X153717982Y-91631566D01*
X153717982Y-91631567D01*
X153742550Y-91653718D01*
X154060748Y-91971916D01*
X154082902Y-91996483D01*
X154100007Y-92060303D01*
X154082900Y-92124122D01*
X154060748Y-92148691D01*
X153176865Y-93032574D01*
X153152296Y-93054724D01*
X153088478Y-93071824D01*
X153024658Y-93054723D01*
X153024659Y-93054723D01*
X153000090Y-93032574D01*
X152681892Y-92714376D01*
X152660123Y-92689589D01*
X152643089Y-92625992D01*
X152660132Y-92562397D01*
X152681892Y-92537601D01*
X153565775Y-91653718D01*
X153590344Y-91631567D01*
X153590343Y-91631566D01*
X153654163Y-91614466D01*
D12*
%TO.P,R7,1*%
X153689518Y-92024948D03*
D13*
%TO.P,R7,2*%
X153053122Y-92661344D03*
%TD*%
D10*
%TO.C,C32*%
%TO.CFtp,1608_C*%
%TO.CVal,22uF 10V*%
%TO.CLbN,Capacitor_SMD*%
%TO.CMnt,SMD*%
%TO.CRot,-90*%
X142650000Y-104600000D03*
D11*
X142275000Y-103550001D02*
X143025000Y-103550001D01*
X143057923Y-103552130D01*
X143114948Y-103585053D01*
X143147870Y-103642077D01*
X143149999Y-103675000D01*
X143149999Y-105525000D01*
X143147870Y-105557923D01*
X143114948Y-105614947D01*
X143057923Y-105647870D01*
X143025000Y-105649999D01*
X142275000Y-105649999D01*
X142242077Y-105647870D01*
X142185052Y-105614947D01*
X142152130Y-105557923D01*
X142150001Y-105525000D01*
X142150001Y-103675000D01*
X142152130Y-103642077D01*
X142185052Y-103585053D01*
X142242077Y-103552130D01*
X142275000Y-103550001D01*
D12*
%TO.P,C32,1*%
X142650000Y-105275000D03*
D13*
%TO.P,C32,2*%
X142650000Y-103925000D03*
%TD*%
D10*
%TO.C,D23*%
%TO.CFtp,1006_C*%
%TO.CVal,TVS*%
%TO.CLbN,Diode_SMD*%
%TO.CMnt,SMD*%
%TO.CRot,90*%
X146250000Y-107200000D03*
D11*
X145975000Y-106450001D02*
X146525000Y-106450001D01*
X146557923Y-106452130D01*
X146614948Y-106485053D01*
X146647870Y-106542077D01*
X146649999Y-106575000D01*
X146649999Y-107825000D01*
X146647870Y-107857923D01*
X146614948Y-107914947D01*
X146557923Y-107947870D01*
X146525000Y-107949999D01*
X145975000Y-107949999D01*
X145942077Y-107947870D01*
X145885052Y-107914947D01*
X145852130Y-107857923D01*
X145850001Y-107825000D01*
X145850001Y-106575000D01*
X145852130Y-106542077D01*
X145885052Y-106485053D01*
X145942077Y-106452130D01*
X145975000Y-106450001D01*
D12*
%TO.P,D23,1,A1*%
X146250000Y-106750000D03*
D13*
%TO.P,D23,2,A2*%
X146250000Y-107650000D03*
%TD*%
D10*
%TO.C,C37*%
%TO.CFtp,1608_C*%
%TO.CVal,22uF 10V*%
%TO.CLbN,Capacitor_SMD*%
%TO.CMnt,SMD*%
%TO.CRot,-135*%
X150685786Y-87635786D03*
D11*
X151074695Y-86588910D02*
X151138513Y-86606009D01*
X151138513Y-86606010D01*
X151163082Y-86628160D01*
X151693412Y-87158490D01*
X151715161Y-87183294D01*
X151732206Y-87246884D01*
X151715177Y-87310478D01*
X151693412Y-87335265D01*
X150385265Y-88643412D01*
X150360697Y-88665563D01*
X150296878Y-88682664D01*
X150233058Y-88665563D01*
X150233059Y-88665563D01*
X150208490Y-88643412D01*
X149678160Y-88113082D01*
X149655998Y-88088520D01*
X149638892Y-88024696D01*
X149656002Y-87960874D01*
X149678160Y-87936307D01*
X150986307Y-86628160D01*
X151010876Y-86606011D01*
X151010875Y-86606010D01*
X151074695Y-86588910D01*
D12*
%TO.P,C37,1*%
X150208489Y-88113083D03*
D13*
%TO.P,C37,2*%
X151163083Y-87158489D03*
%TD*%
D10*
%TO.C,C11*%
%TO.CFtp,1005_C*%
%TO.CVal,0.1uF*%
%TO.CLbN,Capacitor_SMD*%
%TO.CMnt,SMD*%
%TO.CRot,-135*%
X154962310Y-93934136D03*
D11*
X155245153Y-93205457D02*
X155308971Y-93222557D01*
X155308971Y-93222558D01*
X155333540Y-93244708D01*
X155651738Y-93562906D01*
X155673896Y-93587472D01*
X155691007Y-93651295D01*
X155673901Y-93715119D01*
X155651738Y-93739681D01*
X154767855Y-94623564D01*
X154743286Y-94645714D01*
X154679468Y-94662815D01*
X154615648Y-94645714D01*
X154615649Y-94645714D01*
X154591080Y-94623564D01*
X154272882Y-94305366D01*
X154251117Y-94280579D01*
X154234089Y-94216985D01*
X154251133Y-94153394D01*
X154272882Y-94128591D01*
X155156765Y-93244708D01*
X155181334Y-93222558D01*
X155181333Y-93222557D01*
X155245153Y-93205457D01*
D12*
%TO.P,C11,1*%
X154644112Y-94252334D03*
D13*
%TO.P,C11,2*%
X155280508Y-93615938D03*
%TD*%
D10*
%TO.C,R13*%
%TO.CFtp,1005_C*%
%TO.CVal,470*%
%TO.CLbN,Resistor_SMD*%
%TO.CMnt,SMD*%
%TO.CRot,135*%
X147891242Y-92873476D03*
D11*
X147608400Y-92144797D02*
X147672218Y-92161897D01*
X147672218Y-92161898D01*
X147696787Y-92184048D01*
X148580670Y-93067931D01*
X148602817Y-93092499D01*
X148619912Y-93156313D01*
X148602804Y-93220124D01*
X148580670Y-93244706D01*
X148262472Y-93562904D01*
X148237903Y-93585054D01*
X148174085Y-93602154D01*
X148110265Y-93585053D01*
X148110266Y-93585053D01*
X148085697Y-93562904D01*
X147201814Y-92679021D01*
X147179655Y-92654451D01*
X147162539Y-92590624D01*
X147179631Y-92526790D01*
X147201814Y-92502246D01*
X147520012Y-92184048D01*
X147544581Y-92161898D01*
X147544580Y-92161897D01*
X147608400Y-92144797D01*
D12*
%TO.P,R13,1*%
X147573044Y-92555278D03*
D13*
%TO.P,R13,2*%
X148209440Y-93191674D03*
%TD*%
D10*
%TO.C,U2*%
%TO.CFtp,TDFN-8_1.5x2mm_Fused-Lead_JEDEC_MO-252_W2015D*%
%TO.CVal,Dialog_SLG5NT1487V*%
%TO.CLbN,Package_DFN_QFN*%
%TO.CMnt,SMD*%
%TO.CRot,45*%
X154900000Y-105850000D03*
D11*
X154744616Y-104435339D02*
X154843252Y-104435339D01*
X154934377Y-104473084D01*
X154934377Y-104473085D01*
X154970710Y-104506498D01*
X156243502Y-105779290D01*
X156276593Y-105815842D01*
X156314288Y-105906831D01*
X156314298Y-106005321D01*
X156276620Y-106096317D01*
X156243502Y-106132842D01*
X155182842Y-107193502D01*
X155146318Y-107226629D01*
X155055316Y-107264323D01*
X154956816Y-107264323D01*
X154865813Y-107226629D01*
X154865814Y-107226629D01*
X154829290Y-107193502D01*
X153556498Y-105920710D01*
X153523407Y-105884158D01*
X153485712Y-105793169D01*
X153485702Y-105694679D01*
X153523380Y-105603683D01*
X153556498Y-105567158D01*
X154617158Y-104506498D01*
X154653491Y-104473085D01*
X154653490Y-104473084D01*
X154744616Y-104435339D01*
D12*
%TO.P,U2,1,VDD*%
X154811612Y-104877728D03*
D13*
%TO.P,U2,2,ON*%
X155165165Y-105231282D03*
%TO.P,U2,3,D*%
X155637159Y-105819948D03*
%TO.P,U2,5,S*%
X154869948Y-106587159D03*
%TO.P,U2,7,CAP*%
X154281282Y-106115165D03*
%TO.P,U2,8,GND*%
X153927728Y-105761612D03*
%TD*%
D10*
%TO.C,J9*%
%TO.CFtp,1P-1.5x1.5*%
%TO.CVal,EXTGND*%
%TO.CLbN,SH_Solder_Pads*%
%TO.CMnt,TH*%
%TO.CRot,180*%
X157250000Y-100250000D03*
D14*
X156500000Y-101000000D02*
X156500000Y-99500000D01*
X158000000Y-99500000D01*
X158000000Y-101000000D01*
X156500000Y-101000000D01*
D12*
%TO.P,J9,1,Pin_1*%
X157250000Y-100250000D03*
%TD*%
D10*
%TO.C,R4*%
%TO.CFtp,1005_C*%
%TO.CVal,100k*%
%TO.CLbN,Resistor_SMD*%
%TO.CMnt,SMD*%
%TO.CRot,135*%
X147360912Y-93403806D03*
D11*
X147078070Y-92675127D02*
X147141888Y-92692227D01*
X147141888Y-92692228D01*
X147166457Y-92714378D01*
X148050340Y-93598261D01*
X148072483Y-93622827D01*
X148089568Y-93686635D01*
X148072448Y-93750434D01*
X148050340Y-93775036D01*
X147732142Y-94093234D01*
X147707573Y-94115384D01*
X147643755Y-94132484D01*
X147579935Y-94115383D01*
X147579936Y-94115383D01*
X147555367Y-94093234D01*
X146671484Y-93209351D01*
X146649723Y-93184564D01*
X146632702Y-93120974D01*
X146649750Y-93057391D01*
X146671484Y-93032576D01*
X146989682Y-92714378D01*
X147014251Y-92692228D01*
X147014250Y-92692227D01*
X147078070Y-92675127D01*
D12*
%TO.P,R4,1*%
X147042714Y-93085608D03*
D13*
%TO.P,R4,2*%
X147679110Y-93722004D03*
%TD*%
D10*
%TO.C,C8*%
%TO.CFtp,1005_C*%
%TO.CVal,0.1uF*%
%TO.CLbN,Capacitor_SMD*%
%TO.CMnt,SMD*%
%TO.CRot,-135*%
X155750000Y-101600000D03*
D11*
X156032843Y-100871321D02*
X156096661Y-100888421D01*
X156096661Y-100888422D01*
X156121230Y-100910572D01*
X156439428Y-101228770D01*
X156461208Y-101253559D01*
X156478264Y-101317169D01*
X156461239Y-101380788D01*
X156439428Y-101405545D01*
X155555545Y-102289428D01*
X155530976Y-102311578D01*
X155467158Y-102328679D01*
X155403338Y-102311578D01*
X155403339Y-102311578D01*
X155378770Y-102289428D01*
X155060572Y-101971230D01*
X155038792Y-101946441D01*
X155021736Y-101882831D01*
X155038761Y-101819212D01*
X155060572Y-101794455D01*
X155944455Y-100910572D01*
X155969024Y-100888422D01*
X155969023Y-100888421D01*
X156032843Y-100871321D01*
D12*
%TO.P,C8,1*%
X155431802Y-101918198D03*
D13*
%TO.P,C8,2*%
X156068198Y-101281802D03*
%TD*%
D10*
%TO.C,R11*%
%TO.CFtp,1005_C*%
%TO.CVal,470*%
%TO.CLbN,Resistor_SMD*%
%TO.CMnt,SMD*%
%TO.CRot,135*%
X148951902Y-91812816D03*
D11*
X148669060Y-91084137D02*
X148732878Y-91101237D01*
X148732878Y-91101238D01*
X148757447Y-91123388D01*
X149641330Y-92007271D01*
X149663110Y-92032060D01*
X149680165Y-92095670D01*
X149663139Y-92159288D01*
X149641330Y-92184046D01*
X149323132Y-92502244D01*
X149298563Y-92524394D01*
X149234745Y-92541494D01*
X149170925Y-92524393D01*
X149170926Y-92524393D01*
X149146357Y-92502244D01*
X148262474Y-91618361D01*
X148240712Y-91593573D01*
X148223687Y-91529981D01*
X148240731Y-91466394D01*
X148262474Y-91441586D01*
X148580672Y-91123388D01*
X148605241Y-91101238D01*
X148605240Y-91101237D01*
X148669060Y-91084137D01*
D12*
%TO.P,R11,1*%
X148633704Y-91494618D03*
D13*
%TO.P,R11,2*%
X149270100Y-92131014D03*
%TD*%
D10*
%TO.C,C6*%
%TO.CFtp,1005_C*%
%TO.CVal,0.1uF*%
%TO.CLbN,Capacitor_SMD*%
%TO.CMnt,SMD*%
%TO.CRot,45*%
X146050000Y-102550000D03*
D11*
X146332843Y-101821320D02*
X146396662Y-101838420D01*
X146396662Y-101838421D01*
X146421230Y-101860572D01*
X146739428Y-102178770D01*
X146761208Y-102203559D01*
X146778264Y-102267169D01*
X146761239Y-102330788D01*
X146739428Y-102355545D01*
X145855545Y-103239428D01*
X145830976Y-103261578D01*
X145767158Y-103278678D01*
X145703338Y-103261577D01*
X145703339Y-103261577D01*
X145678770Y-103239428D01*
X145360572Y-102921230D01*
X145338792Y-102896441D01*
X145321736Y-102832831D01*
X145338761Y-102769212D01*
X145360572Y-102744455D01*
X146244455Y-101860572D01*
X146269024Y-101838421D01*
X146269023Y-101838420D01*
X146332843Y-101821320D01*
D12*
%TO.P,C6,1*%
X146368198Y-102231802D03*
D13*
%TO.P,C6,2*%
X145731802Y-102868198D03*
%TD*%
D10*
%TO.C,C2*%
%TO.CFtp,1005_C*%
%TO.CVal,0.1uF*%
%TO.CLbN,Capacitor_SMD*%
%TO.CMnt,SMD*%
%TO.CRot,-45*%
X144178932Y-96585787D03*
D11*
X143896090Y-95857109D02*
X143959908Y-95874208D01*
X143959908Y-95874209D01*
X143984477Y-95896359D01*
X144868360Y-96780242D01*
X144890543Y-96804788D01*
X144907639Y-96868621D01*
X144890521Y-96932449D01*
X144868360Y-96957017D01*
X144550162Y-97275215D01*
X144525593Y-97297365D01*
X144461775Y-97314466D01*
X144397955Y-97297365D01*
X144397956Y-97297365D01*
X144373387Y-97275215D01*
X143489504Y-96391332D01*
X143467774Y-96366513D01*
X143450722Y-96302932D01*
X143467742Y-96239343D01*
X143489504Y-96214557D01*
X143807702Y-95896359D01*
X143832271Y-95874210D01*
X143832270Y-95874209D01*
X143896090Y-95857109D01*
D12*
%TO.P,C2,1*%
X144497130Y-96903985D03*
D13*
%TO.P,C2,2*%
X143860734Y-96267589D03*
%TD*%
D10*
%TO.C,R6*%
%TO.CFtp,1005_C*%
%TO.CVal,2.7k*%
%TO.CLbN,Resistor_SMD*%
%TO.CMnt,SMD*%
%TO.CRot,45*%
X147800000Y-104300000D03*
D11*
X148082843Y-103571320D02*
X148146662Y-103588420D01*
X148146662Y-103588421D01*
X148171230Y-103610572D01*
X148489428Y-103928770D01*
X148511208Y-103953559D01*
X148528264Y-104017169D01*
X148511239Y-104080788D01*
X148489428Y-104105545D01*
X147605545Y-104989428D01*
X147580976Y-105011578D01*
X147517158Y-105028678D01*
X147453338Y-105011577D01*
X147453339Y-105011577D01*
X147428770Y-104989428D01*
X147110572Y-104671230D01*
X147088792Y-104646441D01*
X147071736Y-104582831D01*
X147088761Y-104519212D01*
X147110572Y-104494455D01*
X147994455Y-103610572D01*
X148019024Y-103588421D01*
X148019023Y-103588420D01*
X148082843Y-103571320D01*
D12*
%TO.P,R6,1*%
X148118198Y-103981802D03*
D13*
%TO.P,R6,2*%
X147481802Y-104618198D03*
%TD*%
D10*
%TO.C,C4*%
%TO.CFtp,1005_C*%
%TO.CVal,10uF 6.3V*%
%TO.CLbN,Capacitor_SMD*%
%TO.CMnt,SMD*%
%TO.CRot,45*%
X148800000Y-105300000D03*
D11*
X149082843Y-104571321D02*
X149146661Y-104588421D01*
X149146661Y-104588422D01*
X149171230Y-104610572D01*
X149489428Y-104928770D01*
X149511155Y-104953590D01*
X149528202Y-105017169D01*
X149511185Y-105080757D01*
X149489428Y-105105545D01*
X148605545Y-105989428D01*
X148580976Y-106011578D01*
X148517158Y-106028679D01*
X148453338Y-106011578D01*
X148453339Y-106011578D01*
X148428770Y-105989428D01*
X148110572Y-105671230D01*
X148088845Y-105646410D01*
X148071798Y-105582831D01*
X148088815Y-105519243D01*
X148110572Y-105494455D01*
X148994455Y-104610572D01*
X149019024Y-104588422D01*
X149019023Y-104588421D01*
X149082843Y-104571321D01*
D12*
%TO.P,C4,1*%
X149118198Y-104981802D03*
D13*
%TO.P,C4,2*%
X148481802Y-105618198D03*
%TD*%
D10*
%TO.C,D24*%
%TO.CFtp,1006_C*%
%TO.CVal,5V*%
%TO.CLbN,Diode_SMD*%
%TO.CMnt,SMD*%
%TO.CRot,90*%
X155900000Y-103100000D03*
D11*
X155625000Y-102350001D02*
X156175000Y-102350001D01*
X156207923Y-102352130D01*
X156264948Y-102385053D01*
X156297870Y-102442077D01*
X156299999Y-102475000D01*
X156299999Y-103725000D01*
X156297870Y-103757923D01*
X156264948Y-103814947D01*
X156207923Y-103847870D01*
X156175000Y-103849999D01*
X155625000Y-103849999D01*
X155592077Y-103847870D01*
X155535052Y-103814947D01*
X155502130Y-103757923D01*
X155500001Y-103725000D01*
X155500001Y-102475000D01*
X155502130Y-102442077D01*
X155535052Y-102385053D01*
X155592077Y-102352130D01*
X155625000Y-102350001D01*
D12*
%TO.P,D24,1,A1*%
X155900000Y-102650000D03*
D13*
%TO.P,D24,2,A2*%
X155900000Y-103550000D03*
%TD*%
D10*
%TO.C,D25*%
%TO.CFtp,1006_C*%
%TO.CVal,5V*%
%TO.CLbN,Diode_SMD*%
%TO.CMnt,SMD*%
%TO.CRot,-135*%
X149150000Y-87650000D03*
D11*
X149397488Y-86885966D02*
X149461306Y-86903066D01*
X149461306Y-86903067D01*
X149485875Y-86925217D01*
X149874783Y-87314125D01*
X149896930Y-87338694D01*
X149914026Y-87402509D01*
X149896921Y-87466322D01*
X149874783Y-87490900D01*
X148990900Y-88374783D01*
X148966331Y-88396933D01*
X148902513Y-88414033D01*
X148838693Y-88396932D01*
X148838694Y-88396932D01*
X148814125Y-88374783D01*
X148425217Y-87985875D01*
X148403070Y-87961306D01*
X148385974Y-87897491D01*
X148403079Y-87833678D01*
X148425217Y-87809100D01*
X149309100Y-86925217D01*
X149333669Y-86903067D01*
X149333668Y-86903066D01*
X149397488Y-86885966D01*
D12*
%TO.P,D25,1,A1*%
X148831802Y-87968198D03*
D13*
%TO.P,D25,2,A2*%
X149468198Y-87331802D03*
%TD*%
D10*
%TO.C,R10*%
%TO.CFtp,1005_C*%
%TO.CVal,470*%
%TO.CLbN,Resistor_SMD*%
%TO.CMnt,SMD*%
%TO.CRot,45*%
X155492640Y-94464466D03*
D11*
X155775483Y-93735786D02*
X155839302Y-93752886D01*
X155839302Y-93752887D01*
X155863870Y-93775038D01*
X156182068Y-94093236D01*
X156204214Y-94117804D01*
X156221307Y-94181617D01*
X156204197Y-94245426D01*
X156182068Y-94270011D01*
X155298185Y-95153894D01*
X155273616Y-95176044D01*
X155209798Y-95193144D01*
X155145978Y-95176043D01*
X155145979Y-95176043D01*
X155121410Y-95153894D01*
X154803212Y-94835696D01*
X154781435Y-94810910D01*
X154764389Y-94747306D01*
X154781429Y-94683701D01*
X154803212Y-94658921D01*
X155687095Y-93775038D01*
X155711664Y-93752887D01*
X155711663Y-93752886D01*
X155775483Y-93735786D01*
D12*
%TO.P,R10,1*%
X155810838Y-94146268D03*
D13*
%TO.P,R10,2*%
X155174442Y-94782664D03*
%TD*%
D10*
%TO.C,R2*%
%TO.CFtp,1005_C*%
%TO.CVal,100k*%
%TO.CLbN,Resistor_SMD*%
%TO.CMnt,SMD*%
%TO.CRot,-45*%
X144709262Y-96055456D03*
D11*
X144426420Y-95326777D02*
X144490238Y-95343877D01*
X144490238Y-95343878D01*
X144514807Y-95366028D01*
X145398690Y-96249911D01*
X145420464Y-96274697D01*
X145437507Y-96338299D01*
X145420466Y-96401901D01*
X145398690Y-96426686D01*
X145080492Y-96744884D01*
X145055923Y-96767034D01*
X144992105Y-96784134D01*
X144928285Y-96767033D01*
X144928286Y-96767033D01*
X144903717Y-96744884D01*
X144019834Y-95861001D01*
X143997678Y-95836433D01*
X143980568Y-95772610D01*
X143997668Y-95708784D01*
X144019834Y-95684226D01*
X144338032Y-95366028D01*
X144362601Y-95343878D01*
X144362600Y-95343877D01*
X144426420Y-95326777D01*
D12*
%TO.P,R2,1*%
X145027460Y-96373654D03*
D13*
%TO.P,R2,2*%
X144391064Y-95737258D03*
%TD*%
D10*
%TO.C,R8*%
%TO.CFtp,1005_C*%
%TO.CVal,470*%
%TO.CLbN,Resistor_SMD*%
%TO.CMnt,SMD*%
%TO.CRot,45*%
X153901650Y-92873476D03*
D11*
X154184493Y-92144797D02*
X154248311Y-92161897D01*
X154248311Y-92161898D01*
X154272880Y-92184048D01*
X154591078Y-92502246D01*
X154613262Y-92526790D01*
X154630355Y-92590624D01*
X154613238Y-92654452D01*
X154591078Y-92679021D01*
X153707195Y-93562904D01*
X153682626Y-93585054D01*
X153618808Y-93602155D01*
X153554988Y-93585054D01*
X153554989Y-93585054D01*
X153530420Y-93562904D01*
X153212222Y-93244706D01*
X153190089Y-93220124D01*
X153172983Y-93156313D01*
X153190076Y-93092499D01*
X153212222Y-93067931D01*
X154096105Y-92184048D01*
X154120674Y-92161898D01*
X154120673Y-92161897D01*
X154184493Y-92144797D01*
D12*
%TO.P,R8,1*%
X154219848Y-92555278D03*
D13*
%TO.P,R8,2*%
X153583452Y-93191674D03*
%TD*%
D10*
%TO.C,C28*%
%TO.CFtp,1005_C*%
%TO.CVal,15nF*%
%TO.CLbN,Capacitor_SMD*%
%TO.CMnt,SMD*%
%TO.CRot,0*%
X152500000Y-107750000D03*
D11*
X151875000Y-107400001D02*
X153125000Y-107400001D01*
X153157923Y-107402130D01*
X153214948Y-107435053D01*
X153247870Y-107492077D01*
X153249999Y-107525000D01*
X153249999Y-107975000D01*
X153247870Y-108007923D01*
X153214948Y-108064947D01*
X153157923Y-108097870D01*
X153125000Y-108099999D01*
X151875000Y-108099999D01*
X151842077Y-108097870D01*
X151785052Y-108064947D01*
X151752130Y-108007923D01*
X151750001Y-107975000D01*
X151750001Y-107525000D01*
X151752130Y-107492077D01*
X151785052Y-107435053D01*
X151842077Y-107402130D01*
X151875000Y-107400001D01*
D12*
%TO.P,C28,1*%
X152950000Y-107750000D03*
D13*
%TO.P,C28,2*%
X152050000Y-107750000D03*
%TD*%
D10*
%TO.C,C3*%
%TO.CFtp,1005_C*%
%TO.CVal,10uF 6.3V*%
%TO.CLbN,Capacitor_SMD*%
%TO.CMnt,SMD*%
%TO.CRot,-135*%
X156553300Y-95525126D03*
D11*
X156836143Y-94796448D02*
X156899961Y-94813547D01*
X156899961Y-94813548D01*
X156924530Y-94835698D01*
X157242728Y-95153896D01*
X157264480Y-95178696D01*
X157281521Y-95242288D01*
X157264492Y-95305883D01*
X157242728Y-95330671D01*
X156358845Y-96214554D01*
X156334277Y-96236705D01*
X156270458Y-96253806D01*
X156206638Y-96236705D01*
X156206639Y-96236705D01*
X156182070Y-96214554D01*
X155863872Y-95896356D01*
X155842072Y-95871591D01*
X155825044Y-95807977D01*
X155842095Y-95744370D01*
X155863872Y-95719581D01*
X156747755Y-94835698D01*
X156772324Y-94813549D01*
X156772323Y-94813548D01*
X156836143Y-94796448D01*
D12*
%TO.P,C3,1*%
X156235102Y-95843324D03*
D13*
%TO.P,C3,2*%
X156871498Y-95206928D03*
%TD*%
D10*
%TO.C,C5*%
%TO.CFtp,1005_C*%
%TO.CVal,0.1uF*%
%TO.CLbN,Capacitor_SMD*%
%TO.CMnt,SMD*%
%TO.CRot,45*%
X148300000Y-104800000D03*
D11*
X148582843Y-104071321D02*
X148646661Y-104088421D01*
X148646661Y-104088422D01*
X148671230Y-104110572D01*
X148989428Y-104428770D01*
X149011155Y-104453590D01*
X149028202Y-104517169D01*
X149011185Y-104580757D01*
X148989428Y-104605545D01*
X148105545Y-105489428D01*
X148080976Y-105511578D01*
X148017158Y-105528679D01*
X147953338Y-105511578D01*
X147953339Y-105511578D01*
X147928770Y-105489428D01*
X147610572Y-105171230D01*
X147588845Y-105146410D01*
X147571798Y-105082831D01*
X147588815Y-105019243D01*
X147610572Y-104994455D01*
X148494455Y-104110572D01*
X148519024Y-104088422D01*
X148519023Y-104088421D01*
X148582843Y-104071321D01*
D12*
%TO.P,C5,1*%
X148618198Y-104481802D03*
D13*
%TO.P,C5,2*%
X147981802Y-105118198D03*
%TD*%
D10*
%TO.C,C22*%
%TO.CFtp,1608_C*%
%TO.CVal,22uF 10V*%
%TO.CLbN,Capacitor_SMD*%
%TO.CMnt,SMD*%
%TO.CRot,-45*%
X153750000Y-107000000D03*
D11*
X153361092Y-105953123D02*
X153424910Y-105970223D01*
X153424910Y-105970224D01*
X153449479Y-105992374D01*
X154757626Y-107300521D01*
X154779393Y-107325309D01*
X154796425Y-107388906D01*
X154779386Y-107452502D01*
X154757626Y-107477296D01*
X154227296Y-108007626D01*
X154202727Y-108029776D01*
X154138909Y-108046876D01*
X154075089Y-108029775D01*
X154075090Y-108029775D01*
X154050521Y-108007626D01*
X152742374Y-106699479D01*
X152720607Y-106674691D01*
X152703575Y-106611094D01*
X152720614Y-106547498D01*
X152742374Y-106522704D01*
X153272704Y-105992374D01*
X153297273Y-105970224D01*
X153297272Y-105970223D01*
X153361092Y-105953123D01*
D12*
%TO.P,C22,1*%
X154227297Y-107477297D03*
D13*
%TO.P,C22,2*%
X153272703Y-106522703D03*
%TD*%
D10*
%TO.C,C26*%
%TO.CFtp,1608_C*%
%TO.CVal,22uF 10V*%
%TO.CLbN,Capacitor_SMD*%
%TO.CMnt,SMD*%
%TO.CRot,45*%
X151200000Y-91350000D03*
D11*
X151588909Y-90303123D02*
X151652727Y-90320223D01*
X151652727Y-90320224D01*
X151677296Y-90342374D01*
X152207626Y-90872704D01*
X152229386Y-90897498D01*
X152246425Y-90961094D01*
X152229393Y-91024691D01*
X152207626Y-91049479D01*
X150899479Y-92357626D01*
X150874910Y-92379776D01*
X150811092Y-92396877D01*
X150747272Y-92379776D01*
X150747273Y-92379776D01*
X150722704Y-92357626D01*
X150192374Y-91827296D01*
X150170614Y-91802502D01*
X150153575Y-91738906D01*
X150170607Y-91675309D01*
X150192374Y-91650521D01*
X151500521Y-90342374D01*
X151525090Y-90320224D01*
X151525089Y-90320223D01*
X151588909Y-90303123D01*
D12*
%TO.P,C26,1*%
X151677297Y-90872703D03*
D13*
%TO.P,C26,2*%
X150722703Y-91827297D03*
%TD*%
D10*
%TO.C,C25*%
%TO.CFtp,1608_C*%
%TO.CVal,22uF 10V*%
%TO.CLbN,Capacitor_SMD*%
%TO.CMnt,SMD*%
%TO.CRot,45*%
X150492893Y-90642893D03*
D11*
X150881802Y-89596015D02*
X150945621Y-89613115D01*
X150945621Y-89613116D01*
X150970189Y-89635267D01*
X151500519Y-90165597D01*
X151522293Y-90190385D01*
X151539338Y-90253989D01*
X151522304Y-90317596D01*
X151500519Y-90342372D01*
X150192372Y-91650519D01*
X150167803Y-91672669D01*
X150103985Y-91689769D01*
X150040165Y-91672668D01*
X150040166Y-91672668D01*
X150015597Y-91650519D01*
X149485267Y-91120189D01*
X149463498Y-91095401D01*
X149446462Y-91031801D01*
X149463497Y-90968201D01*
X149485267Y-90943414D01*
X150793414Y-89635267D01*
X150817983Y-89613116D01*
X150817982Y-89613115D01*
X150881802Y-89596015D01*
D12*
%TO.P,C25,1*%
X150970190Y-90165596D03*
D13*
%TO.P,C25,2*%
X150015596Y-91120190D03*
%TD*%
D10*
%TO.C,Y1*%
%TO.CFtp,Crystal_4-SMD_2.5x2mm*%
%TO.CVal,12MHz 50ppm 16-20pF*%
%TO.CLbN,Crystal*%
%TO.CMnt,SMD*%
%TO.CRot,45*%
X150997487Y-105927135D03*
D11*
X152942029Y-105750358D02*
X150820710Y-107871677D01*
X149052945Y-106103912D01*
X151174264Y-103982593D01*
X152942029Y-105750358D01*
D12*
%TO.P,Y1,1*%
X152093503Y-105821069D03*
D13*
%TO.P,Y1,2,GND*%
X150891421Y-107023151D03*
%TO.P,Y1,3*%
X149901471Y-106033201D03*
%TO.P,Y1,4,GND*%
X151103553Y-104831119D03*
%TD*%
D10*
%TO.C,C34*%
%TO.CFtp,1608_C*%
%TO.CVal,22uF 10V*%
%TO.CLbN,Capacitor_SMD*%
%TO.CMnt,SMD*%
%TO.CRot,-135*%
X152807107Y-89757107D03*
D11*
X153196016Y-88710230D02*
X153259834Y-88727330D01*
X153259834Y-88727331D01*
X153284403Y-88749481D01*
X153814733Y-89279811D01*
X153836502Y-89304599D01*
X153853538Y-89368199D01*
X153836503Y-89431799D01*
X153814733Y-89456586D01*
X152506586Y-90764733D01*
X152482017Y-90786883D01*
X152418199Y-90803984D01*
X152354379Y-90786883D01*
X152354380Y-90786883D01*
X152329811Y-90764733D01*
X151799481Y-90234403D01*
X151777707Y-90209615D01*
X151760662Y-90146011D01*
X151777696Y-90082404D01*
X151799481Y-90057628D01*
X153107628Y-88749481D01*
X153132197Y-88727331D01*
X153132196Y-88727330D01*
X153196016Y-88710230D01*
D12*
%TO.P,C34,1*%
X152329810Y-90234404D03*
D13*
%TO.P,C34,2*%
X153284404Y-89279810D03*
%TD*%
D10*
%TO.C,C29*%
%TO.CFtp,1608_C*%
%TO.CVal,22uF 10V*%
%TO.CLbN,Capacitor_SMD*%
%TO.CMnt,SMD*%
%TO.CRot,90*%
X144150000Y-106700000D03*
D11*
X143775000Y-105650001D02*
X144525000Y-105650001D01*
X144557923Y-105652130D01*
X144614948Y-105685053D01*
X144647870Y-105742077D01*
X144649999Y-105775000D01*
X144649999Y-107625000D01*
X144647870Y-107657923D01*
X144614948Y-107714947D01*
X144557923Y-107747870D01*
X144525000Y-107749999D01*
X143775000Y-107749999D01*
X143742077Y-107747870D01*
X143685052Y-107714947D01*
X143652130Y-107657923D01*
X143650001Y-107625000D01*
X143650001Y-105775000D01*
X143652130Y-105742077D01*
X143685052Y-105685053D01*
X143742077Y-105652130D01*
X143775000Y-105650001D01*
D12*
%TO.P,C29,1*%
X144150000Y-106025000D03*
D13*
%TO.P,C29,2*%
X144150000Y-107375000D03*
%TD*%
D10*
%TO.C,R12*%
%TO.CFtp,1005_C*%
%TO.CVal,470*%
%TO.CLbN,Resistor_SMD*%
%TO.CMnt,SMD*%
%TO.CRot,135*%
X148421572Y-92343146D03*
D11*
X148138730Y-91614468D02*
X148202548Y-91631567D01*
X148202548Y-91631568D01*
X148227117Y-91653718D01*
X149111000Y-92537601D01*
X149132761Y-92562396D01*
X149149805Y-92625992D01*
X149132770Y-92689590D01*
X149111000Y-92714376D01*
X148792802Y-93032574D01*
X148768233Y-93054724D01*
X148704415Y-93071825D01*
X148640595Y-93054724D01*
X148640596Y-93054724D01*
X148616027Y-93032574D01*
X147732144Y-92148691D01*
X147709993Y-92124121D01*
X147692888Y-92060303D01*
X147709991Y-91996483D01*
X147732144Y-91971916D01*
X148050342Y-91653718D01*
X148074911Y-91631569D01*
X148074910Y-91631568D01*
X148138730Y-91614468D01*
D12*
%TO.P,R12,1*%
X148103374Y-92024948D03*
D13*
%TO.P,R12,2*%
X148739770Y-92661344D03*
%TD*%
D10*
%TO.C,D22*%
%TO.CFtp,1006_C*%
%TO.CVal,TVS*%
%TO.CLbN,Diode_SMD*%
%TO.CMnt,SMD*%
%TO.CRot,90*%
X147100000Y-107200000D03*
D11*
X146825000Y-106450001D02*
X147375000Y-106450001D01*
X147407923Y-106452130D01*
X147464948Y-106485053D01*
X147497870Y-106542077D01*
X147499999Y-106575000D01*
X147499999Y-107825000D01*
X147497870Y-107857923D01*
X147464948Y-107914947D01*
X147407923Y-107947870D01*
X147375000Y-107949999D01*
X146825000Y-107949999D01*
X146792077Y-107947870D01*
X146735052Y-107914947D01*
X146702130Y-107857923D01*
X146700001Y-107825000D01*
X146700001Y-106575000D01*
X146702130Y-106542077D01*
X146735052Y-106485053D01*
X146792077Y-106452130D01*
X146825000Y-106450001D01*
D12*
%TO.P,D22,1,A1*%
X147100000Y-106750000D03*
D13*
%TO.P,D22,2,A2*%
X147100000Y-107650000D03*
%TD*%
D10*
%TO.C,U1*%
%TO.CFtp,LQFP-48_7x7mm_P0.5mm*%
%TO.CVal,MaxLinear_XR22417-48*%
%TO.CLbN,Package_QFP*%
%TO.CMnt,SMD*%
%TO.CRot,45*%
X150750000Y-98750000D03*
D11*
X156618984Y-97335786D02*
X155629036Y-98325736D01*
X156053299Y-98750000D01*
X155629036Y-99174264D01*
X156618984Y-100164213D01*
X154391599Y-102391599D01*
X152164213Y-104618984D01*
X151174264Y-103629036D01*
X150750000Y-104053299D01*
X150325736Y-103629036D01*
X149335786Y-104618984D01*
X144881015Y-100164213D01*
X145870964Y-99174264D01*
X145446700Y-98750000D01*
X145870964Y-98325736D01*
X144881015Y-97335786D01*
X147108401Y-95108401D01*
X149335786Y-92881015D01*
X150325736Y-93870964D01*
X150750000Y-93446700D01*
X151174264Y-93870964D01*
X152164213Y-92881015D01*
X156618984Y-97335786D01*
D12*
%TO.P,U1,1,LED_CTL*%
X151748788Y-93862124D03*
D13*
%TO.P,U1,2,TEST#/SDA*%
X152102342Y-94215678D03*
%TO.P,U1,3,LED1/SCL*%
X152455895Y-94569231D03*
%TO.P,U1,4,LED2*%
X152809449Y-94922785D03*
%TO.P,U1,5,LED3*%
X153163002Y-95276338D03*
%TO.P,U1,6,VCC18*%
X153516555Y-95629891D03*
%TO.P,U1,7,LED4*%
X153870109Y-95983445D03*
%TO.P,U1,8,VCC5*%
X154223662Y-96336998D03*
%TO.P,U1,9,3V3_OUT*%
X154577215Y-96690551D03*
%TO.P,U1,10,GND*%
X154930769Y-97044105D03*
%TO.P,U1,11,USB4D-*%
X155284322Y-97397658D03*
%TO.P,U1,12,USB4D+*%
X155637876Y-97751212D03*
%TO.P,U1,13,USB3D-*%
X155637876Y-99748788D03*
%TO.P,U1,14,USB3D+*%
X155284322Y-100102342D03*
%TO.P,U1,15,VCC33*%
X154930769Y-100455895D03*
%TO.P,U1,16,USB2D-*%
X154577215Y-100809449D03*
%TO.P,U1,17,USB2D+*%
X154223662Y-101163002D03*
%TO.P,U1,18,USB1D-*%
X153870109Y-101516555D03*
%TO.P,U1,19,USB1D+*%
X153516555Y-101870109D03*
%TO.P,U1,20,VCC33*%
X153163002Y-102223662D03*
%TO.P,U1,21,VCC18*%
X152809449Y-102577215D03*
%TO.P,U1,22,XTALIN*%
X152455895Y-102930769D03*
%TO.P,U1,23,XTALOUT*%
X152102342Y-103284322D03*
%TO.P,U1,24,GND*%
X151748788Y-103637876D03*
%TO.P,U1,25,1V8_OUT*%
X149751212Y-103637876D03*
%TO.P,U1,26,VCC33*%
X149397658Y-103284322D03*
%TO.P,U1,27,REXT*%
X149044105Y-102930769D03*
%TO.P,U1,28,VCC18*%
X148690551Y-102577215D03*
%TO.P,U1,29,UP_D-*%
X148336998Y-102223662D03*
%TO.P,U1,30,UP_D+*%
X147983445Y-101870109D03*
%TO.P,U1,31,VCC33*%
X147629891Y-101516555D03*
%TO.P,U1,32,USB5D-*%
X147276338Y-101163002D03*
%TO.P,U1,33,USB5D+*%
X146922785Y-100809449D03*
%TO.P,U1,34,USB6D-*%
X146569231Y-100455895D03*
%TO.P,U1,35,USB6D+*%
X146215678Y-100102342D03*
%TO.P,U1,36,VCC33*%
X145862124Y-99748788D03*
%TO.P,U1,37,USB7D-*%
X145862124Y-97751212D03*
%TO.P,U1,38,USB7D+*%
X146215678Y-97397658D03*
%TO.P,U1,39,GND*%
X146569231Y-97044105D03*
%TO.P,U1,40,EXT_RST#*%
X146922785Y-96690551D03*
%TO.P,U1,41,VBUS_SENSE*%
X147276338Y-96336998D03*
%TO.P,U1,42,VCC33*%
X147629891Y-95983445D03*
%TO.P,U1,43,TEST1#*%
X147983445Y-95629891D03*
%TO.P,U1,44,TEST#2/DNC*%
X148336998Y-95276338D03*
%TO.P,U1,45,TEST3#*%
X148690551Y-94922785D03*
%TO.P,U1,46,LED7*%
X149044105Y-94569231D03*
%TO.P,U1,47,LED6*%
X149397658Y-94215678D03*
%TO.P,U1,48,LED5*%
X149751212Y-93862124D03*
%TD*%
D10*
%TO.C,R1*%
%TO.CFtp,1005_C*%
%TO.CVal,10k*%
%TO.CLbN,Resistor_SMD*%
%TO.CMnt,SMD*%
%TO.CRot,135*%
X145769922Y-94994796D03*
D11*
X145487080Y-94266117D02*
X145550898Y-94283217D01*
X145550898Y-94283218D01*
X145575467Y-94305368D01*
X146459350Y-95189251D01*
X146481495Y-95213817D01*
X146498583Y-95277628D01*
X146481467Y-95341431D01*
X146459350Y-95366026D01*
X146141152Y-95684224D01*
X146116583Y-95706374D01*
X146052765Y-95723474D01*
X145988945Y-95706373D01*
X145988946Y-95706373D01*
X145964377Y-95684224D01*
X145080494Y-94800341D01*
X145058734Y-94775555D01*
X145041716Y-94711967D01*
X145058768Y-94648387D01*
X145080494Y-94623566D01*
X145398692Y-94305368D01*
X145423261Y-94283218D01*
X145423260Y-94283217D01*
X145487080Y-94266117D01*
D12*
%TO.P,R1,1*%
X145451724Y-94676598D03*
D13*
%TO.P,R1,2*%
X146088120Y-95312994D03*
%TD*%
D10*
%TO.C,R9*%
%TO.CFtp,1005_C*%
%TO.CVal,470*%
%TO.CLbN,Resistor_SMD*%
%TO.CMnt,SMD*%
%TO.CRot,45*%
X154431980Y-93403806D03*
D11*
X154714823Y-92675126D02*
X154778642Y-92692226D01*
X154778642Y-92692227D01*
X154803210Y-92714378D01*
X155121408Y-93032576D01*
X155143189Y-93057364D01*
X155160245Y-93120974D01*
X155143215Y-93184591D01*
X155121408Y-93209351D01*
X154237525Y-94093234D01*
X154212956Y-94115384D01*
X154149138Y-94132484D01*
X154085318Y-94115383D01*
X154085319Y-94115383D01*
X154060750Y-94093234D01*
X153742552Y-93775036D01*
X153720384Y-93750468D01*
X153703256Y-93686635D01*
X153720349Y-93622792D01*
X153742552Y-93598261D01*
X154626435Y-92714378D01*
X154651004Y-92692227D01*
X154651003Y-92692226D01*
X154714823Y-92675126D01*
D12*
%TO.P,R9,1*%
X154750178Y-93085608D03*
D13*
%TO.P,R9,2*%
X154113782Y-93722004D03*
%TD*%
D10*
%TO.C,C24*%
%TO.CFtp,1608_C*%
%TO.CVal,22uF 10V*%
%TO.CLbN,Capacitor_SMD*%
%TO.CMnt,SMD*%
%TO.CRot,45*%
X149785785Y-89935786D03*
D11*
X150174694Y-88888908D02*
X150238513Y-88906008D01*
X150238513Y-88906009D01*
X150263081Y-88928160D01*
X150793411Y-89458490D01*
X150815188Y-89483278D01*
X150832237Y-89546884D01*
X150815204Y-89610494D01*
X150793411Y-89635265D01*
X149485264Y-90943412D01*
X149460695Y-90965562D01*
X149396877Y-90982662D01*
X149333057Y-90965561D01*
X149333058Y-90965561D01*
X149308489Y-90943412D01*
X148778159Y-90413082D01*
X148756004Y-90388516D01*
X148738900Y-90324696D01*
X148756008Y-90260877D01*
X148778159Y-90236307D01*
X150086306Y-88928160D01*
X150110875Y-88906009D01*
X150110874Y-88906008D01*
X150174694Y-88888908D01*
D12*
%TO.P,C24,1*%
X150263082Y-89458489D03*
D13*
%TO.P,C24,2*%
X149308488Y-90413083D03*
%TD*%
D10*
%TO.C,C35*%
%TO.CFtp,1608_C*%
%TO.CVal,22uF 10V*%
%TO.CLbN,Capacitor_SMD*%
%TO.CMnt,SMD*%
%TO.CRot,-135*%
X152100000Y-89050000D03*
D11*
X152488909Y-88003123D02*
X152552727Y-88020223D01*
X152552727Y-88020224D01*
X152577296Y-88042374D01*
X153107626Y-88572704D01*
X153129397Y-88597492D01*
X153146438Y-88661094D01*
X153129403Y-88724697D01*
X153107626Y-88749479D01*
X151799479Y-90057626D01*
X151774910Y-90079776D01*
X151711092Y-90096877D01*
X151647272Y-90079776D01*
X151647273Y-90079776D01*
X151622704Y-90057626D01*
X151092374Y-89527296D01*
X151070603Y-89502508D01*
X151053562Y-89438906D01*
X151070597Y-89375303D01*
X151092374Y-89350521D01*
X152400521Y-88042374D01*
X152425090Y-88020224D01*
X152425089Y-88020223D01*
X152488909Y-88003123D01*
D12*
%TO.P,C35,1*%
X151622703Y-89527297D03*
D13*
%TO.P,C35,2*%
X152577297Y-88572703D03*
%TD*%
D10*
%TO.C,C7*%
%TO.CFtp,1005_C*%
%TO.CVal,0.1uF*%
%TO.CLbN,Capacitor_SMD*%
%TO.CMnt,SMD*%
%TO.CRot,45*%
X144562816Y-101048097D03*
D11*
X144845659Y-100319418D02*
X144909477Y-100336518D01*
X144909477Y-100336519D01*
X144934046Y-100358669D01*
X145252244Y-100676867D01*
X145274355Y-100701467D01*
X145291473Y-100765267D01*
X145274388Y-100829076D01*
X145252244Y-100853642D01*
X144368361Y-101737525D01*
X144343792Y-101759675D01*
X144279974Y-101776776D01*
X144216154Y-101759675D01*
X144216155Y-101759675D01*
X144191586Y-101737525D01*
X143873388Y-101419327D01*
X143851656Y-101394510D01*
X143834607Y-101330928D01*
X143851628Y-101267339D01*
X143873388Y-101242552D01*
X144757271Y-100358669D01*
X144781840Y-100336519D01*
X144781839Y-100336518D01*
X144845659Y-100319418D01*
D12*
%TO.P,C7,1*%
X144881014Y-100729899D03*
D13*
%TO.P,C7,2*%
X144244618Y-101366295D03*
%TD*%
D10*
%TO.C,C1*%
%TO.CFtp,1005_C*%
%TO.CVal,1uF 10V*%
%TO.CLbN,Capacitor_SMD*%
%TO.CMnt,SMD*%
%TO.CRot,-135*%
X156022970Y-94994796D03*
D11*
X156305813Y-94266117D02*
X156369631Y-94283217D01*
X156369631Y-94283218D01*
X156394200Y-94305368D01*
X156712398Y-94623566D01*
X156734183Y-94648353D01*
X156751245Y-94711967D01*
X156734217Y-94775589D01*
X156712398Y-94800341D01*
X155828515Y-95684224D01*
X155803946Y-95706374D01*
X155740128Y-95723475D01*
X155676308Y-95706374D01*
X155676309Y-95706374D01*
X155651740Y-95684224D01*
X155333542Y-95366026D01*
X155311378Y-95341458D01*
X155294256Y-95277628D01*
X155311350Y-95213790D01*
X155333542Y-95189251D01*
X156217425Y-94305368D01*
X156241994Y-94283218D01*
X156241993Y-94283217D01*
X156305813Y-94266117D01*
D12*
%TO.P,C1,1*%
X155704772Y-95312994D03*
D13*
%TO.P,C1,2*%
X156341168Y-94676598D03*
%TD*%
D10*
%TO.C,C9*%
%TO.CFtp,1005_C*%
%TO.CVal,0.1uF*%
%TO.CLbN,Capacitor_SMD*%
%TO.CMnt,SMD*%
%TO.CRot,-45*%
X146300252Y-94464466D03*
D11*
X146017410Y-93735787D02*
X146081228Y-93752887D01*
X146081228Y-93752888D01*
X146105797Y-93775038D01*
X146989680Y-94658921D01*
X147011829Y-94683489D01*
X147028926Y-94747306D01*
X147011823Y-94811121D01*
X146989680Y-94835696D01*
X146671482Y-95153894D01*
X146646913Y-95176044D01*
X146583095Y-95193144D01*
X146519275Y-95176043D01*
X146519276Y-95176043D01*
X146494707Y-95153894D01*
X145610824Y-94270011D01*
X145588667Y-94245442D01*
X145571554Y-94181617D01*
X145588650Y-94117787D01*
X145610824Y-94093236D01*
X145929022Y-93775038D01*
X145953591Y-93752888D01*
X145953590Y-93752887D01*
X146017410Y-93735787D01*
D12*
%TO.P,C9,1*%
X146618450Y-94782664D03*
D13*
%TO.P,C9,2*%
X145982054Y-94146268D03*
%TD*%
D10*
%TO.C,C13*%
%TO.CFtp,1005_C*%
%TO.CVal,0.1uF*%
%TO.CLbN,Capacitor_SMD*%
%TO.CMnt,SMD*%
%TO.CRot,45*%
X147300000Y-103800000D03*
D11*
X147582843Y-103071321D02*
X147646661Y-103088421D01*
X147646661Y-103088422D01*
X147671230Y-103110572D01*
X147989428Y-103428770D01*
X148011155Y-103453590D01*
X148028202Y-103517169D01*
X148011185Y-103580757D01*
X147989428Y-103605545D01*
X147105545Y-104489428D01*
X147080976Y-104511578D01*
X147017158Y-104528679D01*
X146953338Y-104511578D01*
X146953339Y-104511578D01*
X146928770Y-104489428D01*
X146610572Y-104171230D01*
X146588845Y-104146410D01*
X146571798Y-104082831D01*
X146588815Y-104019243D01*
X146610572Y-103994455D01*
X147494455Y-103110572D01*
X147519024Y-103088422D01*
X147519023Y-103088421D01*
X147582843Y-103071321D01*
D12*
%TO.P,C13,1*%
X147618198Y-103481802D03*
D13*
%TO.P,C13,2*%
X146981802Y-104118198D03*
%TD*%
D10*
%TO.C,C10*%
%TO.CFtp,1005_C*%
%TO.CVal,0.1uF*%
%TO.CLbN,Capacitor_SMD*%
%TO.CMnt,SMD*%
%TO.CRot,135*%
X154639086Y-103346194D03*
D11*
X154356244Y-102617516D02*
X154420062Y-102634615D01*
X154420062Y-102634616D01*
X154444631Y-102656766D01*
X155328514Y-103540649D01*
X155350320Y-103565410D01*
X155367349Y-103629026D01*
X155350294Y-103692636D01*
X155328514Y-103717424D01*
X155010316Y-104035622D01*
X154985747Y-104057772D01*
X154921929Y-104074873D01*
X154858109Y-104057772D01*
X154858110Y-104057772D01*
X154833541Y-104035622D01*
X153949658Y-103151739D01*
X153927454Y-103127208D01*
X153910360Y-103063365D01*
X153927489Y-102999531D01*
X153949658Y-102974964D01*
X154267856Y-102656766D01*
X154292425Y-102634617D01*
X154292424Y-102634616D01*
X154356244Y-102617516D01*
D12*
%TO.P,C10,1*%
X154320888Y-103027996D03*
D13*
%TO.P,C10,2*%
X154957284Y-103664392D03*
%TD*%
D10*
%TO.C,C31*%
%TO.CFtp,1608_C*%
%TO.CVal,22uF 10V*%
%TO.CLbN,Capacitor_SMD*%
%TO.CMnt,SMD*%
%TO.CRot,90*%
X143150000Y-106700000D03*
D11*
X142775000Y-105650001D02*
X143525000Y-105650001D01*
X143557923Y-105652130D01*
X143614948Y-105685053D01*
X143647870Y-105742077D01*
X143649999Y-105775000D01*
X143649999Y-107625000D01*
X143647870Y-107657923D01*
X143614948Y-107714947D01*
X143557923Y-107747870D01*
X143525000Y-107749999D01*
X142775000Y-107749999D01*
X142742077Y-107747870D01*
X142685052Y-107714947D01*
X142652130Y-107657923D01*
X142650001Y-107625000D01*
X142650001Y-105775000D01*
X142652130Y-105742077D01*
X142685052Y-105685053D01*
X142742077Y-105652130D01*
X142775000Y-105650001D01*
D12*
%TO.P,C31,1*%
X143150000Y-106025000D03*
D13*
%TO.P,C31,2*%
X143150000Y-107375000D03*
%TD*%
D10*
%TO.C,C12*%
%TO.CFtp,1005_C*%
%TO.CVal,0.1uF*%
%TO.CLbN,Capacitor_SMD*%
%TO.CMnt,SMD*%
%TO.CRot,90*%
X153550000Y-104350000D03*
D11*
X153325000Y-103600001D02*
X153775000Y-103600001D01*
X153807923Y-103602130D01*
X153864948Y-103635053D01*
X153897870Y-103692077D01*
X153899999Y-103725000D01*
X153899999Y-104975000D01*
X153897870Y-105007923D01*
X153864948Y-105064947D01*
X153807923Y-105097870D01*
X153775000Y-105099999D01*
X153325000Y-105099999D01*
X153292077Y-105097870D01*
X153235052Y-105064947D01*
X153202130Y-105007923D01*
X153200001Y-104975000D01*
X153200001Y-103725000D01*
X153202130Y-103692077D01*
X153235052Y-103635053D01*
X153292077Y-103602130D01*
X153325000Y-103600001D01*
D12*
%TO.P,C12,1*%
X153550000Y-103900000D03*
D13*
%TO.P,C12,2*%
X153550000Y-104800000D03*
%TD*%
D10*
%TO.C,R5*%
%TO.CFtp,1005_C*%
%TO.CVal,100k*%
%TO.CLbN,Resistor_SMD*%
%TO.CMnt,SMD*%
%TO.CRot,135*%
X146830582Y-93934136D03*
D11*
X146547740Y-93205458D02*
X146611558Y-93222557D01*
X146611558Y-93222558D01*
X146636127Y-93244708D01*
X147520010Y-94128591D01*
X147541760Y-94153394D01*
X147558805Y-94216985D01*
X147541776Y-94280579D01*
X147520010Y-94305366D01*
X147201812Y-94623564D01*
X147177243Y-94645714D01*
X147113425Y-94662815D01*
X147049605Y-94645714D01*
X147049606Y-94645714D01*
X147025037Y-94623564D01*
X146141154Y-93739681D01*
X146118992Y-93715119D01*
X146101888Y-93651295D01*
X146118997Y-93587473D01*
X146141154Y-93562906D01*
X146459352Y-93244708D01*
X146483921Y-93222559D01*
X146483920Y-93222558D01*
X146547740Y-93205458D01*
D12*
%TO.P,R5,1*%
X146512384Y-93615938D03*
D13*
%TO.P,R5,2*%
X147148780Y-94252334D03*
%TD*%
D10*
%TO.C,C33*%
%TO.CFtp,1608_C*%
%TO.CVal,22uF 10V*%
%TO.CLbN,Capacitor_SMD*%
%TO.CMnt,SMD*%
%TO.CRot,-90*%
X143650000Y-104600000D03*
D11*
X143275000Y-103550001D02*
X144025000Y-103550001D01*
X144057923Y-103552130D01*
X144114948Y-103585053D01*
X144147870Y-103642077D01*
X144149999Y-103675000D01*
X144149999Y-105525000D01*
X144147870Y-105557923D01*
X144114948Y-105614947D01*
X144057923Y-105647870D01*
X144025000Y-105649999D01*
X143275000Y-105649999D01*
X143242077Y-105647870D01*
X143185052Y-105614947D01*
X143152130Y-105557923D01*
X143150001Y-105525000D01*
X143150001Y-103675000D01*
X143152130Y-103642077D01*
X143185052Y-103585053D01*
X143242077Y-103552130D01*
X143275000Y-103550001D01*
D12*
%TO.P,C33,1*%
X143650000Y-105275000D03*
D13*
%TO.P,C33,2*%
X143650000Y-103925000D03*
%TD*%
D10*
%TO.C,C30*%
%TO.CFtp,1608_C*%
%TO.CVal,22uF 10V*%
%TO.CLbN,Capacitor_SMD*%
%TO.CMnt,SMD*%
%TO.CRot,90*%
X145150000Y-106700000D03*
D11*
X144775000Y-105650001D02*
X145525000Y-105650001D01*
X145557923Y-105652130D01*
X145614948Y-105685053D01*
X145647870Y-105742077D01*
X145649999Y-105775000D01*
X145649999Y-107625000D01*
X145647870Y-107657923D01*
X145614948Y-107714947D01*
X145557923Y-107747870D01*
X145525000Y-107749999D01*
X144775000Y-107749999D01*
X144742077Y-107747870D01*
X144685052Y-107714947D01*
X144652130Y-107657923D01*
X144650001Y-107625000D01*
X144650001Y-105775000D01*
X144652130Y-105742077D01*
X144685052Y-105685053D01*
X144742077Y-105652130D01*
X144775000Y-105650001D01*
D12*
%TO.P,C30,1*%
X145150000Y-106025000D03*
D13*
%TO.P,C30,2*%
X145150000Y-107375000D03*
%TD*%
D10*
%TO.C,R3*%
%TO.CFtp,1005_C*%
%TO.CVal,100k*%
%TO.CLbN,Resistor_SMD*%
%TO.CMnt,SMD*%
%TO.CRot,135*%
X145239592Y-95525126D03*
D11*
X144956750Y-94796448D02*
X145020568Y-94813547D01*
X145020568Y-94813548D01*
X145045137Y-94835698D01*
X145929020Y-95719581D01*
X145950759Y-95744392D01*
X145967805Y-95807977D01*
X145950782Y-95871569D01*
X145929020Y-95896356D01*
X145610822Y-96214554D01*
X145586253Y-96236704D01*
X145522435Y-96253805D01*
X145458615Y-96236704D01*
X145458616Y-96236704D01*
X145434047Y-96214554D01*
X144550164Y-95330671D01*
X144527991Y-95306117D01*
X144510888Y-95242288D01*
X144528003Y-95178462D01*
X144550164Y-95153896D01*
X144868362Y-94835698D01*
X144892931Y-94813549D01*
X144892930Y-94813548D01*
X144956750Y-94796448D01*
D12*
%TO.P,R3,1*%
X144921394Y-95206928D03*
D13*
%TO.P,R3,2*%
X145557790Y-95843324D03*
%TD*%
D10*
%TO.C,C27*%
%TO.CFtp,1608_C*%
%TO.CVal,22uF 10V*%
%TO.CLbN,Capacitor_SMD*%
%TO.CMnt,SMD*%
%TO.CRot,45*%
X151907106Y-92057107D03*
D11*
X152296015Y-91010229D02*
X152359834Y-91027329D01*
X152359834Y-91027330D01*
X152384402Y-91049481D01*
X152914732Y-91579811D01*
X152936501Y-91604599D01*
X152953537Y-91668199D01*
X152936502Y-91731799D01*
X152914732Y-91756586D01*
X151606585Y-93064733D01*
X151582016Y-93086883D01*
X151518198Y-93103983D01*
X151454378Y-93086882D01*
X151454379Y-93086882D01*
X151429810Y-93064733D01*
X150899480Y-92534403D01*
X150877706Y-92509615D01*
X150860661Y-92446011D01*
X150877695Y-92382404D01*
X150899480Y-92357628D01*
X152207627Y-91049481D01*
X152232196Y-91027330D01*
X152232195Y-91027329D01*
X152296015Y-91010229D01*
D12*
%TO.P,C27,1*%
X152384403Y-91579810D03*
D13*
%TO.P,C27,2*%
X151429809Y-92534404D03*
%TD*%
D10*
%TO.C,C23*%
%TO.CFtp,1608_C*%
%TO.CVal,22uF 10V*%
%TO.CLbN,Capacitor_SMD*%
%TO.CMnt,SMD*%
%TO.CRot,45*%
X149078679Y-89228680D03*
D11*
X149467588Y-88181802D02*
X149531407Y-88198902D01*
X149531407Y-88198903D01*
X149555975Y-88221054D01*
X150086305Y-88751384D01*
X150108084Y-88776171D01*
X150125137Y-88839779D01*
X150108105Y-88903393D01*
X150086305Y-88928159D01*
X148778158Y-90236306D01*
X148753589Y-90258456D01*
X148689771Y-90275556D01*
X148625951Y-90258455D01*
X148625952Y-90258455D01*
X148601383Y-90236306D01*
X148071053Y-89705976D01*
X148048901Y-89681409D01*
X148031800Y-89617592D01*
X148048909Y-89553776D01*
X148071053Y-89529201D01*
X149379200Y-88221054D01*
X149403769Y-88198903D01*
X149403768Y-88198902D01*
X149467588Y-88181802D01*
D12*
%TO.P,C23,1*%
X149555976Y-88751383D03*
D13*
%TO.P,C23,2*%
X148601382Y-89705977D03*
%TD*%
D10*
%TO.C,C21*%
%TO.CFtp,2012_C*%
%TO.CVal,0.1uF 100V*%
%TO.CLbN,Capacitor_SMD*%
%TO.CMnt,SMD*%
%TO.CRot,-90*%
X157250000Y-102500000D03*
D11*
X156675000Y-101250001D02*
X157825000Y-101250001D01*
X157864508Y-101252557D01*
X157932937Y-101292064D01*
X157972443Y-101360492D01*
X157974999Y-101400000D01*
X157974999Y-103600000D01*
X157972443Y-103639508D01*
X157932937Y-103707936D01*
X157864508Y-103747443D01*
X157825000Y-103749999D01*
X156675000Y-103749999D01*
X156635492Y-103747443D01*
X156567063Y-103707936D01*
X156527557Y-103639508D01*
X156525001Y-103600000D01*
X156525001Y-101400000D01*
X156527557Y-101360492D01*
X156567063Y-101292064D01*
X156635492Y-101252557D01*
X156675000Y-101250001D01*
D12*
%TO.P,C21,1*%
X157250000Y-103325000D03*
D13*
%TO.P,C21,2*%
X157250000Y-101675000D03*
%TD*%
D15*
X152250000Y-80000000D02*
X157000000Y-80000000D01*
X148500000Y-81000000D02*
X151500000Y-81000000D01*
X157000000Y-108500000D02*
X156100000Y-108500000D01*
X141750000Y-107250000D02*
X141750000Y-81250000D01*
X156100000Y-120000000D02*
X156100000Y-108500000D01*
X148000000Y-80250000D02*
X148000000Y-80500000D01*
X152000000Y-80250000D02*
G75*
G02*
X152250000Y-80000000I250000J0D01*
G01*
X143900000Y-120000000D02*
X143900000Y-108500000D01*
X141750000Y-81250000D02*
G75*
G02*
X143000000Y-80000000I1250000J0D01*
G01*
X147750000Y-80000000D02*
G75*
G02*
X148000000Y-80250000I0J-250000D01*
G01*
X143000000Y-108500000D02*
G75*
G02*
X141750000Y-107250000I0J1250000D01*
G01*
X143900000Y-120000000D02*
X156100000Y-120000000D01*
X158250000Y-81250000D02*
X158250000Y-107250000D01*
X143000000Y-80000000D02*
X147750000Y-80000000D01*
X158250000Y-107250000D02*
G75*
G02*
X157000000Y-108500000I-1250000J0D01*
G01*
X157000000Y-80000000D02*
G75*
G02*
X158250000Y-81250000I0J-1250000D01*
G01*
X148500000Y-81000000D02*
G75*
G02*
X148000000Y-80500000I0J500000D01*
G01*
X143900000Y-108500000D02*
X143000000Y-108500000D01*
X152000000Y-80500000D02*
G75*
G02*
X151500000Y-81000000I-500000J0D01*
G01*
X152000000Y-80500000D02*
X152000000Y-80250000D01*
M02*
