%TF.GenerationSoftware,KiCad,Pcbnew,8.99.0-344-gfbc433deaa-dirty*%
%TF.CreationDate,2024-03-11T18:49:53+01:00*%
%TF.ProjectId,StickHub,53746963-6b48-4756-922e-6b696361645f,rev?*%
%TF.SameCoordinates,Original*%
%TF.FileFunction,Legend,Top*%
%TF.FilePolarity,Positive*%
%FSLAX46Y46*%
G04 Gerber Fmt 4.6, Leading zero omitted, Abs format (unit mm)*
G04 Created by KiCad (PCBNEW 8.99.0-344-gfbc433deaa-dirty) date 2024-03-11 18:49:53*
%MOMM*%
%LPD*%
G01*
G04 APERTURE LIST*
G04 Aperture macros list*
%AMRoundRect*
0 Rectangle with rounded corners*
0 $1 Rounding radius*
0 $2 $3 $4 $5 $6 $7 $8 $9 X,Y pos of 4 corners*
0 Add a 4 corners polygon primitive as box body*
4,1,4,$2,$3,$4,$5,$6,$7,$8,$9,$2,$3,0*
0 Add four circle primitives for the rounded corners*
1,1,$1+$1,$2,$3*
1,1,$1+$1,$4,$5*
1,1,$1+$1,$6,$7*
1,1,$1+$1,$8,$9*
0 Add four rect primitives between the rounded corners*
20,1,$1+$1,$2,$3,$4,$5,0*
20,1,$1+$1,$4,$5,$6,$7,0*
20,1,$1+$1,$6,$7,$8,$9,0*
20,1,$1+$1,$8,$9,$2,$3,0*%
G04 Aperture macros list end*
%ADD10C,0.150000*%
%ADD11C,0.127000*%
%ADD12C,0.000000*%
%ADD13C,0.120000*%
%ADD14C,0.200000*%
%ADD15RoundRect,0.057500X-0.272500X0.172500X-0.272500X-0.172500X0.272500X-0.172500X0.272500X0.172500X0*%
%ADD16RoundRect,0.150000X-0.625000X0.150000X-0.625000X-0.150000X0.625000X-0.150000X0.625000X0.150000X0*%
%ADD17RoundRect,0.250000X-0.650000X0.350000X-0.650000X-0.350000X0.650000X-0.350000X0.650000X0.350000X0*%
%ADD18RoundRect,0.050000X0.250000X-0.150000X0.250000X0.150000X-0.250000X0.150000X-0.250000X-0.150000X0*%
%ADD19RoundRect,0.075000X0.300000X0.575000X-0.300000X0.575000X-0.300000X-0.575000X0.300000X-0.575000X0*%
%ADD20RoundRect,0.070500X-0.214500X-0.164500X0.214500X-0.164500X0.214500X0.164500X-0.214500X0.164500X0*%
%ADD21RoundRect,0.057500X0.272500X-0.172500X0.272500X0.172500X-0.272500X0.172500X-0.272500X-0.172500X0*%
%ADD22RoundRect,0.075000X-0.300000X-0.575000X0.300000X-0.575000X0.300000X0.575000X-0.300000X0.575000X0*%
%ADD23RoundRect,0.150000X0.625000X-0.150000X0.625000X0.150000X-0.625000X0.150000X-0.625000X-0.150000X0*%
%ADD24RoundRect,0.250000X0.650000X-0.350000X0.650000X0.350000X-0.650000X0.350000X-0.650000X-0.350000X0*%
%ADD25RoundRect,0.100500X0.649500X-4.149500X0.649500X4.149500X-0.649500X4.149500X-0.649500X-4.149500X0*%
%ADD26RoundRect,0.100100X0.449900X-3.774900X0.449900X3.774900X-0.449900X3.774900X-0.449900X-3.774900X0*%
%ADD27O,4.150000X1.650000*%
%ADD28C,0.500000*%
%ADD29C,0.600000*%
%TA.AperFunction,Profile*%
%ADD30C,0.100000*%
%TD*%
G04 APERTURE END LIST*
D10*
X142425800Y-82219047D02*
X142387704Y-82333333D01*
X142387704Y-82333333D02*
X142387704Y-82523809D01*
X142387704Y-82523809D02*
X142425800Y-82600000D01*
X142425800Y-82600000D02*
X142463895Y-82638095D01*
X142463895Y-82638095D02*
X142540085Y-82676190D01*
X142540085Y-82676190D02*
X142616276Y-82676190D01*
X142616276Y-82676190D02*
X142692466Y-82638095D01*
X142692466Y-82638095D02*
X142730561Y-82600000D01*
X142730561Y-82600000D02*
X142768657Y-82523809D01*
X142768657Y-82523809D02*
X142806752Y-82371428D01*
X142806752Y-82371428D02*
X142844847Y-82295238D01*
X142844847Y-82295238D02*
X142882942Y-82257143D01*
X142882942Y-82257143D02*
X142959133Y-82219047D01*
X142959133Y-82219047D02*
X143035323Y-82219047D01*
X143035323Y-82219047D02*
X143111514Y-82257143D01*
X143111514Y-82257143D02*
X143149609Y-82295238D01*
X143149609Y-82295238D02*
X143187704Y-82371428D01*
X143187704Y-82371428D02*
X143187704Y-82561905D01*
X143187704Y-82561905D02*
X143149609Y-82676190D01*
X143187704Y-82904762D02*
X143187704Y-83361905D01*
X142387704Y-83133333D02*
X143187704Y-83133333D01*
X142616276Y-83590476D02*
X142616276Y-83971429D01*
X142387704Y-83514286D02*
X143187704Y-83780953D01*
X143187704Y-83780953D02*
X142387704Y-84047619D01*
X143187704Y-84200000D02*
X143187704Y-84657143D01*
X142387704Y-84428571D02*
X143187704Y-84428571D01*
X143187704Y-84923810D02*
X142540085Y-84923810D01*
X142540085Y-84923810D02*
X142463895Y-84961905D01*
X142463895Y-84961905D02*
X142425800Y-85000000D01*
X142425800Y-85000000D02*
X142387704Y-85076191D01*
X142387704Y-85076191D02*
X142387704Y-85228572D01*
X142387704Y-85228572D02*
X142425800Y-85304762D01*
X142425800Y-85304762D02*
X142463895Y-85342857D01*
X142463895Y-85342857D02*
X142540085Y-85380953D01*
X142540085Y-85380953D02*
X143187704Y-85380953D01*
X142425800Y-85723809D02*
X142387704Y-85838095D01*
X142387704Y-85838095D02*
X142387704Y-86028571D01*
X142387704Y-86028571D02*
X142425800Y-86104762D01*
X142425800Y-86104762D02*
X142463895Y-86142857D01*
X142463895Y-86142857D02*
X142540085Y-86180952D01*
X142540085Y-86180952D02*
X142616276Y-86180952D01*
X142616276Y-86180952D02*
X142692466Y-86142857D01*
X142692466Y-86142857D02*
X142730561Y-86104762D01*
X142730561Y-86104762D02*
X142768657Y-86028571D01*
X142768657Y-86028571D02*
X142806752Y-85876190D01*
X142806752Y-85876190D02*
X142844847Y-85800000D01*
X142844847Y-85800000D02*
X142882942Y-85761905D01*
X142882942Y-85761905D02*
X142959133Y-85723809D01*
X142959133Y-85723809D02*
X143035323Y-85723809D01*
X143035323Y-85723809D02*
X143111514Y-85761905D01*
X143111514Y-85761905D02*
X143149609Y-85800000D01*
X143149609Y-85800000D02*
X143187704Y-85876190D01*
X143187704Y-85876190D02*
X143187704Y-86066667D01*
X143187704Y-86066667D02*
X143149609Y-86180952D01*
D11*
X155142396Y-119328570D02*
X155142396Y-118871428D01*
X155370967Y-119099999D02*
X154913824Y-119099999D01*
X147870967Y-118557142D02*
X147270967Y-118557142D01*
X147270967Y-118557142D02*
X147270967Y-118414285D01*
X147270967Y-118414285D02*
X147299538Y-118328571D01*
X147299538Y-118328571D02*
X147356681Y-118271428D01*
X147356681Y-118271428D02*
X147413824Y-118242857D01*
X147413824Y-118242857D02*
X147528110Y-118214285D01*
X147528110Y-118214285D02*
X147613824Y-118214285D01*
X147613824Y-118214285D02*
X147728110Y-118242857D01*
X147728110Y-118242857D02*
X147785253Y-118271428D01*
X147785253Y-118271428D02*
X147842396Y-118328571D01*
X147842396Y-118328571D02*
X147870967Y-118414285D01*
X147870967Y-118414285D02*
X147870967Y-118557142D01*
X147870967Y-117957142D02*
X147270967Y-117957142D01*
X147270967Y-117957142D02*
X147270967Y-117728571D01*
X147270967Y-117728571D02*
X147299538Y-117671428D01*
X147299538Y-117671428D02*
X147328110Y-117642857D01*
X147328110Y-117642857D02*
X147385253Y-117614285D01*
X147385253Y-117614285D02*
X147470967Y-117614285D01*
X147470967Y-117614285D02*
X147528110Y-117642857D01*
X147528110Y-117642857D02*
X147556681Y-117671428D01*
X147556681Y-117671428D02*
X147585253Y-117728571D01*
X147585253Y-117728571D02*
X147585253Y-117957142D01*
X152670967Y-118571427D02*
X152070967Y-118571427D01*
X152070967Y-118571427D02*
X152070967Y-118428570D01*
X152070967Y-118428570D02*
X152099538Y-118342856D01*
X152099538Y-118342856D02*
X152156681Y-118285713D01*
X152156681Y-118285713D02*
X152213824Y-118257142D01*
X152213824Y-118257142D02*
X152328110Y-118228570D01*
X152328110Y-118228570D02*
X152413824Y-118228570D01*
X152413824Y-118228570D02*
X152528110Y-118257142D01*
X152528110Y-118257142D02*
X152585253Y-118285713D01*
X152585253Y-118285713D02*
X152642396Y-118342856D01*
X152642396Y-118342856D02*
X152670967Y-118428570D01*
X152670967Y-118428570D02*
X152670967Y-118571427D01*
X152670967Y-117971427D02*
X152070967Y-117971427D01*
X152070967Y-117971427D02*
X152670967Y-117628570D01*
X152670967Y-117628570D02*
X152070967Y-117628570D01*
X144842396Y-119328570D02*
X144842396Y-118871428D01*
D10*
%TO.C,D4*%
X150000000Y-96075000D02*
G75*
G02*
X150075000Y-96000000I75000J0D01*
G01*
X150725000Y-96000000D02*
G75*
G02*
X150800000Y-96075000I0J-75000D01*
G01*
D12*
G36*
X150875000Y-96075000D02*
G01*
X150875000Y-96975000D01*
X150750000Y-96975000D01*
X150725000Y-96950000D01*
X150725000Y-96075000D01*
X150075000Y-96075000D01*
X150075000Y-96950000D01*
X150050000Y-96975000D01*
X149925000Y-96975000D01*
X149925000Y-96075000D01*
X150075000Y-95925000D01*
X150725000Y-95925000D01*
X150875000Y-96075000D01*
G37*
D13*
%TO.C,J7*%
X143465000Y-95810000D02*
X143465000Y-99690000D01*
X145435000Y-94640000D02*
X147935000Y-94640000D01*
X145435000Y-100860000D02*
X147935000Y-100860000D01*
X147935000Y-94640000D02*
X147935000Y-95690000D01*
X147935000Y-95690000D02*
X148925000Y-95690000D01*
X147935000Y-100860000D02*
X147935000Y-99810000D01*
%TO.C,J8*%
X143465000Y-88810000D02*
X143465000Y-92690000D01*
X145435000Y-87640000D02*
X147935000Y-87640000D01*
X145435000Y-93860000D02*
X147935000Y-93860000D01*
X147935000Y-87640000D02*
X147935000Y-88690000D01*
X147935000Y-88690000D02*
X148925000Y-88690000D01*
X147935000Y-93860000D02*
X147935000Y-92810000D01*
D10*
%TO.C,D10*%
X149275000Y-106500000D02*
G75*
G02*
X149200000Y-106425000I0J75000D01*
G01*
X150000000Y-106425000D02*
G75*
G02*
X149925000Y-106500000I-75000J0D01*
G01*
D12*
G36*
X149275000Y-105550000D02*
G01*
X149275000Y-106425000D01*
X149925000Y-106425000D01*
X149925000Y-105550000D01*
X149950000Y-105525000D01*
X150075000Y-105525000D01*
X150075000Y-106425000D01*
X149925000Y-106575000D01*
X149275000Y-106575000D01*
X149125000Y-106425000D01*
X149125000Y-105525000D01*
X149250000Y-105525000D01*
X149275000Y-105550000D01*
G37*
%TO.C,C18*%
G36*
X150325000Y-92875000D02*
G01*
X149675000Y-92875000D01*
X149675000Y-92725000D01*
X150325000Y-92725000D01*
X150325000Y-92875000D01*
G37*
G36*
X150325000Y-94275000D02*
G01*
X149675000Y-94275000D01*
X149675000Y-94125000D01*
X150325000Y-94125000D01*
X150325000Y-94275000D01*
G37*
G36*
X149949998Y-93775000D02*
G01*
X149800000Y-93774998D01*
X149800002Y-93575000D01*
X149650000Y-93575000D01*
X149650000Y-93425000D01*
X149800002Y-93425000D01*
X149800002Y-93225000D01*
X149950000Y-93225000D01*
X149949998Y-93775000D01*
G37*
G36*
X150200000Y-93425000D02*
G01*
X150350000Y-93425000D01*
X150350000Y-93575000D01*
X150200000Y-93575000D01*
X150200000Y-93775000D01*
X150050000Y-93775000D01*
X150050000Y-93225000D01*
X150200000Y-93225000D01*
X150200000Y-93425000D01*
G37*
%TO.C,C16*%
G36*
X150325000Y-99875000D02*
G01*
X149675000Y-99875000D01*
X149675000Y-99725000D01*
X150325000Y-99725000D01*
X150325000Y-99875000D01*
G37*
G36*
X150325000Y-101275000D02*
G01*
X149675000Y-101275000D01*
X149675000Y-101125000D01*
X150325000Y-101125000D01*
X150325000Y-101275000D01*
G37*
G36*
X149949998Y-100775000D02*
G01*
X149800000Y-100774998D01*
X149800002Y-100575000D01*
X149650000Y-100575000D01*
X149650000Y-100425000D01*
X149800002Y-100425000D01*
X149800002Y-100225000D01*
X149950000Y-100225000D01*
X149949998Y-100775000D01*
G37*
G36*
X150200000Y-100425000D02*
G01*
X150350000Y-100425000D01*
X150350000Y-100575000D01*
X150200000Y-100575000D01*
X150200000Y-100775000D01*
X150050000Y-100775000D01*
X150050000Y-100225000D01*
X150200000Y-100225000D01*
X150200000Y-100425000D01*
G37*
%TO.C,D15*%
G36*
X146327792Y-86075000D02*
G01*
X146327792Y-86225000D01*
X146202792Y-86350000D01*
X146202792Y-85950000D01*
X146327792Y-86075000D01*
G37*
G36*
X148102792Y-86350000D02*
G01*
X147977792Y-86225000D01*
X147977792Y-86075000D01*
X148102792Y-85950000D01*
X148102792Y-86350000D01*
G37*
G36*
X147027792Y-85575000D02*
G01*
X147427792Y-85575000D01*
X147427792Y-85725000D01*
X146877792Y-85725000D01*
X146877792Y-85525000D01*
X147027792Y-85525000D01*
X147027792Y-85575000D01*
G37*
G36*
X147427792Y-86725000D02*
G01*
X147027792Y-86725000D01*
X147027792Y-86775000D01*
X146877792Y-86775000D01*
X146877792Y-86575000D01*
X147427792Y-86575000D01*
X147427792Y-86725000D01*
G37*
G36*
X147377792Y-86450000D02*
G01*
X147152792Y-86450000D01*
X147152792Y-86250000D01*
X146927792Y-86250000D01*
X146927792Y-86050000D01*
X147152792Y-86050000D01*
X147152792Y-85850000D01*
X147377792Y-85850000D01*
X147377792Y-86450000D01*
G37*
%TO.C,C14*%
G36*
X150325000Y-106875000D02*
G01*
X149675000Y-106875000D01*
X149675000Y-106725000D01*
X150325000Y-106725000D01*
X150325000Y-106875000D01*
G37*
G36*
X150325000Y-108275000D02*
G01*
X149675000Y-108275000D01*
X149675000Y-108125000D01*
X150325000Y-108125000D01*
X150325000Y-108275000D01*
G37*
G36*
X149949998Y-107775000D02*
G01*
X149800000Y-107774998D01*
X149800002Y-107575000D01*
X149650000Y-107575000D01*
X149650000Y-107425000D01*
X149800002Y-107425000D01*
X149800002Y-107225000D01*
X149950000Y-107225000D01*
X149949998Y-107775000D01*
G37*
G36*
X150200000Y-107425000D02*
G01*
X150350000Y-107425000D01*
X150350000Y-107575000D01*
X150200000Y-107575000D01*
X150200000Y-107775000D01*
X150050000Y-107775000D01*
X150050000Y-107225000D01*
X150200000Y-107225000D01*
X150200000Y-107425000D01*
G37*
D10*
%TO.C,D8*%
X150000000Y-82075000D02*
G75*
G02*
X150075000Y-82000000I75000J0D01*
G01*
X150725000Y-82000000D02*
G75*
G02*
X150800000Y-82075000I0J-75000D01*
G01*
D12*
G36*
X150875000Y-82075000D02*
G01*
X150875000Y-82975000D01*
X150750000Y-82975000D01*
X150725000Y-82950000D01*
X150725000Y-82075000D01*
X150075000Y-82075000D01*
X150075000Y-82950000D01*
X150050000Y-82975000D01*
X149925000Y-82975000D01*
X149925000Y-82075000D01*
X150075000Y-81925000D01*
X150725000Y-81925000D01*
X150875000Y-82075000D01*
G37*
D10*
%TO.C,D9*%
X149200000Y-103075000D02*
G75*
G02*
X149275000Y-103000000I75000J0D01*
G01*
X149925000Y-103000000D02*
G75*
G02*
X150000000Y-103075000I0J-75000D01*
G01*
D12*
G36*
X150075000Y-103075000D02*
G01*
X150075000Y-103975000D01*
X149950000Y-103975000D01*
X149925000Y-103950000D01*
X149925000Y-103075000D01*
X149275000Y-103075000D01*
X149275000Y-103950000D01*
X149250000Y-103975000D01*
X149125000Y-103975000D01*
X149125000Y-103075000D01*
X149275000Y-102925000D01*
X149925000Y-102925000D01*
X150075000Y-103075000D01*
G37*
%TO.C,D16*%
G36*
X146327792Y-84675000D02*
G01*
X146327792Y-84825000D01*
X146202792Y-84950000D01*
X146202792Y-84550000D01*
X146327792Y-84675000D01*
G37*
G36*
X148102792Y-84950000D02*
G01*
X147977792Y-84825000D01*
X147977792Y-84675000D01*
X148102792Y-84550000D01*
X148102792Y-84950000D01*
G37*
G36*
X147027792Y-84175000D02*
G01*
X147427792Y-84175000D01*
X147427792Y-84325000D01*
X146877792Y-84325000D01*
X146877792Y-84125000D01*
X147027792Y-84125000D01*
X147027792Y-84175000D01*
G37*
G36*
X147427792Y-85325000D02*
G01*
X147027792Y-85325000D01*
X147027792Y-85375000D01*
X146877792Y-85375000D01*
X146877792Y-85175000D01*
X147427792Y-85175000D01*
X147427792Y-85325000D01*
G37*
G36*
X147377792Y-85050000D02*
G01*
X147152792Y-85050000D01*
X147152792Y-84850000D01*
X146927792Y-84850000D01*
X146927792Y-84650000D01*
X147152792Y-84650000D01*
X147152792Y-84450000D01*
X147377792Y-84450000D01*
X147377792Y-85050000D01*
G37*
D10*
%TO.C,D1*%
X150075000Y-106500000D02*
G75*
G02*
X150000000Y-106425000I0J75000D01*
G01*
X150800000Y-106425000D02*
G75*
G02*
X150725000Y-106500000I-75000J0D01*
G01*
D12*
G36*
X150075000Y-105550000D02*
G01*
X150075000Y-106425000D01*
X150725000Y-106425000D01*
X150725000Y-105550000D01*
X150750000Y-105525000D01*
X150875000Y-105525000D01*
X150875000Y-106425000D01*
X150725000Y-106575000D01*
X150075000Y-106575000D01*
X149925000Y-106425000D01*
X149925000Y-105525000D01*
X150050000Y-105525000D01*
X150075000Y-105550000D01*
G37*
D10*
%TO.C,D5*%
X150075000Y-92500000D02*
G75*
G02*
X150000000Y-92425000I0J75000D01*
G01*
X150800000Y-92425000D02*
G75*
G02*
X150725000Y-92500000I-75000J0D01*
G01*
D12*
G36*
X150075000Y-91550000D02*
G01*
X150075000Y-92425000D01*
X150725000Y-92425000D01*
X150725000Y-91550000D01*
X150750000Y-91525000D01*
X150875000Y-91525000D01*
X150875000Y-92425000D01*
X150725000Y-92575000D01*
X150075000Y-92575000D01*
X149925000Y-92425000D01*
X149925000Y-91525000D01*
X150050000Y-91525000D01*
X150075000Y-91550000D01*
G37*
D10*
%TO.C,D3*%
X150075000Y-99500000D02*
G75*
G02*
X150000000Y-99425000I0J75000D01*
G01*
X150800000Y-99425000D02*
G75*
G02*
X150725000Y-99500000I-75000J0D01*
G01*
D12*
G36*
X150075000Y-98550000D02*
G01*
X150075000Y-99425000D01*
X150725000Y-99425000D01*
X150725000Y-98550000D01*
X150750000Y-98525000D01*
X150875000Y-98525000D01*
X150875000Y-99425000D01*
X150725000Y-99575000D01*
X150075000Y-99575000D01*
X149925000Y-99425000D01*
X149925000Y-98525000D01*
X150050000Y-98525000D01*
X150075000Y-98550000D01*
G37*
%TO.C,C15*%
G36*
X150325000Y-101375000D02*
G01*
X149675000Y-101375000D01*
X149675000Y-101225000D01*
X150325000Y-101225000D01*
X150325000Y-101375000D01*
G37*
G36*
X150325000Y-102775000D02*
G01*
X149675000Y-102775000D01*
X149675000Y-102625000D01*
X150325000Y-102625000D01*
X150325000Y-102775000D01*
G37*
G36*
X149950000Y-102275000D02*
G01*
X149800000Y-102275000D01*
X149800000Y-102075000D01*
X149650000Y-102075000D01*
X149650000Y-101925000D01*
X149800000Y-101925000D01*
X149800000Y-101725000D01*
X149950000Y-101725000D01*
X149950000Y-102275000D01*
G37*
G36*
X150200000Y-101725002D02*
G01*
X150199998Y-101925000D01*
X150350000Y-101925000D01*
X150350000Y-102075000D01*
X150199998Y-102075000D01*
X150199998Y-102275000D01*
X150050000Y-102275000D01*
X150050002Y-101725000D01*
X150200000Y-101725002D01*
G37*
D13*
%TO.C,J2*%
X152065000Y-101640000D02*
X152065000Y-102690000D01*
X152065000Y-106810000D02*
X151075000Y-106810000D01*
X152065000Y-107860000D02*
X152065000Y-106810000D01*
X154565000Y-101640000D02*
X152065000Y-101640000D01*
X154565000Y-107860000D02*
X152065000Y-107860000D01*
X156535000Y-106690000D02*
X156535000Y-102810000D01*
D12*
%TO.C,D19*%
G36*
X144327792Y-86075000D02*
G01*
X144327792Y-86225000D01*
X144202792Y-86350000D01*
X144202792Y-85950000D01*
X144327792Y-86075000D01*
G37*
G36*
X146102792Y-86350000D02*
G01*
X145977792Y-86225000D01*
X145977792Y-86075000D01*
X146102792Y-85950000D01*
X146102792Y-86350000D01*
G37*
G36*
X145027792Y-85575000D02*
G01*
X145427792Y-85575000D01*
X145427792Y-85725000D01*
X144877792Y-85725000D01*
X144877792Y-85525000D01*
X145027792Y-85525000D01*
X145027792Y-85575000D01*
G37*
G36*
X145427792Y-86725000D02*
G01*
X145027792Y-86725000D01*
X145027792Y-86775000D01*
X144877792Y-86775000D01*
X144877792Y-86575000D01*
X145427792Y-86575000D01*
X145427792Y-86725000D01*
G37*
G36*
X145377792Y-86450000D02*
G01*
X145152792Y-86450000D01*
X145152792Y-86250000D01*
X144927792Y-86250000D01*
X144927792Y-86050000D01*
X145152792Y-86050000D01*
X145152792Y-85850000D01*
X145377792Y-85850000D01*
X145377792Y-86450000D01*
G37*
D13*
%TO.C,J5*%
X152065000Y-80640000D02*
X152065000Y-81690000D01*
X152065000Y-85810000D02*
X151075000Y-85810000D01*
X152065000Y-86860000D02*
X152065000Y-85810000D01*
X154565000Y-80640000D02*
X152065000Y-80640000D01*
X154565000Y-86860000D02*
X152065000Y-86860000D01*
X156535000Y-85690000D02*
X156535000Y-81810000D01*
D12*
%TO.C,C20*%
G36*
X150325000Y-85875000D02*
G01*
X149675000Y-85875000D01*
X149675000Y-85725000D01*
X150325000Y-85725000D01*
X150325000Y-85875000D01*
G37*
G36*
X150325000Y-87275000D02*
G01*
X149675000Y-87275000D01*
X149675000Y-87125000D01*
X150325000Y-87125000D01*
X150325000Y-87275000D01*
G37*
G36*
X149949998Y-86775000D02*
G01*
X149800000Y-86774998D01*
X149800002Y-86575000D01*
X149650000Y-86575000D01*
X149650000Y-86425000D01*
X149800002Y-86425000D01*
X149800002Y-86225000D01*
X149950000Y-86225000D01*
X149949998Y-86775000D01*
G37*
G36*
X150200000Y-86425000D02*
G01*
X150350000Y-86425000D01*
X150350000Y-86575000D01*
X150200000Y-86575000D01*
X150200000Y-86775000D01*
X150050000Y-86775000D01*
X150050000Y-86225000D01*
X150200000Y-86225000D01*
X150200000Y-86425000D01*
G37*
%TO.C,D20*%
G36*
X144327792Y-84675000D02*
G01*
X144327792Y-84825000D01*
X144202792Y-84950000D01*
X144202792Y-84550000D01*
X144327792Y-84675000D01*
G37*
G36*
X146102792Y-84950000D02*
G01*
X145977792Y-84825000D01*
X145977792Y-84675000D01*
X146102792Y-84550000D01*
X146102792Y-84950000D01*
G37*
G36*
X145027792Y-84175000D02*
G01*
X145427792Y-84175000D01*
X145427792Y-84325000D01*
X144877792Y-84325000D01*
X144877792Y-84125000D01*
X145027792Y-84125000D01*
X145027792Y-84175000D01*
G37*
G36*
X145427792Y-85325000D02*
G01*
X145027792Y-85325000D01*
X145027792Y-85375000D01*
X144877792Y-85375000D01*
X144877792Y-85175000D01*
X145427792Y-85175000D01*
X145427792Y-85325000D01*
G37*
G36*
X145377792Y-85050000D02*
G01*
X145152792Y-85050000D01*
X145152792Y-84850000D01*
X144927792Y-84850000D01*
X144927792Y-84650000D01*
X145152792Y-84650000D01*
X145152792Y-84450000D01*
X145377792Y-84450000D01*
X145377792Y-85050000D01*
G37*
D10*
%TO.C,D6*%
X150000000Y-89075000D02*
G75*
G02*
X150075000Y-89000000I75000J0D01*
G01*
X150725000Y-89000000D02*
G75*
G02*
X150800000Y-89075000I0J-75000D01*
G01*
D12*
G36*
X150875000Y-89075000D02*
G01*
X150875000Y-89975000D01*
X150750000Y-89975000D01*
X150725000Y-89950000D01*
X150725000Y-89075000D01*
X150075000Y-89075000D01*
X150075000Y-89950000D01*
X150050000Y-89975000D01*
X149925000Y-89975000D01*
X149925000Y-89075000D01*
X150075000Y-88925000D01*
X150725000Y-88925000D01*
X150875000Y-89075000D01*
G37*
%TO.C,C17*%
G36*
X150325000Y-94325000D02*
G01*
X149675000Y-94325000D01*
X149675000Y-94175000D01*
X150325000Y-94175000D01*
X150325000Y-94325000D01*
G37*
G36*
X150325000Y-95725000D02*
G01*
X149675000Y-95725000D01*
X149675000Y-95575000D01*
X150325000Y-95575000D01*
X150325000Y-95725000D01*
G37*
G36*
X149950000Y-95225000D02*
G01*
X149800000Y-95225000D01*
X149800000Y-95025000D01*
X149650000Y-95025000D01*
X149650000Y-94875000D01*
X149800000Y-94875000D01*
X149800000Y-94675000D01*
X149950000Y-94675000D01*
X149950000Y-95225000D01*
G37*
G36*
X150200000Y-94675002D02*
G01*
X150199998Y-94875000D01*
X150350000Y-94875000D01*
X150350000Y-95025000D01*
X150199998Y-95025000D01*
X150199998Y-95225000D01*
X150050000Y-95225000D01*
X150050002Y-94675000D01*
X150200000Y-94675002D01*
G37*
D10*
%TO.C,D7*%
X150075000Y-85500000D02*
G75*
G02*
X150000000Y-85425000I0J75000D01*
G01*
X150800000Y-85425000D02*
G75*
G02*
X150725000Y-85500000I-75000J0D01*
G01*
D12*
G36*
X150075000Y-84550000D02*
G01*
X150075000Y-85425000D01*
X150725000Y-85425000D01*
X150725000Y-84550000D01*
X150750000Y-84525000D01*
X150875000Y-84525000D01*
X150875000Y-85425000D01*
X150725000Y-85575000D01*
X150075000Y-85575000D01*
X149925000Y-85425000D01*
X149925000Y-84525000D01*
X150050000Y-84525000D01*
X150075000Y-84550000D01*
G37*
D10*
%TO.C,D14*%
X149275000Y-92500000D02*
G75*
G02*
X149200000Y-92425000I0J75000D01*
G01*
X150000000Y-92425000D02*
G75*
G02*
X149925000Y-92500000I-75000J0D01*
G01*
D12*
G36*
X149275000Y-91550000D02*
G01*
X149275000Y-92425000D01*
X149925000Y-92425000D01*
X149925000Y-91550000D01*
X149950000Y-91525000D01*
X150075000Y-91525000D01*
X150075000Y-92425000D01*
X149925000Y-92575000D01*
X149275000Y-92575000D01*
X149125000Y-92425000D01*
X149125000Y-91525000D01*
X149250000Y-91525000D01*
X149275000Y-91550000D01*
G37*
%TO.C,D21*%
G36*
X144327792Y-83275000D02*
G01*
X144327792Y-83425000D01*
X144202792Y-83550000D01*
X144202792Y-83150000D01*
X144327792Y-83275000D01*
G37*
G36*
X146102792Y-83550000D02*
G01*
X145977792Y-83425000D01*
X145977792Y-83275000D01*
X146102792Y-83150000D01*
X146102792Y-83550000D01*
G37*
G36*
X145027792Y-82775000D02*
G01*
X145427792Y-82775000D01*
X145427792Y-82925000D01*
X144877792Y-82925000D01*
X144877792Y-82725000D01*
X145027792Y-82725000D01*
X145027792Y-82775000D01*
G37*
G36*
X145427792Y-83925000D02*
G01*
X145027792Y-83925000D01*
X145027792Y-83975000D01*
X144877792Y-83975000D01*
X144877792Y-83775000D01*
X145427792Y-83775000D01*
X145427792Y-83925000D01*
G37*
G36*
X145377792Y-83650000D02*
G01*
X145152792Y-83650000D01*
X145152792Y-83450000D01*
X144927792Y-83450000D01*
X144927792Y-83250000D01*
X145152792Y-83250000D01*
X145152792Y-83050000D01*
X145377792Y-83050000D01*
X145377792Y-83650000D01*
G37*
D13*
%TO.C,J4*%
X152065000Y-87640000D02*
X152065000Y-88690000D01*
X152065000Y-92810000D02*
X151075000Y-92810000D01*
X152065000Y-93860000D02*
X152065000Y-92810000D01*
X154565000Y-87640000D02*
X152065000Y-87640000D01*
X154565000Y-93860000D02*
X152065000Y-93860000D01*
X156535000Y-92690000D02*
X156535000Y-88810000D01*
D10*
%TO.C,D11*%
X149200000Y-96075000D02*
G75*
G02*
X149275000Y-96000000I75000J0D01*
G01*
X149925000Y-96000000D02*
G75*
G02*
X150000000Y-96075000I0J-75000D01*
G01*
D12*
G36*
X150075000Y-96075000D02*
G01*
X150075000Y-96975000D01*
X149950000Y-96975000D01*
X149925000Y-96950000D01*
X149925000Y-96075000D01*
X149275000Y-96075000D01*
X149275000Y-96950000D01*
X149250000Y-96975000D01*
X149125000Y-96975000D01*
X149125000Y-96075000D01*
X149275000Y-95925000D01*
X149925000Y-95925000D01*
X150075000Y-96075000D01*
G37*
D13*
%TO.C,J6*%
X143465000Y-102810000D02*
X143465000Y-106690000D01*
X145435000Y-101640000D02*
X147935000Y-101640000D01*
X145435000Y-107860000D02*
X147935000Y-107860000D01*
X147935000Y-101640000D02*
X147935000Y-102690000D01*
X147935000Y-102690000D02*
X148925000Y-102690000D01*
X147935000Y-107860000D02*
X147935000Y-106810000D01*
D12*
%TO.C,C19*%
G36*
X150325000Y-87375000D02*
G01*
X149675000Y-87375000D01*
X149675000Y-87225000D01*
X150325000Y-87225000D01*
X150325000Y-87375000D01*
G37*
G36*
X150325000Y-88775000D02*
G01*
X149675000Y-88775000D01*
X149675000Y-88625000D01*
X150325000Y-88625000D01*
X150325000Y-88775000D01*
G37*
G36*
X149950000Y-88275000D02*
G01*
X149800000Y-88275000D01*
X149800000Y-88075000D01*
X149650000Y-88075000D01*
X149650000Y-87925000D01*
X149800000Y-87925000D01*
X149800000Y-87725000D01*
X149950000Y-87725000D01*
X149950000Y-88275000D01*
G37*
G36*
X150200000Y-87725002D02*
G01*
X150199998Y-87925000D01*
X150350000Y-87925000D01*
X150350000Y-88075000D01*
X150199998Y-88075000D01*
X150199998Y-88275000D01*
X150050000Y-88275000D01*
X150050002Y-87725000D01*
X150200000Y-87725002D01*
G37*
%TO.C,D17*%
G36*
X146327792Y-83275000D02*
G01*
X146327792Y-83425000D01*
X146202792Y-83550000D01*
X146202792Y-83150000D01*
X146327792Y-83275000D01*
G37*
G36*
X148102792Y-83550000D02*
G01*
X147977792Y-83425000D01*
X147977792Y-83275000D01*
X148102792Y-83150000D01*
X148102792Y-83550000D01*
G37*
G36*
X147027792Y-82775000D02*
G01*
X147427792Y-82775000D01*
X147427792Y-82925000D01*
X146877792Y-82925000D01*
X146877792Y-82725000D01*
X147027792Y-82725000D01*
X147027792Y-82775000D01*
G37*
G36*
X147427792Y-83925000D02*
G01*
X147027792Y-83925000D01*
X147027792Y-83975000D01*
X146877792Y-83975000D01*
X146877792Y-83775000D01*
X147427792Y-83775000D01*
X147427792Y-83925000D01*
G37*
G36*
X147377792Y-83650000D02*
G01*
X147152792Y-83650000D01*
X147152792Y-83450000D01*
X146927792Y-83450000D01*
X146927792Y-83250000D01*
X147152792Y-83250000D01*
X147152792Y-83050000D01*
X147377792Y-83050000D01*
X147377792Y-83650000D01*
G37*
%TO.C,D18*%
G36*
X146327792Y-81875000D02*
G01*
X146327792Y-82025000D01*
X146202792Y-82150000D01*
X146202792Y-81750000D01*
X146327792Y-81875000D01*
G37*
G36*
X148102792Y-82150000D02*
G01*
X147977792Y-82025000D01*
X147977792Y-81875000D01*
X148102792Y-81750000D01*
X148102792Y-82150000D01*
G37*
G36*
X147027792Y-81375000D02*
G01*
X147427792Y-81375000D01*
X147427792Y-81525000D01*
X146877792Y-81525000D01*
X146877792Y-81325000D01*
X147027792Y-81325000D01*
X147027792Y-81375000D01*
G37*
G36*
X147427792Y-82525000D02*
G01*
X147027792Y-82525000D01*
X147027792Y-82575000D01*
X146877792Y-82575000D01*
X146877792Y-82375000D01*
X147427792Y-82375000D01*
X147427792Y-82525000D01*
G37*
G36*
X147377792Y-82250000D02*
G01*
X147152792Y-82250000D01*
X147152792Y-82050000D01*
X146927792Y-82050000D01*
X146927792Y-81850000D01*
X147152792Y-81850000D01*
X147152792Y-81650000D01*
X147377792Y-81650000D01*
X147377792Y-82250000D01*
G37*
D10*
%TO.C,D2*%
X150000000Y-103075000D02*
G75*
G02*
X150075000Y-103000000I75000J0D01*
G01*
X150725000Y-103000000D02*
G75*
G02*
X150800000Y-103075000I0J-75000D01*
G01*
D12*
G36*
X150875000Y-103075000D02*
G01*
X150875000Y-103975000D01*
X150750000Y-103975000D01*
X150725000Y-103950000D01*
X150725000Y-103075000D01*
X150075000Y-103075000D01*
X150075000Y-103950000D01*
X150050000Y-103975000D01*
X149925000Y-103975000D01*
X149925000Y-103075000D01*
X150075000Y-102925000D01*
X150725000Y-102925000D01*
X150875000Y-103075000D01*
G37*
D10*
%TO.C,D12*%
X149275000Y-99500000D02*
G75*
G02*
X149200000Y-99425000I0J75000D01*
G01*
X150000000Y-99425000D02*
G75*
G02*
X149925000Y-99500000I-75000J0D01*
G01*
D12*
G36*
X149275000Y-98550000D02*
G01*
X149275000Y-99425000D01*
X149925000Y-99425000D01*
X149925000Y-98550000D01*
X149950000Y-98525000D01*
X150075000Y-98525000D01*
X150075000Y-99425000D01*
X149925000Y-99575000D01*
X149275000Y-99575000D01*
X149125000Y-99425000D01*
X149125000Y-98525000D01*
X149250000Y-98525000D01*
X149275000Y-98550000D01*
G37*
D13*
%TO.C,J3*%
X152065000Y-94640000D02*
X152065000Y-95690000D01*
X152065000Y-99810000D02*
X151075000Y-99810000D01*
X152065000Y-100860000D02*
X152065000Y-99810000D01*
X154565000Y-94640000D02*
X152065000Y-94640000D01*
X154565000Y-100860000D02*
X152065000Y-100860000D01*
X156535000Y-99690000D02*
X156535000Y-95810000D01*
D10*
%TO.C,D13*%
X149200000Y-89075000D02*
G75*
G02*
X149275000Y-89000000I75000J0D01*
G01*
X149925000Y-89000000D02*
G75*
G02*
X150000000Y-89075000I0J-75000D01*
G01*
D12*
G36*
X150075000Y-89075000D02*
G01*
X150075000Y-89975000D01*
X149950000Y-89975000D01*
X149925000Y-89950000D01*
X149925000Y-89075000D01*
X149275000Y-89075000D01*
X149275000Y-89950000D01*
X149250000Y-89975000D01*
X149125000Y-89975000D01*
X149125000Y-89075000D01*
X149275000Y-88925000D01*
X149925000Y-88925000D01*
X150075000Y-89075000D01*
G37*
%TD*%
%LPC*%
D14*
X158000000Y-94750000D02*
X157000000Y-94750000D01*
X157000000Y-93750000D01*
X158000000Y-93750000D01*
X158000000Y-94750000D01*
G36*
X158000000Y-94750000D02*
G01*
X157000000Y-94750000D01*
X157000000Y-93750000D01*
X158000000Y-93750000D01*
X158000000Y-94750000D01*
G37*
X143000000Y-94750000D02*
X142000000Y-94750000D01*
X142000000Y-93750000D01*
X143000000Y-93750000D01*
X143000000Y-94750000D01*
G36*
X143000000Y-94750000D02*
G01*
X142000000Y-94750000D01*
X142000000Y-93750000D01*
X143000000Y-93750000D01*
X143000000Y-94750000D01*
G37*
X143000000Y-87750000D02*
X142000000Y-87750000D01*
X142000000Y-86750000D01*
X143000000Y-86750000D01*
X143000000Y-87750000D01*
G36*
X143000000Y-87750000D02*
G01*
X142000000Y-87750000D01*
X142000000Y-86750000D01*
X143000000Y-86750000D01*
X143000000Y-87750000D01*
G37*
X158000000Y-101750000D02*
X157000000Y-101750000D01*
X157000000Y-100750000D01*
X158000000Y-100750000D01*
X158000000Y-101750000D01*
G36*
X158000000Y-101750000D02*
G01*
X157000000Y-101750000D01*
X157000000Y-100750000D01*
X158000000Y-100750000D01*
X158000000Y-101750000D01*
G37*
X157750000Y-108000000D02*
X157250000Y-108250000D01*
X157000000Y-108250000D01*
X157000000Y-107500000D01*
X158000000Y-107500000D01*
X157750000Y-108000000D01*
G36*
X157750000Y-108000000D02*
G01*
X157250000Y-108250000D01*
X157000000Y-108250000D01*
X157000000Y-107500000D01*
X158000000Y-107500000D01*
X157750000Y-108000000D01*
G37*
X143000000Y-108250000D02*
X142750000Y-108250000D01*
X142250000Y-108000000D01*
X142000000Y-107500000D01*
X143000000Y-107500000D01*
X143000000Y-108250000D01*
G36*
X143000000Y-108250000D02*
G01*
X142750000Y-108250000D01*
X142250000Y-108000000D01*
X142000000Y-107500000D01*
X143000000Y-107500000D01*
X143000000Y-108250000D01*
G37*
X157750000Y-80500000D02*
X158000000Y-81000000D01*
X157000000Y-81000000D01*
X157000000Y-80250000D01*
X157250000Y-80250000D01*
X157750000Y-80500000D01*
G36*
X157750000Y-80500000D02*
G01*
X158000000Y-81000000D01*
X157000000Y-81000000D01*
X157000000Y-80250000D01*
X157250000Y-80250000D01*
X157750000Y-80500000D01*
G37*
X143000000Y-101750000D02*
X142000000Y-101750000D01*
X142000000Y-100750000D01*
X143000000Y-100750000D01*
X143000000Y-101750000D01*
G36*
X143000000Y-101750000D02*
G01*
X142000000Y-101750000D01*
X142000000Y-100750000D01*
X143000000Y-100750000D01*
X143000000Y-101750000D01*
G37*
X158000000Y-87750000D02*
X157000000Y-87750000D01*
X157000000Y-86750000D01*
X158000000Y-86750000D01*
X158000000Y-87750000D01*
G36*
X158000000Y-87750000D02*
G01*
X157000000Y-87750000D01*
X157000000Y-86750000D01*
X158000000Y-86750000D01*
X158000000Y-87750000D01*
G37*
D15*
%TO.C,D4*%
X150400000Y-96300000D03*
X150400000Y-97200000D03*
%TD*%
D16*
%TO.C,J7*%
X148150000Y-96250000D03*
X148150000Y-97250000D03*
X148150000Y-98250000D03*
X148150000Y-99250000D03*
D17*
X144275000Y-94950000D03*
X144275000Y-100550000D03*
%TD*%
D16*
%TO.C,J8*%
X148150000Y-89250000D03*
X148150000Y-90250000D03*
X148150000Y-91250000D03*
X148150000Y-92250000D03*
D17*
X144275000Y-87950000D03*
X144275000Y-93550000D03*
%TD*%
D18*
%TO.C,D10*%
X149600000Y-106200000D03*
X149600000Y-105300000D03*
%TD*%
D19*
%TO.C,C18*%
X150825000Y-93500000D03*
X149175000Y-93500000D03*
%TD*%
%TO.C,C16*%
X150825000Y-100500000D03*
X149175000Y-100500000D03*
%TD*%
D20*
%TO.C,D15*%
X147752792Y-86500000D03*
X146552792Y-86500000D03*
X147752792Y-85800000D03*
X146552792Y-85800000D03*
%TD*%
D19*
%TO.C,C14*%
X150825000Y-107500000D03*
X149175000Y-107500000D03*
%TD*%
D15*
%TO.C,D8*%
X150400000Y-82300000D03*
X150400000Y-83200000D03*
%TD*%
%TO.C,D9*%
X149600000Y-103300000D03*
X149600000Y-104200000D03*
%TD*%
D20*
%TO.C,D16*%
X147752792Y-85100000D03*
X146552792Y-85100000D03*
X147752792Y-84400000D03*
X146552792Y-84400000D03*
%TD*%
D18*
%TO.C,D1*%
X150400000Y-106200000D03*
X150400000Y-105300000D03*
%TD*%
D21*
%TO.C,D5*%
X150400000Y-92200000D03*
X150400000Y-91300000D03*
%TD*%
%TO.C,D3*%
X150400000Y-99200000D03*
X150400000Y-98300000D03*
%TD*%
D22*
%TO.C,C15*%
X149175000Y-102000000D03*
X150825000Y-102000000D03*
%TD*%
D23*
%TO.C,J2*%
X151850000Y-106250000D03*
X151850000Y-105250000D03*
X151850000Y-104250000D03*
X151850000Y-103250000D03*
D24*
X155725000Y-107550000D03*
X155725000Y-101950000D03*
%TD*%
D20*
%TO.C,D19*%
X145752792Y-86500000D03*
X144552792Y-86500000D03*
X145752792Y-85800000D03*
X144552792Y-85800000D03*
%TD*%
D23*
%TO.C,J5*%
X151850000Y-85250000D03*
X151850000Y-84250000D03*
X151850000Y-83250000D03*
X151850000Y-82250000D03*
D24*
X155725000Y-86550000D03*
X155725000Y-80950000D03*
%TD*%
D19*
%TO.C,C20*%
X150825000Y-86500000D03*
X149175000Y-86500000D03*
%TD*%
D20*
%TO.C,D20*%
X145752792Y-85100000D03*
X144552792Y-85100000D03*
X145752792Y-84400000D03*
X144552792Y-84400000D03*
%TD*%
D15*
%TO.C,D6*%
X150400000Y-89300000D03*
X150400000Y-90200000D03*
%TD*%
D25*
%TO.C,J1*%
X153810000Y-115150000D03*
D26*
X151270000Y-114775000D03*
X148730000Y-114775000D03*
D25*
X146190000Y-115150000D03*
%TD*%
D22*
%TO.C,C17*%
X149175000Y-94950000D03*
X150825000Y-94950000D03*
%TD*%
D21*
%TO.C,D7*%
X150400000Y-85200000D03*
X150400000Y-84300000D03*
%TD*%
%TO.C,D14*%
X149600000Y-92200000D03*
X149600000Y-91300000D03*
%TD*%
D20*
%TO.C,D21*%
X145752792Y-83700000D03*
X144552792Y-83700000D03*
X145752792Y-83000000D03*
X144552792Y-83000000D03*
%TD*%
D23*
%TO.C,J4*%
X151850000Y-92250000D03*
X151850000Y-91250000D03*
X151850000Y-90250000D03*
X151850000Y-89250000D03*
D24*
X155725000Y-93550000D03*
X155725000Y-87950000D03*
%TD*%
D15*
%TO.C,D11*%
X149600000Y-96300000D03*
X149600000Y-97200000D03*
%TD*%
D16*
%TO.C,J6*%
X148150000Y-103250000D03*
X148150000Y-104250000D03*
X148150000Y-105250000D03*
X148150000Y-106250000D03*
D17*
X144275000Y-101950000D03*
X144275000Y-107550000D03*
%TD*%
D22*
%TO.C,C19*%
X149175000Y-88000000D03*
X150825000Y-88000000D03*
%TD*%
D20*
%TO.C,D17*%
X147752792Y-83700000D03*
X146552792Y-83700000D03*
X147752792Y-83000000D03*
X146552792Y-83000000D03*
%TD*%
%TO.C,D18*%
X147752792Y-82300000D03*
X146552792Y-82300000D03*
X147752792Y-81600000D03*
X146552792Y-81600000D03*
%TD*%
D15*
%TO.C,D2*%
X150400000Y-103300000D03*
X150400000Y-104200000D03*
%TD*%
D21*
%TO.C,D12*%
X149600000Y-99200000D03*
X149600000Y-98300000D03*
%TD*%
D27*
%TO.C,H1*%
X150000000Y-109250000D03*
%TD*%
D23*
%TO.C,J3*%
X151850000Y-99250000D03*
X151850000Y-98250000D03*
X151850000Y-97250000D03*
X151850000Y-96250000D03*
D24*
X155725000Y-100550000D03*
X155725000Y-94950000D03*
%TD*%
D15*
%TO.C,D13*%
X149600000Y-89300000D03*
X149600000Y-90200000D03*
%TD*%
D28*
X157250000Y-102450000D03*
X151500000Y-81500000D03*
X142780000Y-93250000D03*
X150124571Y-99757687D03*
X146180031Y-93072237D03*
X157300000Y-88250000D03*
X142290000Y-100250000D03*
X142750000Y-81000000D03*
X150030000Y-92960000D03*
X148300000Y-99930000D03*
X157250000Y-98850000D03*
X148400000Y-107150000D03*
X147230000Y-88030000D03*
X157280000Y-81500000D03*
X149819271Y-107261475D03*
X157290000Y-86250000D03*
X153780000Y-86680000D03*
X143310000Y-95910000D03*
X147030000Y-106040000D03*
X147280000Y-98900000D03*
X157280000Y-93250000D03*
X142290000Y-102250000D03*
X151720000Y-95570000D03*
X155414117Y-92535883D03*
X151034229Y-103573736D03*
X146700000Y-89050000D03*
X148500000Y-87250000D03*
X153300000Y-105500000D03*
X154331365Y-98163517D03*
X150060000Y-95580000D03*
X143810000Y-85220000D03*
X157750000Y-95250000D03*
X153750000Y-85500000D03*
X143745010Y-99546626D03*
X153600000Y-90150000D03*
X151650000Y-100150000D03*
X147400000Y-80670000D03*
X144120000Y-89110000D03*
X144000000Y-102950000D03*
X145460000Y-108030000D03*
X144380000Y-97710000D03*
X154550000Y-104100000D03*
X149911324Y-86248711D03*
X146938761Y-92250000D03*
X155595010Y-88970000D03*
X145320000Y-103210000D03*
X145510000Y-90820000D03*
X151600000Y-88500000D03*
X149600000Y-84610000D03*
X149950000Y-108050000D03*
X153246511Y-96950092D03*
D29*
X153080000Y-91450000D03*
X150100000Y-87050000D03*
D28*
X144950000Y-92400000D03*
D29*
X145920000Y-106040000D03*
D28*
X148300000Y-108050000D03*
D29*
X153710000Y-107990000D03*
X153150000Y-84600000D03*
D28*
X151590000Y-101084990D03*
X151600000Y-102160000D03*
X148440000Y-85970000D03*
X148630000Y-85090000D03*
X148630000Y-83740000D03*
X148600000Y-82290000D03*
X143750000Y-86250000D03*
X143700000Y-84370000D03*
X143730000Y-83000000D03*
D29*
X154500000Y-108500000D03*
D28*
X152850000Y-100550000D03*
X152345136Y-101002923D03*
X152880018Y-98230018D03*
X152858771Y-97580354D03*
X154629380Y-98839419D03*
X154197253Y-99324992D03*
X155750000Y-98500000D03*
X156250000Y-98000000D03*
X146594655Y-104644598D03*
X146975560Y-105171312D03*
X143660000Y-98150000D03*
X143710000Y-98840000D03*
X145070000Y-97740000D03*
X145520000Y-98240000D03*
X147150000Y-108250000D03*
X146650883Y-103250883D03*
X146947546Y-102650703D03*
X146489117Y-108260883D03*
X147750001Y-87500001D03*
%LPD*%
D30*
X152250000Y-80000000D02*
X157000000Y-80000000D01*
X148500000Y-81000000D02*
X151500000Y-81000000D01*
X157000000Y-108500000D02*
X156100000Y-108500000D01*
X141750000Y-107250000D02*
X141750000Y-81250000D01*
X156100000Y-120000000D02*
X156100000Y-108500000D01*
X148000000Y-80250000D02*
X148000000Y-80500000D01*
X152000000Y-80250000D02*
G75*
G02*
X152250000Y-80000000I250000J0D01*
G01*
X143900000Y-120000000D02*
X143900000Y-108500000D01*
X141750000Y-81250000D02*
G75*
G02*
X143000000Y-80000000I1250000J0D01*
G01*
X147750000Y-80000000D02*
G75*
G02*
X148000000Y-80250000I0J-250000D01*
G01*
X143000000Y-108500000D02*
G75*
G02*
X141750000Y-107250000I0J1250000D01*
G01*
X143900000Y-120000000D02*
X156100000Y-120000000D01*
X158250000Y-81250000D02*
X158250000Y-107250000D01*
X143000000Y-80000000D02*
X147750000Y-80000000D01*
X158250000Y-107250000D02*
G75*
G02*
X157000000Y-108500000I-1250000J0D01*
G01*
X157000000Y-80000000D02*
G75*
G02*
X158250000Y-81250000I0J-1250000D01*
G01*
X148500000Y-81000000D02*
G75*
G02*
X148000000Y-80500000I0J500000D01*
G01*
X143900000Y-108500000D02*
X143000000Y-108500000D01*
X152000000Y-80500000D02*
G75*
G02*
X151500000Y-81000000I-500000J0D01*
G01*
X152000000Y-80500000D02*
X152000000Y-80250000D01*
M02*
