%TF.GenerationSoftware,KiCad,Pcbnew,8.99.0-344-gfbc433deaa-dirty*%
%TF.CreationDate,2024-03-11T18:50:45+01:00*%
%TF.ProjectId,StickHub,53746963-6b48-4756-922e-6b696361645f,rev?*%
%TF.SameCoordinates,Original*%
%TF.FileFunction,Component,L1,Top*%
%TF.FilePolarity,Positive*%
%FSLAX46Y46*%
G04 Gerber Fmt 4.6, Leading zero omitted, Abs format (unit mm)*
G04 Created by KiCad (PCBNEW 8.99.0-344-gfbc433deaa-dirty) date 2024-03-11 18:50:45*
%MOMM*%
%LPD*%
G01*
G04 APERTURE LIST*
%TA.AperFunction,ComponentMain*%
%ADD10C,0.300000*%
%TD*%
%TA.AperFunction,ComponentOutline,Courtyard*%
%ADD11C,0.100000*%
%TD*%
%TA.AperFunction,ComponentPin*%
%ADD12P,0.360000X4X0.000000*%
%TD*%
%TA.AperFunction,ComponentPin*%
%ADD13C,0.100000*%
%TD*%
%TA.AperFunction,Profile*%
%ADD14C,0.100000*%
%TD*%
G04 APERTURE END LIST*
D10*
%TO.C,D4*%
%TO.CFtp,1006_C*%
%TO.CVal,TVS*%
%TO.CLbN,Diode_SMD*%
%TO.CMnt,SMD*%
%TO.CRot,-90*%
X150400000Y-96750000D03*
D11*
X150125000Y-96000001D02*
X150675000Y-96000001D01*
X150707923Y-96002130D01*
X150764948Y-96035053D01*
X150797870Y-96092077D01*
X150799999Y-96125000D01*
X150799999Y-97375000D01*
X150797870Y-97407923D01*
X150764948Y-97464947D01*
X150707923Y-97497870D01*
X150675000Y-97499999D01*
X150125000Y-97499999D01*
X150092077Y-97497870D01*
X150035052Y-97464947D01*
X150002130Y-97407923D01*
X150000001Y-97375000D01*
X150000001Y-96125000D01*
X150002130Y-96092077D01*
X150035052Y-96035053D01*
X150092077Y-96002130D01*
X150125000Y-96000001D01*
D12*
%TO.P,D4,1,A1*%
X150400000Y-96300000D03*
D13*
%TO.P,D4,2,A2*%
X150400000Y-97200000D03*
%TD*%
D10*
%TO.C,J7*%
%TO.CFtp,JST_SH_SM04B-SRSS-TB_1x04-1MP_P1.00mm_Horizontal*%
%TO.CVal,USB6*%
%TO.CLbN,Connector_JST*%
%TO.CMnt,SMD*%
%TO.CRot,-90*%
X146150000Y-97750000D03*
D11*
X149429999Y-93850001D02*
X149429999Y-101649999D01*
X142870001Y-101649999D01*
X142870001Y-93850001D01*
X149429999Y-93850001D01*
D12*
%TO.P,J7,1,Pin_1*%
X148150000Y-96250000D03*
D13*
%TO.P,J7,2,Pin_2*%
X148150000Y-97250000D03*
%TO.P,J7,3,Pin_3*%
X148150000Y-98250000D03*
%TO.P,J7,4,Pin_4*%
X148150000Y-99250000D03*
%TO.P,J7,MP,MountPin*%
X144275000Y-94950000D03*
X144275000Y-100550000D03*
%TD*%
D10*
%TO.C,J8*%
%TO.CFtp,JST_SH_SM04B-SRSS-TB_1x04-1MP_P1.00mm_Horizontal*%
%TO.CVal,USB7*%
%TO.CLbN,Connector_JST*%
%TO.CMnt,SMD*%
%TO.CRot,-90*%
X146150000Y-90750000D03*
D11*
X149429999Y-86850001D02*
X149429999Y-94649999D01*
X142870001Y-94649999D01*
X142870001Y-86850001D01*
X149429999Y-86850001D01*
D12*
%TO.P,J8,1,Pin_1*%
X148150000Y-89250000D03*
D13*
%TO.P,J8,2,Pin_2*%
X148150000Y-90250000D03*
%TO.P,J8,3,Pin_3*%
X148150000Y-91250000D03*
%TO.P,J8,4,Pin_4*%
X148150000Y-92250000D03*
%TO.P,J8,MP,MountPin*%
X144275000Y-87950000D03*
X144275000Y-93550000D03*
%TD*%
D10*
%TO.C,D10*%
%TO.CFtp,1006_C*%
%TO.CVal,TVS*%
%TO.CLbN,Diode_SMD*%
%TO.CMnt,SMD*%
%TO.CRot,90*%
X149600000Y-105750000D03*
D11*
X149325000Y-105000001D02*
X149875000Y-105000001D01*
X149907923Y-105002130D01*
X149964948Y-105035053D01*
X149997870Y-105092077D01*
X149999999Y-105125000D01*
X149999999Y-106375000D01*
X149997870Y-106407923D01*
X149964948Y-106464947D01*
X149907923Y-106497870D01*
X149875000Y-106499999D01*
X149325000Y-106499999D01*
X149292077Y-106497870D01*
X149235052Y-106464947D01*
X149202130Y-106407923D01*
X149200001Y-106375000D01*
X149200001Y-105125000D01*
X149202130Y-105092077D01*
X149235052Y-105035053D01*
X149292077Y-105002130D01*
X149325000Y-105000001D01*
D12*
%TO.P,D10,1,A1*%
X149600000Y-106200000D03*
D13*
%TO.P,D10,2,A2*%
X149600000Y-105300000D03*
%TD*%
D10*
%TO.C,C18*%
%TO.CFtp,2012_C*%
%TO.CVal,0.1uF 100V*%
%TO.CLbN,Capacitor_SMD*%
%TO.CMnt,SMD*%
%TO.CRot,180*%
X150000000Y-93500000D03*
D11*
X148900000Y-92775001D02*
X151100000Y-92775001D01*
X151139508Y-92777557D01*
X151207937Y-92817064D01*
X151247443Y-92885492D01*
X151249999Y-92925000D01*
X151249999Y-94075000D01*
X151247443Y-94114508D01*
X151207937Y-94182936D01*
X151139508Y-94222443D01*
X151100000Y-94224999D01*
X148900000Y-94224999D01*
X148860492Y-94222443D01*
X148792063Y-94182936D01*
X148752557Y-94114508D01*
X148750001Y-94075000D01*
X148750001Y-92925000D01*
X148752557Y-92885492D01*
X148792063Y-92817064D01*
X148860492Y-92777557D01*
X148900000Y-92775001D01*
D12*
%TO.P,C18,1*%
X150825000Y-93500000D03*
D13*
%TO.P,C18,2*%
X149175000Y-93500000D03*
%TD*%
D10*
%TO.C,C16*%
%TO.CFtp,2012_C*%
%TO.CVal,0.1uF 100V*%
%TO.CLbN,Capacitor_SMD*%
%TO.CMnt,SMD*%
%TO.CRot,180*%
X150000000Y-100500000D03*
D11*
X148900000Y-99775001D02*
X151100000Y-99775001D01*
X151139508Y-99777557D01*
X151207937Y-99817064D01*
X151247443Y-99885492D01*
X151249999Y-99925000D01*
X151249999Y-101075000D01*
X151247443Y-101114508D01*
X151207937Y-101182936D01*
X151139508Y-101222443D01*
X151100000Y-101224999D01*
X148900000Y-101224999D01*
X148860492Y-101222443D01*
X148792063Y-101182936D01*
X148752557Y-101114508D01*
X148750001Y-101075000D01*
X148750001Y-99925000D01*
X148752557Y-99885492D01*
X148792063Y-99817064D01*
X148860492Y-99777557D01*
X148900000Y-99775001D01*
D12*
%TO.P,C16,1*%
X150825000Y-100500000D03*
D13*
%TO.P,C16,2*%
X149175000Y-100500000D03*
%TD*%
D10*
%TO.C,D15*%
%TO.CFtp,Duo_LED_1.6x0.8_Kingbright_APHB1608LZGKSURKC*%
%TO.CVal,USB*%
%TO.CLbN,LED_SMD*%
%TO.CMnt,SMD*%
%TO.CRot,0*%
X147152792Y-86150000D03*
D11*
X146352792Y-85500001D02*
X147952792Y-85500001D01*
X147992434Y-85502060D01*
X148061095Y-85541698D01*
X148061095Y-85541699D01*
X148100738Y-85610359D01*
X148102791Y-85650000D01*
X148102791Y-86650000D01*
X148100746Y-86689643D01*
X148061101Y-86758307D01*
X147992436Y-86797948D01*
X147952792Y-86799999D01*
X146352792Y-86799999D01*
X146313284Y-86797450D01*
X146313285Y-86797450D01*
X146244855Y-86757939D01*
X146244854Y-86757939D01*
X146205348Y-86689508D01*
X146202793Y-86650000D01*
X146202793Y-85650000D01*
X146205356Y-85610494D01*
X146244860Y-85542066D01*
X146244861Y-85542067D01*
X146313287Y-85502559D01*
X146313286Y-85502558D01*
X146352792Y-85500001D01*
D13*
%TO.P,D15,GA,1*%
X147752792Y-86500000D03*
%TO.P,D15,GK,2*%
X146552792Y-86500000D03*
%TO.P,D15,RA,3*%
X147752792Y-85800000D03*
%TO.P,D15,RK,4*%
X146552792Y-85800000D03*
%TD*%
D10*
%TO.C,C14*%
%TO.CFtp,2012_C*%
%TO.CVal,0.1uF 100V*%
%TO.CLbN,Capacitor_SMD*%
%TO.CMnt,SMD*%
%TO.CRot,180*%
X150000000Y-107500000D03*
D11*
X148900000Y-106775001D02*
X151100000Y-106775001D01*
X151139508Y-106777557D01*
X151207937Y-106817064D01*
X151247443Y-106885492D01*
X151249999Y-106925000D01*
X151249999Y-108075000D01*
X151247443Y-108114508D01*
X151207937Y-108182936D01*
X151139508Y-108222443D01*
X151100000Y-108224999D01*
X148900000Y-108224999D01*
X148860492Y-108222443D01*
X148792063Y-108182936D01*
X148752557Y-108114508D01*
X148750001Y-108075000D01*
X148750001Y-106925000D01*
X148752557Y-106885492D01*
X148792063Y-106817064D01*
X148860492Y-106777557D01*
X148900000Y-106775001D01*
D12*
%TO.P,C14,1*%
X150825000Y-107500000D03*
D13*
%TO.P,C14,2*%
X149175000Y-107500000D03*
%TD*%
D10*
%TO.C,D8*%
%TO.CFtp,1006_C*%
%TO.CVal,TVS*%
%TO.CLbN,Diode_SMD*%
%TO.CMnt,SMD*%
%TO.CRot,-90*%
X150400000Y-82750000D03*
D11*
X150125000Y-82000001D02*
X150675000Y-82000001D01*
X150707923Y-82002130D01*
X150764948Y-82035053D01*
X150797870Y-82092077D01*
X150799999Y-82125000D01*
X150799999Y-83375000D01*
X150797870Y-83407923D01*
X150764948Y-83464947D01*
X150707923Y-83497870D01*
X150675000Y-83499999D01*
X150125000Y-83499999D01*
X150092077Y-83497870D01*
X150035052Y-83464947D01*
X150002130Y-83407923D01*
X150000001Y-83375000D01*
X150000001Y-82125000D01*
X150002130Y-82092077D01*
X150035052Y-82035053D01*
X150092077Y-82002130D01*
X150125000Y-82000001D01*
D12*
%TO.P,D8,1,A1*%
X150400000Y-82300000D03*
D13*
%TO.P,D8,2,A2*%
X150400000Y-83200000D03*
%TD*%
D10*
%TO.C,D9*%
%TO.CFtp,1006_C*%
%TO.CVal,TVS*%
%TO.CLbN,Diode_SMD*%
%TO.CMnt,SMD*%
%TO.CRot,-90*%
X149600000Y-103750000D03*
D11*
X149325000Y-103000001D02*
X149875000Y-103000001D01*
X149907923Y-103002130D01*
X149964948Y-103035053D01*
X149997870Y-103092077D01*
X149999999Y-103125000D01*
X149999999Y-104375000D01*
X149997870Y-104407923D01*
X149964948Y-104464947D01*
X149907923Y-104497870D01*
X149875000Y-104499999D01*
X149325000Y-104499999D01*
X149292077Y-104497870D01*
X149235052Y-104464947D01*
X149202130Y-104407923D01*
X149200001Y-104375000D01*
X149200001Y-103125000D01*
X149202130Y-103092077D01*
X149235052Y-103035053D01*
X149292077Y-103002130D01*
X149325000Y-103000001D01*
D12*
%TO.P,D9,1,A1*%
X149600000Y-103300000D03*
D13*
%TO.P,D9,2,A2*%
X149600000Y-104200000D03*
%TD*%
D10*
%TO.C,D16*%
%TO.CFtp,Duo_LED_1.6x0.8_Kingbright_APHB1608LZGKSURKC*%
%TO.CVal,USB*%
%TO.CLbN,LED_SMD*%
%TO.CMnt,SMD*%
%TO.CRot,0*%
X147152792Y-84750000D03*
D11*
X146352792Y-84100001D02*
X147952792Y-84100001D01*
X147992434Y-84102060D01*
X148061095Y-84141698D01*
X148061095Y-84141699D01*
X148100738Y-84210359D01*
X148102791Y-84250000D01*
X148102791Y-85250000D01*
X148100746Y-85289643D01*
X148061101Y-85358307D01*
X147992436Y-85397948D01*
X147952792Y-85399999D01*
X146352792Y-85399999D01*
X146313284Y-85397450D01*
X146313285Y-85397450D01*
X146244855Y-85357939D01*
X146244854Y-85357939D01*
X146205348Y-85289508D01*
X146202793Y-85250000D01*
X146202793Y-84250000D01*
X146205356Y-84210494D01*
X146244860Y-84142066D01*
X146244861Y-84142067D01*
X146313287Y-84102559D01*
X146313286Y-84102558D01*
X146352792Y-84100001D01*
D13*
%TO.P,D16,GA,1*%
X147752792Y-85100000D03*
%TO.P,D16,GK,2*%
X146552792Y-85100000D03*
%TO.P,D16,RA,3*%
X147752792Y-84400000D03*
%TO.P,D16,RK,4*%
X146552792Y-84400000D03*
%TD*%
D10*
%TO.C,D1*%
%TO.CFtp,1006_C*%
%TO.CVal,TVS*%
%TO.CLbN,Diode_SMD*%
%TO.CMnt,SMD*%
%TO.CRot,90*%
X150400000Y-105750000D03*
D11*
X150125000Y-105000001D02*
X150675000Y-105000001D01*
X150707923Y-105002130D01*
X150764948Y-105035053D01*
X150797870Y-105092077D01*
X150799999Y-105125000D01*
X150799999Y-106375000D01*
X150797870Y-106407923D01*
X150764948Y-106464947D01*
X150707923Y-106497870D01*
X150675000Y-106499999D01*
X150125000Y-106499999D01*
X150092077Y-106497870D01*
X150035052Y-106464947D01*
X150002130Y-106407923D01*
X150000001Y-106375000D01*
X150000001Y-105125000D01*
X150002130Y-105092077D01*
X150035052Y-105035053D01*
X150092077Y-105002130D01*
X150125000Y-105000001D01*
D12*
%TO.P,D1,1,A1*%
X150400000Y-106200000D03*
D13*
%TO.P,D1,2,A2*%
X150400000Y-105300000D03*
%TD*%
D10*
%TO.C,D5*%
%TO.CFtp,1006_C*%
%TO.CVal,TVS*%
%TO.CLbN,Diode_SMD*%
%TO.CMnt,SMD*%
%TO.CRot,90*%
X150400000Y-91750000D03*
D11*
X150125000Y-91000001D02*
X150675000Y-91000001D01*
X150707923Y-91002130D01*
X150764948Y-91035053D01*
X150797870Y-91092077D01*
X150799999Y-91125000D01*
X150799999Y-92375000D01*
X150797870Y-92407923D01*
X150764948Y-92464947D01*
X150707923Y-92497870D01*
X150675000Y-92499999D01*
X150125000Y-92499999D01*
X150092077Y-92497870D01*
X150035052Y-92464947D01*
X150002130Y-92407923D01*
X150000001Y-92375000D01*
X150000001Y-91125000D01*
X150002130Y-91092077D01*
X150035052Y-91035053D01*
X150092077Y-91002130D01*
X150125000Y-91000001D01*
D12*
%TO.P,D5,1,A1*%
X150400000Y-92200000D03*
D13*
%TO.P,D5,2,A2*%
X150400000Y-91300000D03*
%TD*%
D10*
%TO.C,D3*%
%TO.CFtp,1006_C*%
%TO.CVal,TVS*%
%TO.CLbN,Diode_SMD*%
%TO.CMnt,SMD*%
%TO.CRot,90*%
X150400000Y-98750000D03*
D11*
X150125000Y-98000001D02*
X150675000Y-98000001D01*
X150707923Y-98002130D01*
X150764948Y-98035053D01*
X150797870Y-98092077D01*
X150799999Y-98125000D01*
X150799999Y-99375000D01*
X150797870Y-99407923D01*
X150764948Y-99464947D01*
X150707923Y-99497870D01*
X150675000Y-99499999D01*
X150125000Y-99499999D01*
X150092077Y-99497870D01*
X150035052Y-99464947D01*
X150002130Y-99407923D01*
X150000001Y-99375000D01*
X150000001Y-98125000D01*
X150002130Y-98092077D01*
X150035052Y-98035053D01*
X150092077Y-98002130D01*
X150125000Y-98000001D01*
D12*
%TO.P,D3,1,A1*%
X150400000Y-99200000D03*
D13*
%TO.P,D3,2,A2*%
X150400000Y-98300000D03*
%TD*%
D10*
%TO.C,C15*%
%TO.CFtp,2012_C*%
%TO.CVal,0.1uF 100V*%
%TO.CLbN,Capacitor_SMD*%
%TO.CMnt,SMD*%
%TO.CRot,0*%
X150000000Y-102000000D03*
D11*
X148900000Y-101275001D02*
X151100000Y-101275001D01*
X151139508Y-101277557D01*
X151207937Y-101317064D01*
X151247443Y-101385492D01*
X151249999Y-101425000D01*
X151249999Y-102575000D01*
X151247443Y-102614508D01*
X151207937Y-102682936D01*
X151139508Y-102722443D01*
X151100000Y-102724999D01*
X148900000Y-102724999D01*
X148860492Y-102722443D01*
X148792063Y-102682936D01*
X148752557Y-102614508D01*
X148750001Y-102575000D01*
X148750001Y-101425000D01*
X148752557Y-101385492D01*
X148792063Y-101317064D01*
X148860492Y-101277557D01*
X148900000Y-101275001D01*
D12*
%TO.P,C15,1*%
X149175000Y-102000000D03*
D13*
%TO.P,C15,2*%
X150825000Y-102000000D03*
%TD*%
D10*
%TO.C,J2*%
%TO.CFtp,JST_SH_SM04B-SRSS-TB_1x04-1MP_P1.00mm_Horizontal*%
%TO.CVal,USB1*%
%TO.CLbN,Connector_JST*%
%TO.CMnt,SMD*%
%TO.CRot,90*%
X153850000Y-104750000D03*
D11*
X157129999Y-100850001D02*
X157129999Y-108649999D01*
X150570001Y-108649999D01*
X150570001Y-100850001D01*
X157129999Y-100850001D01*
D12*
%TO.P,J2,1,Pin_1*%
X151850000Y-106250000D03*
D13*
%TO.P,J2,2,Pin_2*%
X151850000Y-105250000D03*
%TO.P,J2,3,Pin_3*%
X151850000Y-104250000D03*
%TO.P,J2,4,Pin_4*%
X151850000Y-103250000D03*
%TO.P,J2,MP,MountPin*%
X155725000Y-107550000D03*
X155725000Y-101950000D03*
%TD*%
D10*
%TO.C,D19*%
%TO.CFtp,Duo_LED_1.6x0.8_Kingbright_APHB1608LZGKSURKC*%
%TO.CVal,USB*%
%TO.CLbN,LED_SMD*%
%TO.CMnt,SMD*%
%TO.CRot,0*%
X145152792Y-86150000D03*
D11*
X144352792Y-85500001D02*
X145952792Y-85500001D01*
X145992434Y-85502060D01*
X146061095Y-85541698D01*
X146061095Y-85541699D01*
X146100738Y-85610359D01*
X146102791Y-85650000D01*
X146102791Y-86650000D01*
X146100746Y-86689643D01*
X146061101Y-86758307D01*
X145992436Y-86797948D01*
X145952792Y-86799999D01*
X144352792Y-86799999D01*
X144313284Y-86797450D01*
X144313285Y-86797450D01*
X144244855Y-86757939D01*
X144244854Y-86757939D01*
X144205348Y-86689508D01*
X144202793Y-86650000D01*
X144202793Y-85650000D01*
X144205356Y-85610494D01*
X144244860Y-85542066D01*
X144244861Y-85542067D01*
X144313287Y-85502559D01*
X144313286Y-85502558D01*
X144352792Y-85500001D01*
D13*
%TO.P,D19,GA,1*%
X145752792Y-86500000D03*
%TO.P,D19,GK,2*%
X144552792Y-86500000D03*
%TO.P,D19,RA,3*%
X145752792Y-85800000D03*
%TO.P,D19,RK,4*%
X144552792Y-85800000D03*
%TD*%
D10*
%TO.C,J5*%
%TO.CFtp,JST_SH_SM04B-SRSS-TB_1x04-1MP_P1.00mm_Horizontal*%
%TO.CVal,USB4*%
%TO.CLbN,Connector_JST*%
%TO.CMnt,SMD*%
%TO.CRot,90*%
X153850000Y-83750000D03*
D11*
X157129999Y-79850001D02*
X157129999Y-87649999D01*
X150570001Y-87649999D01*
X150570001Y-79850001D01*
X157129999Y-79850001D01*
D12*
%TO.P,J5,1,Pin_1*%
X151850000Y-85250000D03*
D13*
%TO.P,J5,2,Pin_2*%
X151850000Y-84250000D03*
%TO.P,J5,3,Pin_3*%
X151850000Y-83250000D03*
%TO.P,J5,4,Pin_4*%
X151850000Y-82250000D03*
%TO.P,J5,MP,MountPin*%
X155725000Y-86550000D03*
X155725000Y-80950000D03*
%TD*%
D10*
%TO.C,C20*%
%TO.CFtp,2012_C*%
%TO.CVal,0.1uF 100V*%
%TO.CLbN,Capacitor_SMD*%
%TO.CMnt,SMD*%
%TO.CRot,180*%
X150000000Y-86500000D03*
D11*
X148900000Y-85775001D02*
X151100000Y-85775001D01*
X151139508Y-85777557D01*
X151207937Y-85817064D01*
X151247443Y-85885492D01*
X151249999Y-85925000D01*
X151249999Y-87075000D01*
X151247443Y-87114508D01*
X151207937Y-87182936D01*
X151139508Y-87222443D01*
X151100000Y-87224999D01*
X148900000Y-87224999D01*
X148860492Y-87222443D01*
X148792063Y-87182936D01*
X148752557Y-87114508D01*
X148750001Y-87075000D01*
X148750001Y-85925000D01*
X148752557Y-85885492D01*
X148792063Y-85817064D01*
X148860492Y-85777557D01*
X148900000Y-85775001D01*
D12*
%TO.P,C20,1*%
X150825000Y-86500000D03*
D13*
%TO.P,C20,2*%
X149175000Y-86500000D03*
%TD*%
D10*
%TO.C,D20*%
%TO.CFtp,Duo_LED_1.6x0.8_Kingbright_APHB1608LZGKSURKC*%
%TO.CVal,USB*%
%TO.CLbN,LED_SMD*%
%TO.CMnt,SMD*%
%TO.CRot,0*%
X145152792Y-84750000D03*
D11*
X144352792Y-84100001D02*
X145952792Y-84100001D01*
X145992434Y-84102060D01*
X146061095Y-84141698D01*
X146061095Y-84141699D01*
X146100738Y-84210359D01*
X146102791Y-84250000D01*
X146102791Y-85250000D01*
X146100746Y-85289643D01*
X146061101Y-85358307D01*
X145992436Y-85397948D01*
X145952792Y-85399999D01*
X144352792Y-85399999D01*
X144313284Y-85397450D01*
X144313285Y-85397450D01*
X144244855Y-85357939D01*
X144244854Y-85357939D01*
X144205348Y-85289508D01*
X144202793Y-85250000D01*
X144202793Y-84250000D01*
X144205356Y-84210494D01*
X144244860Y-84142066D01*
X144244861Y-84142067D01*
X144313287Y-84102559D01*
X144313286Y-84102558D01*
X144352792Y-84100001D01*
D13*
%TO.P,D20,GA,1*%
X145752792Y-85100000D03*
%TO.P,D20,GK,2*%
X144552792Y-85100000D03*
%TO.P,D20,RA,3*%
X145752792Y-84400000D03*
%TO.P,D20,RK,4*%
X144552792Y-84400000D03*
%TD*%
D10*
%TO.C,D6*%
%TO.CFtp,1006_C*%
%TO.CVal,TVS*%
%TO.CLbN,Diode_SMD*%
%TO.CMnt,SMD*%
%TO.CRot,-90*%
X150400000Y-89750000D03*
D11*
X150125000Y-89000001D02*
X150675000Y-89000001D01*
X150707923Y-89002130D01*
X150764948Y-89035053D01*
X150797870Y-89092077D01*
X150799999Y-89125000D01*
X150799999Y-90375000D01*
X150797870Y-90407923D01*
X150764948Y-90464947D01*
X150707923Y-90497870D01*
X150675000Y-90499999D01*
X150125000Y-90499999D01*
X150092077Y-90497870D01*
X150035052Y-90464947D01*
X150002130Y-90407923D01*
X150000001Y-90375000D01*
X150000001Y-89125000D01*
X150002130Y-89092077D01*
X150035052Y-89035053D01*
X150092077Y-89002130D01*
X150125000Y-89000001D01*
D12*
%TO.P,D6,1,A1*%
X150400000Y-89300000D03*
D13*
%TO.P,D6,2,A2*%
X150400000Y-90200000D03*
%TD*%
D10*
%TO.C,C17*%
%TO.CFtp,2012_C*%
%TO.CVal,0.1uF 100V*%
%TO.CLbN,Capacitor_SMD*%
%TO.CMnt,SMD*%
%TO.CRot,0*%
X150000000Y-94950000D03*
D11*
X148900000Y-94225001D02*
X151100000Y-94225001D01*
X151139508Y-94227557D01*
X151207937Y-94267064D01*
X151247443Y-94335492D01*
X151249999Y-94375000D01*
X151249999Y-95525000D01*
X151247443Y-95564508D01*
X151207937Y-95632936D01*
X151139508Y-95672443D01*
X151100000Y-95674999D01*
X148900000Y-95674999D01*
X148860492Y-95672443D01*
X148792063Y-95632936D01*
X148752557Y-95564508D01*
X148750001Y-95525000D01*
X148750001Y-94375000D01*
X148752557Y-94335492D01*
X148792063Y-94267064D01*
X148860492Y-94227557D01*
X148900000Y-94225001D01*
D12*
%TO.P,C17,1*%
X149175000Y-94950000D03*
D13*
%TO.P,C17,2*%
X150825000Y-94950000D03*
%TD*%
D10*
%TO.C,D7*%
%TO.CFtp,1006_C*%
%TO.CVal,TVS*%
%TO.CLbN,Diode_SMD*%
%TO.CMnt,SMD*%
%TO.CRot,90*%
X150400000Y-84750000D03*
D11*
X150125000Y-84000001D02*
X150675000Y-84000001D01*
X150707923Y-84002130D01*
X150764948Y-84035053D01*
X150797870Y-84092077D01*
X150799999Y-84125000D01*
X150799999Y-85375000D01*
X150797870Y-85407923D01*
X150764948Y-85464947D01*
X150707923Y-85497870D01*
X150675000Y-85499999D01*
X150125000Y-85499999D01*
X150092077Y-85497870D01*
X150035052Y-85464947D01*
X150002130Y-85407923D01*
X150000001Y-85375000D01*
X150000001Y-84125000D01*
X150002130Y-84092077D01*
X150035052Y-84035053D01*
X150092077Y-84002130D01*
X150125000Y-84000001D01*
D12*
%TO.P,D7,1,A1*%
X150400000Y-85200000D03*
D13*
%TO.P,D7,2,A2*%
X150400000Y-84300000D03*
%TD*%
D10*
%TO.C,D14*%
%TO.CFtp,1006_C*%
%TO.CVal,TVS*%
%TO.CLbN,Diode_SMD*%
%TO.CMnt,SMD*%
%TO.CRot,90*%
X149600000Y-91750000D03*
D11*
X149325000Y-91000001D02*
X149875000Y-91000001D01*
X149907923Y-91002130D01*
X149964948Y-91035053D01*
X149997870Y-91092077D01*
X149999999Y-91125000D01*
X149999999Y-92375000D01*
X149997870Y-92407923D01*
X149964948Y-92464947D01*
X149907923Y-92497870D01*
X149875000Y-92499999D01*
X149325000Y-92499999D01*
X149292077Y-92497870D01*
X149235052Y-92464947D01*
X149202130Y-92407923D01*
X149200001Y-92375000D01*
X149200001Y-91125000D01*
X149202130Y-91092077D01*
X149235052Y-91035053D01*
X149292077Y-91002130D01*
X149325000Y-91000001D01*
D12*
%TO.P,D14,1,A1*%
X149600000Y-92200000D03*
D13*
%TO.P,D14,2,A2*%
X149600000Y-91300000D03*
%TD*%
D10*
%TO.C,D21*%
%TO.CFtp,Duo_LED_1.6x0.8_Kingbright_APHB1608LZGKSURKC*%
%TO.CVal,USB*%
%TO.CLbN,LED_SMD*%
%TO.CMnt,SMD*%
%TO.CRot,0*%
X145152792Y-83350000D03*
D11*
X144352792Y-82700001D02*
X145952792Y-82700001D01*
X145992434Y-82702060D01*
X146061095Y-82741698D01*
X146061095Y-82741699D01*
X146100738Y-82810359D01*
X146102791Y-82850000D01*
X146102791Y-83850000D01*
X146100746Y-83889643D01*
X146061101Y-83958307D01*
X145992436Y-83997948D01*
X145952792Y-83999999D01*
X144352792Y-83999999D01*
X144313284Y-83997450D01*
X144313285Y-83997450D01*
X144244855Y-83957939D01*
X144244854Y-83957939D01*
X144205348Y-83889508D01*
X144202793Y-83850000D01*
X144202793Y-82850000D01*
X144205356Y-82810494D01*
X144244860Y-82742066D01*
X144244861Y-82742067D01*
X144313287Y-82702559D01*
X144313286Y-82702558D01*
X144352792Y-82700001D01*
D13*
%TO.P,D21,GA,1*%
X145752792Y-83700000D03*
%TO.P,D21,GK,2*%
X144552792Y-83700000D03*
%TO.P,D21,RA,3*%
X145752792Y-83000000D03*
%TO.P,D21,RK,4*%
X144552792Y-83000000D03*
%TD*%
D10*
%TO.C,J4*%
%TO.CFtp,JST_SH_SM04B-SRSS-TB_1x04-1MP_P1.00mm_Horizontal*%
%TO.CVal,USB3*%
%TO.CLbN,Connector_JST*%
%TO.CMnt,SMD*%
%TO.CRot,90*%
X153850000Y-90750000D03*
D11*
X157129999Y-86850001D02*
X157129999Y-94649999D01*
X150570001Y-94649999D01*
X150570001Y-86850001D01*
X157129999Y-86850001D01*
D12*
%TO.P,J4,1,Pin_1*%
X151850000Y-92250000D03*
D13*
%TO.P,J4,2,Pin_2*%
X151850000Y-91250000D03*
%TO.P,J4,3,Pin_3*%
X151850000Y-90250000D03*
%TO.P,J4,4,Pin_4*%
X151850000Y-89250000D03*
%TO.P,J4,MP,MountPin*%
X155725000Y-93550000D03*
X155725000Y-87950000D03*
%TD*%
D10*
%TO.C,D11*%
%TO.CFtp,1006_C*%
%TO.CVal,TVS*%
%TO.CLbN,Diode_SMD*%
%TO.CMnt,SMD*%
%TO.CRot,-90*%
X149600000Y-96750000D03*
D11*
X149325000Y-96000001D02*
X149875000Y-96000001D01*
X149907923Y-96002130D01*
X149964948Y-96035053D01*
X149997870Y-96092077D01*
X149999999Y-96125000D01*
X149999999Y-97375000D01*
X149997870Y-97407923D01*
X149964948Y-97464947D01*
X149907923Y-97497870D01*
X149875000Y-97499999D01*
X149325000Y-97499999D01*
X149292077Y-97497870D01*
X149235052Y-97464947D01*
X149202130Y-97407923D01*
X149200001Y-97375000D01*
X149200001Y-96125000D01*
X149202130Y-96092077D01*
X149235052Y-96035053D01*
X149292077Y-96002130D01*
X149325000Y-96000001D01*
D12*
%TO.P,D11,1,A1*%
X149600000Y-96300000D03*
D13*
%TO.P,D11,2,A2*%
X149600000Y-97200000D03*
%TD*%
D10*
%TO.C,J6*%
%TO.CFtp,JST_SH_SM04B-SRSS-TB_1x04-1MP_P1.00mm_Horizontal*%
%TO.CVal,USB5*%
%TO.CLbN,Connector_JST*%
%TO.CMnt,SMD*%
%TO.CRot,-90*%
X146150000Y-104750000D03*
D11*
X149429999Y-100850001D02*
X149429999Y-108649999D01*
X142870001Y-108649999D01*
X142870001Y-100850001D01*
X149429999Y-100850001D01*
D12*
%TO.P,J6,1,Pin_1*%
X148150000Y-103250000D03*
D13*
%TO.P,J6,2,Pin_2*%
X148150000Y-104250000D03*
%TO.P,J6,3,Pin_3*%
X148150000Y-105250000D03*
%TO.P,J6,4,Pin_4*%
X148150000Y-106250000D03*
%TO.P,J6,MP,MountPin*%
X144275000Y-101950000D03*
X144275000Y-107550000D03*
%TD*%
D10*
%TO.C,C19*%
%TO.CFtp,2012_C*%
%TO.CVal,0.1uF 100V*%
%TO.CLbN,Capacitor_SMD*%
%TO.CMnt,SMD*%
%TO.CRot,0*%
X150000000Y-88000000D03*
D11*
X148900000Y-87275001D02*
X151100000Y-87275001D01*
X151139508Y-87277557D01*
X151207937Y-87317064D01*
X151247443Y-87385492D01*
X151249999Y-87425000D01*
X151249999Y-88575000D01*
X151247443Y-88614508D01*
X151207937Y-88682936D01*
X151139508Y-88722443D01*
X151100000Y-88724999D01*
X148900000Y-88724999D01*
X148860492Y-88722443D01*
X148792063Y-88682936D01*
X148752557Y-88614508D01*
X148750001Y-88575000D01*
X148750001Y-87425000D01*
X148752557Y-87385492D01*
X148792063Y-87317064D01*
X148860492Y-87277557D01*
X148900000Y-87275001D01*
D12*
%TO.P,C19,1*%
X149175000Y-88000000D03*
D13*
%TO.P,C19,2*%
X150825000Y-88000000D03*
%TD*%
D10*
%TO.C,D17*%
%TO.CFtp,Duo_LED_1.6x0.8_Kingbright_APHB1608LZGKSURKC*%
%TO.CVal,USB*%
%TO.CLbN,LED_SMD*%
%TO.CMnt,SMD*%
%TO.CRot,0*%
X147152792Y-83350000D03*
D11*
X146352792Y-82700001D02*
X147952792Y-82700001D01*
X147992434Y-82702060D01*
X148061095Y-82741698D01*
X148061095Y-82741699D01*
X148100738Y-82810359D01*
X148102791Y-82850000D01*
X148102791Y-83850000D01*
X148100746Y-83889643D01*
X148061101Y-83958307D01*
X147992436Y-83997948D01*
X147952792Y-83999999D01*
X146352792Y-83999999D01*
X146313284Y-83997450D01*
X146313285Y-83997450D01*
X146244855Y-83957939D01*
X146244854Y-83957939D01*
X146205348Y-83889508D01*
X146202793Y-83850000D01*
X146202793Y-82850000D01*
X146205356Y-82810494D01*
X146244860Y-82742066D01*
X146244861Y-82742067D01*
X146313287Y-82702559D01*
X146313286Y-82702558D01*
X146352792Y-82700001D01*
D13*
%TO.P,D17,GA,1*%
X147752792Y-83700000D03*
%TO.P,D17,GK,2*%
X146552792Y-83700000D03*
%TO.P,D17,RA,3*%
X147752792Y-83000000D03*
%TO.P,D17,RK,4*%
X146552792Y-83000000D03*
%TD*%
D10*
%TO.C,D18*%
%TO.CFtp,Duo_LED_1.6x0.8_Kingbright_APHB1608LZGKSURKC*%
%TO.CVal,USB*%
%TO.CLbN,LED_SMD*%
%TO.CMnt,SMD*%
%TO.CRot,0*%
X147152792Y-81950000D03*
D11*
X146352792Y-81300001D02*
X147952792Y-81300001D01*
X147992434Y-81302060D01*
X148061095Y-81341698D01*
X148061095Y-81341699D01*
X148100738Y-81410359D01*
X148102791Y-81450000D01*
X148102791Y-82450000D01*
X148100746Y-82489643D01*
X148061101Y-82558307D01*
X147992436Y-82597948D01*
X147952792Y-82599999D01*
X146352792Y-82599999D01*
X146313284Y-82597450D01*
X146313285Y-82597450D01*
X146244855Y-82557939D01*
X146244854Y-82557939D01*
X146205348Y-82489508D01*
X146202793Y-82450000D01*
X146202793Y-81450000D01*
X146205356Y-81410494D01*
X146244860Y-81342066D01*
X146244861Y-81342067D01*
X146313287Y-81302559D01*
X146313286Y-81302558D01*
X146352792Y-81300001D01*
D13*
%TO.P,D18,GA,1*%
X147752792Y-82300000D03*
%TO.P,D18,GK,2*%
X146552792Y-82300000D03*
%TO.P,D18,RA,3*%
X147752792Y-81600000D03*
%TO.P,D18,RK,4*%
X146552792Y-81600000D03*
%TD*%
D10*
%TO.C,D2*%
%TO.CFtp,1006_C*%
%TO.CVal,TVS*%
%TO.CLbN,Diode_SMD*%
%TO.CMnt,SMD*%
%TO.CRot,-90*%
X150400000Y-103750000D03*
D11*
X150125000Y-103000001D02*
X150675000Y-103000001D01*
X150707923Y-103002130D01*
X150764948Y-103035053D01*
X150797870Y-103092077D01*
X150799999Y-103125000D01*
X150799999Y-104375000D01*
X150797870Y-104407923D01*
X150764948Y-104464947D01*
X150707923Y-104497870D01*
X150675000Y-104499999D01*
X150125000Y-104499999D01*
X150092077Y-104497870D01*
X150035052Y-104464947D01*
X150002130Y-104407923D01*
X150000001Y-104375000D01*
X150000001Y-103125000D01*
X150002130Y-103092077D01*
X150035052Y-103035053D01*
X150092077Y-103002130D01*
X150125000Y-103000001D01*
D12*
%TO.P,D2,1,A1*%
X150400000Y-103300000D03*
D13*
%TO.P,D2,2,A2*%
X150400000Y-104200000D03*
%TD*%
D10*
%TO.C,D12*%
%TO.CFtp,1006_C*%
%TO.CVal,TVS*%
%TO.CLbN,Diode_SMD*%
%TO.CMnt,SMD*%
%TO.CRot,90*%
X149600000Y-98750000D03*
D11*
X149325000Y-98000001D02*
X149875000Y-98000001D01*
X149907923Y-98002130D01*
X149964948Y-98035053D01*
X149997870Y-98092077D01*
X149999999Y-98125000D01*
X149999999Y-99375000D01*
X149997870Y-99407923D01*
X149964948Y-99464947D01*
X149907923Y-99497870D01*
X149875000Y-99499999D01*
X149325000Y-99499999D01*
X149292077Y-99497870D01*
X149235052Y-99464947D01*
X149202130Y-99407923D01*
X149200001Y-99375000D01*
X149200001Y-98125000D01*
X149202130Y-98092077D01*
X149235052Y-98035053D01*
X149292077Y-98002130D01*
X149325000Y-98000001D01*
D12*
%TO.P,D12,1,A1*%
X149600000Y-99200000D03*
D13*
%TO.P,D12,2,A2*%
X149600000Y-98300000D03*
%TD*%
D10*
%TO.C,J3*%
%TO.CFtp,JST_SH_SM04B-SRSS-TB_1x04-1MP_P1.00mm_Horizontal*%
%TO.CVal,USB2*%
%TO.CLbN,Connector_JST*%
%TO.CMnt,SMD*%
%TO.CRot,90*%
X153850000Y-97750000D03*
D11*
X157129999Y-93850001D02*
X157129999Y-101649999D01*
X150570001Y-101649999D01*
X150570001Y-93850001D01*
X157129999Y-93850001D01*
D12*
%TO.P,J3,1,Pin_1*%
X151850000Y-99250000D03*
D13*
%TO.P,J3,2,Pin_2*%
X151850000Y-98250000D03*
%TO.P,J3,3,Pin_3*%
X151850000Y-97250000D03*
%TO.P,J3,4,Pin_4*%
X151850000Y-96250000D03*
%TO.P,J3,MP,MountPin*%
X155725000Y-100550000D03*
X155725000Y-94950000D03*
%TD*%
D10*
%TO.C,D13*%
%TO.CFtp,1006_C*%
%TO.CVal,TVS*%
%TO.CLbN,Diode_SMD*%
%TO.CMnt,SMD*%
%TO.CRot,-90*%
X149600000Y-89750000D03*
D11*
X149325000Y-89000001D02*
X149875000Y-89000001D01*
X149907923Y-89002130D01*
X149964948Y-89035053D01*
X149997870Y-89092077D01*
X149999999Y-89125000D01*
X149999999Y-90375000D01*
X149997870Y-90407923D01*
X149964948Y-90464947D01*
X149907923Y-90497870D01*
X149875000Y-90499999D01*
X149325000Y-90499999D01*
X149292077Y-90497870D01*
X149235052Y-90464947D01*
X149202130Y-90407923D01*
X149200001Y-90375000D01*
X149200001Y-89125000D01*
X149202130Y-89092077D01*
X149235052Y-89035053D01*
X149292077Y-89002130D01*
X149325000Y-89000001D01*
D12*
%TO.P,D13,1,A1*%
X149600000Y-89300000D03*
D13*
%TO.P,D13,2,A2*%
X149600000Y-90200000D03*
%TD*%
D14*
X152250000Y-80000000D02*
X157000000Y-80000000D01*
X148500000Y-81000000D02*
X151500000Y-81000000D01*
X157000000Y-108500000D02*
X156100000Y-108500000D01*
X141750000Y-107250000D02*
X141750000Y-81250000D01*
X156100000Y-120000000D02*
X156100000Y-108500000D01*
X148000000Y-80250000D02*
X148000000Y-80500000D01*
X152000000Y-80250000D02*
G75*
G02*
X152250000Y-80000000I250000J0D01*
G01*
X143900000Y-120000000D02*
X143900000Y-108500000D01*
X141750000Y-81250000D02*
G75*
G02*
X143000000Y-80000000I1250000J0D01*
G01*
X147750000Y-80000000D02*
G75*
G02*
X148000000Y-80250000I0J-250000D01*
G01*
X143000000Y-108500000D02*
G75*
G02*
X141750000Y-107250000I0J1250000D01*
G01*
X143900000Y-120000000D02*
X156100000Y-120000000D01*
X158250000Y-81250000D02*
X158250000Y-107250000D01*
X143000000Y-80000000D02*
X147750000Y-80000000D01*
X158250000Y-107250000D02*
G75*
G02*
X157000000Y-108500000I-1250000J0D01*
G01*
X157000000Y-80000000D02*
G75*
G02*
X158250000Y-81250000I0J-1250000D01*
G01*
X148500000Y-81000000D02*
G75*
G02*
X148000000Y-80500000I0J500000D01*
G01*
X143900000Y-108500000D02*
X143000000Y-108500000D01*
X152000000Y-80500000D02*
G75*
G02*
X151500000Y-81000000I-500000J0D01*
G01*
X152000000Y-80500000D02*
X152000000Y-80250000D01*
M02*
