%TF.GenerationSoftware,KiCad,Pcbnew,8.99.0-344-gfbc433deaa-dirty*%
%TF.CreationDate,2024-03-11T18:49:53+01:00*%
%TF.ProjectId,StickHub,53746963-6b48-4756-922e-6b696361645f,rev?*%
%TF.SameCoordinates,Original*%
%TF.FileFunction,Soldermask,Top*%
%TF.FilePolarity,Negative*%
%FSLAX46Y46*%
G04 Gerber Fmt 4.6, Leading zero omitted, Abs format (unit mm)*
G04 Created by KiCad (PCBNEW 8.99.0-344-gfbc433deaa-dirty) date 2024-03-11 18:49:53*
%MOMM*%
%LPD*%
G01*
G04 APERTURE LIST*
G04 Aperture macros list*
%AMRoundRect*
0 Rectangle with rounded corners*
0 $1 Rounding radius*
0 $2 $3 $4 $5 $6 $7 $8 $9 X,Y pos of 4 corners*
0 Add a 4 corners polygon primitive as box body*
4,1,4,$2,$3,$4,$5,$6,$7,$8,$9,$2,$3,0*
0 Add four circle primitives for the rounded corners*
1,1,$1+$1,$2,$3*
1,1,$1+$1,$4,$5*
1,1,$1+$1,$6,$7*
1,1,$1+$1,$8,$9*
0 Add four rect primitives between the rounded corners*
20,1,$1+$1,$2,$3,$4,$5,0*
20,1,$1+$1,$4,$5,$6,$7,0*
20,1,$1+$1,$6,$7,$8,$9,0*
20,1,$1+$1,$8,$9,$2,$3,0*%
G04 Aperture macros list end*
%ADD10C,0.200000*%
%ADD11RoundRect,0.057500X-0.272500X0.172500X-0.272500X-0.172500X0.272500X-0.172500X0.272500X0.172500X0*%
%ADD12RoundRect,0.150000X-0.625000X0.150000X-0.625000X-0.150000X0.625000X-0.150000X0.625000X0.150000X0*%
%ADD13RoundRect,0.250000X-0.650000X0.350000X-0.650000X-0.350000X0.650000X-0.350000X0.650000X0.350000X0*%
%ADD14RoundRect,0.050000X0.250000X-0.150000X0.250000X0.150000X-0.250000X0.150000X-0.250000X-0.150000X0*%
%ADD15RoundRect,0.075000X0.300000X0.575000X-0.300000X0.575000X-0.300000X-0.575000X0.300000X-0.575000X0*%
%ADD16RoundRect,0.070500X-0.214500X-0.164500X0.214500X-0.164500X0.214500X0.164500X-0.214500X0.164500X0*%
%ADD17RoundRect,0.057500X0.272500X-0.172500X0.272500X0.172500X-0.272500X0.172500X-0.272500X-0.172500X0*%
%ADD18RoundRect,0.075000X-0.300000X-0.575000X0.300000X-0.575000X0.300000X0.575000X-0.300000X0.575000X0*%
%ADD19RoundRect,0.150000X0.625000X-0.150000X0.625000X0.150000X-0.625000X0.150000X-0.625000X-0.150000X0*%
%ADD20RoundRect,0.250000X0.650000X-0.350000X0.650000X0.350000X-0.650000X0.350000X-0.650000X-0.350000X0*%
%ADD21RoundRect,0.100500X0.649500X-4.149500X0.649500X4.149500X-0.649500X4.149500X-0.649500X-4.149500X0*%
%ADD22RoundRect,0.100100X0.449900X-3.774900X0.449900X3.774900X-0.449900X3.774900X-0.449900X-3.774900X0*%
%ADD23O,4.150000X1.650000*%
%ADD24C,0.500000*%
%ADD25C,0.600000*%
%TA.AperFunction,Profile*%
%ADD26C,0.100000*%
%TD*%
G04 APERTURE END LIST*
D10*
X158000000Y-94750000D02*
X157000000Y-94750000D01*
X157000000Y-93750000D01*
X158000000Y-93750000D01*
X158000000Y-94750000D01*
G36*
X158000000Y-94750000D02*
G01*
X157000000Y-94750000D01*
X157000000Y-93750000D01*
X158000000Y-93750000D01*
X158000000Y-94750000D01*
G37*
X143000000Y-94750000D02*
X142000000Y-94750000D01*
X142000000Y-93750000D01*
X143000000Y-93750000D01*
X143000000Y-94750000D01*
G36*
X143000000Y-94750000D02*
G01*
X142000000Y-94750000D01*
X142000000Y-93750000D01*
X143000000Y-93750000D01*
X143000000Y-94750000D01*
G37*
X143000000Y-87750000D02*
X142000000Y-87750000D01*
X142000000Y-86750000D01*
X143000000Y-86750000D01*
X143000000Y-87750000D01*
G36*
X143000000Y-87750000D02*
G01*
X142000000Y-87750000D01*
X142000000Y-86750000D01*
X143000000Y-86750000D01*
X143000000Y-87750000D01*
G37*
X158000000Y-101750000D02*
X157000000Y-101750000D01*
X157000000Y-100750000D01*
X158000000Y-100750000D01*
X158000000Y-101750000D01*
G36*
X158000000Y-101750000D02*
G01*
X157000000Y-101750000D01*
X157000000Y-100750000D01*
X158000000Y-100750000D01*
X158000000Y-101750000D01*
G37*
X157750000Y-108000000D02*
X157250000Y-108250000D01*
X157000000Y-108250000D01*
X157000000Y-107500000D01*
X158000000Y-107500000D01*
X157750000Y-108000000D01*
G36*
X157750000Y-108000000D02*
G01*
X157250000Y-108250000D01*
X157000000Y-108250000D01*
X157000000Y-107500000D01*
X158000000Y-107500000D01*
X157750000Y-108000000D01*
G37*
X143000000Y-108250000D02*
X142750000Y-108250000D01*
X142250000Y-108000000D01*
X142000000Y-107500000D01*
X143000000Y-107500000D01*
X143000000Y-108250000D01*
G36*
X143000000Y-108250000D02*
G01*
X142750000Y-108250000D01*
X142250000Y-108000000D01*
X142000000Y-107500000D01*
X143000000Y-107500000D01*
X143000000Y-108250000D01*
G37*
X157750000Y-80500000D02*
X158000000Y-81000000D01*
X157000000Y-81000000D01*
X157000000Y-80250000D01*
X157250000Y-80250000D01*
X157750000Y-80500000D01*
G36*
X157750000Y-80500000D02*
G01*
X158000000Y-81000000D01*
X157000000Y-81000000D01*
X157000000Y-80250000D01*
X157250000Y-80250000D01*
X157750000Y-80500000D01*
G37*
X143000000Y-101750000D02*
X142000000Y-101750000D01*
X142000000Y-100750000D01*
X143000000Y-100750000D01*
X143000000Y-101750000D01*
G36*
X143000000Y-101750000D02*
G01*
X142000000Y-101750000D01*
X142000000Y-100750000D01*
X143000000Y-100750000D01*
X143000000Y-101750000D01*
G37*
X158000000Y-87750000D02*
X157000000Y-87750000D01*
X157000000Y-86750000D01*
X158000000Y-86750000D01*
X158000000Y-87750000D01*
G36*
X158000000Y-87750000D02*
G01*
X157000000Y-87750000D01*
X157000000Y-86750000D01*
X158000000Y-86750000D01*
X158000000Y-87750000D01*
G37*
D11*
%TO.C,D4*%
X150400000Y-96300000D03*
X150400000Y-97200000D03*
%TD*%
D12*
%TO.C,J7*%
X148150000Y-96250000D03*
X148150000Y-97250000D03*
X148150000Y-98250000D03*
X148150000Y-99250000D03*
D13*
X144275000Y-94950000D03*
X144275000Y-100550000D03*
%TD*%
D12*
%TO.C,J8*%
X148150000Y-89250000D03*
X148150000Y-90250000D03*
X148150000Y-91250000D03*
X148150000Y-92250000D03*
D13*
X144275000Y-87950000D03*
X144275000Y-93550000D03*
%TD*%
D14*
%TO.C,D10*%
X149600000Y-106200000D03*
X149600000Y-105300000D03*
%TD*%
D15*
%TO.C,C18*%
X150825000Y-93500000D03*
X149175000Y-93500000D03*
%TD*%
%TO.C,C16*%
X150825000Y-100500000D03*
X149175000Y-100500000D03*
%TD*%
D16*
%TO.C,D15*%
X147752792Y-86500000D03*
X146552792Y-86500000D03*
X147752792Y-85800000D03*
X146552792Y-85800000D03*
%TD*%
D15*
%TO.C,C14*%
X150825000Y-107500000D03*
X149175000Y-107500000D03*
%TD*%
D11*
%TO.C,D8*%
X150400000Y-82300000D03*
X150400000Y-83200000D03*
%TD*%
%TO.C,D9*%
X149600000Y-103300000D03*
X149600000Y-104200000D03*
%TD*%
D16*
%TO.C,D16*%
X147752792Y-85100000D03*
X146552792Y-85100000D03*
X147752792Y-84400000D03*
X146552792Y-84400000D03*
%TD*%
D14*
%TO.C,D1*%
X150400000Y-106200000D03*
X150400000Y-105300000D03*
%TD*%
D17*
%TO.C,D5*%
X150400000Y-92200000D03*
X150400000Y-91300000D03*
%TD*%
%TO.C,D3*%
X150400000Y-99200000D03*
X150400000Y-98300000D03*
%TD*%
D18*
%TO.C,C15*%
X149175000Y-102000000D03*
X150825000Y-102000000D03*
%TD*%
D19*
%TO.C,J2*%
X151850000Y-106250000D03*
X151850000Y-105250000D03*
X151850000Y-104250000D03*
X151850000Y-103250000D03*
D20*
X155725000Y-107550000D03*
X155725000Y-101950000D03*
%TD*%
D16*
%TO.C,D19*%
X145752792Y-86500000D03*
X144552792Y-86500000D03*
X145752792Y-85800000D03*
X144552792Y-85800000D03*
%TD*%
D19*
%TO.C,J5*%
X151850000Y-85250000D03*
X151850000Y-84250000D03*
X151850000Y-83250000D03*
X151850000Y-82250000D03*
D20*
X155725000Y-86550000D03*
X155725000Y-80950000D03*
%TD*%
D15*
%TO.C,C20*%
X150825000Y-86500000D03*
X149175000Y-86500000D03*
%TD*%
D16*
%TO.C,D20*%
X145752792Y-85100000D03*
X144552792Y-85100000D03*
X145752792Y-84400000D03*
X144552792Y-84400000D03*
%TD*%
D11*
%TO.C,D6*%
X150400000Y-89300000D03*
X150400000Y-90200000D03*
%TD*%
D21*
%TO.C,J1*%
X153810000Y-115150000D03*
D22*
X151270000Y-114775000D03*
X148730000Y-114775000D03*
D21*
X146190000Y-115150000D03*
%TD*%
D18*
%TO.C,C17*%
X149175000Y-94950000D03*
X150825000Y-94950000D03*
%TD*%
D17*
%TO.C,D7*%
X150400000Y-85200000D03*
X150400000Y-84300000D03*
%TD*%
%TO.C,D14*%
X149600000Y-92200000D03*
X149600000Y-91300000D03*
%TD*%
D16*
%TO.C,D21*%
X145752792Y-83700000D03*
X144552792Y-83700000D03*
X145752792Y-83000000D03*
X144552792Y-83000000D03*
%TD*%
D19*
%TO.C,J4*%
X151850000Y-92250000D03*
X151850000Y-91250000D03*
X151850000Y-90250000D03*
X151850000Y-89250000D03*
D20*
X155725000Y-93550000D03*
X155725000Y-87950000D03*
%TD*%
D11*
%TO.C,D11*%
X149600000Y-96300000D03*
X149600000Y-97200000D03*
%TD*%
D12*
%TO.C,J6*%
X148150000Y-103250000D03*
X148150000Y-104250000D03*
X148150000Y-105250000D03*
X148150000Y-106250000D03*
D13*
X144275000Y-101950000D03*
X144275000Y-107550000D03*
%TD*%
D18*
%TO.C,C19*%
X149175000Y-88000000D03*
X150825000Y-88000000D03*
%TD*%
D16*
%TO.C,D17*%
X147752792Y-83700000D03*
X146552792Y-83700000D03*
X147752792Y-83000000D03*
X146552792Y-83000000D03*
%TD*%
%TO.C,D18*%
X147752792Y-82300000D03*
X146552792Y-82300000D03*
X147752792Y-81600000D03*
X146552792Y-81600000D03*
%TD*%
D11*
%TO.C,D2*%
X150400000Y-103300000D03*
X150400000Y-104200000D03*
%TD*%
D17*
%TO.C,D12*%
X149600000Y-99200000D03*
X149600000Y-98300000D03*
%TD*%
D23*
%TO.C,H1*%
X150000000Y-109250000D03*
%TD*%
D19*
%TO.C,J3*%
X151850000Y-99250000D03*
X151850000Y-98250000D03*
X151850000Y-97250000D03*
X151850000Y-96250000D03*
D20*
X155725000Y-100550000D03*
X155725000Y-94950000D03*
%TD*%
D11*
%TO.C,D13*%
X149600000Y-89300000D03*
X149600000Y-90200000D03*
%TD*%
D24*
X157250000Y-102450000D03*
X151500000Y-81500000D03*
X142780000Y-93250000D03*
X150124571Y-99757687D03*
X146180031Y-93072237D03*
X157300000Y-88250000D03*
X142290000Y-100250000D03*
X142750000Y-81000000D03*
X150030000Y-92960000D03*
X148300000Y-99930000D03*
X157250000Y-98850000D03*
X148400000Y-107150000D03*
X147230000Y-88030000D03*
X157280000Y-81500000D03*
X149819271Y-107261475D03*
X157290000Y-86250000D03*
X153780000Y-86680000D03*
X143310000Y-95910000D03*
X147030000Y-106040000D03*
X147280000Y-98900000D03*
X157280000Y-93250000D03*
X142290000Y-102250000D03*
X151720000Y-95570000D03*
X155414117Y-92535883D03*
X151034229Y-103573736D03*
X146700000Y-89050000D03*
X148500000Y-87250000D03*
X153300000Y-105500000D03*
X154331365Y-98163517D03*
X150060000Y-95580000D03*
X143810000Y-85220000D03*
X157750000Y-95250000D03*
X153750000Y-85500000D03*
X143745010Y-99546626D03*
X153600000Y-90150000D03*
X151650000Y-100150000D03*
X147400000Y-80670000D03*
X144120000Y-89110000D03*
X144000000Y-102950000D03*
X145460000Y-108030000D03*
X144380000Y-97710000D03*
X154550000Y-104100000D03*
X149911324Y-86248711D03*
X146938761Y-92250000D03*
X155595010Y-88970000D03*
X145320000Y-103210000D03*
X145510000Y-90820000D03*
X151600000Y-88500000D03*
X149600000Y-84610000D03*
X149950000Y-108050000D03*
X153246511Y-96950092D03*
D25*
X153080000Y-91450000D03*
X150100000Y-87050000D03*
D24*
X144950000Y-92400000D03*
D25*
X145920000Y-106040000D03*
D24*
X148300000Y-108050000D03*
D25*
X153710000Y-107990000D03*
X153150000Y-84600000D03*
D24*
X151590000Y-101084990D03*
X151600000Y-102160000D03*
X148440000Y-85970000D03*
X148630000Y-85090000D03*
X148630000Y-83740000D03*
X148600000Y-82290000D03*
X143750000Y-86250000D03*
X143700000Y-84370000D03*
X143730000Y-83000000D03*
D25*
X154500000Y-108500000D03*
D24*
X152850000Y-100550000D03*
X152345136Y-101002923D03*
X152880018Y-98230018D03*
X152858771Y-97580354D03*
X154629380Y-98839419D03*
X154197253Y-99324992D03*
X155750000Y-98500000D03*
X156250000Y-98000000D03*
X146594655Y-104644598D03*
X146975560Y-105171312D03*
X143660000Y-98150000D03*
X143710000Y-98840000D03*
X145070000Y-97740000D03*
X145520000Y-98240000D03*
X147150000Y-108250000D03*
X146650883Y-103250883D03*
X146947546Y-102650703D03*
X146489117Y-108260883D03*
X147750001Y-87500001D03*
D26*
X152250000Y-80000000D02*
X157000000Y-80000000D01*
X148500000Y-81000000D02*
X151500000Y-81000000D01*
X157000000Y-108500000D02*
X156100000Y-108500000D01*
X141750000Y-107250000D02*
X141750000Y-81250000D01*
X156100000Y-120000000D02*
X156100000Y-108500000D01*
X148000000Y-80250000D02*
X148000000Y-80500000D01*
X152000000Y-80250000D02*
G75*
G02*
X152250000Y-80000000I250000J0D01*
G01*
X143900000Y-120000000D02*
X143900000Y-108500000D01*
X141750000Y-81250000D02*
G75*
G02*
X143000000Y-80000000I1250000J0D01*
G01*
X147750000Y-80000000D02*
G75*
G02*
X148000000Y-80250000I0J-250000D01*
G01*
X143000000Y-108500000D02*
G75*
G02*
X141750000Y-107250000I0J1250000D01*
G01*
X143900000Y-120000000D02*
X156100000Y-120000000D01*
X158250000Y-81250000D02*
X158250000Y-107250000D01*
X143000000Y-80000000D02*
X147750000Y-80000000D01*
X158250000Y-107250000D02*
G75*
G02*
X157000000Y-108500000I-1250000J0D01*
G01*
X157000000Y-80000000D02*
G75*
G02*
X158250000Y-81250000I0J-1250000D01*
G01*
X148500000Y-81000000D02*
G75*
G02*
X148000000Y-80500000I0J500000D01*
G01*
X143900000Y-108500000D02*
X143000000Y-108500000D01*
X152000000Y-80500000D02*
G75*
G02*
X151500000Y-81000000I-500000J0D01*
G01*
X152000000Y-80500000D02*
X152000000Y-80250000D01*
M02*
