%TF.GenerationSoftware,KiCad,Pcbnew,8.99.0-344-gfbc433deaa-dirty*%
%TF.CreationDate,2024-03-11T18:49:53+01:00*%
%TF.ProjectId,StickHub,53746963-6b48-4756-922e-6b696361645f,rev?*%
%TF.SameCoordinates,Original*%
%TF.FileFunction,Legend,Bot*%
%TF.FilePolarity,Positive*%
%FSLAX46Y46*%
G04 Gerber Fmt 4.6, Leading zero omitted, Abs format (unit mm)*
G04 Created by KiCad (PCBNEW 8.99.0-344-gfbc433deaa-dirty) date 2024-03-11 18:49:53*
%MOMM*%
%LPD*%
G01*
G04 APERTURE LIST*
G04 Aperture macros list*
%AMRoundRect*
0 Rectangle with rounded corners*
0 $1 Rounding radius*
0 $2 $3 $4 $5 $6 $7 $8 $9 X,Y pos of 4 corners*
0 Add a 4 corners polygon primitive as box body*
4,1,4,$2,$3,$4,$5,$6,$7,$8,$9,$2,$3,0*
0 Add four circle primitives for the rounded corners*
1,1,$1+$1,$2,$3*
1,1,$1+$1,$4,$5*
1,1,$1+$1,$6,$7*
1,1,$1+$1,$8,$9*
0 Add four rect primitives between the rounded corners*
20,1,$1+$1,$2,$3,$4,$5,0*
20,1,$1+$1,$4,$5,$6,$7,0*
20,1,$1+$1,$6,$7,$8,$9,0*
20,1,$1+$1,$8,$9,$2,$3,0*%
%AMFreePoly0*
4,1,14,0.650000,0.750000,0.750000,0.750000,0.750000,-0.750000,-0.750000,-0.750000,-0.750000,0.750000,-0.650000,0.750000,-0.500000,1.049999,-0.350000,0.750000,-0.150000,0.750000,-0.000001,1.050000,0.150000,0.750000,0.350000,0.750000,0.500000,1.050000,0.650000,0.750000,0.650000,0.750000,$1*%
%AMFreePoly1*
4,1,11,0.750000,-0.750000,0.399999,-0.750000,0.250006,-1.049999,0.100002,-0.750000,-0.100002,-0.750000,-0.249994,-1.050000,-0.399998,-0.750000,-0.750000,-0.750000,-0.750000,0.750000,0.750000,0.750000,0.750000,-0.750000,0.750000,-0.750000,$1*%
G04 Aperture macros list end*
%ADD10C,0.150000*%
%ADD11C,0.000000*%
%ADD12C,0.400000*%
%ADD13C,0.225000*%
%ADD14C,0.120000*%
%ADD15O,4.150000X1.650000*%
%ADD16RoundRect,0.059000X0.088388X-0.422143X0.422143X-0.088388X-0.088388X0.422143X-0.422143X0.088388X0*%
%ADD17RoundRect,0.046000X-0.035355X0.295571X-0.295571X0.035355X0.035355X-0.295571X0.295571X-0.035355X0*%
%ADD18RoundRect,0.059000X0.361000X-0.236000X0.361000X0.236000X-0.361000X0.236000X-0.361000X-0.236000X0*%
%ADD19RoundRect,0.057500X-0.272500X0.172500X-0.272500X-0.172500X0.272500X-0.172500X0.272500X0.172500X0*%
%ADD20RoundRect,0.057500X0.035355X-0.279307X0.279307X-0.035355X-0.035355X0.279307X-0.279307X0.035355X0*%
%ADD21RoundRect,0.046000X-0.295571X-0.035355X-0.035355X-0.295571X0.295571X0.035355X0.035355X0.295571X0*%
%ADD22RoundRect,0.062500X0.141421X0.229810X-0.229810X-0.141421X-0.141421X-0.229810X0.229810X0.141421X0*%
%ADD23RoundRect,0.049600X0.005303X0.500844X-0.500844X-0.005303X-0.005303X-0.500844X0.500844X0.005303X0*%
%ADD24RoundRect,0.100500X-0.649500X-0.649500X0.649500X-0.649500X0.649500X0.649500X-0.649500X0.649500X0*%
%ADD25RoundRect,0.057500X-0.035355X0.279307X-0.279307X0.035355X0.035355X-0.279307X0.279307X-0.035355X0*%
%ADD26RoundRect,0.057500X0.279307X0.035355X0.035355X0.279307X-0.279307X-0.035355X-0.035355X-0.279307X0*%
%ADD27RoundRect,0.057500X0.070711X-0.314663X0.314663X-0.070711X-0.070711X0.314663X-0.314663X0.070711X0*%
%ADD28RoundRect,0.046000X0.295571X0.035355X0.035355X0.295571X-0.295571X-0.035355X-0.035355X-0.295571X0*%
%ADD29RoundRect,0.057500X0.172500X0.222500X-0.172500X0.222500X-0.172500X-0.222500X0.172500X-0.222500X0*%
%ADD30RoundRect,0.059000X0.422143X0.088388X0.088388X0.422143X-0.422143X-0.088388X-0.088388X-0.422143X0*%
%ADD31RoundRect,0.059000X-0.088388X0.422143X-0.422143X0.088388X0.088388X-0.422143X0.422143X-0.088388X0*%
%ADD32RoundRect,0.110200X0.035355X0.658741X-0.658741X-0.035355X-0.035355X-0.658741X0.658741X0.035355X0*%
%ADD33RoundRect,0.059000X-0.361000X0.236000X-0.361000X-0.236000X0.361000X-0.236000X0.361000X0.236000X0*%
%ADD34RoundRect,0.075000X0.415425X0.521491X-0.521491X-0.415425X-0.415425X-0.521491X0.521491X0.415425X0*%
%ADD35RoundRect,0.075000X-0.415425X0.521491X-0.521491X0.415425X0.415425X-0.521491X0.521491X-0.415425X0*%
%ADD36FreePoly0,0.000000*%
%ADD37FreePoly1,0.000000*%
%ADD38RoundRect,0.499500X0.250500X1.500500X-0.250500X1.500500X-0.250500X-1.500500X0.250500X-1.500500X0*%
%ADD39RoundRect,0.057500X-0.279307X-0.035355X-0.035355X-0.279307X0.279307X0.035355X0.035355X0.279307X0*%
%ADD40RoundRect,0.057500X-0.222500X0.172500X-0.222500X-0.172500X0.222500X-0.172500X0.222500X0.172500X0*%
%ADD41RoundRect,0.075000X0.575000X-0.300000X0.575000X0.300000X-0.575000X0.300000X-0.575000X-0.300000X0*%
%ADD42C,0.500000*%
%ADD43C,0.600000*%
%TA.AperFunction,Profile*%
%ADD44C,0.100000*%
%TD*%
G04 APERTURE END LIST*
D10*
X144950000Y-87750000D02*
X145000000Y-93000000D01*
X141875000Y-87750000D02*
X144950000Y-87750000D01*
X144150000Y-93750000D02*
X141875000Y-93750000D01*
D11*
G36*
X156250000Y-108200000D02*
G01*
X156150000Y-108100000D01*
X155300000Y-109000000D01*
X155300000Y-109650000D01*
X155150000Y-109650000D01*
X155150000Y-108950000D01*
X156050000Y-108000000D01*
X155950000Y-107900000D01*
X156400000Y-107750000D01*
X156250000Y-108200000D01*
G37*
G36*
X157900000Y-99050000D02*
G01*
X157750000Y-99050000D01*
X157750000Y-98450000D01*
X157900000Y-98450000D01*
X157900000Y-99050000D01*
G37*
G36*
X156100000Y-104750000D02*
G01*
X156350000Y-104750000D01*
X156350000Y-104900000D01*
X156100000Y-104900000D01*
X156100000Y-105150000D01*
X155950000Y-105150000D01*
X155950000Y-104900000D01*
X155700000Y-104900000D01*
X155700000Y-104750000D01*
X155950000Y-104750000D01*
X155950000Y-104500000D01*
X156100000Y-104500000D01*
X156100000Y-104750000D01*
G37*
D10*
X142508207Y-93149609D02*
X142432017Y-93187704D01*
X142432017Y-93187704D02*
X142317731Y-93187704D01*
X142317731Y-93187704D02*
X142203445Y-93149609D01*
X142203445Y-93149609D02*
X142127255Y-93073419D01*
X142127255Y-93073419D02*
X142089160Y-92997228D01*
X142089160Y-92997228D02*
X142051064Y-92844847D01*
X142051064Y-92844847D02*
X142051064Y-92730561D01*
X142051064Y-92730561D02*
X142089160Y-92578180D01*
X142089160Y-92578180D02*
X142127255Y-92501990D01*
X142127255Y-92501990D02*
X142203445Y-92425800D01*
X142203445Y-92425800D02*
X142317731Y-92387704D01*
X142317731Y-92387704D02*
X142393922Y-92387704D01*
X142393922Y-92387704D02*
X142508207Y-92425800D01*
X142508207Y-92425800D02*
X142546303Y-92463895D01*
X142546303Y-92463895D02*
X142546303Y-92730561D01*
X142546303Y-92730561D02*
X142393922Y-92730561D01*
X142089160Y-89887704D02*
X142089160Y-90687704D01*
X142089160Y-90687704D02*
X142279636Y-90687704D01*
X142279636Y-90687704D02*
X142393922Y-90649609D01*
X142393922Y-90649609D02*
X142470112Y-90573419D01*
X142470112Y-90573419D02*
X142508207Y-90497228D01*
X142508207Y-90497228D02*
X142546303Y-90344847D01*
X142546303Y-90344847D02*
X142546303Y-90230561D01*
X142546303Y-90230561D02*
X142508207Y-90078180D01*
X142508207Y-90078180D02*
X142470112Y-90001990D01*
X142470112Y-90001990D02*
X142393922Y-89925800D01*
X142393922Y-89925800D02*
X142279636Y-89887704D01*
X142279636Y-89887704D02*
X142089160Y-89887704D01*
X142889160Y-90192466D02*
X143498684Y-90192466D01*
X144587704Y-92426190D02*
X144016276Y-92426190D01*
X144016276Y-92426190D02*
X143901990Y-92464285D01*
X143901990Y-92464285D02*
X143825800Y-92540476D01*
X143825800Y-92540476D02*
X143787704Y-92654761D01*
X143787704Y-92654761D02*
X143787704Y-92730952D01*
X143825800Y-92083333D02*
X143787704Y-91969047D01*
X143787704Y-91969047D02*
X143787704Y-91778571D01*
X143787704Y-91778571D02*
X143825800Y-91702380D01*
X143825800Y-91702380D02*
X143863895Y-91664285D01*
X143863895Y-91664285D02*
X143940085Y-91626190D01*
X143940085Y-91626190D02*
X144016276Y-91626190D01*
X144016276Y-91626190D02*
X144092466Y-91664285D01*
X144092466Y-91664285D02*
X144130561Y-91702380D01*
X144130561Y-91702380D02*
X144168657Y-91778571D01*
X144168657Y-91778571D02*
X144206752Y-91930952D01*
X144206752Y-91930952D02*
X144244847Y-92007142D01*
X144244847Y-92007142D02*
X144282942Y-92045237D01*
X144282942Y-92045237D02*
X144359133Y-92083333D01*
X144359133Y-92083333D02*
X144435323Y-92083333D01*
X144435323Y-92083333D02*
X144511514Y-92045237D01*
X144511514Y-92045237D02*
X144549609Y-92007142D01*
X144549609Y-92007142D02*
X144587704Y-91930952D01*
X144587704Y-91930952D02*
X144587704Y-91740475D01*
X144587704Y-91740475D02*
X144549609Y-91626190D01*
X144587704Y-91397618D02*
X144587704Y-90940475D01*
X143787704Y-91169047D02*
X144587704Y-91169047D01*
X143825800Y-90102380D02*
X143787704Y-89988094D01*
X143787704Y-89988094D02*
X143787704Y-89797618D01*
X143787704Y-89797618D02*
X143825800Y-89721427D01*
X143825800Y-89721427D02*
X143863895Y-89683332D01*
X143863895Y-89683332D02*
X143940085Y-89645237D01*
X143940085Y-89645237D02*
X144016276Y-89645237D01*
X144016276Y-89645237D02*
X144092466Y-89683332D01*
X144092466Y-89683332D02*
X144130561Y-89721427D01*
X144130561Y-89721427D02*
X144168657Y-89797618D01*
X144168657Y-89797618D02*
X144206752Y-89949999D01*
X144206752Y-89949999D02*
X144244847Y-90026189D01*
X144244847Y-90026189D02*
X144282942Y-90064284D01*
X144282942Y-90064284D02*
X144359133Y-90102380D01*
X144359133Y-90102380D02*
X144435323Y-90102380D01*
X144435323Y-90102380D02*
X144511514Y-90064284D01*
X144511514Y-90064284D02*
X144549609Y-90026189D01*
X144549609Y-90026189D02*
X144587704Y-89949999D01*
X144587704Y-89949999D02*
X144587704Y-89759522D01*
X144587704Y-89759522D02*
X144549609Y-89645237D01*
X143787704Y-89302379D02*
X144587704Y-89302379D01*
X144206752Y-89302379D02*
X144206752Y-88845236D01*
X143787704Y-88845236D02*
X144587704Y-88845236D01*
D12*
X142335713Y-81773800D02*
X142564285Y-81688085D01*
X142564285Y-81688085D02*
X142945237Y-81688085D01*
X142945237Y-81688085D02*
X143097618Y-81773800D01*
X143097618Y-81773800D02*
X143173809Y-81859514D01*
X143173809Y-81859514D02*
X143249999Y-82030942D01*
X143249999Y-82030942D02*
X143249999Y-82202371D01*
X143249999Y-82202371D02*
X143173809Y-82373800D01*
X143173809Y-82373800D02*
X143097618Y-82459514D01*
X143097618Y-82459514D02*
X142945237Y-82545228D01*
X142945237Y-82545228D02*
X142640475Y-82630942D01*
X142640475Y-82630942D02*
X142488094Y-82716657D01*
X142488094Y-82716657D02*
X142411904Y-82802371D01*
X142411904Y-82802371D02*
X142335713Y-82973800D01*
X142335713Y-82973800D02*
X142335713Y-83145228D01*
X142335713Y-83145228D02*
X142411904Y-83316657D01*
X142411904Y-83316657D02*
X142488094Y-83402371D01*
X142488094Y-83402371D02*
X142640475Y-83488085D01*
X142640475Y-83488085D02*
X143021428Y-83488085D01*
X143021428Y-83488085D02*
X143249999Y-83402371D01*
X143707142Y-82888085D02*
X144316666Y-82888085D01*
X143935714Y-83488085D02*
X143935714Y-81945228D01*
X143935714Y-81945228D02*
X144011904Y-81773800D01*
X144011904Y-81773800D02*
X144164285Y-81688085D01*
X144164285Y-81688085D02*
X144316666Y-81688085D01*
X144850000Y-81688085D02*
X144850000Y-82888085D01*
X144850000Y-83488085D02*
X144773809Y-83402371D01*
X144773809Y-83402371D02*
X144850000Y-83316657D01*
X144850000Y-83316657D02*
X144926190Y-83402371D01*
X144926190Y-83402371D02*
X144850000Y-83488085D01*
X144850000Y-83488085D02*
X144850000Y-83316657D01*
X146297619Y-81773800D02*
X146145238Y-81688085D01*
X146145238Y-81688085D02*
X145840476Y-81688085D01*
X145840476Y-81688085D02*
X145688095Y-81773800D01*
X145688095Y-81773800D02*
X145611905Y-81859514D01*
X145611905Y-81859514D02*
X145535714Y-82030942D01*
X145535714Y-82030942D02*
X145535714Y-82545228D01*
X145535714Y-82545228D02*
X145611905Y-82716657D01*
X145611905Y-82716657D02*
X145688095Y-82802371D01*
X145688095Y-82802371D02*
X145840476Y-82888085D01*
X145840476Y-82888085D02*
X146145238Y-82888085D01*
X146145238Y-82888085D02*
X146297619Y-82802371D01*
X146983334Y-81688085D02*
X146983334Y-83488085D01*
X147135715Y-82373800D02*
X147592858Y-81688085D01*
X147592858Y-82888085D02*
X146983334Y-82202371D01*
X148278572Y-81688085D02*
X148278572Y-83488085D01*
X148278572Y-82630942D02*
X149192858Y-82630942D01*
X149192858Y-81688085D02*
X149192858Y-83488085D01*
X150640476Y-82888085D02*
X150640476Y-81688085D01*
X149954762Y-82888085D02*
X149954762Y-81945228D01*
X149954762Y-81945228D02*
X150030952Y-81773800D01*
X150030952Y-81773800D02*
X150183333Y-81688085D01*
X150183333Y-81688085D02*
X150411905Y-81688085D01*
X150411905Y-81688085D02*
X150564286Y-81773800D01*
X150564286Y-81773800D02*
X150640476Y-81859514D01*
X151402381Y-81688085D02*
X151402381Y-83488085D01*
X151402381Y-82802371D02*
X151554762Y-82888085D01*
X151554762Y-82888085D02*
X151859524Y-82888085D01*
X151859524Y-82888085D02*
X152011905Y-82802371D01*
X152011905Y-82802371D02*
X152088095Y-82716657D01*
X152088095Y-82716657D02*
X152164286Y-82545228D01*
X152164286Y-82545228D02*
X152164286Y-82030942D01*
X152164286Y-82030942D02*
X152088095Y-81859514D01*
X152088095Y-81859514D02*
X152011905Y-81773800D01*
X152011905Y-81773800D02*
X151859524Y-81688085D01*
X151859524Y-81688085D02*
X151554762Y-81688085D01*
X151554762Y-81688085D02*
X151402381Y-81773800D01*
D10*
X142089160Y-91137704D02*
X142089160Y-91937704D01*
X142089160Y-91937704D02*
X142279636Y-91937704D01*
X142279636Y-91937704D02*
X142393922Y-91899609D01*
X142393922Y-91899609D02*
X142470112Y-91823419D01*
X142470112Y-91823419D02*
X142508207Y-91747228D01*
X142508207Y-91747228D02*
X142546303Y-91594847D01*
X142546303Y-91594847D02*
X142546303Y-91480561D01*
X142546303Y-91480561D02*
X142508207Y-91328180D01*
X142508207Y-91328180D02*
X142470112Y-91251990D01*
X142470112Y-91251990D02*
X142393922Y-91175800D01*
X142393922Y-91175800D02*
X142279636Y-91137704D01*
X142279636Y-91137704D02*
X142089160Y-91137704D01*
X142889160Y-91442466D02*
X143498684Y-91442466D01*
X143193922Y-91137704D02*
X143193922Y-91747228D01*
X142470112Y-89187704D02*
X142089160Y-89187704D01*
X142089160Y-89187704D02*
X142051064Y-88806752D01*
X142051064Y-88806752D02*
X142089160Y-88844847D01*
X142089160Y-88844847D02*
X142165350Y-88882942D01*
X142165350Y-88882942D02*
X142355826Y-88882942D01*
X142355826Y-88882942D02*
X142432017Y-88844847D01*
X142432017Y-88844847D02*
X142470112Y-88806752D01*
X142470112Y-88806752D02*
X142508207Y-88730561D01*
X142508207Y-88730561D02*
X142508207Y-88540085D01*
X142508207Y-88540085D02*
X142470112Y-88463895D01*
X142470112Y-88463895D02*
X142432017Y-88425800D01*
X142432017Y-88425800D02*
X142355826Y-88387704D01*
X142355826Y-88387704D02*
X142165350Y-88387704D01*
X142165350Y-88387704D02*
X142089160Y-88425800D01*
X142089160Y-88425800D02*
X142051064Y-88463895D01*
X142736779Y-89187704D02*
X143003446Y-88387704D01*
X143003446Y-88387704D02*
X143270112Y-89187704D01*
X151680363Y-111744172D02*
X151299410Y-111477505D01*
X151680363Y-111287029D02*
X150880363Y-111287029D01*
X150880363Y-111287029D02*
X150880363Y-111591791D01*
X150880363Y-111591791D02*
X150918458Y-111667981D01*
X150918458Y-111667981D02*
X150956553Y-111706076D01*
X150956553Y-111706076D02*
X151032744Y-111744172D01*
X151032744Y-111744172D02*
X151147029Y-111744172D01*
X151147029Y-111744172D02*
X151223220Y-111706076D01*
X151223220Y-111706076D02*
X151261315Y-111667981D01*
X151261315Y-111667981D02*
X151299410Y-111591791D01*
X151299410Y-111591791D02*
X151299410Y-111287029D01*
X151261315Y-112087029D02*
X151261315Y-112353695D01*
X151680363Y-112467981D02*
X151680363Y-112087029D01*
X151680363Y-112087029D02*
X150880363Y-112087029D01*
X150880363Y-112087029D02*
X150880363Y-112467981D01*
X151680363Y-112810839D02*
X150880363Y-112810839D01*
X150880363Y-112810839D02*
X151451791Y-113077505D01*
X151451791Y-113077505D02*
X150880363Y-113344172D01*
X150880363Y-113344172D02*
X151680363Y-113344172D01*
X150880363Y-113877506D02*
X150880363Y-114029887D01*
X150880363Y-114029887D02*
X150918458Y-114106077D01*
X150918458Y-114106077D02*
X150994648Y-114182268D01*
X150994648Y-114182268D02*
X151147029Y-114220363D01*
X151147029Y-114220363D02*
X151413696Y-114220363D01*
X151413696Y-114220363D02*
X151566077Y-114182268D01*
X151566077Y-114182268D02*
X151642268Y-114106077D01*
X151642268Y-114106077D02*
X151680363Y-114029887D01*
X151680363Y-114029887D02*
X151680363Y-113877506D01*
X151680363Y-113877506D02*
X151642268Y-113801315D01*
X151642268Y-113801315D02*
X151566077Y-113725125D01*
X151566077Y-113725125D02*
X151413696Y-113687029D01*
X151413696Y-113687029D02*
X151147029Y-113687029D01*
X151147029Y-113687029D02*
X150994648Y-113725125D01*
X150994648Y-113725125D02*
X150918458Y-113801315D01*
X150918458Y-113801315D02*
X150880363Y-113877506D01*
X150880363Y-114448934D02*
X151680363Y-114715601D01*
X151680363Y-114715601D02*
X150880363Y-114982267D01*
X151261315Y-115248934D02*
X151261315Y-115515600D01*
X151680363Y-115629886D02*
X151680363Y-115248934D01*
X151680363Y-115248934D02*
X150880363Y-115248934D01*
X150880363Y-115248934D02*
X150880363Y-115629886D01*
X151642268Y-116544172D02*
X151680363Y-116658458D01*
X151680363Y-116658458D02*
X151680363Y-116848934D01*
X151680363Y-116848934D02*
X151642268Y-116925125D01*
X151642268Y-116925125D02*
X151604172Y-116963220D01*
X151604172Y-116963220D02*
X151527982Y-117001315D01*
X151527982Y-117001315D02*
X151451791Y-117001315D01*
X151451791Y-117001315D02*
X151375601Y-116963220D01*
X151375601Y-116963220D02*
X151337506Y-116925125D01*
X151337506Y-116925125D02*
X151299410Y-116848934D01*
X151299410Y-116848934D02*
X151261315Y-116696553D01*
X151261315Y-116696553D02*
X151223220Y-116620363D01*
X151223220Y-116620363D02*
X151185125Y-116582268D01*
X151185125Y-116582268D02*
X151108934Y-116544172D01*
X151108934Y-116544172D02*
X151032744Y-116544172D01*
X151032744Y-116544172D02*
X150956553Y-116582268D01*
X150956553Y-116582268D02*
X150918458Y-116620363D01*
X150918458Y-116620363D02*
X150880363Y-116696553D01*
X150880363Y-116696553D02*
X150880363Y-116887030D01*
X150880363Y-116887030D02*
X150918458Y-117001315D01*
X151680363Y-117725125D02*
X151680363Y-117344173D01*
X151680363Y-117344173D02*
X150880363Y-117344173D01*
X151680363Y-117991792D02*
X150880363Y-117991792D01*
X150880363Y-117991792D02*
X150880363Y-118182268D01*
X150880363Y-118182268D02*
X150918458Y-118296554D01*
X150918458Y-118296554D02*
X150994648Y-118372744D01*
X150994648Y-118372744D02*
X151070839Y-118410839D01*
X151070839Y-118410839D02*
X151223220Y-118448935D01*
X151223220Y-118448935D02*
X151337506Y-118448935D01*
X151337506Y-118448935D02*
X151489887Y-118410839D01*
X151489887Y-118410839D02*
X151566077Y-118372744D01*
X151566077Y-118372744D02*
X151642268Y-118296554D01*
X151642268Y-118296554D02*
X151680363Y-118182268D01*
X151680363Y-118182268D02*
X151680363Y-117991792D01*
X151680363Y-119248935D02*
X151299410Y-118982268D01*
X151680363Y-118791792D02*
X150880363Y-118791792D01*
X150880363Y-118791792D02*
X150880363Y-119096554D01*
X150880363Y-119096554D02*
X150918458Y-119172744D01*
X150918458Y-119172744D02*
X150956553Y-119210839D01*
X150956553Y-119210839D02*
X151032744Y-119248935D01*
X151032744Y-119248935D02*
X151147029Y-119248935D01*
X151147029Y-119248935D02*
X151223220Y-119210839D01*
X151223220Y-119210839D02*
X151261315Y-119172744D01*
X151261315Y-119172744D02*
X151299410Y-119096554D01*
X151299410Y-119096554D02*
X151299410Y-118791792D01*
X152549270Y-110563219D02*
X152587365Y-110677505D01*
X152587365Y-110677505D02*
X152625461Y-110715600D01*
X152625461Y-110715600D02*
X152701651Y-110753696D01*
X152701651Y-110753696D02*
X152815937Y-110753696D01*
X152815937Y-110753696D02*
X152892127Y-110715600D01*
X152892127Y-110715600D02*
X152930223Y-110677505D01*
X152930223Y-110677505D02*
X152968318Y-110601315D01*
X152968318Y-110601315D02*
X152968318Y-110296553D01*
X152968318Y-110296553D02*
X152168318Y-110296553D01*
X152168318Y-110296553D02*
X152168318Y-110563219D01*
X152168318Y-110563219D02*
X152206413Y-110639410D01*
X152206413Y-110639410D02*
X152244508Y-110677505D01*
X152244508Y-110677505D02*
X152320699Y-110715600D01*
X152320699Y-110715600D02*
X152396889Y-110715600D01*
X152396889Y-110715600D02*
X152473080Y-110677505D01*
X152473080Y-110677505D02*
X152511175Y-110639410D01*
X152511175Y-110639410D02*
X152549270Y-110563219D01*
X152549270Y-110563219D02*
X152549270Y-110296553D01*
X152968318Y-111553696D02*
X152587365Y-111287029D01*
X152968318Y-111096553D02*
X152168318Y-111096553D01*
X152168318Y-111096553D02*
X152168318Y-111401315D01*
X152168318Y-111401315D02*
X152206413Y-111477505D01*
X152206413Y-111477505D02*
X152244508Y-111515600D01*
X152244508Y-111515600D02*
X152320699Y-111553696D01*
X152320699Y-111553696D02*
X152434984Y-111553696D01*
X152434984Y-111553696D02*
X152511175Y-111515600D01*
X152511175Y-111515600D02*
X152549270Y-111477505D01*
X152549270Y-111477505D02*
X152587365Y-111401315D01*
X152587365Y-111401315D02*
X152587365Y-111096553D01*
X152968318Y-111896553D02*
X152168318Y-111896553D01*
X152968318Y-112277505D02*
X152168318Y-112277505D01*
X152168318Y-112277505D02*
X152168318Y-112467981D01*
X152168318Y-112467981D02*
X152206413Y-112582267D01*
X152206413Y-112582267D02*
X152282603Y-112658457D01*
X152282603Y-112658457D02*
X152358794Y-112696552D01*
X152358794Y-112696552D02*
X152511175Y-112734648D01*
X152511175Y-112734648D02*
X152625461Y-112734648D01*
X152625461Y-112734648D02*
X152777842Y-112696552D01*
X152777842Y-112696552D02*
X152854032Y-112658457D01*
X152854032Y-112658457D02*
X152930223Y-112582267D01*
X152930223Y-112582267D02*
X152968318Y-112467981D01*
X152968318Y-112467981D02*
X152968318Y-112277505D01*
X152206413Y-113496552D02*
X152168318Y-113420362D01*
X152168318Y-113420362D02*
X152168318Y-113306076D01*
X152168318Y-113306076D02*
X152206413Y-113191790D01*
X152206413Y-113191790D02*
X152282603Y-113115600D01*
X152282603Y-113115600D02*
X152358794Y-113077505D01*
X152358794Y-113077505D02*
X152511175Y-113039409D01*
X152511175Y-113039409D02*
X152625461Y-113039409D01*
X152625461Y-113039409D02*
X152777842Y-113077505D01*
X152777842Y-113077505D02*
X152854032Y-113115600D01*
X152854032Y-113115600D02*
X152930223Y-113191790D01*
X152930223Y-113191790D02*
X152968318Y-113306076D01*
X152968318Y-113306076D02*
X152968318Y-113382267D01*
X152968318Y-113382267D02*
X152930223Y-113496552D01*
X152930223Y-113496552D02*
X152892127Y-113534648D01*
X152892127Y-113534648D02*
X152625461Y-113534648D01*
X152625461Y-113534648D02*
X152625461Y-113382267D01*
X152549270Y-113877505D02*
X152549270Y-114144171D01*
X152968318Y-114258457D02*
X152968318Y-113877505D01*
X152968318Y-113877505D02*
X152168318Y-113877505D01*
X152168318Y-113877505D02*
X152168318Y-114258457D01*
X152168318Y-115096553D02*
X152168318Y-115553696D01*
X152968318Y-115325124D02*
X152168318Y-115325124D01*
X152168318Y-115972744D02*
X152168318Y-116125125D01*
X152168318Y-116125125D02*
X152206413Y-116201315D01*
X152206413Y-116201315D02*
X152282603Y-116277506D01*
X152282603Y-116277506D02*
X152434984Y-116315601D01*
X152434984Y-116315601D02*
X152701651Y-116315601D01*
X152701651Y-116315601D02*
X152854032Y-116277506D01*
X152854032Y-116277506D02*
X152930223Y-116201315D01*
X152930223Y-116201315D02*
X152968318Y-116125125D01*
X152968318Y-116125125D02*
X152968318Y-115972744D01*
X152968318Y-115972744D02*
X152930223Y-115896553D01*
X152930223Y-115896553D02*
X152854032Y-115820363D01*
X152854032Y-115820363D02*
X152701651Y-115782267D01*
X152701651Y-115782267D02*
X152434984Y-115782267D01*
X152434984Y-115782267D02*
X152282603Y-115820363D01*
X152282603Y-115820363D02*
X152206413Y-115896553D01*
X152206413Y-115896553D02*
X152168318Y-115972744D01*
X152168318Y-117267982D02*
X152815937Y-117267982D01*
X152815937Y-117267982D02*
X152892127Y-117306077D01*
X152892127Y-117306077D02*
X152930223Y-117344172D01*
X152930223Y-117344172D02*
X152968318Y-117420363D01*
X152968318Y-117420363D02*
X152968318Y-117572744D01*
X152968318Y-117572744D02*
X152930223Y-117648934D01*
X152930223Y-117648934D02*
X152892127Y-117687029D01*
X152892127Y-117687029D02*
X152815937Y-117725125D01*
X152815937Y-117725125D02*
X152168318Y-117725125D01*
X152930223Y-118067981D02*
X152968318Y-118182267D01*
X152968318Y-118182267D02*
X152968318Y-118372743D01*
X152968318Y-118372743D02*
X152930223Y-118448934D01*
X152930223Y-118448934D02*
X152892127Y-118487029D01*
X152892127Y-118487029D02*
X152815937Y-118525124D01*
X152815937Y-118525124D02*
X152739746Y-118525124D01*
X152739746Y-118525124D02*
X152663556Y-118487029D01*
X152663556Y-118487029D02*
X152625461Y-118448934D01*
X152625461Y-118448934D02*
X152587365Y-118372743D01*
X152587365Y-118372743D02*
X152549270Y-118220362D01*
X152549270Y-118220362D02*
X152511175Y-118144172D01*
X152511175Y-118144172D02*
X152473080Y-118106077D01*
X152473080Y-118106077D02*
X152396889Y-118067981D01*
X152396889Y-118067981D02*
X152320699Y-118067981D01*
X152320699Y-118067981D02*
X152244508Y-118106077D01*
X152244508Y-118106077D02*
X152206413Y-118144172D01*
X152206413Y-118144172D02*
X152168318Y-118220362D01*
X152168318Y-118220362D02*
X152168318Y-118410839D01*
X152168318Y-118410839D02*
X152206413Y-118525124D01*
X152549270Y-118867982D02*
X152549270Y-119134648D01*
X152968318Y-119248934D02*
X152968318Y-118867982D01*
X152968318Y-118867982D02*
X152168318Y-118867982D01*
X152168318Y-118867982D02*
X152168318Y-119248934D01*
X153837225Y-113801315D02*
X153837225Y-114067981D01*
X154256273Y-114182267D02*
X154256273Y-113801315D01*
X154256273Y-113801315D02*
X153456273Y-113801315D01*
X153456273Y-113801315D02*
X153456273Y-114182267D01*
X153456273Y-114448934D02*
X154256273Y-114982268D01*
X153456273Y-114982268D02*
X154256273Y-114448934D01*
X153456273Y-115172744D02*
X153456273Y-115629887D01*
X154256273Y-115401315D02*
X153456273Y-115401315D01*
X153837225Y-115896554D02*
X153837225Y-116163220D01*
X154256273Y-116277506D02*
X154256273Y-115896554D01*
X154256273Y-115896554D02*
X153456273Y-115896554D01*
X153456273Y-115896554D02*
X153456273Y-116277506D01*
X154256273Y-117077507D02*
X153875320Y-116810840D01*
X154256273Y-116620364D02*
X153456273Y-116620364D01*
X153456273Y-116620364D02*
X153456273Y-116925126D01*
X153456273Y-116925126D02*
X153494368Y-117001316D01*
X153494368Y-117001316D02*
X153532463Y-117039411D01*
X153532463Y-117039411D02*
X153608654Y-117077507D01*
X153608654Y-117077507D02*
X153722939Y-117077507D01*
X153722939Y-117077507D02*
X153799130Y-117039411D01*
X153799130Y-117039411D02*
X153837225Y-117001316D01*
X153837225Y-117001316D02*
X153875320Y-116925126D01*
X153875320Y-116925126D02*
X153875320Y-116620364D01*
X154256273Y-117420364D02*
X153456273Y-117420364D01*
X153456273Y-117420364D02*
X154256273Y-117877507D01*
X154256273Y-117877507D02*
X153456273Y-117877507D01*
X154027701Y-118220363D02*
X154027701Y-118601316D01*
X154256273Y-118144173D02*
X153456273Y-118410840D01*
X153456273Y-118410840D02*
X154256273Y-118677506D01*
X154256273Y-119325125D02*
X154256273Y-118944173D01*
X154256273Y-118944173D02*
X153456273Y-118944173D01*
X155544228Y-110372744D02*
X154744228Y-110372744D01*
X154744228Y-110372744D02*
X154744228Y-110677506D01*
X154744228Y-110677506D02*
X154782323Y-110753696D01*
X154782323Y-110753696D02*
X154820418Y-110791791D01*
X154820418Y-110791791D02*
X154896609Y-110829887D01*
X154896609Y-110829887D02*
X155010894Y-110829887D01*
X155010894Y-110829887D02*
X155087085Y-110791791D01*
X155087085Y-110791791D02*
X155125180Y-110753696D01*
X155125180Y-110753696D02*
X155163275Y-110677506D01*
X155163275Y-110677506D02*
X155163275Y-110372744D01*
X154744228Y-111325125D02*
X154744228Y-111477506D01*
X154744228Y-111477506D02*
X154782323Y-111553696D01*
X154782323Y-111553696D02*
X154858513Y-111629887D01*
X154858513Y-111629887D02*
X155010894Y-111667982D01*
X155010894Y-111667982D02*
X155277561Y-111667982D01*
X155277561Y-111667982D02*
X155429942Y-111629887D01*
X155429942Y-111629887D02*
X155506133Y-111553696D01*
X155506133Y-111553696D02*
X155544228Y-111477506D01*
X155544228Y-111477506D02*
X155544228Y-111325125D01*
X155544228Y-111325125D02*
X155506133Y-111248934D01*
X155506133Y-111248934D02*
X155429942Y-111172744D01*
X155429942Y-111172744D02*
X155277561Y-111134648D01*
X155277561Y-111134648D02*
X155010894Y-111134648D01*
X155010894Y-111134648D02*
X154858513Y-111172744D01*
X154858513Y-111172744D02*
X154782323Y-111248934D01*
X154782323Y-111248934D02*
X154744228Y-111325125D01*
X154744228Y-111934648D02*
X155544228Y-112125124D01*
X155544228Y-112125124D02*
X154972799Y-112277505D01*
X154972799Y-112277505D02*
X155544228Y-112429886D01*
X155544228Y-112429886D02*
X154744228Y-112620363D01*
X155125180Y-112925125D02*
X155125180Y-113191791D01*
X155544228Y-113306077D02*
X155544228Y-112925125D01*
X155544228Y-112925125D02*
X154744228Y-112925125D01*
X154744228Y-112925125D02*
X154744228Y-113306077D01*
X155544228Y-114106078D02*
X155163275Y-113839411D01*
X155544228Y-113648935D02*
X154744228Y-113648935D01*
X154744228Y-113648935D02*
X154744228Y-113953697D01*
X154744228Y-113953697D02*
X154782323Y-114029887D01*
X154782323Y-114029887D02*
X154820418Y-114067982D01*
X154820418Y-114067982D02*
X154896609Y-114106078D01*
X154896609Y-114106078D02*
X155010894Y-114106078D01*
X155010894Y-114106078D02*
X155087085Y-114067982D01*
X155087085Y-114067982D02*
X155125180Y-114029887D01*
X155125180Y-114029887D02*
X155163275Y-113953697D01*
X155163275Y-113953697D02*
X155163275Y-113648935D01*
X155506133Y-115020363D02*
X155544228Y-115134649D01*
X155544228Y-115134649D02*
X155544228Y-115325125D01*
X155544228Y-115325125D02*
X155506133Y-115401316D01*
X155506133Y-115401316D02*
X155468037Y-115439411D01*
X155468037Y-115439411D02*
X155391847Y-115477506D01*
X155391847Y-115477506D02*
X155315656Y-115477506D01*
X155315656Y-115477506D02*
X155239466Y-115439411D01*
X155239466Y-115439411D02*
X155201371Y-115401316D01*
X155201371Y-115401316D02*
X155163275Y-115325125D01*
X155163275Y-115325125D02*
X155125180Y-115172744D01*
X155125180Y-115172744D02*
X155087085Y-115096554D01*
X155087085Y-115096554D02*
X155048990Y-115058459D01*
X155048990Y-115058459D02*
X154972799Y-115020363D01*
X154972799Y-115020363D02*
X154896609Y-115020363D01*
X154896609Y-115020363D02*
X154820418Y-115058459D01*
X154820418Y-115058459D02*
X154782323Y-115096554D01*
X154782323Y-115096554D02*
X154744228Y-115172744D01*
X154744228Y-115172744D02*
X154744228Y-115363221D01*
X154744228Y-115363221D02*
X154782323Y-115477506D01*
X154744228Y-115820364D02*
X155391847Y-115820364D01*
X155391847Y-115820364D02*
X155468037Y-115858459D01*
X155468037Y-115858459D02*
X155506133Y-115896554D01*
X155506133Y-115896554D02*
X155544228Y-115972745D01*
X155544228Y-115972745D02*
X155544228Y-116125126D01*
X155544228Y-116125126D02*
X155506133Y-116201316D01*
X155506133Y-116201316D02*
X155468037Y-116239411D01*
X155468037Y-116239411D02*
X155391847Y-116277507D01*
X155391847Y-116277507D02*
X154744228Y-116277507D01*
X155544228Y-116658459D02*
X154744228Y-116658459D01*
X154744228Y-116658459D02*
X154744228Y-116963221D01*
X154744228Y-116963221D02*
X154782323Y-117039411D01*
X154782323Y-117039411D02*
X154820418Y-117077506D01*
X154820418Y-117077506D02*
X154896609Y-117115602D01*
X154896609Y-117115602D02*
X155010894Y-117115602D01*
X155010894Y-117115602D02*
X155087085Y-117077506D01*
X155087085Y-117077506D02*
X155125180Y-117039411D01*
X155125180Y-117039411D02*
X155163275Y-116963221D01*
X155163275Y-116963221D02*
X155163275Y-116658459D01*
X155544228Y-117458459D02*
X154744228Y-117458459D01*
X154744228Y-117458459D02*
X154744228Y-117763221D01*
X154744228Y-117763221D02*
X154782323Y-117839411D01*
X154782323Y-117839411D02*
X154820418Y-117877506D01*
X154820418Y-117877506D02*
X154896609Y-117915602D01*
X154896609Y-117915602D02*
X155010894Y-117915602D01*
X155010894Y-117915602D02*
X155087085Y-117877506D01*
X155087085Y-117877506D02*
X155125180Y-117839411D01*
X155125180Y-117839411D02*
X155163275Y-117763221D01*
X155163275Y-117763221D02*
X155163275Y-117458459D01*
X155544228Y-118639411D02*
X155544228Y-118258459D01*
X155544228Y-118258459D02*
X154744228Y-118258459D01*
X155163275Y-119058459D02*
X155544228Y-119058459D01*
X154744228Y-118791792D02*
X155163275Y-119058459D01*
X155163275Y-119058459D02*
X154744228Y-119325125D01*
D13*
X144590975Y-110694831D02*
X144590975Y-111294831D01*
X144590975Y-111294831D02*
X145590975Y-110909117D01*
X145210022Y-111637688D02*
X145210022Y-112323403D01*
X145590975Y-112751974D02*
X144590975Y-112751974D01*
X144590975Y-112751974D02*
X144590975Y-113094831D01*
X144590975Y-113094831D02*
X144638594Y-113180546D01*
X144638594Y-113180546D02*
X144686213Y-113223403D01*
X144686213Y-113223403D02*
X144781451Y-113266260D01*
X144781451Y-113266260D02*
X144924308Y-113266260D01*
X144924308Y-113266260D02*
X145019546Y-113223403D01*
X145019546Y-113223403D02*
X145067165Y-113180546D01*
X145067165Y-113180546D02*
X145114784Y-113094831D01*
X145114784Y-113094831D02*
X145114784Y-112751974D01*
X144590975Y-113823403D02*
X144590975Y-113994831D01*
X144590975Y-113994831D02*
X144638594Y-114080546D01*
X144638594Y-114080546D02*
X144733832Y-114166260D01*
X144733832Y-114166260D02*
X144924308Y-114209117D01*
X144924308Y-114209117D02*
X145257641Y-114209117D01*
X145257641Y-114209117D02*
X145448117Y-114166260D01*
X145448117Y-114166260D02*
X145543356Y-114080546D01*
X145543356Y-114080546D02*
X145590975Y-113994831D01*
X145590975Y-113994831D02*
X145590975Y-113823403D01*
X145590975Y-113823403D02*
X145543356Y-113737689D01*
X145543356Y-113737689D02*
X145448117Y-113651974D01*
X145448117Y-113651974D02*
X145257641Y-113609117D01*
X145257641Y-113609117D02*
X144924308Y-113609117D01*
X144924308Y-113609117D02*
X144733832Y-113651974D01*
X144733832Y-113651974D02*
X144638594Y-113737689D01*
X144638594Y-113737689D02*
X144590975Y-113823403D01*
X145590975Y-115109117D02*
X145114784Y-114809117D01*
X145590975Y-114594831D02*
X144590975Y-114594831D01*
X144590975Y-114594831D02*
X144590975Y-114937688D01*
X144590975Y-114937688D02*
X144638594Y-115023403D01*
X144638594Y-115023403D02*
X144686213Y-115066260D01*
X144686213Y-115066260D02*
X144781451Y-115109117D01*
X144781451Y-115109117D02*
X144924308Y-115109117D01*
X144924308Y-115109117D02*
X145019546Y-115066260D01*
X145019546Y-115066260D02*
X145067165Y-115023403D01*
X145067165Y-115023403D02*
X145114784Y-114937688D01*
X145114784Y-114937688D02*
X145114784Y-114594831D01*
X144590975Y-115366260D02*
X144590975Y-115880546D01*
X145590975Y-115623403D02*
X144590975Y-115623403D01*
X144590975Y-116866259D02*
X145400498Y-116866259D01*
X145400498Y-116866259D02*
X145495736Y-116909116D01*
X145495736Y-116909116D02*
X145543356Y-116951974D01*
X145543356Y-116951974D02*
X145590975Y-117037688D01*
X145590975Y-117037688D02*
X145590975Y-117209116D01*
X145590975Y-117209116D02*
X145543356Y-117294831D01*
X145543356Y-117294831D02*
X145495736Y-117337688D01*
X145495736Y-117337688D02*
X145400498Y-117380545D01*
X145400498Y-117380545D02*
X144590975Y-117380545D01*
X145543356Y-117766259D02*
X145590975Y-117894831D01*
X145590975Y-117894831D02*
X145590975Y-118109116D01*
X145590975Y-118109116D02*
X145543356Y-118194831D01*
X145543356Y-118194831D02*
X145495736Y-118237688D01*
X145495736Y-118237688D02*
X145400498Y-118280545D01*
X145400498Y-118280545D02*
X145305260Y-118280545D01*
X145305260Y-118280545D02*
X145210022Y-118237688D01*
X145210022Y-118237688D02*
X145162403Y-118194831D01*
X145162403Y-118194831D02*
X145114784Y-118109116D01*
X145114784Y-118109116D02*
X145067165Y-117937688D01*
X145067165Y-117937688D02*
X145019546Y-117851973D01*
X145019546Y-117851973D02*
X144971927Y-117809116D01*
X144971927Y-117809116D02*
X144876689Y-117766259D01*
X144876689Y-117766259D02*
X144781451Y-117766259D01*
X144781451Y-117766259D02*
X144686213Y-117809116D01*
X144686213Y-117809116D02*
X144638594Y-117851973D01*
X144638594Y-117851973D02*
X144590975Y-117937688D01*
X144590975Y-117937688D02*
X144590975Y-118151973D01*
X144590975Y-118151973D02*
X144638594Y-118280545D01*
X145067165Y-118966259D02*
X145114784Y-119094831D01*
X145114784Y-119094831D02*
X145162403Y-119137688D01*
X145162403Y-119137688D02*
X145257641Y-119180545D01*
X145257641Y-119180545D02*
X145400498Y-119180545D01*
X145400498Y-119180545D02*
X145495736Y-119137688D01*
X145495736Y-119137688D02*
X145543356Y-119094831D01*
X145543356Y-119094831D02*
X145590975Y-119009116D01*
X145590975Y-119009116D02*
X145590975Y-118666259D01*
X145590975Y-118666259D02*
X144590975Y-118666259D01*
X144590975Y-118666259D02*
X144590975Y-118966259D01*
X144590975Y-118966259D02*
X144638594Y-119051974D01*
X144638594Y-119051974D02*
X144686213Y-119094831D01*
X144686213Y-119094831D02*
X144781451Y-119137688D01*
X144781451Y-119137688D02*
X144876689Y-119137688D01*
X144876689Y-119137688D02*
X144971927Y-119094831D01*
X144971927Y-119094831D02*
X145019546Y-119051974D01*
X145019546Y-119051974D02*
X145067165Y-118966259D01*
X145067165Y-118966259D02*
X145067165Y-118666259D01*
X146296157Y-109109118D02*
X146248538Y-109151975D01*
X146248538Y-109151975D02*
X146200919Y-109237690D01*
X146200919Y-109237690D02*
X146200919Y-109451975D01*
X146200919Y-109451975D02*
X146248538Y-109537690D01*
X146248538Y-109537690D02*
X146296157Y-109580547D01*
X146296157Y-109580547D02*
X146391395Y-109623404D01*
X146391395Y-109623404D02*
X146486633Y-109623404D01*
X146486633Y-109623404D02*
X146629490Y-109580547D01*
X146629490Y-109580547D02*
X147200919Y-109066261D01*
X147200919Y-109066261D02*
X147200919Y-109623404D01*
X147105680Y-110009118D02*
X147153300Y-110051975D01*
X147153300Y-110051975D02*
X147200919Y-110009118D01*
X147200919Y-110009118D02*
X147153300Y-109966261D01*
X147153300Y-109966261D02*
X147105680Y-110009118D01*
X147105680Y-110009118D02*
X147200919Y-110009118D01*
X146200919Y-110609118D02*
X146200919Y-110694832D01*
X146200919Y-110694832D02*
X146248538Y-110780546D01*
X146248538Y-110780546D02*
X146296157Y-110823404D01*
X146296157Y-110823404D02*
X146391395Y-110866261D01*
X146391395Y-110866261D02*
X146581871Y-110909118D01*
X146581871Y-110909118D02*
X146819966Y-110909118D01*
X146819966Y-110909118D02*
X147010442Y-110866261D01*
X147010442Y-110866261D02*
X147105680Y-110823404D01*
X147105680Y-110823404D02*
X147153300Y-110780546D01*
X147153300Y-110780546D02*
X147200919Y-110694832D01*
X147200919Y-110694832D02*
X147200919Y-110609118D01*
X147200919Y-110609118D02*
X147153300Y-110523404D01*
X147153300Y-110523404D02*
X147105680Y-110480546D01*
X147105680Y-110480546D02*
X147010442Y-110437689D01*
X147010442Y-110437689D02*
X146819966Y-110394832D01*
X146819966Y-110394832D02*
X146581871Y-110394832D01*
X146581871Y-110394832D02*
X146391395Y-110437689D01*
X146391395Y-110437689D02*
X146296157Y-110480546D01*
X146296157Y-110480546D02*
X146248538Y-110523404D01*
X146248538Y-110523404D02*
X146200919Y-110609118D01*
X147200919Y-111980546D02*
X146200919Y-111980546D01*
X146677109Y-111980546D02*
X146677109Y-112494832D01*
X147200919Y-112494832D02*
X146200919Y-112494832D01*
X146200919Y-112923403D02*
X147010442Y-112923403D01*
X147010442Y-112923403D02*
X147105680Y-112966260D01*
X147105680Y-112966260D02*
X147153300Y-113009118D01*
X147153300Y-113009118D02*
X147200919Y-113094832D01*
X147200919Y-113094832D02*
X147200919Y-113266260D01*
X147200919Y-113266260D02*
X147153300Y-113351975D01*
X147153300Y-113351975D02*
X147105680Y-113394832D01*
X147105680Y-113394832D02*
X147010442Y-113437689D01*
X147010442Y-113437689D02*
X146200919Y-113437689D01*
X146677109Y-114166260D02*
X146724728Y-114294832D01*
X146724728Y-114294832D02*
X146772347Y-114337689D01*
X146772347Y-114337689D02*
X146867585Y-114380546D01*
X146867585Y-114380546D02*
X147010442Y-114380546D01*
X147010442Y-114380546D02*
X147105680Y-114337689D01*
X147105680Y-114337689D02*
X147153300Y-114294832D01*
X147153300Y-114294832D02*
X147200919Y-114209117D01*
X147200919Y-114209117D02*
X147200919Y-113866260D01*
X147200919Y-113866260D02*
X146200919Y-113866260D01*
X146200919Y-113866260D02*
X146200919Y-114166260D01*
X146200919Y-114166260D02*
X146248538Y-114251975D01*
X146248538Y-114251975D02*
X146296157Y-114294832D01*
X146296157Y-114294832D02*
X146391395Y-114337689D01*
X146391395Y-114337689D02*
X146486633Y-114337689D01*
X146486633Y-114337689D02*
X146581871Y-114294832D01*
X146581871Y-114294832D02*
X146629490Y-114251975D01*
X146629490Y-114251975D02*
X146677109Y-114166260D01*
X146677109Y-114166260D02*
X146677109Y-113866260D01*
X146534252Y-115366260D02*
X147200919Y-115580546D01*
X147200919Y-115580546D02*
X146534252Y-115794831D01*
X147200919Y-116609117D02*
X147200919Y-116094831D01*
X147200919Y-116351974D02*
X146200919Y-116351974D01*
X146200919Y-116351974D02*
X146343776Y-116266260D01*
X146343776Y-116266260D02*
X146439014Y-116180545D01*
X146439014Y-116180545D02*
X146486633Y-116094831D01*
X147105680Y-116994831D02*
X147153300Y-117037688D01*
X147153300Y-117037688D02*
X147200919Y-116994831D01*
X147200919Y-116994831D02*
X147153300Y-116951974D01*
X147153300Y-116951974D02*
X147105680Y-116994831D01*
X147105680Y-116994831D02*
X147200919Y-116994831D01*
X146534252Y-117809117D02*
X147200919Y-117809117D01*
X146153300Y-117594831D02*
X146867585Y-117380545D01*
X146867585Y-117380545D02*
X146867585Y-117937688D01*
X147105680Y-118280545D02*
X147153300Y-118323402D01*
X147153300Y-118323402D02*
X147200919Y-118280545D01*
X147200919Y-118280545D02*
X147153300Y-118237688D01*
X147153300Y-118237688D02*
X147105680Y-118280545D01*
X147105680Y-118280545D02*
X147200919Y-118280545D01*
X146200919Y-118880545D02*
X146200919Y-118966259D01*
X146200919Y-118966259D02*
X146248538Y-119051973D01*
X146248538Y-119051973D02*
X146296157Y-119094831D01*
X146296157Y-119094831D02*
X146391395Y-119137688D01*
X146391395Y-119137688D02*
X146581871Y-119180545D01*
X146581871Y-119180545D02*
X146819966Y-119180545D01*
X146819966Y-119180545D02*
X147010442Y-119137688D01*
X147010442Y-119137688D02*
X147105680Y-119094831D01*
X147105680Y-119094831D02*
X147153300Y-119051973D01*
X147153300Y-119051973D02*
X147200919Y-118966259D01*
X147200919Y-118966259D02*
X147200919Y-118880545D01*
X147200919Y-118880545D02*
X147153300Y-118794831D01*
X147153300Y-118794831D02*
X147105680Y-118751973D01*
X147105680Y-118751973D02*
X147010442Y-118709116D01*
X147010442Y-118709116D02*
X146819966Y-118666259D01*
X146819966Y-118666259D02*
X146581871Y-118666259D01*
X146581871Y-118666259D02*
X146391395Y-118709116D01*
X146391395Y-118709116D02*
X146296157Y-118751973D01*
X146296157Y-118751973D02*
X146248538Y-118794831D01*
X146248538Y-118794831D02*
X146200919Y-118880545D01*
X148810863Y-112323401D02*
X148144196Y-112323401D01*
X148334672Y-112323401D02*
X148239434Y-112366258D01*
X148239434Y-112366258D02*
X148191815Y-112409116D01*
X148191815Y-112409116D02*
X148144196Y-112494830D01*
X148144196Y-112494830D02*
X148144196Y-112580544D01*
X148810863Y-112880544D02*
X147810863Y-112880544D01*
X148191815Y-112880544D02*
X148144196Y-112966259D01*
X148144196Y-112966259D02*
X148144196Y-113137687D01*
X148144196Y-113137687D02*
X148191815Y-113223401D01*
X148191815Y-113223401D02*
X148239434Y-113266259D01*
X148239434Y-113266259D02*
X148334672Y-113309116D01*
X148334672Y-113309116D02*
X148620386Y-113309116D01*
X148620386Y-113309116D02*
X148715624Y-113266259D01*
X148715624Y-113266259D02*
X148763244Y-113223401D01*
X148763244Y-113223401D02*
X148810863Y-113137687D01*
X148810863Y-113137687D02*
X148810863Y-112966259D01*
X148810863Y-112966259D02*
X148763244Y-112880544D01*
X148144196Y-113566259D02*
X148144196Y-113909116D01*
X147810863Y-113694830D02*
X148668005Y-113694830D01*
X148668005Y-113694830D02*
X148763244Y-113737687D01*
X148763244Y-113737687D02*
X148810863Y-113823402D01*
X148810863Y-113823402D02*
X148810863Y-113909116D01*
X148763244Y-114166259D02*
X148810863Y-114251973D01*
X148810863Y-114251973D02*
X148810863Y-114423402D01*
X148810863Y-114423402D02*
X148763244Y-114509116D01*
X148763244Y-114509116D02*
X148668005Y-114551973D01*
X148668005Y-114551973D02*
X148620386Y-114551973D01*
X148620386Y-114551973D02*
X148525148Y-114509116D01*
X148525148Y-114509116D02*
X148477529Y-114423402D01*
X148477529Y-114423402D02*
X148477529Y-114294831D01*
X148477529Y-114294831D02*
X148429910Y-114209116D01*
X148429910Y-114209116D02*
X148334672Y-114166259D01*
X148334672Y-114166259D02*
X148287053Y-114166259D01*
X148287053Y-114166259D02*
X148191815Y-114209116D01*
X148191815Y-114209116D02*
X148144196Y-114294831D01*
X148144196Y-114294831D02*
X148144196Y-114423402D01*
X148144196Y-114423402D02*
X148191815Y-114509116D01*
X148715624Y-114937687D02*
X148763244Y-114980544D01*
X148763244Y-114980544D02*
X148810863Y-114937687D01*
X148810863Y-114937687D02*
X148763244Y-114894830D01*
X148763244Y-114894830D02*
X148715624Y-114937687D01*
X148715624Y-114937687D02*
X148810863Y-114937687D01*
X148763244Y-115751973D02*
X148810863Y-115666258D01*
X148810863Y-115666258D02*
X148810863Y-115494830D01*
X148810863Y-115494830D02*
X148763244Y-115409115D01*
X148763244Y-115409115D02*
X148715624Y-115366258D01*
X148715624Y-115366258D02*
X148620386Y-115323401D01*
X148620386Y-115323401D02*
X148334672Y-115323401D01*
X148334672Y-115323401D02*
X148239434Y-115366258D01*
X148239434Y-115366258D02*
X148191815Y-115409115D01*
X148191815Y-115409115D02*
X148144196Y-115494830D01*
X148144196Y-115494830D02*
X148144196Y-115666258D01*
X148144196Y-115666258D02*
X148191815Y-115751973D01*
X148810863Y-116266259D02*
X148763244Y-116180544D01*
X148763244Y-116180544D02*
X148715624Y-116137687D01*
X148715624Y-116137687D02*
X148620386Y-116094830D01*
X148620386Y-116094830D02*
X148334672Y-116094830D01*
X148334672Y-116094830D02*
X148239434Y-116137687D01*
X148239434Y-116137687D02*
X148191815Y-116180544D01*
X148191815Y-116180544D02*
X148144196Y-116266259D01*
X148144196Y-116266259D02*
X148144196Y-116394830D01*
X148144196Y-116394830D02*
X148191815Y-116480544D01*
X148191815Y-116480544D02*
X148239434Y-116523402D01*
X148239434Y-116523402D02*
X148334672Y-116566259D01*
X148334672Y-116566259D02*
X148620386Y-116566259D01*
X148620386Y-116566259D02*
X148715624Y-116523402D01*
X148715624Y-116523402D02*
X148763244Y-116480544D01*
X148763244Y-116480544D02*
X148810863Y-116394830D01*
X148810863Y-116394830D02*
X148810863Y-116266259D01*
X147763244Y-117594830D02*
X149048958Y-116823402D01*
X148810863Y-117894830D02*
X147810863Y-117894830D01*
X148810863Y-118280545D02*
X148287053Y-118280545D01*
X148287053Y-118280545D02*
X148191815Y-118237687D01*
X148191815Y-118237687D02*
X148144196Y-118151973D01*
X148144196Y-118151973D02*
X148144196Y-118023402D01*
X148144196Y-118023402D02*
X148191815Y-117937687D01*
X148191815Y-117937687D02*
X148239434Y-117894830D01*
X148810863Y-119180545D02*
X148810863Y-118666259D01*
X148810863Y-118923402D02*
X147810863Y-118923402D01*
X147810863Y-118923402D02*
X147953720Y-118837688D01*
X147953720Y-118837688D02*
X148048958Y-118751973D01*
X148048958Y-118751973D02*
X148096577Y-118666259D01*
D11*
%TO.C,C36*%
G36*
X151339860Y-87794885D02*
G01*
X150844885Y-88289860D01*
X150738819Y-88183794D01*
X151233794Y-87688819D01*
X151339860Y-87794885D01*
G37*
G36*
X152046967Y-88501992D02*
G01*
X151551992Y-88996967D01*
X151445926Y-88890901D01*
X151940901Y-88395926D01*
X152046967Y-88501992D01*
G37*
G36*
X151534314Y-88555025D02*
G01*
X151428253Y-88661087D01*
X151304505Y-88537347D01*
X151216116Y-88625736D01*
X151110055Y-88519674D01*
X151198443Y-88431286D01*
X151074695Y-88307538D01*
X151180761Y-88201472D01*
X151534314Y-88555025D01*
G37*
G36*
X151481281Y-88148439D02*
G01*
X151569670Y-88060050D01*
X151675736Y-88166116D01*
X151587347Y-88254505D01*
X151711091Y-88378248D01*
X151605025Y-88484314D01*
X151251472Y-88130761D01*
X151357538Y-88024695D01*
X151481281Y-88148439D01*
G37*
%TO.C,R7*%
G36*
X153335965Y-91989593D02*
G01*
X153017767Y-92307791D01*
X152929378Y-92219402D01*
X153247576Y-91901204D01*
X153335965Y-91989593D01*
G37*
G36*
X153813262Y-92466890D02*
G01*
X153495064Y-92785088D01*
X153406675Y-92696699D01*
X153724873Y-92378501D01*
X153813262Y-92466890D01*
G37*
G36*
X153618807Y-92307791D02*
G01*
X153442031Y-92307791D01*
X153442031Y-92519923D01*
X153265254Y-92519923D01*
X153123833Y-92378501D01*
X153300609Y-92378501D01*
X153300609Y-92166369D01*
X153477386Y-92166369D01*
X153618807Y-92307791D01*
G37*
%TO.C,C32*%
G36*
X142225000Y-104950000D02*
G01*
X142075000Y-104950000D01*
X142075000Y-104250000D01*
X142225000Y-104250000D01*
X142225000Y-104950000D01*
G37*
G36*
X143225000Y-104950000D02*
G01*
X143075000Y-104950000D01*
X143075000Y-104250000D01*
X143225000Y-104250000D01*
X143225000Y-104950000D01*
G37*
G36*
X142900000Y-104799994D02*
G01*
X142725000Y-104800000D01*
X142725000Y-104925000D01*
X142575006Y-104925000D01*
X142575006Y-104800000D01*
X142400000Y-104800000D01*
X142400000Y-104650000D01*
X142900000Y-104650000D01*
X142900000Y-104799994D01*
G37*
G36*
X142725000Y-104400000D02*
G01*
X142900000Y-104400000D01*
X142900000Y-104550000D01*
X142400000Y-104550000D01*
X142400000Y-104400000D01*
X142575000Y-104400000D01*
X142575000Y-104275000D01*
X142725000Y-104275000D01*
X142725000Y-104400000D01*
G37*
D14*
%TO.C,D23*%
X145850000Y-106550000D02*
X145950000Y-106450000D01*
X145850000Y-107400000D02*
X145850000Y-106550000D01*
X145950000Y-106450000D02*
X146550000Y-106450000D01*
X146550000Y-106450000D02*
X146650000Y-106550000D01*
X146650000Y-106550000D02*
X146650000Y-107400000D01*
D11*
%TO.C,C37*%
G36*
X150632753Y-87087778D02*
G01*
X150137778Y-87582753D01*
X150031712Y-87476687D01*
X150526687Y-86981712D01*
X150632753Y-87087778D01*
G37*
G36*
X151339860Y-87794885D02*
G01*
X150844885Y-88289860D01*
X150738819Y-88183794D01*
X151233794Y-87688819D01*
X151339860Y-87794885D01*
G37*
G36*
X150827207Y-87847918D02*
G01*
X150721146Y-87953980D01*
X150597398Y-87830240D01*
X150509009Y-87918629D01*
X150402948Y-87812567D01*
X150491336Y-87724179D01*
X150367588Y-87600431D01*
X150473654Y-87494365D01*
X150827207Y-87847918D01*
G37*
G36*
X150774174Y-87441332D02*
G01*
X150862563Y-87352943D01*
X150968629Y-87459009D01*
X150880240Y-87547398D01*
X151003984Y-87671141D01*
X150897918Y-87777207D01*
X150544365Y-87423654D01*
X150650431Y-87317588D01*
X150774174Y-87441332D01*
G37*
%TO.C,C11*%
G36*
X154926955Y-93580583D02*
G01*
X154608757Y-93898781D01*
X154502691Y-93792715D01*
X154820889Y-93474517D01*
X154926955Y-93580583D01*
G37*
G36*
X155421929Y-94075557D02*
G01*
X155103731Y-94393755D01*
X154997665Y-94287689D01*
X155315863Y-93969491D01*
X155421929Y-94075557D01*
G37*
G36*
X155050697Y-94057878D02*
G01*
X154962310Y-94146268D01*
X154909277Y-94093235D01*
X154873922Y-94128590D01*
X154767856Y-94022524D01*
X154803211Y-93987169D01*
X154750178Y-93934136D01*
X154838565Y-93845749D01*
X155050697Y-94057878D01*
G37*
G36*
X155015343Y-93775037D02*
G01*
X155050698Y-93739682D01*
X155156764Y-93845748D01*
X155121409Y-93881103D01*
X155174442Y-93934136D01*
X155086054Y-94022524D01*
X154873922Y-93810392D01*
X154962310Y-93722004D01*
X155015343Y-93775037D01*
G37*
%TO.C,R13*%
G36*
X147855887Y-93227029D02*
G01*
X147767498Y-93315418D01*
X147449300Y-92997220D01*
X147537689Y-92908831D01*
X147855887Y-93227029D01*
G37*
G36*
X148333184Y-92749732D02*
G01*
X148244795Y-92838121D01*
X147926597Y-92519923D01*
X148014986Y-92431534D01*
X148333184Y-92749732D01*
G37*
G36*
X147855887Y-92802765D02*
G01*
X148068019Y-92802765D01*
X148068019Y-92979542D01*
X147926597Y-93120963D01*
X147926597Y-92944187D01*
X147714465Y-92944187D01*
X147714465Y-92767410D01*
X147855887Y-92625989D01*
X147855887Y-92802765D01*
G37*
D10*
%TO.C,U2*%
X153468109Y-105726256D02*
G75*
G02*
X153468109Y-105620190I53033J53033D01*
G01*
X154670190Y-104418109D02*
G75*
G02*
X154776256Y-104418109I53033J-53033D01*
G01*
X155129810Y-107281891D02*
G75*
G02*
X155023744Y-107281891I-53033J53033D01*
G01*
X156331891Y-105973744D02*
G75*
G02*
X156331891Y-106079810I-53033J-53033D01*
G01*
D11*
G36*
X155324264Y-104860051D02*
G01*
X155112132Y-104930761D01*
X155182843Y-104718629D01*
X155324264Y-104860051D01*
G37*
G36*
X154935355Y-104471142D02*
G01*
X154829289Y-104577208D01*
X154723223Y-104471142D01*
X153521142Y-105673223D01*
X153627208Y-105779289D01*
X153521142Y-105885355D01*
X153415076Y-105779289D01*
X153415076Y-105567157D01*
X154617157Y-104365076D01*
X154829289Y-104365076D01*
X154935355Y-104471142D01*
G37*
G36*
X156384924Y-105920711D02*
G01*
X156384924Y-106132843D01*
X155182843Y-107334924D01*
X154970711Y-107334924D01*
X154864645Y-107228858D01*
X154970711Y-107122792D01*
X155076777Y-107228858D01*
X156278858Y-106026777D01*
X156172792Y-105920711D01*
X156278858Y-105814645D01*
X156384924Y-105920711D01*
G37*
%TO.C,R4*%
G36*
X147325557Y-93757359D02*
G01*
X147237168Y-93845748D01*
X146918970Y-93527550D01*
X147007359Y-93439161D01*
X147325557Y-93757359D01*
G37*
G36*
X147802854Y-93280062D02*
G01*
X147714465Y-93368451D01*
X147396267Y-93050253D01*
X147484656Y-92961864D01*
X147802854Y-93280062D01*
G37*
G36*
X147325557Y-93333095D02*
G01*
X147537689Y-93333095D01*
X147537689Y-93509872D01*
X147396267Y-93651293D01*
X147396267Y-93474517D01*
X147184135Y-93474517D01*
X147184135Y-93297740D01*
X147325557Y-93156319D01*
X147325557Y-93333095D01*
G37*
%TO.C,C8*%
G36*
X155714645Y-101246447D02*
G01*
X155396447Y-101564645D01*
X155290381Y-101458579D01*
X155608579Y-101140381D01*
X155714645Y-101246447D01*
G37*
G36*
X156209619Y-101741421D02*
G01*
X155891421Y-102059619D01*
X155785355Y-101953553D01*
X156103553Y-101635355D01*
X156209619Y-101741421D01*
G37*
G36*
X155838387Y-101723742D02*
G01*
X155750000Y-101812132D01*
X155696967Y-101759099D01*
X155661612Y-101794454D01*
X155555546Y-101688388D01*
X155590901Y-101653033D01*
X155537868Y-101600000D01*
X155626255Y-101511613D01*
X155838387Y-101723742D01*
G37*
G36*
X155803033Y-101440901D02*
G01*
X155838388Y-101405546D01*
X155944454Y-101511612D01*
X155909099Y-101546967D01*
X155962132Y-101600000D01*
X155873744Y-101688388D01*
X155661612Y-101476256D01*
X155750000Y-101387868D01*
X155803033Y-101440901D01*
G37*
%TO.C,R11*%
G36*
X148916547Y-92166369D02*
G01*
X148828158Y-92254758D01*
X148509960Y-91936560D01*
X148598349Y-91848171D01*
X148916547Y-92166369D01*
G37*
G36*
X149393844Y-91689072D02*
G01*
X149305455Y-91777461D01*
X148987257Y-91459263D01*
X149075646Y-91370874D01*
X149393844Y-91689072D01*
G37*
G36*
X148916547Y-91742105D02*
G01*
X149128679Y-91742105D01*
X149128679Y-91918882D01*
X148987257Y-92060303D01*
X148987257Y-91883527D01*
X148775125Y-91883527D01*
X148775125Y-91706750D01*
X148916547Y-91565329D01*
X148916547Y-91742105D01*
G37*
%TO.C,C6*%
G36*
X146014645Y-102196447D02*
G01*
X145696447Y-102514645D01*
X145590381Y-102408579D01*
X145908579Y-102090381D01*
X146014645Y-102196447D01*
G37*
G36*
X146509619Y-102691421D02*
G01*
X146191421Y-103009619D01*
X146085355Y-102903553D01*
X146403553Y-102585355D01*
X146509619Y-102691421D01*
G37*
G36*
X146138388Y-102673744D02*
G01*
X146050000Y-102762132D01*
X145996967Y-102709099D01*
X145961612Y-102744454D01*
X145855546Y-102638388D01*
X145890901Y-102603033D01*
X145837868Y-102550000D01*
X145926256Y-102461612D01*
X146138388Y-102673744D01*
G37*
G36*
X146103033Y-102390901D02*
G01*
X146138388Y-102355546D01*
X146244454Y-102461612D01*
X146209099Y-102496967D01*
X146262132Y-102550000D01*
X146173745Y-102638387D01*
X145961613Y-102426258D01*
X146050000Y-102337868D01*
X146103033Y-102390901D01*
G37*
%TO.C,C2*%
G36*
X144143577Y-96939340D02*
G01*
X144037511Y-97045406D01*
X143719313Y-96727208D01*
X143825379Y-96621142D01*
X144143577Y-96939340D01*
G37*
G36*
X144638551Y-96444366D02*
G01*
X144532485Y-96550432D01*
X144214287Y-96232234D01*
X144320353Y-96126168D01*
X144638551Y-96444366D01*
G37*
G36*
X144267320Y-96462043D02*
G01*
X144055188Y-96674175D01*
X143966800Y-96585787D01*
X144019833Y-96532754D01*
X143984478Y-96497399D01*
X144090544Y-96391333D01*
X144125899Y-96426688D01*
X144178932Y-96373655D01*
X144267320Y-96462043D01*
G37*
G36*
X144391064Y-96585787D02*
G01*
X144338031Y-96638820D01*
X144373386Y-96674175D01*
X144267320Y-96780241D01*
X144231965Y-96744886D01*
X144178932Y-96797919D01*
X144090545Y-96709532D01*
X144302674Y-96497400D01*
X144391064Y-96585787D01*
G37*
%TO.C,R6*%
G36*
X147764645Y-103946447D02*
G01*
X147446447Y-104264645D01*
X147358058Y-104176256D01*
X147676256Y-103858058D01*
X147764645Y-103946447D01*
G37*
G36*
X148241942Y-104423744D02*
G01*
X147923744Y-104741942D01*
X147835355Y-104653553D01*
X148153553Y-104335355D01*
X148241942Y-104423744D01*
G37*
G36*
X148047487Y-104264645D02*
G01*
X147870711Y-104264645D01*
X147870711Y-104476777D01*
X147693934Y-104476777D01*
X147552513Y-104335355D01*
X147729289Y-104335355D01*
X147729289Y-104123223D01*
X147906066Y-104123223D01*
X148047487Y-104264645D01*
G37*
%TO.C,C4*%
G36*
X148764645Y-104946447D02*
G01*
X148446447Y-105264645D01*
X148340381Y-105158579D01*
X148658579Y-104840381D01*
X148764645Y-104946447D01*
G37*
G36*
X149259619Y-105441421D02*
G01*
X148941421Y-105759619D01*
X148835355Y-105653553D01*
X149153553Y-105335355D01*
X149259619Y-105441421D01*
G37*
G36*
X148888388Y-105423744D02*
G01*
X148800000Y-105512132D01*
X148746967Y-105459099D01*
X148711612Y-105494454D01*
X148605546Y-105388388D01*
X148640901Y-105353033D01*
X148587868Y-105300000D01*
X148676256Y-105211612D01*
X148888388Y-105423744D01*
G37*
G36*
X148853033Y-105140901D02*
G01*
X148888388Y-105105546D01*
X148994454Y-105211612D01*
X148959099Y-105246967D01*
X149012132Y-105300000D01*
X148923745Y-105388387D01*
X148711613Y-105176258D01*
X148800000Y-105087868D01*
X148853033Y-105140901D01*
G37*
D10*
%TO.C,D24*%
X155500000Y-102425000D02*
G75*
G02*
X155575000Y-102350000I75000J0D01*
G01*
X156225000Y-102350000D02*
G75*
G02*
X156300000Y-102425000I0J-75000D01*
G01*
D11*
G36*
X156375000Y-102425000D02*
G01*
X156375000Y-103325000D01*
X156250000Y-103325000D01*
X156225000Y-103300000D01*
X156225000Y-102425000D01*
X155575000Y-102425000D01*
X155575000Y-103300000D01*
X155550000Y-103325000D01*
X155425000Y-103325000D01*
X155425000Y-102425000D01*
X155575000Y-102275000D01*
X156225000Y-102275000D01*
X156375000Y-102425000D01*
G37*
D10*
%TO.C,D25*%
X148389860Y-87950520D02*
G75*
G02*
X148389860Y-87844454I53033J53033D01*
G01*
X148955546Y-88410140D02*
G75*
G02*
X148849480Y-88410140I-53033J53033D01*
G01*
D11*
G36*
X149061612Y-87243414D02*
G01*
X149061612Y-87278769D01*
X148442893Y-87897487D01*
X148902513Y-88357107D01*
X149521231Y-87738388D01*
X149556586Y-87738388D01*
X149644975Y-87826777D01*
X149008579Y-88463173D01*
X148796447Y-88463173D01*
X148336827Y-88003553D01*
X148336827Y-87791421D01*
X148973223Y-87155025D01*
X149061612Y-87243414D01*
G37*
%TO.C,R10*%
G36*
X155457285Y-94110913D02*
G01*
X155139087Y-94429111D01*
X155050698Y-94340722D01*
X155368896Y-94022524D01*
X155457285Y-94110913D01*
G37*
G36*
X155934582Y-94588210D02*
G01*
X155616384Y-94906408D01*
X155527995Y-94818019D01*
X155846193Y-94499821D01*
X155934582Y-94588210D01*
G37*
G36*
X155740127Y-94429111D02*
G01*
X155563351Y-94429111D01*
X155563351Y-94641243D01*
X155386574Y-94641243D01*
X155245153Y-94499821D01*
X155421929Y-94499821D01*
X155421929Y-94287689D01*
X155598706Y-94287689D01*
X155740127Y-94429111D01*
G37*
%TO.C,R2*%
G36*
X144673907Y-96409009D02*
G01*
X144585518Y-96497398D01*
X144267320Y-96179200D01*
X144355709Y-96090811D01*
X144673907Y-96409009D01*
G37*
G36*
X145151204Y-95931712D02*
G01*
X145062815Y-96020101D01*
X144744617Y-95701903D01*
X144833006Y-95613514D01*
X145151204Y-95931712D01*
G37*
G36*
X144673907Y-95984745D02*
G01*
X144886039Y-95984745D01*
X144886039Y-96161522D01*
X144744617Y-96302943D01*
X144744617Y-96126167D01*
X144532485Y-96126167D01*
X144532485Y-95949390D01*
X144673907Y-95807969D01*
X144673907Y-95984745D01*
G37*
%TO.C,R8*%
G36*
X153866295Y-92519923D02*
G01*
X153548097Y-92838121D01*
X153459708Y-92749732D01*
X153777906Y-92431534D01*
X153866295Y-92519923D01*
G37*
G36*
X154343592Y-92997220D02*
G01*
X154025394Y-93315418D01*
X153937005Y-93227029D01*
X154255203Y-92908831D01*
X154343592Y-92997220D01*
G37*
G36*
X154149137Y-92838121D02*
G01*
X153972361Y-92838121D01*
X153972361Y-93050253D01*
X153795584Y-93050253D01*
X153654163Y-92908831D01*
X153830939Y-92908831D01*
X153830939Y-92696699D01*
X154007716Y-92696699D01*
X154149137Y-92838121D01*
G37*
%TO.C,C28*%
G36*
X152725000Y-107475000D02*
G01*
X152275000Y-107475000D01*
X152275000Y-107325000D01*
X152725000Y-107325000D01*
X152725000Y-107475000D01*
G37*
G36*
X152725000Y-108175000D02*
G01*
X152275000Y-108175000D01*
X152275000Y-108025000D01*
X152725000Y-108025000D01*
X152725000Y-108175000D01*
G37*
G36*
X152475000Y-107900000D02*
G01*
X152350000Y-107900000D01*
X152350000Y-107825000D01*
X152300000Y-107825000D01*
X152300000Y-107675000D01*
X152350000Y-107675000D01*
X152350000Y-107600000D01*
X152475000Y-107600000D01*
X152475000Y-107900000D01*
G37*
G36*
X152650000Y-107675000D02*
G01*
X152700000Y-107675000D01*
X152700000Y-107825000D01*
X152650000Y-107825000D01*
X152650000Y-107900000D01*
X152525002Y-107900000D01*
X152525000Y-107600002D01*
X152650000Y-107600000D01*
X152650000Y-107675000D01*
G37*
%TO.C,C3*%
G36*
X156517945Y-95171573D02*
G01*
X156199747Y-95489771D01*
X156093681Y-95383705D01*
X156411879Y-95065507D01*
X156517945Y-95171573D01*
G37*
G36*
X157012919Y-95666547D02*
G01*
X156694721Y-95984745D01*
X156588655Y-95878679D01*
X156906853Y-95560481D01*
X157012919Y-95666547D01*
G37*
G36*
X156641687Y-95648868D02*
G01*
X156553300Y-95737258D01*
X156500267Y-95684225D01*
X156464912Y-95719580D01*
X156358846Y-95613514D01*
X156394201Y-95578159D01*
X156341168Y-95525126D01*
X156429555Y-95436739D01*
X156641687Y-95648868D01*
G37*
G36*
X156606333Y-95366027D02*
G01*
X156641688Y-95330672D01*
X156747754Y-95436738D01*
X156712399Y-95472093D01*
X156765432Y-95525126D01*
X156677044Y-95613514D01*
X156464912Y-95401382D01*
X156553300Y-95312994D01*
X156606333Y-95366027D01*
G37*
%TO.C,C5*%
G36*
X148264645Y-104446447D02*
G01*
X147946447Y-104764645D01*
X147840381Y-104658579D01*
X148158579Y-104340381D01*
X148264645Y-104446447D01*
G37*
G36*
X148759619Y-104941421D02*
G01*
X148441421Y-105259619D01*
X148335355Y-105153553D01*
X148653553Y-104835355D01*
X148759619Y-104941421D01*
G37*
G36*
X148388388Y-104923744D02*
G01*
X148300000Y-105012132D01*
X148246967Y-104959099D01*
X148211612Y-104994454D01*
X148105546Y-104888388D01*
X148140901Y-104853033D01*
X148087868Y-104800000D01*
X148176256Y-104711612D01*
X148388388Y-104923744D01*
G37*
G36*
X148353033Y-104640901D02*
G01*
X148388388Y-104605546D01*
X148494454Y-104711612D01*
X148459099Y-104746967D01*
X148512132Y-104800000D01*
X148423745Y-104888387D01*
X148211613Y-104676258D01*
X148300000Y-104587868D01*
X148353033Y-104640901D01*
G37*
%TO.C,C22*%
G36*
X153696967Y-107548008D02*
G01*
X153590901Y-107654074D01*
X153095926Y-107159099D01*
X153201992Y-107053033D01*
X153696967Y-107548008D01*
G37*
G36*
X154404074Y-106840901D02*
G01*
X154298008Y-106946967D01*
X153803033Y-106451992D01*
X153909099Y-106345926D01*
X154404074Y-106840901D01*
G37*
G36*
X153891421Y-106787868D02*
G01*
X153537868Y-107141421D01*
X153431802Y-107035355D01*
X153555546Y-106911612D01*
X153467157Y-106823223D01*
X153573223Y-106717157D01*
X153661612Y-106805546D01*
X153785355Y-106681802D01*
X153891421Y-106787868D01*
G37*
G36*
X154068194Y-106964640D02*
G01*
X153944454Y-107088388D01*
X154032843Y-107176777D01*
X153926781Y-107282838D01*
X153838393Y-107194450D01*
X153714645Y-107318198D01*
X153608579Y-107212132D01*
X153962132Y-106858579D01*
X154068194Y-106964640D01*
G37*
%TO.C,C26*%
G36*
X151146967Y-90801992D02*
G01*
X150651992Y-91296967D01*
X150545926Y-91190901D01*
X151040901Y-90695926D01*
X151146967Y-90801992D01*
G37*
G36*
X151854074Y-91509099D02*
G01*
X151359099Y-92004074D01*
X151253033Y-91898008D01*
X151748008Y-91403033D01*
X151854074Y-91509099D01*
G37*
G36*
X151341421Y-91562132D02*
G01*
X151235355Y-91668198D01*
X151111612Y-91544454D01*
X151023223Y-91632843D01*
X150917157Y-91526777D01*
X151005546Y-91438388D01*
X150881802Y-91314645D01*
X150987868Y-91208579D01*
X151341421Y-91562132D01*
G37*
G36*
X151288388Y-91155546D02*
G01*
X151376777Y-91067157D01*
X151482838Y-91173219D01*
X151394450Y-91261607D01*
X151518198Y-91385355D01*
X151412132Y-91491421D01*
X151058579Y-91137868D01*
X151164640Y-91031806D01*
X151288388Y-91155546D01*
G37*
%TO.C,C25*%
G36*
X150439860Y-90094885D02*
G01*
X149944885Y-90589860D01*
X149838819Y-90483794D01*
X150333794Y-89988819D01*
X150439860Y-90094885D01*
G37*
G36*
X151146967Y-90801992D02*
G01*
X150651992Y-91296967D01*
X150545926Y-91190901D01*
X151040901Y-90695926D01*
X151146967Y-90801992D01*
G37*
G36*
X150634314Y-90855025D02*
G01*
X150528248Y-90961091D01*
X150404505Y-90837347D01*
X150316116Y-90925736D01*
X150210050Y-90819670D01*
X150298439Y-90731281D01*
X150174695Y-90607538D01*
X150280761Y-90501472D01*
X150634314Y-90855025D01*
G37*
G36*
X150581281Y-90448439D02*
G01*
X150669670Y-90360050D01*
X150775731Y-90466112D01*
X150687343Y-90554500D01*
X150811091Y-90678248D01*
X150705025Y-90784314D01*
X150351472Y-90430761D01*
X150457533Y-90324699D01*
X150581281Y-90448439D01*
G37*
%TO.C,Y1*%
G36*
X153048097Y-105962490D02*
G01*
X152871320Y-106139267D01*
X152818287Y-105909457D01*
X153048097Y-105962490D01*
G37*
G36*
X150113604Y-106952440D02*
G01*
X150007538Y-107058506D01*
X149866116Y-106917084D01*
X149972182Y-106811018D01*
X150113604Y-106952440D01*
G37*
G36*
X150361091Y-105007896D02*
G01*
X150078248Y-105290739D01*
X149972182Y-105184673D01*
X150255025Y-104901830D01*
X150361091Y-105007896D01*
G37*
G36*
X152022792Y-106669597D02*
G01*
X151739949Y-106952440D01*
X151633883Y-106846374D01*
X151916726Y-106563531D01*
X152022792Y-106669597D01*
G37*
G36*
X152128858Y-104937186D02*
G01*
X152022792Y-105043252D01*
X151881370Y-104901830D01*
X151987436Y-104795764D01*
X152128858Y-104937186D01*
G37*
%TO.C,C34*%
G36*
X152754074Y-89209099D02*
G01*
X152259099Y-89704074D01*
X152153033Y-89598008D01*
X152648008Y-89103033D01*
X152754074Y-89209099D01*
G37*
G36*
X153461181Y-89916206D02*
G01*
X152966206Y-90411181D01*
X152860140Y-90305115D01*
X153355115Y-89810140D01*
X153461181Y-89916206D01*
G37*
G36*
X152948528Y-89969239D02*
G01*
X152842467Y-90075301D01*
X152718719Y-89951561D01*
X152630330Y-90039950D01*
X152524269Y-89933888D01*
X152612657Y-89845500D01*
X152488909Y-89721752D01*
X152594975Y-89615686D01*
X152948528Y-89969239D01*
G37*
G36*
X152895495Y-89562653D02*
G01*
X152983884Y-89474264D01*
X153089950Y-89580330D01*
X153001561Y-89668719D01*
X153125305Y-89792462D01*
X153019239Y-89898528D01*
X152665686Y-89544975D01*
X152771752Y-89438909D01*
X152895495Y-89562653D01*
G37*
%TO.C,C29*%
G36*
X143725000Y-107050000D02*
G01*
X143575000Y-107050000D01*
X143575000Y-106350000D01*
X143725000Y-106350000D01*
X143725000Y-107050000D01*
G37*
G36*
X144725000Y-107050000D02*
G01*
X144575000Y-107050000D01*
X144575000Y-106350000D01*
X144725000Y-106350000D01*
X144725000Y-107050000D01*
G37*
G36*
X144400000Y-106900000D02*
G01*
X144225000Y-106900000D01*
X144225000Y-107025000D01*
X144075000Y-107025000D01*
X144075000Y-106900000D01*
X143900000Y-106900000D01*
X143900000Y-106750000D01*
X144400000Y-106750000D01*
X144400000Y-106900000D01*
G37*
G36*
X144224994Y-106500000D02*
G01*
X144400000Y-106500000D01*
X144400000Y-106650000D01*
X143900000Y-106650000D01*
X143900000Y-106500006D01*
X144075000Y-106500000D01*
X144075000Y-106375000D01*
X144224994Y-106375000D01*
X144224994Y-106500000D01*
G37*
%TO.C,R12*%
G36*
X148386217Y-92696699D02*
G01*
X148297828Y-92785088D01*
X147979630Y-92466890D01*
X148068019Y-92378501D01*
X148386217Y-92696699D01*
G37*
G36*
X148863514Y-92219402D02*
G01*
X148775125Y-92307791D01*
X148456927Y-91989593D01*
X148545316Y-91901204D01*
X148863514Y-92219402D01*
G37*
G36*
X148386217Y-92272435D02*
G01*
X148598349Y-92272435D01*
X148598349Y-92449212D01*
X148456927Y-92590633D01*
X148456927Y-92413857D01*
X148244795Y-92413857D01*
X148244795Y-92237080D01*
X148386217Y-92095659D01*
X148386217Y-92272435D01*
G37*
D14*
%TO.C,D22*%
X146700000Y-106550000D02*
X146800000Y-106450000D01*
X146700000Y-107400000D02*
X146700000Y-106550000D01*
X146800000Y-106450000D02*
X147400000Y-106450000D01*
X147400000Y-106450000D02*
X147500000Y-106550000D01*
X147500000Y-106550000D02*
X147500000Y-107400000D01*
%TO.C,U1*%
X145644689Y-98750000D02*
X145962887Y-99068198D01*
X145962887Y-98431802D02*
X145644689Y-98750000D01*
X150431802Y-93962887D02*
X150750000Y-93644689D01*
X150750000Y-93644689D02*
X151068198Y-93962887D01*
X150750000Y-103855311D02*
X150431802Y-103537113D01*
X151068198Y-93962887D02*
X151980366Y-93050719D01*
X151068198Y-103537113D02*
X150750000Y-103855311D01*
X155537113Y-99068198D02*
X155855311Y-98750000D01*
X155855311Y-98750000D02*
X155537113Y-98431802D01*
D11*
%TO.C,JP1*%
G36*
X158050000Y-107900000D02*
G01*
X156550000Y-107900000D01*
X156550000Y-107750000D01*
X158050000Y-107750000D01*
X158050000Y-107900000D01*
G37*
%TO.C,R1*%
G36*
X145734567Y-95348349D02*
G01*
X145646178Y-95436738D01*
X145327980Y-95118540D01*
X145416369Y-95030151D01*
X145734567Y-95348349D01*
G37*
G36*
X146211864Y-94871052D02*
G01*
X146123475Y-94959441D01*
X145805277Y-94641243D01*
X145893666Y-94552854D01*
X146211864Y-94871052D01*
G37*
G36*
X145734567Y-94924085D02*
G01*
X145946699Y-94924085D01*
X145946699Y-95100862D01*
X145805277Y-95242283D01*
X145805277Y-95065507D01*
X145593145Y-95065507D01*
X145593145Y-94888730D01*
X145734567Y-94747309D01*
X145734567Y-94924085D01*
G37*
%TO.C,R9*%
G36*
X154396625Y-93050253D02*
G01*
X154078427Y-93368451D01*
X153990038Y-93280062D01*
X154308236Y-92961864D01*
X154396625Y-93050253D01*
G37*
G36*
X154873922Y-93527550D02*
G01*
X154555724Y-93845748D01*
X154467335Y-93757359D01*
X154785533Y-93439161D01*
X154873922Y-93527550D01*
G37*
G36*
X154679467Y-93368451D02*
G01*
X154502691Y-93368451D01*
X154502691Y-93580583D01*
X154325914Y-93580583D01*
X154184493Y-93439161D01*
X154361269Y-93439161D01*
X154361269Y-93227029D01*
X154538046Y-93227029D01*
X154679467Y-93368451D01*
G37*
%TO.C,C24*%
G36*
X149732752Y-89387778D02*
G01*
X149237777Y-89882753D01*
X149131711Y-89776687D01*
X149626686Y-89281712D01*
X149732752Y-89387778D01*
G37*
G36*
X150439859Y-90094885D02*
G01*
X149944884Y-90589860D01*
X149838818Y-90483794D01*
X150333793Y-89988819D01*
X150439859Y-90094885D01*
G37*
G36*
X149927206Y-90147918D02*
G01*
X149821140Y-90253984D01*
X149697397Y-90130240D01*
X149609008Y-90218629D01*
X149502942Y-90112563D01*
X149591331Y-90024174D01*
X149467587Y-89900431D01*
X149573653Y-89794365D01*
X149927206Y-90147918D01*
G37*
G36*
X149874173Y-89741332D02*
G01*
X149962562Y-89652943D01*
X150068623Y-89759005D01*
X149980235Y-89847393D01*
X150103983Y-89971141D01*
X149997917Y-90077207D01*
X149644364Y-89723654D01*
X149750425Y-89617592D01*
X149874173Y-89741332D01*
G37*
%TO.C,C35*%
G36*
X152046967Y-88501992D02*
G01*
X151551992Y-88996967D01*
X151445926Y-88890901D01*
X151940901Y-88395926D01*
X152046967Y-88501992D01*
G37*
G36*
X152754074Y-89209099D02*
G01*
X152259099Y-89704074D01*
X152153033Y-89598008D01*
X152648008Y-89103033D01*
X152754074Y-89209099D01*
G37*
G36*
X152241421Y-89262132D02*
G01*
X152135360Y-89368194D01*
X152011612Y-89244454D01*
X151923223Y-89332843D01*
X151817162Y-89226781D01*
X151905550Y-89138393D01*
X151781802Y-89014645D01*
X151887868Y-88908579D01*
X152241421Y-89262132D01*
G37*
G36*
X152188388Y-88855546D02*
G01*
X152276777Y-88767157D01*
X152382843Y-88873223D01*
X152294454Y-88961612D01*
X152418198Y-89085355D01*
X152312132Y-89191421D01*
X151958579Y-88837868D01*
X152064645Y-88731802D01*
X152188388Y-88855546D01*
G37*
%TO.C,C38*%
G36*
X155500000Y-80525000D02*
G01*
X155100000Y-80525000D01*
X155100000Y-80375000D01*
X155500000Y-80375000D01*
X155500000Y-80525000D01*
G37*
G36*
X157500000Y-84250000D02*
G01*
X157250000Y-84250000D01*
X157250000Y-80250000D01*
X157500000Y-80250000D01*
X157500000Y-84250000D01*
G37*
G36*
X154775000Y-80375000D02*
G01*
X154900000Y-80375000D01*
X154900000Y-80525000D01*
X154775000Y-80525000D01*
X154775000Y-80650000D01*
X154625000Y-80650000D01*
X154625000Y-80525000D01*
X154500000Y-80525000D01*
X154500000Y-80375000D01*
X154625000Y-80375000D01*
X154625000Y-80250000D01*
X154775000Y-80250000D01*
X154775000Y-80375000D01*
G37*
%TO.C,C7*%
G36*
X144527461Y-100694544D02*
G01*
X144209263Y-101012742D01*
X144103197Y-100906676D01*
X144421395Y-100588478D01*
X144527461Y-100694544D01*
G37*
G36*
X145022435Y-101189518D02*
G01*
X144704237Y-101507716D01*
X144598171Y-101401650D01*
X144916369Y-101083452D01*
X145022435Y-101189518D01*
G37*
G36*
X144651204Y-101171841D02*
G01*
X144562816Y-101260229D01*
X144509783Y-101207196D01*
X144474428Y-101242551D01*
X144368362Y-101136485D01*
X144403717Y-101101130D01*
X144350684Y-101048097D01*
X144439072Y-100959709D01*
X144651204Y-101171841D01*
G37*
G36*
X144615849Y-100888998D02*
G01*
X144651204Y-100853643D01*
X144757270Y-100959709D01*
X144721915Y-100995064D01*
X144774948Y-101048097D01*
X144686561Y-101136484D01*
X144474429Y-100924355D01*
X144562816Y-100835965D01*
X144615849Y-100888998D01*
G37*
%TO.C,C1*%
G36*
X155987615Y-94641243D02*
G01*
X155669417Y-94959441D01*
X155563351Y-94853375D01*
X155881549Y-94535177D01*
X155987615Y-94641243D01*
G37*
G36*
X156482589Y-95136217D02*
G01*
X156164391Y-95454415D01*
X156058325Y-95348349D01*
X156376523Y-95030151D01*
X156482589Y-95136217D01*
G37*
G36*
X156111357Y-95118538D02*
G01*
X156022970Y-95206928D01*
X155969937Y-95153895D01*
X155934582Y-95189250D01*
X155828516Y-95083184D01*
X155863871Y-95047829D01*
X155810838Y-94994796D01*
X155899225Y-94906409D01*
X156111357Y-95118538D01*
G37*
G36*
X156076003Y-94835697D02*
G01*
X156111358Y-94800342D01*
X156217424Y-94906408D01*
X156182069Y-94941763D01*
X156235102Y-94994796D01*
X156146714Y-95083184D01*
X155934582Y-94871052D01*
X156022970Y-94782664D01*
X156076003Y-94835697D01*
G37*
%TO.C,C9*%
G36*
X146264897Y-94818019D02*
G01*
X146158831Y-94924085D01*
X145840633Y-94605887D01*
X145946699Y-94499821D01*
X146264897Y-94818019D01*
G37*
G36*
X146759871Y-94323045D02*
G01*
X146653805Y-94429111D01*
X146335607Y-94110913D01*
X146441673Y-94004847D01*
X146759871Y-94323045D01*
G37*
G36*
X146388640Y-94340722D02*
G01*
X146176508Y-94552854D01*
X146088120Y-94464466D01*
X146141153Y-94411433D01*
X146105798Y-94376078D01*
X146211864Y-94270012D01*
X146247219Y-94305367D01*
X146300252Y-94252334D01*
X146388640Y-94340722D01*
G37*
G36*
X146512384Y-94464466D02*
G01*
X146459351Y-94517499D01*
X146494706Y-94552854D01*
X146388640Y-94658920D01*
X146353285Y-94623565D01*
X146300252Y-94676598D01*
X146211865Y-94588211D01*
X146423994Y-94376079D01*
X146512384Y-94464466D01*
G37*
%TO.C,C13*%
G36*
X147264645Y-103446447D02*
G01*
X146946447Y-103764645D01*
X146840381Y-103658579D01*
X147158579Y-103340381D01*
X147264645Y-103446447D01*
G37*
G36*
X147759619Y-103941421D02*
G01*
X147441421Y-104259619D01*
X147335355Y-104153553D01*
X147653553Y-103835355D01*
X147759619Y-103941421D01*
G37*
G36*
X147388388Y-103923744D02*
G01*
X147300000Y-104012132D01*
X147246967Y-103959099D01*
X147211612Y-103994454D01*
X147105546Y-103888388D01*
X147140901Y-103853033D01*
X147087868Y-103800000D01*
X147176256Y-103711612D01*
X147388388Y-103923744D01*
G37*
G36*
X147353033Y-103640901D02*
G01*
X147388388Y-103605546D01*
X147494454Y-103711612D01*
X147459099Y-103746967D01*
X147512132Y-103800000D01*
X147423745Y-103888387D01*
X147211613Y-103676258D01*
X147300000Y-103587868D01*
X147353033Y-103640901D01*
G37*
%TO.C,C10*%
G36*
X154603731Y-103699747D02*
G01*
X154497665Y-103805813D01*
X154179467Y-103487615D01*
X154285533Y-103381549D01*
X154603731Y-103699747D01*
G37*
G36*
X155098705Y-103204773D02*
G01*
X154992639Y-103310839D01*
X154674441Y-102992641D01*
X154780507Y-102886575D01*
X155098705Y-103204773D01*
G37*
G36*
X154727473Y-103222449D02*
G01*
X154515344Y-103434581D01*
X154426954Y-103346194D01*
X154479987Y-103293161D01*
X154444632Y-103257806D01*
X154550698Y-103151740D01*
X154586053Y-103187095D01*
X154639086Y-103134062D01*
X154727473Y-103222449D01*
G37*
G36*
X154851218Y-103346194D02*
G01*
X154798185Y-103399227D01*
X154833540Y-103434582D01*
X154727474Y-103540648D01*
X154692119Y-103505293D01*
X154639086Y-103558326D01*
X154550698Y-103469938D01*
X154762830Y-103257806D01*
X154851218Y-103346194D01*
G37*
%TO.C,C31*%
G36*
X142725000Y-107050000D02*
G01*
X142575000Y-107050000D01*
X142575000Y-106350000D01*
X142725000Y-106350000D01*
X142725000Y-107050000D01*
G37*
G36*
X143725000Y-107050000D02*
G01*
X143575000Y-107050000D01*
X143575000Y-106350000D01*
X143725000Y-106350000D01*
X143725000Y-107050000D01*
G37*
G36*
X143400000Y-106900000D02*
G01*
X143225000Y-106900000D01*
X143225000Y-107025000D01*
X143075000Y-107025000D01*
X143075000Y-106900000D01*
X142900000Y-106900000D01*
X142900000Y-106750000D01*
X143400000Y-106750000D01*
X143400000Y-106900000D01*
G37*
G36*
X143224994Y-106500000D02*
G01*
X143400000Y-106500000D01*
X143400000Y-106650000D01*
X142900000Y-106650000D01*
X142900000Y-106500006D01*
X143075000Y-106500000D01*
X143075000Y-106375000D01*
X143224994Y-106375000D01*
X143224994Y-106500000D01*
G37*
%TO.C,C12*%
G36*
X153275000Y-104575000D02*
G01*
X153125000Y-104575000D01*
X153125000Y-104125000D01*
X153275000Y-104125000D01*
X153275000Y-104575000D01*
G37*
G36*
X153975000Y-104575000D02*
G01*
X153825000Y-104575000D01*
X153825000Y-104125000D01*
X153975000Y-104125000D01*
X153975000Y-104575000D01*
G37*
G36*
X153700000Y-104500000D02*
G01*
X153625000Y-104500000D01*
X153625000Y-104550000D01*
X153475000Y-104550000D01*
X153475000Y-104500000D01*
X153400000Y-104500000D01*
X153400000Y-104375000D01*
X153700000Y-104375000D01*
X153700000Y-104500000D01*
G37*
G36*
X153625000Y-104200000D02*
G01*
X153700000Y-104200000D01*
X153700000Y-104324998D01*
X153400002Y-104325000D01*
X153400000Y-104200000D01*
X153475000Y-104200000D01*
X153475000Y-104150000D01*
X153625000Y-104150000D01*
X153625000Y-104200000D01*
G37*
%TO.C,R5*%
G36*
X146795227Y-94287689D02*
G01*
X146706838Y-94376078D01*
X146388640Y-94057880D01*
X146477029Y-93969491D01*
X146795227Y-94287689D01*
G37*
G36*
X147272524Y-93810392D02*
G01*
X147184135Y-93898781D01*
X146865937Y-93580583D01*
X146954326Y-93492194D01*
X147272524Y-93810392D01*
G37*
G36*
X146795227Y-93863425D02*
G01*
X147007359Y-93863425D01*
X147007359Y-94040202D01*
X146865937Y-94181623D01*
X146865937Y-94004847D01*
X146653805Y-94004847D01*
X146653805Y-93828070D01*
X146795227Y-93686649D01*
X146795227Y-93863425D01*
G37*
%TO.C,C33*%
G36*
X143225000Y-104950000D02*
G01*
X143075000Y-104950000D01*
X143075000Y-104250000D01*
X143225000Y-104250000D01*
X143225000Y-104950000D01*
G37*
G36*
X144225000Y-104950000D02*
G01*
X144075000Y-104950000D01*
X144075000Y-104250000D01*
X144225000Y-104250000D01*
X144225000Y-104950000D01*
G37*
G36*
X143900000Y-104799994D02*
G01*
X143725000Y-104800000D01*
X143725000Y-104925000D01*
X143575006Y-104925000D01*
X143575006Y-104800000D01*
X143400000Y-104800000D01*
X143400000Y-104650000D01*
X143900000Y-104650000D01*
X143900000Y-104799994D01*
G37*
G36*
X143725000Y-104400000D02*
G01*
X143900000Y-104400000D01*
X143900000Y-104550000D01*
X143400000Y-104550000D01*
X143400000Y-104400000D01*
X143575000Y-104400000D01*
X143575000Y-104275000D01*
X143725000Y-104275000D01*
X143725000Y-104400000D01*
G37*
%TO.C,C30*%
G36*
X144725000Y-107050000D02*
G01*
X144575000Y-107050000D01*
X144575000Y-106350000D01*
X144725000Y-106350000D01*
X144725000Y-107050000D01*
G37*
G36*
X145725000Y-107050000D02*
G01*
X145575000Y-107050000D01*
X145575000Y-106350000D01*
X145725000Y-106350000D01*
X145725000Y-107050000D01*
G37*
G36*
X145400000Y-106900000D02*
G01*
X145225000Y-106900000D01*
X145225000Y-107025000D01*
X145075000Y-107025000D01*
X145075000Y-106900000D01*
X144900000Y-106900000D01*
X144900000Y-106750000D01*
X145400000Y-106750000D01*
X145400000Y-106900000D01*
G37*
G36*
X145224994Y-106500000D02*
G01*
X145400000Y-106500000D01*
X145400000Y-106650000D01*
X144900000Y-106650000D01*
X144900000Y-106500006D01*
X145075000Y-106500000D01*
X145075000Y-106375000D01*
X145224994Y-106375000D01*
X145224994Y-106500000D01*
G37*
%TO.C,R3*%
G36*
X145204237Y-95878679D02*
G01*
X145115848Y-95967068D01*
X144797650Y-95648870D01*
X144886039Y-95560481D01*
X145204237Y-95878679D01*
G37*
G36*
X145681534Y-95401382D02*
G01*
X145593145Y-95489771D01*
X145274947Y-95171573D01*
X145363336Y-95083184D01*
X145681534Y-95401382D01*
G37*
G36*
X145204237Y-95454415D02*
G01*
X145416369Y-95454415D01*
X145416369Y-95631192D01*
X145274947Y-95772613D01*
X145274947Y-95595837D01*
X145062815Y-95595837D01*
X145062815Y-95419060D01*
X145204237Y-95277639D01*
X145204237Y-95454415D01*
G37*
%TO.C,C27*%
G36*
X151854073Y-91509099D02*
G01*
X151359098Y-92004074D01*
X151253032Y-91898008D01*
X151748007Y-91403033D01*
X151854073Y-91509099D01*
G37*
G36*
X152561180Y-92216206D02*
G01*
X152066205Y-92711181D01*
X151960139Y-92605115D01*
X152455114Y-92110140D01*
X152561180Y-92216206D01*
G37*
G36*
X152048527Y-92269239D02*
G01*
X151942461Y-92375305D01*
X151818718Y-92251561D01*
X151730329Y-92339950D01*
X151624263Y-92233884D01*
X151712652Y-92145495D01*
X151588908Y-92021752D01*
X151694974Y-91915686D01*
X152048527Y-92269239D01*
G37*
G36*
X151995494Y-91862653D02*
G01*
X152083883Y-91774264D01*
X152189944Y-91880326D01*
X152101556Y-91968714D01*
X152225304Y-92092462D01*
X152119238Y-92198528D01*
X151765685Y-91844975D01*
X151871746Y-91738913D01*
X151995494Y-91862653D01*
G37*
%TO.C,C23*%
G36*
X149025646Y-88680672D02*
G01*
X148530671Y-89175647D01*
X148424605Y-89069581D01*
X148919580Y-88574606D01*
X149025646Y-88680672D01*
G37*
G36*
X149732753Y-89387779D02*
G01*
X149237778Y-89882754D01*
X149131712Y-89776688D01*
X149626687Y-89281713D01*
X149732753Y-89387779D01*
G37*
G36*
X149220100Y-89440812D02*
G01*
X149114034Y-89546878D01*
X148990291Y-89423134D01*
X148901902Y-89511523D01*
X148795836Y-89405457D01*
X148884225Y-89317068D01*
X148760481Y-89193325D01*
X148866547Y-89087259D01*
X149220100Y-89440812D01*
G37*
G36*
X149167067Y-89034226D02*
G01*
X149255456Y-88945837D01*
X149361517Y-89051899D01*
X149273129Y-89140287D01*
X149396877Y-89264035D01*
X149290811Y-89370101D01*
X148937258Y-89016548D01*
X149043319Y-88910486D01*
X149167067Y-89034226D01*
G37*
%TO.C,C21*%
G36*
X156625000Y-102825000D02*
G01*
X156475000Y-102825000D01*
X156475000Y-102175000D01*
X156625000Y-102175000D01*
X156625000Y-102825000D01*
G37*
G36*
X158025000Y-102825000D02*
G01*
X157875000Y-102825000D01*
X157875000Y-102175000D01*
X158025000Y-102175000D01*
X158025000Y-102825000D01*
G37*
G36*
X157525000Y-102700000D02*
G01*
X157325000Y-102700000D01*
X157325000Y-102850000D01*
X157175000Y-102850000D01*
X157175000Y-102700000D01*
X156975000Y-102700000D01*
X156975000Y-102550000D01*
X157525000Y-102550000D01*
X157525000Y-102700000D01*
G37*
G36*
X157325000Y-102300002D02*
G01*
X157524998Y-102300000D01*
X157525000Y-102449998D01*
X156975000Y-102450000D01*
X156975000Y-102300002D01*
X157175000Y-102300002D01*
X157175000Y-102150000D01*
X157325000Y-102150000D01*
X157325000Y-102300002D01*
G37*
%TD*%
%LPC*%
D10*
X145735714Y-86037371D02*
X145707142Y-86008800D01*
X145707142Y-86008800D02*
X145621428Y-85980228D01*
X145621428Y-85980228D02*
X145564285Y-85980228D01*
X145564285Y-85980228D02*
X145478571Y-86008800D01*
X145478571Y-86008800D02*
X145421428Y-86065942D01*
X145421428Y-86065942D02*
X145392857Y-86123085D01*
X145392857Y-86123085D02*
X145364285Y-86237371D01*
X145364285Y-86237371D02*
X145364285Y-86323085D01*
X145364285Y-86323085D02*
X145392857Y-86437371D01*
X145392857Y-86437371D02*
X145421428Y-86494514D01*
X145421428Y-86494514D02*
X145478571Y-86551657D01*
X145478571Y-86551657D02*
X145564285Y-86580228D01*
X145564285Y-86580228D02*
X145621428Y-86580228D01*
X145621428Y-86580228D02*
X145707142Y-86551657D01*
X145707142Y-86551657D02*
X145735714Y-86523085D01*
X145185714Y-86037371D02*
X145157142Y-86008800D01*
X145157142Y-86008800D02*
X145071428Y-85980228D01*
X145071428Y-85980228D02*
X145014285Y-85980228D01*
X145014285Y-85980228D02*
X144928571Y-86008800D01*
X144928571Y-86008800D02*
X144871428Y-86065942D01*
X144871428Y-86065942D02*
X144842857Y-86123085D01*
X144842857Y-86123085D02*
X144814285Y-86237371D01*
X144814285Y-86237371D02*
X144814285Y-86323085D01*
X144814285Y-86323085D02*
X144842857Y-86437371D01*
X144842857Y-86437371D02*
X144871428Y-86494514D01*
X144871428Y-86494514D02*
X144928571Y-86551657D01*
X144928571Y-86551657D02*
X145014285Y-86580228D01*
X145014285Y-86580228D02*
X145071428Y-86580228D01*
X145071428Y-86580228D02*
X145157142Y-86551657D01*
X145157142Y-86551657D02*
X145185714Y-86523085D01*
%TO.C,LOGO2*%
X147500000Y-86250000D02*
G75*
G02*
X146000000Y-86250000I-750000J0D01*
G01*
X146000000Y-86250000D02*
G75*
G02*
X147500000Y-86250000I750000J0D01*
G01*
X146775000Y-86675000D02*
G75*
G02*
X146725000Y-86675000I-25000J0D01*
G01*
X146725000Y-86675000D02*
G75*
G02*
X146775000Y-86675000I25000J0D01*
G01*
D11*
G36*
X146850000Y-86075000D02*
G01*
X146950000Y-86075000D01*
X146950000Y-86475000D01*
X146900000Y-86525000D01*
X146600000Y-86525000D01*
X146550000Y-86475000D01*
X146550000Y-86075000D01*
X146650000Y-86075000D01*
X146650000Y-85725000D01*
X146850000Y-85725000D01*
X146850000Y-86075000D01*
G37*
D10*
%TO.C,LOGO1*%
X146000000Y-86250000D02*
G75*
G02*
X144500000Y-86250000I-750000J0D01*
G01*
X144500000Y-86250000D02*
G75*
G02*
X146000000Y-86250000I750000J0D01*
G01*
%TO.C,LOGO3*%
X144575000Y-85050000D02*
X145250000Y-84750000D01*
X145175000Y-84325000D02*
X145025000Y-84375000D01*
X145250000Y-84750000D02*
X145925000Y-84450000D01*
X145250000Y-85250000D02*
X145250000Y-84250000D01*
X145325000Y-85175000D02*
X145475000Y-85125000D01*
X145174836Y-84325072D02*
G75*
G02*
X145350000Y-84700000I83164J-189528D01*
G01*
X145325164Y-85174928D02*
G75*
G02*
X145150000Y-84800000I-83164J189528D01*
G01*
X146000000Y-84750000D02*
G75*
G02*
X144500000Y-84750000I-750000J0D01*
G01*
X144500000Y-84750000D02*
G75*
G02*
X146000000Y-84750000I750000J0D01*
G01*
%TO.C,LOGO4*%
X147100000Y-84600000D02*
X147100000Y-84900000D01*
X146400000Y-84600000D02*
G75*
G02*
X147100000Y-84600000I350000J0D01*
G01*
X147100000Y-84900000D02*
G75*
G02*
X146400000Y-84900000I-350000J0D01*
G01*
X147500000Y-84750000D02*
G75*
G02*
X146000000Y-84750000I-750000J0D01*
G01*
X146000000Y-84750000D02*
G75*
G02*
X147500000Y-84750000I750000J0D01*
G01*
D11*
G36*
X146550000Y-84950000D02*
G01*
X146250000Y-84950000D01*
X146400000Y-84725000D01*
X146550000Y-84950000D01*
G37*
G36*
X146475000Y-84675000D02*
G01*
X146325000Y-84675000D01*
X146325000Y-84600000D01*
X146475000Y-84600000D01*
X146475000Y-84675000D01*
G37*
%TO.C,JP1*%
G36*
X158050000Y-106249999D02*
G01*
X156550000Y-106250000D01*
X156550000Y-105550001D01*
X158050000Y-105550000D01*
X158050000Y-106249999D01*
G37*
%TD*%
D15*
%TO.C,H1*%
X150000000Y-109250000D03*
%TD*%
D16*
%TO.C,C36*%
X150915596Y-88820190D03*
X151870190Y-87865596D03*
%TD*%
D17*
%TO.C,R7*%
X153689518Y-92024948D03*
X153053122Y-92661344D03*
%TD*%
D18*
%TO.C,C32*%
X142650000Y-105275000D03*
X142650000Y-103925000D03*
%TD*%
D19*
%TO.C,D23*%
X146250000Y-106750000D03*
X146250000Y-107650000D03*
%TD*%
D16*
%TO.C,C37*%
X150208489Y-88113083D03*
X151163083Y-87158489D03*
%TD*%
D20*
%TO.C,C11*%
X154644112Y-94252334D03*
X155280508Y-93615938D03*
%TD*%
D21*
%TO.C,R13*%
X147573044Y-92555278D03*
X148209440Y-93191674D03*
%TD*%
D22*
%TO.C,U2*%
X154811612Y-104877728D03*
X155165165Y-105231282D03*
D23*
X155637159Y-105819948D03*
X154869948Y-106587159D03*
D22*
X154281282Y-106115165D03*
X153927728Y-105761612D03*
%TD*%
D24*
%TO.C,J9*%
X157250000Y-100250000D03*
%TD*%
D21*
%TO.C,R4*%
X147042714Y-93085608D03*
X147679110Y-93722004D03*
%TD*%
D20*
%TO.C,C8*%
X155431802Y-101918198D03*
X156068198Y-101281802D03*
%TD*%
D21*
%TO.C,R11*%
X148633704Y-91494618D03*
X149270100Y-92131014D03*
%TD*%
D25*
%TO.C,C6*%
X146368198Y-102231802D03*
X145731802Y-102868198D03*
%TD*%
D26*
%TO.C,C2*%
X144497130Y-96903985D03*
X143860734Y-96267589D03*
%TD*%
D17*
%TO.C,R6*%
X148118198Y-103981802D03*
X147481802Y-104618198D03*
%TD*%
D25*
%TO.C,C4*%
X149118198Y-104981802D03*
X148481802Y-105618198D03*
%TD*%
D19*
%TO.C,D24*%
X155900000Y-102650000D03*
X155900000Y-103550000D03*
%TD*%
D27*
%TO.C,D25*%
X148831802Y-87968198D03*
X149468198Y-87331802D03*
%TD*%
D17*
%TO.C,R10*%
X155810838Y-94146268D03*
X155174442Y-94782664D03*
%TD*%
D28*
%TO.C,R2*%
X145027460Y-96373654D03*
X144391064Y-95737258D03*
%TD*%
D17*
%TO.C,R8*%
X154219848Y-92555278D03*
X153583452Y-93191674D03*
%TD*%
D29*
%TO.C,C28*%
X152950000Y-107750000D03*
X152050000Y-107750000D03*
%TD*%
D20*
%TO.C,C3*%
X156235102Y-95843324D03*
X156871498Y-95206928D03*
%TD*%
D25*
%TO.C,C5*%
X148618198Y-104481802D03*
X147981802Y-105118198D03*
%TD*%
D30*
%TO.C,C22*%
X154227297Y-107477297D03*
X153272703Y-106522703D03*
%TD*%
D31*
%TO.C,C26*%
X151677297Y-90872703D03*
X150722703Y-91827297D03*
%TD*%
%TO.C,C25*%
X150970190Y-90165596D03*
X150015596Y-91120190D03*
%TD*%
D32*
%TO.C,Y1*%
X152093503Y-105821069D03*
X150891421Y-107023151D03*
X149901471Y-106033201D03*
X151103553Y-104831119D03*
%TD*%
D16*
%TO.C,C34*%
X152329810Y-90234404D03*
X153284404Y-89279810D03*
%TD*%
D33*
%TO.C,C29*%
X144150000Y-106025000D03*
X144150000Y-107375000D03*
%TD*%
D21*
%TO.C,R12*%
X148103374Y-92024948D03*
X148739770Y-92661344D03*
%TD*%
D19*
%TO.C,D22*%
X147100000Y-106750000D03*
X147100000Y-107650000D03*
%TD*%
D34*
%TO.C,U1*%
X151748788Y-93862124D03*
X152102342Y-94215678D03*
X152455895Y-94569231D03*
X152809449Y-94922785D03*
X153163002Y-95276338D03*
X153516555Y-95629891D03*
X153870109Y-95983445D03*
X154223662Y-96336998D03*
X154577215Y-96690551D03*
X154930769Y-97044105D03*
X155284322Y-97397658D03*
X155637876Y-97751212D03*
D35*
X155637876Y-99748788D03*
X155284322Y-100102342D03*
X154930769Y-100455895D03*
X154577215Y-100809449D03*
X154223662Y-101163002D03*
X153870109Y-101516555D03*
X153516555Y-101870109D03*
X153163002Y-102223662D03*
X152809449Y-102577215D03*
X152455895Y-102930769D03*
X152102342Y-103284322D03*
X151748788Y-103637876D03*
D34*
X149751212Y-103637876D03*
X149397658Y-103284322D03*
X149044105Y-102930769D03*
X148690551Y-102577215D03*
X148336998Y-102223662D03*
X147983445Y-101870109D03*
X147629891Y-101516555D03*
X147276338Y-101163002D03*
X146922785Y-100809449D03*
X146569231Y-100455895D03*
X146215678Y-100102342D03*
X145862124Y-99748788D03*
D35*
X145862124Y-97751212D03*
X146215678Y-97397658D03*
X146569231Y-97044105D03*
X146922785Y-96690551D03*
X147276338Y-96336998D03*
X147629891Y-95983445D03*
X147983445Y-95629891D03*
X148336998Y-95276338D03*
X148690551Y-94922785D03*
X149044105Y-94569231D03*
X149397658Y-94215678D03*
X149751212Y-93862124D03*
%TD*%
D36*
%TO.C,JP1*%
X157300000Y-106875000D03*
D37*
X157300000Y-104925000D03*
%TD*%
D21*
%TO.C,R1*%
X145451724Y-94676598D03*
X146088120Y-95312994D03*
%TD*%
D17*
%TO.C,R9*%
X154750178Y-93085608D03*
X154113782Y-93722004D03*
%TD*%
D31*
%TO.C,C24*%
X150263082Y-89458489D03*
X149308488Y-90413083D03*
%TD*%
D16*
%TO.C,C35*%
X151622703Y-89527297D03*
X152577297Y-88572703D03*
%TD*%
D38*
%TO.C,C38*%
X153750000Y-82250000D03*
X156250000Y-82250000D03*
%TD*%
D25*
%TO.C,C7*%
X144881014Y-100729899D03*
X144244618Y-101366295D03*
%TD*%
D20*
%TO.C,C1*%
X155704772Y-95312994D03*
X156341168Y-94676598D03*
%TD*%
D26*
%TO.C,C9*%
X146618450Y-94782664D03*
X145982054Y-94146268D03*
%TD*%
D25*
%TO.C,C13*%
X147618198Y-103481802D03*
X146981802Y-104118198D03*
%TD*%
D39*
%TO.C,C10*%
X154320888Y-103027996D03*
X154957284Y-103664392D03*
%TD*%
D33*
%TO.C,C31*%
X143150000Y-106025000D03*
X143150000Y-107375000D03*
%TD*%
D40*
%TO.C,C12*%
X153550000Y-103900000D03*
X153550000Y-104800000D03*
%TD*%
D21*
%TO.C,R5*%
X146512384Y-93615938D03*
X147148780Y-94252334D03*
%TD*%
D18*
%TO.C,C33*%
X143650000Y-105275000D03*
X143650000Y-103925000D03*
%TD*%
D33*
%TO.C,C30*%
X145150000Y-106025000D03*
X145150000Y-107375000D03*
%TD*%
D21*
%TO.C,R3*%
X144921394Y-95206928D03*
X145557790Y-95843324D03*
%TD*%
D31*
%TO.C,C27*%
X152384403Y-91579810D03*
X151429809Y-92534404D03*
%TD*%
%TO.C,C23*%
X149555976Y-88751383D03*
X148601382Y-89705977D03*
%TD*%
D41*
%TO.C,C21*%
X157250000Y-103325000D03*
X157250000Y-101675000D03*
%TD*%
D42*
X157250000Y-102450000D03*
X151500000Y-81500000D03*
X142780000Y-93250000D03*
X150124571Y-99757687D03*
X146180031Y-93072237D03*
X157300000Y-88250000D03*
X142290000Y-100250000D03*
X142750000Y-81000000D03*
X150030000Y-92960000D03*
X148300000Y-99930000D03*
X157250000Y-98850000D03*
X148400000Y-107150000D03*
X147230000Y-88030000D03*
X157280000Y-81500000D03*
X149819271Y-107261475D03*
X157290000Y-86250000D03*
X153780000Y-86680000D03*
X143310000Y-95910000D03*
X147030000Y-106040000D03*
X147280000Y-98900000D03*
X157280000Y-93250000D03*
X142290000Y-102250000D03*
X151720000Y-95570000D03*
X155414117Y-92535883D03*
X151034229Y-103573736D03*
X146700000Y-89050000D03*
X148500000Y-87250000D03*
X153300000Y-105500000D03*
X154331365Y-98163517D03*
X150060000Y-95580000D03*
X143810000Y-85220000D03*
X157750000Y-95250000D03*
X153750000Y-85500000D03*
X143745010Y-99546626D03*
X153600000Y-90150000D03*
X151650000Y-100150000D03*
X147400000Y-80670000D03*
X144120000Y-89110000D03*
X144000000Y-102950000D03*
X145460000Y-108030000D03*
X144380000Y-97710000D03*
X154550000Y-104100000D03*
X149911324Y-86248711D03*
X146938761Y-92250000D03*
X155595010Y-88970000D03*
X145320000Y-103210000D03*
X145510000Y-90820000D03*
X151600000Y-88500000D03*
X149600000Y-84610000D03*
X149950000Y-108050000D03*
X153246511Y-96950092D03*
D43*
X153080000Y-91450000D03*
X150100000Y-87050000D03*
D42*
X144950000Y-92400000D03*
D43*
X145920000Y-106040000D03*
D42*
X148300000Y-108050000D03*
D43*
X153710000Y-107990000D03*
X153150000Y-84600000D03*
D42*
X151590000Y-101084990D03*
X151600000Y-102160000D03*
X148440000Y-85970000D03*
X148630000Y-85090000D03*
X148630000Y-83740000D03*
X148600000Y-82290000D03*
X143750000Y-86250000D03*
X143700000Y-84370000D03*
X143730000Y-83000000D03*
D43*
X154500000Y-108500000D03*
D42*
X152850000Y-100550000D03*
X152345136Y-101002923D03*
X152880018Y-98230018D03*
X152858771Y-97580354D03*
X154629380Y-98839419D03*
X154197253Y-99324992D03*
X155750000Y-98500000D03*
X156250000Y-98000000D03*
X146594655Y-104644598D03*
X146975560Y-105171312D03*
X143660000Y-98150000D03*
X143710000Y-98840000D03*
X145070000Y-97740000D03*
X145520000Y-98240000D03*
X147150000Y-108250000D03*
X146650883Y-103250883D03*
X146947546Y-102650703D03*
X146489117Y-108260883D03*
X147750001Y-87500001D03*
%LPD*%
D44*
X152250000Y-80000000D02*
X157000000Y-80000000D01*
X148500000Y-81000000D02*
X151500000Y-81000000D01*
X157000000Y-108500000D02*
X156100000Y-108500000D01*
X141750000Y-107250000D02*
X141750000Y-81250000D01*
X156100000Y-120000000D02*
X156100000Y-108500000D01*
X148000000Y-80250000D02*
X148000000Y-80500000D01*
X152000000Y-80250000D02*
G75*
G02*
X152250000Y-80000000I250000J0D01*
G01*
X143900000Y-120000000D02*
X143900000Y-108500000D01*
X141750000Y-81250000D02*
G75*
G02*
X143000000Y-80000000I1250000J0D01*
G01*
X147750000Y-80000000D02*
G75*
G02*
X148000000Y-80250000I0J-250000D01*
G01*
X143000000Y-108500000D02*
G75*
G02*
X141750000Y-107250000I0J1250000D01*
G01*
X143900000Y-120000000D02*
X156100000Y-120000000D01*
X158250000Y-81250000D02*
X158250000Y-107250000D01*
X143000000Y-80000000D02*
X147750000Y-80000000D01*
X158250000Y-107250000D02*
G75*
G02*
X157000000Y-108500000I-1250000J0D01*
G01*
X157000000Y-80000000D02*
G75*
G02*
X158250000Y-81250000I0J-1250000D01*
G01*
X148500000Y-81000000D02*
G75*
G02*
X148000000Y-80500000I0J500000D01*
G01*
X143900000Y-108500000D02*
X143000000Y-108500000D01*
X152000000Y-80500000D02*
G75*
G02*
X151500000Y-81000000I-500000J0D01*
G01*
X152000000Y-80500000D02*
X152000000Y-80250000D01*
M02*
