%TF.GenerationSoftware,KiCad,Pcbnew,8.99.0-344-gfbc433deaa-dirty*%
%TF.CreationDate,2024-03-11T18:49:53+01:00*%
%TF.ProjectId,StickHub,53746963-6b48-4756-922e-6b696361645f,rev?*%
%TF.SameCoordinates,Original*%
%TF.FileFunction,Soldermask,Bot*%
%TF.FilePolarity,Negative*%
%FSLAX46Y46*%
G04 Gerber Fmt 4.6, Leading zero omitted, Abs format (unit mm)*
G04 Created by KiCad (PCBNEW 8.99.0-344-gfbc433deaa-dirty) date 2024-03-11 18:49:53*
%MOMM*%
%LPD*%
G01*
G04 APERTURE LIST*
G04 Aperture macros list*
%AMRoundRect*
0 Rectangle with rounded corners*
0 $1 Rounding radius*
0 $2 $3 $4 $5 $6 $7 $8 $9 X,Y pos of 4 corners*
0 Add a 4 corners polygon primitive as box body*
4,1,4,$2,$3,$4,$5,$6,$7,$8,$9,$2,$3,0*
0 Add four circle primitives for the rounded corners*
1,1,$1+$1,$2,$3*
1,1,$1+$1,$4,$5*
1,1,$1+$1,$6,$7*
1,1,$1+$1,$8,$9*
0 Add four rect primitives between the rounded corners*
20,1,$1+$1,$2,$3,$4,$5,0*
20,1,$1+$1,$4,$5,$6,$7,0*
20,1,$1+$1,$6,$7,$8,$9,0*
20,1,$1+$1,$8,$9,$2,$3,0*%
%AMFreePoly0*
4,1,14,0.650000,0.750000,0.750000,0.750000,0.750000,-0.750000,-0.750000,-0.750000,-0.750000,0.750000,-0.650000,0.750000,-0.500000,1.049999,-0.350000,0.750000,-0.150000,0.750000,-0.000001,1.050000,0.150000,0.750000,0.350000,0.750000,0.500000,1.050000,0.650000,0.750000,0.650000,0.750000,$1*%
%AMFreePoly1*
4,1,11,0.750000,-0.750000,0.399999,-0.750000,0.250006,-1.049999,0.100002,-0.750000,-0.100002,-0.750000,-0.249994,-1.050000,-0.399998,-0.750000,-0.750000,-0.750000,-0.750000,0.750000,0.750000,0.750000,0.750000,-0.750000,0.750000,-0.750000,$1*%
G04 Aperture macros list end*
%ADD10C,0.150000*%
%ADD11C,0.000000*%
%ADD12O,4.150000X1.650000*%
%ADD13RoundRect,0.059000X0.088388X-0.422143X0.422143X-0.088388X-0.088388X0.422143X-0.422143X0.088388X0*%
%ADD14RoundRect,0.046000X-0.035355X0.295571X-0.295571X0.035355X0.035355X-0.295571X0.295571X-0.035355X0*%
%ADD15RoundRect,0.059000X0.361000X-0.236000X0.361000X0.236000X-0.361000X0.236000X-0.361000X-0.236000X0*%
%ADD16RoundRect,0.057500X-0.272500X0.172500X-0.272500X-0.172500X0.272500X-0.172500X0.272500X0.172500X0*%
%ADD17RoundRect,0.057500X0.035355X-0.279307X0.279307X-0.035355X-0.035355X0.279307X-0.279307X0.035355X0*%
%ADD18RoundRect,0.046000X-0.295571X-0.035355X-0.035355X-0.295571X0.295571X0.035355X0.035355X0.295571X0*%
%ADD19RoundRect,0.062500X0.141421X0.229810X-0.229810X-0.141421X-0.141421X-0.229810X0.229810X0.141421X0*%
%ADD20RoundRect,0.049600X0.005303X0.500844X-0.500844X-0.005303X-0.005303X-0.500844X0.500844X0.005303X0*%
%ADD21RoundRect,0.100500X-0.649500X-0.649500X0.649500X-0.649500X0.649500X0.649500X-0.649500X0.649500X0*%
%ADD22RoundRect,0.057500X-0.035355X0.279307X-0.279307X0.035355X0.035355X-0.279307X0.279307X-0.035355X0*%
%ADD23RoundRect,0.057500X0.279307X0.035355X0.035355X0.279307X-0.279307X-0.035355X-0.035355X-0.279307X0*%
%ADD24RoundRect,0.057500X0.070711X-0.314663X0.314663X-0.070711X-0.070711X0.314663X-0.314663X0.070711X0*%
%ADD25RoundRect,0.046000X0.295571X0.035355X0.035355X0.295571X-0.295571X-0.035355X-0.035355X-0.295571X0*%
%ADD26RoundRect,0.057500X0.172500X0.222500X-0.172500X0.222500X-0.172500X-0.222500X0.172500X-0.222500X0*%
%ADD27RoundRect,0.059000X0.422143X0.088388X0.088388X0.422143X-0.422143X-0.088388X-0.088388X-0.422143X0*%
%ADD28RoundRect,0.059000X-0.088388X0.422143X-0.422143X0.088388X0.088388X-0.422143X0.422143X-0.088388X0*%
%ADD29RoundRect,0.110200X0.035355X0.658741X-0.658741X-0.035355X-0.035355X-0.658741X0.658741X0.035355X0*%
%ADD30RoundRect,0.059000X-0.361000X0.236000X-0.361000X-0.236000X0.361000X-0.236000X0.361000X0.236000X0*%
%ADD31RoundRect,0.075000X0.415425X0.521491X-0.521491X-0.415425X-0.415425X-0.521491X0.521491X0.415425X0*%
%ADD32RoundRect,0.075000X-0.415425X0.521491X-0.521491X0.415425X0.415425X-0.521491X0.521491X-0.415425X0*%
%ADD33FreePoly0,0.000000*%
%ADD34FreePoly1,0.000000*%
%ADD35RoundRect,0.499500X0.250500X1.500500X-0.250500X1.500500X-0.250500X-1.500500X0.250500X-1.500500X0*%
%ADD36RoundRect,0.057500X-0.279307X-0.035355X-0.035355X-0.279307X0.279307X0.035355X0.035355X0.279307X0*%
%ADD37RoundRect,0.057500X-0.222500X0.172500X-0.222500X-0.172500X0.222500X-0.172500X0.222500X0.172500X0*%
%ADD38RoundRect,0.075000X0.575000X-0.300000X0.575000X0.300000X-0.575000X0.300000X-0.575000X-0.300000X0*%
%ADD39C,0.500000*%
%ADD40C,0.600000*%
%TA.AperFunction,Profile*%
%ADD41C,0.100000*%
%TD*%
G04 APERTURE END LIST*
D10*
X145735714Y-86037371D02*
X145707142Y-86008800D01*
X145707142Y-86008800D02*
X145621428Y-85980228D01*
X145621428Y-85980228D02*
X145564285Y-85980228D01*
X145564285Y-85980228D02*
X145478571Y-86008800D01*
X145478571Y-86008800D02*
X145421428Y-86065942D01*
X145421428Y-86065942D02*
X145392857Y-86123085D01*
X145392857Y-86123085D02*
X145364285Y-86237371D01*
X145364285Y-86237371D02*
X145364285Y-86323085D01*
X145364285Y-86323085D02*
X145392857Y-86437371D01*
X145392857Y-86437371D02*
X145421428Y-86494514D01*
X145421428Y-86494514D02*
X145478571Y-86551657D01*
X145478571Y-86551657D02*
X145564285Y-86580228D01*
X145564285Y-86580228D02*
X145621428Y-86580228D01*
X145621428Y-86580228D02*
X145707142Y-86551657D01*
X145707142Y-86551657D02*
X145735714Y-86523085D01*
X145185714Y-86037371D02*
X145157142Y-86008800D01*
X145157142Y-86008800D02*
X145071428Y-85980228D01*
X145071428Y-85980228D02*
X145014285Y-85980228D01*
X145014285Y-85980228D02*
X144928571Y-86008800D01*
X144928571Y-86008800D02*
X144871428Y-86065942D01*
X144871428Y-86065942D02*
X144842857Y-86123085D01*
X144842857Y-86123085D02*
X144814285Y-86237371D01*
X144814285Y-86237371D02*
X144814285Y-86323085D01*
X144814285Y-86323085D02*
X144842857Y-86437371D01*
X144842857Y-86437371D02*
X144871428Y-86494514D01*
X144871428Y-86494514D02*
X144928571Y-86551657D01*
X144928571Y-86551657D02*
X145014285Y-86580228D01*
X145014285Y-86580228D02*
X145071428Y-86580228D01*
X145071428Y-86580228D02*
X145157142Y-86551657D01*
X145157142Y-86551657D02*
X145185714Y-86523085D01*
%TO.C,LOGO2*%
X147500000Y-86250000D02*
G75*
G02*
X146000000Y-86250000I-750000J0D01*
G01*
X146000000Y-86250000D02*
G75*
G02*
X147500000Y-86250000I750000J0D01*
G01*
X146775000Y-86675000D02*
G75*
G02*
X146725000Y-86675000I-25000J0D01*
G01*
X146725000Y-86675000D02*
G75*
G02*
X146775000Y-86675000I25000J0D01*
G01*
D11*
G36*
X146850000Y-86075000D02*
G01*
X146950000Y-86075000D01*
X146950000Y-86475000D01*
X146900000Y-86525000D01*
X146600000Y-86525000D01*
X146550000Y-86475000D01*
X146550000Y-86075000D01*
X146650000Y-86075000D01*
X146650000Y-85725000D01*
X146850000Y-85725000D01*
X146850000Y-86075000D01*
G37*
D10*
%TO.C,LOGO1*%
X146000000Y-86250000D02*
G75*
G02*
X144500000Y-86250000I-750000J0D01*
G01*
X144500000Y-86250000D02*
G75*
G02*
X146000000Y-86250000I750000J0D01*
G01*
%TO.C,LOGO3*%
X144575000Y-85050000D02*
X145250000Y-84750000D01*
X145175000Y-84325000D02*
X145025000Y-84375000D01*
X145250000Y-84750000D02*
X145925000Y-84450000D01*
X145250000Y-85250000D02*
X145250000Y-84250000D01*
X145325000Y-85175000D02*
X145475000Y-85125000D01*
X145174836Y-84325072D02*
G75*
G02*
X145350000Y-84700000I83164J-189528D01*
G01*
X145325164Y-85174928D02*
G75*
G02*
X145150000Y-84800000I-83164J189528D01*
G01*
X146000000Y-84750000D02*
G75*
G02*
X144500000Y-84750000I-750000J0D01*
G01*
X144500000Y-84750000D02*
G75*
G02*
X146000000Y-84750000I750000J0D01*
G01*
%TO.C,LOGO4*%
X147100000Y-84600000D02*
X147100000Y-84900000D01*
X146400000Y-84600000D02*
G75*
G02*
X147100000Y-84600000I350000J0D01*
G01*
X147100000Y-84900000D02*
G75*
G02*
X146400000Y-84900000I-350000J0D01*
G01*
X147500000Y-84750000D02*
G75*
G02*
X146000000Y-84750000I-750000J0D01*
G01*
X146000000Y-84750000D02*
G75*
G02*
X147500000Y-84750000I750000J0D01*
G01*
D11*
G36*
X146550000Y-84950000D02*
G01*
X146250000Y-84950000D01*
X146400000Y-84725000D01*
X146550000Y-84950000D01*
G37*
G36*
X146475000Y-84675000D02*
G01*
X146325000Y-84675000D01*
X146325000Y-84600000D01*
X146475000Y-84600000D01*
X146475000Y-84675000D01*
G37*
%TO.C,JP1*%
G36*
X158050000Y-106249999D02*
G01*
X156550000Y-106250000D01*
X156550000Y-105550001D01*
X158050000Y-105550000D01*
X158050000Y-106249999D01*
G37*
%TD*%
D12*
%TO.C,H1*%
X150000000Y-109250000D03*
%TD*%
D13*
%TO.C,C36*%
X150915596Y-88820190D03*
X151870190Y-87865596D03*
%TD*%
D14*
%TO.C,R7*%
X153689518Y-92024948D03*
X153053122Y-92661344D03*
%TD*%
D15*
%TO.C,C32*%
X142650000Y-105275000D03*
X142650000Y-103925000D03*
%TD*%
D16*
%TO.C,D23*%
X146250000Y-106750000D03*
X146250000Y-107650000D03*
%TD*%
D13*
%TO.C,C37*%
X150208489Y-88113083D03*
X151163083Y-87158489D03*
%TD*%
D17*
%TO.C,C11*%
X154644112Y-94252334D03*
X155280508Y-93615938D03*
%TD*%
D18*
%TO.C,R13*%
X147573044Y-92555278D03*
X148209440Y-93191674D03*
%TD*%
D19*
%TO.C,U2*%
X154811612Y-104877728D03*
X155165165Y-105231282D03*
D20*
X155637159Y-105819948D03*
X154869948Y-106587159D03*
D19*
X154281282Y-106115165D03*
X153927728Y-105761612D03*
%TD*%
D21*
%TO.C,J9*%
X157250000Y-100250000D03*
%TD*%
D18*
%TO.C,R4*%
X147042714Y-93085608D03*
X147679110Y-93722004D03*
%TD*%
D17*
%TO.C,C8*%
X155431802Y-101918198D03*
X156068198Y-101281802D03*
%TD*%
D18*
%TO.C,R11*%
X148633704Y-91494618D03*
X149270100Y-92131014D03*
%TD*%
D22*
%TO.C,C6*%
X146368198Y-102231802D03*
X145731802Y-102868198D03*
%TD*%
D23*
%TO.C,C2*%
X144497130Y-96903985D03*
X143860734Y-96267589D03*
%TD*%
D14*
%TO.C,R6*%
X148118198Y-103981802D03*
X147481802Y-104618198D03*
%TD*%
D22*
%TO.C,C4*%
X149118198Y-104981802D03*
X148481802Y-105618198D03*
%TD*%
D16*
%TO.C,D24*%
X155900000Y-102650000D03*
X155900000Y-103550000D03*
%TD*%
D24*
%TO.C,D25*%
X148831802Y-87968198D03*
X149468198Y-87331802D03*
%TD*%
D14*
%TO.C,R10*%
X155810838Y-94146268D03*
X155174442Y-94782664D03*
%TD*%
D25*
%TO.C,R2*%
X145027460Y-96373654D03*
X144391064Y-95737258D03*
%TD*%
D14*
%TO.C,R8*%
X154219848Y-92555278D03*
X153583452Y-93191674D03*
%TD*%
D26*
%TO.C,C28*%
X152950000Y-107750000D03*
X152050000Y-107750000D03*
%TD*%
D17*
%TO.C,C3*%
X156235102Y-95843324D03*
X156871498Y-95206928D03*
%TD*%
D22*
%TO.C,C5*%
X148618198Y-104481802D03*
X147981802Y-105118198D03*
%TD*%
D27*
%TO.C,C22*%
X154227297Y-107477297D03*
X153272703Y-106522703D03*
%TD*%
D28*
%TO.C,C26*%
X151677297Y-90872703D03*
X150722703Y-91827297D03*
%TD*%
%TO.C,C25*%
X150970190Y-90165596D03*
X150015596Y-91120190D03*
%TD*%
D29*
%TO.C,Y1*%
X152093503Y-105821069D03*
X150891421Y-107023151D03*
X149901471Y-106033201D03*
X151103553Y-104831119D03*
%TD*%
D13*
%TO.C,C34*%
X152329810Y-90234404D03*
X153284404Y-89279810D03*
%TD*%
D30*
%TO.C,C29*%
X144150000Y-106025000D03*
X144150000Y-107375000D03*
%TD*%
D18*
%TO.C,R12*%
X148103374Y-92024948D03*
X148739770Y-92661344D03*
%TD*%
D16*
%TO.C,D22*%
X147100000Y-106750000D03*
X147100000Y-107650000D03*
%TD*%
D31*
%TO.C,U1*%
X151748788Y-93862124D03*
X152102342Y-94215678D03*
X152455895Y-94569231D03*
X152809449Y-94922785D03*
X153163002Y-95276338D03*
X153516555Y-95629891D03*
X153870109Y-95983445D03*
X154223662Y-96336998D03*
X154577215Y-96690551D03*
X154930769Y-97044105D03*
X155284322Y-97397658D03*
X155637876Y-97751212D03*
D32*
X155637876Y-99748788D03*
X155284322Y-100102342D03*
X154930769Y-100455895D03*
X154577215Y-100809449D03*
X154223662Y-101163002D03*
X153870109Y-101516555D03*
X153516555Y-101870109D03*
X153163002Y-102223662D03*
X152809449Y-102577215D03*
X152455895Y-102930769D03*
X152102342Y-103284322D03*
X151748788Y-103637876D03*
D31*
X149751212Y-103637876D03*
X149397658Y-103284322D03*
X149044105Y-102930769D03*
X148690551Y-102577215D03*
X148336998Y-102223662D03*
X147983445Y-101870109D03*
X147629891Y-101516555D03*
X147276338Y-101163002D03*
X146922785Y-100809449D03*
X146569231Y-100455895D03*
X146215678Y-100102342D03*
X145862124Y-99748788D03*
D32*
X145862124Y-97751212D03*
X146215678Y-97397658D03*
X146569231Y-97044105D03*
X146922785Y-96690551D03*
X147276338Y-96336998D03*
X147629891Y-95983445D03*
X147983445Y-95629891D03*
X148336998Y-95276338D03*
X148690551Y-94922785D03*
X149044105Y-94569231D03*
X149397658Y-94215678D03*
X149751212Y-93862124D03*
%TD*%
D33*
%TO.C,JP1*%
X157300000Y-106875000D03*
D34*
X157300000Y-104925000D03*
%TD*%
D18*
%TO.C,R1*%
X145451724Y-94676598D03*
X146088120Y-95312994D03*
%TD*%
D14*
%TO.C,R9*%
X154750178Y-93085608D03*
X154113782Y-93722004D03*
%TD*%
D28*
%TO.C,C24*%
X150263082Y-89458489D03*
X149308488Y-90413083D03*
%TD*%
D13*
%TO.C,C35*%
X151622703Y-89527297D03*
X152577297Y-88572703D03*
%TD*%
D35*
%TO.C,C38*%
X153750000Y-82250000D03*
X156250000Y-82250000D03*
%TD*%
D22*
%TO.C,C7*%
X144881014Y-100729899D03*
X144244618Y-101366295D03*
%TD*%
D17*
%TO.C,C1*%
X155704772Y-95312994D03*
X156341168Y-94676598D03*
%TD*%
D23*
%TO.C,C9*%
X146618450Y-94782664D03*
X145982054Y-94146268D03*
%TD*%
D22*
%TO.C,C13*%
X147618198Y-103481802D03*
X146981802Y-104118198D03*
%TD*%
D36*
%TO.C,C10*%
X154320888Y-103027996D03*
X154957284Y-103664392D03*
%TD*%
D30*
%TO.C,C31*%
X143150000Y-106025000D03*
X143150000Y-107375000D03*
%TD*%
D37*
%TO.C,C12*%
X153550000Y-103900000D03*
X153550000Y-104800000D03*
%TD*%
D18*
%TO.C,R5*%
X146512384Y-93615938D03*
X147148780Y-94252334D03*
%TD*%
D15*
%TO.C,C33*%
X143650000Y-105275000D03*
X143650000Y-103925000D03*
%TD*%
D30*
%TO.C,C30*%
X145150000Y-106025000D03*
X145150000Y-107375000D03*
%TD*%
D18*
%TO.C,R3*%
X144921394Y-95206928D03*
X145557790Y-95843324D03*
%TD*%
D28*
%TO.C,C27*%
X152384403Y-91579810D03*
X151429809Y-92534404D03*
%TD*%
%TO.C,C23*%
X149555976Y-88751383D03*
X148601382Y-89705977D03*
%TD*%
D38*
%TO.C,C21*%
X157250000Y-103325000D03*
X157250000Y-101675000D03*
%TD*%
D39*
X157250000Y-102450000D03*
X151500000Y-81500000D03*
X142780000Y-93250000D03*
X150124571Y-99757687D03*
X146180031Y-93072237D03*
X157300000Y-88250000D03*
X142290000Y-100250000D03*
X142750000Y-81000000D03*
X150030000Y-92960000D03*
X148300000Y-99930000D03*
X157250000Y-98850000D03*
X148400000Y-107150000D03*
X147230000Y-88030000D03*
X157280000Y-81500000D03*
X149819271Y-107261475D03*
X157290000Y-86250000D03*
X153780000Y-86680000D03*
X143310000Y-95910000D03*
X147030000Y-106040000D03*
X147280000Y-98900000D03*
X157280000Y-93250000D03*
X142290000Y-102250000D03*
X151720000Y-95570000D03*
X155414117Y-92535883D03*
X151034229Y-103573736D03*
X146700000Y-89050000D03*
X148500000Y-87250000D03*
X153300000Y-105500000D03*
X154331365Y-98163517D03*
X150060000Y-95580000D03*
X143810000Y-85220000D03*
X157750000Y-95250000D03*
X153750000Y-85500000D03*
X143745010Y-99546626D03*
X153600000Y-90150000D03*
X151650000Y-100150000D03*
X147400000Y-80670000D03*
X144120000Y-89110000D03*
X144000000Y-102950000D03*
X145460000Y-108030000D03*
X144380000Y-97710000D03*
X154550000Y-104100000D03*
X149911324Y-86248711D03*
X146938761Y-92250000D03*
X155595010Y-88970000D03*
X145320000Y-103210000D03*
X145510000Y-90820000D03*
X151600000Y-88500000D03*
X149600000Y-84610000D03*
X149950000Y-108050000D03*
X153246511Y-96950092D03*
D40*
X153080000Y-91450000D03*
X150100000Y-87050000D03*
D39*
X144950000Y-92400000D03*
D40*
X145920000Y-106040000D03*
D39*
X148300000Y-108050000D03*
D40*
X153710000Y-107990000D03*
X153150000Y-84600000D03*
D39*
X151590000Y-101084990D03*
X151600000Y-102160000D03*
X148440000Y-85970000D03*
X148630000Y-85090000D03*
X148630000Y-83740000D03*
X148600000Y-82290000D03*
X143750000Y-86250000D03*
X143700000Y-84370000D03*
X143730000Y-83000000D03*
D40*
X154500000Y-108500000D03*
D39*
X152850000Y-100550000D03*
X152345136Y-101002923D03*
X152880018Y-98230018D03*
X152858771Y-97580354D03*
X154629380Y-98839419D03*
X154197253Y-99324992D03*
X155750000Y-98500000D03*
X156250000Y-98000000D03*
X146594655Y-104644598D03*
X146975560Y-105171312D03*
X143660000Y-98150000D03*
X143710000Y-98840000D03*
X145070000Y-97740000D03*
X145520000Y-98240000D03*
X147150000Y-108250000D03*
X146650883Y-103250883D03*
X146947546Y-102650703D03*
X146489117Y-108260883D03*
X147750001Y-87500001D03*
D41*
X152250000Y-80000000D02*
X157000000Y-80000000D01*
X148500000Y-81000000D02*
X151500000Y-81000000D01*
X157000000Y-108500000D02*
X156100000Y-108500000D01*
X141750000Y-107250000D02*
X141750000Y-81250000D01*
X156100000Y-120000000D02*
X156100000Y-108500000D01*
X148000000Y-80250000D02*
X148000000Y-80500000D01*
X152000000Y-80250000D02*
G75*
G02*
X152250000Y-80000000I250000J0D01*
G01*
X143900000Y-120000000D02*
X143900000Y-108500000D01*
X141750000Y-81250000D02*
G75*
G02*
X143000000Y-80000000I1250000J0D01*
G01*
X147750000Y-80000000D02*
G75*
G02*
X148000000Y-80250000I0J-250000D01*
G01*
X143000000Y-108500000D02*
G75*
G02*
X141750000Y-107250000I0J1250000D01*
G01*
X143900000Y-120000000D02*
X156100000Y-120000000D01*
X158250000Y-81250000D02*
X158250000Y-107250000D01*
X143000000Y-80000000D02*
X147750000Y-80000000D01*
X158250000Y-107250000D02*
G75*
G02*
X157000000Y-108500000I-1250000J0D01*
G01*
X157000000Y-80000000D02*
G75*
G02*
X158250000Y-81250000I0J-1250000D01*
G01*
X148500000Y-81000000D02*
G75*
G02*
X148000000Y-80500000I0J500000D01*
G01*
X143900000Y-108500000D02*
X143000000Y-108500000D01*
X152000000Y-80500000D02*
G75*
G02*
X151500000Y-81000000I-500000J0D01*
G01*
X152000000Y-80500000D02*
X152000000Y-80250000D01*
M02*
