%TF.GenerationSoftware,KiCad,Pcbnew,8.99.0-344-gfbc433deaa-dirty*%
%TF.CreationDate,2024-03-11T18:50:11+01:00*%
%TF.ProjectId,StickHub,53746963-6b48-4756-922e-6b696361645f,rev?*%
%TF.SameCoordinates,Original*%
%TF.FileFunction,Plated,1,2,PTH,Drill*%
%TF.FilePolarity,Positive*%
%FSLAX46Y46*%
G04 Gerber Fmt 4.6, Leading zero omitted, Abs format (unit mm)*
G04 Created by KiCad (PCBNEW 8.99.0-344-gfbc433deaa-dirty) date 2024-03-11 18:50:11*
%MOMM*%
%LPD*%
G01*
G04 APERTURE LIST*
%TA.AperFunction,ViaDrill*%
%ADD10C,0.300000*%
%TD*%
%TA.AperFunction,ViaDrill*%
%ADD11C,0.400000*%
%TD*%
G04 APERTURE END LIST*
D10*
X142290000Y-100250000D03*
X142290000Y-102250000D03*
X142750000Y-81000000D03*
X142780000Y-93250000D03*
X143310000Y-95910000D03*
X143660000Y-98150000D03*
X143700000Y-84370000D03*
X143710000Y-98840000D03*
X143730000Y-83000000D03*
X143745010Y-99546626D03*
X143750000Y-86250000D03*
X143810000Y-85220000D03*
X144000000Y-102950000D03*
X144120000Y-89110000D03*
X144380000Y-97710000D03*
X144950000Y-92400000D03*
X145070000Y-97740000D03*
X145320000Y-103210000D03*
X145460000Y-108030000D03*
X145510000Y-90820000D03*
X145520000Y-98240000D03*
X146180031Y-93072237D03*
X146489117Y-108260883D03*
X146594655Y-104644598D03*
X146650883Y-103250883D03*
X146700000Y-89050000D03*
X146938761Y-92250000D03*
X146947546Y-102650703D03*
X146975560Y-105171312D03*
X147030000Y-106040000D03*
X147150000Y-108250000D03*
X147230000Y-88030000D03*
X147280000Y-98900000D03*
X147400000Y-80670000D03*
X147750001Y-87500001D03*
X148300000Y-99930000D03*
X148300000Y-108050000D03*
X148400000Y-107150000D03*
X148440000Y-85970000D03*
X148500000Y-87250000D03*
X148600000Y-82290000D03*
X148630000Y-83740000D03*
X148630000Y-85090000D03*
X149600000Y-84610000D03*
X149819271Y-107261475D03*
X149911324Y-86248711D03*
X149950000Y-108050000D03*
X150030000Y-92960000D03*
X150060000Y-95580000D03*
X150124571Y-99757687D03*
X151034229Y-103573736D03*
X151500000Y-81500000D03*
X151590000Y-101084990D03*
X151600000Y-88500000D03*
X151600000Y-102160000D03*
X151650000Y-100150000D03*
X151720000Y-95570000D03*
X152345136Y-101002923D03*
X152850000Y-100550000D03*
X152858771Y-97580354D03*
X152880018Y-98230018D03*
X153246511Y-96950092D03*
X153300000Y-105500000D03*
X153600000Y-90150000D03*
X153750000Y-85500000D03*
X153780000Y-86680000D03*
X154197253Y-99324992D03*
X154331365Y-98163517D03*
X154550000Y-104100000D03*
X154629380Y-98839419D03*
X155414117Y-92535883D03*
X155595010Y-88970000D03*
X155750000Y-98500000D03*
X156250000Y-98000000D03*
X157250000Y-98850000D03*
X157250000Y-102450000D03*
X157280000Y-81500000D03*
X157280000Y-93250000D03*
X157290000Y-86250000D03*
X157300000Y-88250000D03*
X157750000Y-95250000D03*
D11*
X145920000Y-106040000D03*
X150100000Y-87050000D03*
X153080000Y-91450000D03*
X153150000Y-84600000D03*
X153710000Y-107990000D03*
X154500000Y-108500000D03*
M02*
